G04 #@! TF.GenerationSoftware,KiCad,Pcbnew,5.0.1*
G04 #@! TF.CreationDate,2019-03-09T23:10:30-08:00*
G04 #@! TF.ProjectId,phoenix-adapter,70686F656E69782D616461707465722E,0.1*
G04 #@! TF.SameCoordinates,Original*
G04 #@! TF.FileFunction,Legend,Bot*
G04 #@! TF.FilePolarity,Positive*
%FSLAX46Y46*%
G04 Gerber Fmt 4.6, Leading zero omitted, Abs format (unit mm)*
G04 Created by KiCad (PCBNEW 5.0.1) date Sat 09 Mar 2019 11:10:30 PM PST*
%MOMM*%
%LPD*%
G01*
G04 APERTURE LIST*
%ADD10C,0.203200*%
%ADD11C,0.010000*%
G04 APERTURE END LIST*
D10*
X146818666Y-112302166D02*
X146818666Y-111413166D01*
X146818666Y-112259833D02*
X146903333Y-112302166D01*
X147072666Y-112302166D01*
X147157333Y-112259833D01*
X147199666Y-112217500D01*
X147242000Y-112132833D01*
X147242000Y-111878833D01*
X147199666Y-111794166D01*
X147157333Y-111751833D01*
X147072666Y-111709500D01*
X146903333Y-111709500D01*
X146818666Y-111751833D01*
X146395333Y-112302166D02*
X146395333Y-111413166D01*
X146395333Y-111751833D02*
X146310666Y-111709500D01*
X146141333Y-111709500D01*
X146056666Y-111751833D01*
X146014333Y-111794166D01*
X145972000Y-111878833D01*
X145972000Y-112132833D01*
X146014333Y-112217500D01*
X146056666Y-112259833D01*
X146141333Y-112302166D01*
X146310666Y-112302166D01*
X146395333Y-112259833D01*
X145591000Y-111963500D02*
X144913666Y-111963500D01*
X144151666Y-112259833D02*
X144236333Y-112302166D01*
X144405666Y-112302166D01*
X144490333Y-112259833D01*
X144532666Y-112175166D01*
X144532666Y-111836500D01*
X144490333Y-111751833D01*
X144405666Y-111709500D01*
X144236333Y-111709500D01*
X144151666Y-111751833D01*
X144109333Y-111836500D01*
X144109333Y-111921166D01*
X144532666Y-112005833D01*
X143601333Y-112302166D02*
X143686000Y-112259833D01*
X143728333Y-112175166D01*
X143728333Y-111413166D01*
X142924000Y-112259833D02*
X143008666Y-112302166D01*
X143178000Y-112302166D01*
X143262666Y-112259833D01*
X143305000Y-112175166D01*
X143305000Y-111836500D01*
X143262666Y-111751833D01*
X143178000Y-111709500D01*
X143008666Y-111709500D01*
X142924000Y-111751833D01*
X142881666Y-111836500D01*
X142881666Y-111921166D01*
X143305000Y-112005833D01*
X142119666Y-112259833D02*
X142204333Y-112302166D01*
X142373666Y-112302166D01*
X142458333Y-112259833D01*
X142500666Y-112217500D01*
X142543000Y-112132833D01*
X142543000Y-111878833D01*
X142500666Y-111794166D01*
X142458333Y-111751833D01*
X142373666Y-111709500D01*
X142204333Y-111709500D01*
X142119666Y-111751833D01*
X141865666Y-111709500D02*
X141527000Y-111709500D01*
X141738666Y-111413166D02*
X141738666Y-112175166D01*
X141696333Y-112259833D01*
X141611666Y-112302166D01*
X141527000Y-112302166D01*
X141230666Y-112302166D02*
X141230666Y-111709500D01*
X141230666Y-111878833D02*
X141188333Y-111794166D01*
X141146000Y-111751833D01*
X141061333Y-111709500D01*
X140976666Y-111709500D01*
X140553333Y-112302166D02*
X140638000Y-112259833D01*
X140680333Y-112217500D01*
X140722666Y-112132833D01*
X140722666Y-111878833D01*
X140680333Y-111794166D01*
X140638000Y-111751833D01*
X140553333Y-111709500D01*
X140426333Y-111709500D01*
X140341666Y-111751833D01*
X140299333Y-111794166D01*
X140257000Y-111878833D01*
X140257000Y-112132833D01*
X140299333Y-112217500D01*
X140341666Y-112259833D01*
X140426333Y-112302166D01*
X140553333Y-112302166D01*
X139876000Y-111709500D02*
X139876000Y-112302166D01*
X139876000Y-111794166D02*
X139833666Y-111751833D01*
X139749000Y-111709500D01*
X139622000Y-111709500D01*
X139537333Y-111751833D01*
X139495000Y-111836500D01*
X139495000Y-112302166D01*
X139071666Y-112302166D02*
X139071666Y-111709500D01*
X139071666Y-111413166D02*
X139114000Y-111455500D01*
X139071666Y-111497833D01*
X139029333Y-111455500D01*
X139071666Y-111413166D01*
X139071666Y-111497833D01*
X138267333Y-112259833D02*
X138352000Y-112302166D01*
X138521333Y-112302166D01*
X138606000Y-112259833D01*
X138648333Y-112217500D01*
X138690666Y-112132833D01*
X138690666Y-111878833D01*
X138648333Y-111794166D01*
X138606000Y-111751833D01*
X138521333Y-111709500D01*
X138352000Y-111709500D01*
X138267333Y-111751833D01*
X137928666Y-112259833D02*
X137844000Y-112302166D01*
X137674666Y-112302166D01*
X137590000Y-112259833D01*
X137547666Y-112175166D01*
X137547666Y-112132833D01*
X137590000Y-112048166D01*
X137674666Y-112005833D01*
X137801666Y-112005833D01*
X137886333Y-111963500D01*
X137928666Y-111878833D01*
X137928666Y-111836500D01*
X137886333Y-111751833D01*
X137801666Y-111709500D01*
X137674666Y-111709500D01*
X137590000Y-111751833D01*
X137166666Y-112217500D02*
X137124333Y-112259833D01*
X137166666Y-112302166D01*
X137209000Y-112259833D01*
X137166666Y-112217500D01*
X137166666Y-112302166D01*
X136362333Y-112259833D02*
X136447000Y-112302166D01*
X136616333Y-112302166D01*
X136701000Y-112259833D01*
X136743333Y-112217500D01*
X136785666Y-112132833D01*
X136785666Y-111878833D01*
X136743333Y-111794166D01*
X136701000Y-111751833D01*
X136616333Y-111709500D01*
X136447000Y-111709500D01*
X136362333Y-111751833D01*
X135600333Y-112302166D02*
X135600333Y-111836500D01*
X135642666Y-111751833D01*
X135727333Y-111709500D01*
X135896666Y-111709500D01*
X135981333Y-111751833D01*
X135600333Y-112259833D02*
X135685000Y-112302166D01*
X135896666Y-112302166D01*
X135981333Y-112259833D01*
X136023666Y-112175166D01*
X136023666Y-112090500D01*
X135981333Y-112005833D01*
X135896666Y-111963500D01*
X135685000Y-111963500D01*
X135600333Y-111921166D01*
D11*
G04 #@! TO.C,G\002A\002A\002A*
G36*
X139737356Y-108384983D02*
X139737410Y-108493580D01*
X139737568Y-108597077D01*
X139737821Y-108694201D01*
X139738160Y-108783680D01*
X139738579Y-108864240D01*
X139739067Y-108934609D01*
X139739618Y-108993512D01*
X139740223Y-109039679D01*
X139740873Y-109071834D01*
X139741560Y-109088706D01*
X139741931Y-109091017D01*
X139748522Y-109084316D01*
X139750290Y-109080254D01*
X139770669Y-109022836D01*
X139787007Y-108978232D01*
X139800672Y-108942906D01*
X139813033Y-108913323D01*
X139825459Y-108885949D01*
X139825716Y-108885403D01*
X139899947Y-108746041D01*
X139986874Y-108615311D01*
X140084904Y-108495313D01*
X140192441Y-108388146D01*
X140223830Y-108360900D01*
X140353770Y-108261796D01*
X140489409Y-108178538D01*
X140631559Y-108110795D01*
X140781029Y-108058235D01*
X140938629Y-108020526D01*
X141105167Y-107997335D01*
X141111738Y-107996730D01*
X141254159Y-107992035D01*
X141400133Y-108002728D01*
X141547053Y-108028120D01*
X141692310Y-108067519D01*
X141833295Y-108120235D01*
X141967400Y-108185577D01*
X142076582Y-108252251D01*
X142115968Y-108279978D01*
X142158627Y-108311780D01*
X142200665Y-108344587D01*
X142238190Y-108375326D01*
X142267308Y-108400924D01*
X142277356Y-108410689D01*
X142285529Y-108419209D01*
X142292297Y-108425512D01*
X142297793Y-108428247D01*
X142302148Y-108426064D01*
X142305494Y-108417611D01*
X142307965Y-108401537D01*
X142309692Y-108376492D01*
X142310807Y-108341126D01*
X142311443Y-108294085D01*
X142311732Y-108234021D01*
X142311805Y-108159583D01*
X142311797Y-108069418D01*
X142311796Y-108058851D01*
X142311796Y-107678949D01*
X139737356Y-107678949D01*
X139737356Y-108384983D01*
X139737356Y-108384983D01*
G37*
X139737356Y-108384983D02*
X139737410Y-108493580D01*
X139737568Y-108597077D01*
X139737821Y-108694201D01*
X139738160Y-108783680D01*
X139738579Y-108864240D01*
X139739067Y-108934609D01*
X139739618Y-108993512D01*
X139740223Y-109039679D01*
X139740873Y-109071834D01*
X139741560Y-109088706D01*
X139741931Y-109091017D01*
X139748522Y-109084316D01*
X139750290Y-109080254D01*
X139770669Y-109022836D01*
X139787007Y-108978232D01*
X139800672Y-108942906D01*
X139813033Y-108913323D01*
X139825459Y-108885949D01*
X139825716Y-108885403D01*
X139899947Y-108746041D01*
X139986874Y-108615311D01*
X140084904Y-108495313D01*
X140192441Y-108388146D01*
X140223830Y-108360900D01*
X140353770Y-108261796D01*
X140489409Y-108178538D01*
X140631559Y-108110795D01*
X140781029Y-108058235D01*
X140938629Y-108020526D01*
X141105167Y-107997335D01*
X141111738Y-107996730D01*
X141254159Y-107992035D01*
X141400133Y-108002728D01*
X141547053Y-108028120D01*
X141692310Y-108067519D01*
X141833295Y-108120235D01*
X141967400Y-108185577D01*
X142076582Y-108252251D01*
X142115968Y-108279978D01*
X142158627Y-108311780D01*
X142200665Y-108344587D01*
X142238190Y-108375326D01*
X142267308Y-108400924D01*
X142277356Y-108410689D01*
X142285529Y-108419209D01*
X142292297Y-108425512D01*
X142297793Y-108428247D01*
X142302148Y-108426064D01*
X142305494Y-108417611D01*
X142307965Y-108401537D01*
X142309692Y-108376492D01*
X142310807Y-108341126D01*
X142311443Y-108294085D01*
X142311732Y-108234021D01*
X142311805Y-108159583D01*
X142311797Y-108069418D01*
X142311796Y-108058851D01*
X142311796Y-107678949D01*
X139737356Y-107678949D01*
X139737356Y-108384983D01*
G36*
X141161690Y-108441901D02*
X141114221Y-108442943D01*
X141076436Y-108445001D01*
X141044572Y-108448389D01*
X141014861Y-108453418D01*
X140983539Y-108460403D01*
X140977220Y-108461946D01*
X140893881Y-108484958D01*
X140819572Y-108511387D01*
X140746104Y-108544327D01*
X140708545Y-108563458D01*
X140594130Y-108633157D01*
X140490241Y-108715794D01*
X140397753Y-108810045D01*
X140317542Y-108914583D01*
X140250484Y-109028084D01*
X140197455Y-109149223D01*
X140159332Y-109276675D01*
X140136989Y-109409115D01*
X140134901Y-109431118D01*
X140131742Y-109566962D01*
X140144984Y-109700169D01*
X140173998Y-109829426D01*
X140218155Y-109953420D01*
X140276828Y-110070839D01*
X140349386Y-110180368D01*
X140435202Y-110280696D01*
X140533647Y-110370508D01*
X140612075Y-110427978D01*
X140720094Y-110492609D01*
X140829202Y-110542600D01*
X140944406Y-110580080D01*
X141003051Y-110594190D01*
X141033493Y-110599062D01*
X141075609Y-110603498D01*
X141125233Y-110607300D01*
X141178204Y-110610271D01*
X141230358Y-110612212D01*
X141277531Y-110612927D01*
X141315561Y-110612217D01*
X141338847Y-110610143D01*
X141358223Y-110606950D01*
X141388036Y-110602122D01*
X141420644Y-110596894D01*
X141529834Y-110571786D01*
X141640392Y-110531879D01*
X141748932Y-110478923D01*
X141852066Y-110414669D01*
X141946408Y-110340870D01*
X141985052Y-110305051D01*
X142076876Y-110203671D01*
X142154006Y-110093684D01*
X142216759Y-109974526D01*
X142265451Y-109845636D01*
X142286150Y-109771220D01*
X142296400Y-109717039D01*
X142304090Y-109651212D01*
X142308983Y-109579160D01*
X142310836Y-109506301D01*
X142309412Y-109438053D01*
X142304469Y-109379836D01*
X142303723Y-109374432D01*
X142275790Y-109238705D01*
X142232391Y-109110291D01*
X142173768Y-108989683D01*
X142100160Y-108877370D01*
X142011806Y-108773842D01*
X142008415Y-108770349D01*
X141909942Y-108679503D01*
X141805785Y-108603802D01*
X141693817Y-108542023D01*
X141571914Y-108492942D01*
X141478563Y-108465233D01*
X141444460Y-108456729D01*
X141415171Y-108450522D01*
X141386884Y-108446257D01*
X141355789Y-108443584D01*
X141318074Y-108442150D01*
X141269928Y-108441602D01*
X141222610Y-108441564D01*
X141161690Y-108441901D01*
X141161690Y-108441901D01*
G37*
X141161690Y-108441901D02*
X141114221Y-108442943D01*
X141076436Y-108445001D01*
X141044572Y-108448389D01*
X141014861Y-108453418D01*
X140983539Y-108460403D01*
X140977220Y-108461946D01*
X140893881Y-108484958D01*
X140819572Y-108511387D01*
X140746104Y-108544327D01*
X140708545Y-108563458D01*
X140594130Y-108633157D01*
X140490241Y-108715794D01*
X140397753Y-108810045D01*
X140317542Y-108914583D01*
X140250484Y-109028084D01*
X140197455Y-109149223D01*
X140159332Y-109276675D01*
X140136989Y-109409115D01*
X140134901Y-109431118D01*
X140131742Y-109566962D01*
X140144984Y-109700169D01*
X140173998Y-109829426D01*
X140218155Y-109953420D01*
X140276828Y-110070839D01*
X140349386Y-110180368D01*
X140435202Y-110280696D01*
X140533647Y-110370508D01*
X140612075Y-110427978D01*
X140720094Y-110492609D01*
X140829202Y-110542600D01*
X140944406Y-110580080D01*
X141003051Y-110594190D01*
X141033493Y-110599062D01*
X141075609Y-110603498D01*
X141125233Y-110607300D01*
X141178204Y-110610271D01*
X141230358Y-110612212D01*
X141277531Y-110612927D01*
X141315561Y-110612217D01*
X141338847Y-110610143D01*
X141358223Y-110606950D01*
X141388036Y-110602122D01*
X141420644Y-110596894D01*
X141529834Y-110571786D01*
X141640392Y-110531879D01*
X141748932Y-110478923D01*
X141852066Y-110414669D01*
X141946408Y-110340870D01*
X141985052Y-110305051D01*
X142076876Y-110203671D01*
X142154006Y-110093684D01*
X142216759Y-109974526D01*
X142265451Y-109845636D01*
X142286150Y-109771220D01*
X142296400Y-109717039D01*
X142304090Y-109651212D01*
X142308983Y-109579160D01*
X142310836Y-109506301D01*
X142309412Y-109438053D01*
X142304469Y-109379836D01*
X142303723Y-109374432D01*
X142275790Y-109238705D01*
X142232391Y-109110291D01*
X142173768Y-108989683D01*
X142100160Y-108877370D01*
X142011806Y-108773842D01*
X142008415Y-108770349D01*
X141909942Y-108679503D01*
X141805785Y-108603802D01*
X141693817Y-108542023D01*
X141571914Y-108492942D01*
X141478563Y-108465233D01*
X141444460Y-108456729D01*
X141415171Y-108450522D01*
X141386884Y-108446257D01*
X141355789Y-108443584D01*
X141318074Y-108442150D01*
X141269928Y-108441602D01*
X141222610Y-108441564D01*
X141161690Y-108441901D01*
G36*
X144647395Y-108442056D02*
X144520205Y-108463557D01*
X144397654Y-108499508D01*
X144280832Y-108549218D01*
X144170831Y-108611995D01*
X144068740Y-108687148D01*
X143975652Y-108773984D01*
X143892656Y-108871811D01*
X143820845Y-108979938D01*
X143761308Y-109097673D01*
X143715136Y-109224324D01*
X143688455Y-109332102D01*
X143682362Y-109376530D01*
X143678566Y-109433235D01*
X143677015Y-109497434D01*
X143677657Y-109564343D01*
X143680439Y-109629180D01*
X143685309Y-109687163D01*
X143692214Y-109733508D01*
X143692898Y-109736780D01*
X143730777Y-109872660D01*
X143784347Y-110002275D01*
X143852935Y-110124037D01*
X143864430Y-110141457D01*
X143899661Y-110188287D01*
X143945164Y-110240664D01*
X143996947Y-110294609D01*
X144051017Y-110346139D01*
X144103383Y-110391274D01*
X144149266Y-110425508D01*
X144266511Y-110493912D01*
X144390454Y-110547484D01*
X144519236Y-110585805D01*
X144650999Y-110608455D01*
X144783886Y-110615016D01*
X144916038Y-110605067D01*
X144933593Y-110602457D01*
X145027842Y-110583717D01*
X145116207Y-110557364D01*
X145205811Y-110521120D01*
X145243559Y-110503361D01*
X145361062Y-110437109D01*
X145466944Y-110359195D01*
X145560880Y-110270901D01*
X145642546Y-110173510D01*
X145711615Y-110068307D01*
X145767763Y-109956574D01*
X145810665Y-109839594D01*
X145839995Y-109718652D01*
X145855429Y-109595030D01*
X145856642Y-109470011D01*
X145843307Y-109344879D01*
X145815102Y-109220918D01*
X145771699Y-109099410D01*
X145712774Y-108981638D01*
X145652590Y-108888678D01*
X145571526Y-108789951D01*
X145477971Y-108700357D01*
X145374347Y-108621562D01*
X145263075Y-108555231D01*
X145146575Y-108503030D01*
X145045889Y-108471178D01*
X144911328Y-108445175D01*
X144778133Y-108435698D01*
X144647395Y-108442056D01*
X144647395Y-108442056D01*
G37*
X144647395Y-108442056D02*
X144520205Y-108463557D01*
X144397654Y-108499508D01*
X144280832Y-108549218D01*
X144170831Y-108611995D01*
X144068740Y-108687148D01*
X143975652Y-108773984D01*
X143892656Y-108871811D01*
X143820845Y-108979938D01*
X143761308Y-109097673D01*
X143715136Y-109224324D01*
X143688455Y-109332102D01*
X143682362Y-109376530D01*
X143678566Y-109433235D01*
X143677015Y-109497434D01*
X143677657Y-109564343D01*
X143680439Y-109629180D01*
X143685309Y-109687163D01*
X143692214Y-109733508D01*
X143692898Y-109736780D01*
X143730777Y-109872660D01*
X143784347Y-110002275D01*
X143852935Y-110124037D01*
X143864430Y-110141457D01*
X143899661Y-110188287D01*
X143945164Y-110240664D01*
X143996947Y-110294609D01*
X144051017Y-110346139D01*
X144103383Y-110391274D01*
X144149266Y-110425508D01*
X144266511Y-110493912D01*
X144390454Y-110547484D01*
X144519236Y-110585805D01*
X144650999Y-110608455D01*
X144783886Y-110615016D01*
X144916038Y-110605067D01*
X144933593Y-110602457D01*
X145027842Y-110583717D01*
X145116207Y-110557364D01*
X145205811Y-110521120D01*
X145243559Y-110503361D01*
X145361062Y-110437109D01*
X145466944Y-110359195D01*
X145560880Y-110270901D01*
X145642546Y-110173510D01*
X145711615Y-110068307D01*
X145767763Y-109956574D01*
X145810665Y-109839594D01*
X145839995Y-109718652D01*
X145855429Y-109595030D01*
X145856642Y-109470011D01*
X145843307Y-109344879D01*
X145815102Y-109220918D01*
X145771699Y-109099410D01*
X145712774Y-108981638D01*
X145652590Y-108888678D01*
X145571526Y-108789951D01*
X145477971Y-108700357D01*
X145374347Y-108621562D01*
X145263075Y-108555231D01*
X145146575Y-108503030D01*
X145045889Y-108471178D01*
X144911328Y-108445175D01*
X144778133Y-108435698D01*
X144647395Y-108442056D01*
G36*
X139742524Y-109969184D02*
X139741320Y-109993021D01*
X139740229Y-110030754D01*
X139739275Y-110080720D01*
X139738484Y-110141257D01*
X139737884Y-110210701D01*
X139737499Y-110287391D01*
X139737356Y-110369665D01*
X139737356Y-110787220D01*
X140038712Y-110787220D01*
X140108811Y-110787140D01*
X140173135Y-110786912D01*
X140229735Y-110786556D01*
X140276663Y-110786090D01*
X140311971Y-110785532D01*
X140333709Y-110784903D01*
X140340068Y-110784308D01*
X140333709Y-110778168D01*
X140316544Y-110763898D01*
X140291437Y-110743837D01*
X140270297Y-110727314D01*
X140165753Y-110637147D01*
X140067801Y-110534664D01*
X139978463Y-110422688D01*
X139899762Y-110304041D01*
X139833723Y-110181547D01*
X139782369Y-110058028D01*
X139774952Y-110036243D01*
X139763493Y-110003352D01*
X139753333Y-109977724D01*
X139745987Y-109963018D01*
X139743813Y-109960904D01*
X139742524Y-109969184D01*
X139742524Y-109969184D01*
G37*
X139742524Y-109969184D02*
X139741320Y-109993021D01*
X139740229Y-110030754D01*
X139739275Y-110080720D01*
X139738484Y-110141257D01*
X139737884Y-110210701D01*
X139737499Y-110287391D01*
X139737356Y-110369665D01*
X139737356Y-110787220D01*
X140038712Y-110787220D01*
X140108811Y-110787140D01*
X140173135Y-110786912D01*
X140229735Y-110786556D01*
X140276663Y-110786090D01*
X140311971Y-110785532D01*
X140333709Y-110784903D01*
X140340068Y-110784308D01*
X140333709Y-110778168D01*
X140316544Y-110763898D01*
X140291437Y-110743837D01*
X140270297Y-110727314D01*
X140165753Y-110637147D01*
X140067801Y-110534664D01*
X139978463Y-110422688D01*
X139899762Y-110304041D01*
X139833723Y-110181547D01*
X139782369Y-110058028D01*
X139774952Y-110036243D01*
X139763493Y-110003352D01*
X139753333Y-109977724D01*
X139745987Y-109963018D01*
X139743813Y-109960904D01*
X139742524Y-109969184D01*
G36*
X142759525Y-108629322D02*
X142759500Y-108786135D01*
X142759403Y-108926792D01*
X142759203Y-109052361D01*
X142758869Y-109163906D01*
X142758370Y-109262493D01*
X142757674Y-109349187D01*
X142756750Y-109425054D01*
X142755566Y-109491159D01*
X142754091Y-109548569D01*
X142752295Y-109598348D01*
X142750145Y-109641562D01*
X142747610Y-109679277D01*
X142744660Y-109712558D01*
X142741262Y-109742471D01*
X142737385Y-109770081D01*
X142732999Y-109796454D01*
X142728071Y-109822655D01*
X142723838Y-109843626D01*
X142691929Y-109966723D01*
X142647228Y-110092031D01*
X142591738Y-110215321D01*
X142527463Y-110332363D01*
X142456406Y-110438926D01*
X142419384Y-110486442D01*
X142383841Y-110527047D01*
X142339741Y-110573628D01*
X142291545Y-110621771D01*
X142243715Y-110667063D01*
X142200710Y-110705091D01*
X142186949Y-110716410D01*
X142158389Y-110739400D01*
X142133929Y-110759323D01*
X142117486Y-110772980D01*
X142114070Y-110775937D01*
X142114449Y-110777790D01*
X142120542Y-110779437D01*
X142133217Y-110780890D01*
X142153343Y-110782160D01*
X142181786Y-110783257D01*
X142219416Y-110784193D01*
X142267099Y-110784980D01*
X142325704Y-110785627D01*
X142396098Y-110786147D01*
X142479149Y-110786550D01*
X142575725Y-110786847D01*
X142686694Y-110787051D01*
X142812924Y-110787170D01*
X142955282Y-110787218D01*
X142994748Y-110787220D01*
X143888034Y-110787220D01*
X143802360Y-110718307D01*
X143682755Y-110611154D01*
X143575264Y-110492242D01*
X143480732Y-110362830D01*
X143400005Y-110224182D01*
X143333927Y-110077558D01*
X143293027Y-109958218D01*
X143285022Y-109931563D01*
X143277842Y-109907645D01*
X143271437Y-109885433D01*
X143265760Y-109863900D01*
X143260761Y-109842016D01*
X143256392Y-109818753D01*
X143252603Y-109793081D01*
X143249345Y-109763972D01*
X143246570Y-109730396D01*
X143244228Y-109691326D01*
X143242272Y-109645731D01*
X143240651Y-109592584D01*
X143239318Y-109530854D01*
X143238223Y-109459514D01*
X143237317Y-109377535D01*
X143236551Y-109283887D01*
X143235877Y-109177542D01*
X143235246Y-109057470D01*
X143234608Y-108922644D01*
X143233916Y-108772033D01*
X143233616Y-108707864D01*
X143228779Y-107683254D01*
X142759525Y-107678672D01*
X142759525Y-108629322D01*
X142759525Y-108629322D01*
G37*
X142759525Y-108629322D02*
X142759500Y-108786135D01*
X142759403Y-108926792D01*
X142759203Y-109052361D01*
X142758869Y-109163906D01*
X142758370Y-109262493D01*
X142757674Y-109349187D01*
X142756750Y-109425054D01*
X142755566Y-109491159D01*
X142754091Y-109548569D01*
X142752295Y-109598348D01*
X142750145Y-109641562D01*
X142747610Y-109679277D01*
X142744660Y-109712558D01*
X142741262Y-109742471D01*
X142737385Y-109770081D01*
X142732999Y-109796454D01*
X142728071Y-109822655D01*
X142723838Y-109843626D01*
X142691929Y-109966723D01*
X142647228Y-110092031D01*
X142591738Y-110215321D01*
X142527463Y-110332363D01*
X142456406Y-110438926D01*
X142419384Y-110486442D01*
X142383841Y-110527047D01*
X142339741Y-110573628D01*
X142291545Y-110621771D01*
X142243715Y-110667063D01*
X142200710Y-110705091D01*
X142186949Y-110716410D01*
X142158389Y-110739400D01*
X142133929Y-110759323D01*
X142117486Y-110772980D01*
X142114070Y-110775937D01*
X142114449Y-110777790D01*
X142120542Y-110779437D01*
X142133217Y-110780890D01*
X142153343Y-110782160D01*
X142181786Y-110783257D01*
X142219416Y-110784193D01*
X142267099Y-110784980D01*
X142325704Y-110785627D01*
X142396098Y-110786147D01*
X142479149Y-110786550D01*
X142575725Y-110786847D01*
X142686694Y-110787051D01*
X142812924Y-110787170D01*
X142955282Y-110787218D01*
X142994748Y-110787220D01*
X143888034Y-110787220D01*
X143802360Y-110718307D01*
X143682755Y-110611154D01*
X143575264Y-110492242D01*
X143480732Y-110362830D01*
X143400005Y-110224182D01*
X143333927Y-110077558D01*
X143293027Y-109958218D01*
X143285022Y-109931563D01*
X143277842Y-109907645D01*
X143271437Y-109885433D01*
X143265760Y-109863900D01*
X143260761Y-109842016D01*
X143256392Y-109818753D01*
X143252603Y-109793081D01*
X143249345Y-109763972D01*
X143246570Y-109730396D01*
X143244228Y-109691326D01*
X143242272Y-109645731D01*
X143240651Y-109592584D01*
X143239318Y-109530854D01*
X143238223Y-109459514D01*
X143237317Y-109377535D01*
X143236551Y-109283887D01*
X143235877Y-109177542D01*
X143235246Y-109057470D01*
X143234608Y-108922644D01*
X143233916Y-108772033D01*
X143233616Y-108707864D01*
X143228779Y-107683254D01*
X142759525Y-107678672D01*
X142759525Y-108629322D01*
G36*
X145486796Y-107681081D02*
X143676508Y-107683254D01*
X143674265Y-108059949D01*
X143673907Y-108138619D01*
X143673788Y-108211720D01*
X143673895Y-108277509D01*
X143674215Y-108334244D01*
X143674736Y-108380181D01*
X143675445Y-108413579D01*
X143676328Y-108432693D01*
X143677028Y-108436644D01*
X143685216Y-108431268D01*
X143703022Y-108416849D01*
X143727343Y-108395950D01*
X143741580Y-108383331D01*
X143852584Y-108294004D01*
X143975603Y-108213101D01*
X144106747Y-108142701D01*
X144242125Y-108084885D01*
X144377849Y-108041732D01*
X144382823Y-108040445D01*
X144490833Y-108017798D01*
X144607050Y-108002468D01*
X144726221Y-107994728D01*
X144843089Y-107994847D01*
X144952401Y-108003097D01*
X144993864Y-108008901D01*
X145154570Y-108043229D01*
X145308228Y-108092630D01*
X145454018Y-108156357D01*
X145591116Y-108233667D01*
X145718701Y-108323813D01*
X145835951Y-108426050D01*
X145942044Y-108539632D01*
X146036157Y-108663815D01*
X146117470Y-108797853D01*
X146185159Y-108941000D01*
X146238403Y-109092511D01*
X146254695Y-109152196D01*
X146272386Y-109228950D01*
X146284965Y-109300519D01*
X146292918Y-109371906D01*
X146296734Y-109448111D01*
X146296902Y-109534136D01*
X146295977Y-109575263D01*
X146288278Y-109705760D01*
X146272206Y-109825069D01*
X146246659Y-109937611D01*
X146210534Y-110047809D01*
X146162729Y-110160085D01*
X146137043Y-110212600D01*
X146060425Y-110348283D01*
X145973934Y-110471470D01*
X145875576Y-110584595D01*
X145763359Y-110690092D01*
X145710097Y-110733916D01*
X145642804Y-110787220D01*
X147297084Y-110787220D01*
X147297084Y-107678909D01*
X145486796Y-107681081D01*
X145486796Y-107681081D01*
G37*
X145486796Y-107681081D02*
X143676508Y-107683254D01*
X143674265Y-108059949D01*
X143673907Y-108138619D01*
X143673788Y-108211720D01*
X143673895Y-108277509D01*
X143674215Y-108334244D01*
X143674736Y-108380181D01*
X143675445Y-108413579D01*
X143676328Y-108432693D01*
X143677028Y-108436644D01*
X143685216Y-108431268D01*
X143703022Y-108416849D01*
X143727343Y-108395950D01*
X143741580Y-108383331D01*
X143852584Y-108294004D01*
X143975603Y-108213101D01*
X144106747Y-108142701D01*
X144242125Y-108084885D01*
X144377849Y-108041732D01*
X144382823Y-108040445D01*
X144490833Y-108017798D01*
X144607050Y-108002468D01*
X144726221Y-107994728D01*
X144843089Y-107994847D01*
X144952401Y-108003097D01*
X144993864Y-108008901D01*
X145154570Y-108043229D01*
X145308228Y-108092630D01*
X145454018Y-108156357D01*
X145591116Y-108233667D01*
X145718701Y-108323813D01*
X145835951Y-108426050D01*
X145942044Y-108539632D01*
X146036157Y-108663815D01*
X146117470Y-108797853D01*
X146185159Y-108941000D01*
X146238403Y-109092511D01*
X146254695Y-109152196D01*
X146272386Y-109228950D01*
X146284965Y-109300519D01*
X146292918Y-109371906D01*
X146296734Y-109448111D01*
X146296902Y-109534136D01*
X146295977Y-109575263D01*
X146288278Y-109705760D01*
X146272206Y-109825069D01*
X146246659Y-109937611D01*
X146210534Y-110047809D01*
X146162729Y-110160085D01*
X146137043Y-110212600D01*
X146060425Y-110348283D01*
X145973934Y-110471470D01*
X145875576Y-110584595D01*
X145763359Y-110690092D01*
X145710097Y-110733916D01*
X145642804Y-110787220D01*
X147297084Y-110787220D01*
X147297084Y-107678909D01*
X145486796Y-107681081D01*
G04 #@! TD*
M02*
