G04 #@! TF.GenerationSoftware,KiCad,Pcbnew,(5.1.0)-1*
G04 #@! TF.CreationDate,2019-06-08T19:04:15-04:00*
G04 #@! TF.ProjectId,input+output_panel,696e7075-742b-46f7-9574-7075745f7061,0.1*
G04 #@! TF.SameCoordinates,Original*
G04 #@! TF.FileFunction,Copper,L1,Top*
G04 #@! TF.FilePolarity,Positive*
%FSLAX46Y46*%
G04 Gerber Fmt 4.6, Leading zero omitted, Abs format (unit mm)*
G04 Created by KiCad (PCBNEW (5.1.0)-1) date 2019-06-08 19:04:15*
%MOMM*%
%LPD*%
G04 APERTURE LIST*
%ADD10C,0.100000*%
%ADD11C,1.700000*%
%ADD12O,1.950000X1.700000*%
%ADD13C,0.609600*%
%ADD14C,0.635000*%
G04 APERTURE END LIST*
D10*
G36*
X175031504Y-47057204D02*
G01*
X175055773Y-47060804D01*
X175079571Y-47066765D01*
X175102671Y-47075030D01*
X175124849Y-47085520D01*
X175145893Y-47098133D01*
X175165598Y-47112747D01*
X175183777Y-47129223D01*
X175200253Y-47147402D01*
X175214867Y-47167107D01*
X175227480Y-47188151D01*
X175237970Y-47210329D01*
X175246235Y-47233429D01*
X175252196Y-47257227D01*
X175255796Y-47281496D01*
X175257000Y-47306000D01*
X175257000Y-48506000D01*
X175255796Y-48530504D01*
X175252196Y-48554773D01*
X175246235Y-48578571D01*
X175237970Y-48601671D01*
X175227480Y-48623849D01*
X175214867Y-48644893D01*
X175200253Y-48664598D01*
X175183777Y-48682777D01*
X175165598Y-48699253D01*
X175145893Y-48713867D01*
X175124849Y-48726480D01*
X175102671Y-48736970D01*
X175079571Y-48745235D01*
X175055773Y-48751196D01*
X175031504Y-48754796D01*
X175007000Y-48756000D01*
X173557000Y-48756000D01*
X173532496Y-48754796D01*
X173508227Y-48751196D01*
X173484429Y-48745235D01*
X173461329Y-48736970D01*
X173439151Y-48726480D01*
X173418107Y-48713867D01*
X173398402Y-48699253D01*
X173380223Y-48682777D01*
X173363747Y-48664598D01*
X173349133Y-48644893D01*
X173336520Y-48623849D01*
X173326030Y-48601671D01*
X173317765Y-48578571D01*
X173311804Y-48554773D01*
X173308204Y-48530504D01*
X173307000Y-48506000D01*
X173307000Y-47306000D01*
X173308204Y-47281496D01*
X173311804Y-47257227D01*
X173317765Y-47233429D01*
X173326030Y-47210329D01*
X173336520Y-47188151D01*
X173349133Y-47167107D01*
X173363747Y-47147402D01*
X173380223Y-47129223D01*
X173398402Y-47112747D01*
X173418107Y-47098133D01*
X173439151Y-47085520D01*
X173461329Y-47075030D01*
X173484429Y-47066765D01*
X173508227Y-47060804D01*
X173532496Y-47057204D01*
X173557000Y-47056000D01*
X175007000Y-47056000D01*
X175031504Y-47057204D01*
X175031504Y-47057204D01*
G37*
D11*
X174282000Y-47906000D03*
D12*
X174282000Y-50406000D03*
X174282000Y-52906000D03*
X154013000Y-47859000D03*
X154013000Y-50359000D03*
D10*
G36*
X154762504Y-52010204D02*
G01*
X154786773Y-52013804D01*
X154810571Y-52019765D01*
X154833671Y-52028030D01*
X154855849Y-52038520D01*
X154876893Y-52051133D01*
X154896598Y-52065747D01*
X154914777Y-52082223D01*
X154931253Y-52100402D01*
X154945867Y-52120107D01*
X154958480Y-52141151D01*
X154968970Y-52163329D01*
X154977235Y-52186429D01*
X154983196Y-52210227D01*
X154986796Y-52234496D01*
X154988000Y-52259000D01*
X154988000Y-53459000D01*
X154986796Y-53483504D01*
X154983196Y-53507773D01*
X154977235Y-53531571D01*
X154968970Y-53554671D01*
X154958480Y-53576849D01*
X154945867Y-53597893D01*
X154931253Y-53617598D01*
X154914777Y-53635777D01*
X154896598Y-53652253D01*
X154876893Y-53666867D01*
X154855849Y-53679480D01*
X154833671Y-53689970D01*
X154810571Y-53698235D01*
X154786773Y-53704196D01*
X154762504Y-53707796D01*
X154738000Y-53709000D01*
X153288000Y-53709000D01*
X153263496Y-53707796D01*
X153239227Y-53704196D01*
X153215429Y-53698235D01*
X153192329Y-53689970D01*
X153170151Y-53679480D01*
X153149107Y-53666867D01*
X153129402Y-53652253D01*
X153111223Y-53635777D01*
X153094747Y-53617598D01*
X153080133Y-53597893D01*
X153067520Y-53576849D01*
X153057030Y-53554671D01*
X153048765Y-53531571D01*
X153042804Y-53507773D01*
X153039204Y-53483504D01*
X153038000Y-53459000D01*
X153038000Y-52259000D01*
X153039204Y-52234496D01*
X153042804Y-52210227D01*
X153048765Y-52186429D01*
X153057030Y-52163329D01*
X153067520Y-52141151D01*
X153080133Y-52120107D01*
X153094747Y-52100402D01*
X153111223Y-52082223D01*
X153129402Y-52065747D01*
X153149107Y-52051133D01*
X153170151Y-52038520D01*
X153192329Y-52028030D01*
X153215429Y-52019765D01*
X153239227Y-52013804D01*
X153263496Y-52010204D01*
X153288000Y-52009000D01*
X154738000Y-52009000D01*
X154762504Y-52010204D01*
X154762504Y-52010204D01*
G37*
D11*
X154013000Y-52859000D03*
D12*
X174282000Y-74106000D03*
X174282000Y-71606000D03*
D10*
G36*
X175031504Y-68257204D02*
G01*
X175055773Y-68260804D01*
X175079571Y-68266765D01*
X175102671Y-68275030D01*
X175124849Y-68285520D01*
X175145893Y-68298133D01*
X175165598Y-68312747D01*
X175183777Y-68329223D01*
X175200253Y-68347402D01*
X175214867Y-68367107D01*
X175227480Y-68388151D01*
X175237970Y-68410329D01*
X175246235Y-68433429D01*
X175252196Y-68457227D01*
X175255796Y-68481496D01*
X175257000Y-68506000D01*
X175257000Y-69706000D01*
X175255796Y-69730504D01*
X175252196Y-69754773D01*
X175246235Y-69778571D01*
X175237970Y-69801671D01*
X175227480Y-69823849D01*
X175214867Y-69844893D01*
X175200253Y-69864598D01*
X175183777Y-69882777D01*
X175165598Y-69899253D01*
X175145893Y-69913867D01*
X175124849Y-69926480D01*
X175102671Y-69936970D01*
X175079571Y-69945235D01*
X175055773Y-69951196D01*
X175031504Y-69954796D01*
X175007000Y-69956000D01*
X173557000Y-69956000D01*
X173532496Y-69954796D01*
X173508227Y-69951196D01*
X173484429Y-69945235D01*
X173461329Y-69936970D01*
X173439151Y-69926480D01*
X173418107Y-69913867D01*
X173398402Y-69899253D01*
X173380223Y-69882777D01*
X173363747Y-69864598D01*
X173349133Y-69844893D01*
X173336520Y-69823849D01*
X173326030Y-69801671D01*
X173317765Y-69778571D01*
X173311804Y-69754773D01*
X173308204Y-69730504D01*
X173307000Y-69706000D01*
X173307000Y-68506000D01*
X173308204Y-68481496D01*
X173311804Y-68457227D01*
X173317765Y-68433429D01*
X173326030Y-68410329D01*
X173336520Y-68388151D01*
X173349133Y-68367107D01*
X173363747Y-68347402D01*
X173380223Y-68329223D01*
X173398402Y-68312747D01*
X173418107Y-68298133D01*
X173439151Y-68285520D01*
X173461329Y-68275030D01*
X173484429Y-68266765D01*
X173508227Y-68260804D01*
X173532496Y-68257204D01*
X173557000Y-68256000D01*
X175007000Y-68256000D01*
X175031504Y-68257204D01*
X175031504Y-68257204D01*
G37*
D11*
X174282000Y-69106000D03*
D10*
G36*
X154762504Y-73210204D02*
G01*
X154786773Y-73213804D01*
X154810571Y-73219765D01*
X154833671Y-73228030D01*
X154855849Y-73238520D01*
X154876893Y-73251133D01*
X154896598Y-73265747D01*
X154914777Y-73282223D01*
X154931253Y-73300402D01*
X154945867Y-73320107D01*
X154958480Y-73341151D01*
X154968970Y-73363329D01*
X154977235Y-73386429D01*
X154983196Y-73410227D01*
X154986796Y-73434496D01*
X154988000Y-73459000D01*
X154988000Y-74659000D01*
X154986796Y-74683504D01*
X154983196Y-74707773D01*
X154977235Y-74731571D01*
X154968970Y-74754671D01*
X154958480Y-74776849D01*
X154945867Y-74797893D01*
X154931253Y-74817598D01*
X154914777Y-74835777D01*
X154896598Y-74852253D01*
X154876893Y-74866867D01*
X154855849Y-74879480D01*
X154833671Y-74889970D01*
X154810571Y-74898235D01*
X154786773Y-74904196D01*
X154762504Y-74907796D01*
X154738000Y-74909000D01*
X153288000Y-74909000D01*
X153263496Y-74907796D01*
X153239227Y-74904196D01*
X153215429Y-74898235D01*
X153192329Y-74889970D01*
X153170151Y-74879480D01*
X153149107Y-74866867D01*
X153129402Y-74852253D01*
X153111223Y-74835777D01*
X153094747Y-74817598D01*
X153080133Y-74797893D01*
X153067520Y-74776849D01*
X153057030Y-74754671D01*
X153048765Y-74731571D01*
X153042804Y-74707773D01*
X153039204Y-74683504D01*
X153038000Y-74659000D01*
X153038000Y-73459000D01*
X153039204Y-73434496D01*
X153042804Y-73410227D01*
X153048765Y-73386429D01*
X153057030Y-73363329D01*
X153067520Y-73341151D01*
X153080133Y-73320107D01*
X153094747Y-73300402D01*
X153111223Y-73282223D01*
X153129402Y-73265747D01*
X153149107Y-73251133D01*
X153170151Y-73238520D01*
X153192329Y-73228030D01*
X153215429Y-73219765D01*
X153239227Y-73213804D01*
X153263496Y-73210204D01*
X153288000Y-73209000D01*
X154738000Y-73209000D01*
X154762504Y-73210204D01*
X154762504Y-73210204D01*
G37*
D11*
X154013000Y-74059000D03*
D12*
X154013000Y-71559000D03*
X154013000Y-69059000D03*
D10*
G36*
X175031504Y-89457204D02*
G01*
X175055773Y-89460804D01*
X175079571Y-89466765D01*
X175102671Y-89475030D01*
X175124849Y-89485520D01*
X175145893Y-89498133D01*
X175165598Y-89512747D01*
X175183777Y-89529223D01*
X175200253Y-89547402D01*
X175214867Y-89567107D01*
X175227480Y-89588151D01*
X175237970Y-89610329D01*
X175246235Y-89633429D01*
X175252196Y-89657227D01*
X175255796Y-89681496D01*
X175257000Y-89706000D01*
X175257000Y-90906000D01*
X175255796Y-90930504D01*
X175252196Y-90954773D01*
X175246235Y-90978571D01*
X175237970Y-91001671D01*
X175227480Y-91023849D01*
X175214867Y-91044893D01*
X175200253Y-91064598D01*
X175183777Y-91082777D01*
X175165598Y-91099253D01*
X175145893Y-91113867D01*
X175124849Y-91126480D01*
X175102671Y-91136970D01*
X175079571Y-91145235D01*
X175055773Y-91151196D01*
X175031504Y-91154796D01*
X175007000Y-91156000D01*
X173557000Y-91156000D01*
X173532496Y-91154796D01*
X173508227Y-91151196D01*
X173484429Y-91145235D01*
X173461329Y-91136970D01*
X173439151Y-91126480D01*
X173418107Y-91113867D01*
X173398402Y-91099253D01*
X173380223Y-91082777D01*
X173363747Y-91064598D01*
X173349133Y-91044893D01*
X173336520Y-91023849D01*
X173326030Y-91001671D01*
X173317765Y-90978571D01*
X173311804Y-90954773D01*
X173308204Y-90930504D01*
X173307000Y-90906000D01*
X173307000Y-89706000D01*
X173308204Y-89681496D01*
X173311804Y-89657227D01*
X173317765Y-89633429D01*
X173326030Y-89610329D01*
X173336520Y-89588151D01*
X173349133Y-89567107D01*
X173363747Y-89547402D01*
X173380223Y-89529223D01*
X173398402Y-89512747D01*
X173418107Y-89498133D01*
X173439151Y-89485520D01*
X173461329Y-89475030D01*
X173484429Y-89466765D01*
X173508227Y-89460804D01*
X173532496Y-89457204D01*
X173557000Y-89456000D01*
X175007000Y-89456000D01*
X175031504Y-89457204D01*
X175031504Y-89457204D01*
G37*
D11*
X174282000Y-90306000D03*
D12*
X174282000Y-92806000D03*
X174282000Y-95306000D03*
X154013000Y-90259000D03*
X154013000Y-92759000D03*
D10*
G36*
X154762504Y-94410204D02*
G01*
X154786773Y-94413804D01*
X154810571Y-94419765D01*
X154833671Y-94428030D01*
X154855849Y-94438520D01*
X154876893Y-94451133D01*
X154896598Y-94465747D01*
X154914777Y-94482223D01*
X154931253Y-94500402D01*
X154945867Y-94520107D01*
X154958480Y-94541151D01*
X154968970Y-94563329D01*
X154977235Y-94586429D01*
X154983196Y-94610227D01*
X154986796Y-94634496D01*
X154988000Y-94659000D01*
X154988000Y-95859000D01*
X154986796Y-95883504D01*
X154983196Y-95907773D01*
X154977235Y-95931571D01*
X154968970Y-95954671D01*
X154958480Y-95976849D01*
X154945867Y-95997893D01*
X154931253Y-96017598D01*
X154914777Y-96035777D01*
X154896598Y-96052253D01*
X154876893Y-96066867D01*
X154855849Y-96079480D01*
X154833671Y-96089970D01*
X154810571Y-96098235D01*
X154786773Y-96104196D01*
X154762504Y-96107796D01*
X154738000Y-96109000D01*
X153288000Y-96109000D01*
X153263496Y-96107796D01*
X153239227Y-96104196D01*
X153215429Y-96098235D01*
X153192329Y-96089970D01*
X153170151Y-96079480D01*
X153149107Y-96066867D01*
X153129402Y-96052253D01*
X153111223Y-96035777D01*
X153094747Y-96017598D01*
X153080133Y-95997893D01*
X153067520Y-95976849D01*
X153057030Y-95954671D01*
X153048765Y-95931571D01*
X153042804Y-95907773D01*
X153039204Y-95883504D01*
X153038000Y-95859000D01*
X153038000Y-94659000D01*
X153039204Y-94634496D01*
X153042804Y-94610227D01*
X153048765Y-94586429D01*
X153057030Y-94563329D01*
X153067520Y-94541151D01*
X153080133Y-94520107D01*
X153094747Y-94500402D01*
X153111223Y-94482223D01*
X153129402Y-94465747D01*
X153149107Y-94451133D01*
X153170151Y-94438520D01*
X153192329Y-94428030D01*
X153215429Y-94419765D01*
X153239227Y-94413804D01*
X153263496Y-94410204D01*
X153288000Y-94409000D01*
X154738000Y-94409000D01*
X154762504Y-94410204D01*
X154762504Y-94410204D01*
G37*
D11*
X154013000Y-95259000D03*
D12*
X174282000Y-116506000D03*
X174282000Y-114006000D03*
D10*
G36*
X175031504Y-110657204D02*
G01*
X175055773Y-110660804D01*
X175079571Y-110666765D01*
X175102671Y-110675030D01*
X175124849Y-110685520D01*
X175145893Y-110698133D01*
X175165598Y-110712747D01*
X175183777Y-110729223D01*
X175200253Y-110747402D01*
X175214867Y-110767107D01*
X175227480Y-110788151D01*
X175237970Y-110810329D01*
X175246235Y-110833429D01*
X175252196Y-110857227D01*
X175255796Y-110881496D01*
X175257000Y-110906000D01*
X175257000Y-112106000D01*
X175255796Y-112130504D01*
X175252196Y-112154773D01*
X175246235Y-112178571D01*
X175237970Y-112201671D01*
X175227480Y-112223849D01*
X175214867Y-112244893D01*
X175200253Y-112264598D01*
X175183777Y-112282777D01*
X175165598Y-112299253D01*
X175145893Y-112313867D01*
X175124849Y-112326480D01*
X175102671Y-112336970D01*
X175079571Y-112345235D01*
X175055773Y-112351196D01*
X175031504Y-112354796D01*
X175007000Y-112356000D01*
X173557000Y-112356000D01*
X173532496Y-112354796D01*
X173508227Y-112351196D01*
X173484429Y-112345235D01*
X173461329Y-112336970D01*
X173439151Y-112326480D01*
X173418107Y-112313867D01*
X173398402Y-112299253D01*
X173380223Y-112282777D01*
X173363747Y-112264598D01*
X173349133Y-112244893D01*
X173336520Y-112223849D01*
X173326030Y-112201671D01*
X173317765Y-112178571D01*
X173311804Y-112154773D01*
X173308204Y-112130504D01*
X173307000Y-112106000D01*
X173307000Y-110906000D01*
X173308204Y-110881496D01*
X173311804Y-110857227D01*
X173317765Y-110833429D01*
X173326030Y-110810329D01*
X173336520Y-110788151D01*
X173349133Y-110767107D01*
X173363747Y-110747402D01*
X173380223Y-110729223D01*
X173398402Y-110712747D01*
X173418107Y-110698133D01*
X173439151Y-110685520D01*
X173461329Y-110675030D01*
X173484429Y-110666765D01*
X173508227Y-110660804D01*
X173532496Y-110657204D01*
X173557000Y-110656000D01*
X175007000Y-110656000D01*
X175031504Y-110657204D01*
X175031504Y-110657204D01*
G37*
D11*
X174282000Y-111506000D03*
D10*
G36*
X123334504Y-46930204D02*
G01*
X123358773Y-46933804D01*
X123382571Y-46939765D01*
X123405671Y-46948030D01*
X123427849Y-46958520D01*
X123448893Y-46971133D01*
X123468598Y-46985747D01*
X123486777Y-47002223D01*
X123503253Y-47020402D01*
X123517867Y-47040107D01*
X123530480Y-47061151D01*
X123540970Y-47083329D01*
X123549235Y-47106429D01*
X123555196Y-47130227D01*
X123558796Y-47154496D01*
X123560000Y-47179000D01*
X123560000Y-48379000D01*
X123558796Y-48403504D01*
X123555196Y-48427773D01*
X123549235Y-48451571D01*
X123540970Y-48474671D01*
X123530480Y-48496849D01*
X123517867Y-48517893D01*
X123503253Y-48537598D01*
X123486777Y-48555777D01*
X123468598Y-48572253D01*
X123448893Y-48586867D01*
X123427849Y-48599480D01*
X123405671Y-48609970D01*
X123382571Y-48618235D01*
X123358773Y-48624196D01*
X123334504Y-48627796D01*
X123310000Y-48629000D01*
X121860000Y-48629000D01*
X121835496Y-48627796D01*
X121811227Y-48624196D01*
X121787429Y-48618235D01*
X121764329Y-48609970D01*
X121742151Y-48599480D01*
X121721107Y-48586867D01*
X121701402Y-48572253D01*
X121683223Y-48555777D01*
X121666747Y-48537598D01*
X121652133Y-48517893D01*
X121639520Y-48496849D01*
X121629030Y-48474671D01*
X121620765Y-48451571D01*
X121614804Y-48427773D01*
X121611204Y-48403504D01*
X121610000Y-48379000D01*
X121610000Y-47179000D01*
X121611204Y-47154496D01*
X121614804Y-47130227D01*
X121620765Y-47106429D01*
X121629030Y-47083329D01*
X121639520Y-47061151D01*
X121652133Y-47040107D01*
X121666747Y-47020402D01*
X121683223Y-47002223D01*
X121701402Y-46985747D01*
X121721107Y-46971133D01*
X121742151Y-46958520D01*
X121764329Y-46948030D01*
X121787429Y-46939765D01*
X121811227Y-46933804D01*
X121835496Y-46930204D01*
X121860000Y-46929000D01*
X123310000Y-46929000D01*
X123334504Y-46930204D01*
X123334504Y-46930204D01*
G37*
D11*
X122585000Y-47779000D03*
D12*
X122585000Y-50279000D03*
X122585000Y-52779000D03*
X104013000Y-47859000D03*
X104013000Y-50359000D03*
D10*
G36*
X104762504Y-52010204D02*
G01*
X104786773Y-52013804D01*
X104810571Y-52019765D01*
X104833671Y-52028030D01*
X104855849Y-52038520D01*
X104876893Y-52051133D01*
X104896598Y-52065747D01*
X104914777Y-52082223D01*
X104931253Y-52100402D01*
X104945867Y-52120107D01*
X104958480Y-52141151D01*
X104968970Y-52163329D01*
X104977235Y-52186429D01*
X104983196Y-52210227D01*
X104986796Y-52234496D01*
X104988000Y-52259000D01*
X104988000Y-53459000D01*
X104986796Y-53483504D01*
X104983196Y-53507773D01*
X104977235Y-53531571D01*
X104968970Y-53554671D01*
X104958480Y-53576849D01*
X104945867Y-53597893D01*
X104931253Y-53617598D01*
X104914777Y-53635777D01*
X104896598Y-53652253D01*
X104876893Y-53666867D01*
X104855849Y-53679480D01*
X104833671Y-53689970D01*
X104810571Y-53698235D01*
X104786773Y-53704196D01*
X104762504Y-53707796D01*
X104738000Y-53709000D01*
X103288000Y-53709000D01*
X103263496Y-53707796D01*
X103239227Y-53704196D01*
X103215429Y-53698235D01*
X103192329Y-53689970D01*
X103170151Y-53679480D01*
X103149107Y-53666867D01*
X103129402Y-53652253D01*
X103111223Y-53635777D01*
X103094747Y-53617598D01*
X103080133Y-53597893D01*
X103067520Y-53576849D01*
X103057030Y-53554671D01*
X103048765Y-53531571D01*
X103042804Y-53507773D01*
X103039204Y-53483504D01*
X103038000Y-53459000D01*
X103038000Y-52259000D01*
X103039204Y-52234496D01*
X103042804Y-52210227D01*
X103048765Y-52186429D01*
X103057030Y-52163329D01*
X103067520Y-52141151D01*
X103080133Y-52120107D01*
X103094747Y-52100402D01*
X103111223Y-52082223D01*
X103129402Y-52065747D01*
X103149107Y-52051133D01*
X103170151Y-52038520D01*
X103192329Y-52028030D01*
X103215429Y-52019765D01*
X103239227Y-52013804D01*
X103263496Y-52010204D01*
X103288000Y-52009000D01*
X104738000Y-52009000D01*
X104762504Y-52010204D01*
X104762504Y-52010204D01*
G37*
D11*
X104013000Y-52859000D03*
D12*
X122585000Y-73979000D03*
X122585000Y-71479000D03*
D10*
G36*
X123334504Y-68130204D02*
G01*
X123358773Y-68133804D01*
X123382571Y-68139765D01*
X123405671Y-68148030D01*
X123427849Y-68158520D01*
X123448893Y-68171133D01*
X123468598Y-68185747D01*
X123486777Y-68202223D01*
X123503253Y-68220402D01*
X123517867Y-68240107D01*
X123530480Y-68261151D01*
X123540970Y-68283329D01*
X123549235Y-68306429D01*
X123555196Y-68330227D01*
X123558796Y-68354496D01*
X123560000Y-68379000D01*
X123560000Y-69579000D01*
X123558796Y-69603504D01*
X123555196Y-69627773D01*
X123549235Y-69651571D01*
X123540970Y-69674671D01*
X123530480Y-69696849D01*
X123517867Y-69717893D01*
X123503253Y-69737598D01*
X123486777Y-69755777D01*
X123468598Y-69772253D01*
X123448893Y-69786867D01*
X123427849Y-69799480D01*
X123405671Y-69809970D01*
X123382571Y-69818235D01*
X123358773Y-69824196D01*
X123334504Y-69827796D01*
X123310000Y-69829000D01*
X121860000Y-69829000D01*
X121835496Y-69827796D01*
X121811227Y-69824196D01*
X121787429Y-69818235D01*
X121764329Y-69809970D01*
X121742151Y-69799480D01*
X121721107Y-69786867D01*
X121701402Y-69772253D01*
X121683223Y-69755777D01*
X121666747Y-69737598D01*
X121652133Y-69717893D01*
X121639520Y-69696849D01*
X121629030Y-69674671D01*
X121620765Y-69651571D01*
X121614804Y-69627773D01*
X121611204Y-69603504D01*
X121610000Y-69579000D01*
X121610000Y-68379000D01*
X121611204Y-68354496D01*
X121614804Y-68330227D01*
X121620765Y-68306429D01*
X121629030Y-68283329D01*
X121639520Y-68261151D01*
X121652133Y-68240107D01*
X121666747Y-68220402D01*
X121683223Y-68202223D01*
X121701402Y-68185747D01*
X121721107Y-68171133D01*
X121742151Y-68158520D01*
X121764329Y-68148030D01*
X121787429Y-68139765D01*
X121811227Y-68133804D01*
X121835496Y-68130204D01*
X121860000Y-68129000D01*
X123310000Y-68129000D01*
X123334504Y-68130204D01*
X123334504Y-68130204D01*
G37*
D11*
X122585000Y-68979000D03*
D10*
G36*
X104762504Y-73210204D02*
G01*
X104786773Y-73213804D01*
X104810571Y-73219765D01*
X104833671Y-73228030D01*
X104855849Y-73238520D01*
X104876893Y-73251133D01*
X104896598Y-73265747D01*
X104914777Y-73282223D01*
X104931253Y-73300402D01*
X104945867Y-73320107D01*
X104958480Y-73341151D01*
X104968970Y-73363329D01*
X104977235Y-73386429D01*
X104983196Y-73410227D01*
X104986796Y-73434496D01*
X104988000Y-73459000D01*
X104988000Y-74659000D01*
X104986796Y-74683504D01*
X104983196Y-74707773D01*
X104977235Y-74731571D01*
X104968970Y-74754671D01*
X104958480Y-74776849D01*
X104945867Y-74797893D01*
X104931253Y-74817598D01*
X104914777Y-74835777D01*
X104896598Y-74852253D01*
X104876893Y-74866867D01*
X104855849Y-74879480D01*
X104833671Y-74889970D01*
X104810571Y-74898235D01*
X104786773Y-74904196D01*
X104762504Y-74907796D01*
X104738000Y-74909000D01*
X103288000Y-74909000D01*
X103263496Y-74907796D01*
X103239227Y-74904196D01*
X103215429Y-74898235D01*
X103192329Y-74889970D01*
X103170151Y-74879480D01*
X103149107Y-74866867D01*
X103129402Y-74852253D01*
X103111223Y-74835777D01*
X103094747Y-74817598D01*
X103080133Y-74797893D01*
X103067520Y-74776849D01*
X103057030Y-74754671D01*
X103048765Y-74731571D01*
X103042804Y-74707773D01*
X103039204Y-74683504D01*
X103038000Y-74659000D01*
X103038000Y-73459000D01*
X103039204Y-73434496D01*
X103042804Y-73410227D01*
X103048765Y-73386429D01*
X103057030Y-73363329D01*
X103067520Y-73341151D01*
X103080133Y-73320107D01*
X103094747Y-73300402D01*
X103111223Y-73282223D01*
X103129402Y-73265747D01*
X103149107Y-73251133D01*
X103170151Y-73238520D01*
X103192329Y-73228030D01*
X103215429Y-73219765D01*
X103239227Y-73213804D01*
X103263496Y-73210204D01*
X103288000Y-73209000D01*
X104738000Y-73209000D01*
X104762504Y-73210204D01*
X104762504Y-73210204D01*
G37*
D11*
X104013000Y-74059000D03*
D12*
X104013000Y-71559000D03*
X104013000Y-69059000D03*
D10*
G36*
X123334504Y-89330204D02*
G01*
X123358773Y-89333804D01*
X123382571Y-89339765D01*
X123405671Y-89348030D01*
X123427849Y-89358520D01*
X123448893Y-89371133D01*
X123468598Y-89385747D01*
X123486777Y-89402223D01*
X123503253Y-89420402D01*
X123517867Y-89440107D01*
X123530480Y-89461151D01*
X123540970Y-89483329D01*
X123549235Y-89506429D01*
X123555196Y-89530227D01*
X123558796Y-89554496D01*
X123560000Y-89579000D01*
X123560000Y-90779000D01*
X123558796Y-90803504D01*
X123555196Y-90827773D01*
X123549235Y-90851571D01*
X123540970Y-90874671D01*
X123530480Y-90896849D01*
X123517867Y-90917893D01*
X123503253Y-90937598D01*
X123486777Y-90955777D01*
X123468598Y-90972253D01*
X123448893Y-90986867D01*
X123427849Y-90999480D01*
X123405671Y-91009970D01*
X123382571Y-91018235D01*
X123358773Y-91024196D01*
X123334504Y-91027796D01*
X123310000Y-91029000D01*
X121860000Y-91029000D01*
X121835496Y-91027796D01*
X121811227Y-91024196D01*
X121787429Y-91018235D01*
X121764329Y-91009970D01*
X121742151Y-90999480D01*
X121721107Y-90986867D01*
X121701402Y-90972253D01*
X121683223Y-90955777D01*
X121666747Y-90937598D01*
X121652133Y-90917893D01*
X121639520Y-90896849D01*
X121629030Y-90874671D01*
X121620765Y-90851571D01*
X121614804Y-90827773D01*
X121611204Y-90803504D01*
X121610000Y-90779000D01*
X121610000Y-89579000D01*
X121611204Y-89554496D01*
X121614804Y-89530227D01*
X121620765Y-89506429D01*
X121629030Y-89483329D01*
X121639520Y-89461151D01*
X121652133Y-89440107D01*
X121666747Y-89420402D01*
X121683223Y-89402223D01*
X121701402Y-89385747D01*
X121721107Y-89371133D01*
X121742151Y-89358520D01*
X121764329Y-89348030D01*
X121787429Y-89339765D01*
X121811227Y-89333804D01*
X121835496Y-89330204D01*
X121860000Y-89329000D01*
X123310000Y-89329000D01*
X123334504Y-89330204D01*
X123334504Y-89330204D01*
G37*
D11*
X122585000Y-90179000D03*
D12*
X122585000Y-92679000D03*
X122585000Y-95179000D03*
X104013000Y-90259000D03*
X104013000Y-92759000D03*
D10*
G36*
X104762504Y-94410204D02*
G01*
X104786773Y-94413804D01*
X104810571Y-94419765D01*
X104833671Y-94428030D01*
X104855849Y-94438520D01*
X104876893Y-94451133D01*
X104896598Y-94465747D01*
X104914777Y-94482223D01*
X104931253Y-94500402D01*
X104945867Y-94520107D01*
X104958480Y-94541151D01*
X104968970Y-94563329D01*
X104977235Y-94586429D01*
X104983196Y-94610227D01*
X104986796Y-94634496D01*
X104988000Y-94659000D01*
X104988000Y-95859000D01*
X104986796Y-95883504D01*
X104983196Y-95907773D01*
X104977235Y-95931571D01*
X104968970Y-95954671D01*
X104958480Y-95976849D01*
X104945867Y-95997893D01*
X104931253Y-96017598D01*
X104914777Y-96035777D01*
X104896598Y-96052253D01*
X104876893Y-96066867D01*
X104855849Y-96079480D01*
X104833671Y-96089970D01*
X104810571Y-96098235D01*
X104786773Y-96104196D01*
X104762504Y-96107796D01*
X104738000Y-96109000D01*
X103288000Y-96109000D01*
X103263496Y-96107796D01*
X103239227Y-96104196D01*
X103215429Y-96098235D01*
X103192329Y-96089970D01*
X103170151Y-96079480D01*
X103149107Y-96066867D01*
X103129402Y-96052253D01*
X103111223Y-96035777D01*
X103094747Y-96017598D01*
X103080133Y-95997893D01*
X103067520Y-95976849D01*
X103057030Y-95954671D01*
X103048765Y-95931571D01*
X103042804Y-95907773D01*
X103039204Y-95883504D01*
X103038000Y-95859000D01*
X103038000Y-94659000D01*
X103039204Y-94634496D01*
X103042804Y-94610227D01*
X103048765Y-94586429D01*
X103057030Y-94563329D01*
X103067520Y-94541151D01*
X103080133Y-94520107D01*
X103094747Y-94500402D01*
X103111223Y-94482223D01*
X103129402Y-94465747D01*
X103149107Y-94451133D01*
X103170151Y-94438520D01*
X103192329Y-94428030D01*
X103215429Y-94419765D01*
X103239227Y-94413804D01*
X103263496Y-94410204D01*
X103288000Y-94409000D01*
X104738000Y-94409000D01*
X104762504Y-94410204D01*
X104762504Y-94410204D01*
G37*
D11*
X104013000Y-95259000D03*
D12*
X122585000Y-116379000D03*
X122585000Y-113879000D03*
D10*
G36*
X123334504Y-110530204D02*
G01*
X123358773Y-110533804D01*
X123382571Y-110539765D01*
X123405671Y-110548030D01*
X123427849Y-110558520D01*
X123448893Y-110571133D01*
X123468598Y-110585747D01*
X123486777Y-110602223D01*
X123503253Y-110620402D01*
X123517867Y-110640107D01*
X123530480Y-110661151D01*
X123540970Y-110683329D01*
X123549235Y-110706429D01*
X123555196Y-110730227D01*
X123558796Y-110754496D01*
X123560000Y-110779000D01*
X123560000Y-111979000D01*
X123558796Y-112003504D01*
X123555196Y-112027773D01*
X123549235Y-112051571D01*
X123540970Y-112074671D01*
X123530480Y-112096849D01*
X123517867Y-112117893D01*
X123503253Y-112137598D01*
X123486777Y-112155777D01*
X123468598Y-112172253D01*
X123448893Y-112186867D01*
X123427849Y-112199480D01*
X123405671Y-112209970D01*
X123382571Y-112218235D01*
X123358773Y-112224196D01*
X123334504Y-112227796D01*
X123310000Y-112229000D01*
X121860000Y-112229000D01*
X121835496Y-112227796D01*
X121811227Y-112224196D01*
X121787429Y-112218235D01*
X121764329Y-112209970D01*
X121742151Y-112199480D01*
X121721107Y-112186867D01*
X121701402Y-112172253D01*
X121683223Y-112155777D01*
X121666747Y-112137598D01*
X121652133Y-112117893D01*
X121639520Y-112096849D01*
X121629030Y-112074671D01*
X121620765Y-112051571D01*
X121614804Y-112027773D01*
X121611204Y-112003504D01*
X121610000Y-111979000D01*
X121610000Y-110779000D01*
X121611204Y-110754496D01*
X121614804Y-110730227D01*
X121620765Y-110706429D01*
X121629030Y-110683329D01*
X121639520Y-110661151D01*
X121652133Y-110640107D01*
X121666747Y-110620402D01*
X121683223Y-110602223D01*
X121701402Y-110585747D01*
X121721107Y-110571133D01*
X121742151Y-110558520D01*
X121764329Y-110548030D01*
X121787429Y-110539765D01*
X121811227Y-110533804D01*
X121835496Y-110530204D01*
X121860000Y-110529000D01*
X123310000Y-110529000D01*
X123334504Y-110530204D01*
X123334504Y-110530204D01*
G37*
D11*
X122585000Y-111379000D03*
D10*
G36*
X104762504Y-115610204D02*
G01*
X104786773Y-115613804D01*
X104810571Y-115619765D01*
X104833671Y-115628030D01*
X104855849Y-115638520D01*
X104876893Y-115651133D01*
X104896598Y-115665747D01*
X104914777Y-115682223D01*
X104931253Y-115700402D01*
X104945867Y-115720107D01*
X104958480Y-115741151D01*
X104968970Y-115763329D01*
X104977235Y-115786429D01*
X104983196Y-115810227D01*
X104986796Y-115834496D01*
X104988000Y-115859000D01*
X104988000Y-117059000D01*
X104986796Y-117083504D01*
X104983196Y-117107773D01*
X104977235Y-117131571D01*
X104968970Y-117154671D01*
X104958480Y-117176849D01*
X104945867Y-117197893D01*
X104931253Y-117217598D01*
X104914777Y-117235777D01*
X104896598Y-117252253D01*
X104876893Y-117266867D01*
X104855849Y-117279480D01*
X104833671Y-117289970D01*
X104810571Y-117298235D01*
X104786773Y-117304196D01*
X104762504Y-117307796D01*
X104738000Y-117309000D01*
X103288000Y-117309000D01*
X103263496Y-117307796D01*
X103239227Y-117304196D01*
X103215429Y-117298235D01*
X103192329Y-117289970D01*
X103170151Y-117279480D01*
X103149107Y-117266867D01*
X103129402Y-117252253D01*
X103111223Y-117235777D01*
X103094747Y-117217598D01*
X103080133Y-117197893D01*
X103067520Y-117176849D01*
X103057030Y-117154671D01*
X103048765Y-117131571D01*
X103042804Y-117107773D01*
X103039204Y-117083504D01*
X103038000Y-117059000D01*
X103038000Y-115859000D01*
X103039204Y-115834496D01*
X103042804Y-115810227D01*
X103048765Y-115786429D01*
X103057030Y-115763329D01*
X103067520Y-115741151D01*
X103080133Y-115720107D01*
X103094747Y-115700402D01*
X103111223Y-115682223D01*
X103129402Y-115665747D01*
X103149107Y-115651133D01*
X103170151Y-115638520D01*
X103192329Y-115628030D01*
X103215429Y-115619765D01*
X103239227Y-115613804D01*
X103263496Y-115610204D01*
X103288000Y-115609000D01*
X104738000Y-115609000D01*
X104762504Y-115610204D01*
X104762504Y-115610204D01*
G37*
D11*
X104013000Y-116459000D03*
D12*
X104013000Y-113959000D03*
X104013000Y-111459000D03*
D10*
G36*
X154762504Y-115610204D02*
G01*
X154786773Y-115613804D01*
X154810571Y-115619765D01*
X154833671Y-115628030D01*
X154855849Y-115638520D01*
X154876893Y-115651133D01*
X154896598Y-115665747D01*
X154914777Y-115682223D01*
X154931253Y-115700402D01*
X154945867Y-115720107D01*
X154958480Y-115741151D01*
X154968970Y-115763329D01*
X154977235Y-115786429D01*
X154983196Y-115810227D01*
X154986796Y-115834496D01*
X154988000Y-115859000D01*
X154988000Y-117059000D01*
X154986796Y-117083504D01*
X154983196Y-117107773D01*
X154977235Y-117131571D01*
X154968970Y-117154671D01*
X154958480Y-117176849D01*
X154945867Y-117197893D01*
X154931253Y-117217598D01*
X154914777Y-117235777D01*
X154896598Y-117252253D01*
X154876893Y-117266867D01*
X154855849Y-117279480D01*
X154833671Y-117289970D01*
X154810571Y-117298235D01*
X154786773Y-117304196D01*
X154762504Y-117307796D01*
X154738000Y-117309000D01*
X153288000Y-117309000D01*
X153263496Y-117307796D01*
X153239227Y-117304196D01*
X153215429Y-117298235D01*
X153192329Y-117289970D01*
X153170151Y-117279480D01*
X153149107Y-117266867D01*
X153129402Y-117252253D01*
X153111223Y-117235777D01*
X153094747Y-117217598D01*
X153080133Y-117197893D01*
X153067520Y-117176849D01*
X153057030Y-117154671D01*
X153048765Y-117131571D01*
X153042804Y-117107773D01*
X153039204Y-117083504D01*
X153038000Y-117059000D01*
X153038000Y-115859000D01*
X153039204Y-115834496D01*
X153042804Y-115810227D01*
X153048765Y-115786429D01*
X153057030Y-115763329D01*
X153067520Y-115741151D01*
X153080133Y-115720107D01*
X153094747Y-115700402D01*
X153111223Y-115682223D01*
X153129402Y-115665747D01*
X153149107Y-115651133D01*
X153170151Y-115638520D01*
X153192329Y-115628030D01*
X153215429Y-115619765D01*
X153239227Y-115613804D01*
X153263496Y-115610204D01*
X153288000Y-115609000D01*
X154738000Y-115609000D01*
X154762504Y-115610204D01*
X154762504Y-115610204D01*
G37*
D11*
X154013000Y-116459000D03*
D12*
X154013000Y-113959000D03*
X154013000Y-111459000D03*
D13*
X99299000Y-117419000D03*
X99299000Y-113919000D03*
X99299000Y-106919000D03*
X127299000Y-113919000D03*
X127299000Y-110419000D03*
X127299000Y-120919000D03*
X99299000Y-92719000D03*
X99299000Y-96219000D03*
X99299000Y-85719000D03*
X127299000Y-99719000D03*
X127299000Y-92719000D03*
X127299000Y-89219000D03*
X127299000Y-68019000D03*
X127299000Y-78519000D03*
X99299000Y-64519000D03*
X127299000Y-71519000D03*
X99299000Y-75019000D03*
X99299000Y-71519000D03*
X127299000Y-46819000D03*
X99299000Y-50319000D03*
X99299000Y-43319000D03*
X99299000Y-53819000D03*
X127299000Y-57319000D03*
X127299000Y-50319000D03*
X149299000Y-113919000D03*
X177299000Y-113919000D03*
X149299000Y-92719000D03*
X177299000Y-92719000D03*
X149299000Y-71519000D03*
X177299000Y-71519000D03*
X177299000Y-50319000D03*
X149299000Y-50319000D03*
X99299000Y-120919000D03*
X127299000Y-106919000D03*
X99299000Y-99719000D03*
X127299000Y-85719000D03*
X127299000Y-64519000D03*
X99299000Y-78519000D03*
X127299000Y-43319000D03*
X99299000Y-57319000D03*
X149299000Y-120919000D03*
X177299000Y-106919000D03*
X149299000Y-99719000D03*
X177299000Y-85719000D03*
X177299000Y-64519000D03*
X149299000Y-78519000D03*
X177299000Y-43319000D03*
X149299000Y-57319000D03*
X99299000Y-110419000D03*
X127299000Y-117419000D03*
X99299000Y-89219000D03*
X127299000Y-96219000D03*
X99299000Y-68019000D03*
X127299000Y-75019000D03*
X99299000Y-46819000D03*
X127299000Y-53819000D03*
X149299000Y-110419000D03*
X177299000Y-117419000D03*
X149299000Y-89219000D03*
X177299000Y-96219000D03*
X149299000Y-68019000D03*
X177299000Y-75019000D03*
X177299000Y-53819000D03*
X149299000Y-46819000D03*
D14*
X99299000Y-117419000D02*
X93899000Y-117419000D01*
X99299000Y-113919000D02*
X93899000Y-113919000D01*
X99299000Y-106919000D02*
X93899000Y-106919000D01*
X127299000Y-113919000D02*
X132699000Y-113919000D01*
X127299000Y-120919000D02*
X132699000Y-120919000D01*
X127299000Y-110419000D02*
X132699000Y-110419000D01*
X99299000Y-92719000D02*
X93899000Y-92719000D01*
X99299000Y-85719000D02*
X93899000Y-85719000D01*
X99299000Y-96219000D02*
X93899000Y-96219000D01*
X127299000Y-89219000D02*
X132699000Y-89219000D01*
X127299000Y-92719000D02*
X132699000Y-92719000D01*
X127299000Y-99719000D02*
X132699000Y-99719000D01*
X99299000Y-64519000D02*
X93899000Y-64519000D01*
X127299000Y-71519000D02*
X132699000Y-71519000D01*
X127299000Y-78519000D02*
X132699000Y-78519000D01*
X99299000Y-75019000D02*
X93899000Y-75019000D01*
X127299000Y-68019000D02*
X132699000Y-68019000D01*
X99299000Y-71519000D02*
X93899000Y-71519000D01*
X127299000Y-46819000D02*
X132699000Y-46819000D01*
X127299000Y-57319000D02*
X132699000Y-57319000D01*
X99299000Y-50319000D02*
X93899000Y-50319000D01*
X99299000Y-53819000D02*
X93899000Y-53819000D01*
X99299000Y-43319000D02*
X93899000Y-43319000D01*
X127299000Y-50319000D02*
X132699000Y-50319000D01*
X149299000Y-113919000D02*
X143899000Y-113919000D01*
X177299000Y-113919000D02*
X182699000Y-113919000D01*
X177299000Y-92719000D02*
X182699000Y-92719000D01*
X149299000Y-92719000D02*
X143899000Y-92719000D01*
X177299000Y-71519000D02*
X182699000Y-71519000D01*
X149299000Y-71519000D02*
X143899000Y-71519000D01*
X177299000Y-50319000D02*
X182699000Y-50319000D01*
X149299000Y-50319000D02*
X143899000Y-50319000D01*
X93899000Y-120919000D02*
X99299000Y-120919000D01*
X104138000Y-111459000D02*
X104013000Y-111459000D01*
X106362500Y-116955500D02*
X106362500Y-113683500D01*
X102399000Y-120919000D02*
X106362500Y-116955500D01*
X106362500Y-113683500D02*
X104138000Y-111459000D01*
X99299000Y-120919000D02*
X102399000Y-120919000D01*
X120235500Y-114154500D02*
X122460000Y-116379000D01*
X124199000Y-106919000D02*
X120235500Y-110882500D01*
X122460000Y-116379000D02*
X122585000Y-116379000D01*
X120235500Y-110882500D02*
X120235500Y-114154500D01*
X132699000Y-106919000D02*
X127299000Y-106919000D01*
X127299000Y-106919000D02*
X124199000Y-106919000D01*
X122460000Y-95179000D02*
X122585000Y-95179000D01*
X132699000Y-85719000D02*
X127299000Y-85719000D01*
X127299000Y-85719000D02*
X124199000Y-85719000D01*
X124199000Y-85719000D02*
X120235500Y-89682500D01*
X120235500Y-92954500D02*
X122460000Y-95179000D01*
X120235500Y-89682500D02*
X120235500Y-92954500D01*
X106362500Y-92483500D02*
X104138000Y-90259000D01*
X102399000Y-99719000D02*
X106362500Y-95755500D01*
X104138000Y-90259000D02*
X104013000Y-90259000D01*
X106362500Y-95755500D02*
X106362500Y-92483500D01*
X93899000Y-99719000D02*
X99299000Y-99719000D01*
X99299000Y-99719000D02*
X102399000Y-99719000D01*
X93899000Y-78519000D02*
X99299000Y-78519000D01*
X102399000Y-78519000D02*
X106362500Y-74555500D01*
X99299000Y-78519000D02*
X102399000Y-78519000D01*
X104138000Y-69059000D02*
X104013000Y-69059000D01*
X106362500Y-71283500D02*
X104138000Y-69059000D01*
X106362500Y-74555500D02*
X106362500Y-71283500D01*
X124199000Y-64519000D02*
X120235500Y-68482500D01*
X132699000Y-64519000D02*
X127299000Y-64519000D01*
X120235500Y-71754500D02*
X122460000Y-73979000D01*
X120235500Y-68482500D02*
X120235500Y-71754500D01*
X122460000Y-73979000D02*
X122585000Y-73979000D01*
X127299000Y-64519000D02*
X124199000Y-64519000D01*
X127299000Y-43319000D02*
X124199000Y-43319000D01*
X122460000Y-52779000D02*
X122585000Y-52779000D01*
X124199000Y-43319000D02*
X120235500Y-47282500D01*
X102399000Y-57319000D02*
X106362500Y-53355500D01*
X132699000Y-43319000D02*
X127299000Y-43319000D01*
X120235500Y-50554500D02*
X122460000Y-52779000D01*
X106362500Y-53355500D02*
X106362500Y-50083500D01*
X120235500Y-47282500D02*
X120235500Y-50554500D01*
X106362500Y-50083500D02*
X104138000Y-47859000D01*
X93899000Y-57319000D02*
X99299000Y-57319000D01*
X104138000Y-47859000D02*
X104013000Y-47859000D01*
X99299000Y-57319000D02*
X102399000Y-57319000D01*
X143899000Y-120919000D02*
X149299000Y-120919000D01*
X154138000Y-111459000D02*
X154013000Y-111459000D01*
X156362500Y-116955500D02*
X156362500Y-113683500D01*
X152399000Y-120919000D02*
X156362500Y-116955500D01*
X156362500Y-113683500D02*
X154138000Y-111459000D01*
X149299000Y-120919000D02*
X152399000Y-120919000D01*
X174199000Y-106919000D02*
X170235500Y-110882500D01*
X170235500Y-110882500D02*
X170235500Y-114154500D01*
X177299000Y-106919000D02*
X174199000Y-106919000D01*
X170235500Y-114154500D02*
X172460000Y-116379000D01*
X172460000Y-116379000D02*
X172585000Y-116379000D01*
X182699000Y-106919000D02*
X177299000Y-106919000D01*
X174199000Y-85719000D02*
X170235500Y-89682500D01*
X170235500Y-92954500D02*
X172460000Y-95179000D01*
X170235500Y-89682500D02*
X170235500Y-92954500D01*
X177299000Y-85719000D02*
X174199000Y-85719000D01*
X172460000Y-95179000D02*
X172585000Y-95179000D01*
X152399000Y-99719000D02*
X156362500Y-95755500D01*
X156362500Y-95755500D02*
X156362500Y-92483500D01*
X149299000Y-99719000D02*
X152399000Y-99719000D01*
X156362500Y-92483500D02*
X154138000Y-90259000D01*
X154138000Y-90259000D02*
X154013000Y-90259000D01*
X143899000Y-99719000D02*
X149299000Y-99719000D01*
X182699000Y-85719000D02*
X177299000Y-85719000D01*
X143899000Y-78519000D02*
X149299000Y-78519000D01*
X156362500Y-71283500D02*
X154138000Y-69059000D01*
X177299000Y-64519000D02*
X174199000Y-64519000D01*
X172460000Y-73979000D02*
X172585000Y-73979000D01*
X156362500Y-74555500D02*
X156362500Y-71283500D01*
X149299000Y-78519000D02*
X152399000Y-78519000D01*
X174199000Y-64519000D02*
X170235500Y-68482500D01*
X170235500Y-71754500D02*
X172460000Y-73979000D01*
X170235500Y-68482500D02*
X170235500Y-71754500D01*
X154138000Y-69059000D02*
X154013000Y-69059000D01*
X152399000Y-78519000D02*
X156362500Y-74555500D01*
X182699000Y-64519000D02*
X177299000Y-64519000D01*
X156362500Y-50083500D02*
X154138000Y-47859000D01*
X143899000Y-57319000D02*
X149299000Y-57319000D01*
X177299000Y-43319000D02*
X174199000Y-43319000D01*
X172460000Y-52779000D02*
X172585000Y-52779000D01*
X156362500Y-53355500D02*
X156362500Y-50083500D01*
X149299000Y-57319000D02*
X152399000Y-57319000D01*
X152399000Y-57319000D02*
X156362500Y-53355500D01*
X174199000Y-43319000D02*
X170235500Y-47282500D01*
X170235500Y-50554500D02*
X172460000Y-52779000D01*
X182699000Y-43319000D02*
X177299000Y-43319000D01*
X154138000Y-47859000D02*
X154013000Y-47859000D01*
X170235500Y-47282500D02*
X170235500Y-50554500D01*
X99299000Y-110419000D02*
X93899000Y-110419000D01*
X100899000Y-110419000D02*
X99299000Y-110419000D01*
X101799000Y-111319000D02*
X100899000Y-110419000D01*
X101799000Y-111319000D02*
X101799000Y-115769000D01*
X102489000Y-116459000D02*
X104013000Y-116459000D01*
X101799000Y-115769000D02*
X102489000Y-116459000D01*
X127299000Y-117419000D02*
X132699000Y-117419000D01*
X124799000Y-116519000D02*
X125699000Y-117419000D01*
X124799000Y-112069000D02*
X124109000Y-111379000D01*
X125699000Y-117419000D02*
X127299000Y-117419000D01*
X124799000Y-116519000D02*
X124799000Y-112069000D01*
X124109000Y-111379000D02*
X122585000Y-111379000D01*
X125699000Y-96219000D02*
X127299000Y-96219000D01*
X124109000Y-90179000D02*
X122585000Y-90179000D01*
X124799000Y-95319000D02*
X125699000Y-96219000D01*
X124799000Y-95319000D02*
X124799000Y-90869000D01*
X124799000Y-90869000D02*
X124109000Y-90179000D01*
X127299000Y-96219000D02*
X132699000Y-96219000D01*
X99299000Y-89219000D02*
X93899000Y-89219000D01*
X101799000Y-90119000D02*
X100899000Y-89219000D01*
X101799000Y-94569000D02*
X102489000Y-95259000D01*
X100899000Y-89219000D02*
X99299000Y-89219000D01*
X101799000Y-90119000D02*
X101799000Y-94569000D01*
X102489000Y-95259000D02*
X104013000Y-95259000D01*
X101799000Y-73369000D02*
X102489000Y-74059000D01*
X100899000Y-68019000D02*
X99299000Y-68019000D01*
X101799000Y-68919000D02*
X100899000Y-68019000D01*
X101799000Y-68919000D02*
X101799000Y-73369000D01*
X102489000Y-74059000D02*
X104013000Y-74059000D01*
X124799000Y-69669000D02*
X124109000Y-68979000D01*
X99299000Y-68019000D02*
X93899000Y-68019000D01*
X124109000Y-68979000D02*
X122585000Y-68979000D01*
X124799000Y-74119000D02*
X125699000Y-75019000D01*
X124799000Y-74119000D02*
X124799000Y-69669000D01*
X125699000Y-75019000D02*
X127299000Y-75019000D01*
X127299000Y-75019000D02*
X132699000Y-75019000D01*
X99299000Y-46819000D02*
X93899000Y-46819000D01*
X124799000Y-52919000D02*
X124799000Y-48469000D01*
X125699000Y-53819000D02*
X127299000Y-53819000D01*
X127299000Y-53819000D02*
X132699000Y-53819000D01*
X124109000Y-47779000D02*
X122585000Y-47779000D01*
X124799000Y-52919000D02*
X125699000Y-53819000D01*
X102489000Y-52859000D02*
X104013000Y-52859000D01*
X100899000Y-46819000D02*
X99299000Y-46819000D01*
X101799000Y-52169000D02*
X102489000Y-52859000D01*
X101799000Y-47719000D02*
X101799000Y-52169000D01*
X124799000Y-48469000D02*
X124109000Y-47779000D01*
X101799000Y-47719000D02*
X100899000Y-46819000D01*
X149299000Y-110419000D02*
X143899000Y-110419000D01*
X150899000Y-110419000D02*
X149299000Y-110419000D01*
X151799000Y-111319000D02*
X150899000Y-110419000D01*
X151799000Y-111319000D02*
X151799000Y-115769000D01*
X152489000Y-116459000D02*
X154013000Y-116459000D01*
X151799000Y-115769000D02*
X152489000Y-116459000D01*
X174799000Y-116519000D02*
X174799000Y-112069000D01*
X174799000Y-116519000D02*
X175699000Y-117419000D01*
X177299000Y-117419000D02*
X182699000Y-117419000D01*
X175699000Y-117419000D02*
X177299000Y-117419000D01*
X174109000Y-111379000D02*
X172585000Y-111379000D01*
X174799000Y-112069000D02*
X174109000Y-111379000D01*
X174799000Y-95319000D02*
X175699000Y-96219000D01*
X177299000Y-96219000D02*
X182699000Y-96219000D01*
X174799000Y-95319000D02*
X174799000Y-90869000D01*
X175699000Y-96219000D02*
X177299000Y-96219000D01*
X151799000Y-90119000D02*
X151799000Y-94569000D01*
X151799000Y-90119000D02*
X150899000Y-89219000D01*
X149299000Y-89219000D02*
X143899000Y-89219000D01*
X174109000Y-90179000D02*
X172585000Y-90179000D01*
X150899000Y-89219000D02*
X149299000Y-89219000D01*
X152489000Y-95259000D02*
X154013000Y-95259000D01*
X151799000Y-94569000D02*
X152489000Y-95259000D01*
X174799000Y-90869000D02*
X174109000Y-90179000D01*
X174799000Y-74119000D02*
X174799000Y-69669000D01*
X174799000Y-74119000D02*
X175699000Y-75019000D01*
X149299000Y-68019000D02*
X143899000Y-68019000D01*
X151799000Y-68919000D02*
X150899000Y-68019000D01*
X174109000Y-68979000D02*
X172585000Y-68979000D01*
X150899000Y-68019000D02*
X149299000Y-68019000D01*
X152489000Y-74059000D02*
X154013000Y-74059000D01*
X177299000Y-75019000D02*
X182699000Y-75019000D01*
X151799000Y-73369000D02*
X152489000Y-74059000D01*
X151799000Y-68919000D02*
X151799000Y-73369000D01*
X174799000Y-69669000D02*
X174109000Y-68979000D01*
X175699000Y-75019000D02*
X177299000Y-75019000D01*
X174799000Y-52919000D02*
X174799000Y-48469000D01*
X149299000Y-46819000D02*
X143899000Y-46819000D01*
X174799000Y-52919000D02*
X175699000Y-53819000D01*
X151799000Y-47719000D02*
X151799000Y-52169000D01*
X175699000Y-53819000D02*
X177299000Y-53819000D01*
X151799000Y-52169000D02*
X152489000Y-52859000D01*
X174799000Y-48469000D02*
X174109000Y-47779000D01*
X150899000Y-46819000D02*
X149299000Y-46819000D01*
X151799000Y-47719000D02*
X150899000Y-46819000D01*
X152489000Y-52859000D02*
X154013000Y-52859000D01*
X177299000Y-53819000D02*
X182699000Y-53819000D01*
X174109000Y-47779000D02*
X172585000Y-47779000D01*
M02*
