G04 #@! TF.GenerationSoftware,KiCad,Pcbnew,(5.1.0)-1*
G04 #@! TF.CreationDate,2019-06-08T19:04:15-04:00*
G04 #@! TF.ProjectId,input+output_panel,696e7075-742b-46f7-9574-7075745f7061,0.1*
G04 #@! TF.SameCoordinates,Original*
G04 #@! TF.FileFunction,Legend,Top*
G04 #@! TF.FilePolarity,Positive*
%FSLAX46Y46*%
G04 Gerber Fmt 4.6, Leading zero omitted, Abs format (unit mm)*
G04 Created by KiCad (PCBNEW (5.1.0)-1) date 2019-06-08 19:04:15*
%MOMM*%
%LPD*%
G04 APERTURE LIST*
%ADD10C,0.203200*%
%ADD11C,0.120000*%
G04 APERTURE END LIST*
D10*
X176054500Y-50086166D02*
X176012166Y-50170833D01*
X176012166Y-50297833D01*
X176054500Y-50424833D01*
X176139166Y-50509500D01*
X176223833Y-50551833D01*
X176393166Y-50594166D01*
X176520166Y-50594166D01*
X176689500Y-50551833D01*
X176774166Y-50509500D01*
X176858833Y-50424833D01*
X176901166Y-50297833D01*
X176901166Y-50213166D01*
X176858833Y-50086166D01*
X176816500Y-50043833D01*
X176520166Y-50043833D01*
X176520166Y-50213166D01*
X176901166Y-53594166D02*
X176477833Y-53890500D01*
X176901166Y-54102166D02*
X176012166Y-54102166D01*
X176012166Y-53763500D01*
X176054500Y-53678833D01*
X176096833Y-53636500D01*
X176181500Y-53594166D01*
X176308500Y-53594166D01*
X176393166Y-53636500D01*
X176435500Y-53678833D01*
X176477833Y-53763500D01*
X176477833Y-54102166D01*
X176562500Y-53213166D02*
X176562500Y-52535833D01*
X176901166Y-52874500D02*
X176223833Y-52874500D01*
X149696833Y-47043833D02*
X150120166Y-46747500D01*
X149696833Y-46535833D02*
X150585833Y-46535833D01*
X150585833Y-46874500D01*
X150543500Y-46959166D01*
X150501166Y-47001500D01*
X150416500Y-47043833D01*
X150289500Y-47043833D01*
X150204833Y-47001500D01*
X150162500Y-46959166D01*
X150120166Y-46874500D01*
X150120166Y-46535833D01*
X150035500Y-47424833D02*
X150035500Y-48102166D01*
X149696833Y-47763500D02*
X150374166Y-47763500D01*
X150543500Y-50551833D02*
X150585833Y-50467166D01*
X150585833Y-50340166D01*
X150543500Y-50213166D01*
X150458833Y-50128500D01*
X150374166Y-50086166D01*
X150204833Y-50043833D01*
X150077833Y-50043833D01*
X149908500Y-50086166D01*
X149823833Y-50128500D01*
X149739166Y-50213166D01*
X149696833Y-50340166D01*
X149696833Y-50424833D01*
X149739166Y-50551833D01*
X149781500Y-50594166D01*
X150077833Y-50594166D01*
X150077833Y-50424833D01*
X176901166Y-43594166D02*
X176901166Y-44017500D01*
X176012166Y-44017500D01*
X176562500Y-43297833D02*
X176562500Y-42620500D01*
X176901166Y-42959166D02*
X176223833Y-42959166D01*
X176901166Y-46894166D02*
X176901166Y-47317500D01*
X176012166Y-47317500D01*
X176562500Y-46597833D02*
X176562500Y-45920500D01*
X149696833Y-57043833D02*
X149696833Y-56620500D01*
X150585833Y-56620500D01*
X150035500Y-57340166D02*
X150035500Y-58017500D01*
X149696833Y-57678833D02*
X150374166Y-57678833D01*
X149696833Y-43543833D02*
X150120166Y-43247500D01*
X149696833Y-43035833D02*
X150585833Y-43035833D01*
X150585833Y-43374500D01*
X150543500Y-43459166D01*
X150501166Y-43501500D01*
X150416500Y-43543833D01*
X150289500Y-43543833D01*
X150204833Y-43501500D01*
X150162500Y-43459166D01*
X150120166Y-43374500D01*
X150120166Y-43035833D01*
X150035500Y-43924833D02*
X150035500Y-44602166D01*
X149696833Y-53743833D02*
X149696833Y-53320500D01*
X150585833Y-53320500D01*
X150035500Y-54040166D02*
X150035500Y-54717500D01*
X176901166Y-57094166D02*
X176477833Y-57390500D01*
X176901166Y-57602166D02*
X176012166Y-57602166D01*
X176012166Y-57263500D01*
X176054500Y-57178833D01*
X176096833Y-57136500D01*
X176181500Y-57094166D01*
X176308500Y-57094166D01*
X176393166Y-57136500D01*
X176435500Y-57178833D01*
X176477833Y-57263500D01*
X176477833Y-57602166D01*
X176562500Y-56713166D02*
X176562500Y-56035833D01*
X176901166Y-68094166D02*
X176901166Y-68517500D01*
X176012166Y-68517500D01*
X176562500Y-67797833D02*
X176562500Y-67120500D01*
X150543500Y-71751833D02*
X150585833Y-71667166D01*
X150585833Y-71540166D01*
X150543500Y-71413166D01*
X150458833Y-71328500D01*
X150374166Y-71286166D01*
X150204833Y-71243833D01*
X150077833Y-71243833D01*
X149908500Y-71286166D01*
X149823833Y-71328500D01*
X149739166Y-71413166D01*
X149696833Y-71540166D01*
X149696833Y-71624833D01*
X149739166Y-71751833D01*
X149781500Y-71794166D01*
X150077833Y-71794166D01*
X150077833Y-71624833D01*
X176901166Y-78294166D02*
X176477833Y-78590500D01*
X176901166Y-78802166D02*
X176012166Y-78802166D01*
X176012166Y-78463500D01*
X176054500Y-78378833D01*
X176096833Y-78336500D01*
X176181500Y-78294166D01*
X176308500Y-78294166D01*
X176393166Y-78336500D01*
X176435500Y-78378833D01*
X176477833Y-78463500D01*
X176477833Y-78802166D01*
X176562500Y-77913166D02*
X176562500Y-77235833D01*
X149696833Y-78243833D02*
X149696833Y-77820500D01*
X150585833Y-77820500D01*
X150035500Y-78540166D02*
X150035500Y-79217500D01*
X149696833Y-78878833D02*
X150374166Y-78878833D01*
X176901166Y-74794166D02*
X176477833Y-75090500D01*
X176901166Y-75302166D02*
X176012166Y-75302166D01*
X176012166Y-74963500D01*
X176054500Y-74878833D01*
X176096833Y-74836500D01*
X176181500Y-74794166D01*
X176308500Y-74794166D01*
X176393166Y-74836500D01*
X176435500Y-74878833D01*
X176477833Y-74963500D01*
X176477833Y-75302166D01*
X176562500Y-74413166D02*
X176562500Y-73735833D01*
X176901166Y-74074500D02*
X176223833Y-74074500D01*
X176054500Y-71286166D02*
X176012166Y-71370833D01*
X176012166Y-71497833D01*
X176054500Y-71624833D01*
X176139166Y-71709500D01*
X176223833Y-71751833D01*
X176393166Y-71794166D01*
X176520166Y-71794166D01*
X176689500Y-71751833D01*
X176774166Y-71709500D01*
X176858833Y-71624833D01*
X176901166Y-71497833D01*
X176901166Y-71413166D01*
X176858833Y-71286166D01*
X176816500Y-71243833D01*
X176520166Y-71243833D01*
X176520166Y-71413166D01*
X149696833Y-74943833D02*
X149696833Y-74520500D01*
X150585833Y-74520500D01*
X150035500Y-75240166D02*
X150035500Y-75917500D01*
X176901166Y-64794166D02*
X176901166Y-65217500D01*
X176012166Y-65217500D01*
X176562500Y-64497833D02*
X176562500Y-63820500D01*
X176901166Y-64159166D02*
X176223833Y-64159166D01*
X149696833Y-64743833D02*
X150120166Y-64447500D01*
X149696833Y-64235833D02*
X150585833Y-64235833D01*
X150585833Y-64574500D01*
X150543500Y-64659166D01*
X150501166Y-64701500D01*
X150416500Y-64743833D01*
X150289500Y-64743833D01*
X150204833Y-64701500D01*
X150162500Y-64659166D01*
X150120166Y-64574500D01*
X150120166Y-64235833D01*
X150035500Y-65124833D02*
X150035500Y-65802166D01*
X149696833Y-68243833D02*
X150120166Y-67947500D01*
X149696833Y-67735833D02*
X150585833Y-67735833D01*
X150585833Y-68074500D01*
X150543500Y-68159166D01*
X150501166Y-68201500D01*
X150416500Y-68243833D01*
X150289500Y-68243833D01*
X150204833Y-68201500D01*
X150162500Y-68159166D01*
X150120166Y-68074500D01*
X150120166Y-67735833D01*
X150035500Y-68624833D02*
X150035500Y-69302166D01*
X149696833Y-68963500D02*
X150374166Y-68963500D01*
X176901166Y-99494166D02*
X176477833Y-99790500D01*
X176901166Y-100002166D02*
X176012166Y-100002166D01*
X176012166Y-99663500D01*
X176054500Y-99578833D01*
X176096833Y-99536500D01*
X176181500Y-99494166D01*
X176308500Y-99494166D01*
X176393166Y-99536500D01*
X176435500Y-99578833D01*
X176477833Y-99663500D01*
X176477833Y-100002166D01*
X176562500Y-99113166D02*
X176562500Y-98435833D01*
X176901166Y-95994166D02*
X176477833Y-96290500D01*
X176901166Y-96502166D02*
X176012166Y-96502166D01*
X176012166Y-96163500D01*
X176054500Y-96078833D01*
X176096833Y-96036500D01*
X176181500Y-95994166D01*
X176308500Y-95994166D01*
X176393166Y-96036500D01*
X176435500Y-96078833D01*
X176477833Y-96163500D01*
X176477833Y-96502166D01*
X176562500Y-95613166D02*
X176562500Y-94935833D01*
X176901166Y-95274500D02*
X176223833Y-95274500D01*
X176901166Y-89294166D02*
X176901166Y-89717500D01*
X176012166Y-89717500D01*
X176562500Y-88997833D02*
X176562500Y-88320500D01*
X176054500Y-92486166D02*
X176012166Y-92570833D01*
X176012166Y-92697833D01*
X176054500Y-92824833D01*
X176139166Y-92909500D01*
X176223833Y-92951833D01*
X176393166Y-92994166D01*
X176520166Y-92994166D01*
X176689500Y-92951833D01*
X176774166Y-92909500D01*
X176858833Y-92824833D01*
X176901166Y-92697833D01*
X176901166Y-92613166D01*
X176858833Y-92486166D01*
X176816500Y-92443833D01*
X176520166Y-92443833D01*
X176520166Y-92613166D01*
X176901166Y-85994166D02*
X176901166Y-86417500D01*
X176012166Y-86417500D01*
X176562500Y-85697833D02*
X176562500Y-85020500D01*
X176901166Y-85359166D02*
X176223833Y-85359166D01*
X149696833Y-85943833D02*
X150120166Y-85647500D01*
X149696833Y-85435833D02*
X150585833Y-85435833D01*
X150585833Y-85774500D01*
X150543500Y-85859166D01*
X150501166Y-85901500D01*
X150416500Y-85943833D01*
X150289500Y-85943833D01*
X150204833Y-85901500D01*
X150162500Y-85859166D01*
X150120166Y-85774500D01*
X150120166Y-85435833D01*
X150035500Y-86324833D02*
X150035500Y-87002166D01*
X149696833Y-89443833D02*
X150120166Y-89147500D01*
X149696833Y-88935833D02*
X150585833Y-88935833D01*
X150585833Y-89274500D01*
X150543500Y-89359166D01*
X150501166Y-89401500D01*
X150416500Y-89443833D01*
X150289500Y-89443833D01*
X150204833Y-89401500D01*
X150162500Y-89359166D01*
X150120166Y-89274500D01*
X150120166Y-88935833D01*
X150035500Y-89824833D02*
X150035500Y-90502166D01*
X149696833Y-90163500D02*
X150374166Y-90163500D01*
X149696833Y-96143833D02*
X149696833Y-95720500D01*
X150585833Y-95720500D01*
X150035500Y-96440166D02*
X150035500Y-97117500D01*
X150543500Y-92951833D02*
X150585833Y-92867166D01*
X150585833Y-92740166D01*
X150543500Y-92613166D01*
X150458833Y-92528500D01*
X150374166Y-92486166D01*
X150204833Y-92443833D01*
X150077833Y-92443833D01*
X149908500Y-92486166D01*
X149823833Y-92528500D01*
X149739166Y-92613166D01*
X149696833Y-92740166D01*
X149696833Y-92824833D01*
X149739166Y-92951833D01*
X149781500Y-92994166D01*
X150077833Y-92994166D01*
X150077833Y-92824833D01*
X149696833Y-99443833D02*
X149696833Y-99020500D01*
X150585833Y-99020500D01*
X150035500Y-99740166D02*
X150035500Y-100417500D01*
X149696833Y-100078833D02*
X150374166Y-100078833D01*
X176901166Y-120694166D02*
X176477833Y-120990500D01*
X176901166Y-121202166D02*
X176012166Y-121202166D01*
X176012166Y-120863500D01*
X176054500Y-120778833D01*
X176096833Y-120736500D01*
X176181500Y-120694166D01*
X176308500Y-120694166D01*
X176393166Y-120736500D01*
X176435500Y-120778833D01*
X176477833Y-120863500D01*
X176477833Y-121202166D01*
X176562500Y-120313166D02*
X176562500Y-119635833D01*
X176901166Y-117194166D02*
X176477833Y-117490500D01*
X176901166Y-117702166D02*
X176012166Y-117702166D01*
X176012166Y-117363500D01*
X176054500Y-117278833D01*
X176096833Y-117236500D01*
X176181500Y-117194166D01*
X176308500Y-117194166D01*
X176393166Y-117236500D01*
X176435500Y-117278833D01*
X176477833Y-117363500D01*
X176477833Y-117702166D01*
X176562500Y-116813166D02*
X176562500Y-116135833D01*
X176901166Y-116474500D02*
X176223833Y-116474500D01*
X176901166Y-110494166D02*
X176901166Y-110917500D01*
X176012166Y-110917500D01*
X176562500Y-110197833D02*
X176562500Y-109520500D01*
X176054500Y-113686166D02*
X176012166Y-113770833D01*
X176012166Y-113897833D01*
X176054500Y-114024833D01*
X176139166Y-114109500D01*
X176223833Y-114151833D01*
X176393166Y-114194166D01*
X176520166Y-114194166D01*
X176689500Y-114151833D01*
X176774166Y-114109500D01*
X176858833Y-114024833D01*
X176901166Y-113897833D01*
X176901166Y-113813166D01*
X176858833Y-113686166D01*
X176816500Y-113643833D01*
X176520166Y-113643833D01*
X176520166Y-113813166D01*
X176901166Y-107194166D02*
X176901166Y-107617500D01*
X176012166Y-107617500D01*
X176562500Y-106897833D02*
X176562500Y-106220500D01*
X176901166Y-106559166D02*
X176223833Y-106559166D01*
X99696833Y-57043833D02*
X99696833Y-56620500D01*
X100585833Y-56620500D01*
X100035500Y-57340166D02*
X100035500Y-58017500D01*
X99696833Y-57678833D02*
X100374166Y-57678833D01*
X100543500Y-50551833D02*
X100585833Y-50467166D01*
X100585833Y-50340166D01*
X100543500Y-50213166D01*
X100458833Y-50128500D01*
X100374166Y-50086166D01*
X100204833Y-50043833D01*
X100077833Y-50043833D01*
X99908500Y-50086166D01*
X99823833Y-50128500D01*
X99739166Y-50213166D01*
X99696833Y-50340166D01*
X99696833Y-50424833D01*
X99739166Y-50551833D01*
X99781500Y-50594166D01*
X100077833Y-50594166D01*
X100077833Y-50424833D01*
X99696833Y-53743833D02*
X99696833Y-53320500D01*
X100585833Y-53320500D01*
X100035500Y-54040166D02*
X100035500Y-54717500D01*
X126901166Y-43594166D02*
X126901166Y-44017500D01*
X126012166Y-44017500D01*
X126562500Y-43297833D02*
X126562500Y-42620500D01*
X126901166Y-42959166D02*
X126223833Y-42959166D01*
X126054500Y-50086166D02*
X126012166Y-50170833D01*
X126012166Y-50297833D01*
X126054500Y-50424833D01*
X126139166Y-50509500D01*
X126223833Y-50551833D01*
X126393166Y-50594166D01*
X126520166Y-50594166D01*
X126689500Y-50551833D01*
X126774166Y-50509500D01*
X126858833Y-50424833D01*
X126901166Y-50297833D01*
X126901166Y-50213166D01*
X126858833Y-50086166D01*
X126816500Y-50043833D01*
X126520166Y-50043833D01*
X126520166Y-50213166D01*
X99696833Y-47043833D02*
X100120166Y-46747500D01*
X99696833Y-46535833D02*
X100585833Y-46535833D01*
X100585833Y-46874500D01*
X100543500Y-46959166D01*
X100501166Y-47001500D01*
X100416500Y-47043833D01*
X100289500Y-47043833D01*
X100204833Y-47001500D01*
X100162500Y-46959166D01*
X100120166Y-46874500D01*
X100120166Y-46535833D01*
X100035500Y-47424833D02*
X100035500Y-48102166D01*
X99696833Y-47763500D02*
X100374166Y-47763500D01*
X126901166Y-57094166D02*
X126477833Y-57390500D01*
X126901166Y-57602166D02*
X126012166Y-57602166D01*
X126012166Y-57263500D01*
X126054500Y-57178833D01*
X126096833Y-57136500D01*
X126181500Y-57094166D01*
X126308500Y-57094166D01*
X126393166Y-57136500D01*
X126435500Y-57178833D01*
X126477833Y-57263500D01*
X126477833Y-57602166D01*
X126562500Y-56713166D02*
X126562500Y-56035833D01*
X99696833Y-43543833D02*
X100120166Y-43247500D01*
X99696833Y-43035833D02*
X100585833Y-43035833D01*
X100585833Y-43374500D01*
X100543500Y-43459166D01*
X100501166Y-43501500D01*
X100416500Y-43543833D01*
X100289500Y-43543833D01*
X100204833Y-43501500D01*
X100162500Y-43459166D01*
X100120166Y-43374500D01*
X100120166Y-43035833D01*
X100035500Y-43924833D02*
X100035500Y-44602166D01*
X126901166Y-46894166D02*
X126901166Y-47317500D01*
X126012166Y-47317500D01*
X126562500Y-46597833D02*
X126562500Y-45920500D01*
X126901166Y-53594166D02*
X126477833Y-53890500D01*
X126901166Y-54102166D02*
X126012166Y-54102166D01*
X126012166Y-53763500D01*
X126054500Y-53678833D01*
X126096833Y-53636500D01*
X126181500Y-53594166D01*
X126308500Y-53594166D01*
X126393166Y-53636500D01*
X126435500Y-53678833D01*
X126477833Y-53763500D01*
X126477833Y-54102166D01*
X126562500Y-53213166D02*
X126562500Y-52535833D01*
X126901166Y-52874500D02*
X126223833Y-52874500D01*
X99696833Y-74943833D02*
X99696833Y-74520500D01*
X100585833Y-74520500D01*
X100035500Y-75240166D02*
X100035500Y-75917500D01*
X99696833Y-64743833D02*
X100120166Y-64447500D01*
X99696833Y-64235833D02*
X100585833Y-64235833D01*
X100585833Y-64574500D01*
X100543500Y-64659166D01*
X100501166Y-64701500D01*
X100416500Y-64743833D01*
X100289500Y-64743833D01*
X100204833Y-64701500D01*
X100162500Y-64659166D01*
X100120166Y-64574500D01*
X100120166Y-64235833D01*
X100035500Y-65124833D02*
X100035500Y-65802166D01*
X100543500Y-71751833D02*
X100585833Y-71667166D01*
X100585833Y-71540166D01*
X100543500Y-71413166D01*
X100458833Y-71328500D01*
X100374166Y-71286166D01*
X100204833Y-71243833D01*
X100077833Y-71243833D01*
X99908500Y-71286166D01*
X99823833Y-71328500D01*
X99739166Y-71413166D01*
X99696833Y-71540166D01*
X99696833Y-71624833D01*
X99739166Y-71751833D01*
X99781500Y-71794166D01*
X100077833Y-71794166D01*
X100077833Y-71624833D01*
X126901166Y-64794166D02*
X126901166Y-65217500D01*
X126012166Y-65217500D01*
X126562500Y-64497833D02*
X126562500Y-63820500D01*
X126901166Y-64159166D02*
X126223833Y-64159166D01*
X126901166Y-78294166D02*
X126477833Y-78590500D01*
X126901166Y-78802166D02*
X126012166Y-78802166D01*
X126012166Y-78463500D01*
X126054500Y-78378833D01*
X126096833Y-78336500D01*
X126181500Y-78294166D01*
X126308500Y-78294166D01*
X126393166Y-78336500D01*
X126435500Y-78378833D01*
X126477833Y-78463500D01*
X126477833Y-78802166D01*
X126562500Y-77913166D02*
X126562500Y-77235833D01*
X99696833Y-68243833D02*
X100120166Y-67947500D01*
X99696833Y-67735833D02*
X100585833Y-67735833D01*
X100585833Y-68074500D01*
X100543500Y-68159166D01*
X100501166Y-68201500D01*
X100416500Y-68243833D01*
X100289500Y-68243833D01*
X100204833Y-68201500D01*
X100162500Y-68159166D01*
X100120166Y-68074500D01*
X100120166Y-67735833D01*
X100035500Y-68624833D02*
X100035500Y-69302166D01*
X99696833Y-68963500D02*
X100374166Y-68963500D01*
X126901166Y-74794166D02*
X126477833Y-75090500D01*
X126901166Y-75302166D02*
X126012166Y-75302166D01*
X126012166Y-74963500D01*
X126054500Y-74878833D01*
X126096833Y-74836500D01*
X126181500Y-74794166D01*
X126308500Y-74794166D01*
X126393166Y-74836500D01*
X126435500Y-74878833D01*
X126477833Y-74963500D01*
X126477833Y-75302166D01*
X126562500Y-74413166D02*
X126562500Y-73735833D01*
X126901166Y-74074500D02*
X126223833Y-74074500D01*
X99696833Y-78243833D02*
X99696833Y-77820500D01*
X100585833Y-77820500D01*
X100035500Y-78540166D02*
X100035500Y-79217500D01*
X99696833Y-78878833D02*
X100374166Y-78878833D01*
X126901166Y-68094166D02*
X126901166Y-68517500D01*
X126012166Y-68517500D01*
X126562500Y-67797833D02*
X126562500Y-67120500D01*
X126054500Y-71286166D02*
X126012166Y-71370833D01*
X126012166Y-71497833D01*
X126054500Y-71624833D01*
X126139166Y-71709500D01*
X126223833Y-71751833D01*
X126393166Y-71794166D01*
X126520166Y-71794166D01*
X126689500Y-71751833D01*
X126774166Y-71709500D01*
X126858833Y-71624833D01*
X126901166Y-71497833D01*
X126901166Y-71413166D01*
X126858833Y-71286166D01*
X126816500Y-71243833D01*
X126520166Y-71243833D01*
X126520166Y-71413166D01*
X99696833Y-99443833D02*
X99696833Y-99020500D01*
X100585833Y-99020500D01*
X100035500Y-99740166D02*
X100035500Y-100417500D01*
X99696833Y-100078833D02*
X100374166Y-100078833D01*
X99696833Y-85943833D02*
X100120166Y-85647500D01*
X99696833Y-85435833D02*
X100585833Y-85435833D01*
X100585833Y-85774500D01*
X100543500Y-85859166D01*
X100501166Y-85901500D01*
X100416500Y-85943833D01*
X100289500Y-85943833D01*
X100204833Y-85901500D01*
X100162500Y-85859166D01*
X100120166Y-85774500D01*
X100120166Y-85435833D01*
X100035500Y-86324833D02*
X100035500Y-87002166D01*
X99696833Y-89443833D02*
X100120166Y-89147500D01*
X99696833Y-88935833D02*
X100585833Y-88935833D01*
X100585833Y-89274500D01*
X100543500Y-89359166D01*
X100501166Y-89401500D01*
X100416500Y-89443833D01*
X100289500Y-89443833D01*
X100204833Y-89401500D01*
X100162500Y-89359166D01*
X100120166Y-89274500D01*
X100120166Y-88935833D01*
X100035500Y-89824833D02*
X100035500Y-90502166D01*
X99696833Y-90163500D02*
X100374166Y-90163500D01*
X100543500Y-92951833D02*
X100585833Y-92867166D01*
X100585833Y-92740166D01*
X100543500Y-92613166D01*
X100458833Y-92528500D01*
X100374166Y-92486166D01*
X100204833Y-92443833D01*
X100077833Y-92443833D01*
X99908500Y-92486166D01*
X99823833Y-92528500D01*
X99739166Y-92613166D01*
X99696833Y-92740166D01*
X99696833Y-92824833D01*
X99739166Y-92951833D01*
X99781500Y-92994166D01*
X100077833Y-92994166D01*
X100077833Y-92824833D01*
X99696833Y-96143833D02*
X99696833Y-95720500D01*
X100585833Y-95720500D01*
X100035500Y-96440166D02*
X100035500Y-97117500D01*
X126901166Y-99494166D02*
X126477833Y-99790500D01*
X126901166Y-100002166D02*
X126012166Y-100002166D01*
X126012166Y-99663500D01*
X126054500Y-99578833D01*
X126096833Y-99536500D01*
X126181500Y-99494166D01*
X126308500Y-99494166D01*
X126393166Y-99536500D01*
X126435500Y-99578833D01*
X126477833Y-99663500D01*
X126477833Y-100002166D01*
X126562500Y-99113166D02*
X126562500Y-98435833D01*
X126901166Y-89294166D02*
X126901166Y-89717500D01*
X126012166Y-89717500D01*
X126562500Y-88997833D02*
X126562500Y-88320500D01*
X126901166Y-85994166D02*
X126901166Y-86417500D01*
X126012166Y-86417500D01*
X126562500Y-85697833D02*
X126562500Y-85020500D01*
X126901166Y-85359166D02*
X126223833Y-85359166D01*
X126901166Y-95994166D02*
X126477833Y-96290500D01*
X126901166Y-96502166D02*
X126012166Y-96502166D01*
X126012166Y-96163500D01*
X126054500Y-96078833D01*
X126096833Y-96036500D01*
X126181500Y-95994166D01*
X126308500Y-95994166D01*
X126393166Y-96036500D01*
X126435500Y-96078833D01*
X126477833Y-96163500D01*
X126477833Y-96502166D01*
X126562500Y-95613166D02*
X126562500Y-94935833D01*
X126901166Y-95274500D02*
X126223833Y-95274500D01*
X126054500Y-92486166D02*
X126012166Y-92570833D01*
X126012166Y-92697833D01*
X126054500Y-92824833D01*
X126139166Y-92909500D01*
X126223833Y-92951833D01*
X126393166Y-92994166D01*
X126520166Y-92994166D01*
X126689500Y-92951833D01*
X126774166Y-92909500D01*
X126858833Y-92824833D01*
X126901166Y-92697833D01*
X126901166Y-92613166D01*
X126858833Y-92486166D01*
X126816500Y-92443833D01*
X126520166Y-92443833D01*
X126520166Y-92613166D01*
X126901166Y-107194166D02*
X126901166Y-107617500D01*
X126012166Y-107617500D01*
X126562500Y-106897833D02*
X126562500Y-106220500D01*
X126901166Y-106559166D02*
X126223833Y-106559166D01*
X126901166Y-120694166D02*
X126477833Y-120990500D01*
X126901166Y-121202166D02*
X126012166Y-121202166D01*
X126012166Y-120863500D01*
X126054500Y-120778833D01*
X126096833Y-120736500D01*
X126181500Y-120694166D01*
X126308500Y-120694166D01*
X126393166Y-120736500D01*
X126435500Y-120778833D01*
X126477833Y-120863500D01*
X126477833Y-121202166D01*
X126562500Y-120313166D02*
X126562500Y-119635833D01*
X126901166Y-117194166D02*
X126477833Y-117490500D01*
X126901166Y-117702166D02*
X126012166Y-117702166D01*
X126012166Y-117363500D01*
X126054500Y-117278833D01*
X126096833Y-117236500D01*
X126181500Y-117194166D01*
X126308500Y-117194166D01*
X126393166Y-117236500D01*
X126435500Y-117278833D01*
X126477833Y-117363500D01*
X126477833Y-117702166D01*
X126562500Y-116813166D02*
X126562500Y-116135833D01*
X126901166Y-116474500D02*
X126223833Y-116474500D01*
X126054500Y-113686166D02*
X126012166Y-113770833D01*
X126012166Y-113897833D01*
X126054500Y-114024833D01*
X126139166Y-114109500D01*
X126223833Y-114151833D01*
X126393166Y-114194166D01*
X126520166Y-114194166D01*
X126689500Y-114151833D01*
X126774166Y-114109500D01*
X126858833Y-114024833D01*
X126901166Y-113897833D01*
X126901166Y-113813166D01*
X126858833Y-113686166D01*
X126816500Y-113643833D01*
X126520166Y-113643833D01*
X126520166Y-113813166D01*
X126901166Y-110494166D02*
X126901166Y-110917500D01*
X126012166Y-110917500D01*
X126562500Y-110197833D02*
X126562500Y-109520500D01*
X99696833Y-120643833D02*
X99696833Y-120220500D01*
X100585833Y-120220500D01*
X100035500Y-120940166D02*
X100035500Y-121617500D01*
X99696833Y-121278833D02*
X100374166Y-121278833D01*
X99696833Y-117343833D02*
X99696833Y-116920500D01*
X100585833Y-116920500D01*
X100035500Y-117640166D02*
X100035500Y-118317500D01*
X100543500Y-114151833D02*
X100585833Y-114067166D01*
X100585833Y-113940166D01*
X100543500Y-113813166D01*
X100458833Y-113728500D01*
X100374166Y-113686166D01*
X100204833Y-113643833D01*
X100077833Y-113643833D01*
X99908500Y-113686166D01*
X99823833Y-113728500D01*
X99739166Y-113813166D01*
X99696833Y-113940166D01*
X99696833Y-114024833D01*
X99739166Y-114151833D01*
X99781500Y-114194166D01*
X100077833Y-114194166D01*
X100077833Y-114024833D01*
X99696833Y-110643833D02*
X100120166Y-110347500D01*
X99696833Y-110135833D02*
X100585833Y-110135833D01*
X100585833Y-110474500D01*
X100543500Y-110559166D01*
X100501166Y-110601500D01*
X100416500Y-110643833D01*
X100289500Y-110643833D01*
X100204833Y-110601500D01*
X100162500Y-110559166D01*
X100120166Y-110474500D01*
X100120166Y-110135833D01*
X100035500Y-111024833D02*
X100035500Y-111702166D01*
X99696833Y-111363500D02*
X100374166Y-111363500D01*
X99696833Y-107143833D02*
X100120166Y-106847500D01*
X99696833Y-106635833D02*
X100585833Y-106635833D01*
X100585833Y-106974500D01*
X100543500Y-107059166D01*
X100501166Y-107101500D01*
X100416500Y-107143833D01*
X100289500Y-107143833D01*
X100204833Y-107101500D01*
X100162500Y-107059166D01*
X100120166Y-106974500D01*
X100120166Y-106635833D01*
X100035500Y-107524833D02*
X100035500Y-108202166D01*
X149696833Y-120643833D02*
X149696833Y-120220500D01*
X150585833Y-120220500D01*
X150035500Y-120940166D02*
X150035500Y-121617500D01*
X149696833Y-121278833D02*
X150374166Y-121278833D01*
X149696833Y-117343833D02*
X149696833Y-116920500D01*
X150585833Y-116920500D01*
X150035500Y-117640166D02*
X150035500Y-118317500D01*
X150543500Y-114151833D02*
X150585833Y-114067166D01*
X150585833Y-113940166D01*
X150543500Y-113813166D01*
X150458833Y-113728500D01*
X150374166Y-113686166D01*
X150204833Y-113643833D01*
X150077833Y-113643833D01*
X149908500Y-113686166D01*
X149823833Y-113728500D01*
X149739166Y-113813166D01*
X149696833Y-113940166D01*
X149696833Y-114024833D01*
X149739166Y-114151833D01*
X149781500Y-114194166D01*
X150077833Y-114194166D01*
X150077833Y-114024833D01*
X149696833Y-110643833D02*
X150120166Y-110347500D01*
X149696833Y-110135833D02*
X150585833Y-110135833D01*
X150585833Y-110474500D01*
X150543500Y-110559166D01*
X150501166Y-110601500D01*
X150416500Y-110643833D01*
X150289500Y-110643833D01*
X150204833Y-110601500D01*
X150162500Y-110559166D01*
X150120166Y-110474500D01*
X150120166Y-110135833D01*
X150035500Y-111024833D02*
X150035500Y-111702166D01*
X149696833Y-111363500D02*
X150374166Y-111363500D01*
X149696833Y-107143833D02*
X150120166Y-106847500D01*
X149696833Y-106635833D02*
X150585833Y-106635833D01*
X150585833Y-106974500D01*
X150543500Y-107059166D01*
X150501166Y-107101500D01*
X150416500Y-107143833D01*
X150289500Y-107143833D01*
X150204833Y-107101500D01*
X150162500Y-107059166D01*
X150120166Y-106974500D01*
X150120166Y-106635833D01*
X150035500Y-107524833D02*
X150035500Y-108202166D01*
D11*
X164972000Y-50406000D02*
X164972000Y-45346000D01*
X164972000Y-45346000D02*
X176692000Y-45346000D01*
X176692000Y-45346000D02*
X176692000Y-46766000D01*
X176692000Y-46766000D02*
X172192000Y-46766000D01*
X172192000Y-46766000D02*
X172192000Y-50406000D01*
X164972000Y-50406000D02*
X164972000Y-55466000D01*
X164972000Y-55466000D02*
X176692000Y-55466000D01*
X176692000Y-55466000D02*
X176692000Y-54046000D01*
X176692000Y-54046000D02*
X172192000Y-54046000D01*
X172192000Y-54046000D02*
X172192000Y-50406000D01*
X171082000Y-47656000D02*
X165582000Y-47656000D01*
X165582000Y-47656000D02*
X165582000Y-48156000D01*
X165582000Y-48156000D02*
X171082000Y-48156000D01*
X171082000Y-48156000D02*
X171082000Y-47656000D01*
X171082000Y-50156000D02*
X165582000Y-50156000D01*
X165582000Y-50156000D02*
X165582000Y-50656000D01*
X165582000Y-50656000D02*
X171082000Y-50656000D01*
X171082000Y-50656000D02*
X171082000Y-50156000D01*
X171082000Y-52656000D02*
X165582000Y-52656000D01*
X165582000Y-52656000D02*
X165582000Y-53156000D01*
X165582000Y-53156000D02*
X171082000Y-53156000D01*
X171082000Y-53156000D02*
X171082000Y-52656000D01*
X175782000Y-47906000D02*
X176382000Y-47606000D01*
X176382000Y-47606000D02*
X176382000Y-48206000D01*
X176382000Y-48206000D02*
X175782000Y-47906000D01*
X151913000Y-52559000D02*
X152513000Y-52859000D01*
X151913000Y-53159000D02*
X151913000Y-52559000D01*
X152513000Y-52859000D02*
X151913000Y-53159000D01*
X157213000Y-47609000D02*
X157213000Y-48109000D01*
X162713000Y-47609000D02*
X157213000Y-47609000D01*
X162713000Y-48109000D02*
X162713000Y-47609000D01*
X157213000Y-48109000D02*
X162713000Y-48109000D01*
X157213000Y-50109000D02*
X157213000Y-50609000D01*
X162713000Y-50109000D02*
X157213000Y-50109000D01*
X162713000Y-50609000D02*
X162713000Y-50109000D01*
X157213000Y-50609000D02*
X162713000Y-50609000D01*
X157213000Y-52609000D02*
X157213000Y-53109000D01*
X162713000Y-52609000D02*
X157213000Y-52609000D01*
X162713000Y-53109000D02*
X162713000Y-52609000D01*
X157213000Y-53109000D02*
X162713000Y-53109000D01*
X156103000Y-46719000D02*
X156103000Y-50359000D01*
X151603000Y-46719000D02*
X156103000Y-46719000D01*
X151603000Y-45299000D02*
X151603000Y-46719000D01*
X163323000Y-45299000D02*
X151603000Y-45299000D01*
X163323000Y-50359000D02*
X163323000Y-45299000D01*
X156103000Y-53999000D02*
X156103000Y-50359000D01*
X151603000Y-53999000D02*
X156103000Y-53999000D01*
X151603000Y-55419000D02*
X151603000Y-53999000D01*
X163323000Y-55419000D02*
X151603000Y-55419000D01*
X163323000Y-50359000D02*
X163323000Y-55419000D01*
X176382000Y-69406000D02*
X175782000Y-69106000D01*
X176382000Y-68806000D02*
X176382000Y-69406000D01*
X175782000Y-69106000D02*
X176382000Y-68806000D01*
X171082000Y-74356000D02*
X171082000Y-73856000D01*
X165582000Y-74356000D02*
X171082000Y-74356000D01*
X165582000Y-73856000D02*
X165582000Y-74356000D01*
X171082000Y-73856000D02*
X165582000Y-73856000D01*
X171082000Y-71856000D02*
X171082000Y-71356000D01*
X165582000Y-71856000D02*
X171082000Y-71856000D01*
X165582000Y-71356000D02*
X165582000Y-71856000D01*
X171082000Y-71356000D02*
X165582000Y-71356000D01*
X171082000Y-69356000D02*
X171082000Y-68856000D01*
X165582000Y-69356000D02*
X171082000Y-69356000D01*
X165582000Y-68856000D02*
X165582000Y-69356000D01*
X171082000Y-68856000D02*
X165582000Y-68856000D01*
X172192000Y-75246000D02*
X172192000Y-71606000D01*
X176692000Y-75246000D02*
X172192000Y-75246000D01*
X176692000Y-76666000D02*
X176692000Y-75246000D01*
X164972000Y-76666000D02*
X176692000Y-76666000D01*
X164972000Y-71606000D02*
X164972000Y-76666000D01*
X172192000Y-67966000D02*
X172192000Y-71606000D01*
X176692000Y-67966000D02*
X172192000Y-67966000D01*
X176692000Y-66546000D02*
X176692000Y-67966000D01*
X164972000Y-66546000D02*
X176692000Y-66546000D01*
X164972000Y-71606000D02*
X164972000Y-66546000D01*
X163323000Y-71559000D02*
X163323000Y-76619000D01*
X163323000Y-76619000D02*
X151603000Y-76619000D01*
X151603000Y-76619000D02*
X151603000Y-75199000D01*
X151603000Y-75199000D02*
X156103000Y-75199000D01*
X156103000Y-75199000D02*
X156103000Y-71559000D01*
X163323000Y-71559000D02*
X163323000Y-66499000D01*
X163323000Y-66499000D02*
X151603000Y-66499000D01*
X151603000Y-66499000D02*
X151603000Y-67919000D01*
X151603000Y-67919000D02*
X156103000Y-67919000D01*
X156103000Y-67919000D02*
X156103000Y-71559000D01*
X157213000Y-74309000D02*
X162713000Y-74309000D01*
X162713000Y-74309000D02*
X162713000Y-73809000D01*
X162713000Y-73809000D02*
X157213000Y-73809000D01*
X157213000Y-73809000D02*
X157213000Y-74309000D01*
X157213000Y-71809000D02*
X162713000Y-71809000D01*
X162713000Y-71809000D02*
X162713000Y-71309000D01*
X162713000Y-71309000D02*
X157213000Y-71309000D01*
X157213000Y-71309000D02*
X157213000Y-71809000D01*
X157213000Y-69309000D02*
X162713000Y-69309000D01*
X162713000Y-69309000D02*
X162713000Y-68809000D01*
X162713000Y-68809000D02*
X157213000Y-68809000D01*
X157213000Y-68809000D02*
X157213000Y-69309000D01*
X152513000Y-74059000D02*
X151913000Y-74359000D01*
X151913000Y-74359000D02*
X151913000Y-73759000D01*
X151913000Y-73759000D02*
X152513000Y-74059000D01*
X164972000Y-92806000D02*
X164972000Y-87746000D01*
X164972000Y-87746000D02*
X176692000Y-87746000D01*
X176692000Y-87746000D02*
X176692000Y-89166000D01*
X176692000Y-89166000D02*
X172192000Y-89166000D01*
X172192000Y-89166000D02*
X172192000Y-92806000D01*
X164972000Y-92806000D02*
X164972000Y-97866000D01*
X164972000Y-97866000D02*
X176692000Y-97866000D01*
X176692000Y-97866000D02*
X176692000Y-96446000D01*
X176692000Y-96446000D02*
X172192000Y-96446000D01*
X172192000Y-96446000D02*
X172192000Y-92806000D01*
X171082000Y-90056000D02*
X165582000Y-90056000D01*
X165582000Y-90056000D02*
X165582000Y-90556000D01*
X165582000Y-90556000D02*
X171082000Y-90556000D01*
X171082000Y-90556000D02*
X171082000Y-90056000D01*
X171082000Y-92556000D02*
X165582000Y-92556000D01*
X165582000Y-92556000D02*
X165582000Y-93056000D01*
X165582000Y-93056000D02*
X171082000Y-93056000D01*
X171082000Y-93056000D02*
X171082000Y-92556000D01*
X171082000Y-95056000D02*
X165582000Y-95056000D01*
X165582000Y-95056000D02*
X165582000Y-95556000D01*
X165582000Y-95556000D02*
X171082000Y-95556000D01*
X171082000Y-95556000D02*
X171082000Y-95056000D01*
X175782000Y-90306000D02*
X176382000Y-90006000D01*
X176382000Y-90006000D02*
X176382000Y-90606000D01*
X176382000Y-90606000D02*
X175782000Y-90306000D01*
X151913000Y-94959000D02*
X152513000Y-95259000D01*
X151913000Y-95559000D02*
X151913000Y-94959000D01*
X152513000Y-95259000D02*
X151913000Y-95559000D01*
X157213000Y-90009000D02*
X157213000Y-90509000D01*
X162713000Y-90009000D02*
X157213000Y-90009000D01*
X162713000Y-90509000D02*
X162713000Y-90009000D01*
X157213000Y-90509000D02*
X162713000Y-90509000D01*
X157213000Y-92509000D02*
X157213000Y-93009000D01*
X162713000Y-92509000D02*
X157213000Y-92509000D01*
X162713000Y-93009000D02*
X162713000Y-92509000D01*
X157213000Y-93009000D02*
X162713000Y-93009000D01*
X157213000Y-95009000D02*
X157213000Y-95509000D01*
X162713000Y-95009000D02*
X157213000Y-95009000D01*
X162713000Y-95509000D02*
X162713000Y-95009000D01*
X157213000Y-95509000D02*
X162713000Y-95509000D01*
X156103000Y-89119000D02*
X156103000Y-92759000D01*
X151603000Y-89119000D02*
X156103000Y-89119000D01*
X151603000Y-87699000D02*
X151603000Y-89119000D01*
X163323000Y-87699000D02*
X151603000Y-87699000D01*
X163323000Y-92759000D02*
X163323000Y-87699000D01*
X156103000Y-96399000D02*
X156103000Y-92759000D01*
X151603000Y-96399000D02*
X156103000Y-96399000D01*
X151603000Y-97819000D02*
X151603000Y-96399000D01*
X163323000Y-97819000D02*
X151603000Y-97819000D01*
X163323000Y-92759000D02*
X163323000Y-97819000D01*
X176382000Y-111806000D02*
X175782000Y-111506000D01*
X176382000Y-111206000D02*
X176382000Y-111806000D01*
X175782000Y-111506000D02*
X176382000Y-111206000D01*
X171082000Y-116756000D02*
X171082000Y-116256000D01*
X165582000Y-116756000D02*
X171082000Y-116756000D01*
X165582000Y-116256000D02*
X165582000Y-116756000D01*
X171082000Y-116256000D02*
X165582000Y-116256000D01*
X171082000Y-114256000D02*
X171082000Y-113756000D01*
X165582000Y-114256000D02*
X171082000Y-114256000D01*
X165582000Y-113756000D02*
X165582000Y-114256000D01*
X171082000Y-113756000D02*
X165582000Y-113756000D01*
X171082000Y-111756000D02*
X171082000Y-111256000D01*
X165582000Y-111756000D02*
X171082000Y-111756000D01*
X165582000Y-111256000D02*
X165582000Y-111756000D01*
X171082000Y-111256000D02*
X165582000Y-111256000D01*
X172192000Y-117646000D02*
X172192000Y-114006000D01*
X176692000Y-117646000D02*
X172192000Y-117646000D01*
X176692000Y-119066000D02*
X176692000Y-117646000D01*
X164972000Y-119066000D02*
X176692000Y-119066000D01*
X164972000Y-114006000D02*
X164972000Y-119066000D01*
X172192000Y-110366000D02*
X172192000Y-114006000D01*
X176692000Y-110366000D02*
X172192000Y-110366000D01*
X176692000Y-108946000D02*
X176692000Y-110366000D01*
X164972000Y-108946000D02*
X176692000Y-108946000D01*
X164972000Y-114006000D02*
X164972000Y-108946000D01*
X113275000Y-50279000D02*
X113275000Y-45219000D01*
X113275000Y-45219000D02*
X124995000Y-45219000D01*
X124995000Y-45219000D02*
X124995000Y-46639000D01*
X124995000Y-46639000D02*
X120495000Y-46639000D01*
X120495000Y-46639000D02*
X120495000Y-50279000D01*
X113275000Y-50279000D02*
X113275000Y-55339000D01*
X113275000Y-55339000D02*
X124995000Y-55339000D01*
X124995000Y-55339000D02*
X124995000Y-53919000D01*
X124995000Y-53919000D02*
X120495000Y-53919000D01*
X120495000Y-53919000D02*
X120495000Y-50279000D01*
X119385000Y-47529000D02*
X113885000Y-47529000D01*
X113885000Y-47529000D02*
X113885000Y-48029000D01*
X113885000Y-48029000D02*
X119385000Y-48029000D01*
X119385000Y-48029000D02*
X119385000Y-47529000D01*
X119385000Y-50029000D02*
X113885000Y-50029000D01*
X113885000Y-50029000D02*
X113885000Y-50529000D01*
X113885000Y-50529000D02*
X119385000Y-50529000D01*
X119385000Y-50529000D02*
X119385000Y-50029000D01*
X119385000Y-52529000D02*
X113885000Y-52529000D01*
X113885000Y-52529000D02*
X113885000Y-53029000D01*
X113885000Y-53029000D02*
X119385000Y-53029000D01*
X119385000Y-53029000D02*
X119385000Y-52529000D01*
X124085000Y-47779000D02*
X124685000Y-47479000D01*
X124685000Y-47479000D02*
X124685000Y-48079000D01*
X124685000Y-48079000D02*
X124085000Y-47779000D01*
X101913000Y-52559000D02*
X102513000Y-52859000D01*
X101913000Y-53159000D02*
X101913000Y-52559000D01*
X102513000Y-52859000D02*
X101913000Y-53159000D01*
X107213000Y-47609000D02*
X107213000Y-48109000D01*
X112713000Y-47609000D02*
X107213000Y-47609000D01*
X112713000Y-48109000D02*
X112713000Y-47609000D01*
X107213000Y-48109000D02*
X112713000Y-48109000D01*
X107213000Y-50109000D02*
X107213000Y-50609000D01*
X112713000Y-50109000D02*
X107213000Y-50109000D01*
X112713000Y-50609000D02*
X112713000Y-50109000D01*
X107213000Y-50609000D02*
X112713000Y-50609000D01*
X107213000Y-52609000D02*
X107213000Y-53109000D01*
X112713000Y-52609000D02*
X107213000Y-52609000D01*
X112713000Y-53109000D02*
X112713000Y-52609000D01*
X107213000Y-53109000D02*
X112713000Y-53109000D01*
X106103000Y-46719000D02*
X106103000Y-50359000D01*
X101603000Y-46719000D02*
X106103000Y-46719000D01*
X101603000Y-45299000D02*
X101603000Y-46719000D01*
X113323000Y-45299000D02*
X101603000Y-45299000D01*
X113323000Y-50359000D02*
X113323000Y-45299000D01*
X106103000Y-53999000D02*
X106103000Y-50359000D01*
X101603000Y-53999000D02*
X106103000Y-53999000D01*
X101603000Y-55419000D02*
X101603000Y-53999000D01*
X113323000Y-55419000D02*
X101603000Y-55419000D01*
X113323000Y-50359000D02*
X113323000Y-55419000D01*
X124685000Y-69279000D02*
X124085000Y-68979000D01*
X124685000Y-68679000D02*
X124685000Y-69279000D01*
X124085000Y-68979000D02*
X124685000Y-68679000D01*
X119385000Y-74229000D02*
X119385000Y-73729000D01*
X113885000Y-74229000D02*
X119385000Y-74229000D01*
X113885000Y-73729000D02*
X113885000Y-74229000D01*
X119385000Y-73729000D02*
X113885000Y-73729000D01*
X119385000Y-71729000D02*
X119385000Y-71229000D01*
X113885000Y-71729000D02*
X119385000Y-71729000D01*
X113885000Y-71229000D02*
X113885000Y-71729000D01*
X119385000Y-71229000D02*
X113885000Y-71229000D01*
X119385000Y-69229000D02*
X119385000Y-68729000D01*
X113885000Y-69229000D02*
X119385000Y-69229000D01*
X113885000Y-68729000D02*
X113885000Y-69229000D01*
X119385000Y-68729000D02*
X113885000Y-68729000D01*
X120495000Y-75119000D02*
X120495000Y-71479000D01*
X124995000Y-75119000D02*
X120495000Y-75119000D01*
X124995000Y-76539000D02*
X124995000Y-75119000D01*
X113275000Y-76539000D02*
X124995000Y-76539000D01*
X113275000Y-71479000D02*
X113275000Y-76539000D01*
X120495000Y-67839000D02*
X120495000Y-71479000D01*
X124995000Y-67839000D02*
X120495000Y-67839000D01*
X124995000Y-66419000D02*
X124995000Y-67839000D01*
X113275000Y-66419000D02*
X124995000Y-66419000D01*
X113275000Y-71479000D02*
X113275000Y-66419000D01*
X113323000Y-71559000D02*
X113323000Y-76619000D01*
X113323000Y-76619000D02*
X101603000Y-76619000D01*
X101603000Y-76619000D02*
X101603000Y-75199000D01*
X101603000Y-75199000D02*
X106103000Y-75199000D01*
X106103000Y-75199000D02*
X106103000Y-71559000D01*
X113323000Y-71559000D02*
X113323000Y-66499000D01*
X113323000Y-66499000D02*
X101603000Y-66499000D01*
X101603000Y-66499000D02*
X101603000Y-67919000D01*
X101603000Y-67919000D02*
X106103000Y-67919000D01*
X106103000Y-67919000D02*
X106103000Y-71559000D01*
X107213000Y-74309000D02*
X112713000Y-74309000D01*
X112713000Y-74309000D02*
X112713000Y-73809000D01*
X112713000Y-73809000D02*
X107213000Y-73809000D01*
X107213000Y-73809000D02*
X107213000Y-74309000D01*
X107213000Y-71809000D02*
X112713000Y-71809000D01*
X112713000Y-71809000D02*
X112713000Y-71309000D01*
X112713000Y-71309000D02*
X107213000Y-71309000D01*
X107213000Y-71309000D02*
X107213000Y-71809000D01*
X107213000Y-69309000D02*
X112713000Y-69309000D01*
X112713000Y-69309000D02*
X112713000Y-68809000D01*
X112713000Y-68809000D02*
X107213000Y-68809000D01*
X107213000Y-68809000D02*
X107213000Y-69309000D01*
X102513000Y-74059000D02*
X101913000Y-74359000D01*
X101913000Y-74359000D02*
X101913000Y-73759000D01*
X101913000Y-73759000D02*
X102513000Y-74059000D01*
X113275000Y-92679000D02*
X113275000Y-87619000D01*
X113275000Y-87619000D02*
X124995000Y-87619000D01*
X124995000Y-87619000D02*
X124995000Y-89039000D01*
X124995000Y-89039000D02*
X120495000Y-89039000D01*
X120495000Y-89039000D02*
X120495000Y-92679000D01*
X113275000Y-92679000D02*
X113275000Y-97739000D01*
X113275000Y-97739000D02*
X124995000Y-97739000D01*
X124995000Y-97739000D02*
X124995000Y-96319000D01*
X124995000Y-96319000D02*
X120495000Y-96319000D01*
X120495000Y-96319000D02*
X120495000Y-92679000D01*
X119385000Y-89929000D02*
X113885000Y-89929000D01*
X113885000Y-89929000D02*
X113885000Y-90429000D01*
X113885000Y-90429000D02*
X119385000Y-90429000D01*
X119385000Y-90429000D02*
X119385000Y-89929000D01*
X119385000Y-92429000D02*
X113885000Y-92429000D01*
X113885000Y-92429000D02*
X113885000Y-92929000D01*
X113885000Y-92929000D02*
X119385000Y-92929000D01*
X119385000Y-92929000D02*
X119385000Y-92429000D01*
X119385000Y-94929000D02*
X113885000Y-94929000D01*
X113885000Y-94929000D02*
X113885000Y-95429000D01*
X113885000Y-95429000D02*
X119385000Y-95429000D01*
X119385000Y-95429000D02*
X119385000Y-94929000D01*
X124085000Y-90179000D02*
X124685000Y-89879000D01*
X124685000Y-89879000D02*
X124685000Y-90479000D01*
X124685000Y-90479000D02*
X124085000Y-90179000D01*
X101913000Y-94959000D02*
X102513000Y-95259000D01*
X101913000Y-95559000D02*
X101913000Y-94959000D01*
X102513000Y-95259000D02*
X101913000Y-95559000D01*
X107213000Y-90009000D02*
X107213000Y-90509000D01*
X112713000Y-90009000D02*
X107213000Y-90009000D01*
X112713000Y-90509000D02*
X112713000Y-90009000D01*
X107213000Y-90509000D02*
X112713000Y-90509000D01*
X107213000Y-92509000D02*
X107213000Y-93009000D01*
X112713000Y-92509000D02*
X107213000Y-92509000D01*
X112713000Y-93009000D02*
X112713000Y-92509000D01*
X107213000Y-93009000D02*
X112713000Y-93009000D01*
X107213000Y-95009000D02*
X107213000Y-95509000D01*
X112713000Y-95009000D02*
X107213000Y-95009000D01*
X112713000Y-95509000D02*
X112713000Y-95009000D01*
X107213000Y-95509000D02*
X112713000Y-95509000D01*
X106103000Y-89119000D02*
X106103000Y-92759000D01*
X101603000Y-89119000D02*
X106103000Y-89119000D01*
X101603000Y-87699000D02*
X101603000Y-89119000D01*
X113323000Y-87699000D02*
X101603000Y-87699000D01*
X113323000Y-92759000D02*
X113323000Y-87699000D01*
X106103000Y-96399000D02*
X106103000Y-92759000D01*
X101603000Y-96399000D02*
X106103000Y-96399000D01*
X101603000Y-97819000D02*
X101603000Y-96399000D01*
X113323000Y-97819000D02*
X101603000Y-97819000D01*
X113323000Y-92759000D02*
X113323000Y-97819000D01*
X124685000Y-111679000D02*
X124085000Y-111379000D01*
X124685000Y-111079000D02*
X124685000Y-111679000D01*
X124085000Y-111379000D02*
X124685000Y-111079000D01*
X119385000Y-116629000D02*
X119385000Y-116129000D01*
X113885000Y-116629000D02*
X119385000Y-116629000D01*
X113885000Y-116129000D02*
X113885000Y-116629000D01*
X119385000Y-116129000D02*
X113885000Y-116129000D01*
X119385000Y-114129000D02*
X119385000Y-113629000D01*
X113885000Y-114129000D02*
X119385000Y-114129000D01*
X113885000Y-113629000D02*
X113885000Y-114129000D01*
X119385000Y-113629000D02*
X113885000Y-113629000D01*
X119385000Y-111629000D02*
X119385000Y-111129000D01*
X113885000Y-111629000D02*
X119385000Y-111629000D01*
X113885000Y-111129000D02*
X113885000Y-111629000D01*
X119385000Y-111129000D02*
X113885000Y-111129000D01*
X120495000Y-117519000D02*
X120495000Y-113879000D01*
X124995000Y-117519000D02*
X120495000Y-117519000D01*
X124995000Y-118939000D02*
X124995000Y-117519000D01*
X113275000Y-118939000D02*
X124995000Y-118939000D01*
X113275000Y-113879000D02*
X113275000Y-118939000D01*
X120495000Y-110239000D02*
X120495000Y-113879000D01*
X124995000Y-110239000D02*
X120495000Y-110239000D01*
X124995000Y-108819000D02*
X124995000Y-110239000D01*
X113275000Y-108819000D02*
X124995000Y-108819000D01*
X113275000Y-113879000D02*
X113275000Y-108819000D01*
X113323000Y-113959000D02*
X113323000Y-119019000D01*
X113323000Y-119019000D02*
X101603000Y-119019000D01*
X101603000Y-119019000D02*
X101603000Y-117599000D01*
X101603000Y-117599000D02*
X106103000Y-117599000D01*
X106103000Y-117599000D02*
X106103000Y-113959000D01*
X113323000Y-113959000D02*
X113323000Y-108899000D01*
X113323000Y-108899000D02*
X101603000Y-108899000D01*
X101603000Y-108899000D02*
X101603000Y-110319000D01*
X101603000Y-110319000D02*
X106103000Y-110319000D01*
X106103000Y-110319000D02*
X106103000Y-113959000D01*
X107213000Y-116709000D02*
X112713000Y-116709000D01*
X112713000Y-116709000D02*
X112713000Y-116209000D01*
X112713000Y-116209000D02*
X107213000Y-116209000D01*
X107213000Y-116209000D02*
X107213000Y-116709000D01*
X107213000Y-114209000D02*
X112713000Y-114209000D01*
X112713000Y-114209000D02*
X112713000Y-113709000D01*
X112713000Y-113709000D02*
X107213000Y-113709000D01*
X107213000Y-113709000D02*
X107213000Y-114209000D01*
X107213000Y-111709000D02*
X112713000Y-111709000D01*
X112713000Y-111709000D02*
X112713000Y-111209000D01*
X112713000Y-111209000D02*
X107213000Y-111209000D01*
X107213000Y-111209000D02*
X107213000Y-111709000D01*
X102513000Y-116459000D02*
X101913000Y-116759000D01*
X101913000Y-116759000D02*
X101913000Y-116159000D01*
X101913000Y-116159000D02*
X102513000Y-116459000D01*
X163323000Y-113959000D02*
X163323000Y-119019000D01*
X163323000Y-119019000D02*
X151603000Y-119019000D01*
X151603000Y-119019000D02*
X151603000Y-117599000D01*
X151603000Y-117599000D02*
X156103000Y-117599000D01*
X156103000Y-117599000D02*
X156103000Y-113959000D01*
X163323000Y-113959000D02*
X163323000Y-108899000D01*
X163323000Y-108899000D02*
X151603000Y-108899000D01*
X151603000Y-108899000D02*
X151603000Y-110319000D01*
X151603000Y-110319000D02*
X156103000Y-110319000D01*
X156103000Y-110319000D02*
X156103000Y-113959000D01*
X157213000Y-116709000D02*
X162713000Y-116709000D01*
X162713000Y-116709000D02*
X162713000Y-116209000D01*
X162713000Y-116209000D02*
X157213000Y-116209000D01*
X157213000Y-116209000D02*
X157213000Y-116709000D01*
X157213000Y-114209000D02*
X162713000Y-114209000D01*
X162713000Y-114209000D02*
X162713000Y-113709000D01*
X162713000Y-113709000D02*
X157213000Y-113709000D01*
X157213000Y-113709000D02*
X157213000Y-114209000D01*
X157213000Y-111709000D02*
X162713000Y-111709000D01*
X162713000Y-111709000D02*
X162713000Y-111209000D01*
X162713000Y-111209000D02*
X157213000Y-111209000D01*
X157213000Y-111209000D02*
X157213000Y-111709000D01*
X152513000Y-116459000D02*
X151913000Y-116759000D01*
X151913000Y-116759000D02*
X151913000Y-116159000D01*
X151913000Y-116159000D02*
X152513000Y-116459000D01*
M02*
