G04 #@! TF.GenerationSoftware,KiCad,Pcbnew,(5.1.0)-1*
G04 #@! TF.CreationDate,2019-06-08T19:04:16-04:00*
G04 #@! TF.ProjectId,input+output_panel,696e7075-742b-46f7-9574-7075745f7061,0.1*
G04 #@! TF.SameCoordinates,Original*
G04 #@! TF.FileFunction,Profile,NP*
%FSLAX46Y46*%
G04 Gerber Fmt 4.6, Leading zero omitted, Abs format (unit mm)*
G04 Created by KiCad (PCBNEW (5.1.0)-1) date 2019-06-08 19:04:16*
%MOMM*%
%LPD*%
G04 APERTURE LIST*
%ADD10C,0.150000*%
G04 APERTURE END LIST*
D10*
X163299000Y-32219000D02*
X163299000Y-42219000D01*
X113299000Y-32219000D02*
X113299000Y-42219000D01*
X113299000Y-122019000D02*
X113299000Y-132019000D01*
X163299000Y-122019000D02*
X163299000Y-132019000D01*
X177299000Y-63419000D02*
X177299000Y-58419000D01*
X163299000Y-58419000D02*
X163299000Y-63419000D01*
X149299000Y-63419000D02*
X149299000Y-58419000D01*
X177299000Y-84619000D02*
X177299000Y-79619000D01*
X163299000Y-79619000D02*
X163299000Y-84619000D01*
X149299000Y-84619000D02*
X149299000Y-79619000D01*
X177299000Y-105819000D02*
X177299000Y-100819000D01*
X163299000Y-100819000D02*
X163299000Y-105819000D01*
X149299000Y-105819000D02*
X149299000Y-100819000D01*
X127299000Y-127019000D02*
X149299000Y-127019000D01*
X99299000Y-132019000D02*
X99299000Y-122019000D01*
X174799000Y-132019000D02*
X101799000Y-132019000D01*
X177299000Y-132019000D02*
X177299000Y-122019000D01*
X174799000Y-132019000D02*
X177299000Y-132019000D01*
X101799000Y-132019000D02*
X99299000Y-132019000D01*
X149299000Y-127019000D02*
X149299000Y-122019000D01*
X174799000Y-127019000D02*
X151799000Y-127019000D01*
X127299000Y-122019000D02*
X127299000Y-127019000D01*
X124799000Y-127019000D02*
X101799000Y-127019000D01*
X127299000Y-100819000D02*
X127299000Y-105819000D01*
X113299000Y-105819000D02*
X113299000Y-100819000D01*
X99299000Y-100819000D02*
X99299000Y-105819000D01*
X127299000Y-79619000D02*
X127299000Y-84619000D01*
X113299000Y-84619000D02*
X113299000Y-79619000D01*
X99299000Y-79619000D02*
X99299000Y-84619000D01*
X127299000Y-58419000D02*
X127299000Y-63419000D01*
X113299000Y-63419000D02*
X113299000Y-58419000D01*
X99299000Y-58419000D02*
X99299000Y-63419000D01*
X149299000Y-32219000D02*
X127299000Y-32219000D01*
X174792000Y-32211000D02*
X151799000Y-32219000D01*
X177299000Y-37219000D02*
X177292000Y-32211000D01*
X177299000Y-37219000D02*
X177299000Y-42219000D01*
X151799000Y-37219000D02*
X174799000Y-37219000D01*
X149299000Y-42219000D02*
X149299000Y-37219000D01*
X127299000Y-37219000D02*
X149299000Y-37219000D01*
X127299000Y-42219000D02*
X127299000Y-37219000D01*
X124799000Y-32219000D02*
X101799000Y-32211000D01*
X101799000Y-37219000D02*
X124799000Y-37219000D01*
X99299000Y-42219000D02*
X99299000Y-32211000D01*
X174799000Y-127019000D02*
X177299000Y-127019000D01*
X151799000Y-127019000D02*
X149299000Y-127019000D01*
X124799000Y-127019000D02*
X127299000Y-127019000D01*
X101799000Y-127019000D02*
X99299000Y-127019000D01*
X174792000Y-32211000D02*
X177292000Y-32211000D01*
X151799000Y-32219000D02*
X149299000Y-32219000D01*
X124799000Y-32219000D02*
X127299000Y-32219000D01*
X101799000Y-32211000D02*
X99299000Y-32211000D01*
X174799000Y-37219000D02*
X177299000Y-37219000D01*
X151799000Y-37219000D02*
X149299000Y-37219000D01*
X124799000Y-37219000D02*
X127299000Y-37219000D01*
X101799000Y-37219000D02*
X99299000Y-37219000D01*
X177299000Y-56719000D02*
X177299000Y-54419000D01*
X143299000Y-54419000D02*
X149299000Y-54419000D01*
X143299000Y-49719000D02*
X143299000Y-50919000D01*
X149299000Y-53219000D02*
X143299000Y-53219000D01*
X143299000Y-57919000D02*
X149299000Y-57919000D01*
X149299000Y-56719000D02*
X143299000Y-56719000D01*
X143299000Y-42719000D02*
X143299000Y-43919000D01*
X143299000Y-56719000D02*
X143299000Y-57919000D01*
X143299000Y-43919000D02*
X149299000Y-43919000D01*
X177299000Y-57919000D02*
X183299000Y-57919000D01*
X149299000Y-43919000D02*
X149299000Y-46219000D01*
X149299000Y-50919000D02*
X149299000Y-53219000D01*
X149299000Y-54419000D02*
X149299000Y-56719000D01*
X149299000Y-47419000D02*
X149299000Y-49719000D01*
X143299000Y-53219000D02*
X143299000Y-54419000D01*
X149299000Y-57919000D02*
X149299000Y-58419000D01*
X149299000Y-42219000D02*
X149299000Y-42719000D01*
X149299000Y-49719000D02*
X143299000Y-49719000D01*
X163299000Y-42219000D02*
X169299000Y-42219000D01*
X151799000Y-42219000D02*
X149299000Y-42219000D01*
X183299000Y-47419000D02*
X183299000Y-46219000D01*
X143299000Y-47419000D02*
X149299000Y-47419000D01*
X163299000Y-58419000D02*
X169299000Y-58419000D01*
X183299000Y-46219000D02*
X177299000Y-46219000D01*
X177299000Y-46219000D02*
X177299000Y-43919000D01*
X177299000Y-49719000D02*
X177299000Y-47419000D01*
X163299000Y-58419000D02*
X163299000Y-42219000D01*
X157299000Y-58419000D02*
X151799000Y-58419000D01*
X177299000Y-50919000D02*
X183299000Y-50919000D01*
X177299000Y-42719000D02*
X177299000Y-42219000D01*
X163299000Y-58419000D02*
X157299000Y-58419000D01*
X143299000Y-50919000D02*
X149299000Y-50919000D01*
X169299000Y-58419000D02*
X174799000Y-58419000D01*
X183299000Y-56719000D02*
X177299000Y-56719000D01*
X177299000Y-47419000D02*
X183299000Y-47419000D01*
X149299000Y-42719000D02*
X143299000Y-42719000D01*
X183299000Y-50919000D02*
X183299000Y-49719000D01*
X157299000Y-42219000D02*
X151799000Y-42219000D01*
X183299000Y-54419000D02*
X183299000Y-53219000D01*
X177299000Y-58419000D02*
X177299000Y-57919000D01*
X143299000Y-46219000D02*
X143299000Y-47419000D01*
X163299000Y-42219000D02*
X157299000Y-42219000D01*
X183299000Y-57919000D02*
X183299000Y-56719000D01*
X163299000Y-42219000D02*
X163299000Y-58419000D01*
X183299000Y-53219000D02*
X177299000Y-53219000D01*
X183299000Y-49719000D02*
X177299000Y-49719000D01*
X174799000Y-42219000D02*
X177299000Y-42219000D01*
X169299000Y-42219000D02*
X174799000Y-42219000D01*
X174799000Y-58419000D02*
X177299000Y-58419000D01*
X183299000Y-43919000D02*
X183299000Y-42719000D01*
X183299000Y-42719000D02*
X177299000Y-42719000D01*
X177299000Y-43919000D02*
X183299000Y-43919000D01*
X177299000Y-54419000D02*
X183299000Y-54419000D01*
X177299000Y-53219000D02*
X177299000Y-50919000D01*
X149299000Y-46219000D02*
X143299000Y-46219000D01*
X151799000Y-58419000D02*
X149299000Y-58419000D01*
X143299000Y-77919000D02*
X143299000Y-79119000D01*
X143299000Y-75619000D02*
X149299000Y-75619000D01*
X143299000Y-70919000D02*
X143299000Y-72119000D01*
X149299000Y-65119000D02*
X149299000Y-67419000D01*
X143299000Y-63919000D02*
X143299000Y-65119000D01*
X149299000Y-79119000D02*
X149299000Y-79619000D01*
X149299000Y-68619000D02*
X149299000Y-70919000D01*
X143299000Y-65119000D02*
X149299000Y-65119000D01*
X149299000Y-74419000D02*
X143299000Y-74419000D01*
X149299000Y-72119000D02*
X149299000Y-74419000D01*
X143299000Y-79119000D02*
X149299000Y-79119000D01*
X149299000Y-75619000D02*
X149299000Y-77919000D01*
X149299000Y-77919000D02*
X143299000Y-77919000D01*
X149299000Y-63419000D02*
X149299000Y-63919000D01*
X143299000Y-74419000D02*
X143299000Y-75619000D01*
X177299000Y-79119000D02*
X183299000Y-79119000D01*
X177299000Y-77919000D02*
X177299000Y-75619000D01*
X183299000Y-77919000D02*
X177299000Y-77919000D01*
X177299000Y-68619000D02*
X183299000Y-68619000D01*
X149299000Y-63919000D02*
X143299000Y-63919000D01*
X169299000Y-63419000D02*
X174799000Y-63419000D01*
X174799000Y-79619000D02*
X177299000Y-79619000D01*
X183299000Y-65119000D02*
X183299000Y-63919000D01*
X183299000Y-63919000D02*
X177299000Y-63919000D01*
X177299000Y-65119000D02*
X183299000Y-65119000D01*
X143299000Y-72119000D02*
X149299000Y-72119000D01*
X177299000Y-75619000D02*
X183299000Y-75619000D01*
X151799000Y-79619000D02*
X149299000Y-79619000D01*
X149299000Y-70919000D02*
X143299000Y-70919000D01*
X163299000Y-63419000D02*
X169299000Y-63419000D01*
X183299000Y-67419000D02*
X177299000Y-67419000D01*
X183299000Y-72119000D02*
X183299000Y-70919000D01*
X149299000Y-67419000D02*
X143299000Y-67419000D01*
X183299000Y-68619000D02*
X183299000Y-67419000D01*
X157299000Y-63419000D02*
X151799000Y-63419000D01*
X177299000Y-67419000D02*
X177299000Y-65119000D01*
X151799000Y-63419000D02*
X149299000Y-63419000D01*
X169299000Y-79619000D02*
X174799000Y-79619000D01*
X183299000Y-75619000D02*
X183299000Y-74419000D01*
X174799000Y-63419000D02*
X177299000Y-63419000D01*
X183299000Y-79119000D02*
X183299000Y-77919000D01*
X177299000Y-79619000D02*
X177299000Y-79119000D01*
X177299000Y-70919000D02*
X177299000Y-68619000D01*
X163299000Y-79619000D02*
X163299000Y-63419000D01*
X183299000Y-70919000D02*
X177299000Y-70919000D01*
X163299000Y-63419000D02*
X163299000Y-79619000D01*
X143299000Y-68619000D02*
X149299000Y-68619000D01*
X177299000Y-74419000D02*
X177299000Y-72119000D01*
X143299000Y-67419000D02*
X143299000Y-68619000D01*
X163299000Y-79619000D02*
X169299000Y-79619000D01*
X163299000Y-63419000D02*
X157299000Y-63419000D01*
X163299000Y-79619000D02*
X157299000Y-79619000D01*
X177299000Y-72119000D02*
X183299000Y-72119000D01*
X157299000Y-79619000D02*
X151799000Y-79619000D01*
X177299000Y-63919000D02*
X177299000Y-63419000D01*
X183299000Y-74419000D02*
X177299000Y-74419000D01*
X183299000Y-99119000D02*
X177299000Y-99119000D01*
X177299000Y-89819000D02*
X183299000Y-89819000D01*
X177299000Y-85119000D02*
X177299000Y-84619000D01*
X177299000Y-100819000D02*
X177299000Y-100319000D01*
X177299000Y-99119000D02*
X177299000Y-96819000D01*
X177299000Y-86319000D02*
X183299000Y-86319000D01*
X183299000Y-88619000D02*
X177299000Y-88619000D01*
X183299000Y-89819000D02*
X183299000Y-88619000D01*
X177299000Y-92119000D02*
X177299000Y-89819000D01*
X177299000Y-96819000D02*
X183299000Y-96819000D01*
X183299000Y-86319000D02*
X183299000Y-85119000D01*
X177299000Y-95619000D02*
X177299000Y-93319000D01*
X183299000Y-95619000D02*
X177299000Y-95619000D01*
X183299000Y-93319000D02*
X183299000Y-92119000D01*
X183299000Y-100319000D02*
X183299000Y-99119000D01*
X183299000Y-85119000D02*
X177299000Y-85119000D01*
X177299000Y-88619000D02*
X177299000Y-86319000D01*
X169299000Y-84619000D02*
X174799000Y-84619000D01*
X169299000Y-100819000D02*
X174799000Y-100819000D01*
X177299000Y-100319000D02*
X183299000Y-100319000D01*
X163299000Y-100819000D02*
X169299000Y-100819000D01*
X177299000Y-93319000D02*
X183299000Y-93319000D01*
X174799000Y-100819000D02*
X177299000Y-100819000D01*
X163299000Y-100819000D02*
X163299000Y-84619000D01*
X163299000Y-84619000D02*
X169299000Y-84619000D01*
X183299000Y-96819000D02*
X183299000Y-95619000D01*
X174799000Y-84619000D02*
X177299000Y-84619000D01*
X183299000Y-92119000D02*
X177299000Y-92119000D01*
X151799000Y-100819000D02*
X149299000Y-100819000D01*
X157299000Y-84619000D02*
X151799000Y-84619000D01*
X149299000Y-92119000D02*
X143299000Y-92119000D01*
X149299000Y-85119000D02*
X143299000Y-85119000D01*
X157299000Y-100819000D02*
X151799000Y-100819000D01*
X151799000Y-84619000D02*
X149299000Y-84619000D01*
X163299000Y-84619000D02*
X157299000Y-84619000D01*
X143299000Y-93319000D02*
X149299000Y-93319000D01*
X143299000Y-88619000D02*
X143299000Y-89819000D01*
X163299000Y-84619000D02*
X163299000Y-100819000D01*
X163299000Y-100819000D02*
X157299000Y-100819000D01*
X149299000Y-88619000D02*
X143299000Y-88619000D01*
X143299000Y-89819000D02*
X149299000Y-89819000D01*
X143299000Y-92119000D02*
X143299000Y-93319000D01*
X143299000Y-85119000D02*
X143299000Y-86319000D01*
X143299000Y-86319000D02*
X149299000Y-86319000D01*
X149299000Y-95619000D02*
X143299000Y-95619000D01*
X143299000Y-100319000D02*
X149299000Y-100319000D01*
X149299000Y-100319000D02*
X149299000Y-100819000D01*
X143299000Y-99119000D02*
X143299000Y-100319000D01*
X149299000Y-99119000D02*
X143299000Y-99119000D01*
X143299000Y-96819000D02*
X149299000Y-96819000D01*
X143299000Y-95619000D02*
X143299000Y-96819000D01*
X149299000Y-84619000D02*
X149299000Y-85119000D01*
X149299000Y-86319000D02*
X149299000Y-88619000D01*
X149299000Y-89819000D02*
X149299000Y-92119000D01*
X149299000Y-93319000D02*
X149299000Y-95619000D01*
X149299000Y-96819000D02*
X149299000Y-99119000D01*
X174799000Y-105819000D02*
X177299000Y-105819000D01*
X169299000Y-122019000D02*
X174799000Y-122019000D01*
X177299000Y-114519000D02*
X183299000Y-114519000D01*
X177299000Y-121519000D02*
X183299000Y-121519000D01*
X169299000Y-105819000D02*
X174799000Y-105819000D01*
X174799000Y-122019000D02*
X177299000Y-122019000D01*
X163299000Y-122019000D02*
X169299000Y-122019000D01*
X183299000Y-113319000D02*
X177299000Y-113319000D01*
X183299000Y-118019000D02*
X183299000Y-116819000D01*
X163299000Y-122019000D02*
X163299000Y-105819000D01*
X163299000Y-105819000D02*
X169299000Y-105819000D01*
X177299000Y-118019000D02*
X183299000Y-118019000D01*
X183299000Y-116819000D02*
X177299000Y-116819000D01*
X183299000Y-114519000D02*
X183299000Y-113319000D01*
X183299000Y-121519000D02*
X183299000Y-120319000D01*
X183299000Y-120319000D02*
X177299000Y-120319000D01*
X177299000Y-111019000D02*
X183299000Y-111019000D01*
X183299000Y-106319000D02*
X177299000Y-106319000D01*
X177299000Y-106319000D02*
X177299000Y-105819000D01*
X183299000Y-107519000D02*
X183299000Y-106319000D01*
X177299000Y-107519000D02*
X183299000Y-107519000D01*
X183299000Y-109819000D02*
X177299000Y-109819000D01*
X183299000Y-111019000D02*
X183299000Y-109819000D01*
X177299000Y-122019000D02*
X177299000Y-121519000D01*
X177299000Y-120319000D02*
X177299000Y-118019000D01*
X177299000Y-116819000D02*
X177299000Y-114519000D01*
X177299000Y-113319000D02*
X177299000Y-111019000D01*
X177299000Y-109819000D02*
X177299000Y-107519000D01*
X99299000Y-49719000D02*
X93299000Y-49719000D01*
X93299000Y-49719000D02*
X93299000Y-50919000D01*
X99299000Y-43919000D02*
X99299000Y-46219000D01*
X99299000Y-50919000D02*
X99299000Y-53219000D01*
X127299000Y-49719000D02*
X127299000Y-47419000D01*
X127299000Y-54419000D02*
X133299000Y-54419000D01*
X99299000Y-42719000D02*
X93299000Y-42719000D01*
X133299000Y-50919000D02*
X133299000Y-49719000D01*
X133299000Y-56719000D02*
X127299000Y-56719000D01*
X133299000Y-42719000D02*
X127299000Y-42719000D01*
X133299000Y-43919000D02*
X133299000Y-42719000D01*
X127299000Y-43919000D02*
X133299000Y-43919000D01*
X113299000Y-58419000D02*
X119299000Y-58419000D01*
X101799000Y-58419000D02*
X99299000Y-58419000D01*
X127299000Y-56719000D02*
X127299000Y-54419000D01*
X107299000Y-42219000D02*
X101799000Y-42219000D01*
X93299000Y-47419000D02*
X99299000Y-47419000D01*
X127299000Y-46219000D02*
X127299000Y-43919000D01*
X133299000Y-54419000D02*
X133299000Y-53219000D01*
X127299000Y-42719000D02*
X127299000Y-42219000D01*
X119299000Y-58419000D02*
X124799000Y-58419000D01*
X93299000Y-42719000D02*
X93299000Y-43919000D01*
X113299000Y-58419000D02*
X113299000Y-42219000D01*
X119299000Y-42219000D02*
X124799000Y-42219000D01*
X127299000Y-50919000D02*
X133299000Y-50919000D01*
X124799000Y-42219000D02*
X127299000Y-42219000D01*
X93299000Y-46219000D02*
X93299000Y-47419000D01*
X93299000Y-50919000D02*
X99299000Y-50919000D01*
X113299000Y-42219000D02*
X119299000Y-42219000D01*
X133299000Y-53219000D02*
X127299000Y-53219000D01*
X113299000Y-42219000D02*
X107299000Y-42219000D01*
X133299000Y-57919000D02*
X133299000Y-56719000D01*
X127299000Y-53219000D02*
X127299000Y-50919000D01*
X113299000Y-42219000D02*
X113299000Y-58419000D01*
X99299000Y-53219000D02*
X93299000Y-53219000D01*
X127299000Y-58419000D02*
X127299000Y-57919000D01*
X127299000Y-57919000D02*
X133299000Y-57919000D01*
X127299000Y-47419000D02*
X133299000Y-47419000D01*
X113299000Y-58419000D02*
X107299000Y-58419000D01*
X133299000Y-49719000D02*
X127299000Y-49719000D01*
X93299000Y-57919000D02*
X99299000Y-57919000D01*
X133299000Y-46219000D02*
X127299000Y-46219000D01*
X99299000Y-47419000D02*
X99299000Y-49719000D01*
X93299000Y-43919000D02*
X99299000Y-43919000D01*
X124799000Y-58419000D02*
X127299000Y-58419000D01*
X107299000Y-58419000D02*
X101799000Y-58419000D01*
X133299000Y-47419000D02*
X133299000Y-46219000D01*
X99299000Y-56719000D02*
X93299000Y-56719000D01*
X99299000Y-57919000D02*
X99299000Y-58419000D01*
X99299000Y-46219000D02*
X93299000Y-46219000D01*
X99299000Y-42219000D02*
X99299000Y-42719000D01*
X101799000Y-42219000D02*
X99299000Y-42219000D01*
X93299000Y-54419000D02*
X99299000Y-54419000D01*
X99299000Y-54419000D02*
X99299000Y-56719000D01*
X93299000Y-56719000D02*
X93299000Y-57919000D01*
X93299000Y-53219000D02*
X93299000Y-54419000D01*
X133299000Y-68619000D02*
X133299000Y-67419000D01*
X113299000Y-79619000D02*
X107299000Y-79619000D01*
X99299000Y-77919000D02*
X93299000Y-77919000D01*
X99299000Y-79119000D02*
X99299000Y-79619000D01*
X99299000Y-63419000D02*
X99299000Y-63919000D01*
X93299000Y-79119000D02*
X99299000Y-79119000D01*
X101799000Y-63419000D02*
X99299000Y-63419000D01*
X133299000Y-67419000D02*
X127299000Y-67419000D01*
X99299000Y-74419000D02*
X93299000Y-74419000D01*
X93299000Y-75619000D02*
X99299000Y-75619000D01*
X99299000Y-75619000D02*
X99299000Y-77919000D01*
X107299000Y-63419000D02*
X101799000Y-63419000D01*
X99299000Y-68619000D02*
X99299000Y-70919000D01*
X93299000Y-74419000D02*
X93299000Y-75619000D01*
X99299000Y-70919000D02*
X93299000Y-70919000D01*
X93299000Y-63919000D02*
X93299000Y-65119000D01*
X93299000Y-70919000D02*
X93299000Y-72119000D01*
X99299000Y-67419000D02*
X93299000Y-67419000D01*
X113299000Y-63419000D02*
X113299000Y-79619000D01*
X93299000Y-77919000D02*
X93299000Y-79119000D01*
X99299000Y-65119000D02*
X99299000Y-67419000D01*
X99299000Y-72119000D02*
X99299000Y-74419000D01*
X93299000Y-65119000D02*
X99299000Y-65119000D01*
X107299000Y-79619000D02*
X101799000Y-79619000D01*
X93299000Y-72119000D02*
X99299000Y-72119000D01*
X99299000Y-63919000D02*
X93299000Y-63919000D01*
X101799000Y-79619000D02*
X99299000Y-79619000D01*
X93299000Y-68619000D02*
X99299000Y-68619000D01*
X113299000Y-63419000D02*
X119299000Y-63419000D01*
X133299000Y-70919000D02*
X127299000Y-70919000D01*
X133299000Y-79119000D02*
X133299000Y-77919000D01*
X127299000Y-68619000D02*
X133299000Y-68619000D01*
X133299000Y-74419000D02*
X127299000Y-74419000D01*
X113299000Y-79619000D02*
X113299000Y-63419000D01*
X127299000Y-77919000D02*
X127299000Y-75619000D01*
X127299000Y-65119000D02*
X133299000Y-65119000D01*
X133299000Y-75619000D02*
X133299000Y-74419000D01*
X133299000Y-77919000D02*
X127299000Y-77919000D01*
X119299000Y-63419000D02*
X124799000Y-63419000D01*
X127299000Y-74419000D02*
X127299000Y-72119000D01*
X127299000Y-67419000D02*
X127299000Y-65119000D01*
X127299000Y-63919000D02*
X127299000Y-63419000D01*
X127299000Y-75619000D02*
X133299000Y-75619000D01*
X127299000Y-72119000D02*
X133299000Y-72119000D01*
X113299000Y-79619000D02*
X119299000Y-79619000D01*
X113299000Y-63419000D02*
X107299000Y-63419000D01*
X127299000Y-70919000D02*
X127299000Y-68619000D01*
X93299000Y-67419000D02*
X93299000Y-68619000D01*
X124799000Y-63419000D02*
X127299000Y-63419000D01*
X124799000Y-79619000D02*
X127299000Y-79619000D01*
X133299000Y-65119000D02*
X133299000Y-63919000D01*
X133299000Y-72119000D02*
X133299000Y-70919000D01*
X127299000Y-79619000D02*
X127299000Y-79119000D01*
X133299000Y-63919000D02*
X127299000Y-63919000D01*
X127299000Y-79119000D02*
X133299000Y-79119000D01*
X119299000Y-79619000D02*
X124799000Y-79619000D01*
X133299000Y-88619000D02*
X127299000Y-88619000D01*
X133299000Y-89819000D02*
X133299000Y-88619000D01*
X93299000Y-96819000D02*
X99299000Y-96819000D01*
X93299000Y-95619000D02*
X93299000Y-96819000D01*
X99299000Y-86319000D02*
X99299000Y-88619000D01*
X99299000Y-84619000D02*
X99299000Y-85119000D01*
X99299000Y-89819000D02*
X99299000Y-92119000D01*
X99299000Y-93319000D02*
X99299000Y-95619000D01*
X99299000Y-96819000D02*
X99299000Y-99119000D01*
X99299000Y-100319000D02*
X99299000Y-100819000D01*
X93299000Y-86319000D02*
X99299000Y-86319000D01*
X93299000Y-92119000D02*
X93299000Y-93319000D01*
X93299000Y-93319000D02*
X99299000Y-93319000D01*
X99299000Y-88619000D02*
X93299000Y-88619000D01*
X99299000Y-85119000D02*
X93299000Y-85119000D01*
X99299000Y-95619000D02*
X93299000Y-95619000D01*
X107299000Y-100819000D02*
X101799000Y-100819000D01*
X101799000Y-84619000D02*
X99299000Y-84619000D01*
X99299000Y-92119000D02*
X93299000Y-92119000D01*
X101799000Y-100819000D02*
X99299000Y-100819000D01*
X93299000Y-100319000D02*
X99299000Y-100319000D01*
X93299000Y-99119000D02*
X93299000Y-100319000D01*
X107299000Y-84619000D02*
X101799000Y-84619000D01*
X99299000Y-99119000D02*
X93299000Y-99119000D01*
X113299000Y-84619000D02*
X113299000Y-100819000D01*
X93299000Y-85119000D02*
X93299000Y-86319000D01*
X113299000Y-100819000D02*
X107299000Y-100819000D01*
X93299000Y-89819000D02*
X99299000Y-89819000D01*
X93299000Y-88619000D02*
X93299000Y-89819000D01*
X124799000Y-84619000D02*
X127299000Y-84619000D01*
X124799000Y-100819000D02*
X127299000Y-100819000D01*
X133299000Y-86319000D02*
X133299000Y-85119000D01*
X127299000Y-100319000D02*
X133299000Y-100319000D01*
X119299000Y-100819000D02*
X124799000Y-100819000D01*
X113299000Y-100819000D02*
X113299000Y-84619000D01*
X127299000Y-99119000D02*
X127299000Y-96819000D01*
X133299000Y-92119000D02*
X127299000Y-92119000D01*
X127299000Y-100819000D02*
X127299000Y-100319000D01*
X127299000Y-86319000D02*
X133299000Y-86319000D01*
X133299000Y-99119000D02*
X127299000Y-99119000D01*
X119299000Y-84619000D02*
X124799000Y-84619000D01*
X133299000Y-85119000D02*
X127299000Y-85119000D01*
X127299000Y-95619000D02*
X127299000Y-93319000D01*
X133299000Y-100319000D02*
X133299000Y-99119000D01*
X113299000Y-84619000D02*
X119299000Y-84619000D01*
X127299000Y-92119000D02*
X127299000Y-89819000D01*
X127299000Y-88619000D02*
X127299000Y-86319000D01*
X127299000Y-85119000D02*
X127299000Y-84619000D01*
X133299000Y-93319000D02*
X133299000Y-92119000D01*
X127299000Y-96819000D02*
X133299000Y-96819000D01*
X127299000Y-89819000D02*
X133299000Y-89819000D01*
X127299000Y-93319000D02*
X133299000Y-93319000D01*
X133299000Y-95619000D02*
X127299000Y-95619000D01*
X113299000Y-100819000D02*
X119299000Y-100819000D01*
X133299000Y-96819000D02*
X133299000Y-95619000D01*
X113299000Y-84619000D02*
X107299000Y-84619000D01*
X133299000Y-109819000D02*
X127299000Y-109819000D01*
X133299000Y-111019000D02*
X133299000Y-109819000D01*
X127299000Y-120319000D02*
X127299000Y-118019000D01*
X127299000Y-122019000D02*
X127299000Y-121519000D01*
X127299000Y-116819000D02*
X127299000Y-114519000D01*
X127299000Y-113319000D02*
X127299000Y-111019000D01*
X127299000Y-109819000D02*
X127299000Y-107519000D01*
X127299000Y-106319000D02*
X127299000Y-105819000D01*
X133299000Y-120319000D02*
X127299000Y-120319000D01*
X133299000Y-114519000D02*
X133299000Y-113319000D01*
X133299000Y-113319000D02*
X127299000Y-113319000D01*
X127299000Y-118019000D02*
X133299000Y-118019000D01*
X127299000Y-121519000D02*
X133299000Y-121519000D01*
X127299000Y-111019000D02*
X133299000Y-111019000D01*
X119299000Y-105819000D02*
X124799000Y-105819000D01*
X124799000Y-122019000D02*
X127299000Y-122019000D01*
X127299000Y-114519000D02*
X133299000Y-114519000D01*
X124799000Y-105819000D02*
X127299000Y-105819000D01*
X133299000Y-106319000D02*
X127299000Y-106319000D01*
X133299000Y-107519000D02*
X133299000Y-106319000D01*
X119299000Y-122019000D02*
X124799000Y-122019000D01*
X127299000Y-107519000D02*
X133299000Y-107519000D01*
X113299000Y-122019000D02*
X113299000Y-105819000D01*
X133299000Y-121519000D02*
X133299000Y-120319000D01*
X113299000Y-105819000D02*
X119299000Y-105819000D01*
X133299000Y-116819000D02*
X127299000Y-116819000D01*
X133299000Y-118019000D02*
X133299000Y-116819000D01*
X113299000Y-122019000D02*
X119299000Y-122019000D01*
X99299000Y-121519000D02*
X99299000Y-122019000D01*
X99299000Y-118019000D02*
X99299000Y-120319000D01*
X99299000Y-114519000D02*
X99299000Y-116819000D01*
X99299000Y-111019000D02*
X99299000Y-113319000D01*
X99299000Y-107519000D02*
X99299000Y-109819000D01*
X99299000Y-105819000D02*
X99299000Y-106319000D01*
X93299000Y-116819000D02*
X93299000Y-118019000D01*
X93299000Y-118019000D02*
X99299000Y-118019000D01*
X93299000Y-121519000D02*
X99299000Y-121519000D01*
X99299000Y-120319000D02*
X93299000Y-120319000D01*
X93299000Y-120319000D02*
X93299000Y-121519000D01*
X99299000Y-116819000D02*
X93299000Y-116819000D01*
X93299000Y-107519000D02*
X99299000Y-107519000D01*
X93299000Y-106319000D02*
X93299000Y-107519000D01*
X99299000Y-106319000D02*
X93299000Y-106319000D01*
X93299000Y-111019000D02*
X99299000Y-111019000D01*
X93299000Y-109819000D02*
X93299000Y-111019000D01*
X99299000Y-109819000D02*
X93299000Y-109819000D01*
X93299000Y-114519000D02*
X99299000Y-114519000D01*
X93299000Y-113319000D02*
X93299000Y-114519000D01*
X99299000Y-113319000D02*
X93299000Y-113319000D01*
X101799000Y-122019000D02*
X99299000Y-122019000D01*
X107299000Y-122019000D02*
X101799000Y-122019000D01*
X113299000Y-122019000D02*
X107299000Y-122019000D01*
X113299000Y-105819000D02*
X113299000Y-122019000D01*
X101799000Y-105819000D02*
X99299000Y-105819000D01*
X107299000Y-105819000D02*
X101799000Y-105819000D01*
X113299000Y-105819000D02*
X107299000Y-105819000D01*
X149299000Y-121519000D02*
X149299000Y-122019000D01*
X149299000Y-118019000D02*
X149299000Y-120319000D01*
X149299000Y-114519000D02*
X149299000Y-116819000D01*
X149299000Y-111019000D02*
X149299000Y-113319000D01*
X149299000Y-107519000D02*
X149299000Y-109819000D01*
X149299000Y-105819000D02*
X149299000Y-106319000D01*
X143299000Y-116819000D02*
X143299000Y-118019000D01*
X143299000Y-118019000D02*
X149299000Y-118019000D01*
X143299000Y-121519000D02*
X149299000Y-121519000D01*
X149299000Y-120319000D02*
X143299000Y-120319000D01*
X143299000Y-120319000D02*
X143299000Y-121519000D01*
X149299000Y-116819000D02*
X143299000Y-116819000D01*
X143299000Y-107519000D02*
X149299000Y-107519000D01*
X143299000Y-106319000D02*
X143299000Y-107519000D01*
X149299000Y-106319000D02*
X143299000Y-106319000D01*
X143299000Y-111019000D02*
X149299000Y-111019000D01*
X143299000Y-109819000D02*
X143299000Y-111019000D01*
X149299000Y-109819000D02*
X143299000Y-109819000D01*
X143299000Y-114519000D02*
X149299000Y-114519000D01*
X143299000Y-113319000D02*
X143299000Y-114519000D01*
X149299000Y-113319000D02*
X143299000Y-113319000D01*
X151799000Y-122019000D02*
X149299000Y-122019000D01*
X157299000Y-122019000D02*
X151799000Y-122019000D01*
X163299000Y-122019000D02*
X157299000Y-122019000D01*
X163299000Y-105819000D02*
X163299000Y-122019000D01*
X151799000Y-105819000D02*
X149299000Y-105819000D01*
X157299000Y-105819000D02*
X151799000Y-105819000D01*
X163299000Y-105819000D02*
X157299000Y-105819000D01*
M02*
