G04 #@! TF.GenerationSoftware,KiCad,Pcbnew,(5.1.0)-1*
G04 #@! TF.CreationDate,2019-06-08T19:04:16-04:00*
G04 #@! TF.ProjectId,input+output_panel,696e7075-742b-46f7-9574-7075745f7061,0.1*
G04 #@! TF.SameCoordinates,Original*
G04 #@! TF.FileFunction,Soldermask,Bot*
G04 #@! TF.FilePolarity,Negative*
%FSLAX46Y46*%
G04 Gerber Fmt 4.6, Leading zero omitted, Abs format (unit mm)*
G04 Created by KiCad (PCBNEW (5.1.0)-1) date 2019-06-08 19:04:16*
%MOMM*%
%LPD*%
G04 APERTURE LIST*
%ADD10C,0.100000*%
G04 APERTURE END LIST*
D10*
G36*
X98299000Y-121519000D02*
G01*
X93299000Y-121519000D01*
X93299000Y-120319000D01*
X98299000Y-120319000D01*
X98299000Y-121519000D01*
X98299000Y-121519000D01*
G37*
G36*
X148299000Y-121519000D02*
G01*
X143299000Y-121519000D01*
X143299000Y-120319000D01*
X148299000Y-120319000D01*
X148299000Y-121519000D01*
X148299000Y-121519000D01*
G37*
G36*
X133299000Y-121519000D02*
G01*
X128299000Y-121519000D01*
X128299000Y-120319000D01*
X133299000Y-120319000D01*
X133299000Y-121519000D01*
X133299000Y-121519000D01*
G37*
G36*
X133299000Y-118019000D02*
G01*
X128299000Y-118019000D01*
X128299000Y-116819000D01*
X133299000Y-116819000D01*
X133299000Y-118019000D01*
X133299000Y-118019000D01*
G37*
G36*
X183299000Y-118019000D02*
G01*
X178299000Y-118019000D01*
X178299000Y-116819000D01*
X183299000Y-116819000D01*
X183299000Y-118019000D01*
X183299000Y-118019000D01*
G37*
G36*
X98299000Y-118019000D02*
G01*
X93299000Y-118019000D01*
X93299000Y-116819000D01*
X98299000Y-116819000D01*
X98299000Y-118019000D01*
X98299000Y-118019000D01*
G37*
G36*
X174535707Y-115463597D02*
G01*
X174612836Y-115471193D01*
X174810762Y-115531233D01*
X174810765Y-115531234D01*
X174993170Y-115628732D01*
X175153055Y-115759945D01*
X175284268Y-115919830D01*
X175381766Y-116102235D01*
X175381767Y-116102238D01*
X175441807Y-116300164D01*
X175462080Y-116506000D01*
X175441807Y-116711836D01*
X175420291Y-116782765D01*
X175381766Y-116909765D01*
X175284268Y-117092170D01*
X175153055Y-117252055D01*
X174993170Y-117383268D01*
X174810765Y-117480766D01*
X174810762Y-117480767D01*
X174612836Y-117540807D01*
X174535707Y-117548404D01*
X174458580Y-117556000D01*
X174105420Y-117556000D01*
X174028293Y-117548404D01*
X173951164Y-117540807D01*
X173753238Y-117480767D01*
X173753235Y-117480766D01*
X173570830Y-117383268D01*
X173410945Y-117252055D01*
X173279732Y-117092170D01*
X173182234Y-116909765D01*
X173143709Y-116782765D01*
X173122193Y-116711836D01*
X173101920Y-116506000D01*
X173122193Y-116300164D01*
X173182233Y-116102238D01*
X173182234Y-116102235D01*
X173279732Y-115919830D01*
X173410945Y-115759945D01*
X173570830Y-115628732D01*
X173753235Y-115531234D01*
X173753238Y-115531233D01*
X173951164Y-115471193D01*
X174028293Y-115463597D01*
X174105420Y-115456000D01*
X174458580Y-115456000D01*
X174535707Y-115463597D01*
X174535707Y-115463597D01*
G37*
G36*
X155010326Y-115413831D02*
G01*
X155051596Y-115426350D01*
X155089631Y-115446681D01*
X155122964Y-115474036D01*
X155150319Y-115507369D01*
X155170650Y-115545404D01*
X155183169Y-115586674D01*
X155188000Y-115635727D01*
X155188000Y-117282273D01*
X155183169Y-117331326D01*
X155170650Y-117372596D01*
X155150319Y-117410631D01*
X155122964Y-117443964D01*
X155089631Y-117471319D01*
X155051596Y-117491650D01*
X155010326Y-117504169D01*
X154961273Y-117509000D01*
X153064727Y-117509000D01*
X153015674Y-117504169D01*
X152974404Y-117491650D01*
X152936369Y-117471319D01*
X152903036Y-117443964D01*
X152875681Y-117410631D01*
X152855350Y-117372596D01*
X152842831Y-117331326D01*
X152838000Y-117282273D01*
X152838000Y-115635727D01*
X152842831Y-115586674D01*
X152855350Y-115545404D01*
X152875681Y-115507369D01*
X152903036Y-115474036D01*
X152936369Y-115446681D01*
X152974404Y-115426350D01*
X153015674Y-115413831D01*
X153064727Y-115409000D01*
X154961273Y-115409000D01*
X155010326Y-115413831D01*
X155010326Y-115413831D01*
G37*
G36*
X105010326Y-115413831D02*
G01*
X105051596Y-115426350D01*
X105089631Y-115446681D01*
X105122964Y-115474036D01*
X105150319Y-115507369D01*
X105170650Y-115545404D01*
X105183169Y-115586674D01*
X105188000Y-115635727D01*
X105188000Y-117282273D01*
X105183169Y-117331326D01*
X105170650Y-117372596D01*
X105150319Y-117410631D01*
X105122964Y-117443964D01*
X105089631Y-117471319D01*
X105051596Y-117491650D01*
X105010326Y-117504169D01*
X104961273Y-117509000D01*
X103064727Y-117509000D01*
X103015674Y-117504169D01*
X102974404Y-117491650D01*
X102936369Y-117471319D01*
X102903036Y-117443964D01*
X102875681Y-117410631D01*
X102855350Y-117372596D01*
X102842831Y-117331326D01*
X102838000Y-117282273D01*
X102838000Y-115635727D01*
X102842831Y-115586674D01*
X102855350Y-115545404D01*
X102875681Y-115507369D01*
X102903036Y-115474036D01*
X102936369Y-115446681D01*
X102974404Y-115426350D01*
X103015674Y-115413831D01*
X103064727Y-115409000D01*
X104961273Y-115409000D01*
X105010326Y-115413831D01*
X105010326Y-115413831D01*
G37*
G36*
X122838707Y-115336597D02*
G01*
X122915836Y-115344193D01*
X123113762Y-115404233D01*
X123113765Y-115404234D01*
X123296170Y-115501732D01*
X123456055Y-115632945D01*
X123587268Y-115792830D01*
X123684766Y-115975235D01*
X123684767Y-115975238D01*
X123744807Y-116173164D01*
X123765080Y-116379000D01*
X123744807Y-116584836D01*
X123706282Y-116711836D01*
X123684766Y-116782765D01*
X123587268Y-116965170D01*
X123456055Y-117125055D01*
X123296170Y-117256268D01*
X123113765Y-117353766D01*
X123113762Y-117353767D01*
X122915836Y-117413807D01*
X122838707Y-117421403D01*
X122761580Y-117429000D01*
X122408420Y-117429000D01*
X122331293Y-117421403D01*
X122254164Y-117413807D01*
X122056238Y-117353767D01*
X122056235Y-117353766D01*
X121873830Y-117256268D01*
X121713945Y-117125055D01*
X121582732Y-116965170D01*
X121485234Y-116782765D01*
X121463718Y-116711836D01*
X121425193Y-116584836D01*
X121404920Y-116379000D01*
X121425193Y-116173164D01*
X121485233Y-115975238D01*
X121485234Y-115975235D01*
X121582732Y-115792830D01*
X121713945Y-115632945D01*
X121873830Y-115501732D01*
X122056235Y-115404234D01*
X122056238Y-115404233D01*
X122254164Y-115344193D01*
X122331293Y-115336597D01*
X122408420Y-115329000D01*
X122761580Y-115329000D01*
X122838707Y-115336597D01*
X122838707Y-115336597D01*
G37*
G36*
X174535707Y-112963597D02*
G01*
X174612836Y-112971193D01*
X174810762Y-113031233D01*
X174810765Y-113031234D01*
X174993170Y-113128732D01*
X175153055Y-113259945D01*
X175284268Y-113419830D01*
X175381766Y-113602235D01*
X175381767Y-113602238D01*
X175441807Y-113800164D01*
X175462080Y-114006000D01*
X175441807Y-114211836D01*
X175420291Y-114282765D01*
X175381766Y-114409765D01*
X175284268Y-114592170D01*
X175153055Y-114752055D01*
X174993170Y-114883268D01*
X174810765Y-114980766D01*
X174810762Y-114980767D01*
X174612836Y-115040807D01*
X174535707Y-115048404D01*
X174458580Y-115056000D01*
X174105420Y-115056000D01*
X174028293Y-115048404D01*
X173951164Y-115040807D01*
X173753238Y-114980767D01*
X173753235Y-114980766D01*
X173570830Y-114883268D01*
X173410945Y-114752055D01*
X173279732Y-114592170D01*
X173182234Y-114409765D01*
X173143709Y-114282765D01*
X173122193Y-114211836D01*
X173101920Y-114006000D01*
X173122193Y-113800164D01*
X173182233Y-113602238D01*
X173182234Y-113602235D01*
X173279732Y-113419830D01*
X173410945Y-113259945D01*
X173570830Y-113128732D01*
X173753235Y-113031234D01*
X173753238Y-113031233D01*
X173951164Y-112971193D01*
X174028293Y-112963597D01*
X174105420Y-112956000D01*
X174458580Y-112956000D01*
X174535707Y-112963597D01*
X174535707Y-112963597D01*
G37*
G36*
X104266707Y-112916596D02*
G01*
X104343836Y-112924193D01*
X104541762Y-112984233D01*
X104541765Y-112984234D01*
X104724170Y-113081732D01*
X104884055Y-113212945D01*
X105015268Y-113372830D01*
X105112766Y-113555235D01*
X105112767Y-113555238D01*
X105172807Y-113753164D01*
X105193080Y-113959000D01*
X105172807Y-114164836D01*
X105112767Y-114362762D01*
X105112766Y-114362765D01*
X105015268Y-114545170D01*
X104884055Y-114705055D01*
X104724170Y-114836268D01*
X104541765Y-114933766D01*
X104541762Y-114933767D01*
X104343836Y-114993807D01*
X104266707Y-115001403D01*
X104189580Y-115009000D01*
X103836420Y-115009000D01*
X103759293Y-115001403D01*
X103682164Y-114993807D01*
X103484238Y-114933767D01*
X103484235Y-114933766D01*
X103301830Y-114836268D01*
X103141945Y-114705055D01*
X103010732Y-114545170D01*
X102913234Y-114362765D01*
X102913233Y-114362762D01*
X102853193Y-114164836D01*
X102832920Y-113959000D01*
X102853193Y-113753164D01*
X102913233Y-113555238D01*
X102913234Y-113555235D01*
X103010732Y-113372830D01*
X103141945Y-113212945D01*
X103301830Y-113081732D01*
X103484235Y-112984234D01*
X103484238Y-112984233D01*
X103682164Y-112924193D01*
X103759293Y-112916596D01*
X103836420Y-112909000D01*
X104189580Y-112909000D01*
X104266707Y-112916596D01*
X104266707Y-112916596D01*
G37*
G36*
X154266707Y-112916596D02*
G01*
X154343836Y-112924193D01*
X154541762Y-112984233D01*
X154541765Y-112984234D01*
X154724170Y-113081732D01*
X154884055Y-113212945D01*
X155015268Y-113372830D01*
X155112766Y-113555235D01*
X155112767Y-113555238D01*
X155172807Y-113753164D01*
X155193080Y-113959000D01*
X155172807Y-114164836D01*
X155112767Y-114362762D01*
X155112766Y-114362765D01*
X155015268Y-114545170D01*
X154884055Y-114705055D01*
X154724170Y-114836268D01*
X154541765Y-114933766D01*
X154541762Y-114933767D01*
X154343836Y-114993807D01*
X154266707Y-115001403D01*
X154189580Y-115009000D01*
X153836420Y-115009000D01*
X153759293Y-115001403D01*
X153682164Y-114993807D01*
X153484238Y-114933767D01*
X153484235Y-114933766D01*
X153301830Y-114836268D01*
X153141945Y-114705055D01*
X153010732Y-114545170D01*
X152913234Y-114362765D01*
X152913233Y-114362762D01*
X152853193Y-114164836D01*
X152832920Y-113959000D01*
X152853193Y-113753164D01*
X152913233Y-113555238D01*
X152913234Y-113555235D01*
X153010732Y-113372830D01*
X153141945Y-113212945D01*
X153301830Y-113081732D01*
X153484235Y-112984234D01*
X153484238Y-112984233D01*
X153682164Y-112924193D01*
X153759293Y-112916596D01*
X153836420Y-112909000D01*
X154189580Y-112909000D01*
X154266707Y-112916596D01*
X154266707Y-112916596D01*
G37*
G36*
X122838707Y-112836597D02*
G01*
X122915836Y-112844193D01*
X123113762Y-112904233D01*
X123113765Y-112904234D01*
X123296170Y-113001732D01*
X123456055Y-113132945D01*
X123587268Y-113292830D01*
X123684766Y-113475235D01*
X123684767Y-113475238D01*
X123744807Y-113673164D01*
X123765080Y-113879000D01*
X123744807Y-114084836D01*
X123706282Y-114211836D01*
X123684766Y-114282765D01*
X123587268Y-114465170D01*
X123456055Y-114625055D01*
X123296170Y-114756268D01*
X123113765Y-114853766D01*
X123113762Y-114853767D01*
X122915836Y-114913807D01*
X122838707Y-114921404D01*
X122761580Y-114929000D01*
X122408420Y-114929000D01*
X122331293Y-114921404D01*
X122254164Y-114913807D01*
X122056238Y-114853767D01*
X122056235Y-114853766D01*
X121873830Y-114756268D01*
X121713945Y-114625055D01*
X121582732Y-114465170D01*
X121485234Y-114282765D01*
X121463718Y-114211836D01*
X121425193Y-114084836D01*
X121404920Y-113879000D01*
X121425193Y-113673164D01*
X121485233Y-113475238D01*
X121485234Y-113475235D01*
X121582732Y-113292830D01*
X121713945Y-113132945D01*
X121873830Y-113001732D01*
X122056235Y-112904234D01*
X122056238Y-112904233D01*
X122254164Y-112844193D01*
X122331293Y-112836597D01*
X122408420Y-112829000D01*
X122761580Y-112829000D01*
X122838707Y-112836597D01*
X122838707Y-112836597D01*
G37*
G36*
X148299000Y-114519000D02*
G01*
X143299000Y-114519000D01*
X143299000Y-113319000D01*
X148299000Y-113319000D01*
X148299000Y-114519000D01*
X148299000Y-114519000D01*
G37*
G36*
X133299000Y-114519000D02*
G01*
X128299000Y-114519000D01*
X128299000Y-113319000D01*
X133299000Y-113319000D01*
X133299000Y-114519000D01*
X133299000Y-114519000D01*
G37*
G36*
X98299000Y-114519000D02*
G01*
X93299000Y-114519000D01*
X93299000Y-113319000D01*
X98299000Y-113319000D01*
X98299000Y-114519000D01*
X98299000Y-114519000D01*
G37*
G36*
X183299000Y-114519000D02*
G01*
X178299000Y-114519000D01*
X178299000Y-113319000D01*
X183299000Y-113319000D01*
X183299000Y-114519000D01*
X183299000Y-114519000D01*
G37*
G36*
X175279326Y-110460831D02*
G01*
X175320596Y-110473350D01*
X175358631Y-110493681D01*
X175391964Y-110521036D01*
X175419319Y-110554369D01*
X175439650Y-110592404D01*
X175452169Y-110633674D01*
X175457000Y-110682727D01*
X175457000Y-112329273D01*
X175452169Y-112378326D01*
X175439650Y-112419596D01*
X175419319Y-112457631D01*
X175391964Y-112490964D01*
X175358631Y-112518319D01*
X175320596Y-112538650D01*
X175279326Y-112551169D01*
X175230273Y-112556000D01*
X173333727Y-112556000D01*
X173284674Y-112551169D01*
X173243404Y-112538650D01*
X173205369Y-112518319D01*
X173172036Y-112490964D01*
X173144681Y-112457631D01*
X173124350Y-112419596D01*
X173111831Y-112378326D01*
X173107000Y-112329273D01*
X173107000Y-110682727D01*
X173111831Y-110633674D01*
X173124350Y-110592404D01*
X173144681Y-110554369D01*
X173172036Y-110521036D01*
X173205369Y-110493681D01*
X173243404Y-110473350D01*
X173284674Y-110460831D01*
X173333727Y-110456000D01*
X175230273Y-110456000D01*
X175279326Y-110460831D01*
X175279326Y-110460831D01*
G37*
G36*
X104266707Y-110416596D02*
G01*
X104343836Y-110424193D01*
X104541762Y-110484233D01*
X104541765Y-110484234D01*
X104724170Y-110581732D01*
X104884055Y-110712945D01*
X105015268Y-110872830D01*
X105112766Y-111055235D01*
X105112767Y-111055238D01*
X105172807Y-111253164D01*
X105193080Y-111459000D01*
X105172807Y-111664836D01*
X105112767Y-111862762D01*
X105112766Y-111862765D01*
X105015268Y-112045170D01*
X104884055Y-112205055D01*
X104724170Y-112336268D01*
X104541765Y-112433766D01*
X104541762Y-112433767D01*
X104343836Y-112493807D01*
X104266707Y-112501404D01*
X104189580Y-112509000D01*
X103836420Y-112509000D01*
X103759293Y-112501404D01*
X103682164Y-112493807D01*
X103484238Y-112433767D01*
X103484235Y-112433766D01*
X103301830Y-112336268D01*
X103141945Y-112205055D01*
X103010732Y-112045170D01*
X102913234Y-111862765D01*
X102913233Y-111862762D01*
X102853193Y-111664836D01*
X102832920Y-111459000D01*
X102853193Y-111253164D01*
X102913233Y-111055238D01*
X102913234Y-111055235D01*
X103010732Y-110872830D01*
X103141945Y-110712945D01*
X103301830Y-110581732D01*
X103484235Y-110484234D01*
X103484238Y-110484233D01*
X103682164Y-110424193D01*
X103759293Y-110416596D01*
X103836420Y-110409000D01*
X104189580Y-110409000D01*
X104266707Y-110416596D01*
X104266707Y-110416596D01*
G37*
G36*
X154266707Y-110416596D02*
G01*
X154343836Y-110424193D01*
X154541762Y-110484233D01*
X154541765Y-110484234D01*
X154724170Y-110581732D01*
X154884055Y-110712945D01*
X155015268Y-110872830D01*
X155112766Y-111055235D01*
X155112767Y-111055238D01*
X155172807Y-111253164D01*
X155193080Y-111459000D01*
X155172807Y-111664836D01*
X155112767Y-111862762D01*
X155112766Y-111862765D01*
X155015268Y-112045170D01*
X154884055Y-112205055D01*
X154724170Y-112336268D01*
X154541765Y-112433766D01*
X154541762Y-112433767D01*
X154343836Y-112493807D01*
X154266707Y-112501404D01*
X154189580Y-112509000D01*
X153836420Y-112509000D01*
X153759293Y-112501404D01*
X153682164Y-112493807D01*
X153484238Y-112433767D01*
X153484235Y-112433766D01*
X153301830Y-112336268D01*
X153141945Y-112205055D01*
X153010732Y-112045170D01*
X152913234Y-111862765D01*
X152913233Y-111862762D01*
X152853193Y-111664836D01*
X152832920Y-111459000D01*
X152853193Y-111253164D01*
X152913233Y-111055238D01*
X152913234Y-111055235D01*
X153010732Y-110872830D01*
X153141945Y-110712945D01*
X153301830Y-110581732D01*
X153484235Y-110484234D01*
X153484238Y-110484233D01*
X153682164Y-110424193D01*
X153759293Y-110416596D01*
X153836420Y-110409000D01*
X154189580Y-110409000D01*
X154266707Y-110416596D01*
X154266707Y-110416596D01*
G37*
G36*
X123582326Y-110333831D02*
G01*
X123623596Y-110346350D01*
X123661631Y-110366681D01*
X123694964Y-110394036D01*
X123722319Y-110427369D01*
X123742650Y-110465404D01*
X123755169Y-110506674D01*
X123760000Y-110555727D01*
X123760000Y-112202273D01*
X123755169Y-112251326D01*
X123742650Y-112292596D01*
X123722319Y-112330631D01*
X123694964Y-112363964D01*
X123661631Y-112391319D01*
X123623596Y-112411650D01*
X123582326Y-112424169D01*
X123533273Y-112429000D01*
X121636727Y-112429000D01*
X121587674Y-112424169D01*
X121546404Y-112411650D01*
X121508369Y-112391319D01*
X121475036Y-112363964D01*
X121447681Y-112330631D01*
X121427350Y-112292596D01*
X121414831Y-112251326D01*
X121410000Y-112202273D01*
X121410000Y-110555727D01*
X121414831Y-110506674D01*
X121427350Y-110465404D01*
X121447681Y-110427369D01*
X121475036Y-110394036D01*
X121508369Y-110366681D01*
X121546404Y-110346350D01*
X121587674Y-110333831D01*
X121636727Y-110329000D01*
X123533273Y-110329000D01*
X123582326Y-110333831D01*
X123582326Y-110333831D01*
G37*
G36*
X148299000Y-111019000D02*
G01*
X143299000Y-111019000D01*
X143299000Y-109819000D01*
X148299000Y-109819000D01*
X148299000Y-111019000D01*
X148299000Y-111019000D01*
G37*
G36*
X133299000Y-111019000D02*
G01*
X128299000Y-111019000D01*
X128299000Y-109819000D01*
X133299000Y-109819000D01*
X133299000Y-111019000D01*
X133299000Y-111019000D01*
G37*
G36*
X98299000Y-111019000D02*
G01*
X93299000Y-111019000D01*
X93299000Y-109819000D01*
X98299000Y-109819000D01*
X98299000Y-111019000D01*
X98299000Y-111019000D01*
G37*
G36*
X183299000Y-107519000D02*
G01*
X178299000Y-107519000D01*
X178299000Y-106319000D01*
X183299000Y-106319000D01*
X183299000Y-107519000D01*
X183299000Y-107519000D01*
G37*
G36*
X98299000Y-107519000D02*
G01*
X93299000Y-107519000D01*
X93299000Y-106319000D01*
X98299000Y-106319000D01*
X98299000Y-107519000D01*
X98299000Y-107519000D01*
G37*
G36*
X133299000Y-107519000D02*
G01*
X128299000Y-107519000D01*
X128299000Y-106319000D01*
X133299000Y-106319000D01*
X133299000Y-107519000D01*
X133299000Y-107519000D01*
G37*
G36*
X98299000Y-100319000D02*
G01*
X93299000Y-100319000D01*
X93299000Y-99119000D01*
X98299000Y-99119000D01*
X98299000Y-100319000D01*
X98299000Y-100319000D01*
G37*
G36*
X133299000Y-100319000D02*
G01*
X128299000Y-100319000D01*
X128299000Y-99119000D01*
X133299000Y-99119000D01*
X133299000Y-100319000D01*
X133299000Y-100319000D01*
G37*
G36*
X148299000Y-100319000D02*
G01*
X143299000Y-100319000D01*
X143299000Y-99119000D01*
X148299000Y-99119000D01*
X148299000Y-100319000D01*
X148299000Y-100319000D01*
G37*
G36*
X133299000Y-96819000D02*
G01*
X128299000Y-96819000D01*
X128299000Y-95619000D01*
X133299000Y-95619000D01*
X133299000Y-96819000D01*
X133299000Y-96819000D01*
G37*
G36*
X183299000Y-96819000D02*
G01*
X178299000Y-96819000D01*
X178299000Y-95619000D01*
X183299000Y-95619000D01*
X183299000Y-96819000D01*
X183299000Y-96819000D01*
G37*
G36*
X98299000Y-96819000D02*
G01*
X93299000Y-96819000D01*
X93299000Y-95619000D01*
X98299000Y-95619000D01*
X98299000Y-96819000D01*
X98299000Y-96819000D01*
G37*
G36*
X174535707Y-94263596D02*
G01*
X174612836Y-94271193D01*
X174810762Y-94331233D01*
X174810765Y-94331234D01*
X174993170Y-94428732D01*
X175153055Y-94559945D01*
X175284268Y-94719830D01*
X175381766Y-94902235D01*
X175381767Y-94902238D01*
X175441807Y-95100164D01*
X175462080Y-95306000D01*
X175441807Y-95511836D01*
X175420291Y-95582765D01*
X175381766Y-95709765D01*
X175284268Y-95892170D01*
X175153055Y-96052055D01*
X174993170Y-96183268D01*
X174810765Y-96280766D01*
X174810762Y-96280767D01*
X174612836Y-96340807D01*
X174535707Y-96348403D01*
X174458580Y-96356000D01*
X174105420Y-96356000D01*
X174028293Y-96348403D01*
X173951164Y-96340807D01*
X173753238Y-96280767D01*
X173753235Y-96280766D01*
X173570830Y-96183268D01*
X173410945Y-96052055D01*
X173279732Y-95892170D01*
X173182234Y-95709765D01*
X173143709Y-95582765D01*
X173122193Y-95511836D01*
X173101920Y-95306000D01*
X173122193Y-95100164D01*
X173182233Y-94902238D01*
X173182234Y-94902235D01*
X173279732Y-94719830D01*
X173410945Y-94559945D01*
X173570830Y-94428732D01*
X173753235Y-94331234D01*
X173753238Y-94331233D01*
X173951164Y-94271193D01*
X174028293Y-94263596D01*
X174105420Y-94256000D01*
X174458580Y-94256000D01*
X174535707Y-94263596D01*
X174535707Y-94263596D01*
G37*
G36*
X155010326Y-94213831D02*
G01*
X155051596Y-94226350D01*
X155089631Y-94246681D01*
X155122964Y-94274036D01*
X155150319Y-94307369D01*
X155170650Y-94345404D01*
X155183169Y-94386674D01*
X155188000Y-94435727D01*
X155188000Y-96082273D01*
X155183169Y-96131326D01*
X155170650Y-96172596D01*
X155150319Y-96210631D01*
X155122964Y-96243964D01*
X155089631Y-96271319D01*
X155051596Y-96291650D01*
X155010326Y-96304169D01*
X154961273Y-96309000D01*
X153064727Y-96309000D01*
X153015674Y-96304169D01*
X152974404Y-96291650D01*
X152936369Y-96271319D01*
X152903036Y-96243964D01*
X152875681Y-96210631D01*
X152855350Y-96172596D01*
X152842831Y-96131326D01*
X152838000Y-96082273D01*
X152838000Y-94435727D01*
X152842831Y-94386674D01*
X152855350Y-94345404D01*
X152875681Y-94307369D01*
X152903036Y-94274036D01*
X152936369Y-94246681D01*
X152974404Y-94226350D01*
X153015674Y-94213831D01*
X153064727Y-94209000D01*
X154961273Y-94209000D01*
X155010326Y-94213831D01*
X155010326Y-94213831D01*
G37*
G36*
X105010326Y-94213831D02*
G01*
X105051596Y-94226350D01*
X105089631Y-94246681D01*
X105122964Y-94274036D01*
X105150319Y-94307369D01*
X105170650Y-94345404D01*
X105183169Y-94386674D01*
X105188000Y-94435727D01*
X105188000Y-96082273D01*
X105183169Y-96131326D01*
X105170650Y-96172596D01*
X105150319Y-96210631D01*
X105122964Y-96243964D01*
X105089631Y-96271319D01*
X105051596Y-96291650D01*
X105010326Y-96304169D01*
X104961273Y-96309000D01*
X103064727Y-96309000D01*
X103015674Y-96304169D01*
X102974404Y-96291650D01*
X102936369Y-96271319D01*
X102903036Y-96243964D01*
X102875681Y-96210631D01*
X102855350Y-96172596D01*
X102842831Y-96131326D01*
X102838000Y-96082273D01*
X102838000Y-94435727D01*
X102842831Y-94386674D01*
X102855350Y-94345404D01*
X102875681Y-94307369D01*
X102903036Y-94274036D01*
X102936369Y-94246681D01*
X102974404Y-94226350D01*
X103015674Y-94213831D01*
X103064727Y-94209000D01*
X104961273Y-94209000D01*
X105010326Y-94213831D01*
X105010326Y-94213831D01*
G37*
G36*
X122838707Y-94136596D02*
G01*
X122915836Y-94144193D01*
X123113762Y-94204233D01*
X123113765Y-94204234D01*
X123296170Y-94301732D01*
X123456055Y-94432945D01*
X123587268Y-94592830D01*
X123684766Y-94775235D01*
X123684767Y-94775238D01*
X123744807Y-94973164D01*
X123765080Y-95179000D01*
X123744807Y-95384836D01*
X123706282Y-95511836D01*
X123684766Y-95582765D01*
X123587268Y-95765170D01*
X123456055Y-95925055D01*
X123296170Y-96056268D01*
X123113765Y-96153766D01*
X123113762Y-96153767D01*
X122915836Y-96213807D01*
X122838707Y-96221403D01*
X122761580Y-96229000D01*
X122408420Y-96229000D01*
X122331293Y-96221403D01*
X122254164Y-96213807D01*
X122056238Y-96153767D01*
X122056235Y-96153766D01*
X121873830Y-96056268D01*
X121713945Y-95925055D01*
X121582732Y-95765170D01*
X121485234Y-95582765D01*
X121463718Y-95511836D01*
X121425193Y-95384836D01*
X121404920Y-95179000D01*
X121425193Y-94973164D01*
X121485233Y-94775238D01*
X121485234Y-94775235D01*
X121582732Y-94592830D01*
X121713945Y-94432945D01*
X121873830Y-94301732D01*
X122056235Y-94204234D01*
X122056238Y-94204233D01*
X122254164Y-94144193D01*
X122331293Y-94136596D01*
X122408420Y-94129000D01*
X122761580Y-94129000D01*
X122838707Y-94136596D01*
X122838707Y-94136596D01*
G37*
G36*
X174535707Y-91763597D02*
G01*
X174612836Y-91771193D01*
X174810762Y-91831233D01*
X174810765Y-91831234D01*
X174993170Y-91928732D01*
X175153055Y-92059945D01*
X175284268Y-92219830D01*
X175381766Y-92402235D01*
X175381767Y-92402238D01*
X175441807Y-92600164D01*
X175462080Y-92806000D01*
X175441807Y-93011836D01*
X175420291Y-93082765D01*
X175381766Y-93209765D01*
X175284268Y-93392170D01*
X175153055Y-93552055D01*
X174993170Y-93683268D01*
X174810765Y-93780766D01*
X174810762Y-93780767D01*
X174612836Y-93840807D01*
X174535707Y-93848403D01*
X174458580Y-93856000D01*
X174105420Y-93856000D01*
X174028293Y-93848404D01*
X173951164Y-93840807D01*
X173753238Y-93780767D01*
X173753235Y-93780766D01*
X173570830Y-93683268D01*
X173410945Y-93552055D01*
X173279732Y-93392170D01*
X173182234Y-93209765D01*
X173143709Y-93082765D01*
X173122193Y-93011836D01*
X173101920Y-92806000D01*
X173122193Y-92600164D01*
X173182233Y-92402238D01*
X173182234Y-92402235D01*
X173279732Y-92219830D01*
X173410945Y-92059945D01*
X173570830Y-91928732D01*
X173753235Y-91831234D01*
X173753238Y-91831233D01*
X173951164Y-91771193D01*
X174028293Y-91763597D01*
X174105420Y-91756000D01*
X174458580Y-91756000D01*
X174535707Y-91763597D01*
X174535707Y-91763597D01*
G37*
G36*
X154266707Y-91716596D02*
G01*
X154343836Y-91724193D01*
X154541762Y-91784233D01*
X154541765Y-91784234D01*
X154724170Y-91881732D01*
X154884055Y-92012945D01*
X155015268Y-92172830D01*
X155112766Y-92355235D01*
X155112767Y-92355238D01*
X155172807Y-92553164D01*
X155193080Y-92759000D01*
X155172807Y-92964836D01*
X155112767Y-93162762D01*
X155112766Y-93162765D01*
X155015268Y-93345170D01*
X154884055Y-93505055D01*
X154724170Y-93636268D01*
X154541765Y-93733766D01*
X154541762Y-93733767D01*
X154343836Y-93793807D01*
X154266707Y-93801404D01*
X154189580Y-93809000D01*
X153836420Y-93809000D01*
X153759293Y-93801403D01*
X153682164Y-93793807D01*
X153484238Y-93733767D01*
X153484235Y-93733766D01*
X153301830Y-93636268D01*
X153141945Y-93505055D01*
X153010732Y-93345170D01*
X152913234Y-93162765D01*
X152913233Y-93162762D01*
X152853193Y-92964836D01*
X152832920Y-92759000D01*
X152853193Y-92553164D01*
X152913233Y-92355238D01*
X152913234Y-92355235D01*
X153010732Y-92172830D01*
X153141945Y-92012945D01*
X153301830Y-91881732D01*
X153484235Y-91784234D01*
X153484238Y-91784233D01*
X153682164Y-91724193D01*
X153759293Y-91716597D01*
X153836420Y-91709000D01*
X154189580Y-91709000D01*
X154266707Y-91716596D01*
X154266707Y-91716596D01*
G37*
G36*
X104266707Y-91716596D02*
G01*
X104343836Y-91724193D01*
X104541762Y-91784233D01*
X104541765Y-91784234D01*
X104724170Y-91881732D01*
X104884055Y-92012945D01*
X105015268Y-92172830D01*
X105112766Y-92355235D01*
X105112767Y-92355238D01*
X105172807Y-92553164D01*
X105193080Y-92759000D01*
X105172807Y-92964836D01*
X105112767Y-93162762D01*
X105112766Y-93162765D01*
X105015268Y-93345170D01*
X104884055Y-93505055D01*
X104724170Y-93636268D01*
X104541765Y-93733766D01*
X104541762Y-93733767D01*
X104343836Y-93793807D01*
X104266707Y-93801403D01*
X104189580Y-93809000D01*
X103836420Y-93809000D01*
X103759293Y-93801403D01*
X103682164Y-93793807D01*
X103484238Y-93733767D01*
X103484235Y-93733766D01*
X103301830Y-93636268D01*
X103141945Y-93505055D01*
X103010732Y-93345170D01*
X102913234Y-93162765D01*
X102913233Y-93162762D01*
X102853193Y-92964836D01*
X102832920Y-92759000D01*
X102853193Y-92553164D01*
X102913233Y-92355238D01*
X102913234Y-92355235D01*
X103010732Y-92172830D01*
X103141945Y-92012945D01*
X103301830Y-91881732D01*
X103484235Y-91784234D01*
X103484238Y-91784233D01*
X103682164Y-91724193D01*
X103759293Y-91716596D01*
X103836420Y-91709000D01*
X104189580Y-91709000D01*
X104266707Y-91716596D01*
X104266707Y-91716596D01*
G37*
G36*
X122838707Y-91636596D02*
G01*
X122915836Y-91644193D01*
X123113762Y-91704233D01*
X123113765Y-91704234D01*
X123296170Y-91801732D01*
X123456055Y-91932945D01*
X123587268Y-92092830D01*
X123684766Y-92275235D01*
X123684767Y-92275238D01*
X123744807Y-92473164D01*
X123765080Y-92679000D01*
X123744807Y-92884836D01*
X123706282Y-93011836D01*
X123684766Y-93082765D01*
X123587268Y-93265170D01*
X123456055Y-93425055D01*
X123296170Y-93556268D01*
X123113765Y-93653766D01*
X123113762Y-93653767D01*
X122915836Y-93713807D01*
X122838707Y-93721404D01*
X122761580Y-93729000D01*
X122408420Y-93729000D01*
X122331293Y-93721403D01*
X122254164Y-93713807D01*
X122056238Y-93653767D01*
X122056235Y-93653766D01*
X121873830Y-93556268D01*
X121713945Y-93425055D01*
X121582732Y-93265170D01*
X121485234Y-93082765D01*
X121463718Y-93011836D01*
X121425193Y-92884836D01*
X121404920Y-92679000D01*
X121425193Y-92473164D01*
X121485233Y-92275238D01*
X121485234Y-92275235D01*
X121582732Y-92092830D01*
X121713945Y-91932945D01*
X121873830Y-91801732D01*
X122056235Y-91704234D01*
X122056238Y-91704233D01*
X122254164Y-91644193D01*
X122331293Y-91636596D01*
X122408420Y-91629000D01*
X122761580Y-91629000D01*
X122838707Y-91636596D01*
X122838707Y-91636596D01*
G37*
G36*
X148299000Y-93319000D02*
G01*
X143299000Y-93319000D01*
X143299000Y-92119000D01*
X148299000Y-92119000D01*
X148299000Y-93319000D01*
X148299000Y-93319000D01*
G37*
G36*
X183299000Y-93319000D02*
G01*
X178299000Y-93319000D01*
X178299000Y-92119000D01*
X183299000Y-92119000D01*
X183299000Y-93319000D01*
X183299000Y-93319000D01*
G37*
G36*
X98299000Y-93319000D02*
G01*
X93299000Y-93319000D01*
X93299000Y-92119000D01*
X98299000Y-92119000D01*
X98299000Y-93319000D01*
X98299000Y-93319000D01*
G37*
G36*
X133299000Y-93319000D02*
G01*
X128299000Y-93319000D01*
X128299000Y-92119000D01*
X133299000Y-92119000D01*
X133299000Y-93319000D01*
X133299000Y-93319000D01*
G37*
G36*
X175279326Y-89260831D02*
G01*
X175320596Y-89273350D01*
X175358631Y-89293681D01*
X175391964Y-89321036D01*
X175419319Y-89354369D01*
X175439650Y-89392404D01*
X175452169Y-89433674D01*
X175457000Y-89482727D01*
X175457000Y-91129273D01*
X175452169Y-91178326D01*
X175439650Y-91219596D01*
X175419319Y-91257631D01*
X175391964Y-91290964D01*
X175358631Y-91318319D01*
X175320596Y-91338650D01*
X175279326Y-91351169D01*
X175230273Y-91356000D01*
X173333727Y-91356000D01*
X173284674Y-91351169D01*
X173243404Y-91338650D01*
X173205369Y-91318319D01*
X173172036Y-91290964D01*
X173144681Y-91257631D01*
X173124350Y-91219596D01*
X173111831Y-91178326D01*
X173107000Y-91129273D01*
X173107000Y-89482727D01*
X173111831Y-89433674D01*
X173124350Y-89392404D01*
X173144681Y-89354369D01*
X173172036Y-89321036D01*
X173205369Y-89293681D01*
X173243404Y-89273350D01*
X173284674Y-89260831D01*
X173333727Y-89256000D01*
X175230273Y-89256000D01*
X175279326Y-89260831D01*
X175279326Y-89260831D01*
G37*
G36*
X104266707Y-89216596D02*
G01*
X104343836Y-89224193D01*
X104541762Y-89284233D01*
X104541765Y-89284234D01*
X104724170Y-89381732D01*
X104884055Y-89512945D01*
X105015268Y-89672830D01*
X105112766Y-89855235D01*
X105112767Y-89855238D01*
X105172807Y-90053164D01*
X105193080Y-90259000D01*
X105172807Y-90464836D01*
X105112767Y-90662762D01*
X105112766Y-90662765D01*
X105015268Y-90845170D01*
X104884055Y-91005055D01*
X104724170Y-91136268D01*
X104541765Y-91233766D01*
X104541762Y-91233767D01*
X104343836Y-91293807D01*
X104266707Y-91301403D01*
X104189580Y-91309000D01*
X103836420Y-91309000D01*
X103759293Y-91301403D01*
X103682164Y-91293807D01*
X103484238Y-91233767D01*
X103484235Y-91233766D01*
X103301830Y-91136268D01*
X103141945Y-91005055D01*
X103010732Y-90845170D01*
X102913234Y-90662765D01*
X102913233Y-90662762D01*
X102853193Y-90464836D01*
X102832920Y-90259000D01*
X102853193Y-90053164D01*
X102913233Y-89855238D01*
X102913234Y-89855235D01*
X103010732Y-89672830D01*
X103141945Y-89512945D01*
X103301830Y-89381732D01*
X103484235Y-89284234D01*
X103484238Y-89284233D01*
X103682164Y-89224193D01*
X103759293Y-89216596D01*
X103836420Y-89209000D01*
X104189580Y-89209000D01*
X104266707Y-89216596D01*
X104266707Y-89216596D01*
G37*
G36*
X154266707Y-89216596D02*
G01*
X154343836Y-89224193D01*
X154541762Y-89284233D01*
X154541765Y-89284234D01*
X154724170Y-89381732D01*
X154884055Y-89512945D01*
X155015268Y-89672830D01*
X155112766Y-89855235D01*
X155112767Y-89855238D01*
X155172807Y-90053164D01*
X155193080Y-90259000D01*
X155172807Y-90464836D01*
X155112767Y-90662762D01*
X155112766Y-90662765D01*
X155015268Y-90845170D01*
X154884055Y-91005055D01*
X154724170Y-91136268D01*
X154541765Y-91233766D01*
X154541762Y-91233767D01*
X154343836Y-91293807D01*
X154266707Y-91301404D01*
X154189580Y-91309000D01*
X153836420Y-91309000D01*
X153759293Y-91301403D01*
X153682164Y-91293807D01*
X153484238Y-91233767D01*
X153484235Y-91233766D01*
X153301830Y-91136268D01*
X153141945Y-91005055D01*
X153010732Y-90845170D01*
X152913234Y-90662765D01*
X152913233Y-90662762D01*
X152853193Y-90464836D01*
X152832920Y-90259000D01*
X152853193Y-90053164D01*
X152913233Y-89855238D01*
X152913234Y-89855235D01*
X153010732Y-89672830D01*
X153141945Y-89512945D01*
X153301830Y-89381732D01*
X153484235Y-89284234D01*
X153484238Y-89284233D01*
X153682164Y-89224193D01*
X153759293Y-89216596D01*
X153836420Y-89209000D01*
X154189580Y-89209000D01*
X154266707Y-89216596D01*
X154266707Y-89216596D01*
G37*
G36*
X123582326Y-89133831D02*
G01*
X123623596Y-89146350D01*
X123661631Y-89166681D01*
X123694964Y-89194036D01*
X123722319Y-89227369D01*
X123742650Y-89265404D01*
X123755169Y-89306674D01*
X123760000Y-89355727D01*
X123760000Y-91002273D01*
X123755169Y-91051326D01*
X123742650Y-91092596D01*
X123722319Y-91130631D01*
X123694964Y-91163964D01*
X123661631Y-91191319D01*
X123623596Y-91211650D01*
X123582326Y-91224169D01*
X123533273Y-91229000D01*
X121636727Y-91229000D01*
X121587674Y-91224169D01*
X121546404Y-91211650D01*
X121508369Y-91191319D01*
X121475036Y-91163964D01*
X121447681Y-91130631D01*
X121427350Y-91092596D01*
X121414831Y-91051326D01*
X121410000Y-91002273D01*
X121410000Y-89355727D01*
X121414831Y-89306674D01*
X121427350Y-89265404D01*
X121447681Y-89227369D01*
X121475036Y-89194036D01*
X121508369Y-89166681D01*
X121546404Y-89146350D01*
X121587674Y-89133831D01*
X121636727Y-89129000D01*
X123533273Y-89129000D01*
X123582326Y-89133831D01*
X123582326Y-89133831D01*
G37*
G36*
X98299000Y-89819000D02*
G01*
X93299000Y-89819000D01*
X93299000Y-88619000D01*
X98299000Y-88619000D01*
X98299000Y-89819000D01*
X98299000Y-89819000D01*
G37*
G36*
X148299000Y-89819000D02*
G01*
X143299000Y-89819000D01*
X143299000Y-88619000D01*
X148299000Y-88619000D01*
X148299000Y-89819000D01*
X148299000Y-89819000D01*
G37*
G36*
X133299000Y-89819000D02*
G01*
X128299000Y-89819000D01*
X128299000Y-88619000D01*
X133299000Y-88619000D01*
X133299000Y-89819000D01*
X133299000Y-89819000D01*
G37*
G36*
X98299000Y-86319000D02*
G01*
X93299000Y-86319000D01*
X93299000Y-85119000D01*
X98299000Y-85119000D01*
X98299000Y-86319000D01*
X98299000Y-86319000D01*
G37*
G36*
X183299000Y-86319000D02*
G01*
X178299000Y-86319000D01*
X178299000Y-85119000D01*
X183299000Y-85119000D01*
X183299000Y-86319000D01*
X183299000Y-86319000D01*
G37*
G36*
X133299000Y-86319000D02*
G01*
X128299000Y-86319000D01*
X128299000Y-85119000D01*
X133299000Y-85119000D01*
X133299000Y-86319000D01*
X133299000Y-86319000D01*
G37*
G36*
X133299000Y-79119000D02*
G01*
X128299000Y-79119000D01*
X128299000Y-77919000D01*
X133299000Y-77919000D01*
X133299000Y-79119000D01*
X133299000Y-79119000D01*
G37*
G36*
X148299000Y-79119000D02*
G01*
X143299000Y-79119000D01*
X143299000Y-77919000D01*
X148299000Y-77919000D01*
X148299000Y-79119000D01*
X148299000Y-79119000D01*
G37*
G36*
X98299000Y-79119000D02*
G01*
X93299000Y-79119000D01*
X93299000Y-77919000D01*
X98299000Y-77919000D01*
X98299000Y-79119000D01*
X98299000Y-79119000D01*
G37*
G36*
X98299000Y-75619000D02*
G01*
X93299000Y-75619000D01*
X93299000Y-74419000D01*
X98299000Y-74419000D01*
X98299000Y-75619000D01*
X98299000Y-75619000D01*
G37*
G36*
X183299000Y-75619000D02*
G01*
X178299000Y-75619000D01*
X178299000Y-74419000D01*
X183299000Y-74419000D01*
X183299000Y-75619000D01*
X183299000Y-75619000D01*
G37*
G36*
X133299000Y-75619000D02*
G01*
X128299000Y-75619000D01*
X128299000Y-74419000D01*
X133299000Y-74419000D01*
X133299000Y-75619000D01*
X133299000Y-75619000D01*
G37*
G36*
X174535707Y-73063597D02*
G01*
X174612836Y-73071193D01*
X174810762Y-73131233D01*
X174810765Y-73131234D01*
X174993170Y-73228732D01*
X175153055Y-73359945D01*
X175284268Y-73519830D01*
X175381766Y-73702235D01*
X175381767Y-73702238D01*
X175441807Y-73900164D01*
X175462080Y-74106000D01*
X175441807Y-74311836D01*
X175420291Y-74382765D01*
X175381766Y-74509765D01*
X175284268Y-74692170D01*
X175153055Y-74852055D01*
X174993170Y-74983268D01*
X174810765Y-75080766D01*
X174810762Y-75080767D01*
X174612836Y-75140807D01*
X174535707Y-75148404D01*
X174458580Y-75156000D01*
X174105420Y-75156000D01*
X174028293Y-75148404D01*
X173951164Y-75140807D01*
X173753238Y-75080767D01*
X173753235Y-75080766D01*
X173570830Y-74983268D01*
X173410945Y-74852055D01*
X173279732Y-74692170D01*
X173182234Y-74509765D01*
X173143709Y-74382765D01*
X173122193Y-74311836D01*
X173101920Y-74106000D01*
X173122193Y-73900164D01*
X173182233Y-73702238D01*
X173182234Y-73702235D01*
X173279732Y-73519830D01*
X173410945Y-73359945D01*
X173570830Y-73228732D01*
X173753235Y-73131234D01*
X173753238Y-73131233D01*
X173951164Y-73071193D01*
X174028293Y-73063597D01*
X174105420Y-73056000D01*
X174458580Y-73056000D01*
X174535707Y-73063597D01*
X174535707Y-73063597D01*
G37*
G36*
X155010326Y-73013831D02*
G01*
X155051596Y-73026350D01*
X155089631Y-73046681D01*
X155122964Y-73074036D01*
X155150319Y-73107369D01*
X155170650Y-73145404D01*
X155183169Y-73186674D01*
X155188000Y-73235727D01*
X155188000Y-74882273D01*
X155183169Y-74931326D01*
X155170650Y-74972596D01*
X155150319Y-75010631D01*
X155122964Y-75043964D01*
X155089631Y-75071319D01*
X155051596Y-75091650D01*
X155010326Y-75104169D01*
X154961273Y-75109000D01*
X153064727Y-75109000D01*
X153015674Y-75104169D01*
X152974404Y-75091650D01*
X152936369Y-75071319D01*
X152903036Y-75043964D01*
X152875681Y-75010631D01*
X152855350Y-74972596D01*
X152842831Y-74931326D01*
X152838000Y-74882273D01*
X152838000Y-73235727D01*
X152842831Y-73186674D01*
X152855350Y-73145404D01*
X152875681Y-73107369D01*
X152903036Y-73074036D01*
X152936369Y-73046681D01*
X152974404Y-73026350D01*
X153015674Y-73013831D01*
X153064727Y-73009000D01*
X154961273Y-73009000D01*
X155010326Y-73013831D01*
X155010326Y-73013831D01*
G37*
G36*
X105010326Y-73013831D02*
G01*
X105051596Y-73026350D01*
X105089631Y-73046681D01*
X105122964Y-73074036D01*
X105150319Y-73107369D01*
X105170650Y-73145404D01*
X105183169Y-73186674D01*
X105188000Y-73235727D01*
X105188000Y-74882273D01*
X105183169Y-74931326D01*
X105170650Y-74972596D01*
X105150319Y-75010631D01*
X105122964Y-75043964D01*
X105089631Y-75071319D01*
X105051596Y-75091650D01*
X105010326Y-75104169D01*
X104961273Y-75109000D01*
X103064727Y-75109000D01*
X103015674Y-75104169D01*
X102974404Y-75091650D01*
X102936369Y-75071319D01*
X102903036Y-75043964D01*
X102875681Y-75010631D01*
X102855350Y-74972596D01*
X102842831Y-74931326D01*
X102838000Y-74882273D01*
X102838000Y-73235727D01*
X102842831Y-73186674D01*
X102855350Y-73145404D01*
X102875681Y-73107369D01*
X102903036Y-73074036D01*
X102936369Y-73046681D01*
X102974404Y-73026350D01*
X103015674Y-73013831D01*
X103064727Y-73009000D01*
X104961273Y-73009000D01*
X105010326Y-73013831D01*
X105010326Y-73013831D01*
G37*
G36*
X122838707Y-72936597D02*
G01*
X122915836Y-72944193D01*
X123113762Y-73004233D01*
X123113765Y-73004234D01*
X123296170Y-73101732D01*
X123456055Y-73232945D01*
X123587268Y-73392830D01*
X123684766Y-73575235D01*
X123684767Y-73575238D01*
X123744807Y-73773164D01*
X123765080Y-73979000D01*
X123744807Y-74184836D01*
X123706282Y-74311836D01*
X123684766Y-74382765D01*
X123587268Y-74565170D01*
X123456055Y-74725055D01*
X123296170Y-74856268D01*
X123113765Y-74953766D01*
X123113762Y-74953767D01*
X122915836Y-75013807D01*
X122838707Y-75021403D01*
X122761580Y-75029000D01*
X122408420Y-75029000D01*
X122331293Y-75021403D01*
X122254164Y-75013807D01*
X122056238Y-74953767D01*
X122056235Y-74953766D01*
X121873830Y-74856268D01*
X121713945Y-74725055D01*
X121582732Y-74565170D01*
X121485234Y-74382765D01*
X121463718Y-74311836D01*
X121425193Y-74184836D01*
X121404920Y-73979000D01*
X121425193Y-73773164D01*
X121485233Y-73575238D01*
X121485234Y-73575235D01*
X121582732Y-73392830D01*
X121713945Y-73232945D01*
X121873830Y-73101732D01*
X122056235Y-73004234D01*
X122056238Y-73004233D01*
X122254164Y-72944193D01*
X122331293Y-72936597D01*
X122408420Y-72929000D01*
X122761580Y-72929000D01*
X122838707Y-72936597D01*
X122838707Y-72936597D01*
G37*
G36*
X174535707Y-70563596D02*
G01*
X174612836Y-70571193D01*
X174810762Y-70631233D01*
X174810765Y-70631234D01*
X174993170Y-70728732D01*
X175153055Y-70859945D01*
X175284268Y-71019830D01*
X175381766Y-71202235D01*
X175381767Y-71202238D01*
X175441807Y-71400164D01*
X175462080Y-71606000D01*
X175441807Y-71811836D01*
X175420291Y-71882765D01*
X175381766Y-72009765D01*
X175284268Y-72192170D01*
X175153055Y-72352055D01*
X174993170Y-72483268D01*
X174810765Y-72580766D01*
X174810762Y-72580767D01*
X174612836Y-72640807D01*
X174535707Y-72648404D01*
X174458580Y-72656000D01*
X174105420Y-72656000D01*
X174028293Y-72648404D01*
X173951164Y-72640807D01*
X173753238Y-72580767D01*
X173753235Y-72580766D01*
X173570830Y-72483268D01*
X173410945Y-72352055D01*
X173279732Y-72192170D01*
X173182234Y-72009765D01*
X173143709Y-71882765D01*
X173122193Y-71811836D01*
X173101920Y-71606000D01*
X173122193Y-71400164D01*
X173182233Y-71202238D01*
X173182234Y-71202235D01*
X173279732Y-71019830D01*
X173410945Y-70859945D01*
X173570830Y-70728732D01*
X173753235Y-70631234D01*
X173753238Y-70631233D01*
X173951164Y-70571193D01*
X174028293Y-70563596D01*
X174105420Y-70556000D01*
X174458580Y-70556000D01*
X174535707Y-70563596D01*
X174535707Y-70563596D01*
G37*
G36*
X104266707Y-70516596D02*
G01*
X104343836Y-70524193D01*
X104541762Y-70584233D01*
X104541765Y-70584234D01*
X104724170Y-70681732D01*
X104884055Y-70812945D01*
X105015268Y-70972830D01*
X105112766Y-71155235D01*
X105112767Y-71155238D01*
X105172807Y-71353164D01*
X105193080Y-71559000D01*
X105172807Y-71764836D01*
X105112767Y-71962762D01*
X105112766Y-71962765D01*
X105015268Y-72145170D01*
X104884055Y-72305055D01*
X104724170Y-72436268D01*
X104541765Y-72533766D01*
X104541762Y-72533767D01*
X104343836Y-72593807D01*
X104266707Y-72601403D01*
X104189580Y-72609000D01*
X103836420Y-72609000D01*
X103759293Y-72601403D01*
X103682164Y-72593807D01*
X103484238Y-72533767D01*
X103484235Y-72533766D01*
X103301830Y-72436268D01*
X103141945Y-72305055D01*
X103010732Y-72145170D01*
X102913234Y-71962765D01*
X102913233Y-71962762D01*
X102853193Y-71764836D01*
X102832920Y-71559000D01*
X102853193Y-71353164D01*
X102913233Y-71155238D01*
X102913234Y-71155235D01*
X103010732Y-70972830D01*
X103141945Y-70812945D01*
X103301830Y-70681732D01*
X103484235Y-70584234D01*
X103484238Y-70584233D01*
X103682164Y-70524193D01*
X103759293Y-70516596D01*
X103836420Y-70509000D01*
X104189580Y-70509000D01*
X104266707Y-70516596D01*
X104266707Y-70516596D01*
G37*
G36*
X154266707Y-70516596D02*
G01*
X154343836Y-70524193D01*
X154541762Y-70584233D01*
X154541765Y-70584234D01*
X154724170Y-70681732D01*
X154884055Y-70812945D01*
X155015268Y-70972830D01*
X155112766Y-71155235D01*
X155112767Y-71155238D01*
X155172807Y-71353164D01*
X155193080Y-71559000D01*
X155172807Y-71764836D01*
X155112767Y-71962762D01*
X155112766Y-71962765D01*
X155015268Y-72145170D01*
X154884055Y-72305055D01*
X154724170Y-72436268D01*
X154541765Y-72533766D01*
X154541762Y-72533767D01*
X154343836Y-72593807D01*
X154266707Y-72601403D01*
X154189580Y-72609000D01*
X153836420Y-72609000D01*
X153759293Y-72601403D01*
X153682164Y-72593807D01*
X153484238Y-72533767D01*
X153484235Y-72533766D01*
X153301830Y-72436268D01*
X153141945Y-72305055D01*
X153010732Y-72145170D01*
X152913234Y-71962765D01*
X152913233Y-71962762D01*
X152853193Y-71764836D01*
X152832920Y-71559000D01*
X152853193Y-71353164D01*
X152913233Y-71155238D01*
X152913234Y-71155235D01*
X153010732Y-70972830D01*
X153141945Y-70812945D01*
X153301830Y-70681732D01*
X153484235Y-70584234D01*
X153484238Y-70584233D01*
X153682164Y-70524193D01*
X153759293Y-70516596D01*
X153836420Y-70509000D01*
X154189580Y-70509000D01*
X154266707Y-70516596D01*
X154266707Y-70516596D01*
G37*
G36*
X122838707Y-70436597D02*
G01*
X122915836Y-70444193D01*
X123113762Y-70504233D01*
X123113765Y-70504234D01*
X123296170Y-70601732D01*
X123456055Y-70732945D01*
X123587268Y-70892830D01*
X123684766Y-71075235D01*
X123684767Y-71075238D01*
X123744807Y-71273164D01*
X123765080Y-71479000D01*
X123744807Y-71684836D01*
X123706282Y-71811836D01*
X123684766Y-71882765D01*
X123587268Y-72065170D01*
X123456055Y-72225055D01*
X123296170Y-72356268D01*
X123113765Y-72453766D01*
X123113762Y-72453767D01*
X122915836Y-72513807D01*
X122838707Y-72521404D01*
X122761580Y-72529000D01*
X122408420Y-72529000D01*
X122331293Y-72521404D01*
X122254164Y-72513807D01*
X122056238Y-72453767D01*
X122056235Y-72453766D01*
X121873830Y-72356268D01*
X121713945Y-72225055D01*
X121582732Y-72065170D01*
X121485234Y-71882765D01*
X121463718Y-71811836D01*
X121425193Y-71684836D01*
X121404920Y-71479000D01*
X121425193Y-71273164D01*
X121485233Y-71075238D01*
X121485234Y-71075235D01*
X121582732Y-70892830D01*
X121713945Y-70732945D01*
X121873830Y-70601732D01*
X122056235Y-70504234D01*
X122056238Y-70504233D01*
X122254164Y-70444193D01*
X122331293Y-70436597D01*
X122408420Y-70429000D01*
X122761580Y-70429000D01*
X122838707Y-70436597D01*
X122838707Y-70436597D01*
G37*
G36*
X183299000Y-72119000D02*
G01*
X178299000Y-72119000D01*
X178299000Y-70919000D01*
X183299000Y-70919000D01*
X183299000Y-72119000D01*
X183299000Y-72119000D01*
G37*
G36*
X148299000Y-72119000D02*
G01*
X143299000Y-72119000D01*
X143299000Y-70919000D01*
X148299000Y-70919000D01*
X148299000Y-72119000D01*
X148299000Y-72119000D01*
G37*
G36*
X133299000Y-72119000D02*
G01*
X128299000Y-72119000D01*
X128299000Y-70919000D01*
X133299000Y-70919000D01*
X133299000Y-72119000D01*
X133299000Y-72119000D01*
G37*
G36*
X98299000Y-72119000D02*
G01*
X93299000Y-72119000D01*
X93299000Y-70919000D01*
X98299000Y-70919000D01*
X98299000Y-72119000D01*
X98299000Y-72119000D01*
G37*
G36*
X175279326Y-68060831D02*
G01*
X175320596Y-68073350D01*
X175358631Y-68093681D01*
X175391964Y-68121036D01*
X175419319Y-68154369D01*
X175439650Y-68192404D01*
X175452169Y-68233674D01*
X175457000Y-68282727D01*
X175457000Y-69929273D01*
X175452169Y-69978326D01*
X175439650Y-70019596D01*
X175419319Y-70057631D01*
X175391964Y-70090964D01*
X175358631Y-70118319D01*
X175320596Y-70138650D01*
X175279326Y-70151169D01*
X175230273Y-70156000D01*
X173333727Y-70156000D01*
X173284674Y-70151169D01*
X173243404Y-70138650D01*
X173205369Y-70118319D01*
X173172036Y-70090964D01*
X173144681Y-70057631D01*
X173124350Y-70019596D01*
X173111831Y-69978326D01*
X173107000Y-69929273D01*
X173107000Y-68282727D01*
X173111831Y-68233674D01*
X173124350Y-68192404D01*
X173144681Y-68154369D01*
X173172036Y-68121036D01*
X173205369Y-68093681D01*
X173243404Y-68073350D01*
X173284674Y-68060831D01*
X173333727Y-68056000D01*
X175230273Y-68056000D01*
X175279326Y-68060831D01*
X175279326Y-68060831D01*
G37*
G36*
X154266707Y-68016596D02*
G01*
X154343836Y-68024193D01*
X154541762Y-68084233D01*
X154541765Y-68084234D01*
X154724170Y-68181732D01*
X154884055Y-68312945D01*
X155015268Y-68472830D01*
X155112766Y-68655235D01*
X155112767Y-68655238D01*
X155172807Y-68853164D01*
X155193080Y-69059000D01*
X155172807Y-69264836D01*
X155112767Y-69462762D01*
X155112766Y-69462765D01*
X155015268Y-69645170D01*
X154884055Y-69805055D01*
X154724170Y-69936268D01*
X154541765Y-70033766D01*
X154541762Y-70033767D01*
X154343836Y-70093807D01*
X154266707Y-70101403D01*
X154189580Y-70109000D01*
X153836420Y-70109000D01*
X153759293Y-70101403D01*
X153682164Y-70093807D01*
X153484238Y-70033767D01*
X153484235Y-70033766D01*
X153301830Y-69936268D01*
X153141945Y-69805055D01*
X153010732Y-69645170D01*
X152913234Y-69462765D01*
X152913233Y-69462762D01*
X152853193Y-69264836D01*
X152832920Y-69059000D01*
X152853193Y-68853164D01*
X152913233Y-68655238D01*
X152913234Y-68655235D01*
X153010732Y-68472830D01*
X153141945Y-68312945D01*
X153301830Y-68181732D01*
X153484235Y-68084234D01*
X153484238Y-68084233D01*
X153682164Y-68024193D01*
X153759293Y-68016596D01*
X153836420Y-68009000D01*
X154189580Y-68009000D01*
X154266707Y-68016596D01*
X154266707Y-68016596D01*
G37*
G36*
X104266707Y-68016596D02*
G01*
X104343836Y-68024193D01*
X104541762Y-68084233D01*
X104541765Y-68084234D01*
X104724170Y-68181732D01*
X104884055Y-68312945D01*
X105015268Y-68472830D01*
X105112766Y-68655235D01*
X105112767Y-68655238D01*
X105172807Y-68853164D01*
X105193080Y-69059000D01*
X105172807Y-69264836D01*
X105112767Y-69462762D01*
X105112766Y-69462765D01*
X105015268Y-69645170D01*
X104884055Y-69805055D01*
X104724170Y-69936268D01*
X104541765Y-70033766D01*
X104541762Y-70033767D01*
X104343836Y-70093807D01*
X104266707Y-70101403D01*
X104189580Y-70109000D01*
X103836420Y-70109000D01*
X103759293Y-70101403D01*
X103682164Y-70093807D01*
X103484238Y-70033767D01*
X103484235Y-70033766D01*
X103301830Y-69936268D01*
X103141945Y-69805055D01*
X103010732Y-69645170D01*
X102913234Y-69462765D01*
X102913233Y-69462762D01*
X102853193Y-69264836D01*
X102832920Y-69059000D01*
X102853193Y-68853164D01*
X102913233Y-68655238D01*
X102913234Y-68655235D01*
X103010732Y-68472830D01*
X103141945Y-68312945D01*
X103301830Y-68181732D01*
X103484235Y-68084234D01*
X103484238Y-68084233D01*
X103682164Y-68024193D01*
X103759293Y-68016596D01*
X103836420Y-68009000D01*
X104189580Y-68009000D01*
X104266707Y-68016596D01*
X104266707Y-68016596D01*
G37*
G36*
X123582326Y-67933831D02*
G01*
X123623596Y-67946350D01*
X123661631Y-67966681D01*
X123694964Y-67994036D01*
X123722319Y-68027369D01*
X123742650Y-68065404D01*
X123755169Y-68106674D01*
X123760000Y-68155727D01*
X123760000Y-69802273D01*
X123755169Y-69851326D01*
X123742650Y-69892596D01*
X123722319Y-69930631D01*
X123694964Y-69963964D01*
X123661631Y-69991319D01*
X123623596Y-70011650D01*
X123582326Y-70024169D01*
X123533273Y-70029000D01*
X121636727Y-70029000D01*
X121587674Y-70024169D01*
X121546404Y-70011650D01*
X121508369Y-69991319D01*
X121475036Y-69963964D01*
X121447681Y-69930631D01*
X121427350Y-69892596D01*
X121414831Y-69851326D01*
X121410000Y-69802273D01*
X121410000Y-68155727D01*
X121414831Y-68106674D01*
X121427350Y-68065404D01*
X121447681Y-68027369D01*
X121475036Y-67994036D01*
X121508369Y-67966681D01*
X121546404Y-67946350D01*
X121587674Y-67933831D01*
X121636727Y-67929000D01*
X123533273Y-67929000D01*
X123582326Y-67933831D01*
X123582326Y-67933831D01*
G37*
G36*
X148299000Y-68619000D02*
G01*
X143299000Y-68619000D01*
X143299000Y-67419000D01*
X148299000Y-67419000D01*
X148299000Y-68619000D01*
X148299000Y-68619000D01*
G37*
G36*
X133299000Y-68619000D02*
G01*
X128299000Y-68619000D01*
X128299000Y-67419000D01*
X133299000Y-67419000D01*
X133299000Y-68619000D01*
X133299000Y-68619000D01*
G37*
G36*
X98299000Y-68619000D02*
G01*
X93299000Y-68619000D01*
X93299000Y-67419000D01*
X98299000Y-67419000D01*
X98299000Y-68619000D01*
X98299000Y-68619000D01*
G37*
G36*
X183299000Y-65119000D02*
G01*
X178299000Y-65119000D01*
X178299000Y-63919000D01*
X183299000Y-63919000D01*
X183299000Y-65119000D01*
X183299000Y-65119000D01*
G37*
G36*
X98299000Y-65119000D02*
G01*
X93299000Y-65119000D01*
X93299000Y-63919000D01*
X98299000Y-63919000D01*
X98299000Y-65119000D01*
X98299000Y-65119000D01*
G37*
G36*
X133299000Y-65119000D02*
G01*
X128299000Y-65119000D01*
X128299000Y-63919000D01*
X133299000Y-63919000D01*
X133299000Y-65119000D01*
X133299000Y-65119000D01*
G37*
G36*
X98299000Y-57919000D02*
G01*
X93299000Y-57919000D01*
X93299000Y-56719000D01*
X98299000Y-56719000D01*
X98299000Y-57919000D01*
X98299000Y-57919000D01*
G37*
G36*
X148299000Y-57919000D02*
G01*
X143299000Y-57919000D01*
X143299000Y-56719000D01*
X148299000Y-56719000D01*
X148299000Y-57919000D01*
X148299000Y-57919000D01*
G37*
G36*
X133299000Y-57919000D02*
G01*
X128299000Y-57919000D01*
X128299000Y-56719000D01*
X133299000Y-56719000D01*
X133299000Y-57919000D01*
X133299000Y-57919000D01*
G37*
G36*
X98299000Y-54419000D02*
G01*
X93299000Y-54419000D01*
X93299000Y-53219000D01*
X98299000Y-53219000D01*
X98299000Y-54419000D01*
X98299000Y-54419000D01*
G37*
G36*
X133299000Y-54419000D02*
G01*
X128299000Y-54419000D01*
X128299000Y-53219000D01*
X133299000Y-53219000D01*
X133299000Y-54419000D01*
X133299000Y-54419000D01*
G37*
G36*
X183299000Y-54419000D02*
G01*
X178299000Y-54419000D01*
X178299000Y-53219000D01*
X183299000Y-53219000D01*
X183299000Y-54419000D01*
X183299000Y-54419000D01*
G37*
G36*
X174535707Y-51863597D02*
G01*
X174612836Y-51871193D01*
X174810762Y-51931233D01*
X174810765Y-51931234D01*
X174993170Y-52028732D01*
X175153055Y-52159945D01*
X175284268Y-52319830D01*
X175381766Y-52502235D01*
X175381767Y-52502238D01*
X175441807Y-52700164D01*
X175462080Y-52906000D01*
X175441807Y-53111836D01*
X175420291Y-53182765D01*
X175381766Y-53309765D01*
X175284268Y-53492170D01*
X175153055Y-53652055D01*
X174993170Y-53783268D01*
X174810765Y-53880766D01*
X174810762Y-53880767D01*
X174612836Y-53940807D01*
X174535707Y-53948404D01*
X174458580Y-53956000D01*
X174105420Y-53956000D01*
X174028293Y-53948404D01*
X173951164Y-53940807D01*
X173753238Y-53880767D01*
X173753235Y-53880766D01*
X173570830Y-53783268D01*
X173410945Y-53652055D01*
X173279732Y-53492170D01*
X173182234Y-53309765D01*
X173143709Y-53182765D01*
X173122193Y-53111836D01*
X173101920Y-52906000D01*
X173122193Y-52700164D01*
X173182233Y-52502238D01*
X173182234Y-52502235D01*
X173279732Y-52319830D01*
X173410945Y-52159945D01*
X173570830Y-52028732D01*
X173753235Y-51931234D01*
X173753238Y-51931233D01*
X173951164Y-51871193D01*
X174028293Y-51863596D01*
X174105420Y-51856000D01*
X174458580Y-51856000D01*
X174535707Y-51863597D01*
X174535707Y-51863597D01*
G37*
G36*
X105010326Y-51813831D02*
G01*
X105051596Y-51826350D01*
X105089631Y-51846681D01*
X105122964Y-51874036D01*
X105150319Y-51907369D01*
X105170650Y-51945404D01*
X105183169Y-51986674D01*
X105188000Y-52035727D01*
X105188000Y-53682273D01*
X105183169Y-53731326D01*
X105170650Y-53772596D01*
X105150319Y-53810631D01*
X105122964Y-53843964D01*
X105089631Y-53871319D01*
X105051596Y-53891650D01*
X105010326Y-53904169D01*
X104961273Y-53909000D01*
X103064727Y-53909000D01*
X103015674Y-53904169D01*
X102974404Y-53891650D01*
X102936369Y-53871319D01*
X102903036Y-53843964D01*
X102875681Y-53810631D01*
X102855350Y-53772596D01*
X102842831Y-53731326D01*
X102838000Y-53682273D01*
X102838000Y-52035727D01*
X102842831Y-51986674D01*
X102855350Y-51945404D01*
X102875681Y-51907369D01*
X102903036Y-51874036D01*
X102936369Y-51846681D01*
X102974404Y-51826350D01*
X103015674Y-51813831D01*
X103064727Y-51809000D01*
X104961273Y-51809000D01*
X105010326Y-51813831D01*
X105010326Y-51813831D01*
G37*
G36*
X155010326Y-51813831D02*
G01*
X155051596Y-51826350D01*
X155089631Y-51846681D01*
X155122964Y-51874036D01*
X155150319Y-51907369D01*
X155170650Y-51945404D01*
X155183169Y-51986674D01*
X155188000Y-52035727D01*
X155188000Y-53682273D01*
X155183169Y-53731326D01*
X155170650Y-53772596D01*
X155150319Y-53810631D01*
X155122964Y-53843964D01*
X155089631Y-53871319D01*
X155051596Y-53891650D01*
X155010326Y-53904169D01*
X154961273Y-53909000D01*
X153064727Y-53909000D01*
X153015674Y-53904169D01*
X152974404Y-53891650D01*
X152936369Y-53871319D01*
X152903036Y-53843964D01*
X152875681Y-53810631D01*
X152855350Y-53772596D01*
X152842831Y-53731326D01*
X152838000Y-53682273D01*
X152838000Y-52035727D01*
X152842831Y-51986674D01*
X152855350Y-51945404D01*
X152875681Y-51907369D01*
X152903036Y-51874036D01*
X152936369Y-51846681D01*
X152974404Y-51826350D01*
X153015674Y-51813831D01*
X153064727Y-51809000D01*
X154961273Y-51809000D01*
X155010326Y-51813831D01*
X155010326Y-51813831D01*
G37*
G36*
X122838707Y-51736597D02*
G01*
X122915836Y-51744193D01*
X123113762Y-51804233D01*
X123113765Y-51804234D01*
X123296170Y-51901732D01*
X123456055Y-52032945D01*
X123587268Y-52192830D01*
X123684766Y-52375235D01*
X123684767Y-52375238D01*
X123744807Y-52573164D01*
X123765080Y-52779000D01*
X123744807Y-52984836D01*
X123706282Y-53111836D01*
X123684766Y-53182765D01*
X123587268Y-53365170D01*
X123456055Y-53525055D01*
X123296170Y-53656268D01*
X123113765Y-53753766D01*
X123113762Y-53753767D01*
X122915836Y-53813807D01*
X122838707Y-53821404D01*
X122761580Y-53829000D01*
X122408420Y-53829000D01*
X122331293Y-53821404D01*
X122254164Y-53813807D01*
X122056238Y-53753767D01*
X122056235Y-53753766D01*
X121873830Y-53656268D01*
X121713945Y-53525055D01*
X121582732Y-53365170D01*
X121485234Y-53182765D01*
X121463718Y-53111836D01*
X121425193Y-52984836D01*
X121404920Y-52779000D01*
X121425193Y-52573164D01*
X121485233Y-52375238D01*
X121485234Y-52375235D01*
X121582732Y-52192830D01*
X121713945Y-52032945D01*
X121873830Y-51901732D01*
X122056235Y-51804234D01*
X122056238Y-51804233D01*
X122254164Y-51744193D01*
X122331293Y-51736597D01*
X122408420Y-51729000D01*
X122761580Y-51729000D01*
X122838707Y-51736597D01*
X122838707Y-51736597D01*
G37*
G36*
X174535707Y-49363596D02*
G01*
X174612836Y-49371193D01*
X174810762Y-49431233D01*
X174810765Y-49431234D01*
X174993170Y-49528732D01*
X175153055Y-49659945D01*
X175284268Y-49819830D01*
X175381766Y-50002235D01*
X175381767Y-50002238D01*
X175441807Y-50200164D01*
X175462080Y-50406000D01*
X175441807Y-50611836D01*
X175420291Y-50682765D01*
X175381766Y-50809765D01*
X175284268Y-50992170D01*
X175153055Y-51152055D01*
X174993170Y-51283268D01*
X174810765Y-51380766D01*
X174810762Y-51380767D01*
X174612836Y-51440807D01*
X174535707Y-51448403D01*
X174458580Y-51456000D01*
X174105420Y-51456000D01*
X174028293Y-51448404D01*
X173951164Y-51440807D01*
X173753238Y-51380767D01*
X173753235Y-51380766D01*
X173570830Y-51283268D01*
X173410945Y-51152055D01*
X173279732Y-50992170D01*
X173182234Y-50809765D01*
X173143709Y-50682765D01*
X173122193Y-50611836D01*
X173101920Y-50406000D01*
X173122193Y-50200164D01*
X173182233Y-50002238D01*
X173182234Y-50002235D01*
X173279732Y-49819830D01*
X173410945Y-49659945D01*
X173570830Y-49528732D01*
X173753235Y-49431234D01*
X173753238Y-49431233D01*
X173951164Y-49371193D01*
X174028293Y-49363596D01*
X174105420Y-49356000D01*
X174458580Y-49356000D01*
X174535707Y-49363596D01*
X174535707Y-49363596D01*
G37*
G36*
X104266707Y-49316596D02*
G01*
X104343836Y-49324193D01*
X104541762Y-49384233D01*
X104541765Y-49384234D01*
X104724170Y-49481732D01*
X104884055Y-49612945D01*
X105015268Y-49772830D01*
X105112766Y-49955235D01*
X105112767Y-49955238D01*
X105172807Y-50153164D01*
X105193080Y-50359000D01*
X105172807Y-50564836D01*
X105112767Y-50762762D01*
X105112766Y-50762765D01*
X105015268Y-50945170D01*
X104884055Y-51105055D01*
X104724170Y-51236268D01*
X104541765Y-51333766D01*
X104541762Y-51333767D01*
X104343836Y-51393807D01*
X104266707Y-51401404D01*
X104189580Y-51409000D01*
X103836420Y-51409000D01*
X103759293Y-51401404D01*
X103682164Y-51393807D01*
X103484238Y-51333767D01*
X103484235Y-51333766D01*
X103301830Y-51236268D01*
X103141945Y-51105055D01*
X103010732Y-50945170D01*
X102913234Y-50762765D01*
X102913233Y-50762762D01*
X102853193Y-50564836D01*
X102832920Y-50359000D01*
X102853193Y-50153164D01*
X102913233Y-49955238D01*
X102913234Y-49955235D01*
X103010732Y-49772830D01*
X103141945Y-49612945D01*
X103301830Y-49481732D01*
X103484235Y-49384234D01*
X103484238Y-49384233D01*
X103682164Y-49324193D01*
X103759293Y-49316596D01*
X103836420Y-49309000D01*
X104189580Y-49309000D01*
X104266707Y-49316596D01*
X104266707Y-49316596D01*
G37*
G36*
X154266707Y-49316596D02*
G01*
X154343836Y-49324193D01*
X154541762Y-49384233D01*
X154541765Y-49384234D01*
X154724170Y-49481732D01*
X154884055Y-49612945D01*
X155015268Y-49772830D01*
X155112766Y-49955235D01*
X155112767Y-49955238D01*
X155172807Y-50153164D01*
X155193080Y-50359000D01*
X155172807Y-50564836D01*
X155112767Y-50762762D01*
X155112766Y-50762765D01*
X155015268Y-50945170D01*
X154884055Y-51105055D01*
X154724170Y-51236268D01*
X154541765Y-51333766D01*
X154541762Y-51333767D01*
X154343836Y-51393807D01*
X154266707Y-51401404D01*
X154189580Y-51409000D01*
X153836420Y-51409000D01*
X153759293Y-51401404D01*
X153682164Y-51393807D01*
X153484238Y-51333767D01*
X153484235Y-51333766D01*
X153301830Y-51236268D01*
X153141945Y-51105055D01*
X153010732Y-50945170D01*
X152913234Y-50762765D01*
X152913233Y-50762762D01*
X152853193Y-50564836D01*
X152832920Y-50359000D01*
X152853193Y-50153164D01*
X152913233Y-49955238D01*
X152913234Y-49955235D01*
X153010732Y-49772830D01*
X153141945Y-49612945D01*
X153301830Y-49481732D01*
X153484235Y-49384234D01*
X153484238Y-49384233D01*
X153682164Y-49324193D01*
X153759293Y-49316596D01*
X153836420Y-49309000D01*
X154189580Y-49309000D01*
X154266707Y-49316596D01*
X154266707Y-49316596D01*
G37*
G36*
X122838707Y-49236597D02*
G01*
X122915836Y-49244193D01*
X123113762Y-49304233D01*
X123113765Y-49304234D01*
X123296170Y-49401732D01*
X123456055Y-49532945D01*
X123587268Y-49692830D01*
X123684766Y-49875235D01*
X123684767Y-49875238D01*
X123744807Y-50073164D01*
X123765080Y-50279000D01*
X123744807Y-50484836D01*
X123706282Y-50611836D01*
X123684766Y-50682765D01*
X123587268Y-50865170D01*
X123456055Y-51025055D01*
X123296170Y-51156268D01*
X123113765Y-51253766D01*
X123113762Y-51253767D01*
X122915836Y-51313807D01*
X122838707Y-51321403D01*
X122761580Y-51329000D01*
X122408420Y-51329000D01*
X122331293Y-51321404D01*
X122254164Y-51313807D01*
X122056238Y-51253767D01*
X122056235Y-51253766D01*
X121873830Y-51156268D01*
X121713945Y-51025055D01*
X121582732Y-50865170D01*
X121485234Y-50682765D01*
X121463718Y-50611836D01*
X121425193Y-50484836D01*
X121404920Y-50279000D01*
X121425193Y-50073164D01*
X121485233Y-49875238D01*
X121485234Y-49875235D01*
X121582732Y-49692830D01*
X121713945Y-49532945D01*
X121873830Y-49401732D01*
X122056235Y-49304234D01*
X122056238Y-49304233D01*
X122254164Y-49244193D01*
X122331293Y-49236597D01*
X122408420Y-49229000D01*
X122761580Y-49229000D01*
X122838707Y-49236597D01*
X122838707Y-49236597D01*
G37*
G36*
X133299000Y-50919000D02*
G01*
X128299000Y-50919000D01*
X128299000Y-49719000D01*
X133299000Y-49719000D01*
X133299000Y-50919000D01*
X133299000Y-50919000D01*
G37*
G36*
X98299000Y-50919000D02*
G01*
X93299000Y-50919000D01*
X93299000Y-49719000D01*
X98299000Y-49719000D01*
X98299000Y-50919000D01*
X98299000Y-50919000D01*
G37*
G36*
X148299000Y-50919000D02*
G01*
X143299000Y-50919000D01*
X143299000Y-49719000D01*
X148299000Y-49719000D01*
X148299000Y-50919000D01*
X148299000Y-50919000D01*
G37*
G36*
X183299000Y-50919000D02*
G01*
X178299000Y-50919000D01*
X178299000Y-49719000D01*
X183299000Y-49719000D01*
X183299000Y-50919000D01*
X183299000Y-50919000D01*
G37*
G36*
X175279326Y-46860831D02*
G01*
X175320596Y-46873350D01*
X175358631Y-46893681D01*
X175391964Y-46921036D01*
X175419319Y-46954369D01*
X175439650Y-46992404D01*
X175452169Y-47033674D01*
X175457000Y-47082727D01*
X175457000Y-48729273D01*
X175452169Y-48778326D01*
X175439650Y-48819596D01*
X175419319Y-48857631D01*
X175391964Y-48890964D01*
X175358631Y-48918319D01*
X175320596Y-48938650D01*
X175279326Y-48951169D01*
X175230273Y-48956000D01*
X173333727Y-48956000D01*
X173284674Y-48951169D01*
X173243404Y-48938650D01*
X173205369Y-48918319D01*
X173172036Y-48890964D01*
X173144681Y-48857631D01*
X173124350Y-48819596D01*
X173111831Y-48778326D01*
X173107000Y-48729273D01*
X173107000Y-47082727D01*
X173111831Y-47033674D01*
X173124350Y-46992404D01*
X173144681Y-46954369D01*
X173172036Y-46921036D01*
X173205369Y-46893681D01*
X173243404Y-46873350D01*
X173284674Y-46860831D01*
X173333727Y-46856000D01*
X175230273Y-46856000D01*
X175279326Y-46860831D01*
X175279326Y-46860831D01*
G37*
G36*
X104266707Y-46816596D02*
G01*
X104343836Y-46824193D01*
X104541762Y-46884233D01*
X104541765Y-46884234D01*
X104724170Y-46981732D01*
X104884055Y-47112945D01*
X105015268Y-47272830D01*
X105112766Y-47455235D01*
X105112767Y-47455238D01*
X105172807Y-47653164D01*
X105193080Y-47859000D01*
X105172807Y-48064836D01*
X105112767Y-48262762D01*
X105112766Y-48262765D01*
X105015268Y-48445170D01*
X104884055Y-48605055D01*
X104724170Y-48736268D01*
X104541765Y-48833766D01*
X104541762Y-48833767D01*
X104343836Y-48893807D01*
X104266707Y-48901403D01*
X104189580Y-48909000D01*
X103836420Y-48909000D01*
X103759293Y-48901403D01*
X103682164Y-48893807D01*
X103484238Y-48833767D01*
X103484235Y-48833766D01*
X103301830Y-48736268D01*
X103141945Y-48605055D01*
X103010732Y-48445170D01*
X102913234Y-48262765D01*
X102913233Y-48262762D01*
X102853193Y-48064836D01*
X102832920Y-47859000D01*
X102853193Y-47653164D01*
X102913233Y-47455238D01*
X102913234Y-47455235D01*
X103010732Y-47272830D01*
X103141945Y-47112945D01*
X103301830Y-46981732D01*
X103484235Y-46884234D01*
X103484238Y-46884233D01*
X103682164Y-46824193D01*
X103759293Y-46816597D01*
X103836420Y-46809000D01*
X104189580Y-46809000D01*
X104266707Y-46816596D01*
X104266707Y-46816596D01*
G37*
G36*
X154266707Y-46816596D02*
G01*
X154343836Y-46824193D01*
X154541762Y-46884233D01*
X154541765Y-46884234D01*
X154724170Y-46981732D01*
X154884055Y-47112945D01*
X155015268Y-47272830D01*
X155112766Y-47455235D01*
X155112767Y-47455238D01*
X155172807Y-47653164D01*
X155193080Y-47859000D01*
X155172807Y-48064836D01*
X155112767Y-48262762D01*
X155112766Y-48262765D01*
X155015268Y-48445170D01*
X154884055Y-48605055D01*
X154724170Y-48736268D01*
X154541765Y-48833766D01*
X154541762Y-48833767D01*
X154343836Y-48893807D01*
X154266707Y-48901403D01*
X154189580Y-48909000D01*
X153836420Y-48909000D01*
X153759293Y-48901403D01*
X153682164Y-48893807D01*
X153484238Y-48833767D01*
X153484235Y-48833766D01*
X153301830Y-48736268D01*
X153141945Y-48605055D01*
X153010732Y-48445170D01*
X152913234Y-48262765D01*
X152913233Y-48262762D01*
X152853193Y-48064836D01*
X152832920Y-47859000D01*
X152853193Y-47653164D01*
X152913233Y-47455238D01*
X152913234Y-47455235D01*
X153010732Y-47272830D01*
X153141945Y-47112945D01*
X153301830Y-46981732D01*
X153484235Y-46884234D01*
X153484238Y-46884233D01*
X153682164Y-46824193D01*
X153759293Y-46816597D01*
X153836420Y-46809000D01*
X154189580Y-46809000D01*
X154266707Y-46816596D01*
X154266707Y-46816596D01*
G37*
G36*
X123582326Y-46733831D02*
G01*
X123623596Y-46746350D01*
X123661631Y-46766681D01*
X123694964Y-46794036D01*
X123722319Y-46827369D01*
X123742650Y-46865404D01*
X123755169Y-46906674D01*
X123760000Y-46955727D01*
X123760000Y-48602273D01*
X123755169Y-48651326D01*
X123742650Y-48692596D01*
X123722319Y-48730631D01*
X123694964Y-48763964D01*
X123661631Y-48791319D01*
X123623596Y-48811650D01*
X123582326Y-48824169D01*
X123533273Y-48829000D01*
X121636727Y-48829000D01*
X121587674Y-48824169D01*
X121546404Y-48811650D01*
X121508369Y-48791319D01*
X121475036Y-48763964D01*
X121447681Y-48730631D01*
X121427350Y-48692596D01*
X121414831Y-48651326D01*
X121410000Y-48602273D01*
X121410000Y-46955727D01*
X121414831Y-46906674D01*
X121427350Y-46865404D01*
X121447681Y-46827369D01*
X121475036Y-46794036D01*
X121508369Y-46766681D01*
X121546404Y-46746350D01*
X121587674Y-46733831D01*
X121636727Y-46729000D01*
X123533273Y-46729000D01*
X123582326Y-46733831D01*
X123582326Y-46733831D01*
G37*
G36*
X98299000Y-47419000D02*
G01*
X93299000Y-47419000D01*
X93299000Y-46219000D01*
X98299000Y-46219000D01*
X98299000Y-47419000D01*
X98299000Y-47419000D01*
G37*
G36*
X148299000Y-47419000D02*
G01*
X143299000Y-47419000D01*
X143299000Y-46219000D01*
X148299000Y-46219000D01*
X148299000Y-47419000D01*
X148299000Y-47419000D01*
G37*
G36*
X133299000Y-47419000D02*
G01*
X128299000Y-47419000D01*
X128299000Y-46219000D01*
X133299000Y-46219000D01*
X133299000Y-47419000D01*
X133299000Y-47419000D01*
G37*
G36*
X183299000Y-43919000D02*
G01*
X178299000Y-43919000D01*
X178299000Y-42719000D01*
X183299000Y-42719000D01*
X183299000Y-43919000D01*
X183299000Y-43919000D01*
G37*
G36*
X133299000Y-43919000D02*
G01*
X128299000Y-43919000D01*
X128299000Y-42719000D01*
X133299000Y-42719000D01*
X133299000Y-43919000D01*
X133299000Y-43919000D01*
G37*
G36*
X98299000Y-43919000D02*
G01*
X93299000Y-43919000D01*
X93299000Y-42719000D01*
X98299000Y-42719000D01*
X98299000Y-43919000D01*
X98299000Y-43919000D01*
G37*
M02*
