M48
; DRILL file {KiCad (5.1.0)-1} date 6/8/2019 7:04:22 PM
; FORMAT={-:-/ absolute / inch / decimal}
; #@! TF.CreationDate,2019-06-08T19:04:22-04:00
; #@! TF.GenerationSoftware,Kicad,Pcbnew,(5.1.0)-1
FMAT,2
INCH
T1C0.0120
T2C0.0374
%
G90
G05
T1
X3.9094Y-1.7055
X3.9094Y-1.8433
X3.9094Y-1.9811
X3.9094Y-2.1189
X3.9094Y-2.2567
X3.9094Y-2.5401
X3.9094Y-2.6779
X3.9094Y-2.8157
X3.9094Y-2.9535
X3.9094Y-3.0913
X3.9094Y-3.3748
X3.9094Y-3.5126
X3.9094Y-3.6504
X3.9094Y-3.7881
X3.9094Y-3.9259
X3.9094Y-4.2094
X3.9094Y-4.3472
X3.9094Y-4.485
X3.9094Y-4.6228
X3.9094Y-4.7606
X5.0118Y-1.7055
X5.0118Y-1.8433
X5.0118Y-1.9811
X5.0118Y-2.1189
X5.0118Y-2.2567
X5.0118Y-2.5401
X5.0118Y-2.6779
X5.0118Y-2.8157
X5.0118Y-2.9535
X5.0118Y-3.0913
X5.0118Y-3.3748
X5.0118Y-3.5126
X5.0118Y-3.6504
X5.0118Y-3.7881
X5.0118Y-3.9259
X5.0118Y-4.2094
X5.0118Y-4.3472
X5.0118Y-4.485
X5.0118Y-4.6228
X5.0118Y-4.7606
X5.8779Y-1.8433
X5.8779Y-1.9811
X5.8779Y-2.2567
X5.8779Y-2.6779
X5.8779Y-2.8157
X5.8779Y-3.0913
X5.8779Y-3.5126
X5.8779Y-3.6504
X5.8779Y-3.9259
X5.8779Y-4.3472
X5.8779Y-4.485
X5.8779Y-4.7606
X6.9803Y-1.7055
X6.9803Y-1.9811
X6.9803Y-2.1189
X6.9803Y-2.5401
X6.9803Y-2.8157
X6.9803Y-2.9535
X6.9803Y-3.3748
X6.9803Y-3.6504
X6.9803Y-3.7881
X6.9803Y-4.2094
X6.9803Y-4.485
X6.9803Y-4.6228
T2
X4.095Y-2.7189
X4.095Y-2.8173
X4.095Y-2.9157
X4.095Y-4.3881
X4.095Y-4.4866
X4.095Y-4.585
X4.095Y-1.8842
X4.095Y-1.9826
X4.095Y-2.0811
X6.8615Y-2.7207
X6.8615Y-2.8191
X6.8615Y-2.9176
X4.8262Y-2.7157
X4.8262Y-2.8141
X4.8262Y-2.9126
X6.0635Y-1.8842
X6.0635Y-1.9826
X6.0635Y-2.0811
X6.0635Y-4.3881
X6.0635Y-4.4866
X6.0635Y-4.585
X4.095Y-3.5535
X4.095Y-3.6519
X4.095Y-3.7504
X4.8262Y-4.385
X4.8262Y-4.4834
X4.8262Y-4.5819
X4.8262Y-1.8811
X4.8262Y-1.9795
X4.8262Y-2.0779
X6.8615Y-1.8861
X6.8615Y-1.9845
X6.8615Y-2.0829
X6.0635Y-3.5535
X6.0635Y-3.6519
X6.0635Y-3.7504
X6.8615Y-3.5554
X6.8615Y-3.6538
X6.8615Y-3.7522
X6.8615Y-4.39
X6.8615Y-4.4884
X6.8615Y-4.5869
X4.8262Y-3.5504
X4.8262Y-3.6488
X4.8262Y-3.7472
X6.0635Y-2.7189
X6.0635Y-2.8173
X6.0635Y-2.9157
T0
M30
