G04 #@! TF.GenerationSoftware,KiCad,Pcbnew,(5.1.0)-1*
G04 #@! TF.CreationDate,2019-06-08T18:11:25-04:00*
G04 #@! TF.ProjectId,input+output,696e7075-742b-46f7-9574-7075742e6b69,0.1*
G04 #@! TF.SameCoordinates,Original*
G04 #@! TF.FileFunction,Legend,Bot*
G04 #@! TF.FilePolarity,Positive*
%FSLAX46Y46*%
G04 Gerber Fmt 4.6, Leading zero omitted, Abs format (unit mm)*
G04 Created by KiCad (PCBNEW (5.1.0)-1) date 2019-06-08 18:11:25*
%MOMM*%
%LPD*%
G04 APERTURE LIST*
%ADD10C,0.203200*%
%ADD11C,0.300000*%
G04 APERTURE END LIST*
D10*
X95296000Y-137539333D02*
X95296000Y-137200666D01*
X95592333Y-137412333D02*
X94830333Y-137412333D01*
X94745666Y-137370000D01*
X94703333Y-137285333D01*
X94703333Y-137200666D01*
X94703333Y-136904333D02*
X95296000Y-136904333D01*
X95592333Y-136904333D02*
X95550000Y-136946666D01*
X95507666Y-136904333D01*
X95550000Y-136862000D01*
X95592333Y-136904333D01*
X95507666Y-136904333D01*
X95296000Y-136481000D02*
X94703333Y-136481000D01*
X95211333Y-136481000D02*
X95253666Y-136438666D01*
X95296000Y-136354000D01*
X95296000Y-136227000D01*
X95253666Y-136142333D01*
X95169000Y-136100000D01*
X94703333Y-136100000D01*
X94703333Y-135676666D02*
X95592333Y-135676666D01*
X95042000Y-135592000D02*
X94703333Y-135338000D01*
X95296000Y-135338000D02*
X94957333Y-135676666D01*
X94745666Y-134618333D02*
X94703333Y-134703000D01*
X94703333Y-134872333D01*
X94745666Y-134957000D01*
X94830333Y-134999333D01*
X95169000Y-134999333D01*
X95253666Y-134957000D01*
X95296000Y-134872333D01*
X95296000Y-134703000D01*
X95253666Y-134618333D01*
X95169000Y-134576000D01*
X95084333Y-134576000D01*
X94999666Y-134999333D01*
X94703333Y-134195000D02*
X95296000Y-134195000D01*
X95126666Y-134195000D02*
X95211333Y-134152666D01*
X95253666Y-134110333D01*
X95296000Y-134025666D01*
X95296000Y-133941000D01*
X95296000Y-133644666D02*
X94407000Y-133644666D01*
X95253666Y-133644666D02*
X95296000Y-133560000D01*
X95296000Y-133390666D01*
X95253666Y-133306000D01*
X95211333Y-133263666D01*
X95126666Y-133221333D01*
X94872666Y-133221333D01*
X94788000Y-133263666D01*
X94745666Y-133306000D01*
X94703333Y-133390666D01*
X94703333Y-133560000D01*
X94745666Y-133644666D01*
X94703333Y-132713333D02*
X94745666Y-132798000D01*
X94830333Y-132840333D01*
X95592333Y-132840333D01*
X95296000Y-131993666D02*
X94703333Y-131993666D01*
X95296000Y-132374666D02*
X94830333Y-132374666D01*
X94745666Y-132332333D01*
X94703333Y-132247666D01*
X94703333Y-132120666D01*
X94745666Y-132036000D01*
X94788000Y-131993666D01*
X95296000Y-131570333D02*
X94703333Y-131570333D01*
X95211333Y-131570333D02*
X95253666Y-131528000D01*
X95296000Y-131443333D01*
X95296000Y-131316333D01*
X95253666Y-131231666D01*
X95169000Y-131189333D01*
X94703333Y-131189333D01*
X94703333Y-130766000D02*
X95592333Y-130766000D01*
X95042000Y-130681333D02*
X94703333Y-130427333D01*
X95296000Y-130427333D02*
X94957333Y-130766000D01*
X94788000Y-130046333D02*
X94745666Y-130004000D01*
X94703333Y-130046333D01*
X94745666Y-130088666D01*
X94788000Y-130046333D01*
X94703333Y-130046333D01*
X94745666Y-129242000D02*
X94703333Y-129326666D01*
X94703333Y-129496000D01*
X94745666Y-129580666D01*
X94788000Y-129623000D01*
X94872666Y-129665333D01*
X95126666Y-129665333D01*
X95211333Y-129623000D01*
X95253666Y-129580666D01*
X95296000Y-129496000D01*
X95296000Y-129326666D01*
X95253666Y-129242000D01*
X94703333Y-128734000D02*
X94745666Y-128818666D01*
X94788000Y-128861000D01*
X94872666Y-128903333D01*
X95126666Y-128903333D01*
X95211333Y-128861000D01*
X95253666Y-128818666D01*
X95296000Y-128734000D01*
X95296000Y-128607000D01*
X95253666Y-128522333D01*
X95211333Y-128480000D01*
X95126666Y-128437666D01*
X94872666Y-128437666D01*
X94788000Y-128480000D01*
X94745666Y-128522333D01*
X94703333Y-128607000D01*
X94703333Y-128734000D01*
X94703333Y-128056666D02*
X95296000Y-128056666D01*
X95211333Y-128056666D02*
X95253666Y-128014333D01*
X95296000Y-127929666D01*
X95296000Y-127802666D01*
X95253666Y-127718000D01*
X95169000Y-127675666D01*
X94703333Y-127675666D01*
X95169000Y-127675666D02*
X95253666Y-127633333D01*
X95296000Y-127548666D01*
X95296000Y-127421666D01*
X95253666Y-127337000D01*
X95169000Y-127294666D01*
X94703333Y-127294666D01*
X107804000Y-101268666D02*
X107804000Y-101607333D01*
X107507666Y-101395666D02*
X108269666Y-101395666D01*
X108354333Y-101438000D01*
X108396666Y-101522666D01*
X108396666Y-101607333D01*
X108396666Y-101903666D02*
X107804000Y-101903666D01*
X107507666Y-101903666D02*
X107550000Y-101861333D01*
X107592333Y-101903666D01*
X107550000Y-101946000D01*
X107507666Y-101903666D01*
X107592333Y-101903666D01*
X107804000Y-102327000D02*
X108396666Y-102327000D01*
X107888666Y-102327000D02*
X107846333Y-102369333D01*
X107804000Y-102454000D01*
X107804000Y-102581000D01*
X107846333Y-102665666D01*
X107931000Y-102708000D01*
X108396666Y-102708000D01*
X108396666Y-103131333D02*
X107507666Y-103131333D01*
X108058000Y-103216000D02*
X108396666Y-103470000D01*
X107804000Y-103470000D02*
X108142666Y-103131333D01*
X108354333Y-104189666D02*
X108396666Y-104105000D01*
X108396666Y-103935666D01*
X108354333Y-103851000D01*
X108269666Y-103808666D01*
X107931000Y-103808666D01*
X107846333Y-103851000D01*
X107804000Y-103935666D01*
X107804000Y-104105000D01*
X107846333Y-104189666D01*
X107931000Y-104232000D01*
X108015666Y-104232000D01*
X108100333Y-103808666D01*
X108396666Y-104613000D02*
X107804000Y-104613000D01*
X107973333Y-104613000D02*
X107888666Y-104655333D01*
X107846333Y-104697666D01*
X107804000Y-104782333D01*
X107804000Y-104867000D01*
X107804000Y-105163333D02*
X108693000Y-105163333D01*
X107846333Y-105163333D02*
X107804000Y-105248000D01*
X107804000Y-105417333D01*
X107846333Y-105502000D01*
X107888666Y-105544333D01*
X107973333Y-105586666D01*
X108227333Y-105586666D01*
X108312000Y-105544333D01*
X108354333Y-105502000D01*
X108396666Y-105417333D01*
X108396666Y-105248000D01*
X108354333Y-105163333D01*
X108396666Y-106094666D02*
X108354333Y-106010000D01*
X108269666Y-105967666D01*
X107507666Y-105967666D01*
X107804000Y-106814333D02*
X108396666Y-106814333D01*
X107804000Y-106433333D02*
X108269666Y-106433333D01*
X108354333Y-106475666D01*
X108396666Y-106560333D01*
X108396666Y-106687333D01*
X108354333Y-106772000D01*
X108312000Y-106814333D01*
X107804000Y-107237666D02*
X108396666Y-107237666D01*
X107888666Y-107237666D02*
X107846333Y-107280000D01*
X107804000Y-107364666D01*
X107804000Y-107491666D01*
X107846333Y-107576333D01*
X107931000Y-107618666D01*
X108396666Y-107618666D01*
X108396666Y-108042000D02*
X107507666Y-108042000D01*
X108058000Y-108126666D02*
X108396666Y-108380666D01*
X107804000Y-108380666D02*
X108142666Y-108042000D01*
X108312000Y-108761666D02*
X108354333Y-108804000D01*
X108396666Y-108761666D01*
X108354333Y-108719333D01*
X108312000Y-108761666D01*
X108396666Y-108761666D01*
X108354333Y-109566000D02*
X108396666Y-109481333D01*
X108396666Y-109312000D01*
X108354333Y-109227333D01*
X108312000Y-109185000D01*
X108227333Y-109142666D01*
X107973333Y-109142666D01*
X107888666Y-109185000D01*
X107846333Y-109227333D01*
X107804000Y-109312000D01*
X107804000Y-109481333D01*
X107846333Y-109566000D01*
X108396666Y-110074000D02*
X108354333Y-109989333D01*
X108312000Y-109947000D01*
X108227333Y-109904666D01*
X107973333Y-109904666D01*
X107888666Y-109947000D01*
X107846333Y-109989333D01*
X107804000Y-110074000D01*
X107804000Y-110201000D01*
X107846333Y-110285666D01*
X107888666Y-110328000D01*
X107973333Y-110370333D01*
X108227333Y-110370333D01*
X108312000Y-110328000D01*
X108354333Y-110285666D01*
X108396666Y-110201000D01*
X108396666Y-110074000D01*
X108396666Y-110751333D02*
X107804000Y-110751333D01*
X107888666Y-110751333D02*
X107846333Y-110793666D01*
X107804000Y-110878333D01*
X107804000Y-111005333D01*
X107846333Y-111090000D01*
X107931000Y-111132333D01*
X108396666Y-111132333D01*
X107931000Y-111132333D02*
X107846333Y-111174666D01*
X107804000Y-111259333D01*
X107804000Y-111386333D01*
X107846333Y-111471000D01*
X107931000Y-111513333D01*
X108396666Y-111513333D01*
D11*
X98935428Y-127995714D02*
X100435428Y-127995714D01*
X98935428Y-127281428D02*
X100435428Y-127281428D01*
X98935428Y-126424285D01*
X100435428Y-126424285D01*
D10*
X96036833Y-137137166D02*
X96925833Y-137137166D01*
X96079166Y-137137166D02*
X96036833Y-137221833D01*
X96036833Y-137391166D01*
X96079166Y-137475833D01*
X96121500Y-137518166D01*
X96206166Y-137560500D01*
X96460166Y-137560500D01*
X96544833Y-137518166D01*
X96587166Y-137475833D01*
X96629500Y-137391166D01*
X96629500Y-137221833D01*
X96587166Y-137137166D01*
X96036833Y-136713833D02*
X96925833Y-136713833D01*
X96587166Y-136713833D02*
X96629500Y-136629166D01*
X96629500Y-136459833D01*
X96587166Y-136375166D01*
X96544833Y-136332833D01*
X96460166Y-136290500D01*
X96206166Y-136290500D01*
X96121500Y-136332833D01*
X96079166Y-136375166D01*
X96036833Y-136459833D01*
X96036833Y-136629166D01*
X96079166Y-136713833D01*
X96375500Y-135909500D02*
X96375500Y-135232166D01*
X96079166Y-134470166D02*
X96036833Y-134554833D01*
X96036833Y-134724166D01*
X96079166Y-134808833D01*
X96163833Y-134851166D01*
X96502500Y-134851166D01*
X96587166Y-134808833D01*
X96629500Y-134724166D01*
X96629500Y-134554833D01*
X96587166Y-134470166D01*
X96502500Y-134427833D01*
X96417833Y-134427833D01*
X96333166Y-134851166D01*
X96036833Y-133919833D02*
X96079166Y-134004500D01*
X96163833Y-134046833D01*
X96925833Y-134046833D01*
X96079166Y-133242500D02*
X96036833Y-133327166D01*
X96036833Y-133496500D01*
X96079166Y-133581166D01*
X96163833Y-133623500D01*
X96502500Y-133623500D01*
X96587166Y-133581166D01*
X96629500Y-133496500D01*
X96629500Y-133327166D01*
X96587166Y-133242500D01*
X96502500Y-133200166D01*
X96417833Y-133200166D01*
X96333166Y-133623500D01*
X96079166Y-132438166D02*
X96036833Y-132522833D01*
X96036833Y-132692166D01*
X96079166Y-132776833D01*
X96121500Y-132819166D01*
X96206166Y-132861500D01*
X96460166Y-132861500D01*
X96544833Y-132819166D01*
X96587166Y-132776833D01*
X96629500Y-132692166D01*
X96629500Y-132522833D01*
X96587166Y-132438166D01*
X96629500Y-132184166D02*
X96629500Y-131845500D01*
X96925833Y-132057166D02*
X96163833Y-132057166D01*
X96079166Y-132014833D01*
X96036833Y-131930166D01*
X96036833Y-131845500D01*
X96036833Y-131549166D02*
X96629500Y-131549166D01*
X96460166Y-131549166D02*
X96544833Y-131506833D01*
X96587166Y-131464500D01*
X96629500Y-131379833D01*
X96629500Y-131295166D01*
X96036833Y-130871833D02*
X96079166Y-130956500D01*
X96121500Y-130998833D01*
X96206166Y-131041166D01*
X96460166Y-131041166D01*
X96544833Y-130998833D01*
X96587166Y-130956500D01*
X96629500Y-130871833D01*
X96629500Y-130744833D01*
X96587166Y-130660166D01*
X96544833Y-130617833D01*
X96460166Y-130575500D01*
X96206166Y-130575500D01*
X96121500Y-130617833D01*
X96079166Y-130660166D01*
X96036833Y-130744833D01*
X96036833Y-130871833D01*
X96629500Y-130194500D02*
X96036833Y-130194500D01*
X96544833Y-130194500D02*
X96587166Y-130152166D01*
X96629500Y-130067500D01*
X96629500Y-129940500D01*
X96587166Y-129855833D01*
X96502500Y-129813500D01*
X96036833Y-129813500D01*
X96036833Y-129390166D02*
X96629500Y-129390166D01*
X96925833Y-129390166D02*
X96883500Y-129432500D01*
X96841166Y-129390166D01*
X96883500Y-129347833D01*
X96925833Y-129390166D01*
X96841166Y-129390166D01*
X96079166Y-128585833D02*
X96036833Y-128670500D01*
X96036833Y-128839833D01*
X96079166Y-128924500D01*
X96121500Y-128966833D01*
X96206166Y-129009166D01*
X96460166Y-129009166D01*
X96544833Y-128966833D01*
X96587166Y-128924500D01*
X96629500Y-128839833D01*
X96629500Y-128670500D01*
X96587166Y-128585833D01*
X96079166Y-128247166D02*
X96036833Y-128162500D01*
X96036833Y-127993166D01*
X96079166Y-127908500D01*
X96163833Y-127866166D01*
X96206166Y-127866166D01*
X96290833Y-127908500D01*
X96333166Y-127993166D01*
X96333166Y-128120166D01*
X96375500Y-128204833D01*
X96460166Y-128247166D01*
X96502500Y-128247166D01*
X96587166Y-128204833D01*
X96629500Y-128120166D01*
X96629500Y-127993166D01*
X96587166Y-127908500D01*
X96121500Y-127485166D02*
X96079166Y-127442833D01*
X96036833Y-127485166D01*
X96079166Y-127527500D01*
X96121500Y-127485166D01*
X96036833Y-127485166D01*
X96079166Y-126680833D02*
X96036833Y-126765500D01*
X96036833Y-126934833D01*
X96079166Y-127019500D01*
X96121500Y-127061833D01*
X96206166Y-127104166D01*
X96460166Y-127104166D01*
X96544833Y-127061833D01*
X96587166Y-127019500D01*
X96629500Y-126934833D01*
X96629500Y-126765500D01*
X96587166Y-126680833D01*
X96036833Y-125918833D02*
X96502500Y-125918833D01*
X96587166Y-125961166D01*
X96629500Y-126045833D01*
X96629500Y-126215166D01*
X96587166Y-126299833D01*
X96079166Y-125918833D02*
X96036833Y-126003500D01*
X96036833Y-126215166D01*
X96079166Y-126299833D01*
X96163833Y-126342166D01*
X96248500Y-126342166D01*
X96333166Y-126299833D01*
X96375500Y-126215166D01*
X96375500Y-126003500D01*
X96417833Y-125918833D01*
D11*
X104164571Y-110812285D02*
X102664571Y-110812285D01*
X104164571Y-111526571D02*
X102664571Y-111526571D01*
X104164571Y-112383714D01*
X102664571Y-112383714D01*
X98935428Y-106795714D02*
X100435428Y-106795714D01*
X98935428Y-106081428D02*
X100435428Y-106081428D01*
X98935428Y-105224285D01*
X100435428Y-105224285D01*
D10*
X107063166Y-122870833D02*
X106174166Y-122870833D01*
X107020833Y-122870833D02*
X107063166Y-122786166D01*
X107063166Y-122616833D01*
X107020833Y-122532166D01*
X106978500Y-122489833D01*
X106893833Y-122447500D01*
X106639833Y-122447500D01*
X106555166Y-122489833D01*
X106512833Y-122532166D01*
X106470500Y-122616833D01*
X106470500Y-122786166D01*
X106512833Y-122870833D01*
X107063166Y-123294166D02*
X106174166Y-123294166D01*
X106512833Y-123294166D02*
X106470500Y-123378833D01*
X106470500Y-123548166D01*
X106512833Y-123632833D01*
X106555166Y-123675166D01*
X106639833Y-123717500D01*
X106893833Y-123717500D01*
X106978500Y-123675166D01*
X107020833Y-123632833D01*
X107063166Y-123548166D01*
X107063166Y-123378833D01*
X107020833Y-123294166D01*
X106724500Y-124098500D02*
X106724500Y-124775833D01*
X107020833Y-125537833D02*
X107063166Y-125453166D01*
X107063166Y-125283833D01*
X107020833Y-125199166D01*
X106936166Y-125156833D01*
X106597500Y-125156833D01*
X106512833Y-125199166D01*
X106470500Y-125283833D01*
X106470500Y-125453166D01*
X106512833Y-125537833D01*
X106597500Y-125580166D01*
X106682166Y-125580166D01*
X106766833Y-125156833D01*
X107063166Y-126088166D02*
X107020833Y-126003500D01*
X106936166Y-125961166D01*
X106174166Y-125961166D01*
X107020833Y-126765500D02*
X107063166Y-126680833D01*
X107063166Y-126511500D01*
X107020833Y-126426833D01*
X106936166Y-126384500D01*
X106597500Y-126384500D01*
X106512833Y-126426833D01*
X106470500Y-126511500D01*
X106470500Y-126680833D01*
X106512833Y-126765500D01*
X106597500Y-126807833D01*
X106682166Y-126807833D01*
X106766833Y-126384500D01*
X107020833Y-127569833D02*
X107063166Y-127485166D01*
X107063166Y-127315833D01*
X107020833Y-127231166D01*
X106978500Y-127188833D01*
X106893833Y-127146500D01*
X106639833Y-127146500D01*
X106555166Y-127188833D01*
X106512833Y-127231166D01*
X106470500Y-127315833D01*
X106470500Y-127485166D01*
X106512833Y-127569833D01*
X106470500Y-127823833D02*
X106470500Y-128162500D01*
X106174166Y-127950833D02*
X106936166Y-127950833D01*
X107020833Y-127993166D01*
X107063166Y-128077833D01*
X107063166Y-128162500D01*
X107063166Y-128458833D02*
X106470500Y-128458833D01*
X106639833Y-128458833D02*
X106555166Y-128501166D01*
X106512833Y-128543500D01*
X106470500Y-128628166D01*
X106470500Y-128712833D01*
X107063166Y-129136166D02*
X107020833Y-129051500D01*
X106978500Y-129009166D01*
X106893833Y-128966833D01*
X106639833Y-128966833D01*
X106555166Y-129009166D01*
X106512833Y-129051500D01*
X106470500Y-129136166D01*
X106470500Y-129263166D01*
X106512833Y-129347833D01*
X106555166Y-129390166D01*
X106639833Y-129432500D01*
X106893833Y-129432500D01*
X106978500Y-129390166D01*
X107020833Y-129347833D01*
X107063166Y-129263166D01*
X107063166Y-129136166D01*
X106470500Y-129813500D02*
X107063166Y-129813500D01*
X106555166Y-129813500D02*
X106512833Y-129855833D01*
X106470500Y-129940500D01*
X106470500Y-130067500D01*
X106512833Y-130152166D01*
X106597500Y-130194500D01*
X107063166Y-130194500D01*
X107063166Y-130617833D02*
X106470500Y-130617833D01*
X106174166Y-130617833D02*
X106216500Y-130575500D01*
X106258833Y-130617833D01*
X106216500Y-130660166D01*
X106174166Y-130617833D01*
X106258833Y-130617833D01*
X107020833Y-131422166D02*
X107063166Y-131337500D01*
X107063166Y-131168166D01*
X107020833Y-131083500D01*
X106978500Y-131041166D01*
X106893833Y-130998833D01*
X106639833Y-130998833D01*
X106555166Y-131041166D01*
X106512833Y-131083500D01*
X106470500Y-131168166D01*
X106470500Y-131337500D01*
X106512833Y-131422166D01*
X107020833Y-131760833D02*
X107063166Y-131845500D01*
X107063166Y-132014833D01*
X107020833Y-132099500D01*
X106936166Y-132141833D01*
X106893833Y-132141833D01*
X106809166Y-132099500D01*
X106766833Y-132014833D01*
X106766833Y-131887833D01*
X106724500Y-131803166D01*
X106639833Y-131760833D01*
X106597500Y-131760833D01*
X106512833Y-131803166D01*
X106470500Y-131887833D01*
X106470500Y-132014833D01*
X106512833Y-132099500D01*
X106978500Y-132522833D02*
X107020833Y-132565166D01*
X107063166Y-132522833D01*
X107020833Y-132480500D01*
X106978500Y-132522833D01*
X107063166Y-132522833D01*
X107020833Y-133327166D02*
X107063166Y-133242500D01*
X107063166Y-133073166D01*
X107020833Y-132988500D01*
X106978500Y-132946166D01*
X106893833Y-132903833D01*
X106639833Y-132903833D01*
X106555166Y-132946166D01*
X106512833Y-132988500D01*
X106470500Y-133073166D01*
X106470500Y-133242500D01*
X106512833Y-133327166D01*
X107063166Y-134089166D02*
X106597500Y-134089166D01*
X106512833Y-134046833D01*
X106470500Y-133962166D01*
X106470500Y-133792833D01*
X106512833Y-133708166D01*
X107020833Y-134089166D02*
X107063166Y-134004500D01*
X107063166Y-133792833D01*
X107020833Y-133708166D01*
X106936166Y-133665833D01*
X106851500Y-133665833D01*
X106766833Y-133708166D01*
X106724500Y-133792833D01*
X106724500Y-134004500D01*
X106682166Y-134089166D01*
X107804000Y-122468666D02*
X107804000Y-122807333D01*
X107507666Y-122595666D02*
X108269666Y-122595666D01*
X108354333Y-122638000D01*
X108396666Y-122722666D01*
X108396666Y-122807333D01*
X108396666Y-123103666D02*
X107804000Y-123103666D01*
X107507666Y-123103666D02*
X107550000Y-123061333D01*
X107592333Y-123103666D01*
X107550000Y-123146000D01*
X107507666Y-123103666D01*
X107592333Y-123103666D01*
X107804000Y-123527000D02*
X108396666Y-123527000D01*
X107888666Y-123527000D02*
X107846333Y-123569333D01*
X107804000Y-123654000D01*
X107804000Y-123781000D01*
X107846333Y-123865666D01*
X107931000Y-123908000D01*
X108396666Y-123908000D01*
X108396666Y-124331333D02*
X107507666Y-124331333D01*
X108058000Y-124416000D02*
X108396666Y-124670000D01*
X107804000Y-124670000D02*
X108142666Y-124331333D01*
X108354333Y-125389666D02*
X108396666Y-125305000D01*
X108396666Y-125135666D01*
X108354333Y-125051000D01*
X108269666Y-125008666D01*
X107931000Y-125008666D01*
X107846333Y-125051000D01*
X107804000Y-125135666D01*
X107804000Y-125305000D01*
X107846333Y-125389666D01*
X107931000Y-125432000D01*
X108015666Y-125432000D01*
X108100333Y-125008666D01*
X108396666Y-125813000D02*
X107804000Y-125813000D01*
X107973333Y-125813000D02*
X107888666Y-125855333D01*
X107846333Y-125897666D01*
X107804000Y-125982333D01*
X107804000Y-126067000D01*
X107804000Y-126363333D02*
X108693000Y-126363333D01*
X107846333Y-126363333D02*
X107804000Y-126448000D01*
X107804000Y-126617333D01*
X107846333Y-126702000D01*
X107888666Y-126744333D01*
X107973333Y-126786666D01*
X108227333Y-126786666D01*
X108312000Y-126744333D01*
X108354333Y-126702000D01*
X108396666Y-126617333D01*
X108396666Y-126448000D01*
X108354333Y-126363333D01*
X108396666Y-127294666D02*
X108354333Y-127210000D01*
X108269666Y-127167666D01*
X107507666Y-127167666D01*
X107804000Y-128014333D02*
X108396666Y-128014333D01*
X107804000Y-127633333D02*
X108269666Y-127633333D01*
X108354333Y-127675666D01*
X108396666Y-127760333D01*
X108396666Y-127887333D01*
X108354333Y-127972000D01*
X108312000Y-128014333D01*
X107804000Y-128437666D02*
X108396666Y-128437666D01*
X107888666Y-128437666D02*
X107846333Y-128480000D01*
X107804000Y-128564666D01*
X107804000Y-128691666D01*
X107846333Y-128776333D01*
X107931000Y-128818666D01*
X108396666Y-128818666D01*
X108396666Y-129242000D02*
X107507666Y-129242000D01*
X108058000Y-129326666D02*
X108396666Y-129580666D01*
X107804000Y-129580666D02*
X108142666Y-129242000D01*
X108312000Y-129961666D02*
X108354333Y-130004000D01*
X108396666Y-129961666D01*
X108354333Y-129919333D01*
X108312000Y-129961666D01*
X108396666Y-129961666D01*
X108354333Y-130766000D02*
X108396666Y-130681333D01*
X108396666Y-130512000D01*
X108354333Y-130427333D01*
X108312000Y-130385000D01*
X108227333Y-130342666D01*
X107973333Y-130342666D01*
X107888666Y-130385000D01*
X107846333Y-130427333D01*
X107804000Y-130512000D01*
X107804000Y-130681333D01*
X107846333Y-130766000D01*
X108396666Y-131274000D02*
X108354333Y-131189333D01*
X108312000Y-131147000D01*
X108227333Y-131104666D01*
X107973333Y-131104666D01*
X107888666Y-131147000D01*
X107846333Y-131189333D01*
X107804000Y-131274000D01*
X107804000Y-131401000D01*
X107846333Y-131485666D01*
X107888666Y-131528000D01*
X107973333Y-131570333D01*
X108227333Y-131570333D01*
X108312000Y-131528000D01*
X108354333Y-131485666D01*
X108396666Y-131401000D01*
X108396666Y-131274000D01*
X108396666Y-131951333D02*
X107804000Y-131951333D01*
X107888666Y-131951333D02*
X107846333Y-131993666D01*
X107804000Y-132078333D01*
X107804000Y-132205333D01*
X107846333Y-132290000D01*
X107931000Y-132332333D01*
X108396666Y-132332333D01*
X107931000Y-132332333D02*
X107846333Y-132374666D01*
X107804000Y-132459333D01*
X107804000Y-132586333D01*
X107846333Y-132671000D01*
X107931000Y-132713333D01*
X108396666Y-132713333D01*
X107063166Y-101670833D02*
X106174166Y-101670833D01*
X107020833Y-101670833D02*
X107063166Y-101586166D01*
X107063166Y-101416833D01*
X107020833Y-101332166D01*
X106978500Y-101289833D01*
X106893833Y-101247500D01*
X106639833Y-101247500D01*
X106555166Y-101289833D01*
X106512833Y-101332166D01*
X106470500Y-101416833D01*
X106470500Y-101586166D01*
X106512833Y-101670833D01*
X107063166Y-102094166D02*
X106174166Y-102094166D01*
X106512833Y-102094166D02*
X106470500Y-102178833D01*
X106470500Y-102348166D01*
X106512833Y-102432833D01*
X106555166Y-102475166D01*
X106639833Y-102517500D01*
X106893833Y-102517500D01*
X106978500Y-102475166D01*
X107020833Y-102432833D01*
X107063166Y-102348166D01*
X107063166Y-102178833D01*
X107020833Y-102094166D01*
X106724500Y-102898500D02*
X106724500Y-103575833D01*
X107020833Y-104337833D02*
X107063166Y-104253166D01*
X107063166Y-104083833D01*
X107020833Y-103999166D01*
X106936166Y-103956833D01*
X106597500Y-103956833D01*
X106512833Y-103999166D01*
X106470500Y-104083833D01*
X106470500Y-104253166D01*
X106512833Y-104337833D01*
X106597500Y-104380166D01*
X106682166Y-104380166D01*
X106766833Y-103956833D01*
X107063166Y-104888166D02*
X107020833Y-104803500D01*
X106936166Y-104761166D01*
X106174166Y-104761166D01*
X107020833Y-105565500D02*
X107063166Y-105480833D01*
X107063166Y-105311500D01*
X107020833Y-105226833D01*
X106936166Y-105184500D01*
X106597500Y-105184500D01*
X106512833Y-105226833D01*
X106470500Y-105311500D01*
X106470500Y-105480833D01*
X106512833Y-105565500D01*
X106597500Y-105607833D01*
X106682166Y-105607833D01*
X106766833Y-105184500D01*
X107020833Y-106369833D02*
X107063166Y-106285166D01*
X107063166Y-106115833D01*
X107020833Y-106031166D01*
X106978500Y-105988833D01*
X106893833Y-105946500D01*
X106639833Y-105946500D01*
X106555166Y-105988833D01*
X106512833Y-106031166D01*
X106470500Y-106115833D01*
X106470500Y-106285166D01*
X106512833Y-106369833D01*
X106470500Y-106623833D02*
X106470500Y-106962500D01*
X106174166Y-106750833D02*
X106936166Y-106750833D01*
X107020833Y-106793166D01*
X107063166Y-106877833D01*
X107063166Y-106962500D01*
X107063166Y-107258833D02*
X106470500Y-107258833D01*
X106639833Y-107258833D02*
X106555166Y-107301166D01*
X106512833Y-107343500D01*
X106470500Y-107428166D01*
X106470500Y-107512833D01*
X107063166Y-107936166D02*
X107020833Y-107851500D01*
X106978500Y-107809166D01*
X106893833Y-107766833D01*
X106639833Y-107766833D01*
X106555166Y-107809166D01*
X106512833Y-107851500D01*
X106470500Y-107936166D01*
X106470500Y-108063166D01*
X106512833Y-108147833D01*
X106555166Y-108190166D01*
X106639833Y-108232500D01*
X106893833Y-108232500D01*
X106978500Y-108190166D01*
X107020833Y-108147833D01*
X107063166Y-108063166D01*
X107063166Y-107936166D01*
X106470500Y-108613500D02*
X107063166Y-108613500D01*
X106555166Y-108613500D02*
X106512833Y-108655833D01*
X106470500Y-108740500D01*
X106470500Y-108867500D01*
X106512833Y-108952166D01*
X106597500Y-108994500D01*
X107063166Y-108994500D01*
X107063166Y-109417833D02*
X106470500Y-109417833D01*
X106174166Y-109417833D02*
X106216500Y-109375500D01*
X106258833Y-109417833D01*
X106216500Y-109460166D01*
X106174166Y-109417833D01*
X106258833Y-109417833D01*
X107020833Y-110222166D02*
X107063166Y-110137500D01*
X107063166Y-109968166D01*
X107020833Y-109883500D01*
X106978500Y-109841166D01*
X106893833Y-109798833D01*
X106639833Y-109798833D01*
X106555166Y-109841166D01*
X106512833Y-109883500D01*
X106470500Y-109968166D01*
X106470500Y-110137500D01*
X106512833Y-110222166D01*
X107020833Y-110560833D02*
X107063166Y-110645500D01*
X107063166Y-110814833D01*
X107020833Y-110899500D01*
X106936166Y-110941833D01*
X106893833Y-110941833D01*
X106809166Y-110899500D01*
X106766833Y-110814833D01*
X106766833Y-110687833D01*
X106724500Y-110603166D01*
X106639833Y-110560833D01*
X106597500Y-110560833D01*
X106512833Y-110603166D01*
X106470500Y-110687833D01*
X106470500Y-110814833D01*
X106512833Y-110899500D01*
X106978500Y-111322833D02*
X107020833Y-111365166D01*
X107063166Y-111322833D01*
X107020833Y-111280500D01*
X106978500Y-111322833D01*
X107063166Y-111322833D01*
X107020833Y-112127166D02*
X107063166Y-112042500D01*
X107063166Y-111873166D01*
X107020833Y-111788500D01*
X106978500Y-111746166D01*
X106893833Y-111703833D01*
X106639833Y-111703833D01*
X106555166Y-111746166D01*
X106512833Y-111788500D01*
X106470500Y-111873166D01*
X106470500Y-112042500D01*
X106512833Y-112127166D01*
X107063166Y-112889166D02*
X106597500Y-112889166D01*
X106512833Y-112846833D01*
X106470500Y-112762166D01*
X106470500Y-112592833D01*
X106512833Y-112508166D01*
X107020833Y-112889166D02*
X107063166Y-112804500D01*
X107063166Y-112592833D01*
X107020833Y-112508166D01*
X106936166Y-112465833D01*
X106851500Y-112465833D01*
X106766833Y-112508166D01*
X106724500Y-112592833D01*
X106724500Y-112804500D01*
X106682166Y-112889166D01*
X96036833Y-115937166D02*
X96925833Y-115937166D01*
X96079166Y-115937166D02*
X96036833Y-116021833D01*
X96036833Y-116191166D01*
X96079166Y-116275833D01*
X96121500Y-116318166D01*
X96206166Y-116360500D01*
X96460166Y-116360500D01*
X96544833Y-116318166D01*
X96587166Y-116275833D01*
X96629500Y-116191166D01*
X96629500Y-116021833D01*
X96587166Y-115937166D01*
X96036833Y-115513833D02*
X96925833Y-115513833D01*
X96587166Y-115513833D02*
X96629500Y-115429166D01*
X96629500Y-115259833D01*
X96587166Y-115175166D01*
X96544833Y-115132833D01*
X96460166Y-115090500D01*
X96206166Y-115090500D01*
X96121500Y-115132833D01*
X96079166Y-115175166D01*
X96036833Y-115259833D01*
X96036833Y-115429166D01*
X96079166Y-115513833D01*
X96375500Y-114709500D02*
X96375500Y-114032166D01*
X96079166Y-113270166D02*
X96036833Y-113354833D01*
X96036833Y-113524166D01*
X96079166Y-113608833D01*
X96163833Y-113651166D01*
X96502500Y-113651166D01*
X96587166Y-113608833D01*
X96629500Y-113524166D01*
X96629500Y-113354833D01*
X96587166Y-113270166D01*
X96502500Y-113227833D01*
X96417833Y-113227833D01*
X96333166Y-113651166D01*
X96036833Y-112719833D02*
X96079166Y-112804500D01*
X96163833Y-112846833D01*
X96925833Y-112846833D01*
X96079166Y-112042500D02*
X96036833Y-112127166D01*
X96036833Y-112296500D01*
X96079166Y-112381166D01*
X96163833Y-112423500D01*
X96502500Y-112423500D01*
X96587166Y-112381166D01*
X96629500Y-112296500D01*
X96629500Y-112127166D01*
X96587166Y-112042500D01*
X96502500Y-112000166D01*
X96417833Y-112000166D01*
X96333166Y-112423500D01*
X96079166Y-111238166D02*
X96036833Y-111322833D01*
X96036833Y-111492166D01*
X96079166Y-111576833D01*
X96121500Y-111619166D01*
X96206166Y-111661500D01*
X96460166Y-111661500D01*
X96544833Y-111619166D01*
X96587166Y-111576833D01*
X96629500Y-111492166D01*
X96629500Y-111322833D01*
X96587166Y-111238166D01*
X96629500Y-110984166D02*
X96629500Y-110645500D01*
X96925833Y-110857166D02*
X96163833Y-110857166D01*
X96079166Y-110814833D01*
X96036833Y-110730166D01*
X96036833Y-110645500D01*
X96036833Y-110349166D02*
X96629500Y-110349166D01*
X96460166Y-110349166D02*
X96544833Y-110306833D01*
X96587166Y-110264500D01*
X96629500Y-110179833D01*
X96629500Y-110095166D01*
X96036833Y-109671833D02*
X96079166Y-109756500D01*
X96121500Y-109798833D01*
X96206166Y-109841166D01*
X96460166Y-109841166D01*
X96544833Y-109798833D01*
X96587166Y-109756500D01*
X96629500Y-109671833D01*
X96629500Y-109544833D01*
X96587166Y-109460166D01*
X96544833Y-109417833D01*
X96460166Y-109375500D01*
X96206166Y-109375500D01*
X96121500Y-109417833D01*
X96079166Y-109460166D01*
X96036833Y-109544833D01*
X96036833Y-109671833D01*
X96629500Y-108994500D02*
X96036833Y-108994500D01*
X96544833Y-108994500D02*
X96587166Y-108952166D01*
X96629500Y-108867500D01*
X96629500Y-108740500D01*
X96587166Y-108655833D01*
X96502500Y-108613500D01*
X96036833Y-108613500D01*
X96036833Y-108190166D02*
X96629500Y-108190166D01*
X96925833Y-108190166D02*
X96883500Y-108232500D01*
X96841166Y-108190166D01*
X96883500Y-108147833D01*
X96925833Y-108190166D01*
X96841166Y-108190166D01*
X96079166Y-107385833D02*
X96036833Y-107470500D01*
X96036833Y-107639833D01*
X96079166Y-107724500D01*
X96121500Y-107766833D01*
X96206166Y-107809166D01*
X96460166Y-107809166D01*
X96544833Y-107766833D01*
X96587166Y-107724500D01*
X96629500Y-107639833D01*
X96629500Y-107470500D01*
X96587166Y-107385833D01*
X96079166Y-107047166D02*
X96036833Y-106962500D01*
X96036833Y-106793166D01*
X96079166Y-106708500D01*
X96163833Y-106666166D01*
X96206166Y-106666166D01*
X96290833Y-106708500D01*
X96333166Y-106793166D01*
X96333166Y-106920166D01*
X96375500Y-107004833D01*
X96460166Y-107047166D01*
X96502500Y-107047166D01*
X96587166Y-107004833D01*
X96629500Y-106920166D01*
X96629500Y-106793166D01*
X96587166Y-106708500D01*
X96121500Y-106285166D02*
X96079166Y-106242833D01*
X96036833Y-106285166D01*
X96079166Y-106327500D01*
X96121500Y-106285166D01*
X96036833Y-106285166D01*
X96079166Y-105480833D02*
X96036833Y-105565500D01*
X96036833Y-105734833D01*
X96079166Y-105819500D01*
X96121500Y-105861833D01*
X96206166Y-105904166D01*
X96460166Y-105904166D01*
X96544833Y-105861833D01*
X96587166Y-105819500D01*
X96629500Y-105734833D01*
X96629500Y-105565500D01*
X96587166Y-105480833D01*
X96036833Y-104718833D02*
X96502500Y-104718833D01*
X96587166Y-104761166D01*
X96629500Y-104845833D01*
X96629500Y-105015166D01*
X96587166Y-105099833D01*
X96079166Y-104718833D02*
X96036833Y-104803500D01*
X96036833Y-105015166D01*
X96079166Y-105099833D01*
X96163833Y-105142166D01*
X96248500Y-105142166D01*
X96333166Y-105099833D01*
X96375500Y-105015166D01*
X96375500Y-104803500D01*
X96417833Y-104718833D01*
X95296000Y-116339333D02*
X95296000Y-116000666D01*
X95592333Y-116212333D02*
X94830333Y-116212333D01*
X94745666Y-116170000D01*
X94703333Y-116085333D01*
X94703333Y-116000666D01*
X94703333Y-115704333D02*
X95296000Y-115704333D01*
X95592333Y-115704333D02*
X95550000Y-115746666D01*
X95507666Y-115704333D01*
X95550000Y-115662000D01*
X95592333Y-115704333D01*
X95507666Y-115704333D01*
X95296000Y-115281000D02*
X94703333Y-115281000D01*
X95211333Y-115281000D02*
X95253666Y-115238666D01*
X95296000Y-115154000D01*
X95296000Y-115027000D01*
X95253666Y-114942333D01*
X95169000Y-114900000D01*
X94703333Y-114900000D01*
X94703333Y-114476666D02*
X95592333Y-114476666D01*
X95042000Y-114392000D02*
X94703333Y-114138000D01*
X95296000Y-114138000D02*
X94957333Y-114476666D01*
X94745666Y-113418333D02*
X94703333Y-113503000D01*
X94703333Y-113672333D01*
X94745666Y-113757000D01*
X94830333Y-113799333D01*
X95169000Y-113799333D01*
X95253666Y-113757000D01*
X95296000Y-113672333D01*
X95296000Y-113503000D01*
X95253666Y-113418333D01*
X95169000Y-113376000D01*
X95084333Y-113376000D01*
X94999666Y-113799333D01*
X94703333Y-112995000D02*
X95296000Y-112995000D01*
X95126666Y-112995000D02*
X95211333Y-112952666D01*
X95253666Y-112910333D01*
X95296000Y-112825666D01*
X95296000Y-112741000D01*
X95296000Y-112444666D02*
X94407000Y-112444666D01*
X95253666Y-112444666D02*
X95296000Y-112360000D01*
X95296000Y-112190666D01*
X95253666Y-112106000D01*
X95211333Y-112063666D01*
X95126666Y-112021333D01*
X94872666Y-112021333D01*
X94788000Y-112063666D01*
X94745666Y-112106000D01*
X94703333Y-112190666D01*
X94703333Y-112360000D01*
X94745666Y-112444666D01*
X94703333Y-111513333D02*
X94745666Y-111598000D01*
X94830333Y-111640333D01*
X95592333Y-111640333D01*
X95296000Y-110793666D02*
X94703333Y-110793666D01*
X95296000Y-111174666D02*
X94830333Y-111174666D01*
X94745666Y-111132333D01*
X94703333Y-111047666D01*
X94703333Y-110920666D01*
X94745666Y-110836000D01*
X94788000Y-110793666D01*
X95296000Y-110370333D02*
X94703333Y-110370333D01*
X95211333Y-110370333D02*
X95253666Y-110328000D01*
X95296000Y-110243333D01*
X95296000Y-110116333D01*
X95253666Y-110031666D01*
X95169000Y-109989333D01*
X94703333Y-109989333D01*
X94703333Y-109566000D02*
X95592333Y-109566000D01*
X95042000Y-109481333D02*
X94703333Y-109227333D01*
X95296000Y-109227333D02*
X94957333Y-109566000D01*
X94788000Y-108846333D02*
X94745666Y-108804000D01*
X94703333Y-108846333D01*
X94745666Y-108888666D01*
X94788000Y-108846333D01*
X94703333Y-108846333D01*
X94745666Y-108042000D02*
X94703333Y-108126666D01*
X94703333Y-108296000D01*
X94745666Y-108380666D01*
X94788000Y-108423000D01*
X94872666Y-108465333D01*
X95126666Y-108465333D01*
X95211333Y-108423000D01*
X95253666Y-108380666D01*
X95296000Y-108296000D01*
X95296000Y-108126666D01*
X95253666Y-108042000D01*
X94703333Y-107534000D02*
X94745666Y-107618666D01*
X94788000Y-107661000D01*
X94872666Y-107703333D01*
X95126666Y-107703333D01*
X95211333Y-107661000D01*
X95253666Y-107618666D01*
X95296000Y-107534000D01*
X95296000Y-107407000D01*
X95253666Y-107322333D01*
X95211333Y-107280000D01*
X95126666Y-107237666D01*
X94872666Y-107237666D01*
X94788000Y-107280000D01*
X94745666Y-107322333D01*
X94703333Y-107407000D01*
X94703333Y-107534000D01*
X94703333Y-106856666D02*
X95296000Y-106856666D01*
X95211333Y-106856666D02*
X95253666Y-106814333D01*
X95296000Y-106729666D01*
X95296000Y-106602666D01*
X95253666Y-106518000D01*
X95169000Y-106475666D01*
X94703333Y-106475666D01*
X95169000Y-106475666D02*
X95253666Y-106433333D01*
X95296000Y-106348666D01*
X95296000Y-106221666D01*
X95253666Y-106137000D01*
X95169000Y-106094666D01*
X94703333Y-106094666D01*
D11*
X104164571Y-132012285D02*
X102664571Y-132012285D01*
X104164571Y-132726571D02*
X102664571Y-132726571D01*
X104164571Y-133583714D01*
X102664571Y-133583714D01*
D10*
X154063166Y-101670833D02*
X153174166Y-101670833D01*
X154020833Y-101670833D02*
X154063166Y-101586166D01*
X154063166Y-101416833D01*
X154020833Y-101332166D01*
X153978500Y-101289833D01*
X153893833Y-101247500D01*
X153639833Y-101247500D01*
X153555166Y-101289833D01*
X153512833Y-101332166D01*
X153470500Y-101416833D01*
X153470500Y-101586166D01*
X153512833Y-101670833D01*
X154063166Y-102094166D02*
X153174166Y-102094166D01*
X153512833Y-102094166D02*
X153470500Y-102178833D01*
X153470500Y-102348166D01*
X153512833Y-102432833D01*
X153555166Y-102475166D01*
X153639833Y-102517500D01*
X153893833Y-102517500D01*
X153978500Y-102475166D01*
X154020833Y-102432833D01*
X154063166Y-102348166D01*
X154063166Y-102178833D01*
X154020833Y-102094166D01*
X153724500Y-102898500D02*
X153724500Y-103575833D01*
X154020833Y-104337833D02*
X154063166Y-104253166D01*
X154063166Y-104083833D01*
X154020833Y-103999166D01*
X153936166Y-103956833D01*
X153597500Y-103956833D01*
X153512833Y-103999166D01*
X153470500Y-104083833D01*
X153470500Y-104253166D01*
X153512833Y-104337833D01*
X153597500Y-104380166D01*
X153682166Y-104380166D01*
X153766833Y-103956833D01*
X154063166Y-104888166D02*
X154020833Y-104803500D01*
X153936166Y-104761166D01*
X153174166Y-104761166D01*
X154020833Y-105565500D02*
X154063166Y-105480833D01*
X154063166Y-105311500D01*
X154020833Y-105226833D01*
X153936166Y-105184500D01*
X153597500Y-105184500D01*
X153512833Y-105226833D01*
X153470500Y-105311500D01*
X153470500Y-105480833D01*
X153512833Y-105565500D01*
X153597500Y-105607833D01*
X153682166Y-105607833D01*
X153766833Y-105184500D01*
X154020833Y-106369833D02*
X154063166Y-106285166D01*
X154063166Y-106115833D01*
X154020833Y-106031166D01*
X153978500Y-105988833D01*
X153893833Y-105946500D01*
X153639833Y-105946500D01*
X153555166Y-105988833D01*
X153512833Y-106031166D01*
X153470500Y-106115833D01*
X153470500Y-106285166D01*
X153512833Y-106369833D01*
X153470500Y-106623833D02*
X153470500Y-106962500D01*
X153174166Y-106750833D02*
X153936166Y-106750833D01*
X154020833Y-106793166D01*
X154063166Y-106877833D01*
X154063166Y-106962500D01*
X154063166Y-107258833D02*
X153470500Y-107258833D01*
X153639833Y-107258833D02*
X153555166Y-107301166D01*
X153512833Y-107343500D01*
X153470500Y-107428166D01*
X153470500Y-107512833D01*
X154063166Y-107936166D02*
X154020833Y-107851500D01*
X153978500Y-107809166D01*
X153893833Y-107766833D01*
X153639833Y-107766833D01*
X153555166Y-107809166D01*
X153512833Y-107851500D01*
X153470500Y-107936166D01*
X153470500Y-108063166D01*
X153512833Y-108147833D01*
X153555166Y-108190166D01*
X153639833Y-108232500D01*
X153893833Y-108232500D01*
X153978500Y-108190166D01*
X154020833Y-108147833D01*
X154063166Y-108063166D01*
X154063166Y-107936166D01*
X153470500Y-108613500D02*
X154063166Y-108613500D01*
X153555166Y-108613500D02*
X153512833Y-108655833D01*
X153470500Y-108740500D01*
X153470500Y-108867500D01*
X153512833Y-108952166D01*
X153597500Y-108994500D01*
X154063166Y-108994500D01*
X154063166Y-109417833D02*
X153470500Y-109417833D01*
X153174166Y-109417833D02*
X153216500Y-109375500D01*
X153258833Y-109417833D01*
X153216500Y-109460166D01*
X153174166Y-109417833D01*
X153258833Y-109417833D01*
X154020833Y-110222166D02*
X154063166Y-110137500D01*
X154063166Y-109968166D01*
X154020833Y-109883500D01*
X153978500Y-109841166D01*
X153893833Y-109798833D01*
X153639833Y-109798833D01*
X153555166Y-109841166D01*
X153512833Y-109883500D01*
X153470500Y-109968166D01*
X153470500Y-110137500D01*
X153512833Y-110222166D01*
X154020833Y-110560833D02*
X154063166Y-110645500D01*
X154063166Y-110814833D01*
X154020833Y-110899500D01*
X153936166Y-110941833D01*
X153893833Y-110941833D01*
X153809166Y-110899500D01*
X153766833Y-110814833D01*
X153766833Y-110687833D01*
X153724500Y-110603166D01*
X153639833Y-110560833D01*
X153597500Y-110560833D01*
X153512833Y-110603166D01*
X153470500Y-110687833D01*
X153470500Y-110814833D01*
X153512833Y-110899500D01*
X153978500Y-111322833D02*
X154020833Y-111365166D01*
X154063166Y-111322833D01*
X154020833Y-111280500D01*
X153978500Y-111322833D01*
X154063166Y-111322833D01*
X154020833Y-112127166D02*
X154063166Y-112042500D01*
X154063166Y-111873166D01*
X154020833Y-111788500D01*
X153978500Y-111746166D01*
X153893833Y-111703833D01*
X153639833Y-111703833D01*
X153555166Y-111746166D01*
X153512833Y-111788500D01*
X153470500Y-111873166D01*
X153470500Y-112042500D01*
X153512833Y-112127166D01*
X154063166Y-112889166D02*
X153597500Y-112889166D01*
X153512833Y-112846833D01*
X153470500Y-112762166D01*
X153470500Y-112592833D01*
X153512833Y-112508166D01*
X154020833Y-112889166D02*
X154063166Y-112804500D01*
X154063166Y-112592833D01*
X154020833Y-112508166D01*
X153936166Y-112465833D01*
X153851500Y-112465833D01*
X153766833Y-112508166D01*
X153724500Y-112592833D01*
X153724500Y-112804500D01*
X153682166Y-112889166D01*
D11*
X149165571Y-109306000D02*
X149165571Y-109591714D01*
X149237000Y-109734571D01*
X149379857Y-109877428D01*
X149665571Y-109948857D01*
X150165571Y-109948857D01*
X150451285Y-109877428D01*
X150594142Y-109734571D01*
X150665571Y-109591714D01*
X150665571Y-109306000D01*
X150594142Y-109163142D01*
X150451285Y-109020285D01*
X150165571Y-108948857D01*
X149665571Y-108948857D01*
X149379857Y-109020285D01*
X149237000Y-109163142D01*
X149165571Y-109306000D01*
X149165571Y-110591714D02*
X150379857Y-110591714D01*
X150522714Y-110663142D01*
X150594142Y-110734571D01*
X150665571Y-110877428D01*
X150665571Y-111163142D01*
X150594142Y-111306000D01*
X150522714Y-111377428D01*
X150379857Y-111448857D01*
X149165571Y-111448857D01*
X149165571Y-111948857D02*
X149165571Y-112806000D01*
X150665571Y-112377428D02*
X149165571Y-112377428D01*
X148014428Y-108496000D02*
X148014428Y-108210285D01*
X147943000Y-108067428D01*
X147800142Y-107924571D01*
X147514428Y-107853142D01*
X147014428Y-107853142D01*
X146728714Y-107924571D01*
X146585857Y-108067428D01*
X146514428Y-108210285D01*
X146514428Y-108496000D01*
X146585857Y-108638857D01*
X146728714Y-108781714D01*
X147014428Y-108853142D01*
X147514428Y-108853142D01*
X147800142Y-108781714D01*
X147943000Y-108638857D01*
X148014428Y-108496000D01*
X148014428Y-107210285D02*
X146800142Y-107210285D01*
X146657285Y-107138857D01*
X146585857Y-107067428D01*
X146514428Y-106924571D01*
X146514428Y-106638857D01*
X146585857Y-106496000D01*
X146657285Y-106424571D01*
X146800142Y-106353142D01*
X148014428Y-106353142D01*
X148014428Y-105853142D02*
X148014428Y-104996000D01*
X146514428Y-105424571D02*
X148014428Y-105424571D01*
D10*
X143036833Y-115937166D02*
X143925833Y-115937166D01*
X143079166Y-115937166D02*
X143036833Y-116021833D01*
X143036833Y-116191166D01*
X143079166Y-116275833D01*
X143121500Y-116318166D01*
X143206166Y-116360500D01*
X143460166Y-116360500D01*
X143544833Y-116318166D01*
X143587166Y-116275833D01*
X143629500Y-116191166D01*
X143629500Y-116021833D01*
X143587166Y-115937166D01*
X143036833Y-115513833D02*
X143925833Y-115513833D01*
X143587166Y-115513833D02*
X143629500Y-115429166D01*
X143629500Y-115259833D01*
X143587166Y-115175166D01*
X143544833Y-115132833D01*
X143460166Y-115090500D01*
X143206166Y-115090500D01*
X143121500Y-115132833D01*
X143079166Y-115175166D01*
X143036833Y-115259833D01*
X143036833Y-115429166D01*
X143079166Y-115513833D01*
X143375500Y-114709500D02*
X143375500Y-114032166D01*
X143079166Y-113270166D02*
X143036833Y-113354833D01*
X143036833Y-113524166D01*
X143079166Y-113608833D01*
X143163833Y-113651166D01*
X143502500Y-113651166D01*
X143587166Y-113608833D01*
X143629500Y-113524166D01*
X143629500Y-113354833D01*
X143587166Y-113270166D01*
X143502500Y-113227833D01*
X143417833Y-113227833D01*
X143333166Y-113651166D01*
X143036833Y-112719833D02*
X143079166Y-112804500D01*
X143163833Y-112846833D01*
X143925833Y-112846833D01*
X143079166Y-112042500D02*
X143036833Y-112127166D01*
X143036833Y-112296500D01*
X143079166Y-112381166D01*
X143163833Y-112423500D01*
X143502500Y-112423500D01*
X143587166Y-112381166D01*
X143629500Y-112296500D01*
X143629500Y-112127166D01*
X143587166Y-112042500D01*
X143502500Y-112000166D01*
X143417833Y-112000166D01*
X143333166Y-112423500D01*
X143079166Y-111238166D02*
X143036833Y-111322833D01*
X143036833Y-111492166D01*
X143079166Y-111576833D01*
X143121500Y-111619166D01*
X143206166Y-111661500D01*
X143460166Y-111661500D01*
X143544833Y-111619166D01*
X143587166Y-111576833D01*
X143629500Y-111492166D01*
X143629500Y-111322833D01*
X143587166Y-111238166D01*
X143629500Y-110984166D02*
X143629500Y-110645500D01*
X143925833Y-110857166D02*
X143163833Y-110857166D01*
X143079166Y-110814833D01*
X143036833Y-110730166D01*
X143036833Y-110645500D01*
X143036833Y-110349166D02*
X143629500Y-110349166D01*
X143460166Y-110349166D02*
X143544833Y-110306833D01*
X143587166Y-110264500D01*
X143629500Y-110179833D01*
X143629500Y-110095166D01*
X143036833Y-109671833D02*
X143079166Y-109756500D01*
X143121500Y-109798833D01*
X143206166Y-109841166D01*
X143460166Y-109841166D01*
X143544833Y-109798833D01*
X143587166Y-109756500D01*
X143629500Y-109671833D01*
X143629500Y-109544833D01*
X143587166Y-109460166D01*
X143544833Y-109417833D01*
X143460166Y-109375500D01*
X143206166Y-109375500D01*
X143121500Y-109417833D01*
X143079166Y-109460166D01*
X143036833Y-109544833D01*
X143036833Y-109671833D01*
X143629500Y-108994500D02*
X143036833Y-108994500D01*
X143544833Y-108994500D02*
X143587166Y-108952166D01*
X143629500Y-108867500D01*
X143629500Y-108740500D01*
X143587166Y-108655833D01*
X143502500Y-108613500D01*
X143036833Y-108613500D01*
X143036833Y-108190166D02*
X143629500Y-108190166D01*
X143925833Y-108190166D02*
X143883500Y-108232500D01*
X143841166Y-108190166D01*
X143883500Y-108147833D01*
X143925833Y-108190166D01*
X143841166Y-108190166D01*
X143079166Y-107385833D02*
X143036833Y-107470500D01*
X143036833Y-107639833D01*
X143079166Y-107724500D01*
X143121500Y-107766833D01*
X143206166Y-107809166D01*
X143460166Y-107809166D01*
X143544833Y-107766833D01*
X143587166Y-107724500D01*
X143629500Y-107639833D01*
X143629500Y-107470500D01*
X143587166Y-107385833D01*
X143079166Y-107047166D02*
X143036833Y-106962500D01*
X143036833Y-106793166D01*
X143079166Y-106708500D01*
X143163833Y-106666166D01*
X143206166Y-106666166D01*
X143290833Y-106708500D01*
X143333166Y-106793166D01*
X143333166Y-106920166D01*
X143375500Y-107004833D01*
X143460166Y-107047166D01*
X143502500Y-107047166D01*
X143587166Y-107004833D01*
X143629500Y-106920166D01*
X143629500Y-106793166D01*
X143587166Y-106708500D01*
X143121500Y-106285166D02*
X143079166Y-106242833D01*
X143036833Y-106285166D01*
X143079166Y-106327500D01*
X143121500Y-106285166D01*
X143036833Y-106285166D01*
X143079166Y-105480833D02*
X143036833Y-105565500D01*
X143036833Y-105734833D01*
X143079166Y-105819500D01*
X143121500Y-105861833D01*
X143206166Y-105904166D01*
X143460166Y-105904166D01*
X143544833Y-105861833D01*
X143587166Y-105819500D01*
X143629500Y-105734833D01*
X143629500Y-105565500D01*
X143587166Y-105480833D01*
X143036833Y-104718833D02*
X143502500Y-104718833D01*
X143587166Y-104761166D01*
X143629500Y-104845833D01*
X143629500Y-105015166D01*
X143587166Y-105099833D01*
X143079166Y-104718833D02*
X143036833Y-104803500D01*
X143036833Y-105015166D01*
X143079166Y-105099833D01*
X143163833Y-105142166D01*
X143248500Y-105142166D01*
X143333166Y-105099833D01*
X143375500Y-105015166D01*
X143375500Y-104803500D01*
X143417833Y-104718833D01*
X142296000Y-116339333D02*
X142296000Y-116000666D01*
X142592333Y-116212333D02*
X141830333Y-116212333D01*
X141745666Y-116170000D01*
X141703333Y-116085333D01*
X141703333Y-116000666D01*
X141703333Y-115704333D02*
X142296000Y-115704333D01*
X142592333Y-115704333D02*
X142550000Y-115746666D01*
X142507666Y-115704333D01*
X142550000Y-115662000D01*
X142592333Y-115704333D01*
X142507666Y-115704333D01*
X142296000Y-115281000D02*
X141703333Y-115281000D01*
X142211333Y-115281000D02*
X142253666Y-115238666D01*
X142296000Y-115154000D01*
X142296000Y-115027000D01*
X142253666Y-114942333D01*
X142169000Y-114900000D01*
X141703333Y-114900000D01*
X141703333Y-114476666D02*
X142592333Y-114476666D01*
X142042000Y-114392000D02*
X141703333Y-114138000D01*
X142296000Y-114138000D02*
X141957333Y-114476666D01*
X141745666Y-113418333D02*
X141703333Y-113503000D01*
X141703333Y-113672333D01*
X141745666Y-113757000D01*
X141830333Y-113799333D01*
X142169000Y-113799333D01*
X142253666Y-113757000D01*
X142296000Y-113672333D01*
X142296000Y-113503000D01*
X142253666Y-113418333D01*
X142169000Y-113376000D01*
X142084333Y-113376000D01*
X141999666Y-113799333D01*
X141703333Y-112995000D02*
X142296000Y-112995000D01*
X142126666Y-112995000D02*
X142211333Y-112952666D01*
X142253666Y-112910333D01*
X142296000Y-112825666D01*
X142296000Y-112741000D01*
X142296000Y-112444666D02*
X141407000Y-112444666D01*
X142253666Y-112444666D02*
X142296000Y-112360000D01*
X142296000Y-112190666D01*
X142253666Y-112106000D01*
X142211333Y-112063666D01*
X142126666Y-112021333D01*
X141872666Y-112021333D01*
X141788000Y-112063666D01*
X141745666Y-112106000D01*
X141703333Y-112190666D01*
X141703333Y-112360000D01*
X141745666Y-112444666D01*
X141703333Y-111513333D02*
X141745666Y-111598000D01*
X141830333Y-111640333D01*
X142592333Y-111640333D01*
X142296000Y-110793666D02*
X141703333Y-110793666D01*
X142296000Y-111174666D02*
X141830333Y-111174666D01*
X141745666Y-111132333D01*
X141703333Y-111047666D01*
X141703333Y-110920666D01*
X141745666Y-110836000D01*
X141788000Y-110793666D01*
X142296000Y-110370333D02*
X141703333Y-110370333D01*
X142211333Y-110370333D02*
X142253666Y-110328000D01*
X142296000Y-110243333D01*
X142296000Y-110116333D01*
X142253666Y-110031666D01*
X142169000Y-109989333D01*
X141703333Y-109989333D01*
X141703333Y-109566000D02*
X142592333Y-109566000D01*
X142042000Y-109481333D02*
X141703333Y-109227333D01*
X142296000Y-109227333D02*
X141957333Y-109566000D01*
X141788000Y-108846333D02*
X141745666Y-108804000D01*
X141703333Y-108846333D01*
X141745666Y-108888666D01*
X141788000Y-108846333D01*
X141703333Y-108846333D01*
X141745666Y-108042000D02*
X141703333Y-108126666D01*
X141703333Y-108296000D01*
X141745666Y-108380666D01*
X141788000Y-108423000D01*
X141872666Y-108465333D01*
X142126666Y-108465333D01*
X142211333Y-108423000D01*
X142253666Y-108380666D01*
X142296000Y-108296000D01*
X142296000Y-108126666D01*
X142253666Y-108042000D01*
X141703333Y-107534000D02*
X141745666Y-107618666D01*
X141788000Y-107661000D01*
X141872666Y-107703333D01*
X142126666Y-107703333D01*
X142211333Y-107661000D01*
X142253666Y-107618666D01*
X142296000Y-107534000D01*
X142296000Y-107407000D01*
X142253666Y-107322333D01*
X142211333Y-107280000D01*
X142126666Y-107237666D01*
X141872666Y-107237666D01*
X141788000Y-107280000D01*
X141745666Y-107322333D01*
X141703333Y-107407000D01*
X141703333Y-107534000D01*
X141703333Y-106856666D02*
X142296000Y-106856666D01*
X142211333Y-106856666D02*
X142253666Y-106814333D01*
X142296000Y-106729666D01*
X142296000Y-106602666D01*
X142253666Y-106518000D01*
X142169000Y-106475666D01*
X141703333Y-106475666D01*
X142169000Y-106475666D02*
X142253666Y-106433333D01*
X142296000Y-106348666D01*
X142296000Y-106221666D01*
X142253666Y-106137000D01*
X142169000Y-106094666D01*
X141703333Y-106094666D01*
X154804000Y-101268666D02*
X154804000Y-101607333D01*
X154507666Y-101395666D02*
X155269666Y-101395666D01*
X155354333Y-101438000D01*
X155396666Y-101522666D01*
X155396666Y-101607333D01*
X155396666Y-101903666D02*
X154804000Y-101903666D01*
X154507666Y-101903666D02*
X154550000Y-101861333D01*
X154592333Y-101903666D01*
X154550000Y-101946000D01*
X154507666Y-101903666D01*
X154592333Y-101903666D01*
X154804000Y-102327000D02*
X155396666Y-102327000D01*
X154888666Y-102327000D02*
X154846333Y-102369333D01*
X154804000Y-102454000D01*
X154804000Y-102581000D01*
X154846333Y-102665666D01*
X154931000Y-102708000D01*
X155396666Y-102708000D01*
X155396666Y-103131333D02*
X154507666Y-103131333D01*
X155058000Y-103216000D02*
X155396666Y-103470000D01*
X154804000Y-103470000D02*
X155142666Y-103131333D01*
X155354333Y-104189666D02*
X155396666Y-104105000D01*
X155396666Y-103935666D01*
X155354333Y-103851000D01*
X155269666Y-103808666D01*
X154931000Y-103808666D01*
X154846333Y-103851000D01*
X154804000Y-103935666D01*
X154804000Y-104105000D01*
X154846333Y-104189666D01*
X154931000Y-104232000D01*
X155015666Y-104232000D01*
X155100333Y-103808666D01*
X155396666Y-104613000D02*
X154804000Y-104613000D01*
X154973333Y-104613000D02*
X154888666Y-104655333D01*
X154846333Y-104697666D01*
X154804000Y-104782333D01*
X154804000Y-104867000D01*
X154804000Y-105163333D02*
X155693000Y-105163333D01*
X154846333Y-105163333D02*
X154804000Y-105248000D01*
X154804000Y-105417333D01*
X154846333Y-105502000D01*
X154888666Y-105544333D01*
X154973333Y-105586666D01*
X155227333Y-105586666D01*
X155312000Y-105544333D01*
X155354333Y-105502000D01*
X155396666Y-105417333D01*
X155396666Y-105248000D01*
X155354333Y-105163333D01*
X155396666Y-106094666D02*
X155354333Y-106010000D01*
X155269666Y-105967666D01*
X154507666Y-105967666D01*
X154804000Y-106814333D02*
X155396666Y-106814333D01*
X154804000Y-106433333D02*
X155269666Y-106433333D01*
X155354333Y-106475666D01*
X155396666Y-106560333D01*
X155396666Y-106687333D01*
X155354333Y-106772000D01*
X155312000Y-106814333D01*
X154804000Y-107237666D02*
X155396666Y-107237666D01*
X154888666Y-107237666D02*
X154846333Y-107280000D01*
X154804000Y-107364666D01*
X154804000Y-107491666D01*
X154846333Y-107576333D01*
X154931000Y-107618666D01*
X155396666Y-107618666D01*
X155396666Y-108042000D02*
X154507666Y-108042000D01*
X155058000Y-108126666D02*
X155396666Y-108380666D01*
X154804000Y-108380666D02*
X155142666Y-108042000D01*
X155312000Y-108761666D02*
X155354333Y-108804000D01*
X155396666Y-108761666D01*
X155354333Y-108719333D01*
X155312000Y-108761666D01*
X155396666Y-108761666D01*
X155354333Y-109566000D02*
X155396666Y-109481333D01*
X155396666Y-109312000D01*
X155354333Y-109227333D01*
X155312000Y-109185000D01*
X155227333Y-109142666D01*
X154973333Y-109142666D01*
X154888666Y-109185000D01*
X154846333Y-109227333D01*
X154804000Y-109312000D01*
X154804000Y-109481333D01*
X154846333Y-109566000D01*
X155396666Y-110074000D02*
X155354333Y-109989333D01*
X155312000Y-109947000D01*
X155227333Y-109904666D01*
X154973333Y-109904666D01*
X154888666Y-109947000D01*
X154846333Y-109989333D01*
X154804000Y-110074000D01*
X154804000Y-110201000D01*
X154846333Y-110285666D01*
X154888666Y-110328000D01*
X154973333Y-110370333D01*
X155227333Y-110370333D01*
X155312000Y-110328000D01*
X155354333Y-110285666D01*
X155396666Y-110201000D01*
X155396666Y-110074000D01*
X155396666Y-110751333D02*
X154804000Y-110751333D01*
X154888666Y-110751333D02*
X154846333Y-110793666D01*
X154804000Y-110878333D01*
X154804000Y-111005333D01*
X154846333Y-111090000D01*
X154931000Y-111132333D01*
X155396666Y-111132333D01*
X154931000Y-111132333D02*
X154846333Y-111174666D01*
X154804000Y-111259333D01*
X154804000Y-111386333D01*
X154846333Y-111471000D01*
X154931000Y-111513333D01*
X155396666Y-111513333D01*
X143036833Y-137137166D02*
X143925833Y-137137166D01*
X143079166Y-137137166D02*
X143036833Y-137221833D01*
X143036833Y-137391166D01*
X143079166Y-137475833D01*
X143121500Y-137518166D01*
X143206166Y-137560500D01*
X143460166Y-137560500D01*
X143544833Y-137518166D01*
X143587166Y-137475833D01*
X143629500Y-137391166D01*
X143629500Y-137221833D01*
X143587166Y-137137166D01*
X143036833Y-136713833D02*
X143925833Y-136713833D01*
X143587166Y-136713833D02*
X143629500Y-136629166D01*
X143629500Y-136459833D01*
X143587166Y-136375166D01*
X143544833Y-136332833D01*
X143460166Y-136290500D01*
X143206166Y-136290500D01*
X143121500Y-136332833D01*
X143079166Y-136375166D01*
X143036833Y-136459833D01*
X143036833Y-136629166D01*
X143079166Y-136713833D01*
X143375500Y-135909500D02*
X143375500Y-135232166D01*
X143079166Y-134470166D02*
X143036833Y-134554833D01*
X143036833Y-134724166D01*
X143079166Y-134808833D01*
X143163833Y-134851166D01*
X143502500Y-134851166D01*
X143587166Y-134808833D01*
X143629500Y-134724166D01*
X143629500Y-134554833D01*
X143587166Y-134470166D01*
X143502500Y-134427833D01*
X143417833Y-134427833D01*
X143333166Y-134851166D01*
X143036833Y-133919833D02*
X143079166Y-134004500D01*
X143163833Y-134046833D01*
X143925833Y-134046833D01*
X143079166Y-133242500D02*
X143036833Y-133327166D01*
X143036833Y-133496500D01*
X143079166Y-133581166D01*
X143163833Y-133623500D01*
X143502500Y-133623500D01*
X143587166Y-133581166D01*
X143629500Y-133496500D01*
X143629500Y-133327166D01*
X143587166Y-133242500D01*
X143502500Y-133200166D01*
X143417833Y-133200166D01*
X143333166Y-133623500D01*
X143079166Y-132438166D02*
X143036833Y-132522833D01*
X143036833Y-132692166D01*
X143079166Y-132776833D01*
X143121500Y-132819166D01*
X143206166Y-132861500D01*
X143460166Y-132861500D01*
X143544833Y-132819166D01*
X143587166Y-132776833D01*
X143629500Y-132692166D01*
X143629500Y-132522833D01*
X143587166Y-132438166D01*
X143629500Y-132184166D02*
X143629500Y-131845500D01*
X143925833Y-132057166D02*
X143163833Y-132057166D01*
X143079166Y-132014833D01*
X143036833Y-131930166D01*
X143036833Y-131845500D01*
X143036833Y-131549166D02*
X143629500Y-131549166D01*
X143460166Y-131549166D02*
X143544833Y-131506833D01*
X143587166Y-131464500D01*
X143629500Y-131379833D01*
X143629500Y-131295166D01*
X143036833Y-130871833D02*
X143079166Y-130956500D01*
X143121500Y-130998833D01*
X143206166Y-131041166D01*
X143460166Y-131041166D01*
X143544833Y-130998833D01*
X143587166Y-130956500D01*
X143629500Y-130871833D01*
X143629500Y-130744833D01*
X143587166Y-130660166D01*
X143544833Y-130617833D01*
X143460166Y-130575500D01*
X143206166Y-130575500D01*
X143121500Y-130617833D01*
X143079166Y-130660166D01*
X143036833Y-130744833D01*
X143036833Y-130871833D01*
X143629500Y-130194500D02*
X143036833Y-130194500D01*
X143544833Y-130194500D02*
X143587166Y-130152166D01*
X143629500Y-130067500D01*
X143629500Y-129940500D01*
X143587166Y-129855833D01*
X143502500Y-129813500D01*
X143036833Y-129813500D01*
X143036833Y-129390166D02*
X143629500Y-129390166D01*
X143925833Y-129390166D02*
X143883500Y-129432500D01*
X143841166Y-129390166D01*
X143883500Y-129347833D01*
X143925833Y-129390166D01*
X143841166Y-129390166D01*
X143079166Y-128585833D02*
X143036833Y-128670500D01*
X143036833Y-128839833D01*
X143079166Y-128924500D01*
X143121500Y-128966833D01*
X143206166Y-129009166D01*
X143460166Y-129009166D01*
X143544833Y-128966833D01*
X143587166Y-128924500D01*
X143629500Y-128839833D01*
X143629500Y-128670500D01*
X143587166Y-128585833D01*
X143079166Y-128247166D02*
X143036833Y-128162500D01*
X143036833Y-127993166D01*
X143079166Y-127908500D01*
X143163833Y-127866166D01*
X143206166Y-127866166D01*
X143290833Y-127908500D01*
X143333166Y-127993166D01*
X143333166Y-128120166D01*
X143375500Y-128204833D01*
X143460166Y-128247166D01*
X143502500Y-128247166D01*
X143587166Y-128204833D01*
X143629500Y-128120166D01*
X143629500Y-127993166D01*
X143587166Y-127908500D01*
X143121500Y-127485166D02*
X143079166Y-127442833D01*
X143036833Y-127485166D01*
X143079166Y-127527500D01*
X143121500Y-127485166D01*
X143036833Y-127485166D01*
X143079166Y-126680833D02*
X143036833Y-126765500D01*
X143036833Y-126934833D01*
X143079166Y-127019500D01*
X143121500Y-127061833D01*
X143206166Y-127104166D01*
X143460166Y-127104166D01*
X143544833Y-127061833D01*
X143587166Y-127019500D01*
X143629500Y-126934833D01*
X143629500Y-126765500D01*
X143587166Y-126680833D01*
X143036833Y-125918833D02*
X143502500Y-125918833D01*
X143587166Y-125961166D01*
X143629500Y-126045833D01*
X143629500Y-126215166D01*
X143587166Y-126299833D01*
X143079166Y-125918833D02*
X143036833Y-126003500D01*
X143036833Y-126215166D01*
X143079166Y-126299833D01*
X143163833Y-126342166D01*
X143248500Y-126342166D01*
X143333166Y-126299833D01*
X143375500Y-126215166D01*
X143375500Y-126003500D01*
X143417833Y-125918833D01*
D11*
X148014428Y-129498000D02*
X148014428Y-129212285D01*
X147943000Y-129069428D01*
X147800142Y-128926571D01*
X147514428Y-128855142D01*
X147014428Y-128855142D01*
X146728714Y-128926571D01*
X146585857Y-129069428D01*
X146514428Y-129212285D01*
X146514428Y-129498000D01*
X146585857Y-129640857D01*
X146728714Y-129783714D01*
X147014428Y-129855142D01*
X147514428Y-129855142D01*
X147800142Y-129783714D01*
X147943000Y-129640857D01*
X148014428Y-129498000D01*
X148014428Y-128212285D02*
X146800142Y-128212285D01*
X146657285Y-128140857D01*
X146585857Y-128069428D01*
X146514428Y-127926571D01*
X146514428Y-127640857D01*
X146585857Y-127498000D01*
X146657285Y-127426571D01*
X146800142Y-127355142D01*
X148014428Y-127355142D01*
X148014428Y-126855142D02*
X148014428Y-125998000D01*
X146514428Y-126426571D02*
X148014428Y-126426571D01*
X149165571Y-130308000D02*
X149165571Y-130593714D01*
X149237000Y-130736571D01*
X149379857Y-130879428D01*
X149665571Y-130950857D01*
X150165571Y-130950857D01*
X150451285Y-130879428D01*
X150594142Y-130736571D01*
X150665571Y-130593714D01*
X150665571Y-130308000D01*
X150594142Y-130165142D01*
X150451285Y-130022285D01*
X150165571Y-129950857D01*
X149665571Y-129950857D01*
X149379857Y-130022285D01*
X149237000Y-130165142D01*
X149165571Y-130308000D01*
X149165571Y-131593714D02*
X150379857Y-131593714D01*
X150522714Y-131665142D01*
X150594142Y-131736571D01*
X150665571Y-131879428D01*
X150665571Y-132165142D01*
X150594142Y-132308000D01*
X150522714Y-132379428D01*
X150379857Y-132450857D01*
X149165571Y-132450857D01*
X149165571Y-132950857D02*
X149165571Y-133808000D01*
X150665571Y-133379428D02*
X149165571Y-133379428D01*
D10*
X154804000Y-122468666D02*
X154804000Y-122807333D01*
X154507666Y-122595666D02*
X155269666Y-122595666D01*
X155354333Y-122638000D01*
X155396666Y-122722666D01*
X155396666Y-122807333D01*
X155396666Y-123103666D02*
X154804000Y-123103666D01*
X154507666Y-123103666D02*
X154550000Y-123061333D01*
X154592333Y-123103666D01*
X154550000Y-123146000D01*
X154507666Y-123103666D01*
X154592333Y-123103666D01*
X154804000Y-123527000D02*
X155396666Y-123527000D01*
X154888666Y-123527000D02*
X154846333Y-123569333D01*
X154804000Y-123654000D01*
X154804000Y-123781000D01*
X154846333Y-123865666D01*
X154931000Y-123908000D01*
X155396666Y-123908000D01*
X155396666Y-124331333D02*
X154507666Y-124331333D01*
X155058000Y-124416000D02*
X155396666Y-124670000D01*
X154804000Y-124670000D02*
X155142666Y-124331333D01*
X155354333Y-125389666D02*
X155396666Y-125305000D01*
X155396666Y-125135666D01*
X155354333Y-125051000D01*
X155269666Y-125008666D01*
X154931000Y-125008666D01*
X154846333Y-125051000D01*
X154804000Y-125135666D01*
X154804000Y-125305000D01*
X154846333Y-125389666D01*
X154931000Y-125432000D01*
X155015666Y-125432000D01*
X155100333Y-125008666D01*
X155396666Y-125813000D02*
X154804000Y-125813000D01*
X154973333Y-125813000D02*
X154888666Y-125855333D01*
X154846333Y-125897666D01*
X154804000Y-125982333D01*
X154804000Y-126067000D01*
X154804000Y-126363333D02*
X155693000Y-126363333D01*
X154846333Y-126363333D02*
X154804000Y-126448000D01*
X154804000Y-126617333D01*
X154846333Y-126702000D01*
X154888666Y-126744333D01*
X154973333Y-126786666D01*
X155227333Y-126786666D01*
X155312000Y-126744333D01*
X155354333Y-126702000D01*
X155396666Y-126617333D01*
X155396666Y-126448000D01*
X155354333Y-126363333D01*
X155396666Y-127294666D02*
X155354333Y-127210000D01*
X155269666Y-127167666D01*
X154507666Y-127167666D01*
X154804000Y-128014333D02*
X155396666Y-128014333D01*
X154804000Y-127633333D02*
X155269666Y-127633333D01*
X155354333Y-127675666D01*
X155396666Y-127760333D01*
X155396666Y-127887333D01*
X155354333Y-127972000D01*
X155312000Y-128014333D01*
X154804000Y-128437666D02*
X155396666Y-128437666D01*
X154888666Y-128437666D02*
X154846333Y-128480000D01*
X154804000Y-128564666D01*
X154804000Y-128691666D01*
X154846333Y-128776333D01*
X154931000Y-128818666D01*
X155396666Y-128818666D01*
X155396666Y-129242000D02*
X154507666Y-129242000D01*
X155058000Y-129326666D02*
X155396666Y-129580666D01*
X154804000Y-129580666D02*
X155142666Y-129242000D01*
X155312000Y-129961666D02*
X155354333Y-130004000D01*
X155396666Y-129961666D01*
X155354333Y-129919333D01*
X155312000Y-129961666D01*
X155396666Y-129961666D01*
X155354333Y-130766000D02*
X155396666Y-130681333D01*
X155396666Y-130512000D01*
X155354333Y-130427333D01*
X155312000Y-130385000D01*
X155227333Y-130342666D01*
X154973333Y-130342666D01*
X154888666Y-130385000D01*
X154846333Y-130427333D01*
X154804000Y-130512000D01*
X154804000Y-130681333D01*
X154846333Y-130766000D01*
X155396666Y-131274000D02*
X155354333Y-131189333D01*
X155312000Y-131147000D01*
X155227333Y-131104666D01*
X154973333Y-131104666D01*
X154888666Y-131147000D01*
X154846333Y-131189333D01*
X154804000Y-131274000D01*
X154804000Y-131401000D01*
X154846333Y-131485666D01*
X154888666Y-131528000D01*
X154973333Y-131570333D01*
X155227333Y-131570333D01*
X155312000Y-131528000D01*
X155354333Y-131485666D01*
X155396666Y-131401000D01*
X155396666Y-131274000D01*
X155396666Y-131951333D02*
X154804000Y-131951333D01*
X154888666Y-131951333D02*
X154846333Y-131993666D01*
X154804000Y-132078333D01*
X154804000Y-132205333D01*
X154846333Y-132290000D01*
X154931000Y-132332333D01*
X155396666Y-132332333D01*
X154931000Y-132332333D02*
X154846333Y-132374666D01*
X154804000Y-132459333D01*
X154804000Y-132586333D01*
X154846333Y-132671000D01*
X154931000Y-132713333D01*
X155396666Y-132713333D01*
X142296000Y-137539333D02*
X142296000Y-137200666D01*
X142592333Y-137412333D02*
X141830333Y-137412333D01*
X141745666Y-137370000D01*
X141703333Y-137285333D01*
X141703333Y-137200666D01*
X141703333Y-136904333D02*
X142296000Y-136904333D01*
X142592333Y-136904333D02*
X142550000Y-136946666D01*
X142507666Y-136904333D01*
X142550000Y-136862000D01*
X142592333Y-136904333D01*
X142507666Y-136904333D01*
X142296000Y-136481000D02*
X141703333Y-136481000D01*
X142211333Y-136481000D02*
X142253666Y-136438666D01*
X142296000Y-136354000D01*
X142296000Y-136227000D01*
X142253666Y-136142333D01*
X142169000Y-136100000D01*
X141703333Y-136100000D01*
X141703333Y-135676666D02*
X142592333Y-135676666D01*
X142042000Y-135592000D02*
X141703333Y-135338000D01*
X142296000Y-135338000D02*
X141957333Y-135676666D01*
X141745666Y-134618333D02*
X141703333Y-134703000D01*
X141703333Y-134872333D01*
X141745666Y-134957000D01*
X141830333Y-134999333D01*
X142169000Y-134999333D01*
X142253666Y-134957000D01*
X142296000Y-134872333D01*
X142296000Y-134703000D01*
X142253666Y-134618333D01*
X142169000Y-134576000D01*
X142084333Y-134576000D01*
X141999666Y-134999333D01*
X141703333Y-134195000D02*
X142296000Y-134195000D01*
X142126666Y-134195000D02*
X142211333Y-134152666D01*
X142253666Y-134110333D01*
X142296000Y-134025666D01*
X142296000Y-133941000D01*
X142296000Y-133644666D02*
X141407000Y-133644666D01*
X142253666Y-133644666D02*
X142296000Y-133560000D01*
X142296000Y-133390666D01*
X142253666Y-133306000D01*
X142211333Y-133263666D01*
X142126666Y-133221333D01*
X141872666Y-133221333D01*
X141788000Y-133263666D01*
X141745666Y-133306000D01*
X141703333Y-133390666D01*
X141703333Y-133560000D01*
X141745666Y-133644666D01*
X141703333Y-132713333D02*
X141745666Y-132798000D01*
X141830333Y-132840333D01*
X142592333Y-132840333D01*
X142296000Y-131993666D02*
X141703333Y-131993666D01*
X142296000Y-132374666D02*
X141830333Y-132374666D01*
X141745666Y-132332333D01*
X141703333Y-132247666D01*
X141703333Y-132120666D01*
X141745666Y-132036000D01*
X141788000Y-131993666D01*
X142296000Y-131570333D02*
X141703333Y-131570333D01*
X142211333Y-131570333D02*
X142253666Y-131528000D01*
X142296000Y-131443333D01*
X142296000Y-131316333D01*
X142253666Y-131231666D01*
X142169000Y-131189333D01*
X141703333Y-131189333D01*
X141703333Y-130766000D02*
X142592333Y-130766000D01*
X142042000Y-130681333D02*
X141703333Y-130427333D01*
X142296000Y-130427333D02*
X141957333Y-130766000D01*
X141788000Y-130046333D02*
X141745666Y-130004000D01*
X141703333Y-130046333D01*
X141745666Y-130088666D01*
X141788000Y-130046333D01*
X141703333Y-130046333D01*
X141745666Y-129242000D02*
X141703333Y-129326666D01*
X141703333Y-129496000D01*
X141745666Y-129580666D01*
X141788000Y-129623000D01*
X141872666Y-129665333D01*
X142126666Y-129665333D01*
X142211333Y-129623000D01*
X142253666Y-129580666D01*
X142296000Y-129496000D01*
X142296000Y-129326666D01*
X142253666Y-129242000D01*
X141703333Y-128734000D02*
X141745666Y-128818666D01*
X141788000Y-128861000D01*
X141872666Y-128903333D01*
X142126666Y-128903333D01*
X142211333Y-128861000D01*
X142253666Y-128818666D01*
X142296000Y-128734000D01*
X142296000Y-128607000D01*
X142253666Y-128522333D01*
X142211333Y-128480000D01*
X142126666Y-128437666D01*
X141872666Y-128437666D01*
X141788000Y-128480000D01*
X141745666Y-128522333D01*
X141703333Y-128607000D01*
X141703333Y-128734000D01*
X141703333Y-128056666D02*
X142296000Y-128056666D01*
X142211333Y-128056666D02*
X142253666Y-128014333D01*
X142296000Y-127929666D01*
X142296000Y-127802666D01*
X142253666Y-127718000D01*
X142169000Y-127675666D01*
X141703333Y-127675666D01*
X142169000Y-127675666D02*
X142253666Y-127633333D01*
X142296000Y-127548666D01*
X142296000Y-127421666D01*
X142253666Y-127337000D01*
X142169000Y-127294666D01*
X141703333Y-127294666D01*
X154063166Y-122870833D02*
X153174166Y-122870833D01*
X154020833Y-122870833D02*
X154063166Y-122786166D01*
X154063166Y-122616833D01*
X154020833Y-122532166D01*
X153978500Y-122489833D01*
X153893833Y-122447500D01*
X153639833Y-122447500D01*
X153555166Y-122489833D01*
X153512833Y-122532166D01*
X153470500Y-122616833D01*
X153470500Y-122786166D01*
X153512833Y-122870833D01*
X154063166Y-123294166D02*
X153174166Y-123294166D01*
X153512833Y-123294166D02*
X153470500Y-123378833D01*
X153470500Y-123548166D01*
X153512833Y-123632833D01*
X153555166Y-123675166D01*
X153639833Y-123717500D01*
X153893833Y-123717500D01*
X153978500Y-123675166D01*
X154020833Y-123632833D01*
X154063166Y-123548166D01*
X154063166Y-123378833D01*
X154020833Y-123294166D01*
X153724500Y-124098500D02*
X153724500Y-124775833D01*
X154020833Y-125537833D02*
X154063166Y-125453166D01*
X154063166Y-125283833D01*
X154020833Y-125199166D01*
X153936166Y-125156833D01*
X153597500Y-125156833D01*
X153512833Y-125199166D01*
X153470500Y-125283833D01*
X153470500Y-125453166D01*
X153512833Y-125537833D01*
X153597500Y-125580166D01*
X153682166Y-125580166D01*
X153766833Y-125156833D01*
X154063166Y-126088166D02*
X154020833Y-126003500D01*
X153936166Y-125961166D01*
X153174166Y-125961166D01*
X154020833Y-126765500D02*
X154063166Y-126680833D01*
X154063166Y-126511500D01*
X154020833Y-126426833D01*
X153936166Y-126384500D01*
X153597500Y-126384500D01*
X153512833Y-126426833D01*
X153470500Y-126511500D01*
X153470500Y-126680833D01*
X153512833Y-126765500D01*
X153597500Y-126807833D01*
X153682166Y-126807833D01*
X153766833Y-126384500D01*
X154020833Y-127569833D02*
X154063166Y-127485166D01*
X154063166Y-127315833D01*
X154020833Y-127231166D01*
X153978500Y-127188833D01*
X153893833Y-127146500D01*
X153639833Y-127146500D01*
X153555166Y-127188833D01*
X153512833Y-127231166D01*
X153470500Y-127315833D01*
X153470500Y-127485166D01*
X153512833Y-127569833D01*
X153470500Y-127823833D02*
X153470500Y-128162500D01*
X153174166Y-127950833D02*
X153936166Y-127950833D01*
X154020833Y-127993166D01*
X154063166Y-128077833D01*
X154063166Y-128162500D01*
X154063166Y-128458833D02*
X153470500Y-128458833D01*
X153639833Y-128458833D02*
X153555166Y-128501166D01*
X153512833Y-128543500D01*
X153470500Y-128628166D01*
X153470500Y-128712833D01*
X154063166Y-129136166D02*
X154020833Y-129051500D01*
X153978500Y-129009166D01*
X153893833Y-128966833D01*
X153639833Y-128966833D01*
X153555166Y-129009166D01*
X153512833Y-129051500D01*
X153470500Y-129136166D01*
X153470500Y-129263166D01*
X153512833Y-129347833D01*
X153555166Y-129390166D01*
X153639833Y-129432500D01*
X153893833Y-129432500D01*
X153978500Y-129390166D01*
X154020833Y-129347833D01*
X154063166Y-129263166D01*
X154063166Y-129136166D01*
X153470500Y-129813500D02*
X154063166Y-129813500D01*
X153555166Y-129813500D02*
X153512833Y-129855833D01*
X153470500Y-129940500D01*
X153470500Y-130067500D01*
X153512833Y-130152166D01*
X153597500Y-130194500D01*
X154063166Y-130194500D01*
X154063166Y-130617833D02*
X153470500Y-130617833D01*
X153174166Y-130617833D02*
X153216500Y-130575500D01*
X153258833Y-130617833D01*
X153216500Y-130660166D01*
X153174166Y-130617833D01*
X153258833Y-130617833D01*
X154020833Y-131422166D02*
X154063166Y-131337500D01*
X154063166Y-131168166D01*
X154020833Y-131083500D01*
X153978500Y-131041166D01*
X153893833Y-130998833D01*
X153639833Y-130998833D01*
X153555166Y-131041166D01*
X153512833Y-131083500D01*
X153470500Y-131168166D01*
X153470500Y-131337500D01*
X153512833Y-131422166D01*
X154020833Y-131760833D02*
X154063166Y-131845500D01*
X154063166Y-132014833D01*
X154020833Y-132099500D01*
X153936166Y-132141833D01*
X153893833Y-132141833D01*
X153809166Y-132099500D01*
X153766833Y-132014833D01*
X153766833Y-131887833D01*
X153724500Y-131803166D01*
X153639833Y-131760833D01*
X153597500Y-131760833D01*
X153512833Y-131803166D01*
X153470500Y-131887833D01*
X153470500Y-132014833D01*
X153512833Y-132099500D01*
X153978500Y-132522833D02*
X154020833Y-132565166D01*
X154063166Y-132522833D01*
X154020833Y-132480500D01*
X153978500Y-132522833D01*
X154063166Y-132522833D01*
X154020833Y-133327166D02*
X154063166Y-133242500D01*
X154063166Y-133073166D01*
X154020833Y-132988500D01*
X153978500Y-132946166D01*
X153893833Y-132903833D01*
X153639833Y-132903833D01*
X153555166Y-132946166D01*
X153512833Y-132988500D01*
X153470500Y-133073166D01*
X153470500Y-133242500D01*
X153512833Y-133327166D01*
X154063166Y-134089166D02*
X153597500Y-134089166D01*
X153512833Y-134046833D01*
X153470500Y-133962166D01*
X153470500Y-133792833D01*
X153512833Y-133708166D01*
X154020833Y-134089166D02*
X154063166Y-134004500D01*
X154063166Y-133792833D01*
X154020833Y-133708166D01*
X153936166Y-133665833D01*
X153851500Y-133665833D01*
X153766833Y-133708166D01*
X153724500Y-133792833D01*
X153724500Y-134004500D01*
X153682166Y-134089166D01*
D11*
X149165571Y-87908000D02*
X149165571Y-88193714D01*
X149237000Y-88336571D01*
X149379857Y-88479428D01*
X149665571Y-88550857D01*
X150165571Y-88550857D01*
X150451285Y-88479428D01*
X150594142Y-88336571D01*
X150665571Y-88193714D01*
X150665571Y-87908000D01*
X150594142Y-87765142D01*
X150451285Y-87622285D01*
X150165571Y-87550857D01*
X149665571Y-87550857D01*
X149379857Y-87622285D01*
X149237000Y-87765142D01*
X149165571Y-87908000D01*
X149165571Y-89193714D02*
X150379857Y-89193714D01*
X150522714Y-89265142D01*
X150594142Y-89336571D01*
X150665571Y-89479428D01*
X150665571Y-89765142D01*
X150594142Y-89908000D01*
X150522714Y-89979428D01*
X150379857Y-90050857D01*
X149165571Y-90050857D01*
X149165571Y-90550857D02*
X149165571Y-91408000D01*
X150665571Y-90979428D02*
X149165571Y-90979428D01*
D10*
X154804000Y-80068666D02*
X154804000Y-80407333D01*
X154507666Y-80195666D02*
X155269666Y-80195666D01*
X155354333Y-80238000D01*
X155396666Y-80322666D01*
X155396666Y-80407333D01*
X155396666Y-80703666D02*
X154804000Y-80703666D01*
X154507666Y-80703666D02*
X154550000Y-80661333D01*
X154592333Y-80703666D01*
X154550000Y-80746000D01*
X154507666Y-80703666D01*
X154592333Y-80703666D01*
X154804000Y-81127000D02*
X155396666Y-81127000D01*
X154888666Y-81127000D02*
X154846333Y-81169333D01*
X154804000Y-81254000D01*
X154804000Y-81381000D01*
X154846333Y-81465666D01*
X154931000Y-81508000D01*
X155396666Y-81508000D01*
X155396666Y-81931333D02*
X154507666Y-81931333D01*
X155058000Y-82016000D02*
X155396666Y-82270000D01*
X154804000Y-82270000D02*
X155142666Y-81931333D01*
X155354333Y-82989666D02*
X155396666Y-82905000D01*
X155396666Y-82735666D01*
X155354333Y-82651000D01*
X155269666Y-82608666D01*
X154931000Y-82608666D01*
X154846333Y-82651000D01*
X154804000Y-82735666D01*
X154804000Y-82905000D01*
X154846333Y-82989666D01*
X154931000Y-83032000D01*
X155015666Y-83032000D01*
X155100333Y-82608666D01*
X155396666Y-83413000D02*
X154804000Y-83413000D01*
X154973333Y-83413000D02*
X154888666Y-83455333D01*
X154846333Y-83497666D01*
X154804000Y-83582333D01*
X154804000Y-83667000D01*
X154804000Y-83963333D02*
X155693000Y-83963333D01*
X154846333Y-83963333D02*
X154804000Y-84048000D01*
X154804000Y-84217333D01*
X154846333Y-84302000D01*
X154888666Y-84344333D01*
X154973333Y-84386666D01*
X155227333Y-84386666D01*
X155312000Y-84344333D01*
X155354333Y-84302000D01*
X155396666Y-84217333D01*
X155396666Y-84048000D01*
X155354333Y-83963333D01*
X155396666Y-84894666D02*
X155354333Y-84810000D01*
X155269666Y-84767666D01*
X154507666Y-84767666D01*
X154804000Y-85614333D02*
X155396666Y-85614333D01*
X154804000Y-85233333D02*
X155269666Y-85233333D01*
X155354333Y-85275666D01*
X155396666Y-85360333D01*
X155396666Y-85487333D01*
X155354333Y-85572000D01*
X155312000Y-85614333D01*
X154804000Y-86037666D02*
X155396666Y-86037666D01*
X154888666Y-86037666D02*
X154846333Y-86080000D01*
X154804000Y-86164666D01*
X154804000Y-86291666D01*
X154846333Y-86376333D01*
X154931000Y-86418666D01*
X155396666Y-86418666D01*
X155396666Y-86842000D02*
X154507666Y-86842000D01*
X155058000Y-86926666D02*
X155396666Y-87180666D01*
X154804000Y-87180666D02*
X155142666Y-86842000D01*
X155312000Y-87561666D02*
X155354333Y-87604000D01*
X155396666Y-87561666D01*
X155354333Y-87519333D01*
X155312000Y-87561666D01*
X155396666Y-87561666D01*
X155354333Y-88366000D02*
X155396666Y-88281333D01*
X155396666Y-88112000D01*
X155354333Y-88027333D01*
X155312000Y-87985000D01*
X155227333Y-87942666D01*
X154973333Y-87942666D01*
X154888666Y-87985000D01*
X154846333Y-88027333D01*
X154804000Y-88112000D01*
X154804000Y-88281333D01*
X154846333Y-88366000D01*
X155396666Y-88874000D02*
X155354333Y-88789333D01*
X155312000Y-88747000D01*
X155227333Y-88704666D01*
X154973333Y-88704666D01*
X154888666Y-88747000D01*
X154846333Y-88789333D01*
X154804000Y-88874000D01*
X154804000Y-89001000D01*
X154846333Y-89085666D01*
X154888666Y-89128000D01*
X154973333Y-89170333D01*
X155227333Y-89170333D01*
X155312000Y-89128000D01*
X155354333Y-89085666D01*
X155396666Y-89001000D01*
X155396666Y-88874000D01*
X155396666Y-89551333D02*
X154804000Y-89551333D01*
X154888666Y-89551333D02*
X154846333Y-89593666D01*
X154804000Y-89678333D01*
X154804000Y-89805333D01*
X154846333Y-89890000D01*
X154931000Y-89932333D01*
X155396666Y-89932333D01*
X154931000Y-89932333D02*
X154846333Y-89974666D01*
X154804000Y-90059333D01*
X154804000Y-90186333D01*
X154846333Y-90271000D01*
X154931000Y-90313333D01*
X155396666Y-90313333D01*
X142296000Y-95139333D02*
X142296000Y-94800666D01*
X142592333Y-95012333D02*
X141830333Y-95012333D01*
X141745666Y-94970000D01*
X141703333Y-94885333D01*
X141703333Y-94800666D01*
X141703333Y-94504333D02*
X142296000Y-94504333D01*
X142592333Y-94504333D02*
X142550000Y-94546666D01*
X142507666Y-94504333D01*
X142550000Y-94462000D01*
X142592333Y-94504333D01*
X142507666Y-94504333D01*
X142296000Y-94081000D02*
X141703333Y-94081000D01*
X142211333Y-94081000D02*
X142253666Y-94038666D01*
X142296000Y-93954000D01*
X142296000Y-93827000D01*
X142253666Y-93742333D01*
X142169000Y-93700000D01*
X141703333Y-93700000D01*
X141703333Y-93276666D02*
X142592333Y-93276666D01*
X142042000Y-93192000D02*
X141703333Y-92938000D01*
X142296000Y-92938000D02*
X141957333Y-93276666D01*
X141745666Y-92218333D02*
X141703333Y-92303000D01*
X141703333Y-92472333D01*
X141745666Y-92557000D01*
X141830333Y-92599333D01*
X142169000Y-92599333D01*
X142253666Y-92557000D01*
X142296000Y-92472333D01*
X142296000Y-92303000D01*
X142253666Y-92218333D01*
X142169000Y-92176000D01*
X142084333Y-92176000D01*
X141999666Y-92599333D01*
X141703333Y-91795000D02*
X142296000Y-91795000D01*
X142126666Y-91795000D02*
X142211333Y-91752666D01*
X142253666Y-91710333D01*
X142296000Y-91625666D01*
X142296000Y-91541000D01*
X142296000Y-91244666D02*
X141407000Y-91244666D01*
X142253666Y-91244666D02*
X142296000Y-91160000D01*
X142296000Y-90990666D01*
X142253666Y-90906000D01*
X142211333Y-90863666D01*
X142126666Y-90821333D01*
X141872666Y-90821333D01*
X141788000Y-90863666D01*
X141745666Y-90906000D01*
X141703333Y-90990666D01*
X141703333Y-91160000D01*
X141745666Y-91244666D01*
X141703333Y-90313333D02*
X141745666Y-90398000D01*
X141830333Y-90440333D01*
X142592333Y-90440333D01*
X142296000Y-89593666D02*
X141703333Y-89593666D01*
X142296000Y-89974666D02*
X141830333Y-89974666D01*
X141745666Y-89932333D01*
X141703333Y-89847666D01*
X141703333Y-89720666D01*
X141745666Y-89636000D01*
X141788000Y-89593666D01*
X142296000Y-89170333D02*
X141703333Y-89170333D01*
X142211333Y-89170333D02*
X142253666Y-89128000D01*
X142296000Y-89043333D01*
X142296000Y-88916333D01*
X142253666Y-88831666D01*
X142169000Y-88789333D01*
X141703333Y-88789333D01*
X141703333Y-88366000D02*
X142592333Y-88366000D01*
X142042000Y-88281333D02*
X141703333Y-88027333D01*
X142296000Y-88027333D02*
X141957333Y-88366000D01*
X141788000Y-87646333D02*
X141745666Y-87604000D01*
X141703333Y-87646333D01*
X141745666Y-87688666D01*
X141788000Y-87646333D01*
X141703333Y-87646333D01*
X141745666Y-86842000D02*
X141703333Y-86926666D01*
X141703333Y-87096000D01*
X141745666Y-87180666D01*
X141788000Y-87223000D01*
X141872666Y-87265333D01*
X142126666Y-87265333D01*
X142211333Y-87223000D01*
X142253666Y-87180666D01*
X142296000Y-87096000D01*
X142296000Y-86926666D01*
X142253666Y-86842000D01*
X141703333Y-86334000D02*
X141745666Y-86418666D01*
X141788000Y-86461000D01*
X141872666Y-86503333D01*
X142126666Y-86503333D01*
X142211333Y-86461000D01*
X142253666Y-86418666D01*
X142296000Y-86334000D01*
X142296000Y-86207000D01*
X142253666Y-86122333D01*
X142211333Y-86080000D01*
X142126666Y-86037666D01*
X141872666Y-86037666D01*
X141788000Y-86080000D01*
X141745666Y-86122333D01*
X141703333Y-86207000D01*
X141703333Y-86334000D01*
X141703333Y-85656666D02*
X142296000Y-85656666D01*
X142211333Y-85656666D02*
X142253666Y-85614333D01*
X142296000Y-85529666D01*
X142296000Y-85402666D01*
X142253666Y-85318000D01*
X142169000Y-85275666D01*
X141703333Y-85275666D01*
X142169000Y-85275666D02*
X142253666Y-85233333D01*
X142296000Y-85148666D01*
X142296000Y-85021666D01*
X142253666Y-84937000D01*
X142169000Y-84894666D01*
X141703333Y-84894666D01*
D11*
X148014428Y-87098000D02*
X148014428Y-86812285D01*
X147943000Y-86669428D01*
X147800142Y-86526571D01*
X147514428Y-86455142D01*
X147014428Y-86455142D01*
X146728714Y-86526571D01*
X146585857Y-86669428D01*
X146514428Y-86812285D01*
X146514428Y-87098000D01*
X146585857Y-87240857D01*
X146728714Y-87383714D01*
X147014428Y-87455142D01*
X147514428Y-87455142D01*
X147800142Y-87383714D01*
X147943000Y-87240857D01*
X148014428Y-87098000D01*
X148014428Y-85812285D02*
X146800142Y-85812285D01*
X146657285Y-85740857D01*
X146585857Y-85669428D01*
X146514428Y-85526571D01*
X146514428Y-85240857D01*
X146585857Y-85098000D01*
X146657285Y-85026571D01*
X146800142Y-84955142D01*
X148014428Y-84955142D01*
X148014428Y-84455142D02*
X148014428Y-83598000D01*
X146514428Y-84026571D02*
X148014428Y-84026571D01*
D10*
X143036833Y-94737166D02*
X143925833Y-94737166D01*
X143079166Y-94737166D02*
X143036833Y-94821833D01*
X143036833Y-94991166D01*
X143079166Y-95075833D01*
X143121500Y-95118166D01*
X143206166Y-95160500D01*
X143460166Y-95160500D01*
X143544833Y-95118166D01*
X143587166Y-95075833D01*
X143629500Y-94991166D01*
X143629500Y-94821833D01*
X143587166Y-94737166D01*
X143036833Y-94313833D02*
X143925833Y-94313833D01*
X143587166Y-94313833D02*
X143629500Y-94229166D01*
X143629500Y-94059833D01*
X143587166Y-93975166D01*
X143544833Y-93932833D01*
X143460166Y-93890500D01*
X143206166Y-93890500D01*
X143121500Y-93932833D01*
X143079166Y-93975166D01*
X143036833Y-94059833D01*
X143036833Y-94229166D01*
X143079166Y-94313833D01*
X143375500Y-93509500D02*
X143375500Y-92832166D01*
X143079166Y-92070166D02*
X143036833Y-92154833D01*
X143036833Y-92324166D01*
X143079166Y-92408833D01*
X143163833Y-92451166D01*
X143502500Y-92451166D01*
X143587166Y-92408833D01*
X143629500Y-92324166D01*
X143629500Y-92154833D01*
X143587166Y-92070166D01*
X143502500Y-92027833D01*
X143417833Y-92027833D01*
X143333166Y-92451166D01*
X143036833Y-91519833D02*
X143079166Y-91604500D01*
X143163833Y-91646833D01*
X143925833Y-91646833D01*
X143079166Y-90842500D02*
X143036833Y-90927166D01*
X143036833Y-91096500D01*
X143079166Y-91181166D01*
X143163833Y-91223500D01*
X143502500Y-91223500D01*
X143587166Y-91181166D01*
X143629500Y-91096500D01*
X143629500Y-90927166D01*
X143587166Y-90842500D01*
X143502500Y-90800166D01*
X143417833Y-90800166D01*
X143333166Y-91223500D01*
X143079166Y-90038166D02*
X143036833Y-90122833D01*
X143036833Y-90292166D01*
X143079166Y-90376833D01*
X143121500Y-90419166D01*
X143206166Y-90461500D01*
X143460166Y-90461500D01*
X143544833Y-90419166D01*
X143587166Y-90376833D01*
X143629500Y-90292166D01*
X143629500Y-90122833D01*
X143587166Y-90038166D01*
X143629500Y-89784166D02*
X143629500Y-89445500D01*
X143925833Y-89657166D02*
X143163833Y-89657166D01*
X143079166Y-89614833D01*
X143036833Y-89530166D01*
X143036833Y-89445500D01*
X143036833Y-89149166D02*
X143629500Y-89149166D01*
X143460166Y-89149166D02*
X143544833Y-89106833D01*
X143587166Y-89064500D01*
X143629500Y-88979833D01*
X143629500Y-88895166D01*
X143036833Y-88471833D02*
X143079166Y-88556500D01*
X143121500Y-88598833D01*
X143206166Y-88641166D01*
X143460166Y-88641166D01*
X143544833Y-88598833D01*
X143587166Y-88556500D01*
X143629500Y-88471833D01*
X143629500Y-88344833D01*
X143587166Y-88260166D01*
X143544833Y-88217833D01*
X143460166Y-88175500D01*
X143206166Y-88175500D01*
X143121500Y-88217833D01*
X143079166Y-88260166D01*
X143036833Y-88344833D01*
X143036833Y-88471833D01*
X143629500Y-87794500D02*
X143036833Y-87794500D01*
X143544833Y-87794500D02*
X143587166Y-87752166D01*
X143629500Y-87667500D01*
X143629500Y-87540500D01*
X143587166Y-87455833D01*
X143502500Y-87413500D01*
X143036833Y-87413500D01*
X143036833Y-86990166D02*
X143629500Y-86990166D01*
X143925833Y-86990166D02*
X143883500Y-87032500D01*
X143841166Y-86990166D01*
X143883500Y-86947833D01*
X143925833Y-86990166D01*
X143841166Y-86990166D01*
X143079166Y-86185833D02*
X143036833Y-86270500D01*
X143036833Y-86439833D01*
X143079166Y-86524500D01*
X143121500Y-86566833D01*
X143206166Y-86609166D01*
X143460166Y-86609166D01*
X143544833Y-86566833D01*
X143587166Y-86524500D01*
X143629500Y-86439833D01*
X143629500Y-86270500D01*
X143587166Y-86185833D01*
X143079166Y-85847166D02*
X143036833Y-85762500D01*
X143036833Y-85593166D01*
X143079166Y-85508500D01*
X143163833Y-85466166D01*
X143206166Y-85466166D01*
X143290833Y-85508500D01*
X143333166Y-85593166D01*
X143333166Y-85720166D01*
X143375500Y-85804833D01*
X143460166Y-85847166D01*
X143502500Y-85847166D01*
X143587166Y-85804833D01*
X143629500Y-85720166D01*
X143629500Y-85593166D01*
X143587166Y-85508500D01*
X143121500Y-85085166D02*
X143079166Y-85042833D01*
X143036833Y-85085166D01*
X143079166Y-85127500D01*
X143121500Y-85085166D01*
X143036833Y-85085166D01*
X143079166Y-84280833D02*
X143036833Y-84365500D01*
X143036833Y-84534833D01*
X143079166Y-84619500D01*
X143121500Y-84661833D01*
X143206166Y-84704166D01*
X143460166Y-84704166D01*
X143544833Y-84661833D01*
X143587166Y-84619500D01*
X143629500Y-84534833D01*
X143629500Y-84365500D01*
X143587166Y-84280833D01*
X143036833Y-83518833D02*
X143502500Y-83518833D01*
X143587166Y-83561166D01*
X143629500Y-83645833D01*
X143629500Y-83815166D01*
X143587166Y-83899833D01*
X143079166Y-83518833D02*
X143036833Y-83603500D01*
X143036833Y-83815166D01*
X143079166Y-83899833D01*
X143163833Y-83942166D01*
X143248500Y-83942166D01*
X143333166Y-83899833D01*
X143375500Y-83815166D01*
X143375500Y-83603500D01*
X143417833Y-83518833D01*
X154063166Y-80470833D02*
X153174166Y-80470833D01*
X154020833Y-80470833D02*
X154063166Y-80386166D01*
X154063166Y-80216833D01*
X154020833Y-80132166D01*
X153978500Y-80089833D01*
X153893833Y-80047500D01*
X153639833Y-80047500D01*
X153555166Y-80089833D01*
X153512833Y-80132166D01*
X153470500Y-80216833D01*
X153470500Y-80386166D01*
X153512833Y-80470833D01*
X154063166Y-80894166D02*
X153174166Y-80894166D01*
X153512833Y-80894166D02*
X153470500Y-80978833D01*
X153470500Y-81148166D01*
X153512833Y-81232833D01*
X153555166Y-81275166D01*
X153639833Y-81317500D01*
X153893833Y-81317500D01*
X153978500Y-81275166D01*
X154020833Y-81232833D01*
X154063166Y-81148166D01*
X154063166Y-80978833D01*
X154020833Y-80894166D01*
X153724500Y-81698500D02*
X153724500Y-82375833D01*
X154020833Y-83137833D02*
X154063166Y-83053166D01*
X154063166Y-82883833D01*
X154020833Y-82799166D01*
X153936166Y-82756833D01*
X153597500Y-82756833D01*
X153512833Y-82799166D01*
X153470500Y-82883833D01*
X153470500Y-83053166D01*
X153512833Y-83137833D01*
X153597500Y-83180166D01*
X153682166Y-83180166D01*
X153766833Y-82756833D01*
X154063166Y-83688166D02*
X154020833Y-83603500D01*
X153936166Y-83561166D01*
X153174166Y-83561166D01*
X154020833Y-84365500D02*
X154063166Y-84280833D01*
X154063166Y-84111500D01*
X154020833Y-84026833D01*
X153936166Y-83984500D01*
X153597500Y-83984500D01*
X153512833Y-84026833D01*
X153470500Y-84111500D01*
X153470500Y-84280833D01*
X153512833Y-84365500D01*
X153597500Y-84407833D01*
X153682166Y-84407833D01*
X153766833Y-83984500D01*
X154020833Y-85169833D02*
X154063166Y-85085166D01*
X154063166Y-84915833D01*
X154020833Y-84831166D01*
X153978500Y-84788833D01*
X153893833Y-84746500D01*
X153639833Y-84746500D01*
X153555166Y-84788833D01*
X153512833Y-84831166D01*
X153470500Y-84915833D01*
X153470500Y-85085166D01*
X153512833Y-85169833D01*
X153470500Y-85423833D02*
X153470500Y-85762500D01*
X153174166Y-85550833D02*
X153936166Y-85550833D01*
X154020833Y-85593166D01*
X154063166Y-85677833D01*
X154063166Y-85762500D01*
X154063166Y-86058833D02*
X153470500Y-86058833D01*
X153639833Y-86058833D02*
X153555166Y-86101166D01*
X153512833Y-86143500D01*
X153470500Y-86228166D01*
X153470500Y-86312833D01*
X154063166Y-86736166D02*
X154020833Y-86651500D01*
X153978500Y-86609166D01*
X153893833Y-86566833D01*
X153639833Y-86566833D01*
X153555166Y-86609166D01*
X153512833Y-86651500D01*
X153470500Y-86736166D01*
X153470500Y-86863166D01*
X153512833Y-86947833D01*
X153555166Y-86990166D01*
X153639833Y-87032500D01*
X153893833Y-87032500D01*
X153978500Y-86990166D01*
X154020833Y-86947833D01*
X154063166Y-86863166D01*
X154063166Y-86736166D01*
X153470500Y-87413500D02*
X154063166Y-87413500D01*
X153555166Y-87413500D02*
X153512833Y-87455833D01*
X153470500Y-87540500D01*
X153470500Y-87667500D01*
X153512833Y-87752166D01*
X153597500Y-87794500D01*
X154063166Y-87794500D01*
X154063166Y-88217833D02*
X153470500Y-88217833D01*
X153174166Y-88217833D02*
X153216500Y-88175500D01*
X153258833Y-88217833D01*
X153216500Y-88260166D01*
X153174166Y-88217833D01*
X153258833Y-88217833D01*
X154020833Y-89022166D02*
X154063166Y-88937500D01*
X154063166Y-88768166D01*
X154020833Y-88683500D01*
X153978500Y-88641166D01*
X153893833Y-88598833D01*
X153639833Y-88598833D01*
X153555166Y-88641166D01*
X153512833Y-88683500D01*
X153470500Y-88768166D01*
X153470500Y-88937500D01*
X153512833Y-89022166D01*
X154020833Y-89360833D02*
X154063166Y-89445500D01*
X154063166Y-89614833D01*
X154020833Y-89699500D01*
X153936166Y-89741833D01*
X153893833Y-89741833D01*
X153809166Y-89699500D01*
X153766833Y-89614833D01*
X153766833Y-89487833D01*
X153724500Y-89403166D01*
X153639833Y-89360833D01*
X153597500Y-89360833D01*
X153512833Y-89403166D01*
X153470500Y-89487833D01*
X153470500Y-89614833D01*
X153512833Y-89699500D01*
X153978500Y-90122833D02*
X154020833Y-90165166D01*
X154063166Y-90122833D01*
X154020833Y-90080500D01*
X153978500Y-90122833D01*
X154063166Y-90122833D01*
X154020833Y-90927166D02*
X154063166Y-90842500D01*
X154063166Y-90673166D01*
X154020833Y-90588500D01*
X153978500Y-90546166D01*
X153893833Y-90503833D01*
X153639833Y-90503833D01*
X153555166Y-90546166D01*
X153512833Y-90588500D01*
X153470500Y-90673166D01*
X153470500Y-90842500D01*
X153512833Y-90927166D01*
X154063166Y-91689166D02*
X153597500Y-91689166D01*
X153512833Y-91646833D01*
X153470500Y-91562166D01*
X153470500Y-91392833D01*
X153512833Y-91308166D01*
X154020833Y-91689166D02*
X154063166Y-91604500D01*
X154063166Y-91392833D01*
X154020833Y-91308166D01*
X153936166Y-91265833D01*
X153851500Y-91265833D01*
X153766833Y-91308166D01*
X153724500Y-91392833D01*
X153724500Y-91604500D01*
X153682166Y-91689166D01*
X142296000Y-73939333D02*
X142296000Y-73600666D01*
X142592333Y-73812333D02*
X141830333Y-73812333D01*
X141745666Y-73770000D01*
X141703333Y-73685333D01*
X141703333Y-73600666D01*
X141703333Y-73304333D02*
X142296000Y-73304333D01*
X142592333Y-73304333D02*
X142550000Y-73346666D01*
X142507666Y-73304333D01*
X142550000Y-73262000D01*
X142592333Y-73304333D01*
X142507666Y-73304333D01*
X142296000Y-72881000D02*
X141703333Y-72881000D01*
X142211333Y-72881000D02*
X142253666Y-72838666D01*
X142296000Y-72754000D01*
X142296000Y-72627000D01*
X142253666Y-72542333D01*
X142169000Y-72500000D01*
X141703333Y-72500000D01*
X141703333Y-72076666D02*
X142592333Y-72076666D01*
X142042000Y-71992000D02*
X141703333Y-71738000D01*
X142296000Y-71738000D02*
X141957333Y-72076666D01*
X141745666Y-71018333D02*
X141703333Y-71103000D01*
X141703333Y-71272333D01*
X141745666Y-71357000D01*
X141830333Y-71399333D01*
X142169000Y-71399333D01*
X142253666Y-71357000D01*
X142296000Y-71272333D01*
X142296000Y-71103000D01*
X142253666Y-71018333D01*
X142169000Y-70976000D01*
X142084333Y-70976000D01*
X141999666Y-71399333D01*
X141703333Y-70595000D02*
X142296000Y-70595000D01*
X142126666Y-70595000D02*
X142211333Y-70552666D01*
X142253666Y-70510333D01*
X142296000Y-70425666D01*
X142296000Y-70341000D01*
X142296000Y-70044666D02*
X141407000Y-70044666D01*
X142253666Y-70044666D02*
X142296000Y-69960000D01*
X142296000Y-69790666D01*
X142253666Y-69706000D01*
X142211333Y-69663666D01*
X142126666Y-69621333D01*
X141872666Y-69621333D01*
X141788000Y-69663666D01*
X141745666Y-69706000D01*
X141703333Y-69790666D01*
X141703333Y-69960000D01*
X141745666Y-70044666D01*
X141703333Y-69113333D02*
X141745666Y-69198000D01*
X141830333Y-69240333D01*
X142592333Y-69240333D01*
X142296000Y-68393666D02*
X141703333Y-68393666D01*
X142296000Y-68774666D02*
X141830333Y-68774666D01*
X141745666Y-68732333D01*
X141703333Y-68647666D01*
X141703333Y-68520666D01*
X141745666Y-68436000D01*
X141788000Y-68393666D01*
X142296000Y-67970333D02*
X141703333Y-67970333D01*
X142211333Y-67970333D02*
X142253666Y-67928000D01*
X142296000Y-67843333D01*
X142296000Y-67716333D01*
X142253666Y-67631666D01*
X142169000Y-67589333D01*
X141703333Y-67589333D01*
X141703333Y-67166000D02*
X142592333Y-67166000D01*
X142042000Y-67081333D02*
X141703333Y-66827333D01*
X142296000Y-66827333D02*
X141957333Y-67166000D01*
X141788000Y-66446333D02*
X141745666Y-66404000D01*
X141703333Y-66446333D01*
X141745666Y-66488666D01*
X141788000Y-66446333D01*
X141703333Y-66446333D01*
X141745666Y-65642000D02*
X141703333Y-65726666D01*
X141703333Y-65896000D01*
X141745666Y-65980666D01*
X141788000Y-66023000D01*
X141872666Y-66065333D01*
X142126666Y-66065333D01*
X142211333Y-66023000D01*
X142253666Y-65980666D01*
X142296000Y-65896000D01*
X142296000Y-65726666D01*
X142253666Y-65642000D01*
X141703333Y-65134000D02*
X141745666Y-65218666D01*
X141788000Y-65261000D01*
X141872666Y-65303333D01*
X142126666Y-65303333D01*
X142211333Y-65261000D01*
X142253666Y-65218666D01*
X142296000Y-65134000D01*
X142296000Y-65007000D01*
X142253666Y-64922333D01*
X142211333Y-64880000D01*
X142126666Y-64837666D01*
X141872666Y-64837666D01*
X141788000Y-64880000D01*
X141745666Y-64922333D01*
X141703333Y-65007000D01*
X141703333Y-65134000D01*
X141703333Y-64456666D02*
X142296000Y-64456666D01*
X142211333Y-64456666D02*
X142253666Y-64414333D01*
X142296000Y-64329666D01*
X142296000Y-64202666D01*
X142253666Y-64118000D01*
X142169000Y-64075666D01*
X141703333Y-64075666D01*
X142169000Y-64075666D02*
X142253666Y-64033333D01*
X142296000Y-63948666D01*
X142296000Y-63821666D01*
X142253666Y-63737000D01*
X142169000Y-63694666D01*
X141703333Y-63694666D01*
X143036833Y-73537166D02*
X143925833Y-73537166D01*
X143079166Y-73537166D02*
X143036833Y-73621833D01*
X143036833Y-73791166D01*
X143079166Y-73875833D01*
X143121500Y-73918166D01*
X143206166Y-73960500D01*
X143460166Y-73960500D01*
X143544833Y-73918166D01*
X143587166Y-73875833D01*
X143629500Y-73791166D01*
X143629500Y-73621833D01*
X143587166Y-73537166D01*
X143036833Y-73113833D02*
X143925833Y-73113833D01*
X143587166Y-73113833D02*
X143629500Y-73029166D01*
X143629500Y-72859833D01*
X143587166Y-72775166D01*
X143544833Y-72732833D01*
X143460166Y-72690500D01*
X143206166Y-72690500D01*
X143121500Y-72732833D01*
X143079166Y-72775166D01*
X143036833Y-72859833D01*
X143036833Y-73029166D01*
X143079166Y-73113833D01*
X143375500Y-72309500D02*
X143375500Y-71632166D01*
X143079166Y-70870166D02*
X143036833Y-70954833D01*
X143036833Y-71124166D01*
X143079166Y-71208833D01*
X143163833Y-71251166D01*
X143502500Y-71251166D01*
X143587166Y-71208833D01*
X143629500Y-71124166D01*
X143629500Y-70954833D01*
X143587166Y-70870166D01*
X143502500Y-70827833D01*
X143417833Y-70827833D01*
X143333166Y-71251166D01*
X143036833Y-70319833D02*
X143079166Y-70404500D01*
X143163833Y-70446833D01*
X143925833Y-70446833D01*
X143079166Y-69642500D02*
X143036833Y-69727166D01*
X143036833Y-69896500D01*
X143079166Y-69981166D01*
X143163833Y-70023500D01*
X143502500Y-70023500D01*
X143587166Y-69981166D01*
X143629500Y-69896500D01*
X143629500Y-69727166D01*
X143587166Y-69642500D01*
X143502500Y-69600166D01*
X143417833Y-69600166D01*
X143333166Y-70023500D01*
X143079166Y-68838166D02*
X143036833Y-68922833D01*
X143036833Y-69092166D01*
X143079166Y-69176833D01*
X143121500Y-69219166D01*
X143206166Y-69261500D01*
X143460166Y-69261500D01*
X143544833Y-69219166D01*
X143587166Y-69176833D01*
X143629500Y-69092166D01*
X143629500Y-68922833D01*
X143587166Y-68838166D01*
X143629500Y-68584166D02*
X143629500Y-68245500D01*
X143925833Y-68457166D02*
X143163833Y-68457166D01*
X143079166Y-68414833D01*
X143036833Y-68330166D01*
X143036833Y-68245500D01*
X143036833Y-67949166D02*
X143629500Y-67949166D01*
X143460166Y-67949166D02*
X143544833Y-67906833D01*
X143587166Y-67864500D01*
X143629500Y-67779833D01*
X143629500Y-67695166D01*
X143036833Y-67271833D02*
X143079166Y-67356500D01*
X143121500Y-67398833D01*
X143206166Y-67441166D01*
X143460166Y-67441166D01*
X143544833Y-67398833D01*
X143587166Y-67356500D01*
X143629500Y-67271833D01*
X143629500Y-67144833D01*
X143587166Y-67060166D01*
X143544833Y-67017833D01*
X143460166Y-66975500D01*
X143206166Y-66975500D01*
X143121500Y-67017833D01*
X143079166Y-67060166D01*
X143036833Y-67144833D01*
X143036833Y-67271833D01*
X143629500Y-66594500D02*
X143036833Y-66594500D01*
X143544833Y-66594500D02*
X143587166Y-66552166D01*
X143629500Y-66467500D01*
X143629500Y-66340500D01*
X143587166Y-66255833D01*
X143502500Y-66213500D01*
X143036833Y-66213500D01*
X143036833Y-65790166D02*
X143629500Y-65790166D01*
X143925833Y-65790166D02*
X143883500Y-65832500D01*
X143841166Y-65790166D01*
X143883500Y-65747833D01*
X143925833Y-65790166D01*
X143841166Y-65790166D01*
X143079166Y-64985833D02*
X143036833Y-65070500D01*
X143036833Y-65239833D01*
X143079166Y-65324500D01*
X143121500Y-65366833D01*
X143206166Y-65409166D01*
X143460166Y-65409166D01*
X143544833Y-65366833D01*
X143587166Y-65324500D01*
X143629500Y-65239833D01*
X143629500Y-65070500D01*
X143587166Y-64985833D01*
X143079166Y-64647166D02*
X143036833Y-64562500D01*
X143036833Y-64393166D01*
X143079166Y-64308500D01*
X143163833Y-64266166D01*
X143206166Y-64266166D01*
X143290833Y-64308500D01*
X143333166Y-64393166D01*
X143333166Y-64520166D01*
X143375500Y-64604833D01*
X143460166Y-64647166D01*
X143502500Y-64647166D01*
X143587166Y-64604833D01*
X143629500Y-64520166D01*
X143629500Y-64393166D01*
X143587166Y-64308500D01*
X143121500Y-63885166D02*
X143079166Y-63842833D01*
X143036833Y-63885166D01*
X143079166Y-63927500D01*
X143121500Y-63885166D01*
X143036833Y-63885166D01*
X143079166Y-63080833D02*
X143036833Y-63165500D01*
X143036833Y-63334833D01*
X143079166Y-63419500D01*
X143121500Y-63461833D01*
X143206166Y-63504166D01*
X143460166Y-63504166D01*
X143544833Y-63461833D01*
X143587166Y-63419500D01*
X143629500Y-63334833D01*
X143629500Y-63165500D01*
X143587166Y-63080833D01*
X143036833Y-62318833D02*
X143502500Y-62318833D01*
X143587166Y-62361166D01*
X143629500Y-62445833D01*
X143629500Y-62615166D01*
X143587166Y-62699833D01*
X143079166Y-62318833D02*
X143036833Y-62403500D01*
X143036833Y-62615166D01*
X143079166Y-62699833D01*
X143163833Y-62742166D01*
X143248500Y-62742166D01*
X143333166Y-62699833D01*
X143375500Y-62615166D01*
X143375500Y-62403500D01*
X143417833Y-62318833D01*
D11*
X149165571Y-66906000D02*
X149165571Y-67191714D01*
X149237000Y-67334571D01*
X149379857Y-67477428D01*
X149665571Y-67548857D01*
X150165571Y-67548857D01*
X150451285Y-67477428D01*
X150594142Y-67334571D01*
X150665571Y-67191714D01*
X150665571Y-66906000D01*
X150594142Y-66763142D01*
X150451285Y-66620285D01*
X150165571Y-66548857D01*
X149665571Y-66548857D01*
X149379857Y-66620285D01*
X149237000Y-66763142D01*
X149165571Y-66906000D01*
X149165571Y-68191714D02*
X150379857Y-68191714D01*
X150522714Y-68263142D01*
X150594142Y-68334571D01*
X150665571Y-68477428D01*
X150665571Y-68763142D01*
X150594142Y-68906000D01*
X150522714Y-68977428D01*
X150379857Y-69048857D01*
X149165571Y-69048857D01*
X149165571Y-69548857D02*
X149165571Y-70406000D01*
X150665571Y-69977428D02*
X149165571Y-69977428D01*
X148014428Y-66096000D02*
X148014428Y-65810285D01*
X147943000Y-65667428D01*
X147800142Y-65524571D01*
X147514428Y-65453142D01*
X147014428Y-65453142D01*
X146728714Y-65524571D01*
X146585857Y-65667428D01*
X146514428Y-65810285D01*
X146514428Y-66096000D01*
X146585857Y-66238857D01*
X146728714Y-66381714D01*
X147014428Y-66453142D01*
X147514428Y-66453142D01*
X147800142Y-66381714D01*
X147943000Y-66238857D01*
X148014428Y-66096000D01*
X148014428Y-64810285D02*
X146800142Y-64810285D01*
X146657285Y-64738857D01*
X146585857Y-64667428D01*
X146514428Y-64524571D01*
X146514428Y-64238857D01*
X146585857Y-64096000D01*
X146657285Y-64024571D01*
X146800142Y-63953142D01*
X148014428Y-63953142D01*
X148014428Y-63453142D02*
X148014428Y-62596000D01*
X146514428Y-63024571D02*
X148014428Y-63024571D01*
D10*
X154804000Y-58868666D02*
X154804000Y-59207333D01*
X154507666Y-58995666D02*
X155269666Y-58995666D01*
X155354333Y-59038000D01*
X155396666Y-59122666D01*
X155396666Y-59207333D01*
X155396666Y-59503666D02*
X154804000Y-59503666D01*
X154507666Y-59503666D02*
X154550000Y-59461333D01*
X154592333Y-59503666D01*
X154550000Y-59546000D01*
X154507666Y-59503666D01*
X154592333Y-59503666D01*
X154804000Y-59927000D02*
X155396666Y-59927000D01*
X154888666Y-59927000D02*
X154846333Y-59969333D01*
X154804000Y-60054000D01*
X154804000Y-60181000D01*
X154846333Y-60265666D01*
X154931000Y-60308000D01*
X155396666Y-60308000D01*
X155396666Y-60731333D02*
X154507666Y-60731333D01*
X155058000Y-60816000D02*
X155396666Y-61070000D01*
X154804000Y-61070000D02*
X155142666Y-60731333D01*
X155354333Y-61789666D02*
X155396666Y-61705000D01*
X155396666Y-61535666D01*
X155354333Y-61451000D01*
X155269666Y-61408666D01*
X154931000Y-61408666D01*
X154846333Y-61451000D01*
X154804000Y-61535666D01*
X154804000Y-61705000D01*
X154846333Y-61789666D01*
X154931000Y-61832000D01*
X155015666Y-61832000D01*
X155100333Y-61408666D01*
X155396666Y-62213000D02*
X154804000Y-62213000D01*
X154973333Y-62213000D02*
X154888666Y-62255333D01*
X154846333Y-62297666D01*
X154804000Y-62382333D01*
X154804000Y-62467000D01*
X154804000Y-62763333D02*
X155693000Y-62763333D01*
X154846333Y-62763333D02*
X154804000Y-62848000D01*
X154804000Y-63017333D01*
X154846333Y-63102000D01*
X154888666Y-63144333D01*
X154973333Y-63186666D01*
X155227333Y-63186666D01*
X155312000Y-63144333D01*
X155354333Y-63102000D01*
X155396666Y-63017333D01*
X155396666Y-62848000D01*
X155354333Y-62763333D01*
X155396666Y-63694666D02*
X155354333Y-63610000D01*
X155269666Y-63567666D01*
X154507666Y-63567666D01*
X154804000Y-64414333D02*
X155396666Y-64414333D01*
X154804000Y-64033333D02*
X155269666Y-64033333D01*
X155354333Y-64075666D01*
X155396666Y-64160333D01*
X155396666Y-64287333D01*
X155354333Y-64372000D01*
X155312000Y-64414333D01*
X154804000Y-64837666D02*
X155396666Y-64837666D01*
X154888666Y-64837666D02*
X154846333Y-64880000D01*
X154804000Y-64964666D01*
X154804000Y-65091666D01*
X154846333Y-65176333D01*
X154931000Y-65218666D01*
X155396666Y-65218666D01*
X155396666Y-65642000D02*
X154507666Y-65642000D01*
X155058000Y-65726666D02*
X155396666Y-65980666D01*
X154804000Y-65980666D02*
X155142666Y-65642000D01*
X155312000Y-66361666D02*
X155354333Y-66404000D01*
X155396666Y-66361666D01*
X155354333Y-66319333D01*
X155312000Y-66361666D01*
X155396666Y-66361666D01*
X155354333Y-67166000D02*
X155396666Y-67081333D01*
X155396666Y-66912000D01*
X155354333Y-66827333D01*
X155312000Y-66785000D01*
X155227333Y-66742666D01*
X154973333Y-66742666D01*
X154888666Y-66785000D01*
X154846333Y-66827333D01*
X154804000Y-66912000D01*
X154804000Y-67081333D01*
X154846333Y-67166000D01*
X155396666Y-67674000D02*
X155354333Y-67589333D01*
X155312000Y-67547000D01*
X155227333Y-67504666D01*
X154973333Y-67504666D01*
X154888666Y-67547000D01*
X154846333Y-67589333D01*
X154804000Y-67674000D01*
X154804000Y-67801000D01*
X154846333Y-67885666D01*
X154888666Y-67928000D01*
X154973333Y-67970333D01*
X155227333Y-67970333D01*
X155312000Y-67928000D01*
X155354333Y-67885666D01*
X155396666Y-67801000D01*
X155396666Y-67674000D01*
X155396666Y-68351333D02*
X154804000Y-68351333D01*
X154888666Y-68351333D02*
X154846333Y-68393666D01*
X154804000Y-68478333D01*
X154804000Y-68605333D01*
X154846333Y-68690000D01*
X154931000Y-68732333D01*
X155396666Y-68732333D01*
X154931000Y-68732333D02*
X154846333Y-68774666D01*
X154804000Y-68859333D01*
X154804000Y-68986333D01*
X154846333Y-69071000D01*
X154931000Y-69113333D01*
X155396666Y-69113333D01*
X154063166Y-59270833D02*
X153174166Y-59270833D01*
X154020833Y-59270833D02*
X154063166Y-59186166D01*
X154063166Y-59016833D01*
X154020833Y-58932166D01*
X153978500Y-58889833D01*
X153893833Y-58847500D01*
X153639833Y-58847500D01*
X153555166Y-58889833D01*
X153512833Y-58932166D01*
X153470500Y-59016833D01*
X153470500Y-59186166D01*
X153512833Y-59270833D01*
X154063166Y-59694166D02*
X153174166Y-59694166D01*
X153512833Y-59694166D02*
X153470500Y-59778833D01*
X153470500Y-59948166D01*
X153512833Y-60032833D01*
X153555166Y-60075166D01*
X153639833Y-60117500D01*
X153893833Y-60117500D01*
X153978500Y-60075166D01*
X154020833Y-60032833D01*
X154063166Y-59948166D01*
X154063166Y-59778833D01*
X154020833Y-59694166D01*
X153724500Y-60498500D02*
X153724500Y-61175833D01*
X154020833Y-61937833D02*
X154063166Y-61853166D01*
X154063166Y-61683833D01*
X154020833Y-61599166D01*
X153936166Y-61556833D01*
X153597500Y-61556833D01*
X153512833Y-61599166D01*
X153470500Y-61683833D01*
X153470500Y-61853166D01*
X153512833Y-61937833D01*
X153597500Y-61980166D01*
X153682166Y-61980166D01*
X153766833Y-61556833D01*
X154063166Y-62488166D02*
X154020833Y-62403500D01*
X153936166Y-62361166D01*
X153174166Y-62361166D01*
X154020833Y-63165500D02*
X154063166Y-63080833D01*
X154063166Y-62911500D01*
X154020833Y-62826833D01*
X153936166Y-62784500D01*
X153597500Y-62784500D01*
X153512833Y-62826833D01*
X153470500Y-62911500D01*
X153470500Y-63080833D01*
X153512833Y-63165500D01*
X153597500Y-63207833D01*
X153682166Y-63207833D01*
X153766833Y-62784500D01*
X154020833Y-63969833D02*
X154063166Y-63885166D01*
X154063166Y-63715833D01*
X154020833Y-63631166D01*
X153978500Y-63588833D01*
X153893833Y-63546500D01*
X153639833Y-63546500D01*
X153555166Y-63588833D01*
X153512833Y-63631166D01*
X153470500Y-63715833D01*
X153470500Y-63885166D01*
X153512833Y-63969833D01*
X153470500Y-64223833D02*
X153470500Y-64562500D01*
X153174166Y-64350833D02*
X153936166Y-64350833D01*
X154020833Y-64393166D01*
X154063166Y-64477833D01*
X154063166Y-64562500D01*
X154063166Y-64858833D02*
X153470500Y-64858833D01*
X153639833Y-64858833D02*
X153555166Y-64901166D01*
X153512833Y-64943500D01*
X153470500Y-65028166D01*
X153470500Y-65112833D01*
X154063166Y-65536166D02*
X154020833Y-65451500D01*
X153978500Y-65409166D01*
X153893833Y-65366833D01*
X153639833Y-65366833D01*
X153555166Y-65409166D01*
X153512833Y-65451500D01*
X153470500Y-65536166D01*
X153470500Y-65663166D01*
X153512833Y-65747833D01*
X153555166Y-65790166D01*
X153639833Y-65832500D01*
X153893833Y-65832500D01*
X153978500Y-65790166D01*
X154020833Y-65747833D01*
X154063166Y-65663166D01*
X154063166Y-65536166D01*
X153470500Y-66213500D02*
X154063166Y-66213500D01*
X153555166Y-66213500D02*
X153512833Y-66255833D01*
X153470500Y-66340500D01*
X153470500Y-66467500D01*
X153512833Y-66552166D01*
X153597500Y-66594500D01*
X154063166Y-66594500D01*
X154063166Y-67017833D02*
X153470500Y-67017833D01*
X153174166Y-67017833D02*
X153216500Y-66975500D01*
X153258833Y-67017833D01*
X153216500Y-67060166D01*
X153174166Y-67017833D01*
X153258833Y-67017833D01*
X154020833Y-67822166D02*
X154063166Y-67737500D01*
X154063166Y-67568166D01*
X154020833Y-67483500D01*
X153978500Y-67441166D01*
X153893833Y-67398833D01*
X153639833Y-67398833D01*
X153555166Y-67441166D01*
X153512833Y-67483500D01*
X153470500Y-67568166D01*
X153470500Y-67737500D01*
X153512833Y-67822166D01*
X154020833Y-68160833D02*
X154063166Y-68245500D01*
X154063166Y-68414833D01*
X154020833Y-68499500D01*
X153936166Y-68541833D01*
X153893833Y-68541833D01*
X153809166Y-68499500D01*
X153766833Y-68414833D01*
X153766833Y-68287833D01*
X153724500Y-68203166D01*
X153639833Y-68160833D01*
X153597500Y-68160833D01*
X153512833Y-68203166D01*
X153470500Y-68287833D01*
X153470500Y-68414833D01*
X153512833Y-68499500D01*
X153978500Y-68922833D02*
X154020833Y-68965166D01*
X154063166Y-68922833D01*
X154020833Y-68880500D01*
X153978500Y-68922833D01*
X154063166Y-68922833D01*
X154020833Y-69727166D02*
X154063166Y-69642500D01*
X154063166Y-69473166D01*
X154020833Y-69388500D01*
X153978500Y-69346166D01*
X153893833Y-69303833D01*
X153639833Y-69303833D01*
X153555166Y-69346166D01*
X153512833Y-69388500D01*
X153470500Y-69473166D01*
X153470500Y-69642500D01*
X153512833Y-69727166D01*
X154063166Y-70489166D02*
X153597500Y-70489166D01*
X153512833Y-70446833D01*
X153470500Y-70362166D01*
X153470500Y-70192833D01*
X153512833Y-70108166D01*
X154020833Y-70489166D02*
X154063166Y-70404500D01*
X154063166Y-70192833D01*
X154020833Y-70108166D01*
X153936166Y-70065833D01*
X153851500Y-70065833D01*
X153766833Y-70108166D01*
X153724500Y-70192833D01*
X153724500Y-70404500D01*
X153682166Y-70489166D01*
X96036833Y-73537166D02*
X96925833Y-73537166D01*
X96079166Y-73537166D02*
X96036833Y-73621833D01*
X96036833Y-73791166D01*
X96079166Y-73875833D01*
X96121500Y-73918166D01*
X96206166Y-73960500D01*
X96460166Y-73960500D01*
X96544833Y-73918166D01*
X96587166Y-73875833D01*
X96629500Y-73791166D01*
X96629500Y-73621833D01*
X96587166Y-73537166D01*
X96036833Y-73113833D02*
X96925833Y-73113833D01*
X96587166Y-73113833D02*
X96629500Y-73029166D01*
X96629500Y-72859833D01*
X96587166Y-72775166D01*
X96544833Y-72732833D01*
X96460166Y-72690500D01*
X96206166Y-72690500D01*
X96121500Y-72732833D01*
X96079166Y-72775166D01*
X96036833Y-72859833D01*
X96036833Y-73029166D01*
X96079166Y-73113833D01*
X96375500Y-72309500D02*
X96375500Y-71632166D01*
X96079166Y-70870166D02*
X96036833Y-70954833D01*
X96036833Y-71124166D01*
X96079166Y-71208833D01*
X96163833Y-71251166D01*
X96502500Y-71251166D01*
X96587166Y-71208833D01*
X96629500Y-71124166D01*
X96629500Y-70954833D01*
X96587166Y-70870166D01*
X96502500Y-70827833D01*
X96417833Y-70827833D01*
X96333166Y-71251166D01*
X96036833Y-70319833D02*
X96079166Y-70404500D01*
X96163833Y-70446833D01*
X96925833Y-70446833D01*
X96079166Y-69642500D02*
X96036833Y-69727166D01*
X96036833Y-69896500D01*
X96079166Y-69981166D01*
X96163833Y-70023500D01*
X96502500Y-70023500D01*
X96587166Y-69981166D01*
X96629500Y-69896500D01*
X96629500Y-69727166D01*
X96587166Y-69642500D01*
X96502500Y-69600166D01*
X96417833Y-69600166D01*
X96333166Y-70023500D01*
X96079166Y-68838166D02*
X96036833Y-68922833D01*
X96036833Y-69092166D01*
X96079166Y-69176833D01*
X96121500Y-69219166D01*
X96206166Y-69261500D01*
X96460166Y-69261500D01*
X96544833Y-69219166D01*
X96587166Y-69176833D01*
X96629500Y-69092166D01*
X96629500Y-68922833D01*
X96587166Y-68838166D01*
X96629500Y-68584166D02*
X96629500Y-68245500D01*
X96925833Y-68457166D02*
X96163833Y-68457166D01*
X96079166Y-68414833D01*
X96036833Y-68330166D01*
X96036833Y-68245500D01*
X96036833Y-67949166D02*
X96629500Y-67949166D01*
X96460166Y-67949166D02*
X96544833Y-67906833D01*
X96587166Y-67864500D01*
X96629500Y-67779833D01*
X96629500Y-67695166D01*
X96036833Y-67271833D02*
X96079166Y-67356500D01*
X96121500Y-67398833D01*
X96206166Y-67441166D01*
X96460166Y-67441166D01*
X96544833Y-67398833D01*
X96587166Y-67356500D01*
X96629500Y-67271833D01*
X96629500Y-67144833D01*
X96587166Y-67060166D01*
X96544833Y-67017833D01*
X96460166Y-66975500D01*
X96206166Y-66975500D01*
X96121500Y-67017833D01*
X96079166Y-67060166D01*
X96036833Y-67144833D01*
X96036833Y-67271833D01*
X96629500Y-66594500D02*
X96036833Y-66594500D01*
X96544833Y-66594500D02*
X96587166Y-66552166D01*
X96629500Y-66467500D01*
X96629500Y-66340500D01*
X96587166Y-66255833D01*
X96502500Y-66213500D01*
X96036833Y-66213500D01*
X96036833Y-65790166D02*
X96629500Y-65790166D01*
X96925833Y-65790166D02*
X96883500Y-65832500D01*
X96841166Y-65790166D01*
X96883500Y-65747833D01*
X96925833Y-65790166D01*
X96841166Y-65790166D01*
X96079166Y-64985833D02*
X96036833Y-65070500D01*
X96036833Y-65239833D01*
X96079166Y-65324500D01*
X96121500Y-65366833D01*
X96206166Y-65409166D01*
X96460166Y-65409166D01*
X96544833Y-65366833D01*
X96587166Y-65324500D01*
X96629500Y-65239833D01*
X96629500Y-65070500D01*
X96587166Y-64985833D01*
X96079166Y-64647166D02*
X96036833Y-64562500D01*
X96036833Y-64393166D01*
X96079166Y-64308500D01*
X96163833Y-64266166D01*
X96206166Y-64266166D01*
X96290833Y-64308500D01*
X96333166Y-64393166D01*
X96333166Y-64520166D01*
X96375500Y-64604833D01*
X96460166Y-64647166D01*
X96502500Y-64647166D01*
X96587166Y-64604833D01*
X96629500Y-64520166D01*
X96629500Y-64393166D01*
X96587166Y-64308500D01*
X96121500Y-63885166D02*
X96079166Y-63842833D01*
X96036833Y-63885166D01*
X96079166Y-63927500D01*
X96121500Y-63885166D01*
X96036833Y-63885166D01*
X96079166Y-63080833D02*
X96036833Y-63165500D01*
X96036833Y-63334833D01*
X96079166Y-63419500D01*
X96121500Y-63461833D01*
X96206166Y-63504166D01*
X96460166Y-63504166D01*
X96544833Y-63461833D01*
X96587166Y-63419500D01*
X96629500Y-63334833D01*
X96629500Y-63165500D01*
X96587166Y-63080833D01*
X96036833Y-62318833D02*
X96502500Y-62318833D01*
X96587166Y-62361166D01*
X96629500Y-62445833D01*
X96629500Y-62615166D01*
X96587166Y-62699833D01*
X96079166Y-62318833D02*
X96036833Y-62403500D01*
X96036833Y-62615166D01*
X96079166Y-62699833D01*
X96163833Y-62742166D01*
X96248500Y-62742166D01*
X96333166Y-62699833D01*
X96375500Y-62615166D01*
X96375500Y-62403500D01*
X96417833Y-62318833D01*
X95296000Y-73939333D02*
X95296000Y-73600666D01*
X95592333Y-73812333D02*
X94830333Y-73812333D01*
X94745666Y-73770000D01*
X94703333Y-73685333D01*
X94703333Y-73600666D01*
X94703333Y-73304333D02*
X95296000Y-73304333D01*
X95592333Y-73304333D02*
X95550000Y-73346666D01*
X95507666Y-73304333D01*
X95550000Y-73262000D01*
X95592333Y-73304333D01*
X95507666Y-73304333D01*
X95296000Y-72881000D02*
X94703333Y-72881000D01*
X95211333Y-72881000D02*
X95253666Y-72838666D01*
X95296000Y-72754000D01*
X95296000Y-72627000D01*
X95253666Y-72542333D01*
X95169000Y-72500000D01*
X94703333Y-72500000D01*
X94703333Y-72076666D02*
X95592333Y-72076666D01*
X95042000Y-71992000D02*
X94703333Y-71738000D01*
X95296000Y-71738000D02*
X94957333Y-72076666D01*
X94745666Y-71018333D02*
X94703333Y-71103000D01*
X94703333Y-71272333D01*
X94745666Y-71357000D01*
X94830333Y-71399333D01*
X95169000Y-71399333D01*
X95253666Y-71357000D01*
X95296000Y-71272333D01*
X95296000Y-71103000D01*
X95253666Y-71018333D01*
X95169000Y-70976000D01*
X95084333Y-70976000D01*
X94999666Y-71399333D01*
X94703333Y-70595000D02*
X95296000Y-70595000D01*
X95126666Y-70595000D02*
X95211333Y-70552666D01*
X95253666Y-70510333D01*
X95296000Y-70425666D01*
X95296000Y-70341000D01*
X95296000Y-70044666D02*
X94407000Y-70044666D01*
X95253666Y-70044666D02*
X95296000Y-69960000D01*
X95296000Y-69790666D01*
X95253666Y-69706000D01*
X95211333Y-69663666D01*
X95126666Y-69621333D01*
X94872666Y-69621333D01*
X94788000Y-69663666D01*
X94745666Y-69706000D01*
X94703333Y-69790666D01*
X94703333Y-69960000D01*
X94745666Y-70044666D01*
X94703333Y-69113333D02*
X94745666Y-69198000D01*
X94830333Y-69240333D01*
X95592333Y-69240333D01*
X95296000Y-68393666D02*
X94703333Y-68393666D01*
X95296000Y-68774666D02*
X94830333Y-68774666D01*
X94745666Y-68732333D01*
X94703333Y-68647666D01*
X94703333Y-68520666D01*
X94745666Y-68436000D01*
X94788000Y-68393666D01*
X95296000Y-67970333D02*
X94703333Y-67970333D01*
X95211333Y-67970333D02*
X95253666Y-67928000D01*
X95296000Y-67843333D01*
X95296000Y-67716333D01*
X95253666Y-67631666D01*
X95169000Y-67589333D01*
X94703333Y-67589333D01*
X94703333Y-67166000D02*
X95592333Y-67166000D01*
X95042000Y-67081333D02*
X94703333Y-66827333D01*
X95296000Y-66827333D02*
X94957333Y-67166000D01*
X94788000Y-66446333D02*
X94745666Y-66404000D01*
X94703333Y-66446333D01*
X94745666Y-66488666D01*
X94788000Y-66446333D01*
X94703333Y-66446333D01*
X94745666Y-65642000D02*
X94703333Y-65726666D01*
X94703333Y-65896000D01*
X94745666Y-65980666D01*
X94788000Y-66023000D01*
X94872666Y-66065333D01*
X95126666Y-66065333D01*
X95211333Y-66023000D01*
X95253666Y-65980666D01*
X95296000Y-65896000D01*
X95296000Y-65726666D01*
X95253666Y-65642000D01*
X94703333Y-65134000D02*
X94745666Y-65218666D01*
X94788000Y-65261000D01*
X94872666Y-65303333D01*
X95126666Y-65303333D01*
X95211333Y-65261000D01*
X95253666Y-65218666D01*
X95296000Y-65134000D01*
X95296000Y-65007000D01*
X95253666Y-64922333D01*
X95211333Y-64880000D01*
X95126666Y-64837666D01*
X94872666Y-64837666D01*
X94788000Y-64880000D01*
X94745666Y-64922333D01*
X94703333Y-65007000D01*
X94703333Y-65134000D01*
X94703333Y-64456666D02*
X95296000Y-64456666D01*
X95211333Y-64456666D02*
X95253666Y-64414333D01*
X95296000Y-64329666D01*
X95296000Y-64202666D01*
X95253666Y-64118000D01*
X95169000Y-64075666D01*
X94703333Y-64075666D01*
X95169000Y-64075666D02*
X95253666Y-64033333D01*
X95296000Y-63948666D01*
X95296000Y-63821666D01*
X95253666Y-63737000D01*
X95169000Y-63694666D01*
X94703333Y-63694666D01*
D11*
X98935428Y-64395714D02*
X100435428Y-64395714D01*
X98935428Y-63681428D02*
X100435428Y-63681428D01*
X98935428Y-62824285D01*
X100435428Y-62824285D01*
D10*
X107804000Y-58868666D02*
X107804000Y-59207333D01*
X107507666Y-58995666D02*
X108269666Y-58995666D01*
X108354333Y-59038000D01*
X108396666Y-59122666D01*
X108396666Y-59207333D01*
X108396666Y-59503666D02*
X107804000Y-59503666D01*
X107507666Y-59503666D02*
X107550000Y-59461333D01*
X107592333Y-59503666D01*
X107550000Y-59546000D01*
X107507666Y-59503666D01*
X107592333Y-59503666D01*
X107804000Y-59927000D02*
X108396666Y-59927000D01*
X107888666Y-59927000D02*
X107846333Y-59969333D01*
X107804000Y-60054000D01*
X107804000Y-60181000D01*
X107846333Y-60265666D01*
X107931000Y-60308000D01*
X108396666Y-60308000D01*
X108396666Y-60731333D02*
X107507666Y-60731333D01*
X108058000Y-60816000D02*
X108396666Y-61070000D01*
X107804000Y-61070000D02*
X108142666Y-60731333D01*
X108354333Y-61789666D02*
X108396666Y-61705000D01*
X108396666Y-61535666D01*
X108354333Y-61451000D01*
X108269666Y-61408666D01*
X107931000Y-61408666D01*
X107846333Y-61451000D01*
X107804000Y-61535666D01*
X107804000Y-61705000D01*
X107846333Y-61789666D01*
X107931000Y-61832000D01*
X108015666Y-61832000D01*
X108100333Y-61408666D01*
X108396666Y-62213000D02*
X107804000Y-62213000D01*
X107973333Y-62213000D02*
X107888666Y-62255333D01*
X107846333Y-62297666D01*
X107804000Y-62382333D01*
X107804000Y-62467000D01*
X107804000Y-62763333D02*
X108693000Y-62763333D01*
X107846333Y-62763333D02*
X107804000Y-62848000D01*
X107804000Y-63017333D01*
X107846333Y-63102000D01*
X107888666Y-63144333D01*
X107973333Y-63186666D01*
X108227333Y-63186666D01*
X108312000Y-63144333D01*
X108354333Y-63102000D01*
X108396666Y-63017333D01*
X108396666Y-62848000D01*
X108354333Y-62763333D01*
X108396666Y-63694666D02*
X108354333Y-63610000D01*
X108269666Y-63567666D01*
X107507666Y-63567666D01*
X107804000Y-64414333D02*
X108396666Y-64414333D01*
X107804000Y-64033333D02*
X108269666Y-64033333D01*
X108354333Y-64075666D01*
X108396666Y-64160333D01*
X108396666Y-64287333D01*
X108354333Y-64372000D01*
X108312000Y-64414333D01*
X107804000Y-64837666D02*
X108396666Y-64837666D01*
X107888666Y-64837666D02*
X107846333Y-64880000D01*
X107804000Y-64964666D01*
X107804000Y-65091666D01*
X107846333Y-65176333D01*
X107931000Y-65218666D01*
X108396666Y-65218666D01*
X108396666Y-65642000D02*
X107507666Y-65642000D01*
X108058000Y-65726666D02*
X108396666Y-65980666D01*
X107804000Y-65980666D02*
X108142666Y-65642000D01*
X108312000Y-66361666D02*
X108354333Y-66404000D01*
X108396666Y-66361666D01*
X108354333Y-66319333D01*
X108312000Y-66361666D01*
X108396666Y-66361666D01*
X108354333Y-67166000D02*
X108396666Y-67081333D01*
X108396666Y-66912000D01*
X108354333Y-66827333D01*
X108312000Y-66785000D01*
X108227333Y-66742666D01*
X107973333Y-66742666D01*
X107888666Y-66785000D01*
X107846333Y-66827333D01*
X107804000Y-66912000D01*
X107804000Y-67081333D01*
X107846333Y-67166000D01*
X108396666Y-67674000D02*
X108354333Y-67589333D01*
X108312000Y-67547000D01*
X108227333Y-67504666D01*
X107973333Y-67504666D01*
X107888666Y-67547000D01*
X107846333Y-67589333D01*
X107804000Y-67674000D01*
X107804000Y-67801000D01*
X107846333Y-67885666D01*
X107888666Y-67928000D01*
X107973333Y-67970333D01*
X108227333Y-67970333D01*
X108312000Y-67928000D01*
X108354333Y-67885666D01*
X108396666Y-67801000D01*
X108396666Y-67674000D01*
X108396666Y-68351333D02*
X107804000Y-68351333D01*
X107888666Y-68351333D02*
X107846333Y-68393666D01*
X107804000Y-68478333D01*
X107804000Y-68605333D01*
X107846333Y-68690000D01*
X107931000Y-68732333D01*
X108396666Y-68732333D01*
X107931000Y-68732333D02*
X107846333Y-68774666D01*
X107804000Y-68859333D01*
X107804000Y-68986333D01*
X107846333Y-69071000D01*
X107931000Y-69113333D01*
X108396666Y-69113333D01*
D11*
X104164571Y-68412285D02*
X102664571Y-68412285D01*
X104164571Y-69126571D02*
X102664571Y-69126571D01*
X104164571Y-69983714D01*
X102664571Y-69983714D01*
D10*
X107063166Y-59270833D02*
X106174166Y-59270833D01*
X107020833Y-59270833D02*
X107063166Y-59186166D01*
X107063166Y-59016833D01*
X107020833Y-58932166D01*
X106978500Y-58889833D01*
X106893833Y-58847500D01*
X106639833Y-58847500D01*
X106555166Y-58889833D01*
X106512833Y-58932166D01*
X106470500Y-59016833D01*
X106470500Y-59186166D01*
X106512833Y-59270833D01*
X107063166Y-59694166D02*
X106174166Y-59694166D01*
X106512833Y-59694166D02*
X106470500Y-59778833D01*
X106470500Y-59948166D01*
X106512833Y-60032833D01*
X106555166Y-60075166D01*
X106639833Y-60117500D01*
X106893833Y-60117500D01*
X106978500Y-60075166D01*
X107020833Y-60032833D01*
X107063166Y-59948166D01*
X107063166Y-59778833D01*
X107020833Y-59694166D01*
X106724500Y-60498500D02*
X106724500Y-61175833D01*
X107020833Y-61937833D02*
X107063166Y-61853166D01*
X107063166Y-61683833D01*
X107020833Y-61599166D01*
X106936166Y-61556833D01*
X106597500Y-61556833D01*
X106512833Y-61599166D01*
X106470500Y-61683833D01*
X106470500Y-61853166D01*
X106512833Y-61937833D01*
X106597500Y-61980166D01*
X106682166Y-61980166D01*
X106766833Y-61556833D01*
X107063166Y-62488166D02*
X107020833Y-62403500D01*
X106936166Y-62361166D01*
X106174166Y-62361166D01*
X107020833Y-63165500D02*
X107063166Y-63080833D01*
X107063166Y-62911500D01*
X107020833Y-62826833D01*
X106936166Y-62784500D01*
X106597500Y-62784500D01*
X106512833Y-62826833D01*
X106470500Y-62911500D01*
X106470500Y-63080833D01*
X106512833Y-63165500D01*
X106597500Y-63207833D01*
X106682166Y-63207833D01*
X106766833Y-62784500D01*
X107020833Y-63969833D02*
X107063166Y-63885166D01*
X107063166Y-63715833D01*
X107020833Y-63631166D01*
X106978500Y-63588833D01*
X106893833Y-63546500D01*
X106639833Y-63546500D01*
X106555166Y-63588833D01*
X106512833Y-63631166D01*
X106470500Y-63715833D01*
X106470500Y-63885166D01*
X106512833Y-63969833D01*
X106470500Y-64223833D02*
X106470500Y-64562500D01*
X106174166Y-64350833D02*
X106936166Y-64350833D01*
X107020833Y-64393166D01*
X107063166Y-64477833D01*
X107063166Y-64562500D01*
X107063166Y-64858833D02*
X106470500Y-64858833D01*
X106639833Y-64858833D02*
X106555166Y-64901166D01*
X106512833Y-64943500D01*
X106470500Y-65028166D01*
X106470500Y-65112833D01*
X107063166Y-65536166D02*
X107020833Y-65451500D01*
X106978500Y-65409166D01*
X106893833Y-65366833D01*
X106639833Y-65366833D01*
X106555166Y-65409166D01*
X106512833Y-65451500D01*
X106470500Y-65536166D01*
X106470500Y-65663166D01*
X106512833Y-65747833D01*
X106555166Y-65790166D01*
X106639833Y-65832500D01*
X106893833Y-65832500D01*
X106978500Y-65790166D01*
X107020833Y-65747833D01*
X107063166Y-65663166D01*
X107063166Y-65536166D01*
X106470500Y-66213500D02*
X107063166Y-66213500D01*
X106555166Y-66213500D02*
X106512833Y-66255833D01*
X106470500Y-66340500D01*
X106470500Y-66467500D01*
X106512833Y-66552166D01*
X106597500Y-66594500D01*
X107063166Y-66594500D01*
X107063166Y-67017833D02*
X106470500Y-67017833D01*
X106174166Y-67017833D02*
X106216500Y-66975500D01*
X106258833Y-67017833D01*
X106216500Y-67060166D01*
X106174166Y-67017833D01*
X106258833Y-67017833D01*
X107020833Y-67822166D02*
X107063166Y-67737500D01*
X107063166Y-67568166D01*
X107020833Y-67483500D01*
X106978500Y-67441166D01*
X106893833Y-67398833D01*
X106639833Y-67398833D01*
X106555166Y-67441166D01*
X106512833Y-67483500D01*
X106470500Y-67568166D01*
X106470500Y-67737500D01*
X106512833Y-67822166D01*
X107020833Y-68160833D02*
X107063166Y-68245500D01*
X107063166Y-68414833D01*
X107020833Y-68499500D01*
X106936166Y-68541833D01*
X106893833Y-68541833D01*
X106809166Y-68499500D01*
X106766833Y-68414833D01*
X106766833Y-68287833D01*
X106724500Y-68203166D01*
X106639833Y-68160833D01*
X106597500Y-68160833D01*
X106512833Y-68203166D01*
X106470500Y-68287833D01*
X106470500Y-68414833D01*
X106512833Y-68499500D01*
X106978500Y-68922833D02*
X107020833Y-68965166D01*
X107063166Y-68922833D01*
X107020833Y-68880500D01*
X106978500Y-68922833D01*
X107063166Y-68922833D01*
X107020833Y-69727166D02*
X107063166Y-69642500D01*
X107063166Y-69473166D01*
X107020833Y-69388500D01*
X106978500Y-69346166D01*
X106893833Y-69303833D01*
X106639833Y-69303833D01*
X106555166Y-69346166D01*
X106512833Y-69388500D01*
X106470500Y-69473166D01*
X106470500Y-69642500D01*
X106512833Y-69727166D01*
X107063166Y-70489166D02*
X106597500Y-70489166D01*
X106512833Y-70446833D01*
X106470500Y-70362166D01*
X106470500Y-70192833D01*
X106512833Y-70108166D01*
X107020833Y-70489166D02*
X107063166Y-70404500D01*
X107063166Y-70192833D01*
X107020833Y-70108166D01*
X106936166Y-70065833D01*
X106851500Y-70065833D01*
X106766833Y-70108166D01*
X106724500Y-70192833D01*
X106724500Y-70404500D01*
X106682166Y-70489166D01*
X95296000Y-95139333D02*
X95296000Y-94800666D01*
X95592333Y-95012333D02*
X94830333Y-95012333D01*
X94745666Y-94970000D01*
X94703333Y-94885333D01*
X94703333Y-94800666D01*
X94703333Y-94504333D02*
X95296000Y-94504333D01*
X95592333Y-94504333D02*
X95550000Y-94546666D01*
X95507666Y-94504333D01*
X95550000Y-94462000D01*
X95592333Y-94504333D01*
X95507666Y-94504333D01*
X95296000Y-94081000D02*
X94703333Y-94081000D01*
X95211333Y-94081000D02*
X95253666Y-94038666D01*
X95296000Y-93954000D01*
X95296000Y-93827000D01*
X95253666Y-93742333D01*
X95169000Y-93700000D01*
X94703333Y-93700000D01*
X94703333Y-93276666D02*
X95592333Y-93276666D01*
X95042000Y-93192000D02*
X94703333Y-92938000D01*
X95296000Y-92938000D02*
X94957333Y-93276666D01*
X94745666Y-92218333D02*
X94703333Y-92303000D01*
X94703333Y-92472333D01*
X94745666Y-92557000D01*
X94830333Y-92599333D01*
X95169000Y-92599333D01*
X95253666Y-92557000D01*
X95296000Y-92472333D01*
X95296000Y-92303000D01*
X95253666Y-92218333D01*
X95169000Y-92176000D01*
X95084333Y-92176000D01*
X94999666Y-92599333D01*
X94703333Y-91795000D02*
X95296000Y-91795000D01*
X95126666Y-91795000D02*
X95211333Y-91752666D01*
X95253666Y-91710333D01*
X95296000Y-91625666D01*
X95296000Y-91541000D01*
X95296000Y-91244666D02*
X94407000Y-91244666D01*
X95253666Y-91244666D02*
X95296000Y-91160000D01*
X95296000Y-90990666D01*
X95253666Y-90906000D01*
X95211333Y-90863666D01*
X95126666Y-90821333D01*
X94872666Y-90821333D01*
X94788000Y-90863666D01*
X94745666Y-90906000D01*
X94703333Y-90990666D01*
X94703333Y-91160000D01*
X94745666Y-91244666D01*
X94703333Y-90313333D02*
X94745666Y-90398000D01*
X94830333Y-90440333D01*
X95592333Y-90440333D01*
X95296000Y-89593666D02*
X94703333Y-89593666D01*
X95296000Y-89974666D02*
X94830333Y-89974666D01*
X94745666Y-89932333D01*
X94703333Y-89847666D01*
X94703333Y-89720666D01*
X94745666Y-89636000D01*
X94788000Y-89593666D01*
X95296000Y-89170333D02*
X94703333Y-89170333D01*
X95211333Y-89170333D02*
X95253666Y-89128000D01*
X95296000Y-89043333D01*
X95296000Y-88916333D01*
X95253666Y-88831666D01*
X95169000Y-88789333D01*
X94703333Y-88789333D01*
X94703333Y-88366000D02*
X95592333Y-88366000D01*
X95042000Y-88281333D02*
X94703333Y-88027333D01*
X95296000Y-88027333D02*
X94957333Y-88366000D01*
X94788000Y-87646333D02*
X94745666Y-87604000D01*
X94703333Y-87646333D01*
X94745666Y-87688666D01*
X94788000Y-87646333D01*
X94703333Y-87646333D01*
X94745666Y-86842000D02*
X94703333Y-86926666D01*
X94703333Y-87096000D01*
X94745666Y-87180666D01*
X94788000Y-87223000D01*
X94872666Y-87265333D01*
X95126666Y-87265333D01*
X95211333Y-87223000D01*
X95253666Y-87180666D01*
X95296000Y-87096000D01*
X95296000Y-86926666D01*
X95253666Y-86842000D01*
X94703333Y-86334000D02*
X94745666Y-86418666D01*
X94788000Y-86461000D01*
X94872666Y-86503333D01*
X95126666Y-86503333D01*
X95211333Y-86461000D01*
X95253666Y-86418666D01*
X95296000Y-86334000D01*
X95296000Y-86207000D01*
X95253666Y-86122333D01*
X95211333Y-86080000D01*
X95126666Y-86037666D01*
X94872666Y-86037666D01*
X94788000Y-86080000D01*
X94745666Y-86122333D01*
X94703333Y-86207000D01*
X94703333Y-86334000D01*
X94703333Y-85656666D02*
X95296000Y-85656666D01*
X95211333Y-85656666D02*
X95253666Y-85614333D01*
X95296000Y-85529666D01*
X95296000Y-85402666D01*
X95253666Y-85318000D01*
X95169000Y-85275666D01*
X94703333Y-85275666D01*
X95169000Y-85275666D02*
X95253666Y-85233333D01*
X95296000Y-85148666D01*
X95296000Y-85021666D01*
X95253666Y-84937000D01*
X95169000Y-84894666D01*
X94703333Y-84894666D01*
X107804000Y-80068666D02*
X107804000Y-80407333D01*
X107507666Y-80195666D02*
X108269666Y-80195666D01*
X108354333Y-80238000D01*
X108396666Y-80322666D01*
X108396666Y-80407333D01*
X108396666Y-80703666D02*
X107804000Y-80703666D01*
X107507666Y-80703666D02*
X107550000Y-80661333D01*
X107592333Y-80703666D01*
X107550000Y-80746000D01*
X107507666Y-80703666D01*
X107592333Y-80703666D01*
X107804000Y-81127000D02*
X108396666Y-81127000D01*
X107888666Y-81127000D02*
X107846333Y-81169333D01*
X107804000Y-81254000D01*
X107804000Y-81381000D01*
X107846333Y-81465666D01*
X107931000Y-81508000D01*
X108396666Y-81508000D01*
X108396666Y-81931333D02*
X107507666Y-81931333D01*
X108058000Y-82016000D02*
X108396666Y-82270000D01*
X107804000Y-82270000D02*
X108142666Y-81931333D01*
X108354333Y-82989666D02*
X108396666Y-82905000D01*
X108396666Y-82735666D01*
X108354333Y-82651000D01*
X108269666Y-82608666D01*
X107931000Y-82608666D01*
X107846333Y-82651000D01*
X107804000Y-82735666D01*
X107804000Y-82905000D01*
X107846333Y-82989666D01*
X107931000Y-83032000D01*
X108015666Y-83032000D01*
X108100333Y-82608666D01*
X108396666Y-83413000D02*
X107804000Y-83413000D01*
X107973333Y-83413000D02*
X107888666Y-83455333D01*
X107846333Y-83497666D01*
X107804000Y-83582333D01*
X107804000Y-83667000D01*
X107804000Y-83963333D02*
X108693000Y-83963333D01*
X107846333Y-83963333D02*
X107804000Y-84048000D01*
X107804000Y-84217333D01*
X107846333Y-84302000D01*
X107888666Y-84344333D01*
X107973333Y-84386666D01*
X108227333Y-84386666D01*
X108312000Y-84344333D01*
X108354333Y-84302000D01*
X108396666Y-84217333D01*
X108396666Y-84048000D01*
X108354333Y-83963333D01*
X108396666Y-84894666D02*
X108354333Y-84810000D01*
X108269666Y-84767666D01*
X107507666Y-84767666D01*
X107804000Y-85614333D02*
X108396666Y-85614333D01*
X107804000Y-85233333D02*
X108269666Y-85233333D01*
X108354333Y-85275666D01*
X108396666Y-85360333D01*
X108396666Y-85487333D01*
X108354333Y-85572000D01*
X108312000Y-85614333D01*
X107804000Y-86037666D02*
X108396666Y-86037666D01*
X107888666Y-86037666D02*
X107846333Y-86080000D01*
X107804000Y-86164666D01*
X107804000Y-86291666D01*
X107846333Y-86376333D01*
X107931000Y-86418666D01*
X108396666Y-86418666D01*
X108396666Y-86842000D02*
X107507666Y-86842000D01*
X108058000Y-86926666D02*
X108396666Y-87180666D01*
X107804000Y-87180666D02*
X108142666Y-86842000D01*
X108312000Y-87561666D02*
X108354333Y-87604000D01*
X108396666Y-87561666D01*
X108354333Y-87519333D01*
X108312000Y-87561666D01*
X108396666Y-87561666D01*
X108354333Y-88366000D02*
X108396666Y-88281333D01*
X108396666Y-88112000D01*
X108354333Y-88027333D01*
X108312000Y-87985000D01*
X108227333Y-87942666D01*
X107973333Y-87942666D01*
X107888666Y-87985000D01*
X107846333Y-88027333D01*
X107804000Y-88112000D01*
X107804000Y-88281333D01*
X107846333Y-88366000D01*
X108396666Y-88874000D02*
X108354333Y-88789333D01*
X108312000Y-88747000D01*
X108227333Y-88704666D01*
X107973333Y-88704666D01*
X107888666Y-88747000D01*
X107846333Y-88789333D01*
X107804000Y-88874000D01*
X107804000Y-89001000D01*
X107846333Y-89085666D01*
X107888666Y-89128000D01*
X107973333Y-89170333D01*
X108227333Y-89170333D01*
X108312000Y-89128000D01*
X108354333Y-89085666D01*
X108396666Y-89001000D01*
X108396666Y-88874000D01*
X108396666Y-89551333D02*
X107804000Y-89551333D01*
X107888666Y-89551333D02*
X107846333Y-89593666D01*
X107804000Y-89678333D01*
X107804000Y-89805333D01*
X107846333Y-89890000D01*
X107931000Y-89932333D01*
X108396666Y-89932333D01*
X107931000Y-89932333D02*
X107846333Y-89974666D01*
X107804000Y-90059333D01*
X107804000Y-90186333D01*
X107846333Y-90271000D01*
X107931000Y-90313333D01*
X108396666Y-90313333D01*
D11*
X98935428Y-85595714D02*
X100435428Y-85595714D01*
X98935428Y-84881428D02*
X100435428Y-84881428D01*
X98935428Y-84024285D01*
X100435428Y-84024285D01*
X104164571Y-89612285D02*
X102664571Y-89612285D01*
X104164571Y-90326571D02*
X102664571Y-90326571D01*
X104164571Y-91183714D01*
X102664571Y-91183714D01*
D10*
X96036833Y-94737166D02*
X96925833Y-94737166D01*
X96079166Y-94737166D02*
X96036833Y-94821833D01*
X96036833Y-94991166D01*
X96079166Y-95075833D01*
X96121500Y-95118166D01*
X96206166Y-95160500D01*
X96460166Y-95160500D01*
X96544833Y-95118166D01*
X96587166Y-95075833D01*
X96629500Y-94991166D01*
X96629500Y-94821833D01*
X96587166Y-94737166D01*
X96036833Y-94313833D02*
X96925833Y-94313833D01*
X96587166Y-94313833D02*
X96629500Y-94229166D01*
X96629500Y-94059833D01*
X96587166Y-93975166D01*
X96544833Y-93932833D01*
X96460166Y-93890500D01*
X96206166Y-93890500D01*
X96121500Y-93932833D01*
X96079166Y-93975166D01*
X96036833Y-94059833D01*
X96036833Y-94229166D01*
X96079166Y-94313833D01*
X96375500Y-93509500D02*
X96375500Y-92832166D01*
X96079166Y-92070166D02*
X96036833Y-92154833D01*
X96036833Y-92324166D01*
X96079166Y-92408833D01*
X96163833Y-92451166D01*
X96502500Y-92451166D01*
X96587166Y-92408833D01*
X96629500Y-92324166D01*
X96629500Y-92154833D01*
X96587166Y-92070166D01*
X96502500Y-92027833D01*
X96417833Y-92027833D01*
X96333166Y-92451166D01*
X96036833Y-91519833D02*
X96079166Y-91604500D01*
X96163833Y-91646833D01*
X96925833Y-91646833D01*
X96079166Y-90842500D02*
X96036833Y-90927166D01*
X96036833Y-91096500D01*
X96079166Y-91181166D01*
X96163833Y-91223500D01*
X96502500Y-91223500D01*
X96587166Y-91181166D01*
X96629500Y-91096500D01*
X96629500Y-90927166D01*
X96587166Y-90842500D01*
X96502500Y-90800166D01*
X96417833Y-90800166D01*
X96333166Y-91223500D01*
X96079166Y-90038166D02*
X96036833Y-90122833D01*
X96036833Y-90292166D01*
X96079166Y-90376833D01*
X96121500Y-90419166D01*
X96206166Y-90461500D01*
X96460166Y-90461500D01*
X96544833Y-90419166D01*
X96587166Y-90376833D01*
X96629500Y-90292166D01*
X96629500Y-90122833D01*
X96587166Y-90038166D01*
X96629500Y-89784166D02*
X96629500Y-89445500D01*
X96925833Y-89657166D02*
X96163833Y-89657166D01*
X96079166Y-89614833D01*
X96036833Y-89530166D01*
X96036833Y-89445500D01*
X96036833Y-89149166D02*
X96629500Y-89149166D01*
X96460166Y-89149166D02*
X96544833Y-89106833D01*
X96587166Y-89064500D01*
X96629500Y-88979833D01*
X96629500Y-88895166D01*
X96036833Y-88471833D02*
X96079166Y-88556500D01*
X96121500Y-88598833D01*
X96206166Y-88641166D01*
X96460166Y-88641166D01*
X96544833Y-88598833D01*
X96587166Y-88556500D01*
X96629500Y-88471833D01*
X96629500Y-88344833D01*
X96587166Y-88260166D01*
X96544833Y-88217833D01*
X96460166Y-88175500D01*
X96206166Y-88175500D01*
X96121500Y-88217833D01*
X96079166Y-88260166D01*
X96036833Y-88344833D01*
X96036833Y-88471833D01*
X96629500Y-87794500D02*
X96036833Y-87794500D01*
X96544833Y-87794500D02*
X96587166Y-87752166D01*
X96629500Y-87667500D01*
X96629500Y-87540500D01*
X96587166Y-87455833D01*
X96502500Y-87413500D01*
X96036833Y-87413500D01*
X96036833Y-86990166D02*
X96629500Y-86990166D01*
X96925833Y-86990166D02*
X96883500Y-87032500D01*
X96841166Y-86990166D01*
X96883500Y-86947833D01*
X96925833Y-86990166D01*
X96841166Y-86990166D01*
X96079166Y-86185833D02*
X96036833Y-86270500D01*
X96036833Y-86439833D01*
X96079166Y-86524500D01*
X96121500Y-86566833D01*
X96206166Y-86609166D01*
X96460166Y-86609166D01*
X96544833Y-86566833D01*
X96587166Y-86524500D01*
X96629500Y-86439833D01*
X96629500Y-86270500D01*
X96587166Y-86185833D01*
X96079166Y-85847166D02*
X96036833Y-85762500D01*
X96036833Y-85593166D01*
X96079166Y-85508500D01*
X96163833Y-85466166D01*
X96206166Y-85466166D01*
X96290833Y-85508500D01*
X96333166Y-85593166D01*
X96333166Y-85720166D01*
X96375500Y-85804833D01*
X96460166Y-85847166D01*
X96502500Y-85847166D01*
X96587166Y-85804833D01*
X96629500Y-85720166D01*
X96629500Y-85593166D01*
X96587166Y-85508500D01*
X96121500Y-85085166D02*
X96079166Y-85042833D01*
X96036833Y-85085166D01*
X96079166Y-85127500D01*
X96121500Y-85085166D01*
X96036833Y-85085166D01*
X96079166Y-84280833D02*
X96036833Y-84365500D01*
X96036833Y-84534833D01*
X96079166Y-84619500D01*
X96121500Y-84661833D01*
X96206166Y-84704166D01*
X96460166Y-84704166D01*
X96544833Y-84661833D01*
X96587166Y-84619500D01*
X96629500Y-84534833D01*
X96629500Y-84365500D01*
X96587166Y-84280833D01*
X96036833Y-83518833D02*
X96502500Y-83518833D01*
X96587166Y-83561166D01*
X96629500Y-83645833D01*
X96629500Y-83815166D01*
X96587166Y-83899833D01*
X96079166Y-83518833D02*
X96036833Y-83603500D01*
X96036833Y-83815166D01*
X96079166Y-83899833D01*
X96163833Y-83942166D01*
X96248500Y-83942166D01*
X96333166Y-83899833D01*
X96375500Y-83815166D01*
X96375500Y-83603500D01*
X96417833Y-83518833D01*
X107063166Y-80470833D02*
X106174166Y-80470833D01*
X107020833Y-80470833D02*
X107063166Y-80386166D01*
X107063166Y-80216833D01*
X107020833Y-80132166D01*
X106978500Y-80089833D01*
X106893833Y-80047500D01*
X106639833Y-80047500D01*
X106555166Y-80089833D01*
X106512833Y-80132166D01*
X106470500Y-80216833D01*
X106470500Y-80386166D01*
X106512833Y-80470833D01*
X107063166Y-80894166D02*
X106174166Y-80894166D01*
X106512833Y-80894166D02*
X106470500Y-80978833D01*
X106470500Y-81148166D01*
X106512833Y-81232833D01*
X106555166Y-81275166D01*
X106639833Y-81317500D01*
X106893833Y-81317500D01*
X106978500Y-81275166D01*
X107020833Y-81232833D01*
X107063166Y-81148166D01*
X107063166Y-80978833D01*
X107020833Y-80894166D01*
X106724500Y-81698500D02*
X106724500Y-82375833D01*
X107020833Y-83137833D02*
X107063166Y-83053166D01*
X107063166Y-82883833D01*
X107020833Y-82799166D01*
X106936166Y-82756833D01*
X106597500Y-82756833D01*
X106512833Y-82799166D01*
X106470500Y-82883833D01*
X106470500Y-83053166D01*
X106512833Y-83137833D01*
X106597500Y-83180166D01*
X106682166Y-83180166D01*
X106766833Y-82756833D01*
X107063166Y-83688166D02*
X107020833Y-83603500D01*
X106936166Y-83561166D01*
X106174166Y-83561166D01*
X107020833Y-84365500D02*
X107063166Y-84280833D01*
X107063166Y-84111500D01*
X107020833Y-84026833D01*
X106936166Y-83984500D01*
X106597500Y-83984500D01*
X106512833Y-84026833D01*
X106470500Y-84111500D01*
X106470500Y-84280833D01*
X106512833Y-84365500D01*
X106597500Y-84407833D01*
X106682166Y-84407833D01*
X106766833Y-83984500D01*
X107020833Y-85169833D02*
X107063166Y-85085166D01*
X107063166Y-84915833D01*
X107020833Y-84831166D01*
X106978500Y-84788833D01*
X106893833Y-84746500D01*
X106639833Y-84746500D01*
X106555166Y-84788833D01*
X106512833Y-84831166D01*
X106470500Y-84915833D01*
X106470500Y-85085166D01*
X106512833Y-85169833D01*
X106470500Y-85423833D02*
X106470500Y-85762500D01*
X106174166Y-85550833D02*
X106936166Y-85550833D01*
X107020833Y-85593166D01*
X107063166Y-85677833D01*
X107063166Y-85762500D01*
X107063166Y-86058833D02*
X106470500Y-86058833D01*
X106639833Y-86058833D02*
X106555166Y-86101166D01*
X106512833Y-86143500D01*
X106470500Y-86228166D01*
X106470500Y-86312833D01*
X107063166Y-86736166D02*
X107020833Y-86651500D01*
X106978500Y-86609166D01*
X106893833Y-86566833D01*
X106639833Y-86566833D01*
X106555166Y-86609166D01*
X106512833Y-86651500D01*
X106470500Y-86736166D01*
X106470500Y-86863166D01*
X106512833Y-86947833D01*
X106555166Y-86990166D01*
X106639833Y-87032500D01*
X106893833Y-87032500D01*
X106978500Y-86990166D01*
X107020833Y-86947833D01*
X107063166Y-86863166D01*
X107063166Y-86736166D01*
X106470500Y-87413500D02*
X107063166Y-87413500D01*
X106555166Y-87413500D02*
X106512833Y-87455833D01*
X106470500Y-87540500D01*
X106470500Y-87667500D01*
X106512833Y-87752166D01*
X106597500Y-87794500D01*
X107063166Y-87794500D01*
X107063166Y-88217833D02*
X106470500Y-88217833D01*
X106174166Y-88217833D02*
X106216500Y-88175500D01*
X106258833Y-88217833D01*
X106216500Y-88260166D01*
X106174166Y-88217833D01*
X106258833Y-88217833D01*
X107020833Y-89022166D02*
X107063166Y-88937500D01*
X107063166Y-88768166D01*
X107020833Y-88683500D01*
X106978500Y-88641166D01*
X106893833Y-88598833D01*
X106639833Y-88598833D01*
X106555166Y-88641166D01*
X106512833Y-88683500D01*
X106470500Y-88768166D01*
X106470500Y-88937500D01*
X106512833Y-89022166D01*
X107020833Y-89360833D02*
X107063166Y-89445500D01*
X107063166Y-89614833D01*
X107020833Y-89699500D01*
X106936166Y-89741833D01*
X106893833Y-89741833D01*
X106809166Y-89699500D01*
X106766833Y-89614833D01*
X106766833Y-89487833D01*
X106724500Y-89403166D01*
X106639833Y-89360833D01*
X106597500Y-89360833D01*
X106512833Y-89403166D01*
X106470500Y-89487833D01*
X106470500Y-89614833D01*
X106512833Y-89699500D01*
X106978500Y-90122833D02*
X107020833Y-90165166D01*
X107063166Y-90122833D01*
X107020833Y-90080500D01*
X106978500Y-90122833D01*
X107063166Y-90122833D01*
X107020833Y-90927166D02*
X107063166Y-90842500D01*
X107063166Y-90673166D01*
X107020833Y-90588500D01*
X106978500Y-90546166D01*
X106893833Y-90503833D01*
X106639833Y-90503833D01*
X106555166Y-90546166D01*
X106512833Y-90588500D01*
X106470500Y-90673166D01*
X106470500Y-90842500D01*
X106512833Y-90927166D01*
X107063166Y-91689166D02*
X106597500Y-91689166D01*
X106512833Y-91646833D01*
X106470500Y-91562166D01*
X106470500Y-91392833D01*
X106512833Y-91308166D01*
X107020833Y-91689166D02*
X107063166Y-91604500D01*
X107063166Y-91392833D01*
X107020833Y-91308166D01*
X106936166Y-91265833D01*
X106851500Y-91265833D01*
X106766833Y-91308166D01*
X106724500Y-91392833D01*
X106724500Y-91604500D01*
X106682166Y-91689166D01*
M02*
