G04 #@! TF.GenerationSoftware,KiCad,Pcbnew,(5.1.0)-1*
G04 #@! TF.CreationDate,2019-06-08T18:11:25-04:00*
G04 #@! TF.ProjectId,input+output,696e7075-742b-46f7-9574-7075742e6b69,0.1*
G04 #@! TF.SameCoordinates,Original*
G04 #@! TF.FileFunction,Legend,Top*
G04 #@! TF.FilePolarity,Positive*
%FSLAX46Y46*%
G04 Gerber Fmt 4.6, Leading zero omitted, Abs format (unit mm)*
G04 Created by KiCad (PCBNEW (5.1.0)-1) date 2019-06-08 18:11:25*
%MOMM*%
%LPD*%
G04 APERTURE LIST*
%ADD10C,0.203200*%
%ADD11C,0.100000*%
%ADD12C,0.150000*%
G04 APERTURE END LIST*
D10*
X88947833Y-123228833D02*
X89371166Y-122932500D01*
X88947833Y-122720833D02*
X89836833Y-122720833D01*
X89836833Y-123059500D01*
X89794500Y-123144166D01*
X89752166Y-123186500D01*
X89667500Y-123228833D01*
X89540500Y-123228833D01*
X89455833Y-123186500D01*
X89413500Y-123144166D01*
X89371166Y-123059500D01*
X89371166Y-122720833D01*
X89286500Y-123609833D02*
X89286500Y-124287166D01*
X88947833Y-136728833D02*
X88947833Y-136305500D01*
X89836833Y-136305500D01*
X89286500Y-137025166D02*
X89286500Y-137702500D01*
X88947833Y-137363833D02*
X89625166Y-137363833D01*
X114152166Y-102079166D02*
X114152166Y-102502500D01*
X113263166Y-102502500D01*
X113813500Y-101782833D02*
X113813500Y-101105500D01*
X114152166Y-101444166D02*
X113474833Y-101444166D01*
X89794500Y-109036833D02*
X89836833Y-108952166D01*
X89836833Y-108825166D01*
X89794500Y-108698166D01*
X89709833Y-108613500D01*
X89625166Y-108571166D01*
X89455833Y-108528833D01*
X89328833Y-108528833D01*
X89159500Y-108571166D01*
X89074833Y-108613500D01*
X88990166Y-108698166D01*
X88947833Y-108825166D01*
X88947833Y-108909833D01*
X88990166Y-109036833D01*
X89032500Y-109079166D01*
X89328833Y-109079166D01*
X89328833Y-108909833D01*
X114152166Y-123279166D02*
X114152166Y-123702500D01*
X113263166Y-123702500D01*
X113813500Y-122982833D02*
X113813500Y-122305500D01*
X114152166Y-122644166D02*
X113474833Y-122644166D01*
X88947833Y-133428833D02*
X88947833Y-133005500D01*
X89836833Y-133005500D01*
X89286500Y-133725166D02*
X89286500Y-134402500D01*
X89794500Y-130236833D02*
X89836833Y-130152166D01*
X89836833Y-130025166D01*
X89794500Y-129898166D01*
X89709833Y-129813500D01*
X89625166Y-129771166D01*
X89455833Y-129728833D01*
X89328833Y-129728833D01*
X89159500Y-129771166D01*
X89074833Y-129813500D01*
X88990166Y-129898166D01*
X88947833Y-130025166D01*
X88947833Y-130109833D01*
X88990166Y-130236833D01*
X89032500Y-130279166D01*
X89328833Y-130279166D01*
X89328833Y-130109833D01*
X88947833Y-102028833D02*
X89371166Y-101732500D01*
X88947833Y-101520833D02*
X89836833Y-101520833D01*
X89836833Y-101859500D01*
X89794500Y-101944166D01*
X89752166Y-101986500D01*
X89667500Y-102028833D01*
X89540500Y-102028833D01*
X89455833Y-101986500D01*
X89413500Y-101944166D01*
X89371166Y-101859500D01*
X89371166Y-101520833D01*
X89286500Y-102409833D02*
X89286500Y-103087166D01*
X113305500Y-108571166D02*
X113263166Y-108655833D01*
X113263166Y-108782833D01*
X113305500Y-108909833D01*
X113390166Y-108994500D01*
X113474833Y-109036833D01*
X113644166Y-109079166D01*
X113771166Y-109079166D01*
X113940500Y-109036833D01*
X114025166Y-108994500D01*
X114109833Y-108909833D01*
X114152166Y-108782833D01*
X114152166Y-108698166D01*
X114109833Y-108571166D01*
X114067500Y-108528833D01*
X113771166Y-108528833D01*
X113771166Y-108698166D01*
X88947833Y-105528833D02*
X89371166Y-105232500D01*
X88947833Y-105020833D02*
X89836833Y-105020833D01*
X89836833Y-105359500D01*
X89794500Y-105444166D01*
X89752166Y-105486500D01*
X89667500Y-105528833D01*
X89540500Y-105528833D01*
X89455833Y-105486500D01*
X89413500Y-105444166D01*
X89371166Y-105359500D01*
X89371166Y-105020833D01*
X89286500Y-105909833D02*
X89286500Y-106587166D01*
X88947833Y-106248500D02*
X89625166Y-106248500D01*
X114152166Y-105379166D02*
X114152166Y-105802500D01*
X113263166Y-105802500D01*
X113813500Y-105082833D02*
X113813500Y-104405500D01*
X113305500Y-129771166D02*
X113263166Y-129855833D01*
X113263166Y-129982833D01*
X113305500Y-130109833D01*
X113390166Y-130194500D01*
X113474833Y-130236833D01*
X113644166Y-130279166D01*
X113771166Y-130279166D01*
X113940500Y-130236833D01*
X114025166Y-130194500D01*
X114109833Y-130109833D01*
X114152166Y-129982833D01*
X114152166Y-129898166D01*
X114109833Y-129771166D01*
X114067500Y-129728833D01*
X113771166Y-129728833D01*
X113771166Y-129898166D01*
X114152166Y-136779166D02*
X113728833Y-137075500D01*
X114152166Y-137287166D02*
X113263166Y-137287166D01*
X113263166Y-136948500D01*
X113305500Y-136863833D01*
X113347833Y-136821500D01*
X113432500Y-136779166D01*
X113559500Y-136779166D01*
X113644166Y-136821500D01*
X113686500Y-136863833D01*
X113728833Y-136948500D01*
X113728833Y-137287166D01*
X113813500Y-136398166D02*
X113813500Y-135720833D01*
X114152166Y-133279166D02*
X113728833Y-133575500D01*
X114152166Y-133787166D02*
X113263166Y-133787166D01*
X113263166Y-133448500D01*
X113305500Y-133363833D01*
X113347833Y-133321500D01*
X113432500Y-133279166D01*
X113559500Y-133279166D01*
X113644166Y-133321500D01*
X113686500Y-133363833D01*
X113728833Y-133448500D01*
X113728833Y-133787166D01*
X113813500Y-132898166D02*
X113813500Y-132220833D01*
X114152166Y-132559500D02*
X113474833Y-132559500D01*
X114152166Y-115579166D02*
X113728833Y-115875500D01*
X114152166Y-116087166D02*
X113263166Y-116087166D01*
X113263166Y-115748500D01*
X113305500Y-115663833D01*
X113347833Y-115621500D01*
X113432500Y-115579166D01*
X113559500Y-115579166D01*
X113644166Y-115621500D01*
X113686500Y-115663833D01*
X113728833Y-115748500D01*
X113728833Y-116087166D01*
X113813500Y-115198166D02*
X113813500Y-114520833D01*
X114152166Y-126579166D02*
X114152166Y-127002500D01*
X113263166Y-127002500D01*
X113813500Y-126282833D02*
X113813500Y-125605500D01*
X114152166Y-112079166D02*
X113728833Y-112375500D01*
X114152166Y-112587166D02*
X113263166Y-112587166D01*
X113263166Y-112248500D01*
X113305500Y-112163833D01*
X113347833Y-112121500D01*
X113432500Y-112079166D01*
X113559500Y-112079166D01*
X113644166Y-112121500D01*
X113686500Y-112163833D01*
X113728833Y-112248500D01*
X113728833Y-112587166D01*
X113813500Y-111698166D02*
X113813500Y-111020833D01*
X114152166Y-111359500D02*
X113474833Y-111359500D01*
X88947833Y-112228833D02*
X88947833Y-111805500D01*
X89836833Y-111805500D01*
X89286500Y-112525166D02*
X89286500Y-113202500D01*
X88947833Y-115528833D02*
X88947833Y-115105500D01*
X89836833Y-115105500D01*
X89286500Y-115825166D02*
X89286500Y-116502500D01*
X88947833Y-116163833D02*
X89625166Y-116163833D01*
X88947833Y-126728833D02*
X89371166Y-126432500D01*
X88947833Y-126220833D02*
X89836833Y-126220833D01*
X89836833Y-126559500D01*
X89794500Y-126644166D01*
X89752166Y-126686500D01*
X89667500Y-126728833D01*
X89540500Y-126728833D01*
X89455833Y-126686500D01*
X89413500Y-126644166D01*
X89371166Y-126559500D01*
X89371166Y-126220833D01*
X89286500Y-127109833D02*
X89286500Y-127787166D01*
X88947833Y-127448500D02*
X89625166Y-127448500D01*
X161152166Y-112079166D02*
X160728833Y-112375500D01*
X161152166Y-112587166D02*
X160263166Y-112587166D01*
X160263166Y-112248500D01*
X160305500Y-112163833D01*
X160347833Y-112121500D01*
X160432500Y-112079166D01*
X160559500Y-112079166D01*
X160644166Y-112121500D01*
X160686500Y-112163833D01*
X160728833Y-112248500D01*
X160728833Y-112587166D01*
X160813500Y-111698166D02*
X160813500Y-111020833D01*
X161152166Y-111359500D02*
X160474833Y-111359500D01*
X161152166Y-105379166D02*
X161152166Y-105802500D01*
X160263166Y-105802500D01*
X160813500Y-105082833D02*
X160813500Y-104405500D01*
X135947833Y-102028833D02*
X136371166Y-101732500D01*
X135947833Y-101520833D02*
X136836833Y-101520833D01*
X136836833Y-101859500D01*
X136794500Y-101944166D01*
X136752166Y-101986500D01*
X136667500Y-102028833D01*
X136540500Y-102028833D01*
X136455833Y-101986500D01*
X136413500Y-101944166D01*
X136371166Y-101859500D01*
X136371166Y-101520833D01*
X136286500Y-102409833D02*
X136286500Y-103087166D01*
X161152166Y-102079166D02*
X161152166Y-102502500D01*
X160263166Y-102502500D01*
X160813500Y-101782833D02*
X160813500Y-101105500D01*
X161152166Y-101444166D02*
X160474833Y-101444166D01*
X135947833Y-115528833D02*
X135947833Y-115105500D01*
X136836833Y-115105500D01*
X136286500Y-115825166D02*
X136286500Y-116502500D01*
X135947833Y-116163833D02*
X136625166Y-116163833D01*
X135947833Y-105528833D02*
X136371166Y-105232500D01*
X135947833Y-105020833D02*
X136836833Y-105020833D01*
X136836833Y-105359500D01*
X136794500Y-105444166D01*
X136752166Y-105486500D01*
X136667500Y-105528833D01*
X136540500Y-105528833D01*
X136455833Y-105486500D01*
X136413500Y-105444166D01*
X136371166Y-105359500D01*
X136371166Y-105020833D01*
X136286500Y-105909833D02*
X136286500Y-106587166D01*
X135947833Y-106248500D02*
X136625166Y-106248500D01*
X161152166Y-115579166D02*
X160728833Y-115875500D01*
X161152166Y-116087166D02*
X160263166Y-116087166D01*
X160263166Y-115748500D01*
X160305500Y-115663833D01*
X160347833Y-115621500D01*
X160432500Y-115579166D01*
X160559500Y-115579166D01*
X160644166Y-115621500D01*
X160686500Y-115663833D01*
X160728833Y-115748500D01*
X160728833Y-116087166D01*
X160813500Y-115198166D02*
X160813500Y-114520833D01*
X160305500Y-108571166D02*
X160263166Y-108655833D01*
X160263166Y-108782833D01*
X160305500Y-108909833D01*
X160390166Y-108994500D01*
X160474833Y-109036833D01*
X160644166Y-109079166D01*
X160771166Y-109079166D01*
X160940500Y-109036833D01*
X161025166Y-108994500D01*
X161109833Y-108909833D01*
X161152166Y-108782833D01*
X161152166Y-108698166D01*
X161109833Y-108571166D01*
X161067500Y-108528833D01*
X160771166Y-108528833D01*
X160771166Y-108698166D01*
X135947833Y-112228833D02*
X135947833Y-111805500D01*
X136836833Y-111805500D01*
X136286500Y-112525166D02*
X136286500Y-113202500D01*
X136794500Y-109036833D02*
X136836833Y-108952166D01*
X136836833Y-108825166D01*
X136794500Y-108698166D01*
X136709833Y-108613500D01*
X136625166Y-108571166D01*
X136455833Y-108528833D01*
X136328833Y-108528833D01*
X136159500Y-108571166D01*
X136074833Y-108613500D01*
X135990166Y-108698166D01*
X135947833Y-108825166D01*
X135947833Y-108909833D01*
X135990166Y-109036833D01*
X136032500Y-109079166D01*
X136328833Y-109079166D01*
X136328833Y-108909833D01*
X135947833Y-126728833D02*
X136371166Y-126432500D01*
X135947833Y-126220833D02*
X136836833Y-126220833D01*
X136836833Y-126559500D01*
X136794500Y-126644166D01*
X136752166Y-126686500D01*
X136667500Y-126728833D01*
X136540500Y-126728833D01*
X136455833Y-126686500D01*
X136413500Y-126644166D01*
X136371166Y-126559500D01*
X136371166Y-126220833D01*
X136286500Y-127109833D02*
X136286500Y-127787166D01*
X135947833Y-127448500D02*
X136625166Y-127448500D01*
X161152166Y-126579166D02*
X161152166Y-127002500D01*
X160263166Y-127002500D01*
X160813500Y-126282833D02*
X160813500Y-125605500D01*
X135947833Y-136728833D02*
X135947833Y-136305500D01*
X136836833Y-136305500D01*
X136286500Y-137025166D02*
X136286500Y-137702500D01*
X135947833Y-137363833D02*
X136625166Y-137363833D01*
X135947833Y-123228833D02*
X136371166Y-122932500D01*
X135947833Y-122720833D02*
X136836833Y-122720833D01*
X136836833Y-123059500D01*
X136794500Y-123144166D01*
X136752166Y-123186500D01*
X136667500Y-123228833D01*
X136540500Y-123228833D01*
X136455833Y-123186500D01*
X136413500Y-123144166D01*
X136371166Y-123059500D01*
X136371166Y-122720833D01*
X136286500Y-123609833D02*
X136286500Y-124287166D01*
X161152166Y-133279166D02*
X160728833Y-133575500D01*
X161152166Y-133787166D02*
X160263166Y-133787166D01*
X160263166Y-133448500D01*
X160305500Y-133363833D01*
X160347833Y-133321500D01*
X160432500Y-133279166D01*
X160559500Y-133279166D01*
X160644166Y-133321500D01*
X160686500Y-133363833D01*
X160728833Y-133448500D01*
X160728833Y-133787166D01*
X160813500Y-132898166D02*
X160813500Y-132220833D01*
X161152166Y-132559500D02*
X160474833Y-132559500D01*
X161152166Y-136779166D02*
X160728833Y-137075500D01*
X161152166Y-137287166D02*
X160263166Y-137287166D01*
X160263166Y-136948500D01*
X160305500Y-136863833D01*
X160347833Y-136821500D01*
X160432500Y-136779166D01*
X160559500Y-136779166D01*
X160644166Y-136821500D01*
X160686500Y-136863833D01*
X160728833Y-136948500D01*
X160728833Y-137287166D01*
X160813500Y-136398166D02*
X160813500Y-135720833D01*
X161152166Y-123279166D02*
X161152166Y-123702500D01*
X160263166Y-123702500D01*
X160813500Y-122982833D02*
X160813500Y-122305500D01*
X161152166Y-122644166D02*
X160474833Y-122644166D01*
X160305500Y-129771166D02*
X160263166Y-129855833D01*
X160263166Y-129982833D01*
X160305500Y-130109833D01*
X160390166Y-130194500D01*
X160474833Y-130236833D01*
X160644166Y-130279166D01*
X160771166Y-130279166D01*
X160940500Y-130236833D01*
X161025166Y-130194500D01*
X161109833Y-130109833D01*
X161152166Y-129982833D01*
X161152166Y-129898166D01*
X161109833Y-129771166D01*
X161067500Y-129728833D01*
X160771166Y-129728833D01*
X160771166Y-129898166D01*
X135947833Y-133428833D02*
X135947833Y-133005500D01*
X136836833Y-133005500D01*
X136286500Y-133725166D02*
X136286500Y-134402500D01*
X136794500Y-130236833D02*
X136836833Y-130152166D01*
X136836833Y-130025166D01*
X136794500Y-129898166D01*
X136709833Y-129813500D01*
X136625166Y-129771166D01*
X136455833Y-129728833D01*
X136328833Y-129728833D01*
X136159500Y-129771166D01*
X136074833Y-129813500D01*
X135990166Y-129898166D01*
X135947833Y-130025166D01*
X135947833Y-130109833D01*
X135990166Y-130236833D01*
X136032500Y-130279166D01*
X136328833Y-130279166D01*
X136328833Y-130109833D01*
X160305500Y-87371166D02*
X160263166Y-87455833D01*
X160263166Y-87582833D01*
X160305500Y-87709833D01*
X160390166Y-87794500D01*
X160474833Y-87836833D01*
X160644166Y-87879166D01*
X160771166Y-87879166D01*
X160940500Y-87836833D01*
X161025166Y-87794500D01*
X161109833Y-87709833D01*
X161152166Y-87582833D01*
X161152166Y-87498166D01*
X161109833Y-87371166D01*
X161067500Y-87328833D01*
X160771166Y-87328833D01*
X160771166Y-87498166D01*
X161152166Y-90879166D02*
X160728833Y-91175500D01*
X161152166Y-91387166D02*
X160263166Y-91387166D01*
X160263166Y-91048500D01*
X160305500Y-90963833D01*
X160347833Y-90921500D01*
X160432500Y-90879166D01*
X160559500Y-90879166D01*
X160644166Y-90921500D01*
X160686500Y-90963833D01*
X160728833Y-91048500D01*
X160728833Y-91387166D01*
X160813500Y-90498166D02*
X160813500Y-89820833D01*
X161152166Y-90159500D02*
X160474833Y-90159500D01*
X136794500Y-87836833D02*
X136836833Y-87752166D01*
X136836833Y-87625166D01*
X136794500Y-87498166D01*
X136709833Y-87413500D01*
X136625166Y-87371166D01*
X136455833Y-87328833D01*
X136328833Y-87328833D01*
X136159500Y-87371166D01*
X136074833Y-87413500D01*
X135990166Y-87498166D01*
X135947833Y-87625166D01*
X135947833Y-87709833D01*
X135990166Y-87836833D01*
X136032500Y-87879166D01*
X136328833Y-87879166D01*
X136328833Y-87709833D01*
X135947833Y-91028833D02*
X135947833Y-90605500D01*
X136836833Y-90605500D01*
X136286500Y-91325166D02*
X136286500Y-92002500D01*
X161152166Y-80879166D02*
X161152166Y-81302500D01*
X160263166Y-81302500D01*
X160813500Y-80582833D02*
X160813500Y-79905500D01*
X161152166Y-80244166D02*
X160474833Y-80244166D01*
X135947833Y-80828833D02*
X136371166Y-80532500D01*
X135947833Y-80320833D02*
X136836833Y-80320833D01*
X136836833Y-80659500D01*
X136794500Y-80744166D01*
X136752166Y-80786500D01*
X136667500Y-80828833D01*
X136540500Y-80828833D01*
X136455833Y-80786500D01*
X136413500Y-80744166D01*
X136371166Y-80659500D01*
X136371166Y-80320833D01*
X136286500Y-81209833D02*
X136286500Y-81887166D01*
X135947833Y-84328833D02*
X136371166Y-84032500D01*
X135947833Y-83820833D02*
X136836833Y-83820833D01*
X136836833Y-84159500D01*
X136794500Y-84244166D01*
X136752166Y-84286500D01*
X136667500Y-84328833D01*
X136540500Y-84328833D01*
X136455833Y-84286500D01*
X136413500Y-84244166D01*
X136371166Y-84159500D01*
X136371166Y-83820833D01*
X136286500Y-84709833D02*
X136286500Y-85387166D01*
X135947833Y-85048500D02*
X136625166Y-85048500D01*
X135947833Y-94328833D02*
X135947833Y-93905500D01*
X136836833Y-93905500D01*
X136286500Y-94625166D02*
X136286500Y-95302500D01*
X135947833Y-94963833D02*
X136625166Y-94963833D01*
X161152166Y-94379166D02*
X160728833Y-94675500D01*
X161152166Y-94887166D02*
X160263166Y-94887166D01*
X160263166Y-94548500D01*
X160305500Y-94463833D01*
X160347833Y-94421500D01*
X160432500Y-94379166D01*
X160559500Y-94379166D01*
X160644166Y-94421500D01*
X160686500Y-94463833D01*
X160728833Y-94548500D01*
X160728833Y-94887166D01*
X160813500Y-93998166D02*
X160813500Y-93320833D01*
X161152166Y-84179166D02*
X161152166Y-84602500D01*
X160263166Y-84602500D01*
X160813500Y-83882833D02*
X160813500Y-83205500D01*
X135947833Y-69828833D02*
X135947833Y-69405500D01*
X136836833Y-69405500D01*
X136286500Y-70125166D02*
X136286500Y-70802500D01*
X161152166Y-62979166D02*
X161152166Y-63402500D01*
X160263166Y-63402500D01*
X160813500Y-62682833D02*
X160813500Y-62005500D01*
X160305500Y-66171166D02*
X160263166Y-66255833D01*
X160263166Y-66382833D01*
X160305500Y-66509833D01*
X160390166Y-66594500D01*
X160474833Y-66636833D01*
X160644166Y-66679166D01*
X160771166Y-66679166D01*
X160940500Y-66636833D01*
X161025166Y-66594500D01*
X161109833Y-66509833D01*
X161152166Y-66382833D01*
X161152166Y-66298166D01*
X161109833Y-66171166D01*
X161067500Y-66128833D01*
X160771166Y-66128833D01*
X160771166Y-66298166D01*
X135947833Y-63128833D02*
X136371166Y-62832500D01*
X135947833Y-62620833D02*
X136836833Y-62620833D01*
X136836833Y-62959500D01*
X136794500Y-63044166D01*
X136752166Y-63086500D01*
X136667500Y-63128833D01*
X136540500Y-63128833D01*
X136455833Y-63086500D01*
X136413500Y-63044166D01*
X136371166Y-62959500D01*
X136371166Y-62620833D01*
X136286500Y-63509833D02*
X136286500Y-64187166D01*
X135947833Y-63848500D02*
X136625166Y-63848500D01*
X161152166Y-69679166D02*
X160728833Y-69975500D01*
X161152166Y-70187166D02*
X160263166Y-70187166D01*
X160263166Y-69848500D01*
X160305500Y-69763833D01*
X160347833Y-69721500D01*
X160432500Y-69679166D01*
X160559500Y-69679166D01*
X160644166Y-69721500D01*
X160686500Y-69763833D01*
X160728833Y-69848500D01*
X160728833Y-70187166D01*
X160813500Y-69298166D02*
X160813500Y-68620833D01*
X161152166Y-68959500D02*
X160474833Y-68959500D01*
X135947833Y-59628833D02*
X136371166Y-59332500D01*
X135947833Y-59120833D02*
X136836833Y-59120833D01*
X136836833Y-59459500D01*
X136794500Y-59544166D01*
X136752166Y-59586500D01*
X136667500Y-59628833D01*
X136540500Y-59628833D01*
X136455833Y-59586500D01*
X136413500Y-59544166D01*
X136371166Y-59459500D01*
X136371166Y-59120833D01*
X136286500Y-60009833D02*
X136286500Y-60687166D01*
X161152166Y-59679166D02*
X161152166Y-60102500D01*
X160263166Y-60102500D01*
X160813500Y-59382833D02*
X160813500Y-58705500D01*
X161152166Y-59044166D02*
X160474833Y-59044166D01*
X161152166Y-73179166D02*
X160728833Y-73475500D01*
X161152166Y-73687166D02*
X160263166Y-73687166D01*
X160263166Y-73348500D01*
X160305500Y-73263833D01*
X160347833Y-73221500D01*
X160432500Y-73179166D01*
X160559500Y-73179166D01*
X160644166Y-73221500D01*
X160686500Y-73263833D01*
X160728833Y-73348500D01*
X160728833Y-73687166D01*
X160813500Y-72798166D02*
X160813500Y-72120833D01*
X136794500Y-66636833D02*
X136836833Y-66552166D01*
X136836833Y-66425166D01*
X136794500Y-66298166D01*
X136709833Y-66213500D01*
X136625166Y-66171166D01*
X136455833Y-66128833D01*
X136328833Y-66128833D01*
X136159500Y-66171166D01*
X136074833Y-66213500D01*
X135990166Y-66298166D01*
X135947833Y-66425166D01*
X135947833Y-66509833D01*
X135990166Y-66636833D01*
X136032500Y-66679166D01*
X136328833Y-66679166D01*
X136328833Y-66509833D01*
X135947833Y-73128833D02*
X135947833Y-72705500D01*
X136836833Y-72705500D01*
X136286500Y-73425166D02*
X136286500Y-74102500D01*
X135947833Y-73763833D02*
X136625166Y-73763833D01*
X89794500Y-66636833D02*
X89836833Y-66552166D01*
X89836833Y-66425166D01*
X89794500Y-66298166D01*
X89709833Y-66213500D01*
X89625166Y-66171166D01*
X89455833Y-66128833D01*
X89328833Y-66128833D01*
X89159500Y-66171166D01*
X89074833Y-66213500D01*
X88990166Y-66298166D01*
X88947833Y-66425166D01*
X88947833Y-66509833D01*
X88990166Y-66636833D01*
X89032500Y-66679166D01*
X89328833Y-66679166D01*
X89328833Y-66509833D01*
X88947833Y-73128833D02*
X88947833Y-72705500D01*
X89836833Y-72705500D01*
X89286500Y-73425166D02*
X89286500Y-74102500D01*
X88947833Y-73763833D02*
X89625166Y-73763833D01*
X88947833Y-69828833D02*
X88947833Y-69405500D01*
X89836833Y-69405500D01*
X89286500Y-70125166D02*
X89286500Y-70802500D01*
X88947833Y-63128833D02*
X89371166Y-62832500D01*
X88947833Y-62620833D02*
X89836833Y-62620833D01*
X89836833Y-62959500D01*
X89794500Y-63044166D01*
X89752166Y-63086500D01*
X89667500Y-63128833D01*
X89540500Y-63128833D01*
X89455833Y-63086500D01*
X89413500Y-63044166D01*
X89371166Y-62959500D01*
X89371166Y-62620833D01*
X89286500Y-63509833D02*
X89286500Y-64187166D01*
X88947833Y-63848500D02*
X89625166Y-63848500D01*
X88947833Y-59628833D02*
X89371166Y-59332500D01*
X88947833Y-59120833D02*
X89836833Y-59120833D01*
X89836833Y-59459500D01*
X89794500Y-59544166D01*
X89752166Y-59586500D01*
X89667500Y-59628833D01*
X89540500Y-59628833D01*
X89455833Y-59586500D01*
X89413500Y-59544166D01*
X89371166Y-59459500D01*
X89371166Y-59120833D01*
X89286500Y-60009833D02*
X89286500Y-60687166D01*
X114152166Y-69679166D02*
X113728833Y-69975500D01*
X114152166Y-70187166D02*
X113263166Y-70187166D01*
X113263166Y-69848500D01*
X113305500Y-69763833D01*
X113347833Y-69721500D01*
X113432500Y-69679166D01*
X113559500Y-69679166D01*
X113644166Y-69721500D01*
X113686500Y-69763833D01*
X113728833Y-69848500D01*
X113728833Y-70187166D01*
X113813500Y-69298166D02*
X113813500Y-68620833D01*
X114152166Y-68959500D02*
X113474833Y-68959500D01*
X114152166Y-73179166D02*
X113728833Y-73475500D01*
X114152166Y-73687166D02*
X113263166Y-73687166D01*
X113263166Y-73348500D01*
X113305500Y-73263833D01*
X113347833Y-73221500D01*
X113432500Y-73179166D01*
X113559500Y-73179166D01*
X113644166Y-73221500D01*
X113686500Y-73263833D01*
X113728833Y-73348500D01*
X113728833Y-73687166D01*
X113813500Y-72798166D02*
X113813500Y-72120833D01*
X114152166Y-62979166D02*
X114152166Y-63402500D01*
X113263166Y-63402500D01*
X113813500Y-62682833D02*
X113813500Y-62005500D01*
X114152166Y-59679166D02*
X114152166Y-60102500D01*
X113263166Y-60102500D01*
X113813500Y-59382833D02*
X113813500Y-58705500D01*
X114152166Y-59044166D02*
X113474833Y-59044166D01*
X113305500Y-66171166D02*
X113263166Y-66255833D01*
X113263166Y-66382833D01*
X113305500Y-66509833D01*
X113390166Y-66594500D01*
X113474833Y-66636833D01*
X113644166Y-66679166D01*
X113771166Y-66679166D01*
X113940500Y-66636833D01*
X114025166Y-66594500D01*
X114109833Y-66509833D01*
X114152166Y-66382833D01*
X114152166Y-66298166D01*
X114109833Y-66171166D01*
X114067500Y-66128833D01*
X113771166Y-66128833D01*
X113771166Y-66298166D01*
X88947833Y-91028833D02*
X88947833Y-90605500D01*
X89836833Y-90605500D01*
X89286500Y-91325166D02*
X89286500Y-92002500D01*
X89794500Y-87836833D02*
X89836833Y-87752166D01*
X89836833Y-87625166D01*
X89794500Y-87498166D01*
X89709833Y-87413500D01*
X89625166Y-87371166D01*
X89455833Y-87328833D01*
X89328833Y-87328833D01*
X89159500Y-87371166D01*
X89074833Y-87413500D01*
X88990166Y-87498166D01*
X88947833Y-87625166D01*
X88947833Y-87709833D01*
X88990166Y-87836833D01*
X89032500Y-87879166D01*
X89328833Y-87879166D01*
X89328833Y-87709833D01*
X88947833Y-80828833D02*
X89371166Y-80532500D01*
X88947833Y-80320833D02*
X89836833Y-80320833D01*
X89836833Y-80659500D01*
X89794500Y-80744166D01*
X89752166Y-80786500D01*
X89667500Y-80828833D01*
X89540500Y-80828833D01*
X89455833Y-80786500D01*
X89413500Y-80744166D01*
X89371166Y-80659500D01*
X89371166Y-80320833D01*
X89286500Y-81209833D02*
X89286500Y-81887166D01*
X113305500Y-87371166D02*
X113263166Y-87455833D01*
X113263166Y-87582833D01*
X113305500Y-87709833D01*
X113390166Y-87794500D01*
X113474833Y-87836833D01*
X113644166Y-87879166D01*
X113771166Y-87879166D01*
X113940500Y-87836833D01*
X114025166Y-87794500D01*
X114109833Y-87709833D01*
X114152166Y-87582833D01*
X114152166Y-87498166D01*
X114109833Y-87371166D01*
X114067500Y-87328833D01*
X113771166Y-87328833D01*
X113771166Y-87498166D01*
X114152166Y-90879166D02*
X113728833Y-91175500D01*
X114152166Y-91387166D02*
X113263166Y-91387166D01*
X113263166Y-91048500D01*
X113305500Y-90963833D01*
X113347833Y-90921500D01*
X113432500Y-90879166D01*
X113559500Y-90879166D01*
X113644166Y-90921500D01*
X113686500Y-90963833D01*
X113728833Y-91048500D01*
X113728833Y-91387166D01*
X113813500Y-90498166D02*
X113813500Y-89820833D01*
X114152166Y-90159500D02*
X113474833Y-90159500D01*
X114152166Y-80879166D02*
X114152166Y-81302500D01*
X113263166Y-81302500D01*
X113813500Y-80582833D02*
X113813500Y-79905500D01*
X114152166Y-80244166D02*
X113474833Y-80244166D01*
X88947833Y-84328833D02*
X89371166Y-84032500D01*
X88947833Y-83820833D02*
X89836833Y-83820833D01*
X89836833Y-84159500D01*
X89794500Y-84244166D01*
X89752166Y-84286500D01*
X89667500Y-84328833D01*
X89540500Y-84328833D01*
X89455833Y-84286500D01*
X89413500Y-84244166D01*
X89371166Y-84159500D01*
X89371166Y-83820833D01*
X89286500Y-84709833D02*
X89286500Y-85387166D01*
X88947833Y-85048500D02*
X89625166Y-85048500D01*
X88947833Y-94328833D02*
X88947833Y-93905500D01*
X89836833Y-93905500D01*
X89286500Y-94625166D02*
X89286500Y-95302500D01*
X88947833Y-94963833D02*
X89625166Y-94963833D01*
X114152166Y-94379166D02*
X113728833Y-94675500D01*
X114152166Y-94887166D02*
X113263166Y-94887166D01*
X113263166Y-94548500D01*
X113305500Y-94463833D01*
X113347833Y-94421500D01*
X113432500Y-94379166D01*
X113559500Y-94379166D01*
X113644166Y-94421500D01*
X113686500Y-94463833D01*
X113728833Y-94548500D01*
X113728833Y-94887166D01*
X113813500Y-93998166D02*
X113813500Y-93320833D01*
X114152166Y-84179166D02*
X114152166Y-84602500D01*
X113263166Y-84602500D01*
X113813500Y-83882833D02*
X113813500Y-83205500D01*
D11*
X103850000Y-123904000D02*
X104450000Y-123904000D01*
X104450000Y-123904000D02*
X104450000Y-125104000D01*
X90850000Y-123904000D02*
X90250000Y-123904000D01*
X90250000Y-123904000D02*
X90250000Y-125304000D01*
X90850000Y-136104000D02*
X90250000Y-136104000D01*
X90250000Y-136104000D02*
X90250000Y-134604000D01*
X103150000Y-136104000D02*
X103550000Y-136104000D01*
X103550000Y-136104000D02*
X104450000Y-135204000D01*
X104450000Y-135204000D02*
X104450000Y-134904000D01*
X104450000Y-134904000D02*
X104650000Y-134904000D01*
X104450000Y-113704000D02*
X104650000Y-113704000D01*
X104450000Y-114004000D02*
X104450000Y-113704000D01*
X103550000Y-114904000D02*
X104450000Y-114004000D01*
X103150000Y-114904000D02*
X103550000Y-114904000D01*
X90250000Y-114904000D02*
X90250000Y-113404000D01*
X90850000Y-114904000D02*
X90250000Y-114904000D01*
X90250000Y-102704000D02*
X90250000Y-104104000D01*
X90850000Y-102704000D02*
X90250000Y-102704000D01*
X104450000Y-102704000D02*
X104450000Y-103904000D01*
X103850000Y-102704000D02*
X104450000Y-102704000D01*
X99250000Y-114904000D02*
X98650000Y-114904000D01*
X98650000Y-114904000D02*
X98650000Y-113704000D01*
X112250000Y-114904000D02*
X112850000Y-114904000D01*
X112850000Y-114904000D02*
X112850000Y-113504000D01*
X112250000Y-102704000D02*
X112850000Y-102704000D01*
X112850000Y-102704000D02*
X112850000Y-104204000D01*
X99950000Y-102704000D02*
X99550000Y-102704000D01*
X99550000Y-102704000D02*
X98650000Y-103604000D01*
X98650000Y-103604000D02*
X98650000Y-103904000D01*
X98650000Y-103904000D02*
X98450000Y-103904000D01*
X98650000Y-125104000D02*
X98450000Y-125104000D01*
X98650000Y-124804000D02*
X98650000Y-125104000D01*
X99550000Y-123904000D02*
X98650000Y-124804000D01*
X99950000Y-123904000D02*
X99550000Y-123904000D01*
X112850000Y-123904000D02*
X112850000Y-125404000D01*
X112250000Y-123904000D02*
X112850000Y-123904000D01*
X112850000Y-136104000D02*
X112850000Y-134704000D01*
X112250000Y-136104000D02*
X112850000Y-136104000D01*
X98650000Y-136104000D02*
X98650000Y-134904000D01*
X99250000Y-136104000D02*
X98650000Y-136104000D01*
X145650000Y-103904000D02*
X145450000Y-103904000D01*
X145650000Y-103604000D02*
X145650000Y-103904000D01*
X146550000Y-102704000D02*
X145650000Y-103604000D01*
X146950000Y-102704000D02*
X146550000Y-102704000D01*
X159850000Y-102704000D02*
X159850000Y-104204000D01*
X159250000Y-102704000D02*
X159850000Y-102704000D01*
X159850000Y-114904000D02*
X159850000Y-113504000D01*
X159250000Y-114904000D02*
X159850000Y-114904000D01*
X145650000Y-114904000D02*
X145650000Y-113704000D01*
X146250000Y-114904000D02*
X145650000Y-114904000D01*
X150850000Y-102704000D02*
X151450000Y-102704000D01*
X151450000Y-102704000D02*
X151450000Y-103904000D01*
X137850000Y-102704000D02*
X137250000Y-102704000D01*
X137250000Y-102704000D02*
X137250000Y-104104000D01*
X137850000Y-114904000D02*
X137250000Y-114904000D01*
X137250000Y-114904000D02*
X137250000Y-113404000D01*
X150150000Y-114904000D02*
X150550000Y-114904000D01*
X150550000Y-114904000D02*
X151450000Y-114004000D01*
X151450000Y-114004000D02*
X151450000Y-113704000D01*
X151450000Y-113704000D02*
X151650000Y-113704000D01*
X151450000Y-134904000D02*
X151650000Y-134904000D01*
X151450000Y-135204000D02*
X151450000Y-134904000D01*
X150550000Y-136104000D02*
X151450000Y-135204000D01*
X150150000Y-136104000D02*
X150550000Y-136104000D01*
X137250000Y-136104000D02*
X137250000Y-134604000D01*
X137850000Y-136104000D02*
X137250000Y-136104000D01*
X137250000Y-123904000D02*
X137250000Y-125304000D01*
X137850000Y-123904000D02*
X137250000Y-123904000D01*
X151450000Y-123904000D02*
X151450000Y-125104000D01*
X150850000Y-123904000D02*
X151450000Y-123904000D01*
X146250000Y-136104000D02*
X145650000Y-136104000D01*
X145650000Y-136104000D02*
X145650000Y-134904000D01*
X159250000Y-136104000D02*
X159850000Y-136104000D01*
X159850000Y-136104000D02*
X159850000Y-134704000D01*
X159250000Y-123904000D02*
X159850000Y-123904000D01*
X159850000Y-123904000D02*
X159850000Y-125404000D01*
X146950000Y-123904000D02*
X146550000Y-123904000D01*
X146550000Y-123904000D02*
X145650000Y-124804000D01*
X145650000Y-124804000D02*
X145650000Y-125104000D01*
X145650000Y-125104000D02*
X145450000Y-125104000D01*
X151450000Y-71304000D02*
X151650000Y-71304000D01*
X151450000Y-71604000D02*
X151450000Y-71304000D01*
X150550000Y-72504000D02*
X151450000Y-71604000D01*
X150150000Y-72504000D02*
X150550000Y-72504000D01*
X137250000Y-72504000D02*
X137250000Y-71004000D01*
X137850000Y-72504000D02*
X137250000Y-72504000D01*
X137250000Y-60304000D02*
X137250000Y-61704000D01*
X137850000Y-60304000D02*
X137250000Y-60304000D01*
X151450000Y-60304000D02*
X151450000Y-61504000D01*
X150850000Y-60304000D02*
X151450000Y-60304000D01*
X146250000Y-72504000D02*
X145650000Y-72504000D01*
X145650000Y-72504000D02*
X145650000Y-71304000D01*
X159250000Y-72504000D02*
X159850000Y-72504000D01*
X159850000Y-72504000D02*
X159850000Y-71104000D01*
X159250000Y-60304000D02*
X159850000Y-60304000D01*
X159850000Y-60304000D02*
X159850000Y-61804000D01*
X146950000Y-60304000D02*
X146550000Y-60304000D01*
X146550000Y-60304000D02*
X145650000Y-61204000D01*
X145650000Y-61204000D02*
X145650000Y-61504000D01*
X145650000Y-61504000D02*
X145450000Y-61504000D01*
X145650000Y-82704000D02*
X145450000Y-82704000D01*
X145650000Y-82404000D02*
X145650000Y-82704000D01*
X146550000Y-81504000D02*
X145650000Y-82404000D01*
X146950000Y-81504000D02*
X146550000Y-81504000D01*
X159850000Y-81504000D02*
X159850000Y-83004000D01*
X159250000Y-81504000D02*
X159850000Y-81504000D01*
X159850000Y-93704000D02*
X159850000Y-92304000D01*
X159250000Y-93704000D02*
X159850000Y-93704000D01*
X145650000Y-93704000D02*
X145650000Y-92504000D01*
X146250000Y-93704000D02*
X145650000Y-93704000D01*
X150850000Y-81504000D02*
X151450000Y-81504000D01*
X151450000Y-81504000D02*
X151450000Y-82704000D01*
X137850000Y-81504000D02*
X137250000Y-81504000D01*
X137250000Y-81504000D02*
X137250000Y-82904000D01*
X137850000Y-93704000D02*
X137250000Y-93704000D01*
X137250000Y-93704000D02*
X137250000Y-92204000D01*
X150150000Y-93704000D02*
X150550000Y-93704000D01*
X150550000Y-93704000D02*
X151450000Y-92804000D01*
X151450000Y-92804000D02*
X151450000Y-92504000D01*
X151450000Y-92504000D02*
X151650000Y-92504000D01*
X98650000Y-61504000D02*
X98450000Y-61504000D01*
X98650000Y-61204000D02*
X98650000Y-61504000D01*
X99550000Y-60304000D02*
X98650000Y-61204000D01*
X99950000Y-60304000D02*
X99550000Y-60304000D01*
X112850000Y-60304000D02*
X112850000Y-61804000D01*
X112250000Y-60304000D02*
X112850000Y-60304000D01*
X112850000Y-72504000D02*
X112850000Y-71104000D01*
X112250000Y-72504000D02*
X112850000Y-72504000D01*
X98650000Y-72504000D02*
X98650000Y-71304000D01*
X99250000Y-72504000D02*
X98650000Y-72504000D01*
X103850000Y-60304000D02*
X104450000Y-60304000D01*
X104450000Y-60304000D02*
X104450000Y-61504000D01*
X90850000Y-60304000D02*
X90250000Y-60304000D01*
X90250000Y-60304000D02*
X90250000Y-61704000D01*
X90850000Y-72504000D02*
X90250000Y-72504000D01*
X90250000Y-72504000D02*
X90250000Y-71004000D01*
X103150000Y-72504000D02*
X103550000Y-72504000D01*
X103550000Y-72504000D02*
X104450000Y-71604000D01*
X104450000Y-71604000D02*
X104450000Y-71304000D01*
X104450000Y-71304000D02*
X104650000Y-71304000D01*
X104450000Y-92504000D02*
X104650000Y-92504000D01*
X104450000Y-92804000D02*
X104450000Y-92504000D01*
X103550000Y-93704000D02*
X104450000Y-92804000D01*
X103150000Y-93704000D02*
X103550000Y-93704000D01*
X90250000Y-93704000D02*
X90250000Y-92204000D01*
X90850000Y-93704000D02*
X90250000Y-93704000D01*
X90250000Y-81504000D02*
X90250000Y-82904000D01*
X90850000Y-81504000D02*
X90250000Y-81504000D01*
X104450000Y-81504000D02*
X104450000Y-82704000D01*
X103850000Y-81504000D02*
X104450000Y-81504000D01*
X99250000Y-93704000D02*
X98650000Y-93704000D01*
X98650000Y-93704000D02*
X98650000Y-92504000D01*
X112250000Y-93704000D02*
X112850000Y-93704000D01*
X112850000Y-93704000D02*
X112850000Y-92304000D01*
X112250000Y-81504000D02*
X112850000Y-81504000D01*
X112850000Y-81504000D02*
X112850000Y-83004000D01*
X99950000Y-81504000D02*
X99550000Y-81504000D01*
X99550000Y-81504000D02*
X98650000Y-82404000D01*
X98650000Y-82404000D02*
X98650000Y-82704000D01*
X98650000Y-82704000D02*
X98450000Y-82704000D01*
D12*
X95232857Y-128853214D02*
X95185238Y-128805595D01*
X95137619Y-128662738D01*
X95137619Y-128567500D01*
X95185238Y-128424642D01*
X95280476Y-128329404D01*
X95375714Y-128281785D01*
X95566190Y-128234166D01*
X95709047Y-128234166D01*
X95899523Y-128281785D01*
X95994761Y-128329404D01*
X96090000Y-128424642D01*
X96137619Y-128567500D01*
X96137619Y-128662738D01*
X96090000Y-128805595D01*
X96042380Y-128853214D01*
X96137619Y-129472261D02*
X96137619Y-129662738D01*
X96090000Y-129757976D01*
X95994761Y-129853214D01*
X95804285Y-129900833D01*
X95470952Y-129900833D01*
X95280476Y-129853214D01*
X95185238Y-129757976D01*
X95137619Y-129662738D01*
X95137619Y-129472261D01*
X95185238Y-129377023D01*
X95280476Y-129281785D01*
X95470952Y-129234166D01*
X95804285Y-129234166D01*
X95994761Y-129281785D01*
X96090000Y-129377023D01*
X96137619Y-129472261D01*
X95137619Y-130329404D02*
X96137619Y-130329404D01*
X95137619Y-130900833D01*
X96137619Y-130900833D01*
X95137619Y-131900833D02*
X95137619Y-131329404D01*
X95137619Y-131615119D02*
X96137619Y-131615119D01*
X95994761Y-131519880D01*
X95899523Y-131424642D01*
X95851904Y-131329404D01*
X95232857Y-107653214D02*
X95185238Y-107605595D01*
X95137619Y-107462738D01*
X95137619Y-107367500D01*
X95185238Y-107224642D01*
X95280476Y-107129404D01*
X95375714Y-107081785D01*
X95566190Y-107034166D01*
X95709047Y-107034166D01*
X95899523Y-107081785D01*
X95994761Y-107129404D01*
X96090000Y-107224642D01*
X96137619Y-107367500D01*
X96137619Y-107462738D01*
X96090000Y-107605595D01*
X96042380Y-107653214D01*
X96137619Y-108272261D02*
X96137619Y-108462738D01*
X96090000Y-108557976D01*
X95994761Y-108653214D01*
X95804285Y-108700833D01*
X95470952Y-108700833D01*
X95280476Y-108653214D01*
X95185238Y-108557976D01*
X95137619Y-108462738D01*
X95137619Y-108272261D01*
X95185238Y-108177023D01*
X95280476Y-108081785D01*
X95470952Y-108034166D01*
X95804285Y-108034166D01*
X95994761Y-108081785D01*
X96090000Y-108177023D01*
X96137619Y-108272261D01*
X95137619Y-109129404D02*
X96137619Y-109129404D01*
X95137619Y-109700833D01*
X96137619Y-109700833D01*
X95137619Y-110700833D02*
X95137619Y-110129404D01*
X95137619Y-110415119D02*
X96137619Y-110415119D01*
X95994761Y-110319880D01*
X95899523Y-110224642D01*
X95851904Y-110129404D01*
X107152857Y-107526214D02*
X107105238Y-107478595D01*
X107057619Y-107335738D01*
X107057619Y-107240500D01*
X107105238Y-107097642D01*
X107200476Y-107002404D01*
X107295714Y-106954785D01*
X107486190Y-106907166D01*
X107629047Y-106907166D01*
X107819523Y-106954785D01*
X107914761Y-107002404D01*
X108010000Y-107097642D01*
X108057619Y-107240500D01*
X108057619Y-107335738D01*
X108010000Y-107478595D01*
X107962380Y-107526214D01*
X108057619Y-108145261D02*
X108057619Y-108335738D01*
X108010000Y-108430976D01*
X107914761Y-108526214D01*
X107724285Y-108573833D01*
X107390952Y-108573833D01*
X107200476Y-108526214D01*
X107105238Y-108430976D01*
X107057619Y-108335738D01*
X107057619Y-108145261D01*
X107105238Y-108050023D01*
X107200476Y-107954785D01*
X107390952Y-107907166D01*
X107724285Y-107907166D01*
X107914761Y-107954785D01*
X108010000Y-108050023D01*
X108057619Y-108145261D01*
X107057619Y-109002404D02*
X108057619Y-109002404D01*
X107057619Y-109573833D01*
X108057619Y-109573833D01*
X107057619Y-110573833D02*
X107057619Y-110002404D01*
X107057619Y-110288119D02*
X108057619Y-110288119D01*
X107914761Y-110192880D01*
X107819523Y-110097642D01*
X107771904Y-110002404D01*
X107152857Y-128726214D02*
X107105238Y-128678595D01*
X107057619Y-128535738D01*
X107057619Y-128440500D01*
X107105238Y-128297642D01*
X107200476Y-128202404D01*
X107295714Y-128154785D01*
X107486190Y-128107166D01*
X107629047Y-128107166D01*
X107819523Y-128154785D01*
X107914761Y-128202404D01*
X108010000Y-128297642D01*
X108057619Y-128440500D01*
X108057619Y-128535738D01*
X108010000Y-128678595D01*
X107962380Y-128726214D01*
X108057619Y-129345261D02*
X108057619Y-129535738D01*
X108010000Y-129630976D01*
X107914761Y-129726214D01*
X107724285Y-129773833D01*
X107390952Y-129773833D01*
X107200476Y-129726214D01*
X107105238Y-129630976D01*
X107057619Y-129535738D01*
X107057619Y-129345261D01*
X107105238Y-129250023D01*
X107200476Y-129154785D01*
X107390952Y-129107166D01*
X107724285Y-129107166D01*
X107914761Y-129154785D01*
X108010000Y-129250023D01*
X108057619Y-129345261D01*
X107057619Y-130202404D02*
X108057619Y-130202404D01*
X107057619Y-130773833D01*
X108057619Y-130773833D01*
X107057619Y-131773833D02*
X107057619Y-131202404D01*
X107057619Y-131488119D02*
X108057619Y-131488119D01*
X107914761Y-131392880D01*
X107819523Y-131297642D01*
X107771904Y-131202404D01*
X154152857Y-107526214D02*
X154105238Y-107478595D01*
X154057619Y-107335738D01*
X154057619Y-107240500D01*
X154105238Y-107097642D01*
X154200476Y-107002404D01*
X154295714Y-106954785D01*
X154486190Y-106907166D01*
X154629047Y-106907166D01*
X154819523Y-106954785D01*
X154914761Y-107002404D01*
X155010000Y-107097642D01*
X155057619Y-107240500D01*
X155057619Y-107335738D01*
X155010000Y-107478595D01*
X154962380Y-107526214D01*
X155057619Y-108145261D02*
X155057619Y-108335738D01*
X155010000Y-108430976D01*
X154914761Y-108526214D01*
X154724285Y-108573833D01*
X154390952Y-108573833D01*
X154200476Y-108526214D01*
X154105238Y-108430976D01*
X154057619Y-108335738D01*
X154057619Y-108145261D01*
X154105238Y-108050023D01*
X154200476Y-107954785D01*
X154390952Y-107907166D01*
X154724285Y-107907166D01*
X154914761Y-107954785D01*
X155010000Y-108050023D01*
X155057619Y-108145261D01*
X154057619Y-109002404D02*
X155057619Y-109002404D01*
X154057619Y-109573833D01*
X155057619Y-109573833D01*
X154057619Y-110573833D02*
X154057619Y-110002404D01*
X154057619Y-110288119D02*
X155057619Y-110288119D01*
X154914761Y-110192880D01*
X154819523Y-110097642D01*
X154771904Y-110002404D01*
X142232857Y-107653214D02*
X142185238Y-107605595D01*
X142137619Y-107462738D01*
X142137619Y-107367500D01*
X142185238Y-107224642D01*
X142280476Y-107129404D01*
X142375714Y-107081785D01*
X142566190Y-107034166D01*
X142709047Y-107034166D01*
X142899523Y-107081785D01*
X142994761Y-107129404D01*
X143090000Y-107224642D01*
X143137619Y-107367500D01*
X143137619Y-107462738D01*
X143090000Y-107605595D01*
X143042380Y-107653214D01*
X143137619Y-108272261D02*
X143137619Y-108462738D01*
X143090000Y-108557976D01*
X142994761Y-108653214D01*
X142804285Y-108700833D01*
X142470952Y-108700833D01*
X142280476Y-108653214D01*
X142185238Y-108557976D01*
X142137619Y-108462738D01*
X142137619Y-108272261D01*
X142185238Y-108177023D01*
X142280476Y-108081785D01*
X142470952Y-108034166D01*
X142804285Y-108034166D01*
X142994761Y-108081785D01*
X143090000Y-108177023D01*
X143137619Y-108272261D01*
X142137619Y-109129404D02*
X143137619Y-109129404D01*
X142137619Y-109700833D01*
X143137619Y-109700833D01*
X142137619Y-110700833D02*
X142137619Y-110129404D01*
X142137619Y-110415119D02*
X143137619Y-110415119D01*
X142994761Y-110319880D01*
X142899523Y-110224642D01*
X142851904Y-110129404D01*
X142232857Y-128853214D02*
X142185238Y-128805595D01*
X142137619Y-128662738D01*
X142137619Y-128567500D01*
X142185238Y-128424642D01*
X142280476Y-128329404D01*
X142375714Y-128281785D01*
X142566190Y-128234166D01*
X142709047Y-128234166D01*
X142899523Y-128281785D01*
X142994761Y-128329404D01*
X143090000Y-128424642D01*
X143137619Y-128567500D01*
X143137619Y-128662738D01*
X143090000Y-128805595D01*
X143042380Y-128853214D01*
X143137619Y-129472261D02*
X143137619Y-129662738D01*
X143090000Y-129757976D01*
X142994761Y-129853214D01*
X142804285Y-129900833D01*
X142470952Y-129900833D01*
X142280476Y-129853214D01*
X142185238Y-129757976D01*
X142137619Y-129662738D01*
X142137619Y-129472261D01*
X142185238Y-129377023D01*
X142280476Y-129281785D01*
X142470952Y-129234166D01*
X142804285Y-129234166D01*
X142994761Y-129281785D01*
X143090000Y-129377023D01*
X143137619Y-129472261D01*
X142137619Y-130329404D02*
X143137619Y-130329404D01*
X142137619Y-130900833D01*
X143137619Y-130900833D01*
X142137619Y-131900833D02*
X142137619Y-131329404D01*
X142137619Y-131615119D02*
X143137619Y-131615119D01*
X142994761Y-131519880D01*
X142899523Y-131424642D01*
X142851904Y-131329404D01*
X154152857Y-128726214D02*
X154105238Y-128678595D01*
X154057619Y-128535738D01*
X154057619Y-128440500D01*
X154105238Y-128297642D01*
X154200476Y-128202404D01*
X154295714Y-128154785D01*
X154486190Y-128107166D01*
X154629047Y-128107166D01*
X154819523Y-128154785D01*
X154914761Y-128202404D01*
X155010000Y-128297642D01*
X155057619Y-128440500D01*
X155057619Y-128535738D01*
X155010000Y-128678595D01*
X154962380Y-128726214D01*
X155057619Y-129345261D02*
X155057619Y-129535738D01*
X155010000Y-129630976D01*
X154914761Y-129726214D01*
X154724285Y-129773833D01*
X154390952Y-129773833D01*
X154200476Y-129726214D01*
X154105238Y-129630976D01*
X154057619Y-129535738D01*
X154057619Y-129345261D01*
X154105238Y-129250023D01*
X154200476Y-129154785D01*
X154390952Y-129107166D01*
X154724285Y-129107166D01*
X154914761Y-129154785D01*
X155010000Y-129250023D01*
X155057619Y-129345261D01*
X154057619Y-130202404D02*
X155057619Y-130202404D01*
X154057619Y-130773833D01*
X155057619Y-130773833D01*
X154057619Y-131773833D02*
X154057619Y-131202404D01*
X154057619Y-131488119D02*
X155057619Y-131488119D01*
X154914761Y-131392880D01*
X154819523Y-131297642D01*
X154771904Y-131202404D01*
X142232857Y-65253214D02*
X142185238Y-65205595D01*
X142137619Y-65062738D01*
X142137619Y-64967500D01*
X142185238Y-64824642D01*
X142280476Y-64729404D01*
X142375714Y-64681785D01*
X142566190Y-64634166D01*
X142709047Y-64634166D01*
X142899523Y-64681785D01*
X142994761Y-64729404D01*
X143090000Y-64824642D01*
X143137619Y-64967500D01*
X143137619Y-65062738D01*
X143090000Y-65205595D01*
X143042380Y-65253214D01*
X143137619Y-65872261D02*
X143137619Y-66062738D01*
X143090000Y-66157976D01*
X142994761Y-66253214D01*
X142804285Y-66300833D01*
X142470952Y-66300833D01*
X142280476Y-66253214D01*
X142185238Y-66157976D01*
X142137619Y-66062738D01*
X142137619Y-65872261D01*
X142185238Y-65777023D01*
X142280476Y-65681785D01*
X142470952Y-65634166D01*
X142804285Y-65634166D01*
X142994761Y-65681785D01*
X143090000Y-65777023D01*
X143137619Y-65872261D01*
X142137619Y-66729404D02*
X143137619Y-66729404D01*
X142137619Y-67300833D01*
X143137619Y-67300833D01*
X142137619Y-68300833D02*
X142137619Y-67729404D01*
X142137619Y-68015119D02*
X143137619Y-68015119D01*
X142994761Y-67919880D01*
X142899523Y-67824642D01*
X142851904Y-67729404D01*
X154152857Y-65126214D02*
X154105238Y-65078595D01*
X154057619Y-64935738D01*
X154057619Y-64840500D01*
X154105238Y-64697642D01*
X154200476Y-64602404D01*
X154295714Y-64554785D01*
X154486190Y-64507166D01*
X154629047Y-64507166D01*
X154819523Y-64554785D01*
X154914761Y-64602404D01*
X155010000Y-64697642D01*
X155057619Y-64840500D01*
X155057619Y-64935738D01*
X155010000Y-65078595D01*
X154962380Y-65126214D01*
X155057619Y-65745261D02*
X155057619Y-65935738D01*
X155010000Y-66030976D01*
X154914761Y-66126214D01*
X154724285Y-66173833D01*
X154390952Y-66173833D01*
X154200476Y-66126214D01*
X154105238Y-66030976D01*
X154057619Y-65935738D01*
X154057619Y-65745261D01*
X154105238Y-65650023D01*
X154200476Y-65554785D01*
X154390952Y-65507166D01*
X154724285Y-65507166D01*
X154914761Y-65554785D01*
X155010000Y-65650023D01*
X155057619Y-65745261D01*
X154057619Y-66602404D02*
X155057619Y-66602404D01*
X154057619Y-67173833D01*
X155057619Y-67173833D01*
X154057619Y-68173833D02*
X154057619Y-67602404D01*
X154057619Y-67888119D02*
X155057619Y-67888119D01*
X154914761Y-67792880D01*
X154819523Y-67697642D01*
X154771904Y-67602404D01*
X154152857Y-86326214D02*
X154105238Y-86278595D01*
X154057619Y-86135738D01*
X154057619Y-86040500D01*
X154105238Y-85897642D01*
X154200476Y-85802404D01*
X154295714Y-85754785D01*
X154486190Y-85707166D01*
X154629047Y-85707166D01*
X154819523Y-85754785D01*
X154914761Y-85802404D01*
X155010000Y-85897642D01*
X155057619Y-86040500D01*
X155057619Y-86135738D01*
X155010000Y-86278595D01*
X154962380Y-86326214D01*
X155057619Y-86945261D02*
X155057619Y-87135738D01*
X155010000Y-87230976D01*
X154914761Y-87326214D01*
X154724285Y-87373833D01*
X154390952Y-87373833D01*
X154200476Y-87326214D01*
X154105238Y-87230976D01*
X154057619Y-87135738D01*
X154057619Y-86945261D01*
X154105238Y-86850023D01*
X154200476Y-86754785D01*
X154390952Y-86707166D01*
X154724285Y-86707166D01*
X154914761Y-86754785D01*
X155010000Y-86850023D01*
X155057619Y-86945261D01*
X154057619Y-87802404D02*
X155057619Y-87802404D01*
X154057619Y-88373833D01*
X155057619Y-88373833D01*
X154057619Y-89373833D02*
X154057619Y-88802404D01*
X154057619Y-89088119D02*
X155057619Y-89088119D01*
X154914761Y-88992880D01*
X154819523Y-88897642D01*
X154771904Y-88802404D01*
X142232857Y-86453214D02*
X142185238Y-86405595D01*
X142137619Y-86262738D01*
X142137619Y-86167500D01*
X142185238Y-86024642D01*
X142280476Y-85929404D01*
X142375714Y-85881785D01*
X142566190Y-85834166D01*
X142709047Y-85834166D01*
X142899523Y-85881785D01*
X142994761Y-85929404D01*
X143090000Y-86024642D01*
X143137619Y-86167500D01*
X143137619Y-86262738D01*
X143090000Y-86405595D01*
X143042380Y-86453214D01*
X143137619Y-87072261D02*
X143137619Y-87262738D01*
X143090000Y-87357976D01*
X142994761Y-87453214D01*
X142804285Y-87500833D01*
X142470952Y-87500833D01*
X142280476Y-87453214D01*
X142185238Y-87357976D01*
X142137619Y-87262738D01*
X142137619Y-87072261D01*
X142185238Y-86977023D01*
X142280476Y-86881785D01*
X142470952Y-86834166D01*
X142804285Y-86834166D01*
X142994761Y-86881785D01*
X143090000Y-86977023D01*
X143137619Y-87072261D01*
X142137619Y-87929404D02*
X143137619Y-87929404D01*
X142137619Y-88500833D01*
X143137619Y-88500833D01*
X142137619Y-89500833D02*
X142137619Y-88929404D01*
X142137619Y-89215119D02*
X143137619Y-89215119D01*
X142994761Y-89119880D01*
X142899523Y-89024642D01*
X142851904Y-88929404D01*
X107152857Y-65126214D02*
X107105238Y-65078595D01*
X107057619Y-64935738D01*
X107057619Y-64840500D01*
X107105238Y-64697642D01*
X107200476Y-64602404D01*
X107295714Y-64554785D01*
X107486190Y-64507166D01*
X107629047Y-64507166D01*
X107819523Y-64554785D01*
X107914761Y-64602404D01*
X108010000Y-64697642D01*
X108057619Y-64840500D01*
X108057619Y-64935738D01*
X108010000Y-65078595D01*
X107962380Y-65126214D01*
X108057619Y-65745261D02*
X108057619Y-65935738D01*
X108010000Y-66030976D01*
X107914761Y-66126214D01*
X107724285Y-66173833D01*
X107390952Y-66173833D01*
X107200476Y-66126214D01*
X107105238Y-66030976D01*
X107057619Y-65935738D01*
X107057619Y-65745261D01*
X107105238Y-65650023D01*
X107200476Y-65554785D01*
X107390952Y-65507166D01*
X107724285Y-65507166D01*
X107914761Y-65554785D01*
X108010000Y-65650023D01*
X108057619Y-65745261D01*
X107057619Y-66602404D02*
X108057619Y-66602404D01*
X107057619Y-67173833D01*
X108057619Y-67173833D01*
X107057619Y-68173833D02*
X107057619Y-67602404D01*
X107057619Y-67888119D02*
X108057619Y-67888119D01*
X107914761Y-67792880D01*
X107819523Y-67697642D01*
X107771904Y-67602404D01*
X95232857Y-65253214D02*
X95185238Y-65205595D01*
X95137619Y-65062738D01*
X95137619Y-64967500D01*
X95185238Y-64824642D01*
X95280476Y-64729404D01*
X95375714Y-64681785D01*
X95566190Y-64634166D01*
X95709047Y-64634166D01*
X95899523Y-64681785D01*
X95994761Y-64729404D01*
X96090000Y-64824642D01*
X96137619Y-64967500D01*
X96137619Y-65062738D01*
X96090000Y-65205595D01*
X96042380Y-65253214D01*
X96137619Y-65872261D02*
X96137619Y-66062738D01*
X96090000Y-66157976D01*
X95994761Y-66253214D01*
X95804285Y-66300833D01*
X95470952Y-66300833D01*
X95280476Y-66253214D01*
X95185238Y-66157976D01*
X95137619Y-66062738D01*
X95137619Y-65872261D01*
X95185238Y-65777023D01*
X95280476Y-65681785D01*
X95470952Y-65634166D01*
X95804285Y-65634166D01*
X95994761Y-65681785D01*
X96090000Y-65777023D01*
X96137619Y-65872261D01*
X95137619Y-66729404D02*
X96137619Y-66729404D01*
X95137619Y-67300833D01*
X96137619Y-67300833D01*
X95137619Y-68300833D02*
X95137619Y-67729404D01*
X95137619Y-68015119D02*
X96137619Y-68015119D01*
X95994761Y-67919880D01*
X95899523Y-67824642D01*
X95851904Y-67729404D01*
X95232857Y-86453214D02*
X95185238Y-86405595D01*
X95137619Y-86262738D01*
X95137619Y-86167500D01*
X95185238Y-86024642D01*
X95280476Y-85929404D01*
X95375714Y-85881785D01*
X95566190Y-85834166D01*
X95709047Y-85834166D01*
X95899523Y-85881785D01*
X95994761Y-85929404D01*
X96090000Y-86024642D01*
X96137619Y-86167500D01*
X96137619Y-86262738D01*
X96090000Y-86405595D01*
X96042380Y-86453214D01*
X96137619Y-87072261D02*
X96137619Y-87262738D01*
X96090000Y-87357976D01*
X95994761Y-87453214D01*
X95804285Y-87500833D01*
X95470952Y-87500833D01*
X95280476Y-87453214D01*
X95185238Y-87357976D01*
X95137619Y-87262738D01*
X95137619Y-87072261D01*
X95185238Y-86977023D01*
X95280476Y-86881785D01*
X95470952Y-86834166D01*
X95804285Y-86834166D01*
X95994761Y-86881785D01*
X96090000Y-86977023D01*
X96137619Y-87072261D01*
X95137619Y-87929404D02*
X96137619Y-87929404D01*
X95137619Y-88500833D01*
X96137619Y-88500833D01*
X95137619Y-89500833D02*
X95137619Y-88929404D01*
X95137619Y-89215119D02*
X96137619Y-89215119D01*
X95994761Y-89119880D01*
X95899523Y-89024642D01*
X95851904Y-88929404D01*
X107152857Y-86326214D02*
X107105238Y-86278595D01*
X107057619Y-86135738D01*
X107057619Y-86040500D01*
X107105238Y-85897642D01*
X107200476Y-85802404D01*
X107295714Y-85754785D01*
X107486190Y-85707166D01*
X107629047Y-85707166D01*
X107819523Y-85754785D01*
X107914761Y-85802404D01*
X108010000Y-85897642D01*
X108057619Y-86040500D01*
X108057619Y-86135738D01*
X108010000Y-86278595D01*
X107962380Y-86326214D01*
X108057619Y-86945261D02*
X108057619Y-87135738D01*
X108010000Y-87230976D01*
X107914761Y-87326214D01*
X107724285Y-87373833D01*
X107390952Y-87373833D01*
X107200476Y-87326214D01*
X107105238Y-87230976D01*
X107057619Y-87135738D01*
X107057619Y-86945261D01*
X107105238Y-86850023D01*
X107200476Y-86754785D01*
X107390952Y-86707166D01*
X107724285Y-86707166D01*
X107914761Y-86754785D01*
X108010000Y-86850023D01*
X108057619Y-86945261D01*
X107057619Y-87802404D02*
X108057619Y-87802404D01*
X107057619Y-88373833D01*
X108057619Y-88373833D01*
X107057619Y-89373833D02*
X107057619Y-88802404D01*
X107057619Y-89088119D02*
X108057619Y-89088119D01*
X107914761Y-88992880D01*
X107819523Y-88897642D01*
X107771904Y-88802404D01*
M02*
