M48
; DRILL file {KiCad (5.1.0)-1} date 6/8/2019 6:11:28 PM
; FORMAT={-:-/ absolute / inch / decimal}
; #@! TF.CreationDate,2019-06-08T18:11:28-04:00
; #@! TF.GenerationSoftware,Kicad,Pcbnew,(5.1.0)-1
FMAT,2
INCH
T1C0.0120
T2C0.0315
T3C0.0472
%
G90
G05
T1
X3.4862Y-2.3387
X3.4862Y-2.4765
X3.4862Y-2.6143
X3.4862Y-2.7521
X3.4862Y-2.8899
X3.4862Y-3.1734
X3.4862Y-3.3112
X3.4862Y-3.449
X3.4862Y-3.5868
X3.4862Y-3.7246
X3.4862Y-4.008
X3.4862Y-4.1458
X3.4862Y-4.2836
X3.4862Y-4.4214
X3.4862Y-4.5592
X3.4862Y-4.8427
X3.4862Y-4.9805
X3.4862Y-5.1183
X3.4862Y-5.2561
X3.4862Y-5.3939
X4.5098Y-2.3387
X4.5098Y-2.4765
X4.5098Y-2.6143
X4.5098Y-2.7521
X4.5098Y-2.8899
X4.5098Y-3.1734
X4.5098Y-3.3112
X4.5098Y-3.449
X4.5098Y-3.5868
X4.5098Y-3.7246
X4.5098Y-4.008
X4.5098Y-4.1458
X4.5098Y-4.2836
X4.5098Y-4.4214
X4.5098Y-4.5592
X4.5098Y-4.8427
X4.5098Y-4.9805
X4.5098Y-5.1183
X4.5098Y-5.2561
X4.5098Y-5.3939
X5.3366Y-2.3387
X5.3366Y-2.4765
X5.3366Y-2.6143
X5.3366Y-2.7521
X5.3366Y-2.8899
X5.3366Y-3.1734
X5.3366Y-3.3112
X5.3366Y-3.449
X5.3366Y-3.5868
X5.3366Y-3.7246
X5.3366Y-4.008
X5.3366Y-4.1458
X5.3366Y-4.2836
X5.3366Y-4.4214
X5.3366Y-4.5592
X5.3366Y-4.8427
X5.3366Y-4.9805
X5.3366Y-5.1183
X5.3366Y-5.2561
X5.3366Y-5.3939
X6.3602Y-2.3387
X6.3602Y-2.4765
X6.3602Y-2.6143
X6.3602Y-2.7521
X6.3602Y-2.8899
X6.3602Y-3.1734
X6.3602Y-3.3112
X6.3602Y-3.449
X6.3602Y-3.5868
X6.3602Y-3.7246
X6.3602Y-4.008
X6.3602Y-4.1458
X6.3602Y-4.2836
X6.3602Y-4.4214
X6.3602Y-4.5592
X6.3602Y-4.8427
X6.3602Y-4.9805
X6.3602Y-5.1183
X6.3602Y-5.2561
X6.3602Y-5.3939
T3
X5.8878Y-3.2521
X5.8878Y-3.6458
X5.9862Y-3.2521
X5.9862Y-3.6458
X6.1831Y-3.449
X4.0374Y-2.4175
X4.0374Y-2.8112
X4.1358Y-2.4175
X4.1358Y-2.8112
X4.3327Y-2.6143
X5.5138Y-2.6143
X5.7106Y-2.4175
X5.7106Y-2.8112
X5.8091Y-2.4175
X5.8091Y-2.8112
X5.5138Y-3.449
X5.7106Y-3.2521
X5.7106Y-3.6458
X5.8091Y-3.2521
X5.8091Y-3.6458
X5.5138Y-4.2836
X5.7106Y-4.0868
X5.7106Y-4.4805
X5.8091Y-4.0868
X5.8091Y-4.4805
X3.6634Y-5.1183
X3.8602Y-4.9214
X3.8602Y-5.3151
X3.9587Y-4.9214
X3.9587Y-5.3151
X4.0374Y-4.9214
X4.0374Y-5.3151
X4.1358Y-4.9214
X4.1358Y-5.3151
X4.3327Y-5.1183
X3.6634Y-3.449
X3.8602Y-3.2521
X3.8602Y-3.6458
X3.9587Y-3.2521
X3.9587Y-3.6458
X5.8878Y-4.9214
X5.8878Y-5.3151
X5.9862Y-4.9214
X5.9862Y-5.3151
X6.1831Y-5.1183
X3.6634Y-4.2836
X3.8602Y-4.0868
X3.8602Y-4.4805
X3.9587Y-4.0868
X3.9587Y-4.4805
X5.8878Y-2.4175
X5.8878Y-2.8112
X5.9862Y-2.4175
X5.9862Y-2.8112
X6.1831Y-2.6143
X5.8878Y-4.0868
X5.8878Y-4.4805
X5.9862Y-4.0868
X5.9862Y-4.4805
X6.1831Y-4.2836
X3.6634Y-2.6143
X3.8602Y-2.4175
X3.8602Y-2.8112
X3.9587Y-2.4175
X3.9587Y-2.8112
X5.5138Y-5.1183
X5.7106Y-4.9214
X5.7106Y-5.3151
X5.8091Y-4.9214
X5.8091Y-5.3151
X4.0374Y-3.2521
X4.0374Y-3.6458
X4.1358Y-3.2521
X4.1358Y-3.6458
X4.3327Y-3.449
X4.0374Y-4.0868
X4.0374Y-4.4805
X4.1358Y-4.0868
X4.1358Y-4.4805
X4.3327Y-4.2836
T2
G00X3.6772Y-4.9214
M15
G01X3.6496Y-4.9214
M16
G05
G00X3.6772Y-5.0198
M15
G01X3.6496Y-5.0198
M16
G05
G00X3.6772Y-5.2167
M15
G01X3.6496Y-5.2167
M16
G05
G00X3.6772Y-5.3151
M15
G01X3.6496Y-5.3151
M16
G05
G00X3.8602Y-5.132
M15
G01X3.8602Y-5.1045
M16
G05
G00X4.1358Y-5.1045
M15
G01X4.1358Y-5.132
M16
G05
G00X4.3189Y-4.9214
M15
G01X4.3465Y-4.9214
M16
G05
G00X4.3189Y-5.0198
M15
G01X4.3465Y-5.0198
M16
G05
G00X4.3189Y-5.2167
M15
G01X4.3465Y-5.2167
M16
G05
G00X4.3189Y-5.3151
M15
G01X4.3465Y-5.3151
M16
G05
G00X3.6772Y-3.2521
M15
G01X3.6496Y-3.2521
M16
G05
G00X3.6772Y-3.3506
M15
G01X3.6496Y-3.3506
M16
G05
G00X3.6772Y-3.5474
M15
G01X3.6496Y-3.5474
M16
G05
G00X3.6772Y-3.6458
M15
G01X3.6496Y-3.6458
M16
G05
G00X3.8602Y-3.4628
M15
G01X3.8602Y-3.4352
M16
G05
G00X5.9862Y-5.1045
M15
G01X5.9862Y-5.132
M16
G05
G00X6.1693Y-4.9214
M15
G01X6.1969Y-4.9214
M16
G05
G00X6.1693Y-5.0198
M15
G01X6.1969Y-5.0198
M16
G05
G00X6.1693Y-5.2167
M15
G01X6.1969Y-5.2167
M16
G05
G00X6.1693Y-5.3151
M15
G01X6.1969Y-5.3151
M16
G05
G00X3.6772Y-4.0868
M15
G01X3.6496Y-4.0868
M16
G05
G00X3.6772Y-4.1852
M15
G01X3.6496Y-4.1852
M16
G05
G00X3.6772Y-4.382
M15
G01X3.6496Y-4.382
M16
G05
G00X3.6772Y-4.4805
M15
G01X3.6496Y-4.4805
M16
G05
G00X3.8602Y-4.2974
M15
G01X3.8602Y-4.2698
M16
G05
G00X5.9862Y-2.6006
M15
G01X5.9862Y-2.6281
M16
G05
G00X6.1693Y-2.4175
M15
G01X6.1969Y-2.4175
M16
G05
G00X6.1693Y-2.5159
M15
G01X6.1969Y-2.5159
M16
G05
G00X6.1693Y-2.7128
M15
G01X6.1969Y-2.7128
M16
G05
G00X6.1693Y-2.8112
M15
G01X6.1969Y-2.8112
M16
G05
G00X5.9862Y-4.2698
M15
G01X5.9862Y-4.2974
M16
G05
G00X6.1693Y-4.0868
M15
G01X6.1969Y-4.0868
M16
G05
G00X6.1693Y-4.1852
M15
G01X6.1969Y-4.1852
M16
G05
G00X6.1693Y-4.382
M15
G01X6.1969Y-4.382
M16
G05
G00X6.1693Y-4.4805
M15
G01X6.1969Y-4.4805
M16
G05
G00X3.6772Y-2.4175
M15
G01X3.6496Y-2.4175
M16
G05
G00X3.6772Y-2.5159
M15
G01X3.6496Y-2.5159
M16
G05
G00X3.6772Y-2.7128
M15
G01X3.6496Y-2.7128
M16
G05
G00X3.6772Y-2.8112
M15
G01X3.6496Y-2.8112
M16
G05
G00X3.8602Y-2.6281
M15
G01X3.8602Y-2.6006
M16
G05
G00X5.5276Y-4.9214
M15
G01X5.5Y-4.9214
M16
G05
G00X5.5276Y-5.0198
M15
G01X5.5Y-5.0198
M16
G05
G00X5.5276Y-5.2167
M15
G01X5.5Y-5.2167
M16
G05
G00X5.5276Y-5.3151
M15
G01X5.5Y-5.3151
M16
G05
G00X5.7106Y-5.132
M15
G01X5.7106Y-5.1045
M16
G05
G00X4.1358Y-3.4352
M15
G01X4.1358Y-3.4628
M16
G05
G00X4.3189Y-3.2521
M15
G01X4.3465Y-3.2521
M16
G05
G00X4.3189Y-3.3506
M15
G01X4.3465Y-3.3506
M16
G05
G00X4.3189Y-3.5474
M15
G01X4.3465Y-3.5474
M16
G05
G00X4.3189Y-3.6458
M15
G01X4.3465Y-3.6458
M16
G05
G00X4.1358Y-4.2698
M15
G01X4.1358Y-4.2974
M16
G05
G00X4.3189Y-4.0868
M15
G01X4.3465Y-4.0868
M16
G05
G00X4.3189Y-4.1852
M15
G01X4.3465Y-4.1852
M16
G05
G00X4.3189Y-4.382
M15
G01X4.3465Y-4.382
M16
G05
G00X4.3189Y-4.4805
M15
G01X4.3465Y-4.4805
M16
G05
G00X5.9862Y-3.4352
M15
G01X5.9862Y-3.4628
M16
G05
G00X6.1693Y-3.2521
M15
G01X6.1969Y-3.2521
M16
G05
G00X6.1693Y-3.3506
M15
G01X6.1969Y-3.3506
M16
G05
G00X6.1693Y-3.5474
M15
G01X6.1969Y-3.5474
M16
G05
G00X6.1693Y-3.6458
M15
G01X6.1969Y-3.6458
M16
G05
G00X4.1358Y-2.6006
M15
G01X4.1358Y-2.6281
M16
G05
G00X4.3189Y-2.4175
M15
G01X4.3465Y-2.4175
M16
G05
G00X4.3189Y-2.5159
M15
G01X4.3465Y-2.5159
M16
G05
G00X4.3189Y-2.7128
M15
G01X4.3465Y-2.7128
M16
G05
G00X4.3189Y-2.8112
M15
G01X4.3465Y-2.8112
M16
G05
G00X5.5276Y-2.4175
M15
G01X5.5Y-2.4175
M16
G05
G00X5.5276Y-2.5159
M15
G01X5.5Y-2.5159
M16
G05
G00X5.5276Y-2.7128
M15
G01X5.5Y-2.7128
M16
G05
G00X5.5276Y-2.8112
M15
G01X5.5Y-2.8112
M16
G05
G00X5.7106Y-2.6281
M15
G01X5.7106Y-2.6006
M16
G05
G00X5.5276Y-3.2521
M15
G01X5.5Y-3.2521
M16
G05
G00X5.5276Y-3.3506
M15
G01X5.5Y-3.3506
M16
G05
G00X5.5276Y-3.5474
M15
G01X5.5Y-3.5474
M16
G05
G00X5.5276Y-3.6458
M15
G01X5.5Y-3.6458
M16
G05
G00X5.7106Y-3.4628
M15
G01X5.7106Y-3.4352
M16
G05
G00X5.5276Y-4.0868
M15
G01X5.5Y-4.0868
M16
G05
G00X5.5276Y-4.1852
M15
G01X5.5Y-4.1852
M16
G05
G00X5.5276Y-4.382
M15
G01X5.5Y-4.382
M16
G05
G00X5.5276Y-4.4805
M15
G01X5.5Y-4.4805
M16
G05
G00X5.7106Y-4.2974
M15
G01X5.7106Y-4.2698
M16
G05
T0
M30
