G04 #@! TF.GenerationSoftware,KiCad,Pcbnew,(5.1.0)-1*
G04 #@! TF.CreationDate,2019-06-08T18:11:25-04:00*
G04 #@! TF.ProjectId,input+output,696e7075-742b-46f7-9574-7075742e6b69,0.1*
G04 #@! TF.SameCoordinates,Original*
G04 #@! TF.FileFunction,Soldermask,Bot*
G04 #@! TF.FilePolarity,Negative*
%FSLAX46Y46*%
G04 Gerber Fmt 4.6, Leading zero omitted, Abs format (unit mm)*
G04 Created by KiCad (PCBNEW (5.1.0)-1) date 2019-06-08 18:11:25*
%MOMM*%
%LPD*%
G04 APERTURE LIST*
%ADD10R,2.900000X2.200000*%
%ADD11R,2.200000X2.900000*%
%ADD12C,1.600000*%
%ADD13C,0.254000*%
G04 APERTURE END LIST*
D10*
X93050000Y-135004000D03*
X93050000Y-125004000D03*
D11*
X98050000Y-130004000D03*
D12*
X93050000Y-130004000D03*
X98050000Y-135004000D03*
X100550000Y-135004000D03*
X98050000Y-125004000D03*
X100550000Y-125004000D03*
D10*
X93050000Y-132504000D03*
X93050000Y-127504000D03*
X93050000Y-106304000D03*
X93050000Y-111304000D03*
D12*
X100550000Y-103804000D03*
X98050000Y-103804000D03*
X100550000Y-113804000D03*
X98050000Y-113804000D03*
X93050000Y-108804000D03*
D11*
X98050000Y-108804000D03*
D10*
X93050000Y-103804000D03*
X93050000Y-113804000D03*
X110050000Y-103804000D03*
X110050000Y-113804000D03*
D11*
X105050000Y-108804000D03*
D12*
X110050000Y-108804000D03*
X105050000Y-103804000D03*
X102550000Y-103804000D03*
X105050000Y-113804000D03*
X102550000Y-113804000D03*
D10*
X110050000Y-106304000D03*
X110050000Y-111304000D03*
X110050000Y-132504000D03*
X110050000Y-127504000D03*
D12*
X102550000Y-135004000D03*
X105050000Y-135004000D03*
X102550000Y-125004000D03*
X105050000Y-125004000D03*
X110050000Y-130004000D03*
D11*
X105050000Y-130004000D03*
D10*
X110050000Y-135004000D03*
X110050000Y-125004000D03*
X157050000Y-111304000D03*
X157050000Y-106304000D03*
D12*
X149550000Y-113804000D03*
X152050000Y-113804000D03*
X149550000Y-103804000D03*
X152050000Y-103804000D03*
X157050000Y-108804000D03*
D11*
X152050000Y-108804000D03*
D10*
X157050000Y-113804000D03*
X157050000Y-103804000D03*
X140050000Y-113804000D03*
X140050000Y-103804000D03*
D11*
X145050000Y-108804000D03*
D12*
X140050000Y-108804000D03*
X145050000Y-113804000D03*
X147550000Y-113804000D03*
X145050000Y-103804000D03*
X147550000Y-103804000D03*
D10*
X140050000Y-111304000D03*
X140050000Y-106304000D03*
X140050000Y-127504000D03*
X140050000Y-132504000D03*
D12*
X147550000Y-125004000D03*
X145050000Y-125004000D03*
X147550000Y-135004000D03*
X145050000Y-135004000D03*
X140050000Y-130004000D03*
D11*
X145050000Y-130004000D03*
D10*
X140050000Y-125004000D03*
X140050000Y-135004000D03*
X157050000Y-125004000D03*
X157050000Y-135004000D03*
D11*
X152050000Y-130004000D03*
D12*
X157050000Y-130004000D03*
X152050000Y-125004000D03*
X149550000Y-125004000D03*
X152050000Y-135004000D03*
X149550000Y-135004000D03*
D10*
X157050000Y-127504000D03*
X157050000Y-132504000D03*
X140050000Y-63904000D03*
X140050000Y-68904000D03*
D12*
X147550000Y-61404000D03*
X145050000Y-61404000D03*
X147550000Y-71404000D03*
X145050000Y-71404000D03*
X140050000Y-66404000D03*
D11*
X145050000Y-66404000D03*
D10*
X140050000Y-61404000D03*
X140050000Y-71404000D03*
X157050000Y-61404000D03*
X157050000Y-71404000D03*
D11*
X152050000Y-66404000D03*
D12*
X157050000Y-66404000D03*
X152050000Y-61404000D03*
X149550000Y-61404000D03*
X152050000Y-71404000D03*
X149550000Y-71404000D03*
D10*
X157050000Y-63904000D03*
X157050000Y-68904000D03*
X157050000Y-90104000D03*
X157050000Y-85104000D03*
D12*
X149550000Y-92604000D03*
X152050000Y-92604000D03*
X149550000Y-82604000D03*
X152050000Y-82604000D03*
X157050000Y-87604000D03*
D11*
X152050000Y-87604000D03*
D10*
X157050000Y-92604000D03*
X157050000Y-82604000D03*
X140050000Y-92604000D03*
X140050000Y-82604000D03*
D11*
X145050000Y-87604000D03*
D12*
X140050000Y-87604000D03*
X145050000Y-92604000D03*
X147550000Y-92604000D03*
X145050000Y-82604000D03*
X147550000Y-82604000D03*
D10*
X140050000Y-90104000D03*
X140050000Y-85104000D03*
X110050000Y-68904000D03*
X110050000Y-63904000D03*
D12*
X102550000Y-71404000D03*
X105050000Y-71404000D03*
X102550000Y-61404000D03*
X105050000Y-61404000D03*
X110050000Y-66404000D03*
D11*
X105050000Y-66404000D03*
D10*
X110050000Y-71404000D03*
X110050000Y-61404000D03*
X93050000Y-71404000D03*
X93050000Y-61404000D03*
D11*
X98050000Y-66404000D03*
D12*
X93050000Y-66404000D03*
X98050000Y-71404000D03*
X100550000Y-71404000D03*
X98050000Y-61404000D03*
X100550000Y-61404000D03*
D10*
X93050000Y-68904000D03*
X93050000Y-63904000D03*
X93050000Y-85104000D03*
X93050000Y-90104000D03*
D12*
X100550000Y-82604000D03*
X98050000Y-82604000D03*
X100550000Y-92604000D03*
X98050000Y-92604000D03*
X93050000Y-87604000D03*
D11*
X98050000Y-87604000D03*
D10*
X93050000Y-82604000D03*
X93050000Y-92604000D03*
X110050000Y-82604000D03*
X110050000Y-92604000D03*
D11*
X105050000Y-87604000D03*
D12*
X110050000Y-87604000D03*
X105050000Y-82604000D03*
X102550000Y-82604000D03*
X105050000Y-92604000D03*
X102550000Y-92604000D03*
D10*
X110050000Y-85104000D03*
X110050000Y-90104000D03*
D13*
G36*
X87423000Y-81077000D02*
G01*
X82677000Y-81077000D01*
X82677000Y-80131000D01*
X87423000Y-80131000D01*
X87423000Y-81077000D01*
X87423000Y-81077000D01*
G37*
X87423000Y-81077000D02*
X82677000Y-81077000D01*
X82677000Y-80131000D01*
X87423000Y-80131000D01*
X87423000Y-81077000D01*
G36*
X120423000Y-84577000D02*
G01*
X115677000Y-84577000D01*
X115677000Y-83631000D01*
X120423000Y-83631000D01*
X120423000Y-84577000D01*
X120423000Y-84577000D01*
G37*
X120423000Y-84577000D02*
X115677000Y-84577000D01*
X115677000Y-83631000D01*
X120423000Y-83631000D01*
X120423000Y-84577000D01*
G36*
X120423000Y-91577000D02*
G01*
X115677000Y-91577000D01*
X115677000Y-90631000D01*
X120423000Y-90631000D01*
X120423000Y-91577000D01*
X120423000Y-91577000D01*
G37*
X120423000Y-91577000D02*
X115677000Y-91577000D01*
X115677000Y-90631000D01*
X120423000Y-90631000D01*
X120423000Y-91577000D01*
G36*
X87423000Y-95077000D02*
G01*
X82677000Y-95077000D01*
X82677000Y-94131000D01*
X87423000Y-94131000D01*
X87423000Y-95077000D01*
X87423000Y-95077000D01*
G37*
X87423000Y-95077000D02*
X82677000Y-95077000D01*
X82677000Y-94131000D01*
X87423000Y-94131000D01*
X87423000Y-95077000D01*
G36*
X87423000Y-88077000D02*
G01*
X82677000Y-88077000D01*
X82677000Y-87131000D01*
X87423000Y-87131000D01*
X87423000Y-88077000D01*
X87423000Y-88077000D01*
G37*
X87423000Y-88077000D02*
X82677000Y-88077000D01*
X82677000Y-87131000D01*
X87423000Y-87131000D01*
X87423000Y-88077000D01*
G36*
X120423000Y-81077000D02*
G01*
X115677000Y-81077000D01*
X115677000Y-80131000D01*
X120423000Y-80131000D01*
X120423000Y-81077000D01*
X120423000Y-81077000D01*
G37*
X120423000Y-81077000D02*
X115677000Y-81077000D01*
X115677000Y-80131000D01*
X120423000Y-80131000D01*
X120423000Y-81077000D01*
G36*
X87423000Y-84577000D02*
G01*
X82677000Y-84577000D01*
X82677000Y-83631000D01*
X87423000Y-83631000D01*
X87423000Y-84577000D01*
X87423000Y-84577000D01*
G37*
X87423000Y-84577000D02*
X82677000Y-84577000D01*
X82677000Y-83631000D01*
X87423000Y-83631000D01*
X87423000Y-84577000D01*
G36*
X120423000Y-95077000D02*
G01*
X115677000Y-95077000D01*
X115677000Y-94131000D01*
X120423000Y-94131000D01*
X120423000Y-95077000D01*
X120423000Y-95077000D01*
G37*
X120423000Y-95077000D02*
X115677000Y-95077000D01*
X115677000Y-94131000D01*
X120423000Y-94131000D01*
X120423000Y-95077000D01*
G36*
X120423000Y-88077000D02*
G01*
X115677000Y-88077000D01*
X115677000Y-87131000D01*
X120423000Y-87131000D01*
X120423000Y-88077000D01*
X120423000Y-88077000D01*
G37*
X120423000Y-88077000D02*
X115677000Y-88077000D01*
X115677000Y-87131000D01*
X120423000Y-87131000D01*
X120423000Y-88077000D01*
G36*
X87423000Y-91577000D02*
G01*
X82677000Y-91577000D01*
X82677000Y-90631000D01*
X87423000Y-90631000D01*
X87423000Y-91577000D01*
X87423000Y-91577000D01*
G37*
X87423000Y-91577000D02*
X82677000Y-91577000D01*
X82677000Y-90631000D01*
X87423000Y-90631000D01*
X87423000Y-91577000D01*
G36*
X87423000Y-63377000D02*
G01*
X82677000Y-63377000D01*
X82677000Y-62431000D01*
X87423000Y-62431000D01*
X87423000Y-63377000D01*
X87423000Y-63377000D01*
G37*
X87423000Y-63377000D02*
X82677000Y-63377000D01*
X82677000Y-62431000D01*
X87423000Y-62431000D01*
X87423000Y-63377000D01*
G36*
X87423000Y-70377000D02*
G01*
X82677000Y-70377000D01*
X82677000Y-69431000D01*
X87423000Y-69431000D01*
X87423000Y-70377000D01*
X87423000Y-70377000D01*
G37*
X87423000Y-70377000D02*
X82677000Y-70377000D01*
X82677000Y-69431000D01*
X87423000Y-69431000D01*
X87423000Y-70377000D01*
G36*
X87423000Y-73877000D02*
G01*
X82677000Y-73877000D01*
X82677000Y-72931000D01*
X87423000Y-72931000D01*
X87423000Y-73877000D01*
X87423000Y-73877000D01*
G37*
X87423000Y-73877000D02*
X82677000Y-73877000D01*
X82677000Y-72931000D01*
X87423000Y-72931000D01*
X87423000Y-73877000D01*
G36*
X87423000Y-59877000D02*
G01*
X82677000Y-59877000D01*
X82677000Y-58931000D01*
X87423000Y-58931000D01*
X87423000Y-59877000D01*
X87423000Y-59877000D01*
G37*
X87423000Y-59877000D02*
X82677000Y-59877000D01*
X82677000Y-58931000D01*
X87423000Y-58931000D01*
X87423000Y-59877000D01*
G36*
X87423000Y-66877000D02*
G01*
X82677000Y-66877000D01*
X82677000Y-65931000D01*
X87423000Y-65931000D01*
X87423000Y-66877000D01*
X87423000Y-66877000D01*
G37*
X87423000Y-66877000D02*
X82677000Y-66877000D01*
X82677000Y-65931000D01*
X87423000Y-65931000D01*
X87423000Y-66877000D01*
G36*
X120423000Y-59877000D02*
G01*
X115677000Y-59877000D01*
X115677000Y-58931000D01*
X120423000Y-58931000D01*
X120423000Y-59877000D01*
X120423000Y-59877000D01*
G37*
X120423000Y-59877000D02*
X115677000Y-59877000D01*
X115677000Y-58931000D01*
X120423000Y-58931000D01*
X120423000Y-59877000D01*
G36*
X120423000Y-73877000D02*
G01*
X115677000Y-73877000D01*
X115677000Y-72931000D01*
X120423000Y-72931000D01*
X120423000Y-73877000D01*
X120423000Y-73877000D01*
G37*
X120423000Y-73877000D02*
X115677000Y-73877000D01*
X115677000Y-72931000D01*
X120423000Y-72931000D01*
X120423000Y-73877000D01*
G36*
X120423000Y-70377000D02*
G01*
X115677000Y-70377000D01*
X115677000Y-69431000D01*
X120423000Y-69431000D01*
X120423000Y-70377000D01*
X120423000Y-70377000D01*
G37*
X120423000Y-70377000D02*
X115677000Y-70377000D01*
X115677000Y-69431000D01*
X120423000Y-69431000D01*
X120423000Y-70377000D01*
G36*
X120423000Y-66877000D02*
G01*
X115677000Y-66877000D01*
X115677000Y-65931000D01*
X120423000Y-65931000D01*
X120423000Y-66877000D01*
X120423000Y-66877000D01*
G37*
X120423000Y-66877000D02*
X115677000Y-66877000D01*
X115677000Y-65931000D01*
X120423000Y-65931000D01*
X120423000Y-66877000D01*
G36*
X120423000Y-63377000D02*
G01*
X115677000Y-63377000D01*
X115677000Y-62431000D01*
X120423000Y-62431000D01*
X120423000Y-63377000D01*
X120423000Y-63377000D01*
G37*
X120423000Y-63377000D02*
X115677000Y-63377000D01*
X115677000Y-62431000D01*
X120423000Y-62431000D01*
X120423000Y-63377000D01*
G36*
X134423000Y-63377000D02*
G01*
X129677000Y-63377000D01*
X129677000Y-62431000D01*
X134423000Y-62431000D01*
X134423000Y-63377000D01*
X134423000Y-63377000D01*
G37*
X134423000Y-63377000D02*
X129677000Y-63377000D01*
X129677000Y-62431000D01*
X134423000Y-62431000D01*
X134423000Y-63377000D01*
G36*
X134423000Y-59877000D02*
G01*
X129677000Y-59877000D01*
X129677000Y-58931000D01*
X134423000Y-58931000D01*
X134423000Y-59877000D01*
X134423000Y-59877000D01*
G37*
X134423000Y-59877000D02*
X129677000Y-59877000D01*
X129677000Y-58931000D01*
X134423000Y-58931000D01*
X134423000Y-59877000D01*
G36*
X167423000Y-59877000D02*
G01*
X162677000Y-59877000D01*
X162677000Y-58931000D01*
X167423000Y-58931000D01*
X167423000Y-59877000D01*
X167423000Y-59877000D01*
G37*
X167423000Y-59877000D02*
X162677000Y-59877000D01*
X162677000Y-58931000D01*
X167423000Y-58931000D01*
X167423000Y-59877000D01*
G36*
X167423000Y-73877000D02*
G01*
X162677000Y-73877000D01*
X162677000Y-72931000D01*
X167423000Y-72931000D01*
X167423000Y-73877000D01*
X167423000Y-73877000D01*
G37*
X167423000Y-73877000D02*
X162677000Y-73877000D01*
X162677000Y-72931000D01*
X167423000Y-72931000D01*
X167423000Y-73877000D01*
G36*
X134423000Y-73877000D02*
G01*
X129677000Y-73877000D01*
X129677000Y-72931000D01*
X134423000Y-72931000D01*
X134423000Y-73877000D01*
X134423000Y-73877000D01*
G37*
X134423000Y-73877000D02*
X129677000Y-73877000D01*
X129677000Y-72931000D01*
X134423000Y-72931000D01*
X134423000Y-73877000D01*
G36*
X134423000Y-66877000D02*
G01*
X129677000Y-66877000D01*
X129677000Y-65931000D01*
X134423000Y-65931000D01*
X134423000Y-66877000D01*
X134423000Y-66877000D01*
G37*
X134423000Y-66877000D02*
X129677000Y-66877000D01*
X129677000Y-65931000D01*
X134423000Y-65931000D01*
X134423000Y-66877000D01*
G36*
X134423000Y-70377000D02*
G01*
X129677000Y-70377000D01*
X129677000Y-69431000D01*
X134423000Y-69431000D01*
X134423000Y-70377000D01*
X134423000Y-70377000D01*
G37*
X134423000Y-70377000D02*
X129677000Y-70377000D01*
X129677000Y-69431000D01*
X134423000Y-69431000D01*
X134423000Y-70377000D01*
G36*
X167423000Y-66877000D02*
G01*
X162677000Y-66877000D01*
X162677000Y-65931000D01*
X167423000Y-65931000D01*
X167423000Y-66877000D01*
X167423000Y-66877000D01*
G37*
X167423000Y-66877000D02*
X162677000Y-66877000D01*
X162677000Y-65931000D01*
X167423000Y-65931000D01*
X167423000Y-66877000D01*
G36*
X167423000Y-63377000D02*
G01*
X162677000Y-63377000D01*
X162677000Y-62431000D01*
X167423000Y-62431000D01*
X167423000Y-63377000D01*
X167423000Y-63377000D01*
G37*
X167423000Y-63377000D02*
X162677000Y-63377000D01*
X162677000Y-62431000D01*
X167423000Y-62431000D01*
X167423000Y-63377000D01*
G36*
X167423000Y-70377000D02*
G01*
X162677000Y-70377000D01*
X162677000Y-69431000D01*
X167423000Y-69431000D01*
X167423000Y-70377000D01*
X167423000Y-70377000D01*
G37*
X167423000Y-70377000D02*
X162677000Y-70377000D01*
X162677000Y-69431000D01*
X167423000Y-69431000D01*
X167423000Y-70377000D01*
G36*
X167423000Y-91577000D02*
G01*
X162677000Y-91577000D01*
X162677000Y-90631000D01*
X167423000Y-90631000D01*
X167423000Y-91577000D01*
X167423000Y-91577000D01*
G37*
X167423000Y-91577000D02*
X162677000Y-91577000D01*
X162677000Y-90631000D01*
X167423000Y-90631000D01*
X167423000Y-91577000D01*
G36*
X134423000Y-84577000D02*
G01*
X129677000Y-84577000D01*
X129677000Y-83631000D01*
X134423000Y-83631000D01*
X134423000Y-84577000D01*
X134423000Y-84577000D01*
G37*
X134423000Y-84577000D02*
X129677000Y-84577000D01*
X129677000Y-83631000D01*
X134423000Y-83631000D01*
X134423000Y-84577000D01*
G36*
X167423000Y-95077000D02*
G01*
X162677000Y-95077000D01*
X162677000Y-94131000D01*
X167423000Y-94131000D01*
X167423000Y-95077000D01*
X167423000Y-95077000D01*
G37*
X167423000Y-95077000D02*
X162677000Y-95077000D01*
X162677000Y-94131000D01*
X167423000Y-94131000D01*
X167423000Y-95077000D01*
G36*
X134423000Y-88077000D02*
G01*
X129677000Y-88077000D01*
X129677000Y-87131000D01*
X134423000Y-87131000D01*
X134423000Y-88077000D01*
X134423000Y-88077000D01*
G37*
X134423000Y-88077000D02*
X129677000Y-88077000D01*
X129677000Y-87131000D01*
X134423000Y-87131000D01*
X134423000Y-88077000D01*
G36*
X167423000Y-88077000D02*
G01*
X162677000Y-88077000D01*
X162677000Y-87131000D01*
X167423000Y-87131000D01*
X167423000Y-88077000D01*
X167423000Y-88077000D01*
G37*
X167423000Y-88077000D02*
X162677000Y-88077000D01*
X162677000Y-87131000D01*
X167423000Y-87131000D01*
X167423000Y-88077000D01*
G36*
X167423000Y-84577000D02*
G01*
X162677000Y-84577000D01*
X162677000Y-83631000D01*
X167423000Y-83631000D01*
X167423000Y-84577000D01*
X167423000Y-84577000D01*
G37*
X167423000Y-84577000D02*
X162677000Y-84577000D01*
X162677000Y-83631000D01*
X167423000Y-83631000D01*
X167423000Y-84577000D01*
G36*
X134423000Y-91577000D02*
G01*
X129677000Y-91577000D01*
X129677000Y-90631000D01*
X134423000Y-90631000D01*
X134423000Y-91577000D01*
X134423000Y-91577000D01*
G37*
X134423000Y-91577000D02*
X129677000Y-91577000D01*
X129677000Y-90631000D01*
X134423000Y-90631000D01*
X134423000Y-91577000D01*
G36*
X167423000Y-81077000D02*
G01*
X162677000Y-81077000D01*
X162677000Y-80131000D01*
X167423000Y-80131000D01*
X167423000Y-81077000D01*
X167423000Y-81077000D01*
G37*
X167423000Y-81077000D02*
X162677000Y-81077000D01*
X162677000Y-80131000D01*
X167423000Y-80131000D01*
X167423000Y-81077000D01*
G36*
X134423000Y-81077000D02*
G01*
X129677000Y-81077000D01*
X129677000Y-80131000D01*
X134423000Y-80131000D01*
X134423000Y-81077000D01*
X134423000Y-81077000D01*
G37*
X134423000Y-81077000D02*
X129677000Y-81077000D01*
X129677000Y-80131000D01*
X134423000Y-80131000D01*
X134423000Y-81077000D01*
G36*
X134423000Y-95077000D02*
G01*
X129677000Y-95077000D01*
X129677000Y-94131000D01*
X134423000Y-94131000D01*
X134423000Y-95077000D01*
X134423000Y-95077000D01*
G37*
X134423000Y-95077000D02*
X129677000Y-95077000D01*
X129677000Y-94131000D01*
X134423000Y-94131000D01*
X134423000Y-95077000D01*
G36*
X134423000Y-105777000D02*
G01*
X129677000Y-105777000D01*
X129677000Y-104831000D01*
X134423000Y-104831000D01*
X134423000Y-105777000D01*
X134423000Y-105777000D01*
G37*
X134423000Y-105777000D02*
X129677000Y-105777000D01*
X129677000Y-104831000D01*
X134423000Y-104831000D01*
X134423000Y-105777000D01*
G36*
X167423000Y-116277000D02*
G01*
X162677000Y-116277000D01*
X162677000Y-115331000D01*
X167423000Y-115331000D01*
X167423000Y-116277000D01*
X167423000Y-116277000D01*
G37*
X167423000Y-116277000D02*
X162677000Y-116277000D01*
X162677000Y-115331000D01*
X167423000Y-115331000D01*
X167423000Y-116277000D01*
G36*
X134423000Y-109277000D02*
G01*
X129677000Y-109277000D01*
X129677000Y-108331000D01*
X134423000Y-108331000D01*
X134423000Y-109277000D01*
X134423000Y-109277000D01*
G37*
X134423000Y-109277000D02*
X129677000Y-109277000D01*
X129677000Y-108331000D01*
X134423000Y-108331000D01*
X134423000Y-109277000D01*
G36*
X167423000Y-112777000D02*
G01*
X162677000Y-112777000D01*
X162677000Y-111831000D01*
X167423000Y-111831000D01*
X167423000Y-112777000D01*
X167423000Y-112777000D01*
G37*
X167423000Y-112777000D02*
X162677000Y-112777000D01*
X162677000Y-111831000D01*
X167423000Y-111831000D01*
X167423000Y-112777000D01*
G36*
X167423000Y-102277000D02*
G01*
X162677000Y-102277000D01*
X162677000Y-101331000D01*
X167423000Y-101331000D01*
X167423000Y-102277000D01*
X167423000Y-102277000D01*
G37*
X167423000Y-102277000D02*
X162677000Y-102277000D01*
X162677000Y-101331000D01*
X167423000Y-101331000D01*
X167423000Y-102277000D01*
G36*
X167423000Y-109277000D02*
G01*
X162677000Y-109277000D01*
X162677000Y-108331000D01*
X167423000Y-108331000D01*
X167423000Y-109277000D01*
X167423000Y-109277000D01*
G37*
X167423000Y-109277000D02*
X162677000Y-109277000D01*
X162677000Y-108331000D01*
X167423000Y-108331000D01*
X167423000Y-109277000D01*
G36*
X134423000Y-112777000D02*
G01*
X129677000Y-112777000D01*
X129677000Y-111831000D01*
X134423000Y-111831000D01*
X134423000Y-112777000D01*
X134423000Y-112777000D01*
G37*
X134423000Y-112777000D02*
X129677000Y-112777000D01*
X129677000Y-111831000D01*
X134423000Y-111831000D01*
X134423000Y-112777000D01*
G36*
X134423000Y-116277000D02*
G01*
X129677000Y-116277000D01*
X129677000Y-115331000D01*
X134423000Y-115331000D01*
X134423000Y-116277000D01*
X134423000Y-116277000D01*
G37*
X134423000Y-116277000D02*
X129677000Y-116277000D01*
X129677000Y-115331000D01*
X134423000Y-115331000D01*
X134423000Y-116277000D01*
G36*
X134423000Y-102277000D02*
G01*
X129677000Y-102277000D01*
X129677000Y-101331000D01*
X134423000Y-101331000D01*
X134423000Y-102277000D01*
X134423000Y-102277000D01*
G37*
X134423000Y-102277000D02*
X129677000Y-102277000D01*
X129677000Y-101331000D01*
X134423000Y-101331000D01*
X134423000Y-102277000D01*
G36*
X167423000Y-105777000D02*
G01*
X162677000Y-105777000D01*
X162677000Y-104831000D01*
X167423000Y-104831000D01*
X167423000Y-105777000D01*
X167423000Y-105777000D01*
G37*
X167423000Y-105777000D02*
X162677000Y-105777000D01*
X162677000Y-104831000D01*
X167423000Y-104831000D01*
X167423000Y-105777000D01*
G36*
X167423000Y-133977000D02*
G01*
X162677000Y-133977000D01*
X162677000Y-133031000D01*
X167423000Y-133031000D01*
X167423000Y-133977000D01*
X167423000Y-133977000D01*
G37*
X167423000Y-133977000D02*
X162677000Y-133977000D01*
X162677000Y-133031000D01*
X167423000Y-133031000D01*
X167423000Y-133977000D01*
G36*
X134423000Y-126977000D02*
G01*
X129677000Y-126977000D01*
X129677000Y-126031000D01*
X134423000Y-126031000D01*
X134423000Y-126977000D01*
X134423000Y-126977000D01*
G37*
X134423000Y-126977000D02*
X129677000Y-126977000D01*
X129677000Y-126031000D01*
X134423000Y-126031000D01*
X134423000Y-126977000D01*
G36*
X167423000Y-137477000D02*
G01*
X162677000Y-137477000D01*
X162677000Y-136531000D01*
X167423000Y-136531000D01*
X167423000Y-137477000D01*
X167423000Y-137477000D01*
G37*
X167423000Y-137477000D02*
X162677000Y-137477000D01*
X162677000Y-136531000D01*
X167423000Y-136531000D01*
X167423000Y-137477000D01*
G36*
X167423000Y-123477000D02*
G01*
X162677000Y-123477000D01*
X162677000Y-122531000D01*
X167423000Y-122531000D01*
X167423000Y-123477000D01*
X167423000Y-123477000D01*
G37*
X167423000Y-123477000D02*
X162677000Y-123477000D01*
X162677000Y-122531000D01*
X167423000Y-122531000D01*
X167423000Y-123477000D01*
G36*
X167423000Y-126977000D02*
G01*
X162677000Y-126977000D01*
X162677000Y-126031000D01*
X167423000Y-126031000D01*
X167423000Y-126977000D01*
X167423000Y-126977000D01*
G37*
X167423000Y-126977000D02*
X162677000Y-126977000D01*
X162677000Y-126031000D01*
X167423000Y-126031000D01*
X167423000Y-126977000D01*
G36*
X134423000Y-123477000D02*
G01*
X129677000Y-123477000D01*
X129677000Y-122531000D01*
X134423000Y-122531000D01*
X134423000Y-123477000D01*
X134423000Y-123477000D01*
G37*
X134423000Y-123477000D02*
X129677000Y-123477000D01*
X129677000Y-122531000D01*
X134423000Y-122531000D01*
X134423000Y-123477000D01*
G36*
X134423000Y-130477000D02*
G01*
X129677000Y-130477000D01*
X129677000Y-129531000D01*
X134423000Y-129531000D01*
X134423000Y-130477000D01*
X134423000Y-130477000D01*
G37*
X134423000Y-130477000D02*
X129677000Y-130477000D01*
X129677000Y-129531000D01*
X134423000Y-129531000D01*
X134423000Y-130477000D01*
G36*
X167423000Y-130477000D02*
G01*
X162677000Y-130477000D01*
X162677000Y-129531000D01*
X167423000Y-129531000D01*
X167423000Y-130477000D01*
X167423000Y-130477000D01*
G37*
X167423000Y-130477000D02*
X162677000Y-130477000D01*
X162677000Y-129531000D01*
X167423000Y-129531000D01*
X167423000Y-130477000D01*
G36*
X134423000Y-133977000D02*
G01*
X129677000Y-133977000D01*
X129677000Y-133031000D01*
X134423000Y-133031000D01*
X134423000Y-133977000D01*
X134423000Y-133977000D01*
G37*
X134423000Y-133977000D02*
X129677000Y-133977000D01*
X129677000Y-133031000D01*
X134423000Y-133031000D01*
X134423000Y-133977000D01*
G36*
X134423000Y-137477000D02*
G01*
X129677000Y-137477000D01*
X129677000Y-136531000D01*
X134423000Y-136531000D01*
X134423000Y-137477000D01*
X134423000Y-137477000D01*
G37*
X134423000Y-137477000D02*
X129677000Y-137477000D01*
X129677000Y-136531000D01*
X134423000Y-136531000D01*
X134423000Y-137477000D01*
G36*
X120423000Y-102277000D02*
G01*
X115677000Y-102277000D01*
X115677000Y-101331000D01*
X120423000Y-101331000D01*
X120423000Y-102277000D01*
X120423000Y-102277000D01*
G37*
X120423000Y-102277000D02*
X115677000Y-102277000D01*
X115677000Y-101331000D01*
X120423000Y-101331000D01*
X120423000Y-102277000D01*
G36*
X120423000Y-112777000D02*
G01*
X115677000Y-112777000D01*
X115677000Y-111831000D01*
X120423000Y-111831000D01*
X120423000Y-112777000D01*
X120423000Y-112777000D01*
G37*
X120423000Y-112777000D02*
X115677000Y-112777000D01*
X115677000Y-111831000D01*
X120423000Y-111831000D01*
X120423000Y-112777000D01*
G36*
X87423000Y-126977000D02*
G01*
X82677000Y-126977000D01*
X82677000Y-126031000D01*
X87423000Y-126031000D01*
X87423000Y-126977000D01*
X87423000Y-126977000D01*
G37*
X87423000Y-126977000D02*
X82677000Y-126977000D01*
X82677000Y-126031000D01*
X87423000Y-126031000D01*
X87423000Y-126977000D01*
G36*
X120423000Y-130477000D02*
G01*
X115677000Y-130477000D01*
X115677000Y-129531000D01*
X120423000Y-129531000D01*
X120423000Y-130477000D01*
X120423000Y-130477000D01*
G37*
X120423000Y-130477000D02*
X115677000Y-130477000D01*
X115677000Y-129531000D01*
X120423000Y-129531000D01*
X120423000Y-130477000D01*
G36*
X120423000Y-137477000D02*
G01*
X115677000Y-137477000D01*
X115677000Y-136531000D01*
X120423000Y-136531000D01*
X120423000Y-137477000D01*
X120423000Y-137477000D01*
G37*
X120423000Y-137477000D02*
X115677000Y-137477000D01*
X115677000Y-136531000D01*
X120423000Y-136531000D01*
X120423000Y-137477000D01*
G36*
X87423000Y-133977000D02*
G01*
X82677000Y-133977000D01*
X82677000Y-133031000D01*
X87423000Y-133031000D01*
X87423000Y-133977000D01*
X87423000Y-133977000D01*
G37*
X87423000Y-133977000D02*
X82677000Y-133977000D01*
X82677000Y-133031000D01*
X87423000Y-133031000D01*
X87423000Y-133977000D01*
G36*
X87423000Y-112777000D02*
G01*
X82677000Y-112777000D01*
X82677000Y-111831000D01*
X87423000Y-111831000D01*
X87423000Y-112777000D01*
X87423000Y-112777000D01*
G37*
X87423000Y-112777000D02*
X82677000Y-112777000D01*
X82677000Y-111831000D01*
X87423000Y-111831000D01*
X87423000Y-112777000D01*
G36*
X87423000Y-116277000D02*
G01*
X82677000Y-116277000D01*
X82677000Y-115331000D01*
X87423000Y-115331000D01*
X87423000Y-116277000D01*
X87423000Y-116277000D01*
G37*
X87423000Y-116277000D02*
X82677000Y-116277000D01*
X82677000Y-115331000D01*
X87423000Y-115331000D01*
X87423000Y-116277000D01*
G36*
X87423000Y-102277000D02*
G01*
X82677000Y-102277000D01*
X82677000Y-101331000D01*
X87423000Y-101331000D01*
X87423000Y-102277000D01*
X87423000Y-102277000D01*
G37*
X87423000Y-102277000D02*
X82677000Y-102277000D01*
X82677000Y-101331000D01*
X87423000Y-101331000D01*
X87423000Y-102277000D01*
G36*
X87423000Y-109277000D02*
G01*
X82677000Y-109277000D01*
X82677000Y-108331000D01*
X87423000Y-108331000D01*
X87423000Y-109277000D01*
X87423000Y-109277000D01*
G37*
X87423000Y-109277000D02*
X82677000Y-109277000D01*
X82677000Y-108331000D01*
X87423000Y-108331000D01*
X87423000Y-109277000D01*
G36*
X87423000Y-105777000D02*
G01*
X82677000Y-105777000D01*
X82677000Y-104831000D01*
X87423000Y-104831000D01*
X87423000Y-105777000D01*
X87423000Y-105777000D01*
G37*
X87423000Y-105777000D02*
X82677000Y-105777000D01*
X82677000Y-104831000D01*
X87423000Y-104831000D01*
X87423000Y-105777000D01*
G36*
X120423000Y-116277000D02*
G01*
X115677000Y-116277000D01*
X115677000Y-115331000D01*
X120423000Y-115331000D01*
X120423000Y-116277000D01*
X120423000Y-116277000D01*
G37*
X120423000Y-116277000D02*
X115677000Y-116277000D01*
X115677000Y-115331000D01*
X120423000Y-115331000D01*
X120423000Y-116277000D01*
G36*
X120423000Y-105777000D02*
G01*
X115677000Y-105777000D01*
X115677000Y-104831000D01*
X120423000Y-104831000D01*
X120423000Y-105777000D01*
X120423000Y-105777000D01*
G37*
X120423000Y-105777000D02*
X115677000Y-105777000D01*
X115677000Y-104831000D01*
X120423000Y-104831000D01*
X120423000Y-105777000D01*
G36*
X120423000Y-109277000D02*
G01*
X115677000Y-109277000D01*
X115677000Y-108331000D01*
X120423000Y-108331000D01*
X120423000Y-109277000D01*
X120423000Y-109277000D01*
G37*
X120423000Y-109277000D02*
X115677000Y-109277000D01*
X115677000Y-108331000D01*
X120423000Y-108331000D01*
X120423000Y-109277000D01*
G36*
X120423000Y-133977000D02*
G01*
X115677000Y-133977000D01*
X115677000Y-133031000D01*
X120423000Y-133031000D01*
X120423000Y-133977000D01*
X120423000Y-133977000D01*
G37*
X120423000Y-133977000D02*
X115677000Y-133977000D01*
X115677000Y-133031000D01*
X120423000Y-133031000D01*
X120423000Y-133977000D01*
G36*
X87423000Y-137477000D02*
G01*
X82677000Y-137477000D01*
X82677000Y-136531000D01*
X87423000Y-136531000D01*
X87423000Y-137477000D01*
X87423000Y-137477000D01*
G37*
X87423000Y-137477000D02*
X82677000Y-137477000D01*
X82677000Y-136531000D01*
X87423000Y-136531000D01*
X87423000Y-137477000D01*
G36*
X87423000Y-130477000D02*
G01*
X82677000Y-130477000D01*
X82677000Y-129531000D01*
X87423000Y-129531000D01*
X87423000Y-130477000D01*
X87423000Y-130477000D01*
G37*
X87423000Y-130477000D02*
X82677000Y-130477000D01*
X82677000Y-129531000D01*
X87423000Y-129531000D01*
X87423000Y-130477000D01*
G36*
X120423000Y-123477000D02*
G01*
X115677000Y-123477000D01*
X115677000Y-122531000D01*
X120423000Y-122531000D01*
X120423000Y-123477000D01*
X120423000Y-123477000D01*
G37*
X120423000Y-123477000D02*
X115677000Y-123477000D01*
X115677000Y-122531000D01*
X120423000Y-122531000D01*
X120423000Y-123477000D01*
G36*
X87423000Y-123477000D02*
G01*
X82677000Y-123477000D01*
X82677000Y-122531000D01*
X87423000Y-122531000D01*
X87423000Y-123477000D01*
X87423000Y-123477000D01*
G37*
X87423000Y-123477000D02*
X82677000Y-123477000D01*
X82677000Y-122531000D01*
X87423000Y-122531000D01*
X87423000Y-123477000D01*
G36*
X120423000Y-126977000D02*
G01*
X115677000Y-126977000D01*
X115677000Y-126031000D01*
X120423000Y-126031000D01*
X120423000Y-126977000D01*
X120423000Y-126977000D01*
G37*
X120423000Y-126977000D02*
X115677000Y-126977000D01*
X115677000Y-126031000D01*
X120423000Y-126031000D01*
X120423000Y-126977000D01*
M02*
