G04 #@! TF.GenerationSoftware,KiCad,Pcbnew,(5.1.0)-1*
G04 #@! TF.CreationDate,2019-06-08T18:11:24-04:00*
G04 #@! TF.ProjectId,input+output,696e7075-742b-46f7-9574-7075742e6b69,0.1*
G04 #@! TF.SameCoordinates,Original*
G04 #@! TF.FileFunction,Copper,L1,Top*
G04 #@! TF.FilePolarity,Positive*
%FSLAX46Y46*%
G04 Gerber Fmt 4.6, Leading zero omitted, Abs format (unit mm)*
G04 Created by KiCad (PCBNEW (5.1.0)-1) date 2019-06-08 18:11:24*
%MOMM*%
%LPD*%
G04 APERTURE LIST*
%ADD10R,2.500000X1.800000*%
%ADD11R,1.800000X2.500000*%
%ADD12C,0.609600*%
%ADD13C,0.635000*%
G04 APERTURE END LIST*
D10*
X93050000Y-135004000D03*
X93050000Y-125004000D03*
D11*
X98050000Y-130004000D03*
D10*
X93050000Y-132504000D03*
X93050000Y-127504000D03*
X93050000Y-106304000D03*
X93050000Y-111304000D03*
D11*
X98050000Y-108804000D03*
D10*
X93050000Y-103804000D03*
X93050000Y-113804000D03*
X110050000Y-103804000D03*
X110050000Y-113804000D03*
D11*
X105050000Y-108804000D03*
D10*
X110050000Y-106304000D03*
X110050000Y-111304000D03*
X110050000Y-132504000D03*
X110050000Y-127504000D03*
D11*
X105050000Y-130004000D03*
D10*
X110050000Y-135004000D03*
X110050000Y-125004000D03*
X157050000Y-111304000D03*
X157050000Y-106304000D03*
D11*
X152050000Y-108804000D03*
D10*
X157050000Y-113804000D03*
X157050000Y-103804000D03*
X140050000Y-113804000D03*
X140050000Y-103804000D03*
D11*
X145050000Y-108804000D03*
D10*
X140050000Y-111304000D03*
X140050000Y-106304000D03*
X140050000Y-127504000D03*
X140050000Y-132504000D03*
D11*
X145050000Y-130004000D03*
D10*
X140050000Y-125004000D03*
X140050000Y-135004000D03*
X157050000Y-125004000D03*
X157050000Y-135004000D03*
D11*
X152050000Y-130004000D03*
D10*
X157050000Y-127504000D03*
X157050000Y-132504000D03*
X140050000Y-63904000D03*
X140050000Y-68904000D03*
D11*
X145050000Y-66404000D03*
D10*
X140050000Y-61404000D03*
X140050000Y-71404000D03*
X157050000Y-61404000D03*
X157050000Y-71404000D03*
D11*
X152050000Y-66404000D03*
D10*
X157050000Y-63904000D03*
X157050000Y-68904000D03*
X157050000Y-90104000D03*
X157050000Y-85104000D03*
D11*
X152050000Y-87604000D03*
D10*
X157050000Y-92604000D03*
X157050000Y-82604000D03*
X140050000Y-92604000D03*
X140050000Y-82604000D03*
D11*
X145050000Y-87604000D03*
D10*
X140050000Y-90104000D03*
X140050000Y-85104000D03*
X110050000Y-68904000D03*
X110050000Y-63904000D03*
D11*
X105050000Y-66404000D03*
D10*
X110050000Y-71404000D03*
X110050000Y-61404000D03*
X93050000Y-71404000D03*
X93050000Y-61404000D03*
D11*
X98050000Y-66404000D03*
D10*
X93050000Y-68904000D03*
X93050000Y-63904000D03*
X93050000Y-85104000D03*
X93050000Y-90104000D03*
D11*
X98050000Y-87604000D03*
D10*
X93050000Y-82604000D03*
X93050000Y-92604000D03*
X110050000Y-82604000D03*
X110050000Y-92604000D03*
D11*
X105050000Y-87604000D03*
D10*
X110050000Y-85104000D03*
X110050000Y-90104000D03*
D12*
X114550000Y-80604000D03*
X114550000Y-91104000D03*
X88550000Y-87604000D03*
X114550000Y-94604000D03*
X88550000Y-94604000D03*
X88550000Y-84104000D03*
X114550000Y-84104000D03*
X88550000Y-80604000D03*
X114550000Y-87604000D03*
X88550000Y-91104000D03*
X88550000Y-59404000D03*
X88550000Y-69904000D03*
X88550000Y-73404000D03*
X88550000Y-66404000D03*
X88550000Y-62904000D03*
X114550000Y-73404000D03*
X114550000Y-66404000D03*
X114550000Y-69904000D03*
X114550000Y-62904000D03*
X114550000Y-59404000D03*
X135550000Y-91104000D03*
X161550000Y-84104000D03*
X161550000Y-80604000D03*
X161550000Y-91104000D03*
X161550000Y-94604000D03*
X135550000Y-94604000D03*
X161550000Y-87604000D03*
X135550000Y-87604000D03*
X135550000Y-84104000D03*
X135550000Y-80604000D03*
X135550000Y-66404000D03*
X161550000Y-62904000D03*
X161550000Y-59404000D03*
X135550000Y-73404000D03*
X161550000Y-69904000D03*
X161550000Y-66404000D03*
X135550000Y-62904000D03*
X161550000Y-73404000D03*
X135550000Y-69904000D03*
X135550000Y-59404000D03*
X161550000Y-123004000D03*
X135550000Y-133504000D03*
X161550000Y-137004000D03*
X161550000Y-130004000D03*
X161550000Y-126504000D03*
X161550000Y-133504000D03*
X135550000Y-137004000D03*
X135550000Y-130004000D03*
X135550000Y-126504000D03*
X135550000Y-123004000D03*
X135550000Y-108804000D03*
X135550000Y-115804000D03*
X135550000Y-101804000D03*
X161550000Y-101804000D03*
X161550000Y-112304000D03*
X135550000Y-105304000D03*
X161550000Y-105304000D03*
X161550000Y-108804000D03*
X161550000Y-115804000D03*
X135550000Y-112304000D03*
X88550000Y-130004000D03*
X88550000Y-108804000D03*
X114550000Y-115804000D03*
X114550000Y-123004000D03*
X88550000Y-133504000D03*
X114550000Y-126504000D03*
X88550000Y-112304000D03*
X88550000Y-101804000D03*
X114550000Y-137004000D03*
X88550000Y-126504000D03*
X114550000Y-133504000D03*
X114550000Y-130004000D03*
X88550000Y-137004000D03*
X88550000Y-105304000D03*
X88550000Y-115804000D03*
X114550000Y-112304000D03*
X114550000Y-105304000D03*
X88550000Y-123004000D03*
X114550000Y-108804000D03*
X114550000Y-101804000D03*
D13*
X108165000Y-82604000D02*
X107423000Y-83346000D01*
X113979690Y-91243258D02*
X114118948Y-91104000D01*
X110050000Y-82604000D02*
X108165000Y-82604000D01*
X88550000Y-87604000D02*
X83150000Y-87604000D01*
X107423000Y-83346000D02*
X107423000Y-93573000D01*
X90533500Y-84175000D02*
X90533500Y-92620500D01*
X113979690Y-92350310D02*
X113979690Y-91243258D01*
X89120310Y-82857690D02*
X89120310Y-83964742D01*
X95677000Y-81635000D02*
X95042000Y-81000000D01*
X107423000Y-93573000D02*
X108058000Y-94208000D01*
X114550000Y-84104000D02*
X119950000Y-84104000D01*
X88981052Y-84104000D02*
X88550000Y-84104000D01*
X119950000Y-80604000D02*
X114550000Y-80604000D01*
X114118948Y-91104000D02*
X114550000Y-91104000D01*
X110217000Y-92604000D02*
X110995500Y-92604000D01*
X112122000Y-94208000D02*
X113979690Y-92350310D01*
X112566500Y-82587500D02*
X114550000Y-80604000D01*
X114550000Y-94604000D02*
X119950000Y-94604000D01*
X92883000Y-82604000D02*
X92104500Y-82604000D01*
X114550000Y-91104000D02*
X119950000Y-91104000D01*
X95677000Y-91862000D02*
X95677000Y-81635000D01*
X112566500Y-91033000D02*
X112566500Y-82587500D01*
X92104500Y-82604000D02*
X90533500Y-84175000D01*
X83150000Y-94604000D02*
X88550000Y-94604000D01*
X88550000Y-91104000D02*
X83150000Y-91104000D01*
X90533500Y-92620500D02*
X88550000Y-94604000D01*
X88550000Y-84104000D02*
X83150000Y-84104000D01*
X88550000Y-80604000D02*
X83150000Y-80604000D01*
X114550000Y-87604000D02*
X119950000Y-87604000D01*
X90978000Y-81000000D02*
X89120310Y-82857690D01*
X95042000Y-81000000D02*
X90978000Y-81000000D01*
X108058000Y-94208000D02*
X112122000Y-94208000D01*
X94935000Y-92604000D02*
X95677000Y-91862000D01*
X93050000Y-92604000D02*
X94935000Y-92604000D01*
X89120310Y-83964742D02*
X88981052Y-84104000D01*
X110995500Y-92604000D02*
X112566500Y-91033000D01*
X114118948Y-69904000D02*
X114550000Y-69904000D01*
X110050000Y-61404000D02*
X108165000Y-61404000D01*
X110217000Y-71404000D02*
X110995500Y-71404000D01*
X107423000Y-72373000D02*
X108058000Y-73008000D01*
X112566500Y-61387500D02*
X114550000Y-59404000D01*
X113979690Y-71150310D02*
X113979690Y-70043258D01*
X112122000Y-73008000D02*
X113979690Y-71150310D01*
X119950000Y-59404000D02*
X114550000Y-59404000D01*
X112566500Y-69833000D02*
X112566500Y-61387500D01*
X107423000Y-62146000D02*
X107423000Y-72373000D01*
X108058000Y-73008000D02*
X112122000Y-73008000D01*
X114550000Y-66404000D02*
X119950000Y-66404000D01*
X114550000Y-69904000D02*
X119950000Y-69904000D01*
X110995500Y-71404000D02*
X112566500Y-69833000D01*
X108165000Y-61404000D02*
X107423000Y-62146000D01*
X114550000Y-73404000D02*
X119950000Y-73404000D01*
X113979690Y-70043258D02*
X114118948Y-69904000D01*
X114550000Y-62904000D02*
X119950000Y-62904000D01*
X88981052Y-62904000D02*
X88550000Y-62904000D01*
X92883000Y-61404000D02*
X92104500Y-61404000D01*
X94935000Y-71404000D02*
X95677000Y-70662000D01*
X95677000Y-70662000D02*
X95677000Y-60435000D01*
X95042000Y-59800000D02*
X90978000Y-59800000D01*
X93050000Y-71404000D02*
X94935000Y-71404000D01*
X89120310Y-61657690D02*
X89120310Y-62764742D01*
X90978000Y-59800000D02*
X89120310Y-61657690D01*
X92104500Y-61404000D02*
X90533500Y-62975000D01*
X89120310Y-62764742D02*
X88981052Y-62904000D01*
X88550000Y-69904000D02*
X83150000Y-69904000D01*
X88550000Y-66404000D02*
X83150000Y-66404000D01*
X83150000Y-73404000D02*
X88550000Y-73404000D01*
X90533500Y-71420500D02*
X88550000Y-73404000D01*
X88550000Y-59404000D02*
X83150000Y-59404000D01*
X90533500Y-62975000D02*
X90533500Y-71420500D01*
X95677000Y-60435000D02*
X95042000Y-59800000D01*
X88550000Y-62904000D02*
X83150000Y-62904000D01*
X137533500Y-92620500D02*
X135550000Y-94604000D01*
X139104500Y-61404000D02*
X137533500Y-62975000D01*
X135550000Y-66404000D02*
X130150000Y-66404000D01*
X137533500Y-71420500D02*
X135550000Y-73404000D01*
X135550000Y-62904000D02*
X130150000Y-62904000D01*
X137533500Y-62975000D02*
X137533500Y-71420500D01*
X130150000Y-73404000D02*
X135550000Y-73404000D01*
X139883000Y-61404000D02*
X139104500Y-61404000D01*
X142677000Y-60435000D02*
X142042000Y-59800000D01*
X141935000Y-71404000D02*
X142677000Y-70662000D01*
X137978000Y-59800000D02*
X136120310Y-61657690D01*
X142677000Y-70662000D02*
X142677000Y-60435000D01*
X142042000Y-59800000D02*
X137978000Y-59800000D01*
X135550000Y-59404000D02*
X130150000Y-59404000D01*
X136120310Y-62764742D02*
X135981052Y-62904000D01*
X140050000Y-71404000D02*
X141935000Y-71404000D01*
X135981052Y-62904000D02*
X135550000Y-62904000D01*
X136120310Y-61657690D02*
X136120310Y-62764742D01*
X135550000Y-69904000D02*
X130150000Y-69904000D01*
X160979690Y-70043258D02*
X161118948Y-69904000D01*
X161550000Y-62904000D02*
X166950000Y-62904000D01*
X157050000Y-61404000D02*
X155165000Y-61404000D01*
X166950000Y-59404000D02*
X161550000Y-59404000D01*
X161550000Y-66404000D02*
X166950000Y-66404000D01*
X161118948Y-69904000D02*
X161550000Y-69904000D01*
X157217000Y-71404000D02*
X157995500Y-71404000D01*
X160979690Y-71150310D02*
X160979690Y-70043258D01*
X159566500Y-69833000D02*
X159566500Y-61387500D01*
X159122000Y-73008000D02*
X160979690Y-71150310D01*
X154423000Y-72373000D02*
X155058000Y-73008000D01*
X154423000Y-62146000D02*
X154423000Y-72373000D01*
X155058000Y-73008000D02*
X159122000Y-73008000D01*
X157995500Y-71404000D02*
X159566500Y-69833000D01*
X155165000Y-61404000D02*
X154423000Y-62146000D01*
X161550000Y-73404000D02*
X166950000Y-73404000D01*
X159566500Y-61387500D02*
X161550000Y-59404000D01*
X161550000Y-69904000D02*
X166950000Y-69904000D01*
X160979690Y-91243258D02*
X161118948Y-91104000D01*
X154423000Y-83346000D02*
X154423000Y-93573000D01*
X135550000Y-87604000D02*
X130150000Y-87604000D01*
X161550000Y-84104000D02*
X166950000Y-84104000D01*
X154423000Y-93573000D02*
X155058000Y-94208000D01*
X135981052Y-84104000D02*
X135550000Y-84104000D01*
X161118948Y-91104000D02*
X161550000Y-91104000D01*
X159122000Y-94208000D02*
X160979690Y-92350310D01*
X159566500Y-82587500D02*
X161550000Y-80604000D01*
X161550000Y-94604000D02*
X166950000Y-94604000D01*
X155165000Y-82604000D02*
X154423000Y-83346000D01*
X157050000Y-82604000D02*
X155165000Y-82604000D01*
X136120310Y-82857690D02*
X136120310Y-83964742D01*
X166950000Y-80604000D02*
X161550000Y-80604000D01*
X160979690Y-92350310D02*
X160979690Y-91243258D01*
X157217000Y-92604000D02*
X157995500Y-92604000D01*
X142677000Y-81635000D02*
X142042000Y-81000000D01*
X137533500Y-84175000D02*
X137533500Y-92620500D01*
X139883000Y-82604000D02*
X139104500Y-82604000D01*
X161550000Y-91104000D02*
X166950000Y-91104000D01*
X142677000Y-91862000D02*
X142677000Y-81635000D01*
X159566500Y-91033000D02*
X159566500Y-82587500D01*
X139104500Y-82604000D02*
X137533500Y-84175000D01*
X135550000Y-91104000D02*
X130150000Y-91104000D01*
X130150000Y-94604000D02*
X135550000Y-94604000D01*
X142042000Y-81000000D02*
X137978000Y-81000000D01*
X135550000Y-84104000D02*
X130150000Y-84104000D01*
X135550000Y-80604000D02*
X130150000Y-80604000D01*
X141935000Y-92604000D02*
X142677000Y-91862000D01*
X136120310Y-83964742D02*
X135981052Y-84104000D01*
X137978000Y-81000000D02*
X136120310Y-82857690D01*
X157995500Y-92604000D02*
X159566500Y-91033000D01*
X155058000Y-94208000D02*
X159122000Y-94208000D01*
X161550000Y-87604000D02*
X166950000Y-87604000D01*
X140050000Y-92604000D02*
X141935000Y-92604000D01*
X137533500Y-135020500D02*
X135550000Y-137004000D01*
X135981052Y-105304000D02*
X135550000Y-105304000D01*
X137978000Y-102200000D02*
X136120310Y-104057690D01*
X142677000Y-113062000D02*
X142677000Y-102835000D01*
X161550000Y-108804000D02*
X166950000Y-108804000D01*
X136120310Y-105164742D02*
X135981052Y-105304000D01*
X161550000Y-105304000D02*
X166950000Y-105304000D01*
X142042000Y-102200000D02*
X137978000Y-102200000D01*
X139883000Y-103804000D02*
X139104500Y-103804000D01*
X135550000Y-101804000D02*
X130150000Y-101804000D01*
X140050000Y-113804000D02*
X141935000Y-113804000D01*
X139104500Y-103804000D02*
X137533500Y-105375000D01*
X137533500Y-105375000D02*
X137533500Y-113820500D01*
X135550000Y-112304000D02*
X130150000Y-112304000D01*
X135550000Y-108804000D02*
X130150000Y-108804000D01*
X160979690Y-113550310D02*
X160979690Y-112443258D01*
X135550000Y-105304000D02*
X130150000Y-105304000D01*
X136120310Y-104057690D02*
X136120310Y-105164742D01*
X157050000Y-103804000D02*
X155165000Y-103804000D01*
X159566500Y-112233000D02*
X159566500Y-103787500D01*
X130150000Y-115804000D02*
X135550000Y-115804000D01*
X142677000Y-102835000D02*
X142042000Y-102200000D01*
X141935000Y-113804000D02*
X142677000Y-113062000D01*
X166950000Y-101804000D02*
X161550000Y-101804000D01*
X161118948Y-112304000D02*
X161550000Y-112304000D01*
X137533500Y-113820500D02*
X135550000Y-115804000D01*
X160979690Y-112443258D02*
X161118948Y-112304000D01*
X159122000Y-115408000D02*
X160979690Y-113550310D01*
X157217000Y-113804000D02*
X157995500Y-113804000D01*
X154423000Y-114773000D02*
X155058000Y-115408000D01*
X155165000Y-103804000D02*
X154423000Y-104546000D01*
X154423000Y-125746000D02*
X154423000Y-135973000D01*
X155058000Y-115408000D02*
X159122000Y-115408000D01*
X159566500Y-124987500D02*
X161550000Y-123004000D01*
X161550000Y-137004000D02*
X166950000Y-137004000D01*
X161550000Y-115804000D02*
X166950000Y-115804000D01*
X157995500Y-113804000D02*
X159566500Y-112233000D01*
X161550000Y-112304000D02*
X166950000Y-112304000D01*
X160979690Y-133643258D02*
X161118948Y-133504000D01*
X161550000Y-126504000D02*
X166950000Y-126504000D01*
X154423000Y-135973000D02*
X155058000Y-136608000D01*
X135981052Y-126504000D02*
X135550000Y-126504000D01*
X159566500Y-103787500D02*
X161550000Y-101804000D01*
X154423000Y-104546000D02*
X154423000Y-114773000D01*
X135550000Y-130004000D02*
X130150000Y-130004000D01*
X161118948Y-133504000D02*
X161550000Y-133504000D01*
X159122000Y-136608000D02*
X160979690Y-134750310D01*
X157995500Y-135004000D02*
X159566500Y-133433000D01*
X161550000Y-130004000D02*
X166950000Y-130004000D01*
X155058000Y-136608000D02*
X159122000Y-136608000D01*
X140050000Y-135004000D02*
X141935000Y-135004000D01*
X137533500Y-126575000D02*
X137533500Y-135020500D01*
X155165000Y-125004000D02*
X154423000Y-125746000D01*
X157217000Y-135004000D02*
X157995500Y-135004000D01*
X142677000Y-134262000D02*
X142677000Y-124035000D01*
X139104500Y-125004000D02*
X137533500Y-126575000D01*
X159566500Y-133433000D02*
X159566500Y-124987500D01*
X142677000Y-124035000D02*
X142042000Y-123400000D01*
X135550000Y-133504000D02*
X130150000Y-133504000D01*
X160979690Y-134750310D02*
X160979690Y-133643258D01*
X136120310Y-125257690D02*
X136120310Y-126364742D01*
X166950000Y-123004000D02*
X161550000Y-123004000D01*
X139883000Y-125004000D02*
X139104500Y-125004000D01*
X161550000Y-133504000D02*
X166950000Y-133504000D01*
X157050000Y-125004000D02*
X155165000Y-125004000D01*
X135550000Y-126504000D02*
X130150000Y-126504000D01*
X142042000Y-123400000D02*
X137978000Y-123400000D01*
X135550000Y-123004000D02*
X130150000Y-123004000D01*
X136120310Y-126364742D02*
X135981052Y-126504000D01*
X130150000Y-137004000D02*
X135550000Y-137004000D01*
X141935000Y-135004000D02*
X142677000Y-134262000D01*
X137978000Y-123400000D02*
X136120310Y-125257690D01*
X89120310Y-105164742D02*
X88981052Y-105304000D01*
X89120310Y-104057690D02*
X89120310Y-105164742D01*
X90533500Y-113820500D02*
X88550000Y-115804000D01*
X90533500Y-105375000D02*
X90533500Y-113820500D01*
X88550000Y-101804000D02*
X83150000Y-101804000D01*
X92104500Y-103804000D02*
X90533500Y-105375000D01*
X88550000Y-108804000D02*
X83150000Y-108804000D01*
X95677000Y-102835000D02*
X95042000Y-102200000D01*
X88550000Y-105304000D02*
X83150000Y-105304000D01*
X90978000Y-102200000D02*
X89120310Y-104057690D01*
X83150000Y-115804000D02*
X88550000Y-115804000D01*
X88550000Y-112304000D02*
X83150000Y-112304000D01*
X112122000Y-115408000D02*
X113979690Y-113550310D01*
X93050000Y-113804000D02*
X94935000Y-113804000D01*
X114550000Y-105304000D02*
X119950000Y-105304000D01*
X110050000Y-103804000D02*
X108165000Y-103804000D01*
X119950000Y-101804000D02*
X114550000Y-101804000D01*
X112566500Y-103787500D02*
X114550000Y-101804000D01*
X88981052Y-105304000D02*
X88550000Y-105304000D01*
X108165000Y-103804000D02*
X107423000Y-104546000D01*
X114118948Y-112304000D02*
X114550000Y-112304000D01*
X107423000Y-114773000D02*
X108058000Y-115408000D01*
X107423000Y-104546000D02*
X107423000Y-114773000D01*
X94935000Y-113804000D02*
X95677000Y-113062000D01*
X92883000Y-103804000D02*
X92104500Y-103804000D01*
X114550000Y-112304000D02*
X119950000Y-112304000D01*
X110995500Y-113804000D02*
X112566500Y-112233000D01*
X110217000Y-113804000D02*
X110995500Y-113804000D01*
X113979690Y-113550310D02*
X113979690Y-112443258D01*
X114550000Y-108804000D02*
X119950000Y-108804000D01*
X113979690Y-112443258D02*
X114118948Y-112304000D01*
X95677000Y-113062000D02*
X95677000Y-102835000D01*
X112566500Y-112233000D02*
X112566500Y-103787500D01*
X108058000Y-115408000D02*
X112122000Y-115408000D01*
X114550000Y-115804000D02*
X119950000Y-115804000D01*
X95042000Y-102200000D02*
X90978000Y-102200000D01*
X110995500Y-135004000D02*
X112566500Y-133433000D01*
X93050000Y-135004000D02*
X94935000Y-135004000D01*
X89120310Y-126364742D02*
X88981052Y-126504000D01*
X92883000Y-125004000D02*
X92104500Y-125004000D01*
X119950000Y-123004000D02*
X114550000Y-123004000D01*
X114550000Y-133504000D02*
X119950000Y-133504000D01*
X112122000Y-136608000D02*
X113979690Y-134750310D01*
X114550000Y-137004000D02*
X119950000Y-137004000D01*
X92104500Y-125004000D02*
X90533500Y-126575000D01*
X114550000Y-130004000D02*
X119950000Y-130004000D01*
X95677000Y-134262000D02*
X95677000Y-124035000D01*
X114118948Y-133504000D02*
X114550000Y-133504000D01*
X95677000Y-124035000D02*
X95042000Y-123400000D01*
X112566500Y-124987500D02*
X114550000Y-123004000D01*
X112566500Y-133433000D02*
X112566500Y-124987500D01*
X90978000Y-123400000D02*
X89120310Y-125257690D01*
X95042000Y-123400000D02*
X90978000Y-123400000D01*
X88550000Y-126504000D02*
X83150000Y-126504000D01*
X108058000Y-136608000D02*
X112122000Y-136608000D01*
X107423000Y-135973000D02*
X108058000Y-136608000D01*
X88981052Y-126504000D02*
X88550000Y-126504000D01*
X90533500Y-135020500D02*
X88550000Y-137004000D01*
X83150000Y-137004000D02*
X88550000Y-137004000D01*
X88550000Y-123004000D02*
X83150000Y-123004000D01*
X110217000Y-135004000D02*
X110995500Y-135004000D01*
X114550000Y-126504000D02*
X119950000Y-126504000D01*
X94935000Y-135004000D02*
X95677000Y-134262000D01*
X88550000Y-133504000D02*
X83150000Y-133504000D01*
X90533500Y-126575000D02*
X90533500Y-135020500D01*
X107423000Y-125746000D02*
X107423000Y-135973000D01*
X108165000Y-125004000D02*
X107423000Y-125746000D01*
X113979690Y-133643258D02*
X114118948Y-133504000D01*
X113979690Y-134750310D02*
X113979690Y-133643258D01*
X89120310Y-125257690D02*
X89120310Y-126364742D01*
X110050000Y-125004000D02*
X108165000Y-125004000D01*
X88550000Y-130004000D02*
X83150000Y-130004000D01*
M02*
