G04 #@! TF.GenerationSoftware,KiCad,Pcbnew,(5.1.0)-1*
G04 #@! TF.CreationDate,2019-05-30T22:41:52-04:00*
G04 #@! TF.ProjectId,phoenix-adapter,70686f65-6e69-4782-9d61-646170746572,0.1*
G04 #@! TF.SameCoordinates,Original*
G04 #@! TF.FileFunction,Legend,Bot*
G04 #@! TF.FilePolarity,Positive*
%FSLAX46Y46*%
G04 Gerber Fmt 4.6, Leading zero omitted, Abs format (unit mm)*
G04 Created by KiCad (PCBNEW (5.1.0)-1) date 2019-05-30 22:41:52*
%MOMM*%
%LPD*%
G04 APERTURE LIST*
%ADD10C,0.300000*%
%ADD11C,0.203200*%
G04 APERTURE END LIST*
D10*
X137691714Y-110914571D02*
X137691714Y-109414571D01*
X136977428Y-110914571D02*
X136977428Y-109414571D01*
X136120285Y-110914571D01*
X136120285Y-109414571D01*
D11*
X147235333Y-114554000D02*
X146896666Y-114554000D01*
X147108333Y-114257666D02*
X147108333Y-115019666D01*
X147066000Y-115104333D01*
X146981333Y-115146666D01*
X146896666Y-115146666D01*
X146600333Y-115146666D02*
X146600333Y-114554000D01*
X146600333Y-114257666D02*
X146642666Y-114300000D01*
X146600333Y-114342333D01*
X146558000Y-114300000D01*
X146600333Y-114257666D01*
X146600333Y-114342333D01*
X146177000Y-114554000D02*
X146177000Y-115146666D01*
X146177000Y-114638666D02*
X146134666Y-114596333D01*
X146050000Y-114554000D01*
X145923000Y-114554000D01*
X145838333Y-114596333D01*
X145796000Y-114681000D01*
X145796000Y-115146666D01*
X145372666Y-115146666D02*
X145372666Y-114257666D01*
X145288000Y-114808000D02*
X145034000Y-115146666D01*
X145034000Y-114554000D02*
X145372666Y-114892666D01*
X144314333Y-115104333D02*
X144399000Y-115146666D01*
X144568333Y-115146666D01*
X144653000Y-115104333D01*
X144695333Y-115019666D01*
X144695333Y-114681000D01*
X144653000Y-114596333D01*
X144568333Y-114554000D01*
X144399000Y-114554000D01*
X144314333Y-114596333D01*
X144272000Y-114681000D01*
X144272000Y-114765666D01*
X144695333Y-114850333D01*
X143891000Y-115146666D02*
X143891000Y-114554000D01*
X143891000Y-114723333D02*
X143848666Y-114638666D01*
X143806333Y-114596333D01*
X143721666Y-114554000D01*
X143637000Y-114554000D01*
X143340666Y-114554000D02*
X143340666Y-115443000D01*
X143340666Y-114596333D02*
X143256000Y-114554000D01*
X143086666Y-114554000D01*
X143002000Y-114596333D01*
X142959666Y-114638666D01*
X142917333Y-114723333D01*
X142917333Y-114977333D01*
X142959666Y-115062000D01*
X143002000Y-115104333D01*
X143086666Y-115146666D01*
X143256000Y-115146666D01*
X143340666Y-115104333D01*
X142409333Y-115146666D02*
X142494000Y-115104333D01*
X142536333Y-115019666D01*
X142536333Y-114257666D01*
X141689666Y-114554000D02*
X141689666Y-115146666D01*
X142070666Y-114554000D02*
X142070666Y-115019666D01*
X142028333Y-115104333D01*
X141943666Y-115146666D01*
X141816666Y-115146666D01*
X141732000Y-115104333D01*
X141689666Y-115062000D01*
X141266333Y-114554000D02*
X141266333Y-115146666D01*
X141266333Y-114638666D02*
X141224000Y-114596333D01*
X141139333Y-114554000D01*
X141012333Y-114554000D01*
X140927666Y-114596333D01*
X140885333Y-114681000D01*
X140885333Y-115146666D01*
X140462000Y-115146666D02*
X140462000Y-114257666D01*
X140377333Y-114808000D02*
X140123333Y-115146666D01*
X140123333Y-114554000D02*
X140462000Y-114892666D01*
X139742333Y-115062000D02*
X139700000Y-115104333D01*
X139742333Y-115146666D01*
X139784666Y-115104333D01*
X139742333Y-115062000D01*
X139742333Y-115146666D01*
X138938000Y-115104333D02*
X139022666Y-115146666D01*
X139192000Y-115146666D01*
X139276666Y-115104333D01*
X139319000Y-115062000D01*
X139361333Y-114977333D01*
X139361333Y-114723333D01*
X139319000Y-114638666D01*
X139276666Y-114596333D01*
X139192000Y-114554000D01*
X139022666Y-114554000D01*
X138938000Y-114596333D01*
X138430000Y-115146666D02*
X138514666Y-115104333D01*
X138557000Y-115062000D01*
X138599333Y-114977333D01*
X138599333Y-114723333D01*
X138557000Y-114638666D01*
X138514666Y-114596333D01*
X138430000Y-114554000D01*
X138303000Y-114554000D01*
X138218333Y-114596333D01*
X138176000Y-114638666D01*
X138133666Y-114723333D01*
X138133666Y-114977333D01*
X138176000Y-115062000D01*
X138218333Y-115104333D01*
X138303000Y-115146666D01*
X138430000Y-115146666D01*
X137752666Y-115146666D02*
X137752666Y-114554000D01*
X137752666Y-114638666D02*
X137710333Y-114596333D01*
X137625666Y-114554000D01*
X137498666Y-114554000D01*
X137414000Y-114596333D01*
X137371666Y-114681000D01*
X137371666Y-115146666D01*
X137371666Y-114681000D02*
X137329333Y-114596333D01*
X137244666Y-114554000D01*
X137117666Y-114554000D01*
X137033000Y-114596333D01*
X136990666Y-114681000D01*
X136990666Y-115146666D01*
X146833166Y-113813166D02*
X146833166Y-112924166D01*
X146833166Y-113770833D02*
X146917833Y-113813166D01*
X147087166Y-113813166D01*
X147171833Y-113770833D01*
X147214166Y-113728500D01*
X147256500Y-113643833D01*
X147256500Y-113389833D01*
X147214166Y-113305166D01*
X147171833Y-113262833D01*
X147087166Y-113220500D01*
X146917833Y-113220500D01*
X146833166Y-113262833D01*
X146409833Y-113813166D02*
X146409833Y-112924166D01*
X146409833Y-113262833D02*
X146325166Y-113220500D01*
X146155833Y-113220500D01*
X146071166Y-113262833D01*
X146028833Y-113305166D01*
X145986500Y-113389833D01*
X145986500Y-113643833D01*
X146028833Y-113728500D01*
X146071166Y-113770833D01*
X146155833Y-113813166D01*
X146325166Y-113813166D01*
X146409833Y-113770833D01*
X145605500Y-113474500D02*
X144928166Y-113474500D01*
X144166166Y-113770833D02*
X144250833Y-113813166D01*
X144420166Y-113813166D01*
X144504833Y-113770833D01*
X144547166Y-113686166D01*
X144547166Y-113347500D01*
X144504833Y-113262833D01*
X144420166Y-113220500D01*
X144250833Y-113220500D01*
X144166166Y-113262833D01*
X144123833Y-113347500D01*
X144123833Y-113432166D01*
X144547166Y-113516833D01*
X143615833Y-113813166D02*
X143700500Y-113770833D01*
X143742833Y-113686166D01*
X143742833Y-112924166D01*
X142938500Y-113770833D02*
X143023166Y-113813166D01*
X143192500Y-113813166D01*
X143277166Y-113770833D01*
X143319500Y-113686166D01*
X143319500Y-113347500D01*
X143277166Y-113262833D01*
X143192500Y-113220500D01*
X143023166Y-113220500D01*
X142938500Y-113262833D01*
X142896166Y-113347500D01*
X142896166Y-113432166D01*
X143319500Y-113516833D01*
X142134166Y-113770833D02*
X142218833Y-113813166D01*
X142388166Y-113813166D01*
X142472833Y-113770833D01*
X142515166Y-113728500D01*
X142557500Y-113643833D01*
X142557500Y-113389833D01*
X142515166Y-113305166D01*
X142472833Y-113262833D01*
X142388166Y-113220500D01*
X142218833Y-113220500D01*
X142134166Y-113262833D01*
X141880166Y-113220500D02*
X141541500Y-113220500D01*
X141753166Y-112924166D02*
X141753166Y-113686166D01*
X141710833Y-113770833D01*
X141626166Y-113813166D01*
X141541500Y-113813166D01*
X141245166Y-113813166D02*
X141245166Y-113220500D01*
X141245166Y-113389833D02*
X141202833Y-113305166D01*
X141160500Y-113262833D01*
X141075833Y-113220500D01*
X140991166Y-113220500D01*
X140567833Y-113813166D02*
X140652500Y-113770833D01*
X140694833Y-113728500D01*
X140737166Y-113643833D01*
X140737166Y-113389833D01*
X140694833Y-113305166D01*
X140652500Y-113262833D01*
X140567833Y-113220500D01*
X140440833Y-113220500D01*
X140356166Y-113262833D01*
X140313833Y-113305166D01*
X140271500Y-113389833D01*
X140271500Y-113643833D01*
X140313833Y-113728500D01*
X140356166Y-113770833D01*
X140440833Y-113813166D01*
X140567833Y-113813166D01*
X139890500Y-113220500D02*
X139890500Y-113813166D01*
X139890500Y-113305166D02*
X139848166Y-113262833D01*
X139763500Y-113220500D01*
X139636500Y-113220500D01*
X139551833Y-113262833D01*
X139509500Y-113347500D01*
X139509500Y-113813166D01*
X139086166Y-113813166D02*
X139086166Y-113220500D01*
X139086166Y-112924166D02*
X139128500Y-112966500D01*
X139086166Y-113008833D01*
X139043833Y-112966500D01*
X139086166Y-112924166D01*
X139086166Y-113008833D01*
X138281833Y-113770833D02*
X138366500Y-113813166D01*
X138535833Y-113813166D01*
X138620500Y-113770833D01*
X138662833Y-113728500D01*
X138705166Y-113643833D01*
X138705166Y-113389833D01*
X138662833Y-113305166D01*
X138620500Y-113262833D01*
X138535833Y-113220500D01*
X138366500Y-113220500D01*
X138281833Y-113262833D01*
X137943166Y-113770833D02*
X137858500Y-113813166D01*
X137689166Y-113813166D01*
X137604500Y-113770833D01*
X137562166Y-113686166D01*
X137562166Y-113643833D01*
X137604500Y-113559166D01*
X137689166Y-113516833D01*
X137816166Y-113516833D01*
X137900833Y-113474500D01*
X137943166Y-113389833D01*
X137943166Y-113347500D01*
X137900833Y-113262833D01*
X137816166Y-113220500D01*
X137689166Y-113220500D01*
X137604500Y-113262833D01*
X137181166Y-113728500D02*
X137138833Y-113770833D01*
X137181166Y-113813166D01*
X137223500Y-113770833D01*
X137181166Y-113728500D01*
X137181166Y-113813166D01*
X136376833Y-113770833D02*
X136461500Y-113813166D01*
X136630833Y-113813166D01*
X136715500Y-113770833D01*
X136757833Y-113728500D01*
X136800166Y-113643833D01*
X136800166Y-113389833D01*
X136757833Y-113305166D01*
X136715500Y-113262833D01*
X136630833Y-113220500D01*
X136461500Y-113220500D01*
X136376833Y-113262833D01*
X135614833Y-113813166D02*
X135614833Y-113347500D01*
X135657166Y-113262833D01*
X135741833Y-113220500D01*
X135911166Y-113220500D01*
X135995833Y-113262833D01*
X135614833Y-113770833D02*
X135699500Y-113813166D01*
X135911166Y-113813166D01*
X135995833Y-113770833D01*
X136038166Y-113686166D01*
X136038166Y-113601500D01*
X135995833Y-113516833D01*
X135911166Y-113474500D01*
X135699500Y-113474500D01*
X135614833Y-113432166D01*
M02*
