G04 #@! TF.GenerationSoftware,KiCad,Pcbnew,(5.1.0)-1*
G04 #@! TF.CreationDate,2019-05-30T22:41:51-04:00*
G04 #@! TF.ProjectId,phoenix-adapter,70686f65-6e69-4782-9d61-646170746572,0.1*
G04 #@! TF.SameCoordinates,Original*
G04 #@! TF.FileFunction,Copper,L2,Bot*
G04 #@! TF.FilePolarity,Positive*
%FSLAX46Y46*%
G04 Gerber Fmt 4.6, Leading zero omitted, Abs format (unit mm)*
G04 Created by KiCad (PCBNEW (5.1.0)-1) date 2019-05-30 22:41:51*
%MOMM*%
%LPD*%
G04 APERTURE LIST*
%ADD10R,1.800000X2.500000*%
%ADD11R,2.500000X1.800000*%
%ADD12C,0.609600*%
%ADD13C,0.635000*%
G04 APERTURE END LIST*
D10*
X144700000Y-116800000D03*
X134700000Y-116800000D03*
D11*
X139700000Y-111800000D03*
D10*
X142200000Y-116800000D03*
X137200000Y-116800000D03*
D12*
X143200000Y-121300000D03*
X139700000Y-121300000D03*
X132700000Y-121300000D03*
X146700000Y-121300000D03*
X136200000Y-121300000D03*
D13*
X143200000Y-121300000D02*
X143200000Y-126700000D01*
X139700000Y-121300000D02*
X139700000Y-126700000D01*
X132700000Y-121300000D02*
X132700000Y-126700000D01*
X146700000Y-121300000D02*
X146700000Y-126700000D01*
X136200000Y-121300000D02*
X136200000Y-126700000D01*
X137815000Y-111800000D02*
X135442000Y-114173000D01*
X139700000Y-111800000D02*
X137815000Y-111800000D01*
X135442000Y-114173000D02*
X133477000Y-114173000D01*
X133477000Y-114173000D02*
X132700000Y-114950000D01*
X137942052Y-119111000D02*
X139700000Y-120868948D01*
X132700000Y-119111000D02*
X137942052Y-119111000D01*
X132700000Y-114950000D02*
X132700000Y-119111000D01*
X141585000Y-111800000D02*
X143958000Y-114173000D01*
X139700000Y-111800000D02*
X141585000Y-111800000D01*
X143958000Y-114173000D02*
X145669000Y-114173000D01*
X145669000Y-114173000D02*
X146700000Y-115204000D01*
X139700000Y-120868948D02*
X139700000Y-121300000D01*
X141427948Y-119141000D02*
X139700000Y-120868948D01*
X146700000Y-115204000D02*
X146700000Y-119141000D01*
X132700000Y-119111000D02*
X132700000Y-121300000D01*
X143200000Y-119227000D02*
X143114000Y-119141000D01*
X143200000Y-121300000D02*
X143200000Y-119227000D01*
X146700000Y-119141000D02*
X143114000Y-119141000D01*
X143114000Y-119141000D02*
X141427948Y-119141000D01*
M02*
