M48
; DRILL file {KiCad (5.1.0)-1} date 5/31/2019 1:19:39 AM
; FORMAT={-:-/ absolute / inch / decimal}
; #@! TF.CreationDate,2019-05-31T01:19:39-04:00
; #@! TF.GenerationSoftware,Kicad,Pcbnew,(5.1.0)-1
FMAT,2
INCH
T1C0.0120
T2C0.0315
T3C0.0197
T4C0.0472
%
G90
G05
T1
X3.4862Y-2.5356
X3.4862Y-2.6734
X3.4862Y-2.8112
X3.4862Y-2.949
X3.4862Y-3.0868
X3.4862Y-3.1734
X3.4862Y-3.3112
X3.4862Y-3.449
X3.4862Y-3.5868
X3.4862Y-3.7246
X3.4862Y-3.8899
X3.4862Y-4.0277
X3.4862Y-4.1655
X3.4862Y-4.3033
X3.4862Y-4.4411
X3.4862Y-4.5277
X3.4862Y-4.6655
X3.4862Y-4.8033
X3.4862Y-4.9411
X3.4862Y-5.0789
X3.4862Y-5.1655
X3.4862Y-5.3033
X3.4862Y-5.4411
X3.4862Y-5.5789
X3.4862Y-5.7167
X4.5098Y-2.5356
X4.5098Y-2.6734
X4.5098Y-2.8112
X4.5098Y-2.949
X4.5098Y-3.0868
X4.5098Y-3.1734
X4.5098Y-3.3112
X4.5098Y-3.449
X4.5098Y-3.5868
X4.5098Y-3.7246
X4.5098Y-3.8899
X4.5098Y-4.0277
X4.5098Y-4.1655
X4.5098Y-4.3033
X4.5098Y-4.4411
X4.5098Y-4.5277
X4.5098Y-4.6655
X4.5098Y-4.8033
X4.5098Y-4.9411
X4.5098Y-5.0789
X4.5098Y-5.1655
X4.5098Y-5.3033
X4.5098Y-5.4411
X4.5098Y-5.5789
X4.5098Y-5.7167
X5.3366Y-2.5356
X5.3366Y-2.6734
X5.3366Y-2.8112
X5.3366Y-2.949
X5.3366Y-3.0868
X5.3366Y-3.1734
X5.3366Y-3.3112
X5.3366Y-3.449
X5.3366Y-3.5868
X5.3366Y-3.7246
X5.3366Y-3.8899
X5.3366Y-4.0277
X5.3366Y-4.1655
X5.3366Y-4.3033
X5.3366Y-4.4411
X5.3366Y-4.5277
X5.3366Y-4.6655
X5.3366Y-4.8033
X5.3366Y-4.9411
X5.3366Y-5.0789
X5.3366Y-5.1655
X5.3366Y-5.3033
X5.3366Y-5.4411
X5.3366Y-5.5789
X5.3366Y-5.7167
X6.3602Y-2.5356
X6.3602Y-2.6734
X6.3602Y-2.8112
X6.3602Y-2.949
X6.3602Y-3.0868
X6.3602Y-3.1734
X6.3602Y-3.3112
X6.3602Y-3.449
X6.3602Y-3.5868
X6.3602Y-3.7246
X6.3602Y-3.8899
X6.3602Y-4.0277
X6.3602Y-4.1655
X6.3602Y-4.3033
X6.3602Y-4.4411
X6.3602Y-4.5277
X6.3602Y-4.6655
X6.3602Y-4.8033
X6.3602Y-4.9411
X6.3602Y-5.0789
X6.3602Y-5.1655
X6.3602Y-5.3033
X6.3602Y-5.4411
X6.3602Y-5.5789
X6.3602Y-5.7167
T3
X3.676Y-2.4234
X3.676Y-2.4824
X3.7055Y-2.4234
X3.7055Y-2.4824
X3.735Y-2.4234
X3.735Y-2.4824
X3.6705Y-3.7777
X3.6705Y-3.8368
X3.7Y-3.7777
X3.7Y-3.8368
X3.7295Y-3.7777
X3.7295Y-3.8368
X5.5209Y-5.7698
X5.5209Y-5.8289
X5.5504Y-5.7698
X5.5504Y-5.8289
X5.5799Y-5.7698
X5.5799Y-5.8289
X6.1114Y-5.7698
X6.1114Y-5.8289
X6.1409Y-5.7698
X6.1409Y-5.8289
X6.1705Y-5.7698
X6.1705Y-5.8289
X4.261Y-5.7698
X4.261Y-5.8289
X4.2906Y-5.7698
X4.2906Y-5.8289
X4.3201Y-5.7698
X4.3201Y-5.8289
X5.5209Y-3.7777
X5.5209Y-3.8368
X5.5504Y-3.7777
X5.5504Y-3.8368
X5.5799Y-3.7777
X5.5799Y-3.8368
X6.1169Y-2.4234
X6.1169Y-2.4824
X6.1465Y-2.4234
X6.1465Y-2.4824
X6.176Y-2.4234
X6.176Y-2.4824
X3.676Y-2.4234
X3.676Y-2.4824
X3.7055Y-2.4234
X3.7055Y-2.4824
X3.735Y-2.4234
X3.735Y-2.4824
X6.1114Y-3.7777
X6.1114Y-3.8368
X6.1409Y-3.7777
X6.1409Y-3.8368
X6.1705Y-3.7777
X6.1705Y-3.8368
X4.261Y-5.7698
X4.261Y-5.8289
X4.2906Y-5.7698
X4.2906Y-5.8289
X4.3201Y-5.7698
X4.3201Y-5.8289
X3.6705Y-5.7698
X3.6705Y-5.8289
X3.7Y-5.7698
X3.7Y-5.8289
X3.7295Y-5.7698
X3.7295Y-5.8289
X5.5264Y-2.4234
X5.5264Y-2.4824
X5.5559Y-2.4234
X5.5559Y-2.4824
X5.5854Y-2.4234
X5.5854Y-2.4824
X5.5264Y-2.4234
X5.5264Y-2.4824
X5.5559Y-2.4234
X5.5559Y-2.4824
X5.5854Y-2.4234
X5.5854Y-2.4824
X4.261Y-3.7777
X4.261Y-3.8368
X4.2906Y-3.7777
X4.2906Y-3.8368
X4.3201Y-3.7777
X4.3201Y-3.8368
X4.2665Y-2.4234
X4.2665Y-2.4824
X4.2961Y-2.4234
X4.2961Y-2.4824
X4.3256Y-2.4234
X4.3256Y-2.4824
X6.1114Y-5.7698
X6.1114Y-5.8289
X6.1409Y-5.7698
X6.1409Y-5.8289
X6.1705Y-5.7698
X6.1705Y-5.8289
T4
X3.6634Y-2.8112
X3.8602Y-2.6143
X3.8602Y-3.008
X3.9587Y-2.6143
X3.9587Y-3.008
X5.8878Y-3.2521
X5.8878Y-3.6458
X5.9862Y-3.2521
X5.9862Y-3.6458
X6.1831Y-3.449
X3.6634Y-4.1655
X3.8602Y-3.9687
X3.8602Y-4.3624
X3.9587Y-3.9687
X3.9587Y-4.3624
X5.8878Y-5.2443
X5.8878Y-5.638
X5.9862Y-5.2443
X5.9862Y-5.638
X6.1831Y-5.4411
X4.0374Y-4.6065
X4.0374Y-5.0002
X4.1358Y-4.6065
X4.1358Y-5.0002
X4.3327Y-4.8033
X3.6634Y-5.4411
X3.8602Y-5.2443
X3.8602Y-5.638
X3.9587Y-5.2443
X3.9587Y-5.638
X5.5138Y-4.8033
X5.7106Y-4.6065
X5.7106Y-5.0002
X5.8091Y-4.6065
X5.8091Y-5.0002
X4.0374Y-2.6143
X4.0374Y-3.008
X4.1358Y-2.6143
X4.1358Y-3.008
X4.3327Y-2.8112
X3.6634Y-4.8033
X3.8602Y-4.6065
X3.8602Y-5.0002
X3.9587Y-4.6065
X3.9587Y-5.0002
X4.0374Y-3.9687
X4.0374Y-4.3624
X4.1358Y-3.9687
X4.1358Y-4.3624
X4.3327Y-4.1655
X4.0374Y-5.2443
X4.0374Y-5.638
X4.1358Y-5.2443
X4.1358Y-5.638
X4.3327Y-5.4411
X5.5138Y-2.8112
X5.7106Y-2.6143
X5.7106Y-3.008
X5.8091Y-2.6143
X5.8091Y-3.008
X5.5138Y-5.4411
X5.7106Y-5.2443
X5.7106Y-5.638
X5.8091Y-5.2443
X5.8091Y-5.638
X5.5138Y-3.449
X5.7106Y-3.2521
X5.7106Y-3.6458
X5.8091Y-3.2521
X5.8091Y-3.6458
X3.6634Y-3.449
X3.8602Y-3.2521
X3.8602Y-3.6458
X3.9587Y-3.2521
X3.9587Y-3.6458
X5.8878Y-3.9687
X5.8878Y-4.3624
X5.9862Y-3.9687
X5.9862Y-4.3624
X6.1831Y-4.1655
X5.8878Y-4.6065
X5.8878Y-5.0002
X5.9862Y-4.6065
X5.9862Y-5.0002
X6.1831Y-4.8033
X5.8878Y-2.6143
X5.8878Y-3.008
X5.9862Y-2.6143
X5.9862Y-3.008
X6.1831Y-2.8112
X4.0374Y-3.2521
X4.0374Y-3.6458
X4.1358Y-3.2521
X4.1358Y-3.6458
X4.3327Y-3.449
X5.5138Y-4.1655
X5.7106Y-3.9687
X5.7106Y-4.3624
X5.8091Y-3.9687
X5.8091Y-4.3624
T2
G00X4.1358Y-3.4352
M15
G01X4.1358Y-3.4628
M16
G05
G00X4.3189Y-3.2521
M15
G01X4.3465Y-3.2521
M16
G05
G00X4.3189Y-3.3506
M15
G01X4.3465Y-3.3506
M16
G05
G00X4.3189Y-3.5474
M15
G01X4.3465Y-3.5474
M16
G05
G00X4.3189Y-3.6458
M15
G01X4.3465Y-3.6458
M16
G05
G00X5.5276Y-3.9687
M15
G01X5.5Y-3.9687
M16
G05
G00X5.5276Y-4.0671
M15
G01X5.5Y-4.0671
M16
G05
G00X5.5276Y-4.2639
M15
G01X5.5Y-4.2639
M16
G05
G00X5.5276Y-4.3624
M15
G01X5.5Y-4.3624
M16
G05
G00X5.7106Y-4.1793
M15
G01X5.7106Y-4.1517
M16
G05
G00X3.6772Y-2.6143
M15
G01X3.6496Y-2.6143
M16
G05
G00X3.6772Y-2.7128
M15
G01X3.6496Y-2.7128
M16
G05
G00X3.6772Y-2.9096
M15
G01X3.6496Y-2.9096
M16
G05
G00X3.6772Y-3.008
M15
G01X3.6496Y-3.008
M16
G05
G00X3.8602Y-2.825
M15
G01X3.8602Y-2.7974
M16
G05
G00X5.9862Y-3.4352
M15
G01X5.9862Y-3.4628
M16
G05
G00X6.1693Y-3.2521
M15
G01X6.1969Y-3.2521
M16
G05
G00X6.1693Y-3.3506
M15
G01X6.1969Y-3.3506
M16
G05
G00X6.1693Y-3.5474
M15
G01X6.1969Y-3.5474
M16
G05
G00X6.1693Y-3.6458
M15
G01X6.1969Y-3.6458
M16
G05
G00X3.6772Y-3.9687
M15
G01X3.6496Y-3.9687
M16
G05
G00X3.6772Y-4.0671
M15
G01X3.6496Y-4.0671
M16
G05
G00X3.6772Y-4.2639
M15
G01X3.6496Y-4.2639
M16
G05
G00X3.6772Y-4.3624
M15
G01X3.6496Y-4.3624
M16
G05
G00X3.8602Y-4.1793
M15
G01X3.8602Y-4.1517
M16
G05
G00X5.9862Y-5.4273
M15
G01X5.9862Y-5.4549
M16
G05
G00X6.1693Y-5.2443
M15
G01X6.1969Y-5.2443
M16
G05
G00X6.1693Y-5.3427
M15
G01X6.1969Y-5.3427
M16
G05
G00X6.1693Y-5.5395
M15
G01X6.1969Y-5.5395
M16
G05
G00X6.1693Y-5.638
M15
G01X6.1969Y-5.638
M16
G05
G00X4.1358Y-4.7895
M15
G01X4.1358Y-4.8171
M16
G05
G00X4.3189Y-4.6065
M15
G01X4.3465Y-4.6065
M16
G05
G00X4.3189Y-4.7049
M15
G01X4.3465Y-4.7049
M16
G05
G00X4.3189Y-4.9017
M15
G01X4.3465Y-4.9017
M16
G05
G00X4.3189Y-5.0002
M15
G01X4.3465Y-5.0002
M16
G05
G00X3.6772Y-5.2443
M15
G01X3.6496Y-5.2443
M16
G05
G00X3.6772Y-5.3427
M15
G01X3.6496Y-5.3427
M16
G05
G00X3.6772Y-5.5395
M15
G01X3.6496Y-5.5395
M16
G05
G00X3.6772Y-5.638
M15
G01X3.6496Y-5.638
M16
G05
G00X3.8602Y-5.4549
M15
G01X3.8602Y-5.4273
M16
G05
G00X5.5276Y-4.6065
M15
G01X5.5Y-4.6065
M16
G05
G00X5.5276Y-4.7049
M15
G01X5.5Y-4.7049
M16
G05
G00X5.5276Y-4.9017
M15
G01X5.5Y-4.9017
M16
G05
G00X5.5276Y-5.0002
M15
G01X5.5Y-5.0002
M16
G05
G00X5.7106Y-4.8171
M15
G01X5.7106Y-4.7895
M16
G05
G00X4.1358Y-2.7974
M15
G01X4.1358Y-2.825
M16
G05
G00X4.3189Y-2.6143
M15
G01X4.3465Y-2.6143
M16
G05
G00X4.3189Y-2.7128
M15
G01X4.3465Y-2.7128
M16
G05
G00X4.3189Y-2.9096
M15
G01X4.3465Y-2.9096
M16
G05
G00X4.3189Y-3.008
M15
G01X4.3465Y-3.008
M16
G05
G00X3.6772Y-4.6065
M15
G01X3.6496Y-4.6065
M16
G05
G00X3.6772Y-4.7049
M15
G01X3.6496Y-4.7049
M16
G05
G00X3.6772Y-4.9017
M15
G01X3.6496Y-4.9017
M16
G05
G00X3.6772Y-5.0002
M15
G01X3.6496Y-5.0002
M16
G05
G00X3.8602Y-4.8171
M15
G01X3.8602Y-4.7895
M16
G05
G00X4.1358Y-4.1517
M15
G01X4.1358Y-4.1793
M16
G05
G00X4.3189Y-3.9687
M15
G01X4.3465Y-3.9687
M16
G05
G00X4.3189Y-4.0671
M15
G01X4.3465Y-4.0671
M16
G05
G00X4.3189Y-4.2639
M15
G01X4.3465Y-4.2639
M16
G05
G00X4.3189Y-4.3624
M15
G01X4.3465Y-4.3624
M16
G05
G00X4.1358Y-5.4273
M15
G01X4.1358Y-5.4549
M16
G05
G00X4.3189Y-5.2443
M15
G01X4.3465Y-5.2443
M16
G05
G00X4.3189Y-5.3427
M15
G01X4.3465Y-5.3427
M16
G05
G00X4.3189Y-5.5395
M15
G01X4.3465Y-5.5395
M16
G05
G00X4.3189Y-5.638
M15
G01X4.3465Y-5.638
M16
G05
G00X5.5276Y-2.6143
M15
G01X5.5Y-2.6143
M16
G05
G00X5.5276Y-2.7128
M15
G01X5.5Y-2.7128
M16
G05
G00X5.5276Y-2.9096
M15
G01X5.5Y-2.9096
M16
G05
G00X5.5276Y-3.008
M15
G01X5.5Y-3.008
M16
G05
G00X5.7106Y-2.825
M15
G01X5.7106Y-2.7974
M16
G05
G00X5.5276Y-5.2443
M15
G01X5.5Y-5.2443
M16
G05
G00X5.5276Y-5.3427
M15
G01X5.5Y-5.3427
M16
G05
G00X5.5276Y-5.5395
M15
G01X5.5Y-5.5395
M16
G05
G00X5.5276Y-5.638
M15
G01X5.5Y-5.638
M16
G05
G00X5.7106Y-5.4549
M15
G01X5.7106Y-5.4273
M16
G05
G00X5.5276Y-3.2521
M15
G01X5.5Y-3.2521
M16
G05
G00X5.5276Y-3.3506
M15
G01X5.5Y-3.3506
M16
G05
G00X5.5276Y-3.5474
M15
G01X5.5Y-3.5474
M16
G05
G00X5.5276Y-3.6458
M15
G01X5.5Y-3.6458
M16
G05
G00X5.7106Y-3.4628
M15
G01X5.7106Y-3.4352
M16
G05
G00X3.6772Y-3.2521
M15
G01X3.6496Y-3.2521
M16
G05
G00X3.6772Y-3.3506
M15
G01X3.6496Y-3.3506
M16
G05
G00X3.6772Y-3.5474
M15
G01X3.6496Y-3.5474
M16
G05
G00X3.6772Y-3.6458
M15
G01X3.6496Y-3.6458
M16
G05
G00X3.8602Y-3.4628
M15
G01X3.8602Y-3.4352
M16
G05
G00X5.9862Y-4.1517
M15
G01X5.9862Y-4.1793
M16
G05
G00X6.1693Y-3.9687
M15
G01X6.1969Y-3.9687
M16
G05
G00X6.1693Y-4.0671
M15
G01X6.1969Y-4.0671
M16
G05
G00X6.1693Y-4.2639
M15
G01X6.1969Y-4.2639
M16
G05
G00X6.1693Y-4.3624
M15
G01X6.1969Y-4.3624
M16
G05
G00X5.9862Y-4.7895
M15
G01X5.9862Y-4.8171
M16
G05
G00X6.1693Y-4.6065
M15
G01X6.1969Y-4.6065
M16
G05
G00X6.1693Y-4.7049
M15
G01X6.1969Y-4.7049
M16
G05
G00X6.1693Y-4.9017
M15
G01X6.1969Y-4.9017
M16
G05
G00X6.1693Y-5.0002
M15
G01X6.1969Y-5.0002
M16
G05
G00X5.9862Y-2.7974
M15
G01X5.9862Y-2.825
M16
G05
G00X6.1693Y-2.6143
M15
G01X6.1969Y-2.6143
M16
G05
G00X6.1693Y-2.7128
M15
G01X6.1969Y-2.7128
M16
G05
G00X6.1693Y-2.9096
M15
G01X6.1969Y-2.9096
M16
G05
G00X6.1693Y-3.008
M15
G01X6.1969Y-3.008
M16
G05
T0
M30
