G04 #@! TF.GenerationSoftware,KiCad,Pcbnew,(5.1.0)-1*
G04 #@! TF.CreationDate,2019-05-31T01:19:27-04:00*
G04 #@! TF.ProjectId,10x-Input-10x-Output,3130782d-496e-4707-9574-2d3130782d4f,0.1*
G04 #@! TF.SameCoordinates,Original*
G04 #@! TF.FileFunction,Legend,Bot*
G04 #@! TF.FilePolarity,Positive*
%FSLAX46Y46*%
G04 Gerber Fmt 4.6, Leading zero omitted, Abs format (unit mm)*
G04 Created by KiCad (PCBNEW (5.1.0)-1) date 2019-05-31 01:19:27*
%MOMM*%
%LPD*%
G04 APERTURE LIST*
%ADD10C,0.300000*%
%ADD11C,0.203200*%
G04 APERTURE END LIST*
D10*
X149038571Y-138454000D02*
X149038571Y-138739714D01*
X149110000Y-138882571D01*
X149252857Y-139025428D01*
X149538571Y-139096857D01*
X150038571Y-139096857D01*
X150324285Y-139025428D01*
X150467142Y-138882571D01*
X150538571Y-138739714D01*
X150538571Y-138454000D01*
X150467142Y-138311142D01*
X150324285Y-138168285D01*
X150038571Y-138096857D01*
X149538571Y-138096857D01*
X149252857Y-138168285D01*
X149110000Y-138311142D01*
X149038571Y-138454000D01*
X149038571Y-139739714D02*
X150252857Y-139739714D01*
X150395714Y-139811142D01*
X150467142Y-139882571D01*
X150538571Y-140025428D01*
X150538571Y-140311142D01*
X150467142Y-140454000D01*
X150395714Y-140525428D01*
X150252857Y-140596857D01*
X149038571Y-140596857D01*
X149038571Y-141096857D02*
X149038571Y-141954000D01*
X150538571Y-141525428D02*
X149038571Y-141525428D01*
X149165571Y-87908000D02*
X149165571Y-88193714D01*
X149237000Y-88336571D01*
X149379857Y-88479428D01*
X149665571Y-88550857D01*
X150165571Y-88550857D01*
X150451285Y-88479428D01*
X150594142Y-88336571D01*
X150665571Y-88193714D01*
X150665571Y-87908000D01*
X150594142Y-87765142D01*
X150451285Y-87622285D01*
X150165571Y-87550857D01*
X149665571Y-87550857D01*
X149379857Y-87622285D01*
X149237000Y-87765142D01*
X149165571Y-87908000D01*
X149165571Y-89193714D02*
X150379857Y-89193714D01*
X150522714Y-89265142D01*
X150594142Y-89336571D01*
X150665571Y-89479428D01*
X150665571Y-89765142D01*
X150594142Y-89908000D01*
X150522714Y-89979428D01*
X150379857Y-90050857D01*
X149165571Y-90050857D01*
X149165571Y-90550857D02*
X149165571Y-91408000D01*
X150665571Y-90979428D02*
X149165571Y-90979428D01*
D11*
X142296000Y-129539333D02*
X142296000Y-129200666D01*
X142592333Y-129412333D02*
X141830333Y-129412333D01*
X141745666Y-129370000D01*
X141703333Y-129285333D01*
X141703333Y-129200666D01*
X141703333Y-128904333D02*
X142296000Y-128904333D01*
X142592333Y-128904333D02*
X142550000Y-128946666D01*
X142507666Y-128904333D01*
X142550000Y-128862000D01*
X142592333Y-128904333D01*
X142507666Y-128904333D01*
X142296000Y-128481000D02*
X141703333Y-128481000D01*
X142211333Y-128481000D02*
X142253666Y-128438666D01*
X142296000Y-128354000D01*
X142296000Y-128227000D01*
X142253666Y-128142333D01*
X142169000Y-128100000D01*
X141703333Y-128100000D01*
X141703333Y-127676666D02*
X142592333Y-127676666D01*
X142042000Y-127592000D02*
X141703333Y-127338000D01*
X142296000Y-127338000D02*
X141957333Y-127676666D01*
X141745666Y-126618333D02*
X141703333Y-126703000D01*
X141703333Y-126872333D01*
X141745666Y-126957000D01*
X141830333Y-126999333D01*
X142169000Y-126999333D01*
X142253666Y-126957000D01*
X142296000Y-126872333D01*
X142296000Y-126703000D01*
X142253666Y-126618333D01*
X142169000Y-126576000D01*
X142084333Y-126576000D01*
X141999666Y-126999333D01*
X141703333Y-126195000D02*
X142296000Y-126195000D01*
X142126666Y-126195000D02*
X142211333Y-126152666D01*
X142253666Y-126110333D01*
X142296000Y-126025666D01*
X142296000Y-125941000D01*
X142296000Y-125644666D02*
X141407000Y-125644666D01*
X142253666Y-125644666D02*
X142296000Y-125560000D01*
X142296000Y-125390666D01*
X142253666Y-125306000D01*
X142211333Y-125263666D01*
X142126666Y-125221333D01*
X141872666Y-125221333D01*
X141788000Y-125263666D01*
X141745666Y-125306000D01*
X141703333Y-125390666D01*
X141703333Y-125560000D01*
X141745666Y-125644666D01*
X141703333Y-124713333D02*
X141745666Y-124798000D01*
X141830333Y-124840333D01*
X142592333Y-124840333D01*
X142296000Y-123993666D02*
X141703333Y-123993666D01*
X142296000Y-124374666D02*
X141830333Y-124374666D01*
X141745666Y-124332333D01*
X141703333Y-124247666D01*
X141703333Y-124120666D01*
X141745666Y-124036000D01*
X141788000Y-123993666D01*
X142296000Y-123570333D02*
X141703333Y-123570333D01*
X142211333Y-123570333D02*
X142253666Y-123528000D01*
X142296000Y-123443333D01*
X142296000Y-123316333D01*
X142253666Y-123231666D01*
X142169000Y-123189333D01*
X141703333Y-123189333D01*
X141703333Y-122766000D02*
X142592333Y-122766000D01*
X142042000Y-122681333D02*
X141703333Y-122427333D01*
X142296000Y-122427333D02*
X141957333Y-122766000D01*
X141788000Y-122046333D02*
X141745666Y-122004000D01*
X141703333Y-122046333D01*
X141745666Y-122088666D01*
X141788000Y-122046333D01*
X141703333Y-122046333D01*
X141745666Y-121242000D02*
X141703333Y-121326666D01*
X141703333Y-121496000D01*
X141745666Y-121580666D01*
X141788000Y-121623000D01*
X141872666Y-121665333D01*
X142126666Y-121665333D01*
X142211333Y-121623000D01*
X142253666Y-121580666D01*
X142296000Y-121496000D01*
X142296000Y-121326666D01*
X142253666Y-121242000D01*
X141703333Y-120734000D02*
X141745666Y-120818666D01*
X141788000Y-120861000D01*
X141872666Y-120903333D01*
X142126666Y-120903333D01*
X142211333Y-120861000D01*
X142253666Y-120818666D01*
X142296000Y-120734000D01*
X142296000Y-120607000D01*
X142253666Y-120522333D01*
X142211333Y-120480000D01*
X142126666Y-120437666D01*
X141872666Y-120437666D01*
X141788000Y-120480000D01*
X141745666Y-120522333D01*
X141703333Y-120607000D01*
X141703333Y-120734000D01*
X141703333Y-120056666D02*
X142296000Y-120056666D01*
X142211333Y-120056666D02*
X142253666Y-120014333D01*
X142296000Y-119929666D01*
X142296000Y-119802666D01*
X142253666Y-119718000D01*
X142169000Y-119675666D01*
X141703333Y-119675666D01*
X142169000Y-119675666D02*
X142253666Y-119633333D01*
X142296000Y-119548666D01*
X142296000Y-119421666D01*
X142253666Y-119337000D01*
X142169000Y-119294666D01*
X141703333Y-119294666D01*
X154804000Y-114468666D02*
X154804000Y-114807333D01*
X154507666Y-114595666D02*
X155269666Y-114595666D01*
X155354333Y-114638000D01*
X155396666Y-114722666D01*
X155396666Y-114807333D01*
X155396666Y-115103666D02*
X154804000Y-115103666D01*
X154507666Y-115103666D02*
X154550000Y-115061333D01*
X154592333Y-115103666D01*
X154550000Y-115146000D01*
X154507666Y-115103666D01*
X154592333Y-115103666D01*
X154804000Y-115527000D02*
X155396666Y-115527000D01*
X154888666Y-115527000D02*
X154846333Y-115569333D01*
X154804000Y-115654000D01*
X154804000Y-115781000D01*
X154846333Y-115865666D01*
X154931000Y-115908000D01*
X155396666Y-115908000D01*
X155396666Y-116331333D02*
X154507666Y-116331333D01*
X155058000Y-116416000D02*
X155396666Y-116670000D01*
X154804000Y-116670000D02*
X155142666Y-116331333D01*
X155354333Y-117389666D02*
X155396666Y-117305000D01*
X155396666Y-117135666D01*
X155354333Y-117051000D01*
X155269666Y-117008666D01*
X154931000Y-117008666D01*
X154846333Y-117051000D01*
X154804000Y-117135666D01*
X154804000Y-117305000D01*
X154846333Y-117389666D01*
X154931000Y-117432000D01*
X155015666Y-117432000D01*
X155100333Y-117008666D01*
X155396666Y-117813000D02*
X154804000Y-117813000D01*
X154973333Y-117813000D02*
X154888666Y-117855333D01*
X154846333Y-117897666D01*
X154804000Y-117982333D01*
X154804000Y-118067000D01*
X154804000Y-118363333D02*
X155693000Y-118363333D01*
X154846333Y-118363333D02*
X154804000Y-118448000D01*
X154804000Y-118617333D01*
X154846333Y-118702000D01*
X154888666Y-118744333D01*
X154973333Y-118786666D01*
X155227333Y-118786666D01*
X155312000Y-118744333D01*
X155354333Y-118702000D01*
X155396666Y-118617333D01*
X155396666Y-118448000D01*
X155354333Y-118363333D01*
X155396666Y-119294666D02*
X155354333Y-119210000D01*
X155269666Y-119167666D01*
X154507666Y-119167666D01*
X154804000Y-120014333D02*
X155396666Y-120014333D01*
X154804000Y-119633333D02*
X155269666Y-119633333D01*
X155354333Y-119675666D01*
X155396666Y-119760333D01*
X155396666Y-119887333D01*
X155354333Y-119972000D01*
X155312000Y-120014333D01*
X154804000Y-120437666D02*
X155396666Y-120437666D01*
X154888666Y-120437666D02*
X154846333Y-120480000D01*
X154804000Y-120564666D01*
X154804000Y-120691666D01*
X154846333Y-120776333D01*
X154931000Y-120818666D01*
X155396666Y-120818666D01*
X155396666Y-121242000D02*
X154507666Y-121242000D01*
X155058000Y-121326666D02*
X155396666Y-121580666D01*
X154804000Y-121580666D02*
X155142666Y-121242000D01*
X155312000Y-121961666D02*
X155354333Y-122004000D01*
X155396666Y-121961666D01*
X155354333Y-121919333D01*
X155312000Y-121961666D01*
X155396666Y-121961666D01*
X155354333Y-122766000D02*
X155396666Y-122681333D01*
X155396666Y-122512000D01*
X155354333Y-122427333D01*
X155312000Y-122385000D01*
X155227333Y-122342666D01*
X154973333Y-122342666D01*
X154888666Y-122385000D01*
X154846333Y-122427333D01*
X154804000Y-122512000D01*
X154804000Y-122681333D01*
X154846333Y-122766000D01*
X155396666Y-123274000D02*
X155354333Y-123189333D01*
X155312000Y-123147000D01*
X155227333Y-123104666D01*
X154973333Y-123104666D01*
X154888666Y-123147000D01*
X154846333Y-123189333D01*
X154804000Y-123274000D01*
X154804000Y-123401000D01*
X154846333Y-123485666D01*
X154888666Y-123528000D01*
X154973333Y-123570333D01*
X155227333Y-123570333D01*
X155312000Y-123528000D01*
X155354333Y-123485666D01*
X155396666Y-123401000D01*
X155396666Y-123274000D01*
X155396666Y-123951333D02*
X154804000Y-123951333D01*
X154888666Y-123951333D02*
X154846333Y-123993666D01*
X154804000Y-124078333D01*
X154804000Y-124205333D01*
X154846333Y-124290000D01*
X154931000Y-124332333D01*
X155396666Y-124332333D01*
X154931000Y-124332333D02*
X154846333Y-124374666D01*
X154804000Y-124459333D01*
X154804000Y-124586333D01*
X154846333Y-124671000D01*
X154931000Y-124713333D01*
X155396666Y-124713333D01*
D10*
X148014428Y-121515000D02*
X148014428Y-121229285D01*
X147943000Y-121086428D01*
X147800142Y-120943571D01*
X147514428Y-120872142D01*
X147014428Y-120872142D01*
X146728714Y-120943571D01*
X146585857Y-121086428D01*
X146514428Y-121229285D01*
X146514428Y-121515000D01*
X146585857Y-121657857D01*
X146728714Y-121800714D01*
X147014428Y-121872142D01*
X147514428Y-121872142D01*
X147800142Y-121800714D01*
X147943000Y-121657857D01*
X148014428Y-121515000D01*
X148014428Y-120229285D02*
X146800142Y-120229285D01*
X146657285Y-120157857D01*
X146585857Y-120086428D01*
X146514428Y-119943571D01*
X146514428Y-119657857D01*
X146585857Y-119515000D01*
X146657285Y-119443571D01*
X146800142Y-119372142D01*
X148014428Y-119372142D01*
X148014428Y-118872142D02*
X148014428Y-118015000D01*
X146514428Y-118443571D02*
X148014428Y-118443571D01*
D11*
X154804000Y-80068666D02*
X154804000Y-80407333D01*
X154507666Y-80195666D02*
X155269666Y-80195666D01*
X155354333Y-80238000D01*
X155396666Y-80322666D01*
X155396666Y-80407333D01*
X155396666Y-80703666D02*
X154804000Y-80703666D01*
X154507666Y-80703666D02*
X154550000Y-80661333D01*
X154592333Y-80703666D01*
X154550000Y-80746000D01*
X154507666Y-80703666D01*
X154592333Y-80703666D01*
X154804000Y-81127000D02*
X155396666Y-81127000D01*
X154888666Y-81127000D02*
X154846333Y-81169333D01*
X154804000Y-81254000D01*
X154804000Y-81381000D01*
X154846333Y-81465666D01*
X154931000Y-81508000D01*
X155396666Y-81508000D01*
X155396666Y-81931333D02*
X154507666Y-81931333D01*
X155058000Y-82016000D02*
X155396666Y-82270000D01*
X154804000Y-82270000D02*
X155142666Y-81931333D01*
X155354333Y-82989666D02*
X155396666Y-82905000D01*
X155396666Y-82735666D01*
X155354333Y-82651000D01*
X155269666Y-82608666D01*
X154931000Y-82608666D01*
X154846333Y-82651000D01*
X154804000Y-82735666D01*
X154804000Y-82905000D01*
X154846333Y-82989666D01*
X154931000Y-83032000D01*
X155015666Y-83032000D01*
X155100333Y-82608666D01*
X155396666Y-83413000D02*
X154804000Y-83413000D01*
X154973333Y-83413000D02*
X154888666Y-83455333D01*
X154846333Y-83497666D01*
X154804000Y-83582333D01*
X154804000Y-83667000D01*
X154804000Y-83963333D02*
X155693000Y-83963333D01*
X154846333Y-83963333D02*
X154804000Y-84048000D01*
X154804000Y-84217333D01*
X154846333Y-84302000D01*
X154888666Y-84344333D01*
X154973333Y-84386666D01*
X155227333Y-84386666D01*
X155312000Y-84344333D01*
X155354333Y-84302000D01*
X155396666Y-84217333D01*
X155396666Y-84048000D01*
X155354333Y-83963333D01*
X155396666Y-84894666D02*
X155354333Y-84810000D01*
X155269666Y-84767666D01*
X154507666Y-84767666D01*
X154804000Y-85614333D02*
X155396666Y-85614333D01*
X154804000Y-85233333D02*
X155269666Y-85233333D01*
X155354333Y-85275666D01*
X155396666Y-85360333D01*
X155396666Y-85487333D01*
X155354333Y-85572000D01*
X155312000Y-85614333D01*
X154804000Y-86037666D02*
X155396666Y-86037666D01*
X154888666Y-86037666D02*
X154846333Y-86080000D01*
X154804000Y-86164666D01*
X154804000Y-86291666D01*
X154846333Y-86376333D01*
X154931000Y-86418666D01*
X155396666Y-86418666D01*
X155396666Y-86842000D02*
X154507666Y-86842000D01*
X155058000Y-86926666D02*
X155396666Y-87180666D01*
X154804000Y-87180666D02*
X155142666Y-86842000D01*
X155312000Y-87561666D02*
X155354333Y-87604000D01*
X155396666Y-87561666D01*
X155354333Y-87519333D01*
X155312000Y-87561666D01*
X155396666Y-87561666D01*
X155354333Y-88366000D02*
X155396666Y-88281333D01*
X155396666Y-88112000D01*
X155354333Y-88027333D01*
X155312000Y-87985000D01*
X155227333Y-87942666D01*
X154973333Y-87942666D01*
X154888666Y-87985000D01*
X154846333Y-88027333D01*
X154804000Y-88112000D01*
X154804000Y-88281333D01*
X154846333Y-88366000D01*
X155396666Y-88874000D02*
X155354333Y-88789333D01*
X155312000Y-88747000D01*
X155227333Y-88704666D01*
X154973333Y-88704666D01*
X154888666Y-88747000D01*
X154846333Y-88789333D01*
X154804000Y-88874000D01*
X154804000Y-89001000D01*
X154846333Y-89085666D01*
X154888666Y-89128000D01*
X154973333Y-89170333D01*
X155227333Y-89170333D01*
X155312000Y-89128000D01*
X155354333Y-89085666D01*
X155396666Y-89001000D01*
X155396666Y-88874000D01*
X155396666Y-89551333D02*
X154804000Y-89551333D01*
X154888666Y-89551333D02*
X154846333Y-89593666D01*
X154804000Y-89678333D01*
X154804000Y-89805333D01*
X154846333Y-89890000D01*
X154931000Y-89932333D01*
X155396666Y-89932333D01*
X154931000Y-89932333D02*
X154846333Y-89974666D01*
X154804000Y-90059333D01*
X154804000Y-90186333D01*
X154846333Y-90271000D01*
X154931000Y-90313333D01*
X155396666Y-90313333D01*
D10*
X149038571Y-122325000D02*
X149038571Y-122610714D01*
X149110000Y-122753571D01*
X149252857Y-122896428D01*
X149538571Y-122967857D01*
X150038571Y-122967857D01*
X150324285Y-122896428D01*
X150467142Y-122753571D01*
X150538571Y-122610714D01*
X150538571Y-122325000D01*
X150467142Y-122182142D01*
X150324285Y-122039285D01*
X150038571Y-121967857D01*
X149538571Y-121967857D01*
X149252857Y-122039285D01*
X149110000Y-122182142D01*
X149038571Y-122325000D01*
X149038571Y-123610714D02*
X150252857Y-123610714D01*
X150395714Y-123682142D01*
X150467142Y-123753571D01*
X150538571Y-123896428D01*
X150538571Y-124182142D01*
X150467142Y-124325000D01*
X150395714Y-124396428D01*
X150252857Y-124467857D01*
X149038571Y-124467857D01*
X149038571Y-124967857D02*
X149038571Y-125825000D01*
X150538571Y-125396428D02*
X149038571Y-125396428D01*
D11*
X142296000Y-95139333D02*
X142296000Y-94800666D01*
X142592333Y-95012333D02*
X141830333Y-95012333D01*
X141745666Y-94970000D01*
X141703333Y-94885333D01*
X141703333Y-94800666D01*
X141703333Y-94504333D02*
X142296000Y-94504333D01*
X142592333Y-94504333D02*
X142550000Y-94546666D01*
X142507666Y-94504333D01*
X142550000Y-94462000D01*
X142592333Y-94504333D01*
X142507666Y-94504333D01*
X142296000Y-94081000D02*
X141703333Y-94081000D01*
X142211333Y-94081000D02*
X142253666Y-94038666D01*
X142296000Y-93954000D01*
X142296000Y-93827000D01*
X142253666Y-93742333D01*
X142169000Y-93700000D01*
X141703333Y-93700000D01*
X141703333Y-93276666D02*
X142592333Y-93276666D01*
X142042000Y-93192000D02*
X141703333Y-92938000D01*
X142296000Y-92938000D02*
X141957333Y-93276666D01*
X141745666Y-92218333D02*
X141703333Y-92303000D01*
X141703333Y-92472333D01*
X141745666Y-92557000D01*
X141830333Y-92599333D01*
X142169000Y-92599333D01*
X142253666Y-92557000D01*
X142296000Y-92472333D01*
X142296000Y-92303000D01*
X142253666Y-92218333D01*
X142169000Y-92176000D01*
X142084333Y-92176000D01*
X141999666Y-92599333D01*
X141703333Y-91795000D02*
X142296000Y-91795000D01*
X142126666Y-91795000D02*
X142211333Y-91752666D01*
X142253666Y-91710333D01*
X142296000Y-91625666D01*
X142296000Y-91541000D01*
X142296000Y-91244666D02*
X141407000Y-91244666D01*
X142253666Y-91244666D02*
X142296000Y-91160000D01*
X142296000Y-90990666D01*
X142253666Y-90906000D01*
X142211333Y-90863666D01*
X142126666Y-90821333D01*
X141872666Y-90821333D01*
X141788000Y-90863666D01*
X141745666Y-90906000D01*
X141703333Y-90990666D01*
X141703333Y-91160000D01*
X141745666Y-91244666D01*
X141703333Y-90313333D02*
X141745666Y-90398000D01*
X141830333Y-90440333D01*
X142592333Y-90440333D01*
X142296000Y-89593666D02*
X141703333Y-89593666D01*
X142296000Y-89974666D02*
X141830333Y-89974666D01*
X141745666Y-89932333D01*
X141703333Y-89847666D01*
X141703333Y-89720666D01*
X141745666Y-89636000D01*
X141788000Y-89593666D01*
X142296000Y-89170333D02*
X141703333Y-89170333D01*
X142211333Y-89170333D02*
X142253666Y-89128000D01*
X142296000Y-89043333D01*
X142296000Y-88916333D01*
X142253666Y-88831666D01*
X142169000Y-88789333D01*
X141703333Y-88789333D01*
X141703333Y-88366000D02*
X142592333Y-88366000D01*
X142042000Y-88281333D02*
X141703333Y-88027333D01*
X142296000Y-88027333D02*
X141957333Y-88366000D01*
X141788000Y-87646333D02*
X141745666Y-87604000D01*
X141703333Y-87646333D01*
X141745666Y-87688666D01*
X141788000Y-87646333D01*
X141703333Y-87646333D01*
X141745666Y-86842000D02*
X141703333Y-86926666D01*
X141703333Y-87096000D01*
X141745666Y-87180666D01*
X141788000Y-87223000D01*
X141872666Y-87265333D01*
X142126666Y-87265333D01*
X142211333Y-87223000D01*
X142253666Y-87180666D01*
X142296000Y-87096000D01*
X142296000Y-86926666D01*
X142253666Y-86842000D01*
X141703333Y-86334000D02*
X141745666Y-86418666D01*
X141788000Y-86461000D01*
X141872666Y-86503333D01*
X142126666Y-86503333D01*
X142211333Y-86461000D01*
X142253666Y-86418666D01*
X142296000Y-86334000D01*
X142296000Y-86207000D01*
X142253666Y-86122333D01*
X142211333Y-86080000D01*
X142126666Y-86037666D01*
X141872666Y-86037666D01*
X141788000Y-86080000D01*
X141745666Y-86122333D01*
X141703333Y-86207000D01*
X141703333Y-86334000D01*
X141703333Y-85656666D02*
X142296000Y-85656666D01*
X142211333Y-85656666D02*
X142253666Y-85614333D01*
X142296000Y-85529666D01*
X142296000Y-85402666D01*
X142253666Y-85318000D01*
X142169000Y-85275666D01*
X141703333Y-85275666D01*
X142169000Y-85275666D02*
X142253666Y-85233333D01*
X142296000Y-85148666D01*
X142296000Y-85021666D01*
X142253666Y-84937000D01*
X142169000Y-84894666D01*
X141703333Y-84894666D01*
D10*
X148014428Y-87098000D02*
X148014428Y-86812285D01*
X147943000Y-86669428D01*
X147800142Y-86526571D01*
X147514428Y-86455142D01*
X147014428Y-86455142D01*
X146728714Y-86526571D01*
X146585857Y-86669428D01*
X146514428Y-86812285D01*
X146514428Y-87098000D01*
X146585857Y-87240857D01*
X146728714Y-87383714D01*
X147014428Y-87455142D01*
X147514428Y-87455142D01*
X147800142Y-87383714D01*
X147943000Y-87240857D01*
X148014428Y-87098000D01*
X148014428Y-85812285D02*
X146800142Y-85812285D01*
X146657285Y-85740857D01*
X146585857Y-85669428D01*
X146514428Y-85526571D01*
X146514428Y-85240857D01*
X146585857Y-85098000D01*
X146657285Y-85026571D01*
X146800142Y-84955142D01*
X148014428Y-84955142D01*
X148014428Y-84455142D02*
X148014428Y-83598000D01*
X146514428Y-84026571D02*
X148014428Y-84026571D01*
D11*
X143036833Y-129137166D02*
X143925833Y-129137166D01*
X143079166Y-129137166D02*
X143036833Y-129221833D01*
X143036833Y-129391166D01*
X143079166Y-129475833D01*
X143121500Y-129518166D01*
X143206166Y-129560500D01*
X143460166Y-129560500D01*
X143544833Y-129518166D01*
X143587166Y-129475833D01*
X143629500Y-129391166D01*
X143629500Y-129221833D01*
X143587166Y-129137166D01*
X143036833Y-128713833D02*
X143925833Y-128713833D01*
X143587166Y-128713833D02*
X143629500Y-128629166D01*
X143629500Y-128459833D01*
X143587166Y-128375166D01*
X143544833Y-128332833D01*
X143460166Y-128290500D01*
X143206166Y-128290500D01*
X143121500Y-128332833D01*
X143079166Y-128375166D01*
X143036833Y-128459833D01*
X143036833Y-128629166D01*
X143079166Y-128713833D01*
X143375500Y-127909500D02*
X143375500Y-127232166D01*
X143079166Y-126470166D02*
X143036833Y-126554833D01*
X143036833Y-126724166D01*
X143079166Y-126808833D01*
X143163833Y-126851166D01*
X143502500Y-126851166D01*
X143587166Y-126808833D01*
X143629500Y-126724166D01*
X143629500Y-126554833D01*
X143587166Y-126470166D01*
X143502500Y-126427833D01*
X143417833Y-126427833D01*
X143333166Y-126851166D01*
X143036833Y-125919833D02*
X143079166Y-126004500D01*
X143163833Y-126046833D01*
X143925833Y-126046833D01*
X143079166Y-125242500D02*
X143036833Y-125327166D01*
X143036833Y-125496500D01*
X143079166Y-125581166D01*
X143163833Y-125623500D01*
X143502500Y-125623500D01*
X143587166Y-125581166D01*
X143629500Y-125496500D01*
X143629500Y-125327166D01*
X143587166Y-125242500D01*
X143502500Y-125200166D01*
X143417833Y-125200166D01*
X143333166Y-125623500D01*
X143079166Y-124438166D02*
X143036833Y-124522833D01*
X143036833Y-124692166D01*
X143079166Y-124776833D01*
X143121500Y-124819166D01*
X143206166Y-124861500D01*
X143460166Y-124861500D01*
X143544833Y-124819166D01*
X143587166Y-124776833D01*
X143629500Y-124692166D01*
X143629500Y-124522833D01*
X143587166Y-124438166D01*
X143629500Y-124184166D02*
X143629500Y-123845500D01*
X143925833Y-124057166D02*
X143163833Y-124057166D01*
X143079166Y-124014833D01*
X143036833Y-123930166D01*
X143036833Y-123845500D01*
X143036833Y-123549166D02*
X143629500Y-123549166D01*
X143460166Y-123549166D02*
X143544833Y-123506833D01*
X143587166Y-123464500D01*
X143629500Y-123379833D01*
X143629500Y-123295166D01*
X143036833Y-122871833D02*
X143079166Y-122956500D01*
X143121500Y-122998833D01*
X143206166Y-123041166D01*
X143460166Y-123041166D01*
X143544833Y-122998833D01*
X143587166Y-122956500D01*
X143629500Y-122871833D01*
X143629500Y-122744833D01*
X143587166Y-122660166D01*
X143544833Y-122617833D01*
X143460166Y-122575500D01*
X143206166Y-122575500D01*
X143121500Y-122617833D01*
X143079166Y-122660166D01*
X143036833Y-122744833D01*
X143036833Y-122871833D01*
X143629500Y-122194500D02*
X143036833Y-122194500D01*
X143544833Y-122194500D02*
X143587166Y-122152166D01*
X143629500Y-122067500D01*
X143629500Y-121940500D01*
X143587166Y-121855833D01*
X143502500Y-121813500D01*
X143036833Y-121813500D01*
X143036833Y-121390166D02*
X143629500Y-121390166D01*
X143925833Y-121390166D02*
X143883500Y-121432500D01*
X143841166Y-121390166D01*
X143883500Y-121347833D01*
X143925833Y-121390166D01*
X143841166Y-121390166D01*
X143079166Y-120585833D02*
X143036833Y-120670500D01*
X143036833Y-120839833D01*
X143079166Y-120924500D01*
X143121500Y-120966833D01*
X143206166Y-121009166D01*
X143460166Y-121009166D01*
X143544833Y-120966833D01*
X143587166Y-120924500D01*
X143629500Y-120839833D01*
X143629500Y-120670500D01*
X143587166Y-120585833D01*
X143079166Y-120247166D02*
X143036833Y-120162500D01*
X143036833Y-119993166D01*
X143079166Y-119908500D01*
X143163833Y-119866166D01*
X143206166Y-119866166D01*
X143290833Y-119908500D01*
X143333166Y-119993166D01*
X143333166Y-120120166D01*
X143375500Y-120204833D01*
X143460166Y-120247166D01*
X143502500Y-120247166D01*
X143587166Y-120204833D01*
X143629500Y-120120166D01*
X143629500Y-119993166D01*
X143587166Y-119908500D01*
X143121500Y-119485166D02*
X143079166Y-119442833D01*
X143036833Y-119485166D01*
X143079166Y-119527500D01*
X143121500Y-119485166D01*
X143036833Y-119485166D01*
X143079166Y-118680833D02*
X143036833Y-118765500D01*
X143036833Y-118934833D01*
X143079166Y-119019500D01*
X143121500Y-119061833D01*
X143206166Y-119104166D01*
X143460166Y-119104166D01*
X143544833Y-119061833D01*
X143587166Y-119019500D01*
X143629500Y-118934833D01*
X143629500Y-118765500D01*
X143587166Y-118680833D01*
X143036833Y-117918833D02*
X143502500Y-117918833D01*
X143587166Y-117961166D01*
X143629500Y-118045833D01*
X143629500Y-118215166D01*
X143587166Y-118299833D01*
X143079166Y-117918833D02*
X143036833Y-118003500D01*
X143036833Y-118215166D01*
X143079166Y-118299833D01*
X143163833Y-118342166D01*
X143248500Y-118342166D01*
X143333166Y-118299833D01*
X143375500Y-118215166D01*
X143375500Y-118003500D01*
X143417833Y-117918833D01*
X154063166Y-114870833D02*
X153174166Y-114870833D01*
X154020833Y-114870833D02*
X154063166Y-114786166D01*
X154063166Y-114616833D01*
X154020833Y-114532166D01*
X153978500Y-114489833D01*
X153893833Y-114447500D01*
X153639833Y-114447500D01*
X153555166Y-114489833D01*
X153512833Y-114532166D01*
X153470500Y-114616833D01*
X153470500Y-114786166D01*
X153512833Y-114870833D01*
X154063166Y-115294166D02*
X153174166Y-115294166D01*
X153512833Y-115294166D02*
X153470500Y-115378833D01*
X153470500Y-115548166D01*
X153512833Y-115632833D01*
X153555166Y-115675166D01*
X153639833Y-115717500D01*
X153893833Y-115717500D01*
X153978500Y-115675166D01*
X154020833Y-115632833D01*
X154063166Y-115548166D01*
X154063166Y-115378833D01*
X154020833Y-115294166D01*
X153724500Y-116098500D02*
X153724500Y-116775833D01*
X154020833Y-117537833D02*
X154063166Y-117453166D01*
X154063166Y-117283833D01*
X154020833Y-117199166D01*
X153936166Y-117156833D01*
X153597500Y-117156833D01*
X153512833Y-117199166D01*
X153470500Y-117283833D01*
X153470500Y-117453166D01*
X153512833Y-117537833D01*
X153597500Y-117580166D01*
X153682166Y-117580166D01*
X153766833Y-117156833D01*
X154063166Y-118088166D02*
X154020833Y-118003500D01*
X153936166Y-117961166D01*
X153174166Y-117961166D01*
X154020833Y-118765500D02*
X154063166Y-118680833D01*
X154063166Y-118511500D01*
X154020833Y-118426833D01*
X153936166Y-118384500D01*
X153597500Y-118384500D01*
X153512833Y-118426833D01*
X153470500Y-118511500D01*
X153470500Y-118680833D01*
X153512833Y-118765500D01*
X153597500Y-118807833D01*
X153682166Y-118807833D01*
X153766833Y-118384500D01*
X154020833Y-119569833D02*
X154063166Y-119485166D01*
X154063166Y-119315833D01*
X154020833Y-119231166D01*
X153978500Y-119188833D01*
X153893833Y-119146500D01*
X153639833Y-119146500D01*
X153555166Y-119188833D01*
X153512833Y-119231166D01*
X153470500Y-119315833D01*
X153470500Y-119485166D01*
X153512833Y-119569833D01*
X153470500Y-119823833D02*
X153470500Y-120162500D01*
X153174166Y-119950833D02*
X153936166Y-119950833D01*
X154020833Y-119993166D01*
X154063166Y-120077833D01*
X154063166Y-120162500D01*
X154063166Y-120458833D02*
X153470500Y-120458833D01*
X153639833Y-120458833D02*
X153555166Y-120501166D01*
X153512833Y-120543500D01*
X153470500Y-120628166D01*
X153470500Y-120712833D01*
X154063166Y-121136166D02*
X154020833Y-121051500D01*
X153978500Y-121009166D01*
X153893833Y-120966833D01*
X153639833Y-120966833D01*
X153555166Y-121009166D01*
X153512833Y-121051500D01*
X153470500Y-121136166D01*
X153470500Y-121263166D01*
X153512833Y-121347833D01*
X153555166Y-121390166D01*
X153639833Y-121432500D01*
X153893833Y-121432500D01*
X153978500Y-121390166D01*
X154020833Y-121347833D01*
X154063166Y-121263166D01*
X154063166Y-121136166D01*
X153470500Y-121813500D02*
X154063166Y-121813500D01*
X153555166Y-121813500D02*
X153512833Y-121855833D01*
X153470500Y-121940500D01*
X153470500Y-122067500D01*
X153512833Y-122152166D01*
X153597500Y-122194500D01*
X154063166Y-122194500D01*
X154063166Y-122617833D02*
X153470500Y-122617833D01*
X153174166Y-122617833D02*
X153216500Y-122575500D01*
X153258833Y-122617833D01*
X153216500Y-122660166D01*
X153174166Y-122617833D01*
X153258833Y-122617833D01*
X154020833Y-123422166D02*
X154063166Y-123337500D01*
X154063166Y-123168166D01*
X154020833Y-123083500D01*
X153978500Y-123041166D01*
X153893833Y-122998833D01*
X153639833Y-122998833D01*
X153555166Y-123041166D01*
X153512833Y-123083500D01*
X153470500Y-123168166D01*
X153470500Y-123337500D01*
X153512833Y-123422166D01*
X154020833Y-123760833D02*
X154063166Y-123845500D01*
X154063166Y-124014833D01*
X154020833Y-124099500D01*
X153936166Y-124141833D01*
X153893833Y-124141833D01*
X153809166Y-124099500D01*
X153766833Y-124014833D01*
X153766833Y-123887833D01*
X153724500Y-123803166D01*
X153639833Y-123760833D01*
X153597500Y-123760833D01*
X153512833Y-123803166D01*
X153470500Y-123887833D01*
X153470500Y-124014833D01*
X153512833Y-124099500D01*
X153978500Y-124522833D02*
X154020833Y-124565166D01*
X154063166Y-124522833D01*
X154020833Y-124480500D01*
X153978500Y-124522833D01*
X154063166Y-124522833D01*
X154020833Y-125327166D02*
X154063166Y-125242500D01*
X154063166Y-125073166D01*
X154020833Y-124988500D01*
X153978500Y-124946166D01*
X153893833Y-124903833D01*
X153639833Y-124903833D01*
X153555166Y-124946166D01*
X153512833Y-124988500D01*
X153470500Y-125073166D01*
X153470500Y-125242500D01*
X153512833Y-125327166D01*
X154063166Y-126089166D02*
X153597500Y-126089166D01*
X153512833Y-126046833D01*
X153470500Y-125962166D01*
X153470500Y-125792833D01*
X153512833Y-125708166D01*
X154020833Y-126089166D02*
X154063166Y-126004500D01*
X154063166Y-125792833D01*
X154020833Y-125708166D01*
X153936166Y-125665833D01*
X153851500Y-125665833D01*
X153766833Y-125708166D01*
X153724500Y-125792833D01*
X153724500Y-126004500D01*
X153682166Y-126089166D01*
X143036833Y-94737166D02*
X143925833Y-94737166D01*
X143079166Y-94737166D02*
X143036833Y-94821833D01*
X143036833Y-94991166D01*
X143079166Y-95075833D01*
X143121500Y-95118166D01*
X143206166Y-95160500D01*
X143460166Y-95160500D01*
X143544833Y-95118166D01*
X143587166Y-95075833D01*
X143629500Y-94991166D01*
X143629500Y-94821833D01*
X143587166Y-94737166D01*
X143036833Y-94313833D02*
X143925833Y-94313833D01*
X143587166Y-94313833D02*
X143629500Y-94229166D01*
X143629500Y-94059833D01*
X143587166Y-93975166D01*
X143544833Y-93932833D01*
X143460166Y-93890500D01*
X143206166Y-93890500D01*
X143121500Y-93932833D01*
X143079166Y-93975166D01*
X143036833Y-94059833D01*
X143036833Y-94229166D01*
X143079166Y-94313833D01*
X143375500Y-93509500D02*
X143375500Y-92832166D01*
X143079166Y-92070166D02*
X143036833Y-92154833D01*
X143036833Y-92324166D01*
X143079166Y-92408833D01*
X143163833Y-92451166D01*
X143502500Y-92451166D01*
X143587166Y-92408833D01*
X143629500Y-92324166D01*
X143629500Y-92154833D01*
X143587166Y-92070166D01*
X143502500Y-92027833D01*
X143417833Y-92027833D01*
X143333166Y-92451166D01*
X143036833Y-91519833D02*
X143079166Y-91604500D01*
X143163833Y-91646833D01*
X143925833Y-91646833D01*
X143079166Y-90842500D02*
X143036833Y-90927166D01*
X143036833Y-91096500D01*
X143079166Y-91181166D01*
X143163833Y-91223500D01*
X143502500Y-91223500D01*
X143587166Y-91181166D01*
X143629500Y-91096500D01*
X143629500Y-90927166D01*
X143587166Y-90842500D01*
X143502500Y-90800166D01*
X143417833Y-90800166D01*
X143333166Y-91223500D01*
X143079166Y-90038166D02*
X143036833Y-90122833D01*
X143036833Y-90292166D01*
X143079166Y-90376833D01*
X143121500Y-90419166D01*
X143206166Y-90461500D01*
X143460166Y-90461500D01*
X143544833Y-90419166D01*
X143587166Y-90376833D01*
X143629500Y-90292166D01*
X143629500Y-90122833D01*
X143587166Y-90038166D01*
X143629500Y-89784166D02*
X143629500Y-89445500D01*
X143925833Y-89657166D02*
X143163833Y-89657166D01*
X143079166Y-89614833D01*
X143036833Y-89530166D01*
X143036833Y-89445500D01*
X143036833Y-89149166D02*
X143629500Y-89149166D01*
X143460166Y-89149166D02*
X143544833Y-89106833D01*
X143587166Y-89064500D01*
X143629500Y-88979833D01*
X143629500Y-88895166D01*
X143036833Y-88471833D02*
X143079166Y-88556500D01*
X143121500Y-88598833D01*
X143206166Y-88641166D01*
X143460166Y-88641166D01*
X143544833Y-88598833D01*
X143587166Y-88556500D01*
X143629500Y-88471833D01*
X143629500Y-88344833D01*
X143587166Y-88260166D01*
X143544833Y-88217833D01*
X143460166Y-88175500D01*
X143206166Y-88175500D01*
X143121500Y-88217833D01*
X143079166Y-88260166D01*
X143036833Y-88344833D01*
X143036833Y-88471833D01*
X143629500Y-87794500D02*
X143036833Y-87794500D01*
X143544833Y-87794500D02*
X143587166Y-87752166D01*
X143629500Y-87667500D01*
X143629500Y-87540500D01*
X143587166Y-87455833D01*
X143502500Y-87413500D01*
X143036833Y-87413500D01*
X143036833Y-86990166D02*
X143629500Y-86990166D01*
X143925833Y-86990166D02*
X143883500Y-87032500D01*
X143841166Y-86990166D01*
X143883500Y-86947833D01*
X143925833Y-86990166D01*
X143841166Y-86990166D01*
X143079166Y-86185833D02*
X143036833Y-86270500D01*
X143036833Y-86439833D01*
X143079166Y-86524500D01*
X143121500Y-86566833D01*
X143206166Y-86609166D01*
X143460166Y-86609166D01*
X143544833Y-86566833D01*
X143587166Y-86524500D01*
X143629500Y-86439833D01*
X143629500Y-86270500D01*
X143587166Y-86185833D01*
X143079166Y-85847166D02*
X143036833Y-85762500D01*
X143036833Y-85593166D01*
X143079166Y-85508500D01*
X143163833Y-85466166D01*
X143206166Y-85466166D01*
X143290833Y-85508500D01*
X143333166Y-85593166D01*
X143333166Y-85720166D01*
X143375500Y-85804833D01*
X143460166Y-85847166D01*
X143502500Y-85847166D01*
X143587166Y-85804833D01*
X143629500Y-85720166D01*
X143629500Y-85593166D01*
X143587166Y-85508500D01*
X143121500Y-85085166D02*
X143079166Y-85042833D01*
X143036833Y-85085166D01*
X143079166Y-85127500D01*
X143121500Y-85085166D01*
X143036833Y-85085166D01*
X143079166Y-84280833D02*
X143036833Y-84365500D01*
X143036833Y-84534833D01*
X143079166Y-84619500D01*
X143121500Y-84661833D01*
X143206166Y-84704166D01*
X143460166Y-84704166D01*
X143544833Y-84661833D01*
X143587166Y-84619500D01*
X143629500Y-84534833D01*
X143629500Y-84365500D01*
X143587166Y-84280833D01*
X143036833Y-83518833D02*
X143502500Y-83518833D01*
X143587166Y-83561166D01*
X143629500Y-83645833D01*
X143629500Y-83815166D01*
X143587166Y-83899833D01*
X143079166Y-83518833D02*
X143036833Y-83603500D01*
X143036833Y-83815166D01*
X143079166Y-83899833D01*
X143163833Y-83942166D01*
X143248500Y-83942166D01*
X143333166Y-83899833D01*
X143375500Y-83815166D01*
X143375500Y-83603500D01*
X143417833Y-83518833D01*
X154063166Y-80470833D02*
X153174166Y-80470833D01*
X154020833Y-80470833D02*
X154063166Y-80386166D01*
X154063166Y-80216833D01*
X154020833Y-80132166D01*
X153978500Y-80089833D01*
X153893833Y-80047500D01*
X153639833Y-80047500D01*
X153555166Y-80089833D01*
X153512833Y-80132166D01*
X153470500Y-80216833D01*
X153470500Y-80386166D01*
X153512833Y-80470833D01*
X154063166Y-80894166D02*
X153174166Y-80894166D01*
X153512833Y-80894166D02*
X153470500Y-80978833D01*
X153470500Y-81148166D01*
X153512833Y-81232833D01*
X153555166Y-81275166D01*
X153639833Y-81317500D01*
X153893833Y-81317500D01*
X153978500Y-81275166D01*
X154020833Y-81232833D01*
X154063166Y-81148166D01*
X154063166Y-80978833D01*
X154020833Y-80894166D01*
X153724500Y-81698500D02*
X153724500Y-82375833D01*
X154020833Y-83137833D02*
X154063166Y-83053166D01*
X154063166Y-82883833D01*
X154020833Y-82799166D01*
X153936166Y-82756833D01*
X153597500Y-82756833D01*
X153512833Y-82799166D01*
X153470500Y-82883833D01*
X153470500Y-83053166D01*
X153512833Y-83137833D01*
X153597500Y-83180166D01*
X153682166Y-83180166D01*
X153766833Y-82756833D01*
X154063166Y-83688166D02*
X154020833Y-83603500D01*
X153936166Y-83561166D01*
X153174166Y-83561166D01*
X154020833Y-84365500D02*
X154063166Y-84280833D01*
X154063166Y-84111500D01*
X154020833Y-84026833D01*
X153936166Y-83984500D01*
X153597500Y-83984500D01*
X153512833Y-84026833D01*
X153470500Y-84111500D01*
X153470500Y-84280833D01*
X153512833Y-84365500D01*
X153597500Y-84407833D01*
X153682166Y-84407833D01*
X153766833Y-83984500D01*
X154020833Y-85169833D02*
X154063166Y-85085166D01*
X154063166Y-84915833D01*
X154020833Y-84831166D01*
X153978500Y-84788833D01*
X153893833Y-84746500D01*
X153639833Y-84746500D01*
X153555166Y-84788833D01*
X153512833Y-84831166D01*
X153470500Y-84915833D01*
X153470500Y-85085166D01*
X153512833Y-85169833D01*
X153470500Y-85423833D02*
X153470500Y-85762500D01*
X153174166Y-85550833D02*
X153936166Y-85550833D01*
X154020833Y-85593166D01*
X154063166Y-85677833D01*
X154063166Y-85762500D01*
X154063166Y-86058833D02*
X153470500Y-86058833D01*
X153639833Y-86058833D02*
X153555166Y-86101166D01*
X153512833Y-86143500D01*
X153470500Y-86228166D01*
X153470500Y-86312833D01*
X154063166Y-86736166D02*
X154020833Y-86651500D01*
X153978500Y-86609166D01*
X153893833Y-86566833D01*
X153639833Y-86566833D01*
X153555166Y-86609166D01*
X153512833Y-86651500D01*
X153470500Y-86736166D01*
X153470500Y-86863166D01*
X153512833Y-86947833D01*
X153555166Y-86990166D01*
X153639833Y-87032500D01*
X153893833Y-87032500D01*
X153978500Y-86990166D01*
X154020833Y-86947833D01*
X154063166Y-86863166D01*
X154063166Y-86736166D01*
X153470500Y-87413500D02*
X154063166Y-87413500D01*
X153555166Y-87413500D02*
X153512833Y-87455833D01*
X153470500Y-87540500D01*
X153470500Y-87667500D01*
X153512833Y-87752166D01*
X153597500Y-87794500D01*
X154063166Y-87794500D01*
X154063166Y-88217833D02*
X153470500Y-88217833D01*
X153174166Y-88217833D02*
X153216500Y-88175500D01*
X153258833Y-88217833D01*
X153216500Y-88260166D01*
X153174166Y-88217833D01*
X153258833Y-88217833D01*
X154020833Y-89022166D02*
X154063166Y-88937500D01*
X154063166Y-88768166D01*
X154020833Y-88683500D01*
X153978500Y-88641166D01*
X153893833Y-88598833D01*
X153639833Y-88598833D01*
X153555166Y-88641166D01*
X153512833Y-88683500D01*
X153470500Y-88768166D01*
X153470500Y-88937500D01*
X153512833Y-89022166D01*
X154020833Y-89360833D02*
X154063166Y-89445500D01*
X154063166Y-89614833D01*
X154020833Y-89699500D01*
X153936166Y-89741833D01*
X153893833Y-89741833D01*
X153809166Y-89699500D01*
X153766833Y-89614833D01*
X153766833Y-89487833D01*
X153724500Y-89403166D01*
X153639833Y-89360833D01*
X153597500Y-89360833D01*
X153512833Y-89403166D01*
X153470500Y-89487833D01*
X153470500Y-89614833D01*
X153512833Y-89699500D01*
X153978500Y-90122833D02*
X154020833Y-90165166D01*
X154063166Y-90122833D01*
X154020833Y-90080500D01*
X153978500Y-90122833D01*
X154063166Y-90122833D01*
X154020833Y-90927166D02*
X154063166Y-90842500D01*
X154063166Y-90673166D01*
X154020833Y-90588500D01*
X153978500Y-90546166D01*
X153893833Y-90503833D01*
X153639833Y-90503833D01*
X153555166Y-90546166D01*
X153512833Y-90588500D01*
X153470500Y-90673166D01*
X153470500Y-90842500D01*
X153512833Y-90927166D01*
X154063166Y-91689166D02*
X153597500Y-91689166D01*
X153512833Y-91646833D01*
X153470500Y-91562166D01*
X153470500Y-91392833D01*
X153512833Y-91308166D01*
X154020833Y-91689166D02*
X154063166Y-91604500D01*
X154063166Y-91392833D01*
X154020833Y-91308166D01*
X153936166Y-91265833D01*
X153851500Y-91265833D01*
X153766833Y-91308166D01*
X153724500Y-91392833D01*
X153724500Y-91604500D01*
X153682166Y-91689166D01*
X154804000Y-98268666D02*
X154804000Y-98607333D01*
X154507666Y-98395666D02*
X155269666Y-98395666D01*
X155354333Y-98438000D01*
X155396666Y-98522666D01*
X155396666Y-98607333D01*
X155396666Y-98903666D02*
X154804000Y-98903666D01*
X154507666Y-98903666D02*
X154550000Y-98861333D01*
X154592333Y-98903666D01*
X154550000Y-98946000D01*
X154507666Y-98903666D01*
X154592333Y-98903666D01*
X154804000Y-99327000D02*
X155396666Y-99327000D01*
X154888666Y-99327000D02*
X154846333Y-99369333D01*
X154804000Y-99454000D01*
X154804000Y-99581000D01*
X154846333Y-99665666D01*
X154931000Y-99708000D01*
X155396666Y-99708000D01*
X155396666Y-100131333D02*
X154507666Y-100131333D01*
X155058000Y-100216000D02*
X155396666Y-100470000D01*
X154804000Y-100470000D02*
X155142666Y-100131333D01*
X155354333Y-101189666D02*
X155396666Y-101105000D01*
X155396666Y-100935666D01*
X155354333Y-100851000D01*
X155269666Y-100808666D01*
X154931000Y-100808666D01*
X154846333Y-100851000D01*
X154804000Y-100935666D01*
X154804000Y-101105000D01*
X154846333Y-101189666D01*
X154931000Y-101232000D01*
X155015666Y-101232000D01*
X155100333Y-100808666D01*
X155396666Y-101613000D02*
X154804000Y-101613000D01*
X154973333Y-101613000D02*
X154888666Y-101655333D01*
X154846333Y-101697666D01*
X154804000Y-101782333D01*
X154804000Y-101867000D01*
X154804000Y-102163333D02*
X155693000Y-102163333D01*
X154846333Y-102163333D02*
X154804000Y-102248000D01*
X154804000Y-102417333D01*
X154846333Y-102502000D01*
X154888666Y-102544333D01*
X154973333Y-102586666D01*
X155227333Y-102586666D01*
X155312000Y-102544333D01*
X155354333Y-102502000D01*
X155396666Y-102417333D01*
X155396666Y-102248000D01*
X155354333Y-102163333D01*
X155396666Y-103094666D02*
X155354333Y-103010000D01*
X155269666Y-102967666D01*
X154507666Y-102967666D01*
X154804000Y-103814333D02*
X155396666Y-103814333D01*
X154804000Y-103433333D02*
X155269666Y-103433333D01*
X155354333Y-103475666D01*
X155396666Y-103560333D01*
X155396666Y-103687333D01*
X155354333Y-103772000D01*
X155312000Y-103814333D01*
X154804000Y-104237666D02*
X155396666Y-104237666D01*
X154888666Y-104237666D02*
X154846333Y-104280000D01*
X154804000Y-104364666D01*
X154804000Y-104491666D01*
X154846333Y-104576333D01*
X154931000Y-104618666D01*
X155396666Y-104618666D01*
X155396666Y-105042000D02*
X154507666Y-105042000D01*
X155058000Y-105126666D02*
X155396666Y-105380666D01*
X154804000Y-105380666D02*
X155142666Y-105042000D01*
X155312000Y-105761666D02*
X155354333Y-105804000D01*
X155396666Y-105761666D01*
X155354333Y-105719333D01*
X155312000Y-105761666D01*
X155396666Y-105761666D01*
X155354333Y-106566000D02*
X155396666Y-106481333D01*
X155396666Y-106312000D01*
X155354333Y-106227333D01*
X155312000Y-106185000D01*
X155227333Y-106142666D01*
X154973333Y-106142666D01*
X154888666Y-106185000D01*
X154846333Y-106227333D01*
X154804000Y-106312000D01*
X154804000Y-106481333D01*
X154846333Y-106566000D01*
X155396666Y-107074000D02*
X155354333Y-106989333D01*
X155312000Y-106947000D01*
X155227333Y-106904666D01*
X154973333Y-106904666D01*
X154888666Y-106947000D01*
X154846333Y-106989333D01*
X154804000Y-107074000D01*
X154804000Y-107201000D01*
X154846333Y-107285666D01*
X154888666Y-107328000D01*
X154973333Y-107370333D01*
X155227333Y-107370333D01*
X155312000Y-107328000D01*
X155354333Y-107285666D01*
X155396666Y-107201000D01*
X155396666Y-107074000D01*
X155396666Y-107751333D02*
X154804000Y-107751333D01*
X154888666Y-107751333D02*
X154846333Y-107793666D01*
X154804000Y-107878333D01*
X154804000Y-108005333D01*
X154846333Y-108090000D01*
X154931000Y-108132333D01*
X155396666Y-108132333D01*
X154931000Y-108132333D02*
X154846333Y-108174666D01*
X154804000Y-108259333D01*
X154804000Y-108386333D01*
X154846333Y-108471000D01*
X154931000Y-108513333D01*
X155396666Y-108513333D01*
X154063166Y-98670833D02*
X153174166Y-98670833D01*
X154020833Y-98670833D02*
X154063166Y-98586166D01*
X154063166Y-98416833D01*
X154020833Y-98332166D01*
X153978500Y-98289833D01*
X153893833Y-98247500D01*
X153639833Y-98247500D01*
X153555166Y-98289833D01*
X153512833Y-98332166D01*
X153470500Y-98416833D01*
X153470500Y-98586166D01*
X153512833Y-98670833D01*
X154063166Y-99094166D02*
X153174166Y-99094166D01*
X153512833Y-99094166D02*
X153470500Y-99178833D01*
X153470500Y-99348166D01*
X153512833Y-99432833D01*
X153555166Y-99475166D01*
X153639833Y-99517500D01*
X153893833Y-99517500D01*
X153978500Y-99475166D01*
X154020833Y-99432833D01*
X154063166Y-99348166D01*
X154063166Y-99178833D01*
X154020833Y-99094166D01*
X153724500Y-99898500D02*
X153724500Y-100575833D01*
X154020833Y-101337833D02*
X154063166Y-101253166D01*
X154063166Y-101083833D01*
X154020833Y-100999166D01*
X153936166Y-100956833D01*
X153597500Y-100956833D01*
X153512833Y-100999166D01*
X153470500Y-101083833D01*
X153470500Y-101253166D01*
X153512833Y-101337833D01*
X153597500Y-101380166D01*
X153682166Y-101380166D01*
X153766833Y-100956833D01*
X154063166Y-101888166D02*
X154020833Y-101803500D01*
X153936166Y-101761166D01*
X153174166Y-101761166D01*
X154020833Y-102565500D02*
X154063166Y-102480833D01*
X154063166Y-102311500D01*
X154020833Y-102226833D01*
X153936166Y-102184500D01*
X153597500Y-102184500D01*
X153512833Y-102226833D01*
X153470500Y-102311500D01*
X153470500Y-102480833D01*
X153512833Y-102565500D01*
X153597500Y-102607833D01*
X153682166Y-102607833D01*
X153766833Y-102184500D01*
X154020833Y-103369833D02*
X154063166Y-103285166D01*
X154063166Y-103115833D01*
X154020833Y-103031166D01*
X153978500Y-102988833D01*
X153893833Y-102946500D01*
X153639833Y-102946500D01*
X153555166Y-102988833D01*
X153512833Y-103031166D01*
X153470500Y-103115833D01*
X153470500Y-103285166D01*
X153512833Y-103369833D01*
X153470500Y-103623833D02*
X153470500Y-103962500D01*
X153174166Y-103750833D02*
X153936166Y-103750833D01*
X154020833Y-103793166D01*
X154063166Y-103877833D01*
X154063166Y-103962500D01*
X154063166Y-104258833D02*
X153470500Y-104258833D01*
X153639833Y-104258833D02*
X153555166Y-104301166D01*
X153512833Y-104343500D01*
X153470500Y-104428166D01*
X153470500Y-104512833D01*
X154063166Y-104936166D02*
X154020833Y-104851500D01*
X153978500Y-104809166D01*
X153893833Y-104766833D01*
X153639833Y-104766833D01*
X153555166Y-104809166D01*
X153512833Y-104851500D01*
X153470500Y-104936166D01*
X153470500Y-105063166D01*
X153512833Y-105147833D01*
X153555166Y-105190166D01*
X153639833Y-105232500D01*
X153893833Y-105232500D01*
X153978500Y-105190166D01*
X154020833Y-105147833D01*
X154063166Y-105063166D01*
X154063166Y-104936166D01*
X153470500Y-105613500D02*
X154063166Y-105613500D01*
X153555166Y-105613500D02*
X153512833Y-105655833D01*
X153470500Y-105740500D01*
X153470500Y-105867500D01*
X153512833Y-105952166D01*
X153597500Y-105994500D01*
X154063166Y-105994500D01*
X154063166Y-106417833D02*
X153470500Y-106417833D01*
X153174166Y-106417833D02*
X153216500Y-106375500D01*
X153258833Y-106417833D01*
X153216500Y-106460166D01*
X153174166Y-106417833D01*
X153258833Y-106417833D01*
X154020833Y-107222166D02*
X154063166Y-107137500D01*
X154063166Y-106968166D01*
X154020833Y-106883500D01*
X153978500Y-106841166D01*
X153893833Y-106798833D01*
X153639833Y-106798833D01*
X153555166Y-106841166D01*
X153512833Y-106883500D01*
X153470500Y-106968166D01*
X153470500Y-107137500D01*
X153512833Y-107222166D01*
X154020833Y-107560833D02*
X154063166Y-107645500D01*
X154063166Y-107814833D01*
X154020833Y-107899500D01*
X153936166Y-107941833D01*
X153893833Y-107941833D01*
X153809166Y-107899500D01*
X153766833Y-107814833D01*
X153766833Y-107687833D01*
X153724500Y-107603166D01*
X153639833Y-107560833D01*
X153597500Y-107560833D01*
X153512833Y-107603166D01*
X153470500Y-107687833D01*
X153470500Y-107814833D01*
X153512833Y-107899500D01*
X153978500Y-108322833D02*
X154020833Y-108365166D01*
X154063166Y-108322833D01*
X154020833Y-108280500D01*
X153978500Y-108322833D01*
X154063166Y-108322833D01*
X154020833Y-109127166D02*
X154063166Y-109042500D01*
X154063166Y-108873166D01*
X154020833Y-108788500D01*
X153978500Y-108746166D01*
X153893833Y-108703833D01*
X153639833Y-108703833D01*
X153555166Y-108746166D01*
X153512833Y-108788500D01*
X153470500Y-108873166D01*
X153470500Y-109042500D01*
X153512833Y-109127166D01*
X154063166Y-109889166D02*
X153597500Y-109889166D01*
X153512833Y-109846833D01*
X153470500Y-109762166D01*
X153470500Y-109592833D01*
X153512833Y-109508166D01*
X154020833Y-109889166D02*
X154063166Y-109804500D01*
X154063166Y-109592833D01*
X154020833Y-109508166D01*
X153936166Y-109465833D01*
X153851500Y-109465833D01*
X153766833Y-109508166D01*
X153724500Y-109592833D01*
X153724500Y-109804500D01*
X153682166Y-109889166D01*
X143036833Y-145337166D02*
X143925833Y-145337166D01*
X143079166Y-145337166D02*
X143036833Y-145421833D01*
X143036833Y-145591166D01*
X143079166Y-145675833D01*
X143121500Y-145718166D01*
X143206166Y-145760500D01*
X143460166Y-145760500D01*
X143544833Y-145718166D01*
X143587166Y-145675833D01*
X143629500Y-145591166D01*
X143629500Y-145421833D01*
X143587166Y-145337166D01*
X143036833Y-144913833D02*
X143925833Y-144913833D01*
X143587166Y-144913833D02*
X143629500Y-144829166D01*
X143629500Y-144659833D01*
X143587166Y-144575166D01*
X143544833Y-144532833D01*
X143460166Y-144490500D01*
X143206166Y-144490500D01*
X143121500Y-144532833D01*
X143079166Y-144575166D01*
X143036833Y-144659833D01*
X143036833Y-144829166D01*
X143079166Y-144913833D01*
X143375500Y-144109500D02*
X143375500Y-143432166D01*
X143079166Y-142670166D02*
X143036833Y-142754833D01*
X143036833Y-142924166D01*
X143079166Y-143008833D01*
X143163833Y-143051166D01*
X143502500Y-143051166D01*
X143587166Y-143008833D01*
X143629500Y-142924166D01*
X143629500Y-142754833D01*
X143587166Y-142670166D01*
X143502500Y-142627833D01*
X143417833Y-142627833D01*
X143333166Y-143051166D01*
X143036833Y-142119833D02*
X143079166Y-142204500D01*
X143163833Y-142246833D01*
X143925833Y-142246833D01*
X143079166Y-141442500D02*
X143036833Y-141527166D01*
X143036833Y-141696500D01*
X143079166Y-141781166D01*
X143163833Y-141823500D01*
X143502500Y-141823500D01*
X143587166Y-141781166D01*
X143629500Y-141696500D01*
X143629500Y-141527166D01*
X143587166Y-141442500D01*
X143502500Y-141400166D01*
X143417833Y-141400166D01*
X143333166Y-141823500D01*
X143079166Y-140638166D02*
X143036833Y-140722833D01*
X143036833Y-140892166D01*
X143079166Y-140976833D01*
X143121500Y-141019166D01*
X143206166Y-141061500D01*
X143460166Y-141061500D01*
X143544833Y-141019166D01*
X143587166Y-140976833D01*
X143629500Y-140892166D01*
X143629500Y-140722833D01*
X143587166Y-140638166D01*
X143629500Y-140384166D02*
X143629500Y-140045500D01*
X143925833Y-140257166D02*
X143163833Y-140257166D01*
X143079166Y-140214833D01*
X143036833Y-140130166D01*
X143036833Y-140045500D01*
X143036833Y-139749166D02*
X143629500Y-139749166D01*
X143460166Y-139749166D02*
X143544833Y-139706833D01*
X143587166Y-139664500D01*
X143629500Y-139579833D01*
X143629500Y-139495166D01*
X143036833Y-139071833D02*
X143079166Y-139156500D01*
X143121500Y-139198833D01*
X143206166Y-139241166D01*
X143460166Y-139241166D01*
X143544833Y-139198833D01*
X143587166Y-139156500D01*
X143629500Y-139071833D01*
X143629500Y-138944833D01*
X143587166Y-138860166D01*
X143544833Y-138817833D01*
X143460166Y-138775500D01*
X143206166Y-138775500D01*
X143121500Y-138817833D01*
X143079166Y-138860166D01*
X143036833Y-138944833D01*
X143036833Y-139071833D01*
X143629500Y-138394500D02*
X143036833Y-138394500D01*
X143544833Y-138394500D02*
X143587166Y-138352166D01*
X143629500Y-138267500D01*
X143629500Y-138140500D01*
X143587166Y-138055833D01*
X143502500Y-138013500D01*
X143036833Y-138013500D01*
X143036833Y-137590166D02*
X143629500Y-137590166D01*
X143925833Y-137590166D02*
X143883500Y-137632500D01*
X143841166Y-137590166D01*
X143883500Y-137547833D01*
X143925833Y-137590166D01*
X143841166Y-137590166D01*
X143079166Y-136785833D02*
X143036833Y-136870500D01*
X143036833Y-137039833D01*
X143079166Y-137124500D01*
X143121500Y-137166833D01*
X143206166Y-137209166D01*
X143460166Y-137209166D01*
X143544833Y-137166833D01*
X143587166Y-137124500D01*
X143629500Y-137039833D01*
X143629500Y-136870500D01*
X143587166Y-136785833D01*
X143079166Y-136447166D02*
X143036833Y-136362500D01*
X143036833Y-136193166D01*
X143079166Y-136108500D01*
X143163833Y-136066166D01*
X143206166Y-136066166D01*
X143290833Y-136108500D01*
X143333166Y-136193166D01*
X143333166Y-136320166D01*
X143375500Y-136404833D01*
X143460166Y-136447166D01*
X143502500Y-136447166D01*
X143587166Y-136404833D01*
X143629500Y-136320166D01*
X143629500Y-136193166D01*
X143587166Y-136108500D01*
X143121500Y-135685166D02*
X143079166Y-135642833D01*
X143036833Y-135685166D01*
X143079166Y-135727500D01*
X143121500Y-135685166D01*
X143036833Y-135685166D01*
X143079166Y-134880833D02*
X143036833Y-134965500D01*
X143036833Y-135134833D01*
X143079166Y-135219500D01*
X143121500Y-135261833D01*
X143206166Y-135304166D01*
X143460166Y-135304166D01*
X143544833Y-135261833D01*
X143587166Y-135219500D01*
X143629500Y-135134833D01*
X143629500Y-134965500D01*
X143587166Y-134880833D01*
X143036833Y-134118833D02*
X143502500Y-134118833D01*
X143587166Y-134161166D01*
X143629500Y-134245833D01*
X143629500Y-134415166D01*
X143587166Y-134499833D01*
X143079166Y-134118833D02*
X143036833Y-134203500D01*
X143036833Y-134415166D01*
X143079166Y-134499833D01*
X143163833Y-134542166D01*
X143248500Y-134542166D01*
X143333166Y-134499833D01*
X143375500Y-134415166D01*
X143375500Y-134203500D01*
X143417833Y-134118833D01*
X143036833Y-112937166D02*
X143925833Y-112937166D01*
X143079166Y-112937166D02*
X143036833Y-113021833D01*
X143036833Y-113191166D01*
X143079166Y-113275833D01*
X143121500Y-113318166D01*
X143206166Y-113360500D01*
X143460166Y-113360500D01*
X143544833Y-113318166D01*
X143587166Y-113275833D01*
X143629500Y-113191166D01*
X143629500Y-113021833D01*
X143587166Y-112937166D01*
X143036833Y-112513833D02*
X143925833Y-112513833D01*
X143587166Y-112513833D02*
X143629500Y-112429166D01*
X143629500Y-112259833D01*
X143587166Y-112175166D01*
X143544833Y-112132833D01*
X143460166Y-112090500D01*
X143206166Y-112090500D01*
X143121500Y-112132833D01*
X143079166Y-112175166D01*
X143036833Y-112259833D01*
X143036833Y-112429166D01*
X143079166Y-112513833D01*
X143375500Y-111709500D02*
X143375500Y-111032166D01*
X143079166Y-110270166D02*
X143036833Y-110354833D01*
X143036833Y-110524166D01*
X143079166Y-110608833D01*
X143163833Y-110651166D01*
X143502500Y-110651166D01*
X143587166Y-110608833D01*
X143629500Y-110524166D01*
X143629500Y-110354833D01*
X143587166Y-110270166D01*
X143502500Y-110227833D01*
X143417833Y-110227833D01*
X143333166Y-110651166D01*
X143036833Y-109719833D02*
X143079166Y-109804500D01*
X143163833Y-109846833D01*
X143925833Y-109846833D01*
X143079166Y-109042500D02*
X143036833Y-109127166D01*
X143036833Y-109296500D01*
X143079166Y-109381166D01*
X143163833Y-109423500D01*
X143502500Y-109423500D01*
X143587166Y-109381166D01*
X143629500Y-109296500D01*
X143629500Y-109127166D01*
X143587166Y-109042500D01*
X143502500Y-109000166D01*
X143417833Y-109000166D01*
X143333166Y-109423500D01*
X143079166Y-108238166D02*
X143036833Y-108322833D01*
X143036833Y-108492166D01*
X143079166Y-108576833D01*
X143121500Y-108619166D01*
X143206166Y-108661500D01*
X143460166Y-108661500D01*
X143544833Y-108619166D01*
X143587166Y-108576833D01*
X143629500Y-108492166D01*
X143629500Y-108322833D01*
X143587166Y-108238166D01*
X143629500Y-107984166D02*
X143629500Y-107645500D01*
X143925833Y-107857166D02*
X143163833Y-107857166D01*
X143079166Y-107814833D01*
X143036833Y-107730166D01*
X143036833Y-107645500D01*
X143036833Y-107349166D02*
X143629500Y-107349166D01*
X143460166Y-107349166D02*
X143544833Y-107306833D01*
X143587166Y-107264500D01*
X143629500Y-107179833D01*
X143629500Y-107095166D01*
X143036833Y-106671833D02*
X143079166Y-106756500D01*
X143121500Y-106798833D01*
X143206166Y-106841166D01*
X143460166Y-106841166D01*
X143544833Y-106798833D01*
X143587166Y-106756500D01*
X143629500Y-106671833D01*
X143629500Y-106544833D01*
X143587166Y-106460166D01*
X143544833Y-106417833D01*
X143460166Y-106375500D01*
X143206166Y-106375500D01*
X143121500Y-106417833D01*
X143079166Y-106460166D01*
X143036833Y-106544833D01*
X143036833Y-106671833D01*
X143629500Y-105994500D02*
X143036833Y-105994500D01*
X143544833Y-105994500D02*
X143587166Y-105952166D01*
X143629500Y-105867500D01*
X143629500Y-105740500D01*
X143587166Y-105655833D01*
X143502500Y-105613500D01*
X143036833Y-105613500D01*
X143036833Y-105190166D02*
X143629500Y-105190166D01*
X143925833Y-105190166D02*
X143883500Y-105232500D01*
X143841166Y-105190166D01*
X143883500Y-105147833D01*
X143925833Y-105190166D01*
X143841166Y-105190166D01*
X143079166Y-104385833D02*
X143036833Y-104470500D01*
X143036833Y-104639833D01*
X143079166Y-104724500D01*
X143121500Y-104766833D01*
X143206166Y-104809166D01*
X143460166Y-104809166D01*
X143544833Y-104766833D01*
X143587166Y-104724500D01*
X143629500Y-104639833D01*
X143629500Y-104470500D01*
X143587166Y-104385833D01*
X143079166Y-104047166D02*
X143036833Y-103962500D01*
X143036833Y-103793166D01*
X143079166Y-103708500D01*
X143163833Y-103666166D01*
X143206166Y-103666166D01*
X143290833Y-103708500D01*
X143333166Y-103793166D01*
X143333166Y-103920166D01*
X143375500Y-104004833D01*
X143460166Y-104047166D01*
X143502500Y-104047166D01*
X143587166Y-104004833D01*
X143629500Y-103920166D01*
X143629500Y-103793166D01*
X143587166Y-103708500D01*
X143121500Y-103285166D02*
X143079166Y-103242833D01*
X143036833Y-103285166D01*
X143079166Y-103327500D01*
X143121500Y-103285166D01*
X143036833Y-103285166D01*
X143079166Y-102480833D02*
X143036833Y-102565500D01*
X143036833Y-102734833D01*
X143079166Y-102819500D01*
X143121500Y-102861833D01*
X143206166Y-102904166D01*
X143460166Y-102904166D01*
X143544833Y-102861833D01*
X143587166Y-102819500D01*
X143629500Y-102734833D01*
X143629500Y-102565500D01*
X143587166Y-102480833D01*
X143036833Y-101718833D02*
X143502500Y-101718833D01*
X143587166Y-101761166D01*
X143629500Y-101845833D01*
X143629500Y-102015166D01*
X143587166Y-102099833D01*
X143079166Y-101718833D02*
X143036833Y-101803500D01*
X143036833Y-102015166D01*
X143079166Y-102099833D01*
X143163833Y-102142166D01*
X143248500Y-102142166D01*
X143333166Y-102099833D01*
X143375500Y-102015166D01*
X143375500Y-101803500D01*
X143417833Y-101718833D01*
X142296000Y-113339333D02*
X142296000Y-113000666D01*
X142592333Y-113212333D02*
X141830333Y-113212333D01*
X141745666Y-113170000D01*
X141703333Y-113085333D01*
X141703333Y-113000666D01*
X141703333Y-112704333D02*
X142296000Y-112704333D01*
X142592333Y-112704333D02*
X142550000Y-112746666D01*
X142507666Y-112704333D01*
X142550000Y-112662000D01*
X142592333Y-112704333D01*
X142507666Y-112704333D01*
X142296000Y-112281000D02*
X141703333Y-112281000D01*
X142211333Y-112281000D02*
X142253666Y-112238666D01*
X142296000Y-112154000D01*
X142296000Y-112027000D01*
X142253666Y-111942333D01*
X142169000Y-111900000D01*
X141703333Y-111900000D01*
X141703333Y-111476666D02*
X142592333Y-111476666D01*
X142042000Y-111392000D02*
X141703333Y-111138000D01*
X142296000Y-111138000D02*
X141957333Y-111476666D01*
X141745666Y-110418333D02*
X141703333Y-110503000D01*
X141703333Y-110672333D01*
X141745666Y-110757000D01*
X141830333Y-110799333D01*
X142169000Y-110799333D01*
X142253666Y-110757000D01*
X142296000Y-110672333D01*
X142296000Y-110503000D01*
X142253666Y-110418333D01*
X142169000Y-110376000D01*
X142084333Y-110376000D01*
X141999666Y-110799333D01*
X141703333Y-109995000D02*
X142296000Y-109995000D01*
X142126666Y-109995000D02*
X142211333Y-109952666D01*
X142253666Y-109910333D01*
X142296000Y-109825666D01*
X142296000Y-109741000D01*
X142296000Y-109444666D02*
X141407000Y-109444666D01*
X142253666Y-109444666D02*
X142296000Y-109360000D01*
X142296000Y-109190666D01*
X142253666Y-109106000D01*
X142211333Y-109063666D01*
X142126666Y-109021333D01*
X141872666Y-109021333D01*
X141788000Y-109063666D01*
X141745666Y-109106000D01*
X141703333Y-109190666D01*
X141703333Y-109360000D01*
X141745666Y-109444666D01*
X141703333Y-108513333D02*
X141745666Y-108598000D01*
X141830333Y-108640333D01*
X142592333Y-108640333D01*
X142296000Y-107793666D02*
X141703333Y-107793666D01*
X142296000Y-108174666D02*
X141830333Y-108174666D01*
X141745666Y-108132333D01*
X141703333Y-108047666D01*
X141703333Y-107920666D01*
X141745666Y-107836000D01*
X141788000Y-107793666D01*
X142296000Y-107370333D02*
X141703333Y-107370333D01*
X142211333Y-107370333D02*
X142253666Y-107328000D01*
X142296000Y-107243333D01*
X142296000Y-107116333D01*
X142253666Y-107031666D01*
X142169000Y-106989333D01*
X141703333Y-106989333D01*
X141703333Y-106566000D02*
X142592333Y-106566000D01*
X142042000Y-106481333D02*
X141703333Y-106227333D01*
X142296000Y-106227333D02*
X141957333Y-106566000D01*
X141788000Y-105846333D02*
X141745666Y-105804000D01*
X141703333Y-105846333D01*
X141745666Y-105888666D01*
X141788000Y-105846333D01*
X141703333Y-105846333D01*
X141745666Y-105042000D02*
X141703333Y-105126666D01*
X141703333Y-105296000D01*
X141745666Y-105380666D01*
X141788000Y-105423000D01*
X141872666Y-105465333D01*
X142126666Y-105465333D01*
X142211333Y-105423000D01*
X142253666Y-105380666D01*
X142296000Y-105296000D01*
X142296000Y-105126666D01*
X142253666Y-105042000D01*
X141703333Y-104534000D02*
X141745666Y-104618666D01*
X141788000Y-104661000D01*
X141872666Y-104703333D01*
X142126666Y-104703333D01*
X142211333Y-104661000D01*
X142253666Y-104618666D01*
X142296000Y-104534000D01*
X142296000Y-104407000D01*
X142253666Y-104322333D01*
X142211333Y-104280000D01*
X142126666Y-104237666D01*
X141872666Y-104237666D01*
X141788000Y-104280000D01*
X141745666Y-104322333D01*
X141703333Y-104407000D01*
X141703333Y-104534000D01*
X141703333Y-103856666D02*
X142296000Y-103856666D01*
X142211333Y-103856666D02*
X142253666Y-103814333D01*
X142296000Y-103729666D01*
X142296000Y-103602666D01*
X142253666Y-103518000D01*
X142169000Y-103475666D01*
X141703333Y-103475666D01*
X142169000Y-103475666D02*
X142253666Y-103433333D01*
X142296000Y-103348666D01*
X142296000Y-103221666D01*
X142253666Y-103137000D01*
X142169000Y-103094666D01*
X141703333Y-103094666D01*
X142296000Y-145739333D02*
X142296000Y-145400666D01*
X142592333Y-145612333D02*
X141830333Y-145612333D01*
X141745666Y-145570000D01*
X141703333Y-145485333D01*
X141703333Y-145400666D01*
X141703333Y-145104333D02*
X142296000Y-145104333D01*
X142592333Y-145104333D02*
X142550000Y-145146666D01*
X142507666Y-145104333D01*
X142550000Y-145062000D01*
X142592333Y-145104333D01*
X142507666Y-145104333D01*
X142296000Y-144681000D02*
X141703333Y-144681000D01*
X142211333Y-144681000D02*
X142253666Y-144638666D01*
X142296000Y-144554000D01*
X142296000Y-144427000D01*
X142253666Y-144342333D01*
X142169000Y-144300000D01*
X141703333Y-144300000D01*
X141703333Y-143876666D02*
X142592333Y-143876666D01*
X142042000Y-143792000D02*
X141703333Y-143538000D01*
X142296000Y-143538000D02*
X141957333Y-143876666D01*
X141745666Y-142818333D02*
X141703333Y-142903000D01*
X141703333Y-143072333D01*
X141745666Y-143157000D01*
X141830333Y-143199333D01*
X142169000Y-143199333D01*
X142253666Y-143157000D01*
X142296000Y-143072333D01*
X142296000Y-142903000D01*
X142253666Y-142818333D01*
X142169000Y-142776000D01*
X142084333Y-142776000D01*
X141999666Y-143199333D01*
X141703333Y-142395000D02*
X142296000Y-142395000D01*
X142126666Y-142395000D02*
X142211333Y-142352666D01*
X142253666Y-142310333D01*
X142296000Y-142225666D01*
X142296000Y-142141000D01*
X142296000Y-141844666D02*
X141407000Y-141844666D01*
X142253666Y-141844666D02*
X142296000Y-141760000D01*
X142296000Y-141590666D01*
X142253666Y-141506000D01*
X142211333Y-141463666D01*
X142126666Y-141421333D01*
X141872666Y-141421333D01*
X141788000Y-141463666D01*
X141745666Y-141506000D01*
X141703333Y-141590666D01*
X141703333Y-141760000D01*
X141745666Y-141844666D01*
X141703333Y-140913333D02*
X141745666Y-140998000D01*
X141830333Y-141040333D01*
X142592333Y-141040333D01*
X142296000Y-140193666D02*
X141703333Y-140193666D01*
X142296000Y-140574666D02*
X141830333Y-140574666D01*
X141745666Y-140532333D01*
X141703333Y-140447666D01*
X141703333Y-140320666D01*
X141745666Y-140236000D01*
X141788000Y-140193666D01*
X142296000Y-139770333D02*
X141703333Y-139770333D01*
X142211333Y-139770333D02*
X142253666Y-139728000D01*
X142296000Y-139643333D01*
X142296000Y-139516333D01*
X142253666Y-139431666D01*
X142169000Y-139389333D01*
X141703333Y-139389333D01*
X141703333Y-138966000D02*
X142592333Y-138966000D01*
X142042000Y-138881333D02*
X141703333Y-138627333D01*
X142296000Y-138627333D02*
X141957333Y-138966000D01*
X141788000Y-138246333D02*
X141745666Y-138204000D01*
X141703333Y-138246333D01*
X141745666Y-138288666D01*
X141788000Y-138246333D01*
X141703333Y-138246333D01*
X141745666Y-137442000D02*
X141703333Y-137526666D01*
X141703333Y-137696000D01*
X141745666Y-137780666D01*
X141788000Y-137823000D01*
X141872666Y-137865333D01*
X142126666Y-137865333D01*
X142211333Y-137823000D01*
X142253666Y-137780666D01*
X142296000Y-137696000D01*
X142296000Y-137526666D01*
X142253666Y-137442000D01*
X141703333Y-136934000D02*
X141745666Y-137018666D01*
X141788000Y-137061000D01*
X141872666Y-137103333D01*
X142126666Y-137103333D01*
X142211333Y-137061000D01*
X142253666Y-137018666D01*
X142296000Y-136934000D01*
X142296000Y-136807000D01*
X142253666Y-136722333D01*
X142211333Y-136680000D01*
X142126666Y-136637666D01*
X141872666Y-136637666D01*
X141788000Y-136680000D01*
X141745666Y-136722333D01*
X141703333Y-136807000D01*
X141703333Y-136934000D01*
X141703333Y-136256666D02*
X142296000Y-136256666D01*
X142211333Y-136256666D02*
X142253666Y-136214333D01*
X142296000Y-136129666D01*
X142296000Y-136002666D01*
X142253666Y-135918000D01*
X142169000Y-135875666D01*
X141703333Y-135875666D01*
X142169000Y-135875666D02*
X142253666Y-135833333D01*
X142296000Y-135748666D01*
X142296000Y-135621666D01*
X142253666Y-135537000D01*
X142169000Y-135494666D01*
X141703333Y-135494666D01*
D10*
X148014428Y-105259000D02*
X148014428Y-104973285D01*
X147943000Y-104830428D01*
X147800142Y-104687571D01*
X147514428Y-104616142D01*
X147014428Y-104616142D01*
X146728714Y-104687571D01*
X146585857Y-104830428D01*
X146514428Y-104973285D01*
X146514428Y-105259000D01*
X146585857Y-105401857D01*
X146728714Y-105544714D01*
X147014428Y-105616142D01*
X147514428Y-105616142D01*
X147800142Y-105544714D01*
X147943000Y-105401857D01*
X148014428Y-105259000D01*
X148014428Y-103973285D02*
X146800142Y-103973285D01*
X146657285Y-103901857D01*
X146585857Y-103830428D01*
X146514428Y-103687571D01*
X146514428Y-103401857D01*
X146585857Y-103259000D01*
X146657285Y-103187571D01*
X146800142Y-103116142D01*
X148014428Y-103116142D01*
X148014428Y-102616142D02*
X148014428Y-101759000D01*
X146514428Y-102187571D02*
X148014428Y-102187571D01*
X149038571Y-106069000D02*
X149038571Y-106354714D01*
X149110000Y-106497571D01*
X149252857Y-106640428D01*
X149538571Y-106711857D01*
X150038571Y-106711857D01*
X150324285Y-106640428D01*
X150467142Y-106497571D01*
X150538571Y-106354714D01*
X150538571Y-106069000D01*
X150467142Y-105926142D01*
X150324285Y-105783285D01*
X150038571Y-105711857D01*
X149538571Y-105711857D01*
X149252857Y-105783285D01*
X149110000Y-105926142D01*
X149038571Y-106069000D01*
X149038571Y-107354714D02*
X150252857Y-107354714D01*
X150395714Y-107426142D01*
X150467142Y-107497571D01*
X150538571Y-107640428D01*
X150538571Y-107926142D01*
X150467142Y-108069000D01*
X150395714Y-108140428D01*
X150252857Y-108211857D01*
X149038571Y-108211857D01*
X149038571Y-108711857D02*
X149038571Y-109569000D01*
X150538571Y-109140428D02*
X149038571Y-109140428D01*
X148014428Y-137771000D02*
X148014428Y-137485285D01*
X147943000Y-137342428D01*
X147800142Y-137199571D01*
X147514428Y-137128142D01*
X147014428Y-137128142D01*
X146728714Y-137199571D01*
X146585857Y-137342428D01*
X146514428Y-137485285D01*
X146514428Y-137771000D01*
X146585857Y-137913857D01*
X146728714Y-138056714D01*
X147014428Y-138128142D01*
X147514428Y-138128142D01*
X147800142Y-138056714D01*
X147943000Y-137913857D01*
X148014428Y-137771000D01*
X148014428Y-136485285D02*
X146800142Y-136485285D01*
X146657285Y-136413857D01*
X146585857Y-136342428D01*
X146514428Y-136199571D01*
X146514428Y-135913857D01*
X146585857Y-135771000D01*
X146657285Y-135699571D01*
X146800142Y-135628142D01*
X148014428Y-135628142D01*
X148014428Y-135128142D02*
X148014428Y-134271000D01*
X146514428Y-134699571D02*
X148014428Y-134699571D01*
D11*
X142296000Y-78939333D02*
X142296000Y-78600666D01*
X142592333Y-78812333D02*
X141830333Y-78812333D01*
X141745666Y-78770000D01*
X141703333Y-78685333D01*
X141703333Y-78600666D01*
X141703333Y-78304333D02*
X142296000Y-78304333D01*
X142592333Y-78304333D02*
X142550000Y-78346666D01*
X142507666Y-78304333D01*
X142550000Y-78262000D01*
X142592333Y-78304333D01*
X142507666Y-78304333D01*
X142296000Y-77881000D02*
X141703333Y-77881000D01*
X142211333Y-77881000D02*
X142253666Y-77838666D01*
X142296000Y-77754000D01*
X142296000Y-77627000D01*
X142253666Y-77542333D01*
X142169000Y-77500000D01*
X141703333Y-77500000D01*
X141703333Y-77076666D02*
X142592333Y-77076666D01*
X142042000Y-76992000D02*
X141703333Y-76738000D01*
X142296000Y-76738000D02*
X141957333Y-77076666D01*
X141745666Y-76018333D02*
X141703333Y-76103000D01*
X141703333Y-76272333D01*
X141745666Y-76357000D01*
X141830333Y-76399333D01*
X142169000Y-76399333D01*
X142253666Y-76357000D01*
X142296000Y-76272333D01*
X142296000Y-76103000D01*
X142253666Y-76018333D01*
X142169000Y-75976000D01*
X142084333Y-75976000D01*
X141999666Y-76399333D01*
X141703333Y-75595000D02*
X142296000Y-75595000D01*
X142126666Y-75595000D02*
X142211333Y-75552666D01*
X142253666Y-75510333D01*
X142296000Y-75425666D01*
X142296000Y-75341000D01*
X142296000Y-75044666D02*
X141407000Y-75044666D01*
X142253666Y-75044666D02*
X142296000Y-74960000D01*
X142296000Y-74790666D01*
X142253666Y-74706000D01*
X142211333Y-74663666D01*
X142126666Y-74621333D01*
X141872666Y-74621333D01*
X141788000Y-74663666D01*
X141745666Y-74706000D01*
X141703333Y-74790666D01*
X141703333Y-74960000D01*
X141745666Y-75044666D01*
X141703333Y-74113333D02*
X141745666Y-74198000D01*
X141830333Y-74240333D01*
X142592333Y-74240333D01*
X142296000Y-73393666D02*
X141703333Y-73393666D01*
X142296000Y-73774666D02*
X141830333Y-73774666D01*
X141745666Y-73732333D01*
X141703333Y-73647666D01*
X141703333Y-73520666D01*
X141745666Y-73436000D01*
X141788000Y-73393666D01*
X142296000Y-72970333D02*
X141703333Y-72970333D01*
X142211333Y-72970333D02*
X142253666Y-72928000D01*
X142296000Y-72843333D01*
X142296000Y-72716333D01*
X142253666Y-72631666D01*
X142169000Y-72589333D01*
X141703333Y-72589333D01*
X141703333Y-72166000D02*
X142592333Y-72166000D01*
X142042000Y-72081333D02*
X141703333Y-71827333D01*
X142296000Y-71827333D02*
X141957333Y-72166000D01*
X141788000Y-71446333D02*
X141745666Y-71404000D01*
X141703333Y-71446333D01*
X141745666Y-71488666D01*
X141788000Y-71446333D01*
X141703333Y-71446333D01*
X141745666Y-70642000D02*
X141703333Y-70726666D01*
X141703333Y-70896000D01*
X141745666Y-70980666D01*
X141788000Y-71023000D01*
X141872666Y-71065333D01*
X142126666Y-71065333D01*
X142211333Y-71023000D01*
X142253666Y-70980666D01*
X142296000Y-70896000D01*
X142296000Y-70726666D01*
X142253666Y-70642000D01*
X141703333Y-70134000D02*
X141745666Y-70218666D01*
X141788000Y-70261000D01*
X141872666Y-70303333D01*
X142126666Y-70303333D01*
X142211333Y-70261000D01*
X142253666Y-70218666D01*
X142296000Y-70134000D01*
X142296000Y-70007000D01*
X142253666Y-69922333D01*
X142211333Y-69880000D01*
X142126666Y-69837666D01*
X141872666Y-69837666D01*
X141788000Y-69880000D01*
X141745666Y-69922333D01*
X141703333Y-70007000D01*
X141703333Y-70134000D01*
X141703333Y-69456666D02*
X142296000Y-69456666D01*
X142211333Y-69456666D02*
X142253666Y-69414333D01*
X142296000Y-69329666D01*
X142296000Y-69202666D01*
X142253666Y-69118000D01*
X142169000Y-69075666D01*
X141703333Y-69075666D01*
X142169000Y-69075666D02*
X142253666Y-69033333D01*
X142296000Y-68948666D01*
X142296000Y-68821666D01*
X142253666Y-68737000D01*
X142169000Y-68694666D01*
X141703333Y-68694666D01*
X143036833Y-78537166D02*
X143925833Y-78537166D01*
X143079166Y-78537166D02*
X143036833Y-78621833D01*
X143036833Y-78791166D01*
X143079166Y-78875833D01*
X143121500Y-78918166D01*
X143206166Y-78960500D01*
X143460166Y-78960500D01*
X143544833Y-78918166D01*
X143587166Y-78875833D01*
X143629500Y-78791166D01*
X143629500Y-78621833D01*
X143587166Y-78537166D01*
X143036833Y-78113833D02*
X143925833Y-78113833D01*
X143587166Y-78113833D02*
X143629500Y-78029166D01*
X143629500Y-77859833D01*
X143587166Y-77775166D01*
X143544833Y-77732833D01*
X143460166Y-77690500D01*
X143206166Y-77690500D01*
X143121500Y-77732833D01*
X143079166Y-77775166D01*
X143036833Y-77859833D01*
X143036833Y-78029166D01*
X143079166Y-78113833D01*
X143375500Y-77309500D02*
X143375500Y-76632166D01*
X143079166Y-75870166D02*
X143036833Y-75954833D01*
X143036833Y-76124166D01*
X143079166Y-76208833D01*
X143163833Y-76251166D01*
X143502500Y-76251166D01*
X143587166Y-76208833D01*
X143629500Y-76124166D01*
X143629500Y-75954833D01*
X143587166Y-75870166D01*
X143502500Y-75827833D01*
X143417833Y-75827833D01*
X143333166Y-76251166D01*
X143036833Y-75319833D02*
X143079166Y-75404500D01*
X143163833Y-75446833D01*
X143925833Y-75446833D01*
X143079166Y-74642500D02*
X143036833Y-74727166D01*
X143036833Y-74896500D01*
X143079166Y-74981166D01*
X143163833Y-75023500D01*
X143502500Y-75023500D01*
X143587166Y-74981166D01*
X143629500Y-74896500D01*
X143629500Y-74727166D01*
X143587166Y-74642500D01*
X143502500Y-74600166D01*
X143417833Y-74600166D01*
X143333166Y-75023500D01*
X143079166Y-73838166D02*
X143036833Y-73922833D01*
X143036833Y-74092166D01*
X143079166Y-74176833D01*
X143121500Y-74219166D01*
X143206166Y-74261500D01*
X143460166Y-74261500D01*
X143544833Y-74219166D01*
X143587166Y-74176833D01*
X143629500Y-74092166D01*
X143629500Y-73922833D01*
X143587166Y-73838166D01*
X143629500Y-73584166D02*
X143629500Y-73245500D01*
X143925833Y-73457166D02*
X143163833Y-73457166D01*
X143079166Y-73414833D01*
X143036833Y-73330166D01*
X143036833Y-73245500D01*
X143036833Y-72949166D02*
X143629500Y-72949166D01*
X143460166Y-72949166D02*
X143544833Y-72906833D01*
X143587166Y-72864500D01*
X143629500Y-72779833D01*
X143629500Y-72695166D01*
X143036833Y-72271833D02*
X143079166Y-72356500D01*
X143121500Y-72398833D01*
X143206166Y-72441166D01*
X143460166Y-72441166D01*
X143544833Y-72398833D01*
X143587166Y-72356500D01*
X143629500Y-72271833D01*
X143629500Y-72144833D01*
X143587166Y-72060166D01*
X143544833Y-72017833D01*
X143460166Y-71975500D01*
X143206166Y-71975500D01*
X143121500Y-72017833D01*
X143079166Y-72060166D01*
X143036833Y-72144833D01*
X143036833Y-72271833D01*
X143629500Y-71594500D02*
X143036833Y-71594500D01*
X143544833Y-71594500D02*
X143587166Y-71552166D01*
X143629500Y-71467500D01*
X143629500Y-71340500D01*
X143587166Y-71255833D01*
X143502500Y-71213500D01*
X143036833Y-71213500D01*
X143036833Y-70790166D02*
X143629500Y-70790166D01*
X143925833Y-70790166D02*
X143883500Y-70832500D01*
X143841166Y-70790166D01*
X143883500Y-70747833D01*
X143925833Y-70790166D01*
X143841166Y-70790166D01*
X143079166Y-69985833D02*
X143036833Y-70070500D01*
X143036833Y-70239833D01*
X143079166Y-70324500D01*
X143121500Y-70366833D01*
X143206166Y-70409166D01*
X143460166Y-70409166D01*
X143544833Y-70366833D01*
X143587166Y-70324500D01*
X143629500Y-70239833D01*
X143629500Y-70070500D01*
X143587166Y-69985833D01*
X143079166Y-69647166D02*
X143036833Y-69562500D01*
X143036833Y-69393166D01*
X143079166Y-69308500D01*
X143163833Y-69266166D01*
X143206166Y-69266166D01*
X143290833Y-69308500D01*
X143333166Y-69393166D01*
X143333166Y-69520166D01*
X143375500Y-69604833D01*
X143460166Y-69647166D01*
X143502500Y-69647166D01*
X143587166Y-69604833D01*
X143629500Y-69520166D01*
X143629500Y-69393166D01*
X143587166Y-69308500D01*
X143121500Y-68885166D02*
X143079166Y-68842833D01*
X143036833Y-68885166D01*
X143079166Y-68927500D01*
X143121500Y-68885166D01*
X143036833Y-68885166D01*
X143079166Y-68080833D02*
X143036833Y-68165500D01*
X143036833Y-68334833D01*
X143079166Y-68419500D01*
X143121500Y-68461833D01*
X143206166Y-68504166D01*
X143460166Y-68504166D01*
X143544833Y-68461833D01*
X143587166Y-68419500D01*
X143629500Y-68334833D01*
X143629500Y-68165500D01*
X143587166Y-68080833D01*
X143036833Y-67318833D02*
X143502500Y-67318833D01*
X143587166Y-67361166D01*
X143629500Y-67445833D01*
X143629500Y-67615166D01*
X143587166Y-67699833D01*
X143079166Y-67318833D02*
X143036833Y-67403500D01*
X143036833Y-67615166D01*
X143079166Y-67699833D01*
X143163833Y-67742166D01*
X143248500Y-67742166D01*
X143333166Y-67699833D01*
X143375500Y-67615166D01*
X143375500Y-67403500D01*
X143417833Y-67318833D01*
D10*
X149165571Y-71906000D02*
X149165571Y-72191714D01*
X149237000Y-72334571D01*
X149379857Y-72477428D01*
X149665571Y-72548857D01*
X150165571Y-72548857D01*
X150451285Y-72477428D01*
X150594142Y-72334571D01*
X150665571Y-72191714D01*
X150665571Y-71906000D01*
X150594142Y-71763142D01*
X150451285Y-71620285D01*
X150165571Y-71548857D01*
X149665571Y-71548857D01*
X149379857Y-71620285D01*
X149237000Y-71763142D01*
X149165571Y-71906000D01*
X149165571Y-73191714D02*
X150379857Y-73191714D01*
X150522714Y-73263142D01*
X150594142Y-73334571D01*
X150665571Y-73477428D01*
X150665571Y-73763142D01*
X150594142Y-73906000D01*
X150522714Y-73977428D01*
X150379857Y-74048857D01*
X149165571Y-74048857D01*
X149165571Y-74548857D02*
X149165571Y-75406000D01*
X150665571Y-74977428D02*
X149165571Y-74977428D01*
X148014428Y-71096000D02*
X148014428Y-70810285D01*
X147943000Y-70667428D01*
X147800142Y-70524571D01*
X147514428Y-70453142D01*
X147014428Y-70453142D01*
X146728714Y-70524571D01*
X146585857Y-70667428D01*
X146514428Y-70810285D01*
X146514428Y-71096000D01*
X146585857Y-71238857D01*
X146728714Y-71381714D01*
X147014428Y-71453142D01*
X147514428Y-71453142D01*
X147800142Y-71381714D01*
X147943000Y-71238857D01*
X148014428Y-71096000D01*
X148014428Y-69810285D02*
X146800142Y-69810285D01*
X146657285Y-69738857D01*
X146585857Y-69667428D01*
X146514428Y-69524571D01*
X146514428Y-69238857D01*
X146585857Y-69096000D01*
X146657285Y-69024571D01*
X146800142Y-68953142D01*
X148014428Y-68953142D01*
X148014428Y-68453142D02*
X148014428Y-67596000D01*
X146514428Y-68024571D02*
X148014428Y-68024571D01*
D11*
X154804000Y-63868666D02*
X154804000Y-64207333D01*
X154507666Y-63995666D02*
X155269666Y-63995666D01*
X155354333Y-64038000D01*
X155396666Y-64122666D01*
X155396666Y-64207333D01*
X155396666Y-64503666D02*
X154804000Y-64503666D01*
X154507666Y-64503666D02*
X154550000Y-64461333D01*
X154592333Y-64503666D01*
X154550000Y-64546000D01*
X154507666Y-64503666D01*
X154592333Y-64503666D01*
X154804000Y-64927000D02*
X155396666Y-64927000D01*
X154888666Y-64927000D02*
X154846333Y-64969333D01*
X154804000Y-65054000D01*
X154804000Y-65181000D01*
X154846333Y-65265666D01*
X154931000Y-65308000D01*
X155396666Y-65308000D01*
X155396666Y-65731333D02*
X154507666Y-65731333D01*
X155058000Y-65816000D02*
X155396666Y-66070000D01*
X154804000Y-66070000D02*
X155142666Y-65731333D01*
X155354333Y-66789666D02*
X155396666Y-66705000D01*
X155396666Y-66535666D01*
X155354333Y-66451000D01*
X155269666Y-66408666D01*
X154931000Y-66408666D01*
X154846333Y-66451000D01*
X154804000Y-66535666D01*
X154804000Y-66705000D01*
X154846333Y-66789666D01*
X154931000Y-66832000D01*
X155015666Y-66832000D01*
X155100333Y-66408666D01*
X155396666Y-67213000D02*
X154804000Y-67213000D01*
X154973333Y-67213000D02*
X154888666Y-67255333D01*
X154846333Y-67297666D01*
X154804000Y-67382333D01*
X154804000Y-67467000D01*
X154804000Y-67763333D02*
X155693000Y-67763333D01*
X154846333Y-67763333D02*
X154804000Y-67848000D01*
X154804000Y-68017333D01*
X154846333Y-68102000D01*
X154888666Y-68144333D01*
X154973333Y-68186666D01*
X155227333Y-68186666D01*
X155312000Y-68144333D01*
X155354333Y-68102000D01*
X155396666Y-68017333D01*
X155396666Y-67848000D01*
X155354333Y-67763333D01*
X155396666Y-68694666D02*
X155354333Y-68610000D01*
X155269666Y-68567666D01*
X154507666Y-68567666D01*
X154804000Y-69414333D02*
X155396666Y-69414333D01*
X154804000Y-69033333D02*
X155269666Y-69033333D01*
X155354333Y-69075666D01*
X155396666Y-69160333D01*
X155396666Y-69287333D01*
X155354333Y-69372000D01*
X155312000Y-69414333D01*
X154804000Y-69837666D02*
X155396666Y-69837666D01*
X154888666Y-69837666D02*
X154846333Y-69880000D01*
X154804000Y-69964666D01*
X154804000Y-70091666D01*
X154846333Y-70176333D01*
X154931000Y-70218666D01*
X155396666Y-70218666D01*
X155396666Y-70642000D02*
X154507666Y-70642000D01*
X155058000Y-70726666D02*
X155396666Y-70980666D01*
X154804000Y-70980666D02*
X155142666Y-70642000D01*
X155312000Y-71361666D02*
X155354333Y-71404000D01*
X155396666Y-71361666D01*
X155354333Y-71319333D01*
X155312000Y-71361666D01*
X155396666Y-71361666D01*
X155354333Y-72166000D02*
X155396666Y-72081333D01*
X155396666Y-71912000D01*
X155354333Y-71827333D01*
X155312000Y-71785000D01*
X155227333Y-71742666D01*
X154973333Y-71742666D01*
X154888666Y-71785000D01*
X154846333Y-71827333D01*
X154804000Y-71912000D01*
X154804000Y-72081333D01*
X154846333Y-72166000D01*
X155396666Y-72674000D02*
X155354333Y-72589333D01*
X155312000Y-72547000D01*
X155227333Y-72504666D01*
X154973333Y-72504666D01*
X154888666Y-72547000D01*
X154846333Y-72589333D01*
X154804000Y-72674000D01*
X154804000Y-72801000D01*
X154846333Y-72885666D01*
X154888666Y-72928000D01*
X154973333Y-72970333D01*
X155227333Y-72970333D01*
X155312000Y-72928000D01*
X155354333Y-72885666D01*
X155396666Y-72801000D01*
X155396666Y-72674000D01*
X155396666Y-73351333D02*
X154804000Y-73351333D01*
X154888666Y-73351333D02*
X154846333Y-73393666D01*
X154804000Y-73478333D01*
X154804000Y-73605333D01*
X154846333Y-73690000D01*
X154931000Y-73732333D01*
X155396666Y-73732333D01*
X154931000Y-73732333D02*
X154846333Y-73774666D01*
X154804000Y-73859333D01*
X154804000Y-73986333D01*
X154846333Y-74071000D01*
X154931000Y-74113333D01*
X155396666Y-74113333D01*
X154063166Y-64270833D02*
X153174166Y-64270833D01*
X154020833Y-64270833D02*
X154063166Y-64186166D01*
X154063166Y-64016833D01*
X154020833Y-63932166D01*
X153978500Y-63889833D01*
X153893833Y-63847500D01*
X153639833Y-63847500D01*
X153555166Y-63889833D01*
X153512833Y-63932166D01*
X153470500Y-64016833D01*
X153470500Y-64186166D01*
X153512833Y-64270833D01*
X154063166Y-64694166D02*
X153174166Y-64694166D01*
X153512833Y-64694166D02*
X153470500Y-64778833D01*
X153470500Y-64948166D01*
X153512833Y-65032833D01*
X153555166Y-65075166D01*
X153639833Y-65117500D01*
X153893833Y-65117500D01*
X153978500Y-65075166D01*
X154020833Y-65032833D01*
X154063166Y-64948166D01*
X154063166Y-64778833D01*
X154020833Y-64694166D01*
X153724500Y-65498500D02*
X153724500Y-66175833D01*
X154020833Y-66937833D02*
X154063166Y-66853166D01*
X154063166Y-66683833D01*
X154020833Y-66599166D01*
X153936166Y-66556833D01*
X153597500Y-66556833D01*
X153512833Y-66599166D01*
X153470500Y-66683833D01*
X153470500Y-66853166D01*
X153512833Y-66937833D01*
X153597500Y-66980166D01*
X153682166Y-66980166D01*
X153766833Y-66556833D01*
X154063166Y-67488166D02*
X154020833Y-67403500D01*
X153936166Y-67361166D01*
X153174166Y-67361166D01*
X154020833Y-68165500D02*
X154063166Y-68080833D01*
X154063166Y-67911500D01*
X154020833Y-67826833D01*
X153936166Y-67784500D01*
X153597500Y-67784500D01*
X153512833Y-67826833D01*
X153470500Y-67911500D01*
X153470500Y-68080833D01*
X153512833Y-68165500D01*
X153597500Y-68207833D01*
X153682166Y-68207833D01*
X153766833Y-67784500D01*
X154020833Y-68969833D02*
X154063166Y-68885166D01*
X154063166Y-68715833D01*
X154020833Y-68631166D01*
X153978500Y-68588833D01*
X153893833Y-68546500D01*
X153639833Y-68546500D01*
X153555166Y-68588833D01*
X153512833Y-68631166D01*
X153470500Y-68715833D01*
X153470500Y-68885166D01*
X153512833Y-68969833D01*
X153470500Y-69223833D02*
X153470500Y-69562500D01*
X153174166Y-69350833D02*
X153936166Y-69350833D01*
X154020833Y-69393166D01*
X154063166Y-69477833D01*
X154063166Y-69562500D01*
X154063166Y-69858833D02*
X153470500Y-69858833D01*
X153639833Y-69858833D02*
X153555166Y-69901166D01*
X153512833Y-69943500D01*
X153470500Y-70028166D01*
X153470500Y-70112833D01*
X154063166Y-70536166D02*
X154020833Y-70451500D01*
X153978500Y-70409166D01*
X153893833Y-70366833D01*
X153639833Y-70366833D01*
X153555166Y-70409166D01*
X153512833Y-70451500D01*
X153470500Y-70536166D01*
X153470500Y-70663166D01*
X153512833Y-70747833D01*
X153555166Y-70790166D01*
X153639833Y-70832500D01*
X153893833Y-70832500D01*
X153978500Y-70790166D01*
X154020833Y-70747833D01*
X154063166Y-70663166D01*
X154063166Y-70536166D01*
X153470500Y-71213500D02*
X154063166Y-71213500D01*
X153555166Y-71213500D02*
X153512833Y-71255833D01*
X153470500Y-71340500D01*
X153470500Y-71467500D01*
X153512833Y-71552166D01*
X153597500Y-71594500D01*
X154063166Y-71594500D01*
X154063166Y-72017833D02*
X153470500Y-72017833D01*
X153174166Y-72017833D02*
X153216500Y-71975500D01*
X153258833Y-72017833D01*
X153216500Y-72060166D01*
X153174166Y-72017833D01*
X153258833Y-72017833D01*
X154020833Y-72822166D02*
X154063166Y-72737500D01*
X154063166Y-72568166D01*
X154020833Y-72483500D01*
X153978500Y-72441166D01*
X153893833Y-72398833D01*
X153639833Y-72398833D01*
X153555166Y-72441166D01*
X153512833Y-72483500D01*
X153470500Y-72568166D01*
X153470500Y-72737500D01*
X153512833Y-72822166D01*
X154020833Y-73160833D02*
X154063166Y-73245500D01*
X154063166Y-73414833D01*
X154020833Y-73499500D01*
X153936166Y-73541833D01*
X153893833Y-73541833D01*
X153809166Y-73499500D01*
X153766833Y-73414833D01*
X153766833Y-73287833D01*
X153724500Y-73203166D01*
X153639833Y-73160833D01*
X153597500Y-73160833D01*
X153512833Y-73203166D01*
X153470500Y-73287833D01*
X153470500Y-73414833D01*
X153512833Y-73499500D01*
X153978500Y-73922833D02*
X154020833Y-73965166D01*
X154063166Y-73922833D01*
X154020833Y-73880500D01*
X153978500Y-73922833D01*
X154063166Y-73922833D01*
X154020833Y-74727166D02*
X154063166Y-74642500D01*
X154063166Y-74473166D01*
X154020833Y-74388500D01*
X153978500Y-74346166D01*
X153893833Y-74303833D01*
X153639833Y-74303833D01*
X153555166Y-74346166D01*
X153512833Y-74388500D01*
X153470500Y-74473166D01*
X153470500Y-74642500D01*
X153512833Y-74727166D01*
X154063166Y-75489166D02*
X153597500Y-75489166D01*
X153512833Y-75446833D01*
X153470500Y-75362166D01*
X153470500Y-75192833D01*
X153512833Y-75108166D01*
X154020833Y-75489166D02*
X154063166Y-75404500D01*
X154063166Y-75192833D01*
X154020833Y-75108166D01*
X153936166Y-75065833D01*
X153851500Y-75065833D01*
X153766833Y-75108166D01*
X153724500Y-75192833D01*
X153724500Y-75404500D01*
X153682166Y-75489166D01*
X154804000Y-130668666D02*
X154804000Y-131007333D01*
X154507666Y-130795666D02*
X155269666Y-130795666D01*
X155354333Y-130838000D01*
X155396666Y-130922666D01*
X155396666Y-131007333D01*
X155396666Y-131303666D02*
X154804000Y-131303666D01*
X154507666Y-131303666D02*
X154550000Y-131261333D01*
X154592333Y-131303666D01*
X154550000Y-131346000D01*
X154507666Y-131303666D01*
X154592333Y-131303666D01*
X154804000Y-131727000D02*
X155396666Y-131727000D01*
X154888666Y-131727000D02*
X154846333Y-131769333D01*
X154804000Y-131854000D01*
X154804000Y-131981000D01*
X154846333Y-132065666D01*
X154931000Y-132108000D01*
X155396666Y-132108000D01*
X155396666Y-132531333D02*
X154507666Y-132531333D01*
X155058000Y-132616000D02*
X155396666Y-132870000D01*
X154804000Y-132870000D02*
X155142666Y-132531333D01*
X155354333Y-133589666D02*
X155396666Y-133505000D01*
X155396666Y-133335666D01*
X155354333Y-133251000D01*
X155269666Y-133208666D01*
X154931000Y-133208666D01*
X154846333Y-133251000D01*
X154804000Y-133335666D01*
X154804000Y-133505000D01*
X154846333Y-133589666D01*
X154931000Y-133632000D01*
X155015666Y-133632000D01*
X155100333Y-133208666D01*
X155396666Y-134013000D02*
X154804000Y-134013000D01*
X154973333Y-134013000D02*
X154888666Y-134055333D01*
X154846333Y-134097666D01*
X154804000Y-134182333D01*
X154804000Y-134267000D01*
X154804000Y-134563333D02*
X155693000Y-134563333D01*
X154846333Y-134563333D02*
X154804000Y-134648000D01*
X154804000Y-134817333D01*
X154846333Y-134902000D01*
X154888666Y-134944333D01*
X154973333Y-134986666D01*
X155227333Y-134986666D01*
X155312000Y-134944333D01*
X155354333Y-134902000D01*
X155396666Y-134817333D01*
X155396666Y-134648000D01*
X155354333Y-134563333D01*
X155396666Y-135494666D02*
X155354333Y-135410000D01*
X155269666Y-135367666D01*
X154507666Y-135367666D01*
X154804000Y-136214333D02*
X155396666Y-136214333D01*
X154804000Y-135833333D02*
X155269666Y-135833333D01*
X155354333Y-135875666D01*
X155396666Y-135960333D01*
X155396666Y-136087333D01*
X155354333Y-136172000D01*
X155312000Y-136214333D01*
X154804000Y-136637666D02*
X155396666Y-136637666D01*
X154888666Y-136637666D02*
X154846333Y-136680000D01*
X154804000Y-136764666D01*
X154804000Y-136891666D01*
X154846333Y-136976333D01*
X154931000Y-137018666D01*
X155396666Y-137018666D01*
X155396666Y-137442000D02*
X154507666Y-137442000D01*
X155058000Y-137526666D02*
X155396666Y-137780666D01*
X154804000Y-137780666D02*
X155142666Y-137442000D01*
X155312000Y-138161666D02*
X155354333Y-138204000D01*
X155396666Y-138161666D01*
X155354333Y-138119333D01*
X155312000Y-138161666D01*
X155396666Y-138161666D01*
X155354333Y-138966000D02*
X155396666Y-138881333D01*
X155396666Y-138712000D01*
X155354333Y-138627333D01*
X155312000Y-138585000D01*
X155227333Y-138542666D01*
X154973333Y-138542666D01*
X154888666Y-138585000D01*
X154846333Y-138627333D01*
X154804000Y-138712000D01*
X154804000Y-138881333D01*
X154846333Y-138966000D01*
X155396666Y-139474000D02*
X155354333Y-139389333D01*
X155312000Y-139347000D01*
X155227333Y-139304666D01*
X154973333Y-139304666D01*
X154888666Y-139347000D01*
X154846333Y-139389333D01*
X154804000Y-139474000D01*
X154804000Y-139601000D01*
X154846333Y-139685666D01*
X154888666Y-139728000D01*
X154973333Y-139770333D01*
X155227333Y-139770333D01*
X155312000Y-139728000D01*
X155354333Y-139685666D01*
X155396666Y-139601000D01*
X155396666Y-139474000D01*
X155396666Y-140151333D02*
X154804000Y-140151333D01*
X154888666Y-140151333D02*
X154846333Y-140193666D01*
X154804000Y-140278333D01*
X154804000Y-140405333D01*
X154846333Y-140490000D01*
X154931000Y-140532333D01*
X155396666Y-140532333D01*
X154931000Y-140532333D02*
X154846333Y-140574666D01*
X154804000Y-140659333D01*
X154804000Y-140786333D01*
X154846333Y-140871000D01*
X154931000Y-140913333D01*
X155396666Y-140913333D01*
X154063166Y-131070833D02*
X153174166Y-131070833D01*
X154020833Y-131070833D02*
X154063166Y-130986166D01*
X154063166Y-130816833D01*
X154020833Y-130732166D01*
X153978500Y-130689833D01*
X153893833Y-130647500D01*
X153639833Y-130647500D01*
X153555166Y-130689833D01*
X153512833Y-130732166D01*
X153470500Y-130816833D01*
X153470500Y-130986166D01*
X153512833Y-131070833D01*
X154063166Y-131494166D02*
X153174166Y-131494166D01*
X153512833Y-131494166D02*
X153470500Y-131578833D01*
X153470500Y-131748166D01*
X153512833Y-131832833D01*
X153555166Y-131875166D01*
X153639833Y-131917500D01*
X153893833Y-131917500D01*
X153978500Y-131875166D01*
X154020833Y-131832833D01*
X154063166Y-131748166D01*
X154063166Y-131578833D01*
X154020833Y-131494166D01*
X153724500Y-132298500D02*
X153724500Y-132975833D01*
X154020833Y-133737833D02*
X154063166Y-133653166D01*
X154063166Y-133483833D01*
X154020833Y-133399166D01*
X153936166Y-133356833D01*
X153597500Y-133356833D01*
X153512833Y-133399166D01*
X153470500Y-133483833D01*
X153470500Y-133653166D01*
X153512833Y-133737833D01*
X153597500Y-133780166D01*
X153682166Y-133780166D01*
X153766833Y-133356833D01*
X154063166Y-134288166D02*
X154020833Y-134203500D01*
X153936166Y-134161166D01*
X153174166Y-134161166D01*
X154020833Y-134965500D02*
X154063166Y-134880833D01*
X154063166Y-134711500D01*
X154020833Y-134626833D01*
X153936166Y-134584500D01*
X153597500Y-134584500D01*
X153512833Y-134626833D01*
X153470500Y-134711500D01*
X153470500Y-134880833D01*
X153512833Y-134965500D01*
X153597500Y-135007833D01*
X153682166Y-135007833D01*
X153766833Y-134584500D01*
X154020833Y-135769833D02*
X154063166Y-135685166D01*
X154063166Y-135515833D01*
X154020833Y-135431166D01*
X153978500Y-135388833D01*
X153893833Y-135346500D01*
X153639833Y-135346500D01*
X153555166Y-135388833D01*
X153512833Y-135431166D01*
X153470500Y-135515833D01*
X153470500Y-135685166D01*
X153512833Y-135769833D01*
X153470500Y-136023833D02*
X153470500Y-136362500D01*
X153174166Y-136150833D02*
X153936166Y-136150833D01*
X154020833Y-136193166D01*
X154063166Y-136277833D01*
X154063166Y-136362500D01*
X154063166Y-136658833D02*
X153470500Y-136658833D01*
X153639833Y-136658833D02*
X153555166Y-136701166D01*
X153512833Y-136743500D01*
X153470500Y-136828166D01*
X153470500Y-136912833D01*
X154063166Y-137336166D02*
X154020833Y-137251500D01*
X153978500Y-137209166D01*
X153893833Y-137166833D01*
X153639833Y-137166833D01*
X153555166Y-137209166D01*
X153512833Y-137251500D01*
X153470500Y-137336166D01*
X153470500Y-137463166D01*
X153512833Y-137547833D01*
X153555166Y-137590166D01*
X153639833Y-137632500D01*
X153893833Y-137632500D01*
X153978500Y-137590166D01*
X154020833Y-137547833D01*
X154063166Y-137463166D01*
X154063166Y-137336166D01*
X153470500Y-138013500D02*
X154063166Y-138013500D01*
X153555166Y-138013500D02*
X153512833Y-138055833D01*
X153470500Y-138140500D01*
X153470500Y-138267500D01*
X153512833Y-138352166D01*
X153597500Y-138394500D01*
X154063166Y-138394500D01*
X154063166Y-138817833D02*
X153470500Y-138817833D01*
X153174166Y-138817833D02*
X153216500Y-138775500D01*
X153258833Y-138817833D01*
X153216500Y-138860166D01*
X153174166Y-138817833D01*
X153258833Y-138817833D01*
X154020833Y-139622166D02*
X154063166Y-139537500D01*
X154063166Y-139368166D01*
X154020833Y-139283500D01*
X153978500Y-139241166D01*
X153893833Y-139198833D01*
X153639833Y-139198833D01*
X153555166Y-139241166D01*
X153512833Y-139283500D01*
X153470500Y-139368166D01*
X153470500Y-139537500D01*
X153512833Y-139622166D01*
X154020833Y-139960833D02*
X154063166Y-140045500D01*
X154063166Y-140214833D01*
X154020833Y-140299500D01*
X153936166Y-140341833D01*
X153893833Y-140341833D01*
X153809166Y-140299500D01*
X153766833Y-140214833D01*
X153766833Y-140087833D01*
X153724500Y-140003166D01*
X153639833Y-139960833D01*
X153597500Y-139960833D01*
X153512833Y-140003166D01*
X153470500Y-140087833D01*
X153470500Y-140214833D01*
X153512833Y-140299500D01*
X153978500Y-140722833D02*
X154020833Y-140765166D01*
X154063166Y-140722833D01*
X154020833Y-140680500D01*
X153978500Y-140722833D01*
X154063166Y-140722833D01*
X154020833Y-141527166D02*
X154063166Y-141442500D01*
X154063166Y-141273166D01*
X154020833Y-141188500D01*
X153978500Y-141146166D01*
X153893833Y-141103833D01*
X153639833Y-141103833D01*
X153555166Y-141146166D01*
X153512833Y-141188500D01*
X153470500Y-141273166D01*
X153470500Y-141442500D01*
X153512833Y-141527166D01*
X154063166Y-142289166D02*
X153597500Y-142289166D01*
X153512833Y-142246833D01*
X153470500Y-142162166D01*
X153470500Y-141992833D01*
X153512833Y-141908166D01*
X154020833Y-142289166D02*
X154063166Y-142204500D01*
X154063166Y-141992833D01*
X154020833Y-141908166D01*
X153936166Y-141865833D01*
X153851500Y-141865833D01*
X153766833Y-141908166D01*
X153724500Y-141992833D01*
X153724500Y-142204500D01*
X153682166Y-142289166D01*
X96036833Y-78537166D02*
X96925833Y-78537166D01*
X96079166Y-78537166D02*
X96036833Y-78621833D01*
X96036833Y-78791166D01*
X96079166Y-78875833D01*
X96121500Y-78918166D01*
X96206166Y-78960500D01*
X96460166Y-78960500D01*
X96544833Y-78918166D01*
X96587166Y-78875833D01*
X96629500Y-78791166D01*
X96629500Y-78621833D01*
X96587166Y-78537166D01*
X96036833Y-78113833D02*
X96925833Y-78113833D01*
X96587166Y-78113833D02*
X96629500Y-78029166D01*
X96629500Y-77859833D01*
X96587166Y-77775166D01*
X96544833Y-77732833D01*
X96460166Y-77690500D01*
X96206166Y-77690500D01*
X96121500Y-77732833D01*
X96079166Y-77775166D01*
X96036833Y-77859833D01*
X96036833Y-78029166D01*
X96079166Y-78113833D01*
X96375500Y-77309500D02*
X96375500Y-76632166D01*
X96079166Y-75870166D02*
X96036833Y-75954833D01*
X96036833Y-76124166D01*
X96079166Y-76208833D01*
X96163833Y-76251166D01*
X96502500Y-76251166D01*
X96587166Y-76208833D01*
X96629500Y-76124166D01*
X96629500Y-75954833D01*
X96587166Y-75870166D01*
X96502500Y-75827833D01*
X96417833Y-75827833D01*
X96333166Y-76251166D01*
X96036833Y-75319833D02*
X96079166Y-75404500D01*
X96163833Y-75446833D01*
X96925833Y-75446833D01*
X96079166Y-74642500D02*
X96036833Y-74727166D01*
X96036833Y-74896500D01*
X96079166Y-74981166D01*
X96163833Y-75023500D01*
X96502500Y-75023500D01*
X96587166Y-74981166D01*
X96629500Y-74896500D01*
X96629500Y-74727166D01*
X96587166Y-74642500D01*
X96502500Y-74600166D01*
X96417833Y-74600166D01*
X96333166Y-75023500D01*
X96079166Y-73838166D02*
X96036833Y-73922833D01*
X96036833Y-74092166D01*
X96079166Y-74176833D01*
X96121500Y-74219166D01*
X96206166Y-74261500D01*
X96460166Y-74261500D01*
X96544833Y-74219166D01*
X96587166Y-74176833D01*
X96629500Y-74092166D01*
X96629500Y-73922833D01*
X96587166Y-73838166D01*
X96629500Y-73584166D02*
X96629500Y-73245500D01*
X96925833Y-73457166D02*
X96163833Y-73457166D01*
X96079166Y-73414833D01*
X96036833Y-73330166D01*
X96036833Y-73245500D01*
X96036833Y-72949166D02*
X96629500Y-72949166D01*
X96460166Y-72949166D02*
X96544833Y-72906833D01*
X96587166Y-72864500D01*
X96629500Y-72779833D01*
X96629500Y-72695166D01*
X96036833Y-72271833D02*
X96079166Y-72356500D01*
X96121500Y-72398833D01*
X96206166Y-72441166D01*
X96460166Y-72441166D01*
X96544833Y-72398833D01*
X96587166Y-72356500D01*
X96629500Y-72271833D01*
X96629500Y-72144833D01*
X96587166Y-72060166D01*
X96544833Y-72017833D01*
X96460166Y-71975500D01*
X96206166Y-71975500D01*
X96121500Y-72017833D01*
X96079166Y-72060166D01*
X96036833Y-72144833D01*
X96036833Y-72271833D01*
X96629500Y-71594500D02*
X96036833Y-71594500D01*
X96544833Y-71594500D02*
X96587166Y-71552166D01*
X96629500Y-71467500D01*
X96629500Y-71340500D01*
X96587166Y-71255833D01*
X96502500Y-71213500D01*
X96036833Y-71213500D01*
X96036833Y-70790166D02*
X96629500Y-70790166D01*
X96925833Y-70790166D02*
X96883500Y-70832500D01*
X96841166Y-70790166D01*
X96883500Y-70747833D01*
X96925833Y-70790166D01*
X96841166Y-70790166D01*
X96079166Y-69985833D02*
X96036833Y-70070500D01*
X96036833Y-70239833D01*
X96079166Y-70324500D01*
X96121500Y-70366833D01*
X96206166Y-70409166D01*
X96460166Y-70409166D01*
X96544833Y-70366833D01*
X96587166Y-70324500D01*
X96629500Y-70239833D01*
X96629500Y-70070500D01*
X96587166Y-69985833D01*
X96079166Y-69647166D02*
X96036833Y-69562500D01*
X96036833Y-69393166D01*
X96079166Y-69308500D01*
X96163833Y-69266166D01*
X96206166Y-69266166D01*
X96290833Y-69308500D01*
X96333166Y-69393166D01*
X96333166Y-69520166D01*
X96375500Y-69604833D01*
X96460166Y-69647166D01*
X96502500Y-69647166D01*
X96587166Y-69604833D01*
X96629500Y-69520166D01*
X96629500Y-69393166D01*
X96587166Y-69308500D01*
X96121500Y-68885166D02*
X96079166Y-68842833D01*
X96036833Y-68885166D01*
X96079166Y-68927500D01*
X96121500Y-68885166D01*
X96036833Y-68885166D01*
X96079166Y-68080833D02*
X96036833Y-68165500D01*
X96036833Y-68334833D01*
X96079166Y-68419500D01*
X96121500Y-68461833D01*
X96206166Y-68504166D01*
X96460166Y-68504166D01*
X96544833Y-68461833D01*
X96587166Y-68419500D01*
X96629500Y-68334833D01*
X96629500Y-68165500D01*
X96587166Y-68080833D01*
X96036833Y-67318833D02*
X96502500Y-67318833D01*
X96587166Y-67361166D01*
X96629500Y-67445833D01*
X96629500Y-67615166D01*
X96587166Y-67699833D01*
X96079166Y-67318833D02*
X96036833Y-67403500D01*
X96036833Y-67615166D01*
X96079166Y-67699833D01*
X96163833Y-67742166D01*
X96248500Y-67742166D01*
X96333166Y-67699833D01*
X96375500Y-67615166D01*
X96375500Y-67403500D01*
X96417833Y-67318833D01*
X95296000Y-78939333D02*
X95296000Y-78600666D01*
X95592333Y-78812333D02*
X94830333Y-78812333D01*
X94745666Y-78770000D01*
X94703333Y-78685333D01*
X94703333Y-78600666D01*
X94703333Y-78304333D02*
X95296000Y-78304333D01*
X95592333Y-78304333D02*
X95550000Y-78346666D01*
X95507666Y-78304333D01*
X95550000Y-78262000D01*
X95592333Y-78304333D01*
X95507666Y-78304333D01*
X95296000Y-77881000D02*
X94703333Y-77881000D01*
X95211333Y-77881000D02*
X95253666Y-77838666D01*
X95296000Y-77754000D01*
X95296000Y-77627000D01*
X95253666Y-77542333D01*
X95169000Y-77500000D01*
X94703333Y-77500000D01*
X94703333Y-77076666D02*
X95592333Y-77076666D01*
X95042000Y-76992000D02*
X94703333Y-76738000D01*
X95296000Y-76738000D02*
X94957333Y-77076666D01*
X94745666Y-76018333D02*
X94703333Y-76103000D01*
X94703333Y-76272333D01*
X94745666Y-76357000D01*
X94830333Y-76399333D01*
X95169000Y-76399333D01*
X95253666Y-76357000D01*
X95296000Y-76272333D01*
X95296000Y-76103000D01*
X95253666Y-76018333D01*
X95169000Y-75976000D01*
X95084333Y-75976000D01*
X94999666Y-76399333D01*
X94703333Y-75595000D02*
X95296000Y-75595000D01*
X95126666Y-75595000D02*
X95211333Y-75552666D01*
X95253666Y-75510333D01*
X95296000Y-75425666D01*
X95296000Y-75341000D01*
X95296000Y-75044666D02*
X94407000Y-75044666D01*
X95253666Y-75044666D02*
X95296000Y-74960000D01*
X95296000Y-74790666D01*
X95253666Y-74706000D01*
X95211333Y-74663666D01*
X95126666Y-74621333D01*
X94872666Y-74621333D01*
X94788000Y-74663666D01*
X94745666Y-74706000D01*
X94703333Y-74790666D01*
X94703333Y-74960000D01*
X94745666Y-75044666D01*
X94703333Y-74113333D02*
X94745666Y-74198000D01*
X94830333Y-74240333D01*
X95592333Y-74240333D01*
X95296000Y-73393666D02*
X94703333Y-73393666D01*
X95296000Y-73774666D02*
X94830333Y-73774666D01*
X94745666Y-73732333D01*
X94703333Y-73647666D01*
X94703333Y-73520666D01*
X94745666Y-73436000D01*
X94788000Y-73393666D01*
X95296000Y-72970333D02*
X94703333Y-72970333D01*
X95211333Y-72970333D02*
X95253666Y-72928000D01*
X95296000Y-72843333D01*
X95296000Y-72716333D01*
X95253666Y-72631666D01*
X95169000Y-72589333D01*
X94703333Y-72589333D01*
X94703333Y-72166000D02*
X95592333Y-72166000D01*
X95042000Y-72081333D02*
X94703333Y-71827333D01*
X95296000Y-71827333D02*
X94957333Y-72166000D01*
X94788000Y-71446333D02*
X94745666Y-71404000D01*
X94703333Y-71446333D01*
X94745666Y-71488666D01*
X94788000Y-71446333D01*
X94703333Y-71446333D01*
X94745666Y-70642000D02*
X94703333Y-70726666D01*
X94703333Y-70896000D01*
X94745666Y-70980666D01*
X94788000Y-71023000D01*
X94872666Y-71065333D01*
X95126666Y-71065333D01*
X95211333Y-71023000D01*
X95253666Y-70980666D01*
X95296000Y-70896000D01*
X95296000Y-70726666D01*
X95253666Y-70642000D01*
X94703333Y-70134000D02*
X94745666Y-70218666D01*
X94788000Y-70261000D01*
X94872666Y-70303333D01*
X95126666Y-70303333D01*
X95211333Y-70261000D01*
X95253666Y-70218666D01*
X95296000Y-70134000D01*
X95296000Y-70007000D01*
X95253666Y-69922333D01*
X95211333Y-69880000D01*
X95126666Y-69837666D01*
X94872666Y-69837666D01*
X94788000Y-69880000D01*
X94745666Y-69922333D01*
X94703333Y-70007000D01*
X94703333Y-70134000D01*
X94703333Y-69456666D02*
X95296000Y-69456666D01*
X95211333Y-69456666D02*
X95253666Y-69414333D01*
X95296000Y-69329666D01*
X95296000Y-69202666D01*
X95253666Y-69118000D01*
X95169000Y-69075666D01*
X94703333Y-69075666D01*
X95169000Y-69075666D02*
X95253666Y-69033333D01*
X95296000Y-68948666D01*
X95296000Y-68821666D01*
X95253666Y-68737000D01*
X95169000Y-68694666D01*
X94703333Y-68694666D01*
D10*
X98935428Y-69395714D02*
X100435428Y-69395714D01*
X98935428Y-68681428D02*
X100435428Y-68681428D01*
X98935428Y-67824285D01*
X100435428Y-67824285D01*
D11*
X107804000Y-63868666D02*
X107804000Y-64207333D01*
X107507666Y-63995666D02*
X108269666Y-63995666D01*
X108354333Y-64038000D01*
X108396666Y-64122666D01*
X108396666Y-64207333D01*
X108396666Y-64503666D02*
X107804000Y-64503666D01*
X107507666Y-64503666D02*
X107550000Y-64461333D01*
X107592333Y-64503666D01*
X107550000Y-64546000D01*
X107507666Y-64503666D01*
X107592333Y-64503666D01*
X107804000Y-64927000D02*
X108396666Y-64927000D01*
X107888666Y-64927000D02*
X107846333Y-64969333D01*
X107804000Y-65054000D01*
X107804000Y-65181000D01*
X107846333Y-65265666D01*
X107931000Y-65308000D01*
X108396666Y-65308000D01*
X108396666Y-65731333D02*
X107507666Y-65731333D01*
X108058000Y-65816000D02*
X108396666Y-66070000D01*
X107804000Y-66070000D02*
X108142666Y-65731333D01*
X108354333Y-66789666D02*
X108396666Y-66705000D01*
X108396666Y-66535666D01*
X108354333Y-66451000D01*
X108269666Y-66408666D01*
X107931000Y-66408666D01*
X107846333Y-66451000D01*
X107804000Y-66535666D01*
X107804000Y-66705000D01*
X107846333Y-66789666D01*
X107931000Y-66832000D01*
X108015666Y-66832000D01*
X108100333Y-66408666D01*
X108396666Y-67213000D02*
X107804000Y-67213000D01*
X107973333Y-67213000D02*
X107888666Y-67255333D01*
X107846333Y-67297666D01*
X107804000Y-67382333D01*
X107804000Y-67467000D01*
X107804000Y-67763333D02*
X108693000Y-67763333D01*
X107846333Y-67763333D02*
X107804000Y-67848000D01*
X107804000Y-68017333D01*
X107846333Y-68102000D01*
X107888666Y-68144333D01*
X107973333Y-68186666D01*
X108227333Y-68186666D01*
X108312000Y-68144333D01*
X108354333Y-68102000D01*
X108396666Y-68017333D01*
X108396666Y-67848000D01*
X108354333Y-67763333D01*
X108396666Y-68694666D02*
X108354333Y-68610000D01*
X108269666Y-68567666D01*
X107507666Y-68567666D01*
X107804000Y-69414333D02*
X108396666Y-69414333D01*
X107804000Y-69033333D02*
X108269666Y-69033333D01*
X108354333Y-69075666D01*
X108396666Y-69160333D01*
X108396666Y-69287333D01*
X108354333Y-69372000D01*
X108312000Y-69414333D01*
X107804000Y-69837666D02*
X108396666Y-69837666D01*
X107888666Y-69837666D02*
X107846333Y-69880000D01*
X107804000Y-69964666D01*
X107804000Y-70091666D01*
X107846333Y-70176333D01*
X107931000Y-70218666D01*
X108396666Y-70218666D01*
X108396666Y-70642000D02*
X107507666Y-70642000D01*
X108058000Y-70726666D02*
X108396666Y-70980666D01*
X107804000Y-70980666D02*
X108142666Y-70642000D01*
X108312000Y-71361666D02*
X108354333Y-71404000D01*
X108396666Y-71361666D01*
X108354333Y-71319333D01*
X108312000Y-71361666D01*
X108396666Y-71361666D01*
X108354333Y-72166000D02*
X108396666Y-72081333D01*
X108396666Y-71912000D01*
X108354333Y-71827333D01*
X108312000Y-71785000D01*
X108227333Y-71742666D01*
X107973333Y-71742666D01*
X107888666Y-71785000D01*
X107846333Y-71827333D01*
X107804000Y-71912000D01*
X107804000Y-72081333D01*
X107846333Y-72166000D01*
X108396666Y-72674000D02*
X108354333Y-72589333D01*
X108312000Y-72547000D01*
X108227333Y-72504666D01*
X107973333Y-72504666D01*
X107888666Y-72547000D01*
X107846333Y-72589333D01*
X107804000Y-72674000D01*
X107804000Y-72801000D01*
X107846333Y-72885666D01*
X107888666Y-72928000D01*
X107973333Y-72970333D01*
X108227333Y-72970333D01*
X108312000Y-72928000D01*
X108354333Y-72885666D01*
X108396666Y-72801000D01*
X108396666Y-72674000D01*
X108396666Y-73351333D02*
X107804000Y-73351333D01*
X107888666Y-73351333D02*
X107846333Y-73393666D01*
X107804000Y-73478333D01*
X107804000Y-73605333D01*
X107846333Y-73690000D01*
X107931000Y-73732333D01*
X108396666Y-73732333D01*
X107931000Y-73732333D02*
X107846333Y-73774666D01*
X107804000Y-73859333D01*
X107804000Y-73986333D01*
X107846333Y-74071000D01*
X107931000Y-74113333D01*
X108396666Y-74113333D01*
D10*
X104164571Y-73412285D02*
X102664571Y-73412285D01*
X104164571Y-74126571D02*
X102664571Y-74126571D01*
X104164571Y-74983714D01*
X102664571Y-74983714D01*
D11*
X107063166Y-64270833D02*
X106174166Y-64270833D01*
X107020833Y-64270833D02*
X107063166Y-64186166D01*
X107063166Y-64016833D01*
X107020833Y-63932166D01*
X106978500Y-63889833D01*
X106893833Y-63847500D01*
X106639833Y-63847500D01*
X106555166Y-63889833D01*
X106512833Y-63932166D01*
X106470500Y-64016833D01*
X106470500Y-64186166D01*
X106512833Y-64270833D01*
X107063166Y-64694166D02*
X106174166Y-64694166D01*
X106512833Y-64694166D02*
X106470500Y-64778833D01*
X106470500Y-64948166D01*
X106512833Y-65032833D01*
X106555166Y-65075166D01*
X106639833Y-65117500D01*
X106893833Y-65117500D01*
X106978500Y-65075166D01*
X107020833Y-65032833D01*
X107063166Y-64948166D01*
X107063166Y-64778833D01*
X107020833Y-64694166D01*
X106724500Y-65498500D02*
X106724500Y-66175833D01*
X107020833Y-66937833D02*
X107063166Y-66853166D01*
X107063166Y-66683833D01*
X107020833Y-66599166D01*
X106936166Y-66556833D01*
X106597500Y-66556833D01*
X106512833Y-66599166D01*
X106470500Y-66683833D01*
X106470500Y-66853166D01*
X106512833Y-66937833D01*
X106597500Y-66980166D01*
X106682166Y-66980166D01*
X106766833Y-66556833D01*
X107063166Y-67488166D02*
X107020833Y-67403500D01*
X106936166Y-67361166D01*
X106174166Y-67361166D01*
X107020833Y-68165500D02*
X107063166Y-68080833D01*
X107063166Y-67911500D01*
X107020833Y-67826833D01*
X106936166Y-67784500D01*
X106597500Y-67784500D01*
X106512833Y-67826833D01*
X106470500Y-67911500D01*
X106470500Y-68080833D01*
X106512833Y-68165500D01*
X106597500Y-68207833D01*
X106682166Y-68207833D01*
X106766833Y-67784500D01*
X107020833Y-68969833D02*
X107063166Y-68885166D01*
X107063166Y-68715833D01*
X107020833Y-68631166D01*
X106978500Y-68588833D01*
X106893833Y-68546500D01*
X106639833Y-68546500D01*
X106555166Y-68588833D01*
X106512833Y-68631166D01*
X106470500Y-68715833D01*
X106470500Y-68885166D01*
X106512833Y-68969833D01*
X106470500Y-69223833D02*
X106470500Y-69562500D01*
X106174166Y-69350833D02*
X106936166Y-69350833D01*
X107020833Y-69393166D01*
X107063166Y-69477833D01*
X107063166Y-69562500D01*
X107063166Y-69858833D02*
X106470500Y-69858833D01*
X106639833Y-69858833D02*
X106555166Y-69901166D01*
X106512833Y-69943500D01*
X106470500Y-70028166D01*
X106470500Y-70112833D01*
X107063166Y-70536166D02*
X107020833Y-70451500D01*
X106978500Y-70409166D01*
X106893833Y-70366833D01*
X106639833Y-70366833D01*
X106555166Y-70409166D01*
X106512833Y-70451500D01*
X106470500Y-70536166D01*
X106470500Y-70663166D01*
X106512833Y-70747833D01*
X106555166Y-70790166D01*
X106639833Y-70832500D01*
X106893833Y-70832500D01*
X106978500Y-70790166D01*
X107020833Y-70747833D01*
X107063166Y-70663166D01*
X107063166Y-70536166D01*
X106470500Y-71213500D02*
X107063166Y-71213500D01*
X106555166Y-71213500D02*
X106512833Y-71255833D01*
X106470500Y-71340500D01*
X106470500Y-71467500D01*
X106512833Y-71552166D01*
X106597500Y-71594500D01*
X107063166Y-71594500D01*
X107063166Y-72017833D02*
X106470500Y-72017833D01*
X106174166Y-72017833D02*
X106216500Y-71975500D01*
X106258833Y-72017833D01*
X106216500Y-72060166D01*
X106174166Y-72017833D01*
X106258833Y-72017833D01*
X107020833Y-72822166D02*
X107063166Y-72737500D01*
X107063166Y-72568166D01*
X107020833Y-72483500D01*
X106978500Y-72441166D01*
X106893833Y-72398833D01*
X106639833Y-72398833D01*
X106555166Y-72441166D01*
X106512833Y-72483500D01*
X106470500Y-72568166D01*
X106470500Y-72737500D01*
X106512833Y-72822166D01*
X107020833Y-73160833D02*
X107063166Y-73245500D01*
X107063166Y-73414833D01*
X107020833Y-73499500D01*
X106936166Y-73541833D01*
X106893833Y-73541833D01*
X106809166Y-73499500D01*
X106766833Y-73414833D01*
X106766833Y-73287833D01*
X106724500Y-73203166D01*
X106639833Y-73160833D01*
X106597500Y-73160833D01*
X106512833Y-73203166D01*
X106470500Y-73287833D01*
X106470500Y-73414833D01*
X106512833Y-73499500D01*
X106978500Y-73922833D02*
X107020833Y-73965166D01*
X107063166Y-73922833D01*
X107020833Y-73880500D01*
X106978500Y-73922833D01*
X107063166Y-73922833D01*
X107020833Y-74727166D02*
X107063166Y-74642500D01*
X107063166Y-74473166D01*
X107020833Y-74388500D01*
X106978500Y-74346166D01*
X106893833Y-74303833D01*
X106639833Y-74303833D01*
X106555166Y-74346166D01*
X106512833Y-74388500D01*
X106470500Y-74473166D01*
X106470500Y-74642500D01*
X106512833Y-74727166D01*
X107063166Y-75489166D02*
X106597500Y-75489166D01*
X106512833Y-75446833D01*
X106470500Y-75362166D01*
X106470500Y-75192833D01*
X106512833Y-75108166D01*
X107020833Y-75489166D02*
X107063166Y-75404500D01*
X107063166Y-75192833D01*
X107020833Y-75108166D01*
X106936166Y-75065833D01*
X106851500Y-75065833D01*
X106766833Y-75108166D01*
X106724500Y-75192833D01*
X106724500Y-75404500D01*
X106682166Y-75489166D01*
X95296000Y-95139333D02*
X95296000Y-94800666D01*
X95592333Y-95012333D02*
X94830333Y-95012333D01*
X94745666Y-94970000D01*
X94703333Y-94885333D01*
X94703333Y-94800666D01*
X94703333Y-94504333D02*
X95296000Y-94504333D01*
X95592333Y-94504333D02*
X95550000Y-94546666D01*
X95507666Y-94504333D01*
X95550000Y-94462000D01*
X95592333Y-94504333D01*
X95507666Y-94504333D01*
X95296000Y-94081000D02*
X94703333Y-94081000D01*
X95211333Y-94081000D02*
X95253666Y-94038666D01*
X95296000Y-93954000D01*
X95296000Y-93827000D01*
X95253666Y-93742333D01*
X95169000Y-93700000D01*
X94703333Y-93700000D01*
X94703333Y-93276666D02*
X95592333Y-93276666D01*
X95042000Y-93192000D02*
X94703333Y-92938000D01*
X95296000Y-92938000D02*
X94957333Y-93276666D01*
X94745666Y-92218333D02*
X94703333Y-92303000D01*
X94703333Y-92472333D01*
X94745666Y-92557000D01*
X94830333Y-92599333D01*
X95169000Y-92599333D01*
X95253666Y-92557000D01*
X95296000Y-92472333D01*
X95296000Y-92303000D01*
X95253666Y-92218333D01*
X95169000Y-92176000D01*
X95084333Y-92176000D01*
X94999666Y-92599333D01*
X94703333Y-91795000D02*
X95296000Y-91795000D01*
X95126666Y-91795000D02*
X95211333Y-91752666D01*
X95253666Y-91710333D01*
X95296000Y-91625666D01*
X95296000Y-91541000D01*
X95296000Y-91244666D02*
X94407000Y-91244666D01*
X95253666Y-91244666D02*
X95296000Y-91160000D01*
X95296000Y-90990666D01*
X95253666Y-90906000D01*
X95211333Y-90863666D01*
X95126666Y-90821333D01*
X94872666Y-90821333D01*
X94788000Y-90863666D01*
X94745666Y-90906000D01*
X94703333Y-90990666D01*
X94703333Y-91160000D01*
X94745666Y-91244666D01*
X94703333Y-90313333D02*
X94745666Y-90398000D01*
X94830333Y-90440333D01*
X95592333Y-90440333D01*
X95296000Y-89593666D02*
X94703333Y-89593666D01*
X95296000Y-89974666D02*
X94830333Y-89974666D01*
X94745666Y-89932333D01*
X94703333Y-89847666D01*
X94703333Y-89720666D01*
X94745666Y-89636000D01*
X94788000Y-89593666D01*
X95296000Y-89170333D02*
X94703333Y-89170333D01*
X95211333Y-89170333D02*
X95253666Y-89128000D01*
X95296000Y-89043333D01*
X95296000Y-88916333D01*
X95253666Y-88831666D01*
X95169000Y-88789333D01*
X94703333Y-88789333D01*
X94703333Y-88366000D02*
X95592333Y-88366000D01*
X95042000Y-88281333D02*
X94703333Y-88027333D01*
X95296000Y-88027333D02*
X94957333Y-88366000D01*
X94788000Y-87646333D02*
X94745666Y-87604000D01*
X94703333Y-87646333D01*
X94745666Y-87688666D01*
X94788000Y-87646333D01*
X94703333Y-87646333D01*
X94745666Y-86842000D02*
X94703333Y-86926666D01*
X94703333Y-87096000D01*
X94745666Y-87180666D01*
X94788000Y-87223000D01*
X94872666Y-87265333D01*
X95126666Y-87265333D01*
X95211333Y-87223000D01*
X95253666Y-87180666D01*
X95296000Y-87096000D01*
X95296000Y-86926666D01*
X95253666Y-86842000D01*
X94703333Y-86334000D02*
X94745666Y-86418666D01*
X94788000Y-86461000D01*
X94872666Y-86503333D01*
X95126666Y-86503333D01*
X95211333Y-86461000D01*
X95253666Y-86418666D01*
X95296000Y-86334000D01*
X95296000Y-86207000D01*
X95253666Y-86122333D01*
X95211333Y-86080000D01*
X95126666Y-86037666D01*
X94872666Y-86037666D01*
X94788000Y-86080000D01*
X94745666Y-86122333D01*
X94703333Y-86207000D01*
X94703333Y-86334000D01*
X94703333Y-85656666D02*
X95296000Y-85656666D01*
X95211333Y-85656666D02*
X95253666Y-85614333D01*
X95296000Y-85529666D01*
X95296000Y-85402666D01*
X95253666Y-85318000D01*
X95169000Y-85275666D01*
X94703333Y-85275666D01*
X95169000Y-85275666D02*
X95253666Y-85233333D01*
X95296000Y-85148666D01*
X95296000Y-85021666D01*
X95253666Y-84937000D01*
X95169000Y-84894666D01*
X94703333Y-84894666D01*
X107804000Y-80068666D02*
X107804000Y-80407333D01*
X107507666Y-80195666D02*
X108269666Y-80195666D01*
X108354333Y-80238000D01*
X108396666Y-80322666D01*
X108396666Y-80407333D01*
X108396666Y-80703666D02*
X107804000Y-80703666D01*
X107507666Y-80703666D02*
X107550000Y-80661333D01*
X107592333Y-80703666D01*
X107550000Y-80746000D01*
X107507666Y-80703666D01*
X107592333Y-80703666D01*
X107804000Y-81127000D02*
X108396666Y-81127000D01*
X107888666Y-81127000D02*
X107846333Y-81169333D01*
X107804000Y-81254000D01*
X107804000Y-81381000D01*
X107846333Y-81465666D01*
X107931000Y-81508000D01*
X108396666Y-81508000D01*
X108396666Y-81931333D02*
X107507666Y-81931333D01*
X108058000Y-82016000D02*
X108396666Y-82270000D01*
X107804000Y-82270000D02*
X108142666Y-81931333D01*
X108354333Y-82989666D02*
X108396666Y-82905000D01*
X108396666Y-82735666D01*
X108354333Y-82651000D01*
X108269666Y-82608666D01*
X107931000Y-82608666D01*
X107846333Y-82651000D01*
X107804000Y-82735666D01*
X107804000Y-82905000D01*
X107846333Y-82989666D01*
X107931000Y-83032000D01*
X108015666Y-83032000D01*
X108100333Y-82608666D01*
X108396666Y-83413000D02*
X107804000Y-83413000D01*
X107973333Y-83413000D02*
X107888666Y-83455333D01*
X107846333Y-83497666D01*
X107804000Y-83582333D01*
X107804000Y-83667000D01*
X107804000Y-83963333D02*
X108693000Y-83963333D01*
X107846333Y-83963333D02*
X107804000Y-84048000D01*
X107804000Y-84217333D01*
X107846333Y-84302000D01*
X107888666Y-84344333D01*
X107973333Y-84386666D01*
X108227333Y-84386666D01*
X108312000Y-84344333D01*
X108354333Y-84302000D01*
X108396666Y-84217333D01*
X108396666Y-84048000D01*
X108354333Y-83963333D01*
X108396666Y-84894666D02*
X108354333Y-84810000D01*
X108269666Y-84767666D01*
X107507666Y-84767666D01*
X107804000Y-85614333D02*
X108396666Y-85614333D01*
X107804000Y-85233333D02*
X108269666Y-85233333D01*
X108354333Y-85275666D01*
X108396666Y-85360333D01*
X108396666Y-85487333D01*
X108354333Y-85572000D01*
X108312000Y-85614333D01*
X107804000Y-86037666D02*
X108396666Y-86037666D01*
X107888666Y-86037666D02*
X107846333Y-86080000D01*
X107804000Y-86164666D01*
X107804000Y-86291666D01*
X107846333Y-86376333D01*
X107931000Y-86418666D01*
X108396666Y-86418666D01*
X108396666Y-86842000D02*
X107507666Y-86842000D01*
X108058000Y-86926666D02*
X108396666Y-87180666D01*
X107804000Y-87180666D02*
X108142666Y-86842000D01*
X108312000Y-87561666D02*
X108354333Y-87604000D01*
X108396666Y-87561666D01*
X108354333Y-87519333D01*
X108312000Y-87561666D01*
X108396666Y-87561666D01*
X108354333Y-88366000D02*
X108396666Y-88281333D01*
X108396666Y-88112000D01*
X108354333Y-88027333D01*
X108312000Y-87985000D01*
X108227333Y-87942666D01*
X107973333Y-87942666D01*
X107888666Y-87985000D01*
X107846333Y-88027333D01*
X107804000Y-88112000D01*
X107804000Y-88281333D01*
X107846333Y-88366000D01*
X108396666Y-88874000D02*
X108354333Y-88789333D01*
X108312000Y-88747000D01*
X108227333Y-88704666D01*
X107973333Y-88704666D01*
X107888666Y-88747000D01*
X107846333Y-88789333D01*
X107804000Y-88874000D01*
X107804000Y-89001000D01*
X107846333Y-89085666D01*
X107888666Y-89128000D01*
X107973333Y-89170333D01*
X108227333Y-89170333D01*
X108312000Y-89128000D01*
X108354333Y-89085666D01*
X108396666Y-89001000D01*
X108396666Y-88874000D01*
X108396666Y-89551333D02*
X107804000Y-89551333D01*
X107888666Y-89551333D02*
X107846333Y-89593666D01*
X107804000Y-89678333D01*
X107804000Y-89805333D01*
X107846333Y-89890000D01*
X107931000Y-89932333D01*
X108396666Y-89932333D01*
X107931000Y-89932333D02*
X107846333Y-89974666D01*
X107804000Y-90059333D01*
X107804000Y-90186333D01*
X107846333Y-90271000D01*
X107931000Y-90313333D01*
X108396666Y-90313333D01*
D10*
X98935428Y-85595714D02*
X100435428Y-85595714D01*
X98935428Y-84881428D02*
X100435428Y-84881428D01*
X98935428Y-84024285D01*
X100435428Y-84024285D01*
X104164571Y-89612285D02*
X102664571Y-89612285D01*
X104164571Y-90326571D02*
X102664571Y-90326571D01*
X104164571Y-91183714D01*
X102664571Y-91183714D01*
D11*
X96036833Y-94737166D02*
X96925833Y-94737166D01*
X96079166Y-94737166D02*
X96036833Y-94821833D01*
X96036833Y-94991166D01*
X96079166Y-95075833D01*
X96121500Y-95118166D01*
X96206166Y-95160500D01*
X96460166Y-95160500D01*
X96544833Y-95118166D01*
X96587166Y-95075833D01*
X96629500Y-94991166D01*
X96629500Y-94821833D01*
X96587166Y-94737166D01*
X96036833Y-94313833D02*
X96925833Y-94313833D01*
X96587166Y-94313833D02*
X96629500Y-94229166D01*
X96629500Y-94059833D01*
X96587166Y-93975166D01*
X96544833Y-93932833D01*
X96460166Y-93890500D01*
X96206166Y-93890500D01*
X96121500Y-93932833D01*
X96079166Y-93975166D01*
X96036833Y-94059833D01*
X96036833Y-94229166D01*
X96079166Y-94313833D01*
X96375500Y-93509500D02*
X96375500Y-92832166D01*
X96079166Y-92070166D02*
X96036833Y-92154833D01*
X96036833Y-92324166D01*
X96079166Y-92408833D01*
X96163833Y-92451166D01*
X96502500Y-92451166D01*
X96587166Y-92408833D01*
X96629500Y-92324166D01*
X96629500Y-92154833D01*
X96587166Y-92070166D01*
X96502500Y-92027833D01*
X96417833Y-92027833D01*
X96333166Y-92451166D01*
X96036833Y-91519833D02*
X96079166Y-91604500D01*
X96163833Y-91646833D01*
X96925833Y-91646833D01*
X96079166Y-90842500D02*
X96036833Y-90927166D01*
X96036833Y-91096500D01*
X96079166Y-91181166D01*
X96163833Y-91223500D01*
X96502500Y-91223500D01*
X96587166Y-91181166D01*
X96629500Y-91096500D01*
X96629500Y-90927166D01*
X96587166Y-90842500D01*
X96502500Y-90800166D01*
X96417833Y-90800166D01*
X96333166Y-91223500D01*
X96079166Y-90038166D02*
X96036833Y-90122833D01*
X96036833Y-90292166D01*
X96079166Y-90376833D01*
X96121500Y-90419166D01*
X96206166Y-90461500D01*
X96460166Y-90461500D01*
X96544833Y-90419166D01*
X96587166Y-90376833D01*
X96629500Y-90292166D01*
X96629500Y-90122833D01*
X96587166Y-90038166D01*
X96629500Y-89784166D02*
X96629500Y-89445500D01*
X96925833Y-89657166D02*
X96163833Y-89657166D01*
X96079166Y-89614833D01*
X96036833Y-89530166D01*
X96036833Y-89445500D01*
X96036833Y-89149166D02*
X96629500Y-89149166D01*
X96460166Y-89149166D02*
X96544833Y-89106833D01*
X96587166Y-89064500D01*
X96629500Y-88979833D01*
X96629500Y-88895166D01*
X96036833Y-88471833D02*
X96079166Y-88556500D01*
X96121500Y-88598833D01*
X96206166Y-88641166D01*
X96460166Y-88641166D01*
X96544833Y-88598833D01*
X96587166Y-88556500D01*
X96629500Y-88471833D01*
X96629500Y-88344833D01*
X96587166Y-88260166D01*
X96544833Y-88217833D01*
X96460166Y-88175500D01*
X96206166Y-88175500D01*
X96121500Y-88217833D01*
X96079166Y-88260166D01*
X96036833Y-88344833D01*
X96036833Y-88471833D01*
X96629500Y-87794500D02*
X96036833Y-87794500D01*
X96544833Y-87794500D02*
X96587166Y-87752166D01*
X96629500Y-87667500D01*
X96629500Y-87540500D01*
X96587166Y-87455833D01*
X96502500Y-87413500D01*
X96036833Y-87413500D01*
X96036833Y-86990166D02*
X96629500Y-86990166D01*
X96925833Y-86990166D02*
X96883500Y-87032500D01*
X96841166Y-86990166D01*
X96883500Y-86947833D01*
X96925833Y-86990166D01*
X96841166Y-86990166D01*
X96079166Y-86185833D02*
X96036833Y-86270500D01*
X96036833Y-86439833D01*
X96079166Y-86524500D01*
X96121500Y-86566833D01*
X96206166Y-86609166D01*
X96460166Y-86609166D01*
X96544833Y-86566833D01*
X96587166Y-86524500D01*
X96629500Y-86439833D01*
X96629500Y-86270500D01*
X96587166Y-86185833D01*
X96079166Y-85847166D02*
X96036833Y-85762500D01*
X96036833Y-85593166D01*
X96079166Y-85508500D01*
X96163833Y-85466166D01*
X96206166Y-85466166D01*
X96290833Y-85508500D01*
X96333166Y-85593166D01*
X96333166Y-85720166D01*
X96375500Y-85804833D01*
X96460166Y-85847166D01*
X96502500Y-85847166D01*
X96587166Y-85804833D01*
X96629500Y-85720166D01*
X96629500Y-85593166D01*
X96587166Y-85508500D01*
X96121500Y-85085166D02*
X96079166Y-85042833D01*
X96036833Y-85085166D01*
X96079166Y-85127500D01*
X96121500Y-85085166D01*
X96036833Y-85085166D01*
X96079166Y-84280833D02*
X96036833Y-84365500D01*
X96036833Y-84534833D01*
X96079166Y-84619500D01*
X96121500Y-84661833D01*
X96206166Y-84704166D01*
X96460166Y-84704166D01*
X96544833Y-84661833D01*
X96587166Y-84619500D01*
X96629500Y-84534833D01*
X96629500Y-84365500D01*
X96587166Y-84280833D01*
X96036833Y-83518833D02*
X96502500Y-83518833D01*
X96587166Y-83561166D01*
X96629500Y-83645833D01*
X96629500Y-83815166D01*
X96587166Y-83899833D01*
X96079166Y-83518833D02*
X96036833Y-83603500D01*
X96036833Y-83815166D01*
X96079166Y-83899833D01*
X96163833Y-83942166D01*
X96248500Y-83942166D01*
X96333166Y-83899833D01*
X96375500Y-83815166D01*
X96375500Y-83603500D01*
X96417833Y-83518833D01*
X107063166Y-80470833D02*
X106174166Y-80470833D01*
X107020833Y-80470833D02*
X107063166Y-80386166D01*
X107063166Y-80216833D01*
X107020833Y-80132166D01*
X106978500Y-80089833D01*
X106893833Y-80047500D01*
X106639833Y-80047500D01*
X106555166Y-80089833D01*
X106512833Y-80132166D01*
X106470500Y-80216833D01*
X106470500Y-80386166D01*
X106512833Y-80470833D01*
X107063166Y-80894166D02*
X106174166Y-80894166D01*
X106512833Y-80894166D02*
X106470500Y-80978833D01*
X106470500Y-81148166D01*
X106512833Y-81232833D01*
X106555166Y-81275166D01*
X106639833Y-81317500D01*
X106893833Y-81317500D01*
X106978500Y-81275166D01*
X107020833Y-81232833D01*
X107063166Y-81148166D01*
X107063166Y-80978833D01*
X107020833Y-80894166D01*
X106724500Y-81698500D02*
X106724500Y-82375833D01*
X107020833Y-83137833D02*
X107063166Y-83053166D01*
X107063166Y-82883833D01*
X107020833Y-82799166D01*
X106936166Y-82756833D01*
X106597500Y-82756833D01*
X106512833Y-82799166D01*
X106470500Y-82883833D01*
X106470500Y-83053166D01*
X106512833Y-83137833D01*
X106597500Y-83180166D01*
X106682166Y-83180166D01*
X106766833Y-82756833D01*
X107063166Y-83688166D02*
X107020833Y-83603500D01*
X106936166Y-83561166D01*
X106174166Y-83561166D01*
X107020833Y-84365500D02*
X107063166Y-84280833D01*
X107063166Y-84111500D01*
X107020833Y-84026833D01*
X106936166Y-83984500D01*
X106597500Y-83984500D01*
X106512833Y-84026833D01*
X106470500Y-84111500D01*
X106470500Y-84280833D01*
X106512833Y-84365500D01*
X106597500Y-84407833D01*
X106682166Y-84407833D01*
X106766833Y-83984500D01*
X107020833Y-85169833D02*
X107063166Y-85085166D01*
X107063166Y-84915833D01*
X107020833Y-84831166D01*
X106978500Y-84788833D01*
X106893833Y-84746500D01*
X106639833Y-84746500D01*
X106555166Y-84788833D01*
X106512833Y-84831166D01*
X106470500Y-84915833D01*
X106470500Y-85085166D01*
X106512833Y-85169833D01*
X106470500Y-85423833D02*
X106470500Y-85762500D01*
X106174166Y-85550833D02*
X106936166Y-85550833D01*
X107020833Y-85593166D01*
X107063166Y-85677833D01*
X107063166Y-85762500D01*
X107063166Y-86058833D02*
X106470500Y-86058833D01*
X106639833Y-86058833D02*
X106555166Y-86101166D01*
X106512833Y-86143500D01*
X106470500Y-86228166D01*
X106470500Y-86312833D01*
X107063166Y-86736166D02*
X107020833Y-86651500D01*
X106978500Y-86609166D01*
X106893833Y-86566833D01*
X106639833Y-86566833D01*
X106555166Y-86609166D01*
X106512833Y-86651500D01*
X106470500Y-86736166D01*
X106470500Y-86863166D01*
X106512833Y-86947833D01*
X106555166Y-86990166D01*
X106639833Y-87032500D01*
X106893833Y-87032500D01*
X106978500Y-86990166D01*
X107020833Y-86947833D01*
X107063166Y-86863166D01*
X107063166Y-86736166D01*
X106470500Y-87413500D02*
X107063166Y-87413500D01*
X106555166Y-87413500D02*
X106512833Y-87455833D01*
X106470500Y-87540500D01*
X106470500Y-87667500D01*
X106512833Y-87752166D01*
X106597500Y-87794500D01*
X107063166Y-87794500D01*
X107063166Y-88217833D02*
X106470500Y-88217833D01*
X106174166Y-88217833D02*
X106216500Y-88175500D01*
X106258833Y-88217833D01*
X106216500Y-88260166D01*
X106174166Y-88217833D01*
X106258833Y-88217833D01*
X107020833Y-89022166D02*
X107063166Y-88937500D01*
X107063166Y-88768166D01*
X107020833Y-88683500D01*
X106978500Y-88641166D01*
X106893833Y-88598833D01*
X106639833Y-88598833D01*
X106555166Y-88641166D01*
X106512833Y-88683500D01*
X106470500Y-88768166D01*
X106470500Y-88937500D01*
X106512833Y-89022166D01*
X107020833Y-89360833D02*
X107063166Y-89445500D01*
X107063166Y-89614833D01*
X107020833Y-89699500D01*
X106936166Y-89741833D01*
X106893833Y-89741833D01*
X106809166Y-89699500D01*
X106766833Y-89614833D01*
X106766833Y-89487833D01*
X106724500Y-89403166D01*
X106639833Y-89360833D01*
X106597500Y-89360833D01*
X106512833Y-89403166D01*
X106470500Y-89487833D01*
X106470500Y-89614833D01*
X106512833Y-89699500D01*
X106978500Y-90122833D02*
X107020833Y-90165166D01*
X107063166Y-90122833D01*
X107020833Y-90080500D01*
X106978500Y-90122833D01*
X107063166Y-90122833D01*
X107020833Y-90927166D02*
X107063166Y-90842500D01*
X107063166Y-90673166D01*
X107020833Y-90588500D01*
X106978500Y-90546166D01*
X106893833Y-90503833D01*
X106639833Y-90503833D01*
X106555166Y-90546166D01*
X106512833Y-90588500D01*
X106470500Y-90673166D01*
X106470500Y-90842500D01*
X106512833Y-90927166D01*
X107063166Y-91689166D02*
X106597500Y-91689166D01*
X106512833Y-91646833D01*
X106470500Y-91562166D01*
X106470500Y-91392833D01*
X106512833Y-91308166D01*
X107020833Y-91689166D02*
X107063166Y-91604500D01*
X107063166Y-91392833D01*
X107020833Y-91308166D01*
X106936166Y-91265833D01*
X106851500Y-91265833D01*
X106766833Y-91308166D01*
X106724500Y-91392833D01*
X106724500Y-91604500D01*
X106682166Y-91689166D01*
X96036833Y-112937166D02*
X96925833Y-112937166D01*
X96079166Y-112937166D02*
X96036833Y-113021833D01*
X96036833Y-113191166D01*
X96079166Y-113275833D01*
X96121500Y-113318166D01*
X96206166Y-113360500D01*
X96460166Y-113360500D01*
X96544833Y-113318166D01*
X96587166Y-113275833D01*
X96629500Y-113191166D01*
X96629500Y-113021833D01*
X96587166Y-112937166D01*
X96036833Y-112513833D02*
X96925833Y-112513833D01*
X96587166Y-112513833D02*
X96629500Y-112429166D01*
X96629500Y-112259833D01*
X96587166Y-112175166D01*
X96544833Y-112132833D01*
X96460166Y-112090500D01*
X96206166Y-112090500D01*
X96121500Y-112132833D01*
X96079166Y-112175166D01*
X96036833Y-112259833D01*
X96036833Y-112429166D01*
X96079166Y-112513833D01*
X96375500Y-111709500D02*
X96375500Y-111032166D01*
X96079166Y-110270166D02*
X96036833Y-110354833D01*
X96036833Y-110524166D01*
X96079166Y-110608833D01*
X96163833Y-110651166D01*
X96502500Y-110651166D01*
X96587166Y-110608833D01*
X96629500Y-110524166D01*
X96629500Y-110354833D01*
X96587166Y-110270166D01*
X96502500Y-110227833D01*
X96417833Y-110227833D01*
X96333166Y-110651166D01*
X96036833Y-109719833D02*
X96079166Y-109804500D01*
X96163833Y-109846833D01*
X96925833Y-109846833D01*
X96079166Y-109042500D02*
X96036833Y-109127166D01*
X96036833Y-109296500D01*
X96079166Y-109381166D01*
X96163833Y-109423500D01*
X96502500Y-109423500D01*
X96587166Y-109381166D01*
X96629500Y-109296500D01*
X96629500Y-109127166D01*
X96587166Y-109042500D01*
X96502500Y-109000166D01*
X96417833Y-109000166D01*
X96333166Y-109423500D01*
X96079166Y-108238166D02*
X96036833Y-108322833D01*
X96036833Y-108492166D01*
X96079166Y-108576833D01*
X96121500Y-108619166D01*
X96206166Y-108661500D01*
X96460166Y-108661500D01*
X96544833Y-108619166D01*
X96587166Y-108576833D01*
X96629500Y-108492166D01*
X96629500Y-108322833D01*
X96587166Y-108238166D01*
X96629500Y-107984166D02*
X96629500Y-107645500D01*
X96925833Y-107857166D02*
X96163833Y-107857166D01*
X96079166Y-107814833D01*
X96036833Y-107730166D01*
X96036833Y-107645500D01*
X96036833Y-107349166D02*
X96629500Y-107349166D01*
X96460166Y-107349166D02*
X96544833Y-107306833D01*
X96587166Y-107264500D01*
X96629500Y-107179833D01*
X96629500Y-107095166D01*
X96036833Y-106671833D02*
X96079166Y-106756500D01*
X96121500Y-106798833D01*
X96206166Y-106841166D01*
X96460166Y-106841166D01*
X96544833Y-106798833D01*
X96587166Y-106756500D01*
X96629500Y-106671833D01*
X96629500Y-106544833D01*
X96587166Y-106460166D01*
X96544833Y-106417833D01*
X96460166Y-106375500D01*
X96206166Y-106375500D01*
X96121500Y-106417833D01*
X96079166Y-106460166D01*
X96036833Y-106544833D01*
X96036833Y-106671833D01*
X96629500Y-105994500D02*
X96036833Y-105994500D01*
X96544833Y-105994500D02*
X96587166Y-105952166D01*
X96629500Y-105867500D01*
X96629500Y-105740500D01*
X96587166Y-105655833D01*
X96502500Y-105613500D01*
X96036833Y-105613500D01*
X96036833Y-105190166D02*
X96629500Y-105190166D01*
X96925833Y-105190166D02*
X96883500Y-105232500D01*
X96841166Y-105190166D01*
X96883500Y-105147833D01*
X96925833Y-105190166D01*
X96841166Y-105190166D01*
X96079166Y-104385833D02*
X96036833Y-104470500D01*
X96036833Y-104639833D01*
X96079166Y-104724500D01*
X96121500Y-104766833D01*
X96206166Y-104809166D01*
X96460166Y-104809166D01*
X96544833Y-104766833D01*
X96587166Y-104724500D01*
X96629500Y-104639833D01*
X96629500Y-104470500D01*
X96587166Y-104385833D01*
X96079166Y-104047166D02*
X96036833Y-103962500D01*
X96036833Y-103793166D01*
X96079166Y-103708500D01*
X96163833Y-103666166D01*
X96206166Y-103666166D01*
X96290833Y-103708500D01*
X96333166Y-103793166D01*
X96333166Y-103920166D01*
X96375500Y-104004833D01*
X96460166Y-104047166D01*
X96502500Y-104047166D01*
X96587166Y-104004833D01*
X96629500Y-103920166D01*
X96629500Y-103793166D01*
X96587166Y-103708500D01*
X96121500Y-103285166D02*
X96079166Y-103242833D01*
X96036833Y-103285166D01*
X96079166Y-103327500D01*
X96121500Y-103285166D01*
X96036833Y-103285166D01*
X96079166Y-102480833D02*
X96036833Y-102565500D01*
X96036833Y-102734833D01*
X96079166Y-102819500D01*
X96121500Y-102861833D01*
X96206166Y-102904166D01*
X96460166Y-102904166D01*
X96544833Y-102861833D01*
X96587166Y-102819500D01*
X96629500Y-102734833D01*
X96629500Y-102565500D01*
X96587166Y-102480833D01*
X96036833Y-101718833D02*
X96502500Y-101718833D01*
X96587166Y-101761166D01*
X96629500Y-101845833D01*
X96629500Y-102015166D01*
X96587166Y-102099833D01*
X96079166Y-101718833D02*
X96036833Y-101803500D01*
X96036833Y-102015166D01*
X96079166Y-102099833D01*
X96163833Y-102142166D01*
X96248500Y-102142166D01*
X96333166Y-102099833D01*
X96375500Y-102015166D01*
X96375500Y-101803500D01*
X96417833Y-101718833D01*
X95296000Y-113339333D02*
X95296000Y-113000666D01*
X95592333Y-113212333D02*
X94830333Y-113212333D01*
X94745666Y-113170000D01*
X94703333Y-113085333D01*
X94703333Y-113000666D01*
X94703333Y-112704333D02*
X95296000Y-112704333D01*
X95592333Y-112704333D02*
X95550000Y-112746666D01*
X95507666Y-112704333D01*
X95550000Y-112662000D01*
X95592333Y-112704333D01*
X95507666Y-112704333D01*
X95296000Y-112281000D02*
X94703333Y-112281000D01*
X95211333Y-112281000D02*
X95253666Y-112238666D01*
X95296000Y-112154000D01*
X95296000Y-112027000D01*
X95253666Y-111942333D01*
X95169000Y-111900000D01*
X94703333Y-111900000D01*
X94703333Y-111476666D02*
X95592333Y-111476666D01*
X95042000Y-111392000D02*
X94703333Y-111138000D01*
X95296000Y-111138000D02*
X94957333Y-111476666D01*
X94745666Y-110418333D02*
X94703333Y-110503000D01*
X94703333Y-110672333D01*
X94745666Y-110757000D01*
X94830333Y-110799333D01*
X95169000Y-110799333D01*
X95253666Y-110757000D01*
X95296000Y-110672333D01*
X95296000Y-110503000D01*
X95253666Y-110418333D01*
X95169000Y-110376000D01*
X95084333Y-110376000D01*
X94999666Y-110799333D01*
X94703333Y-109995000D02*
X95296000Y-109995000D01*
X95126666Y-109995000D02*
X95211333Y-109952666D01*
X95253666Y-109910333D01*
X95296000Y-109825666D01*
X95296000Y-109741000D01*
X95296000Y-109444666D02*
X94407000Y-109444666D01*
X95253666Y-109444666D02*
X95296000Y-109360000D01*
X95296000Y-109190666D01*
X95253666Y-109106000D01*
X95211333Y-109063666D01*
X95126666Y-109021333D01*
X94872666Y-109021333D01*
X94788000Y-109063666D01*
X94745666Y-109106000D01*
X94703333Y-109190666D01*
X94703333Y-109360000D01*
X94745666Y-109444666D01*
X94703333Y-108513333D02*
X94745666Y-108598000D01*
X94830333Y-108640333D01*
X95592333Y-108640333D01*
X95296000Y-107793666D02*
X94703333Y-107793666D01*
X95296000Y-108174666D02*
X94830333Y-108174666D01*
X94745666Y-108132333D01*
X94703333Y-108047666D01*
X94703333Y-107920666D01*
X94745666Y-107836000D01*
X94788000Y-107793666D01*
X95296000Y-107370333D02*
X94703333Y-107370333D01*
X95211333Y-107370333D02*
X95253666Y-107328000D01*
X95296000Y-107243333D01*
X95296000Y-107116333D01*
X95253666Y-107031666D01*
X95169000Y-106989333D01*
X94703333Y-106989333D01*
X94703333Y-106566000D02*
X95592333Y-106566000D01*
X95042000Y-106481333D02*
X94703333Y-106227333D01*
X95296000Y-106227333D02*
X94957333Y-106566000D01*
X94788000Y-105846333D02*
X94745666Y-105804000D01*
X94703333Y-105846333D01*
X94745666Y-105888666D01*
X94788000Y-105846333D01*
X94703333Y-105846333D01*
X94745666Y-105042000D02*
X94703333Y-105126666D01*
X94703333Y-105296000D01*
X94745666Y-105380666D01*
X94788000Y-105423000D01*
X94872666Y-105465333D01*
X95126666Y-105465333D01*
X95211333Y-105423000D01*
X95253666Y-105380666D01*
X95296000Y-105296000D01*
X95296000Y-105126666D01*
X95253666Y-105042000D01*
X94703333Y-104534000D02*
X94745666Y-104618666D01*
X94788000Y-104661000D01*
X94872666Y-104703333D01*
X95126666Y-104703333D01*
X95211333Y-104661000D01*
X95253666Y-104618666D01*
X95296000Y-104534000D01*
X95296000Y-104407000D01*
X95253666Y-104322333D01*
X95211333Y-104280000D01*
X95126666Y-104237666D01*
X94872666Y-104237666D01*
X94788000Y-104280000D01*
X94745666Y-104322333D01*
X94703333Y-104407000D01*
X94703333Y-104534000D01*
X94703333Y-103856666D02*
X95296000Y-103856666D01*
X95211333Y-103856666D02*
X95253666Y-103814333D01*
X95296000Y-103729666D01*
X95296000Y-103602666D01*
X95253666Y-103518000D01*
X95169000Y-103475666D01*
X94703333Y-103475666D01*
X95169000Y-103475666D02*
X95253666Y-103433333D01*
X95296000Y-103348666D01*
X95296000Y-103221666D01*
X95253666Y-103137000D01*
X95169000Y-103094666D01*
X94703333Y-103094666D01*
D10*
X98935428Y-103795714D02*
X100435428Y-103795714D01*
X98935428Y-103081428D02*
X100435428Y-103081428D01*
X98935428Y-102224285D01*
X100435428Y-102224285D01*
D11*
X107804000Y-98268666D02*
X107804000Y-98607333D01*
X107507666Y-98395666D02*
X108269666Y-98395666D01*
X108354333Y-98438000D01*
X108396666Y-98522666D01*
X108396666Y-98607333D01*
X108396666Y-98903666D02*
X107804000Y-98903666D01*
X107507666Y-98903666D02*
X107550000Y-98861333D01*
X107592333Y-98903666D01*
X107550000Y-98946000D01*
X107507666Y-98903666D01*
X107592333Y-98903666D01*
X107804000Y-99327000D02*
X108396666Y-99327000D01*
X107888666Y-99327000D02*
X107846333Y-99369333D01*
X107804000Y-99454000D01*
X107804000Y-99581000D01*
X107846333Y-99665666D01*
X107931000Y-99708000D01*
X108396666Y-99708000D01*
X108396666Y-100131333D02*
X107507666Y-100131333D01*
X108058000Y-100216000D02*
X108396666Y-100470000D01*
X107804000Y-100470000D02*
X108142666Y-100131333D01*
X108354333Y-101189666D02*
X108396666Y-101105000D01*
X108396666Y-100935666D01*
X108354333Y-100851000D01*
X108269666Y-100808666D01*
X107931000Y-100808666D01*
X107846333Y-100851000D01*
X107804000Y-100935666D01*
X107804000Y-101105000D01*
X107846333Y-101189666D01*
X107931000Y-101232000D01*
X108015666Y-101232000D01*
X108100333Y-100808666D01*
X108396666Y-101613000D02*
X107804000Y-101613000D01*
X107973333Y-101613000D02*
X107888666Y-101655333D01*
X107846333Y-101697666D01*
X107804000Y-101782333D01*
X107804000Y-101867000D01*
X107804000Y-102163333D02*
X108693000Y-102163333D01*
X107846333Y-102163333D02*
X107804000Y-102248000D01*
X107804000Y-102417333D01*
X107846333Y-102502000D01*
X107888666Y-102544333D01*
X107973333Y-102586666D01*
X108227333Y-102586666D01*
X108312000Y-102544333D01*
X108354333Y-102502000D01*
X108396666Y-102417333D01*
X108396666Y-102248000D01*
X108354333Y-102163333D01*
X108396666Y-103094666D02*
X108354333Y-103010000D01*
X108269666Y-102967666D01*
X107507666Y-102967666D01*
X107804000Y-103814333D02*
X108396666Y-103814333D01*
X107804000Y-103433333D02*
X108269666Y-103433333D01*
X108354333Y-103475666D01*
X108396666Y-103560333D01*
X108396666Y-103687333D01*
X108354333Y-103772000D01*
X108312000Y-103814333D01*
X107804000Y-104237666D02*
X108396666Y-104237666D01*
X107888666Y-104237666D02*
X107846333Y-104280000D01*
X107804000Y-104364666D01*
X107804000Y-104491666D01*
X107846333Y-104576333D01*
X107931000Y-104618666D01*
X108396666Y-104618666D01*
X108396666Y-105042000D02*
X107507666Y-105042000D01*
X108058000Y-105126666D02*
X108396666Y-105380666D01*
X107804000Y-105380666D02*
X108142666Y-105042000D01*
X108312000Y-105761666D02*
X108354333Y-105804000D01*
X108396666Y-105761666D01*
X108354333Y-105719333D01*
X108312000Y-105761666D01*
X108396666Y-105761666D01*
X108354333Y-106566000D02*
X108396666Y-106481333D01*
X108396666Y-106312000D01*
X108354333Y-106227333D01*
X108312000Y-106185000D01*
X108227333Y-106142666D01*
X107973333Y-106142666D01*
X107888666Y-106185000D01*
X107846333Y-106227333D01*
X107804000Y-106312000D01*
X107804000Y-106481333D01*
X107846333Y-106566000D01*
X108396666Y-107074000D02*
X108354333Y-106989333D01*
X108312000Y-106947000D01*
X108227333Y-106904666D01*
X107973333Y-106904666D01*
X107888666Y-106947000D01*
X107846333Y-106989333D01*
X107804000Y-107074000D01*
X107804000Y-107201000D01*
X107846333Y-107285666D01*
X107888666Y-107328000D01*
X107973333Y-107370333D01*
X108227333Y-107370333D01*
X108312000Y-107328000D01*
X108354333Y-107285666D01*
X108396666Y-107201000D01*
X108396666Y-107074000D01*
X108396666Y-107751333D02*
X107804000Y-107751333D01*
X107888666Y-107751333D02*
X107846333Y-107793666D01*
X107804000Y-107878333D01*
X107804000Y-108005333D01*
X107846333Y-108090000D01*
X107931000Y-108132333D01*
X108396666Y-108132333D01*
X107931000Y-108132333D02*
X107846333Y-108174666D01*
X107804000Y-108259333D01*
X107804000Y-108386333D01*
X107846333Y-108471000D01*
X107931000Y-108513333D01*
X108396666Y-108513333D01*
D10*
X104164571Y-107812285D02*
X102664571Y-107812285D01*
X104164571Y-108526571D02*
X102664571Y-108526571D01*
X104164571Y-109383714D01*
X102664571Y-109383714D01*
D11*
X107063166Y-98670833D02*
X106174166Y-98670833D01*
X107020833Y-98670833D02*
X107063166Y-98586166D01*
X107063166Y-98416833D01*
X107020833Y-98332166D01*
X106978500Y-98289833D01*
X106893833Y-98247500D01*
X106639833Y-98247500D01*
X106555166Y-98289833D01*
X106512833Y-98332166D01*
X106470500Y-98416833D01*
X106470500Y-98586166D01*
X106512833Y-98670833D01*
X107063166Y-99094166D02*
X106174166Y-99094166D01*
X106512833Y-99094166D02*
X106470500Y-99178833D01*
X106470500Y-99348166D01*
X106512833Y-99432833D01*
X106555166Y-99475166D01*
X106639833Y-99517500D01*
X106893833Y-99517500D01*
X106978500Y-99475166D01*
X107020833Y-99432833D01*
X107063166Y-99348166D01*
X107063166Y-99178833D01*
X107020833Y-99094166D01*
X106724500Y-99898500D02*
X106724500Y-100575833D01*
X107020833Y-101337833D02*
X107063166Y-101253166D01*
X107063166Y-101083833D01*
X107020833Y-100999166D01*
X106936166Y-100956833D01*
X106597500Y-100956833D01*
X106512833Y-100999166D01*
X106470500Y-101083833D01*
X106470500Y-101253166D01*
X106512833Y-101337833D01*
X106597500Y-101380166D01*
X106682166Y-101380166D01*
X106766833Y-100956833D01*
X107063166Y-101888166D02*
X107020833Y-101803500D01*
X106936166Y-101761166D01*
X106174166Y-101761166D01*
X107020833Y-102565500D02*
X107063166Y-102480833D01*
X107063166Y-102311500D01*
X107020833Y-102226833D01*
X106936166Y-102184500D01*
X106597500Y-102184500D01*
X106512833Y-102226833D01*
X106470500Y-102311500D01*
X106470500Y-102480833D01*
X106512833Y-102565500D01*
X106597500Y-102607833D01*
X106682166Y-102607833D01*
X106766833Y-102184500D01*
X107020833Y-103369833D02*
X107063166Y-103285166D01*
X107063166Y-103115833D01*
X107020833Y-103031166D01*
X106978500Y-102988833D01*
X106893833Y-102946500D01*
X106639833Y-102946500D01*
X106555166Y-102988833D01*
X106512833Y-103031166D01*
X106470500Y-103115833D01*
X106470500Y-103285166D01*
X106512833Y-103369833D01*
X106470500Y-103623833D02*
X106470500Y-103962500D01*
X106174166Y-103750833D02*
X106936166Y-103750833D01*
X107020833Y-103793166D01*
X107063166Y-103877833D01*
X107063166Y-103962500D01*
X107063166Y-104258833D02*
X106470500Y-104258833D01*
X106639833Y-104258833D02*
X106555166Y-104301166D01*
X106512833Y-104343500D01*
X106470500Y-104428166D01*
X106470500Y-104512833D01*
X107063166Y-104936166D02*
X107020833Y-104851500D01*
X106978500Y-104809166D01*
X106893833Y-104766833D01*
X106639833Y-104766833D01*
X106555166Y-104809166D01*
X106512833Y-104851500D01*
X106470500Y-104936166D01*
X106470500Y-105063166D01*
X106512833Y-105147833D01*
X106555166Y-105190166D01*
X106639833Y-105232500D01*
X106893833Y-105232500D01*
X106978500Y-105190166D01*
X107020833Y-105147833D01*
X107063166Y-105063166D01*
X107063166Y-104936166D01*
X106470500Y-105613500D02*
X107063166Y-105613500D01*
X106555166Y-105613500D02*
X106512833Y-105655833D01*
X106470500Y-105740500D01*
X106470500Y-105867500D01*
X106512833Y-105952166D01*
X106597500Y-105994500D01*
X107063166Y-105994500D01*
X107063166Y-106417833D02*
X106470500Y-106417833D01*
X106174166Y-106417833D02*
X106216500Y-106375500D01*
X106258833Y-106417833D01*
X106216500Y-106460166D01*
X106174166Y-106417833D01*
X106258833Y-106417833D01*
X107020833Y-107222166D02*
X107063166Y-107137500D01*
X107063166Y-106968166D01*
X107020833Y-106883500D01*
X106978500Y-106841166D01*
X106893833Y-106798833D01*
X106639833Y-106798833D01*
X106555166Y-106841166D01*
X106512833Y-106883500D01*
X106470500Y-106968166D01*
X106470500Y-107137500D01*
X106512833Y-107222166D01*
X107020833Y-107560833D02*
X107063166Y-107645500D01*
X107063166Y-107814833D01*
X107020833Y-107899500D01*
X106936166Y-107941833D01*
X106893833Y-107941833D01*
X106809166Y-107899500D01*
X106766833Y-107814833D01*
X106766833Y-107687833D01*
X106724500Y-107603166D01*
X106639833Y-107560833D01*
X106597500Y-107560833D01*
X106512833Y-107603166D01*
X106470500Y-107687833D01*
X106470500Y-107814833D01*
X106512833Y-107899500D01*
X106978500Y-108322833D02*
X107020833Y-108365166D01*
X107063166Y-108322833D01*
X107020833Y-108280500D01*
X106978500Y-108322833D01*
X107063166Y-108322833D01*
X107020833Y-109127166D02*
X107063166Y-109042500D01*
X107063166Y-108873166D01*
X107020833Y-108788500D01*
X106978500Y-108746166D01*
X106893833Y-108703833D01*
X106639833Y-108703833D01*
X106555166Y-108746166D01*
X106512833Y-108788500D01*
X106470500Y-108873166D01*
X106470500Y-109042500D01*
X106512833Y-109127166D01*
X107063166Y-109889166D02*
X106597500Y-109889166D01*
X106512833Y-109846833D01*
X106470500Y-109762166D01*
X106470500Y-109592833D01*
X106512833Y-109508166D01*
X107020833Y-109889166D02*
X107063166Y-109804500D01*
X107063166Y-109592833D01*
X107020833Y-109508166D01*
X106936166Y-109465833D01*
X106851500Y-109465833D01*
X106766833Y-109508166D01*
X106724500Y-109592833D01*
X106724500Y-109804500D01*
X106682166Y-109889166D01*
X96036833Y-129137166D02*
X96925833Y-129137166D01*
X96079166Y-129137166D02*
X96036833Y-129221833D01*
X96036833Y-129391166D01*
X96079166Y-129475833D01*
X96121500Y-129518166D01*
X96206166Y-129560500D01*
X96460166Y-129560500D01*
X96544833Y-129518166D01*
X96587166Y-129475833D01*
X96629500Y-129391166D01*
X96629500Y-129221833D01*
X96587166Y-129137166D01*
X96036833Y-128713833D02*
X96925833Y-128713833D01*
X96587166Y-128713833D02*
X96629500Y-128629166D01*
X96629500Y-128459833D01*
X96587166Y-128375166D01*
X96544833Y-128332833D01*
X96460166Y-128290500D01*
X96206166Y-128290500D01*
X96121500Y-128332833D01*
X96079166Y-128375166D01*
X96036833Y-128459833D01*
X96036833Y-128629166D01*
X96079166Y-128713833D01*
X96375500Y-127909500D02*
X96375500Y-127232166D01*
X96079166Y-126470166D02*
X96036833Y-126554833D01*
X96036833Y-126724166D01*
X96079166Y-126808833D01*
X96163833Y-126851166D01*
X96502500Y-126851166D01*
X96587166Y-126808833D01*
X96629500Y-126724166D01*
X96629500Y-126554833D01*
X96587166Y-126470166D01*
X96502500Y-126427833D01*
X96417833Y-126427833D01*
X96333166Y-126851166D01*
X96036833Y-125919833D02*
X96079166Y-126004500D01*
X96163833Y-126046833D01*
X96925833Y-126046833D01*
X96079166Y-125242500D02*
X96036833Y-125327166D01*
X96036833Y-125496500D01*
X96079166Y-125581166D01*
X96163833Y-125623500D01*
X96502500Y-125623500D01*
X96587166Y-125581166D01*
X96629500Y-125496500D01*
X96629500Y-125327166D01*
X96587166Y-125242500D01*
X96502500Y-125200166D01*
X96417833Y-125200166D01*
X96333166Y-125623500D01*
X96079166Y-124438166D02*
X96036833Y-124522833D01*
X96036833Y-124692166D01*
X96079166Y-124776833D01*
X96121500Y-124819166D01*
X96206166Y-124861500D01*
X96460166Y-124861500D01*
X96544833Y-124819166D01*
X96587166Y-124776833D01*
X96629500Y-124692166D01*
X96629500Y-124522833D01*
X96587166Y-124438166D01*
X96629500Y-124184166D02*
X96629500Y-123845500D01*
X96925833Y-124057166D02*
X96163833Y-124057166D01*
X96079166Y-124014833D01*
X96036833Y-123930166D01*
X96036833Y-123845500D01*
X96036833Y-123549166D02*
X96629500Y-123549166D01*
X96460166Y-123549166D02*
X96544833Y-123506833D01*
X96587166Y-123464500D01*
X96629500Y-123379833D01*
X96629500Y-123295166D01*
X96036833Y-122871833D02*
X96079166Y-122956500D01*
X96121500Y-122998833D01*
X96206166Y-123041166D01*
X96460166Y-123041166D01*
X96544833Y-122998833D01*
X96587166Y-122956500D01*
X96629500Y-122871833D01*
X96629500Y-122744833D01*
X96587166Y-122660166D01*
X96544833Y-122617833D01*
X96460166Y-122575500D01*
X96206166Y-122575500D01*
X96121500Y-122617833D01*
X96079166Y-122660166D01*
X96036833Y-122744833D01*
X96036833Y-122871833D01*
X96629500Y-122194500D02*
X96036833Y-122194500D01*
X96544833Y-122194500D02*
X96587166Y-122152166D01*
X96629500Y-122067500D01*
X96629500Y-121940500D01*
X96587166Y-121855833D01*
X96502500Y-121813500D01*
X96036833Y-121813500D01*
X96036833Y-121390166D02*
X96629500Y-121390166D01*
X96925833Y-121390166D02*
X96883500Y-121432500D01*
X96841166Y-121390166D01*
X96883500Y-121347833D01*
X96925833Y-121390166D01*
X96841166Y-121390166D01*
X96079166Y-120585833D02*
X96036833Y-120670500D01*
X96036833Y-120839833D01*
X96079166Y-120924500D01*
X96121500Y-120966833D01*
X96206166Y-121009166D01*
X96460166Y-121009166D01*
X96544833Y-120966833D01*
X96587166Y-120924500D01*
X96629500Y-120839833D01*
X96629500Y-120670500D01*
X96587166Y-120585833D01*
X96079166Y-120247166D02*
X96036833Y-120162500D01*
X96036833Y-119993166D01*
X96079166Y-119908500D01*
X96163833Y-119866166D01*
X96206166Y-119866166D01*
X96290833Y-119908500D01*
X96333166Y-119993166D01*
X96333166Y-120120166D01*
X96375500Y-120204833D01*
X96460166Y-120247166D01*
X96502500Y-120247166D01*
X96587166Y-120204833D01*
X96629500Y-120120166D01*
X96629500Y-119993166D01*
X96587166Y-119908500D01*
X96121500Y-119485166D02*
X96079166Y-119442833D01*
X96036833Y-119485166D01*
X96079166Y-119527500D01*
X96121500Y-119485166D01*
X96036833Y-119485166D01*
X96079166Y-118680833D02*
X96036833Y-118765500D01*
X96036833Y-118934833D01*
X96079166Y-119019500D01*
X96121500Y-119061833D01*
X96206166Y-119104166D01*
X96460166Y-119104166D01*
X96544833Y-119061833D01*
X96587166Y-119019500D01*
X96629500Y-118934833D01*
X96629500Y-118765500D01*
X96587166Y-118680833D01*
X96036833Y-117918833D02*
X96502500Y-117918833D01*
X96587166Y-117961166D01*
X96629500Y-118045833D01*
X96629500Y-118215166D01*
X96587166Y-118299833D01*
X96079166Y-117918833D02*
X96036833Y-118003500D01*
X96036833Y-118215166D01*
X96079166Y-118299833D01*
X96163833Y-118342166D01*
X96248500Y-118342166D01*
X96333166Y-118299833D01*
X96375500Y-118215166D01*
X96375500Y-118003500D01*
X96417833Y-117918833D01*
X95296000Y-129539333D02*
X95296000Y-129200666D01*
X95592333Y-129412333D02*
X94830333Y-129412333D01*
X94745666Y-129370000D01*
X94703333Y-129285333D01*
X94703333Y-129200666D01*
X94703333Y-128904333D02*
X95296000Y-128904333D01*
X95592333Y-128904333D02*
X95550000Y-128946666D01*
X95507666Y-128904333D01*
X95550000Y-128862000D01*
X95592333Y-128904333D01*
X95507666Y-128904333D01*
X95296000Y-128481000D02*
X94703333Y-128481000D01*
X95211333Y-128481000D02*
X95253666Y-128438666D01*
X95296000Y-128354000D01*
X95296000Y-128227000D01*
X95253666Y-128142333D01*
X95169000Y-128100000D01*
X94703333Y-128100000D01*
X94703333Y-127676666D02*
X95592333Y-127676666D01*
X95042000Y-127592000D02*
X94703333Y-127338000D01*
X95296000Y-127338000D02*
X94957333Y-127676666D01*
X94745666Y-126618333D02*
X94703333Y-126703000D01*
X94703333Y-126872333D01*
X94745666Y-126957000D01*
X94830333Y-126999333D01*
X95169000Y-126999333D01*
X95253666Y-126957000D01*
X95296000Y-126872333D01*
X95296000Y-126703000D01*
X95253666Y-126618333D01*
X95169000Y-126576000D01*
X95084333Y-126576000D01*
X94999666Y-126999333D01*
X94703333Y-126195000D02*
X95296000Y-126195000D01*
X95126666Y-126195000D02*
X95211333Y-126152666D01*
X95253666Y-126110333D01*
X95296000Y-126025666D01*
X95296000Y-125941000D01*
X95296000Y-125644666D02*
X94407000Y-125644666D01*
X95253666Y-125644666D02*
X95296000Y-125560000D01*
X95296000Y-125390666D01*
X95253666Y-125306000D01*
X95211333Y-125263666D01*
X95126666Y-125221333D01*
X94872666Y-125221333D01*
X94788000Y-125263666D01*
X94745666Y-125306000D01*
X94703333Y-125390666D01*
X94703333Y-125560000D01*
X94745666Y-125644666D01*
X94703333Y-124713333D02*
X94745666Y-124798000D01*
X94830333Y-124840333D01*
X95592333Y-124840333D01*
X95296000Y-123993666D02*
X94703333Y-123993666D01*
X95296000Y-124374666D02*
X94830333Y-124374666D01*
X94745666Y-124332333D01*
X94703333Y-124247666D01*
X94703333Y-124120666D01*
X94745666Y-124036000D01*
X94788000Y-123993666D01*
X95296000Y-123570333D02*
X94703333Y-123570333D01*
X95211333Y-123570333D02*
X95253666Y-123528000D01*
X95296000Y-123443333D01*
X95296000Y-123316333D01*
X95253666Y-123231666D01*
X95169000Y-123189333D01*
X94703333Y-123189333D01*
X94703333Y-122766000D02*
X95592333Y-122766000D01*
X95042000Y-122681333D02*
X94703333Y-122427333D01*
X95296000Y-122427333D02*
X94957333Y-122766000D01*
X94788000Y-122046333D02*
X94745666Y-122004000D01*
X94703333Y-122046333D01*
X94745666Y-122088666D01*
X94788000Y-122046333D01*
X94703333Y-122046333D01*
X94745666Y-121242000D02*
X94703333Y-121326666D01*
X94703333Y-121496000D01*
X94745666Y-121580666D01*
X94788000Y-121623000D01*
X94872666Y-121665333D01*
X95126666Y-121665333D01*
X95211333Y-121623000D01*
X95253666Y-121580666D01*
X95296000Y-121496000D01*
X95296000Y-121326666D01*
X95253666Y-121242000D01*
X94703333Y-120734000D02*
X94745666Y-120818666D01*
X94788000Y-120861000D01*
X94872666Y-120903333D01*
X95126666Y-120903333D01*
X95211333Y-120861000D01*
X95253666Y-120818666D01*
X95296000Y-120734000D01*
X95296000Y-120607000D01*
X95253666Y-120522333D01*
X95211333Y-120480000D01*
X95126666Y-120437666D01*
X94872666Y-120437666D01*
X94788000Y-120480000D01*
X94745666Y-120522333D01*
X94703333Y-120607000D01*
X94703333Y-120734000D01*
X94703333Y-120056666D02*
X95296000Y-120056666D01*
X95211333Y-120056666D02*
X95253666Y-120014333D01*
X95296000Y-119929666D01*
X95296000Y-119802666D01*
X95253666Y-119718000D01*
X95169000Y-119675666D01*
X94703333Y-119675666D01*
X95169000Y-119675666D02*
X95253666Y-119633333D01*
X95296000Y-119548666D01*
X95296000Y-119421666D01*
X95253666Y-119337000D01*
X95169000Y-119294666D01*
X94703333Y-119294666D01*
D10*
X98935428Y-119995714D02*
X100435428Y-119995714D01*
X98935428Y-119281428D02*
X100435428Y-119281428D01*
X98935428Y-118424285D01*
X100435428Y-118424285D01*
D11*
X107804000Y-114468666D02*
X107804000Y-114807333D01*
X107507666Y-114595666D02*
X108269666Y-114595666D01*
X108354333Y-114638000D01*
X108396666Y-114722666D01*
X108396666Y-114807333D01*
X108396666Y-115103666D02*
X107804000Y-115103666D01*
X107507666Y-115103666D02*
X107550000Y-115061333D01*
X107592333Y-115103666D01*
X107550000Y-115146000D01*
X107507666Y-115103666D01*
X107592333Y-115103666D01*
X107804000Y-115527000D02*
X108396666Y-115527000D01*
X107888666Y-115527000D02*
X107846333Y-115569333D01*
X107804000Y-115654000D01*
X107804000Y-115781000D01*
X107846333Y-115865666D01*
X107931000Y-115908000D01*
X108396666Y-115908000D01*
X108396666Y-116331333D02*
X107507666Y-116331333D01*
X108058000Y-116416000D02*
X108396666Y-116670000D01*
X107804000Y-116670000D02*
X108142666Y-116331333D01*
X108354333Y-117389666D02*
X108396666Y-117305000D01*
X108396666Y-117135666D01*
X108354333Y-117051000D01*
X108269666Y-117008666D01*
X107931000Y-117008666D01*
X107846333Y-117051000D01*
X107804000Y-117135666D01*
X107804000Y-117305000D01*
X107846333Y-117389666D01*
X107931000Y-117432000D01*
X108015666Y-117432000D01*
X108100333Y-117008666D01*
X108396666Y-117813000D02*
X107804000Y-117813000D01*
X107973333Y-117813000D02*
X107888666Y-117855333D01*
X107846333Y-117897666D01*
X107804000Y-117982333D01*
X107804000Y-118067000D01*
X107804000Y-118363333D02*
X108693000Y-118363333D01*
X107846333Y-118363333D02*
X107804000Y-118448000D01*
X107804000Y-118617333D01*
X107846333Y-118702000D01*
X107888666Y-118744333D01*
X107973333Y-118786666D01*
X108227333Y-118786666D01*
X108312000Y-118744333D01*
X108354333Y-118702000D01*
X108396666Y-118617333D01*
X108396666Y-118448000D01*
X108354333Y-118363333D01*
X108396666Y-119294666D02*
X108354333Y-119210000D01*
X108269666Y-119167666D01*
X107507666Y-119167666D01*
X107804000Y-120014333D02*
X108396666Y-120014333D01*
X107804000Y-119633333D02*
X108269666Y-119633333D01*
X108354333Y-119675666D01*
X108396666Y-119760333D01*
X108396666Y-119887333D01*
X108354333Y-119972000D01*
X108312000Y-120014333D01*
X107804000Y-120437666D02*
X108396666Y-120437666D01*
X107888666Y-120437666D02*
X107846333Y-120480000D01*
X107804000Y-120564666D01*
X107804000Y-120691666D01*
X107846333Y-120776333D01*
X107931000Y-120818666D01*
X108396666Y-120818666D01*
X108396666Y-121242000D02*
X107507666Y-121242000D01*
X108058000Y-121326666D02*
X108396666Y-121580666D01*
X107804000Y-121580666D02*
X108142666Y-121242000D01*
X108312000Y-121961666D02*
X108354333Y-122004000D01*
X108396666Y-121961666D01*
X108354333Y-121919333D01*
X108312000Y-121961666D01*
X108396666Y-121961666D01*
X108354333Y-122766000D02*
X108396666Y-122681333D01*
X108396666Y-122512000D01*
X108354333Y-122427333D01*
X108312000Y-122385000D01*
X108227333Y-122342666D01*
X107973333Y-122342666D01*
X107888666Y-122385000D01*
X107846333Y-122427333D01*
X107804000Y-122512000D01*
X107804000Y-122681333D01*
X107846333Y-122766000D01*
X108396666Y-123274000D02*
X108354333Y-123189333D01*
X108312000Y-123147000D01*
X108227333Y-123104666D01*
X107973333Y-123104666D01*
X107888666Y-123147000D01*
X107846333Y-123189333D01*
X107804000Y-123274000D01*
X107804000Y-123401000D01*
X107846333Y-123485666D01*
X107888666Y-123528000D01*
X107973333Y-123570333D01*
X108227333Y-123570333D01*
X108312000Y-123528000D01*
X108354333Y-123485666D01*
X108396666Y-123401000D01*
X108396666Y-123274000D01*
X108396666Y-123951333D02*
X107804000Y-123951333D01*
X107888666Y-123951333D02*
X107846333Y-123993666D01*
X107804000Y-124078333D01*
X107804000Y-124205333D01*
X107846333Y-124290000D01*
X107931000Y-124332333D01*
X108396666Y-124332333D01*
X107931000Y-124332333D02*
X107846333Y-124374666D01*
X107804000Y-124459333D01*
X107804000Y-124586333D01*
X107846333Y-124671000D01*
X107931000Y-124713333D01*
X108396666Y-124713333D01*
D10*
X104164571Y-124012285D02*
X102664571Y-124012285D01*
X104164571Y-124726571D02*
X102664571Y-124726571D01*
X104164571Y-125583714D01*
X102664571Y-125583714D01*
D11*
X107063166Y-114870833D02*
X106174166Y-114870833D01*
X107020833Y-114870833D02*
X107063166Y-114786166D01*
X107063166Y-114616833D01*
X107020833Y-114532166D01*
X106978500Y-114489833D01*
X106893833Y-114447500D01*
X106639833Y-114447500D01*
X106555166Y-114489833D01*
X106512833Y-114532166D01*
X106470500Y-114616833D01*
X106470500Y-114786166D01*
X106512833Y-114870833D01*
X107063166Y-115294166D02*
X106174166Y-115294166D01*
X106512833Y-115294166D02*
X106470500Y-115378833D01*
X106470500Y-115548166D01*
X106512833Y-115632833D01*
X106555166Y-115675166D01*
X106639833Y-115717500D01*
X106893833Y-115717500D01*
X106978500Y-115675166D01*
X107020833Y-115632833D01*
X107063166Y-115548166D01*
X107063166Y-115378833D01*
X107020833Y-115294166D01*
X106724500Y-116098500D02*
X106724500Y-116775833D01*
X107020833Y-117537833D02*
X107063166Y-117453166D01*
X107063166Y-117283833D01*
X107020833Y-117199166D01*
X106936166Y-117156833D01*
X106597500Y-117156833D01*
X106512833Y-117199166D01*
X106470500Y-117283833D01*
X106470500Y-117453166D01*
X106512833Y-117537833D01*
X106597500Y-117580166D01*
X106682166Y-117580166D01*
X106766833Y-117156833D01*
X107063166Y-118088166D02*
X107020833Y-118003500D01*
X106936166Y-117961166D01*
X106174166Y-117961166D01*
X107020833Y-118765500D02*
X107063166Y-118680833D01*
X107063166Y-118511500D01*
X107020833Y-118426833D01*
X106936166Y-118384500D01*
X106597500Y-118384500D01*
X106512833Y-118426833D01*
X106470500Y-118511500D01*
X106470500Y-118680833D01*
X106512833Y-118765500D01*
X106597500Y-118807833D01*
X106682166Y-118807833D01*
X106766833Y-118384500D01*
X107020833Y-119569833D02*
X107063166Y-119485166D01*
X107063166Y-119315833D01*
X107020833Y-119231166D01*
X106978500Y-119188833D01*
X106893833Y-119146500D01*
X106639833Y-119146500D01*
X106555166Y-119188833D01*
X106512833Y-119231166D01*
X106470500Y-119315833D01*
X106470500Y-119485166D01*
X106512833Y-119569833D01*
X106470500Y-119823833D02*
X106470500Y-120162500D01*
X106174166Y-119950833D02*
X106936166Y-119950833D01*
X107020833Y-119993166D01*
X107063166Y-120077833D01*
X107063166Y-120162500D01*
X107063166Y-120458833D02*
X106470500Y-120458833D01*
X106639833Y-120458833D02*
X106555166Y-120501166D01*
X106512833Y-120543500D01*
X106470500Y-120628166D01*
X106470500Y-120712833D01*
X107063166Y-121136166D02*
X107020833Y-121051500D01*
X106978500Y-121009166D01*
X106893833Y-120966833D01*
X106639833Y-120966833D01*
X106555166Y-121009166D01*
X106512833Y-121051500D01*
X106470500Y-121136166D01*
X106470500Y-121263166D01*
X106512833Y-121347833D01*
X106555166Y-121390166D01*
X106639833Y-121432500D01*
X106893833Y-121432500D01*
X106978500Y-121390166D01*
X107020833Y-121347833D01*
X107063166Y-121263166D01*
X107063166Y-121136166D01*
X106470500Y-121813500D02*
X107063166Y-121813500D01*
X106555166Y-121813500D02*
X106512833Y-121855833D01*
X106470500Y-121940500D01*
X106470500Y-122067500D01*
X106512833Y-122152166D01*
X106597500Y-122194500D01*
X107063166Y-122194500D01*
X107063166Y-122617833D02*
X106470500Y-122617833D01*
X106174166Y-122617833D02*
X106216500Y-122575500D01*
X106258833Y-122617833D01*
X106216500Y-122660166D01*
X106174166Y-122617833D01*
X106258833Y-122617833D01*
X107020833Y-123422166D02*
X107063166Y-123337500D01*
X107063166Y-123168166D01*
X107020833Y-123083500D01*
X106978500Y-123041166D01*
X106893833Y-122998833D01*
X106639833Y-122998833D01*
X106555166Y-123041166D01*
X106512833Y-123083500D01*
X106470500Y-123168166D01*
X106470500Y-123337500D01*
X106512833Y-123422166D01*
X107020833Y-123760833D02*
X107063166Y-123845500D01*
X107063166Y-124014833D01*
X107020833Y-124099500D01*
X106936166Y-124141833D01*
X106893833Y-124141833D01*
X106809166Y-124099500D01*
X106766833Y-124014833D01*
X106766833Y-123887833D01*
X106724500Y-123803166D01*
X106639833Y-123760833D01*
X106597500Y-123760833D01*
X106512833Y-123803166D01*
X106470500Y-123887833D01*
X106470500Y-124014833D01*
X106512833Y-124099500D01*
X106978500Y-124522833D02*
X107020833Y-124565166D01*
X107063166Y-124522833D01*
X107020833Y-124480500D01*
X106978500Y-124522833D01*
X107063166Y-124522833D01*
X107020833Y-125327166D02*
X107063166Y-125242500D01*
X107063166Y-125073166D01*
X107020833Y-124988500D01*
X106978500Y-124946166D01*
X106893833Y-124903833D01*
X106639833Y-124903833D01*
X106555166Y-124946166D01*
X106512833Y-124988500D01*
X106470500Y-125073166D01*
X106470500Y-125242500D01*
X106512833Y-125327166D01*
X107063166Y-126089166D02*
X106597500Y-126089166D01*
X106512833Y-126046833D01*
X106470500Y-125962166D01*
X106470500Y-125792833D01*
X106512833Y-125708166D01*
X107020833Y-126089166D02*
X107063166Y-126004500D01*
X107063166Y-125792833D01*
X107020833Y-125708166D01*
X106936166Y-125665833D01*
X106851500Y-125665833D01*
X106766833Y-125708166D01*
X106724500Y-125792833D01*
X106724500Y-126004500D01*
X106682166Y-126089166D01*
X107063166Y-131070833D02*
X106174166Y-131070833D01*
X107020833Y-131070833D02*
X107063166Y-130986166D01*
X107063166Y-130816833D01*
X107020833Y-130732166D01*
X106978500Y-130689833D01*
X106893833Y-130647500D01*
X106639833Y-130647500D01*
X106555166Y-130689833D01*
X106512833Y-130732166D01*
X106470500Y-130816833D01*
X106470500Y-130986166D01*
X106512833Y-131070833D01*
X107063166Y-131494166D02*
X106174166Y-131494166D01*
X106512833Y-131494166D02*
X106470500Y-131578833D01*
X106470500Y-131748166D01*
X106512833Y-131832833D01*
X106555166Y-131875166D01*
X106639833Y-131917500D01*
X106893833Y-131917500D01*
X106978500Y-131875166D01*
X107020833Y-131832833D01*
X107063166Y-131748166D01*
X107063166Y-131578833D01*
X107020833Y-131494166D01*
X106724500Y-132298500D02*
X106724500Y-132975833D01*
X107020833Y-133737833D02*
X107063166Y-133653166D01*
X107063166Y-133483833D01*
X107020833Y-133399166D01*
X106936166Y-133356833D01*
X106597500Y-133356833D01*
X106512833Y-133399166D01*
X106470500Y-133483833D01*
X106470500Y-133653166D01*
X106512833Y-133737833D01*
X106597500Y-133780166D01*
X106682166Y-133780166D01*
X106766833Y-133356833D01*
X107063166Y-134288166D02*
X107020833Y-134203500D01*
X106936166Y-134161166D01*
X106174166Y-134161166D01*
X107020833Y-134965500D02*
X107063166Y-134880833D01*
X107063166Y-134711500D01*
X107020833Y-134626833D01*
X106936166Y-134584500D01*
X106597500Y-134584500D01*
X106512833Y-134626833D01*
X106470500Y-134711500D01*
X106470500Y-134880833D01*
X106512833Y-134965500D01*
X106597500Y-135007833D01*
X106682166Y-135007833D01*
X106766833Y-134584500D01*
X107020833Y-135769833D02*
X107063166Y-135685166D01*
X107063166Y-135515833D01*
X107020833Y-135431166D01*
X106978500Y-135388833D01*
X106893833Y-135346500D01*
X106639833Y-135346500D01*
X106555166Y-135388833D01*
X106512833Y-135431166D01*
X106470500Y-135515833D01*
X106470500Y-135685166D01*
X106512833Y-135769833D01*
X106470500Y-136023833D02*
X106470500Y-136362500D01*
X106174166Y-136150833D02*
X106936166Y-136150833D01*
X107020833Y-136193166D01*
X107063166Y-136277833D01*
X107063166Y-136362500D01*
X107063166Y-136658833D02*
X106470500Y-136658833D01*
X106639833Y-136658833D02*
X106555166Y-136701166D01*
X106512833Y-136743500D01*
X106470500Y-136828166D01*
X106470500Y-136912833D01*
X107063166Y-137336166D02*
X107020833Y-137251500D01*
X106978500Y-137209166D01*
X106893833Y-137166833D01*
X106639833Y-137166833D01*
X106555166Y-137209166D01*
X106512833Y-137251500D01*
X106470500Y-137336166D01*
X106470500Y-137463166D01*
X106512833Y-137547833D01*
X106555166Y-137590166D01*
X106639833Y-137632500D01*
X106893833Y-137632500D01*
X106978500Y-137590166D01*
X107020833Y-137547833D01*
X107063166Y-137463166D01*
X107063166Y-137336166D01*
X106470500Y-138013500D02*
X107063166Y-138013500D01*
X106555166Y-138013500D02*
X106512833Y-138055833D01*
X106470500Y-138140500D01*
X106470500Y-138267500D01*
X106512833Y-138352166D01*
X106597500Y-138394500D01*
X107063166Y-138394500D01*
X107063166Y-138817833D02*
X106470500Y-138817833D01*
X106174166Y-138817833D02*
X106216500Y-138775500D01*
X106258833Y-138817833D01*
X106216500Y-138860166D01*
X106174166Y-138817833D01*
X106258833Y-138817833D01*
X107020833Y-139622166D02*
X107063166Y-139537500D01*
X107063166Y-139368166D01*
X107020833Y-139283500D01*
X106978500Y-139241166D01*
X106893833Y-139198833D01*
X106639833Y-139198833D01*
X106555166Y-139241166D01*
X106512833Y-139283500D01*
X106470500Y-139368166D01*
X106470500Y-139537500D01*
X106512833Y-139622166D01*
X107020833Y-139960833D02*
X107063166Y-140045500D01*
X107063166Y-140214833D01*
X107020833Y-140299500D01*
X106936166Y-140341833D01*
X106893833Y-140341833D01*
X106809166Y-140299500D01*
X106766833Y-140214833D01*
X106766833Y-140087833D01*
X106724500Y-140003166D01*
X106639833Y-139960833D01*
X106597500Y-139960833D01*
X106512833Y-140003166D01*
X106470500Y-140087833D01*
X106470500Y-140214833D01*
X106512833Y-140299500D01*
X106978500Y-140722833D02*
X107020833Y-140765166D01*
X107063166Y-140722833D01*
X107020833Y-140680500D01*
X106978500Y-140722833D01*
X107063166Y-140722833D01*
X107020833Y-141527166D02*
X107063166Y-141442500D01*
X107063166Y-141273166D01*
X107020833Y-141188500D01*
X106978500Y-141146166D01*
X106893833Y-141103833D01*
X106639833Y-141103833D01*
X106555166Y-141146166D01*
X106512833Y-141188500D01*
X106470500Y-141273166D01*
X106470500Y-141442500D01*
X106512833Y-141527166D01*
X107063166Y-142289166D02*
X106597500Y-142289166D01*
X106512833Y-142246833D01*
X106470500Y-142162166D01*
X106470500Y-141992833D01*
X106512833Y-141908166D01*
X107020833Y-142289166D02*
X107063166Y-142204500D01*
X107063166Y-141992833D01*
X107020833Y-141908166D01*
X106936166Y-141865833D01*
X106851500Y-141865833D01*
X106766833Y-141908166D01*
X106724500Y-141992833D01*
X106724500Y-142204500D01*
X106682166Y-142289166D01*
X107804000Y-130668666D02*
X107804000Y-131007333D01*
X107507666Y-130795666D02*
X108269666Y-130795666D01*
X108354333Y-130838000D01*
X108396666Y-130922666D01*
X108396666Y-131007333D01*
X108396666Y-131303666D02*
X107804000Y-131303666D01*
X107507666Y-131303666D02*
X107550000Y-131261333D01*
X107592333Y-131303666D01*
X107550000Y-131346000D01*
X107507666Y-131303666D01*
X107592333Y-131303666D01*
X107804000Y-131727000D02*
X108396666Y-131727000D01*
X107888666Y-131727000D02*
X107846333Y-131769333D01*
X107804000Y-131854000D01*
X107804000Y-131981000D01*
X107846333Y-132065666D01*
X107931000Y-132108000D01*
X108396666Y-132108000D01*
X108396666Y-132531333D02*
X107507666Y-132531333D01*
X108058000Y-132616000D02*
X108396666Y-132870000D01*
X107804000Y-132870000D02*
X108142666Y-132531333D01*
X108354333Y-133589666D02*
X108396666Y-133505000D01*
X108396666Y-133335666D01*
X108354333Y-133251000D01*
X108269666Y-133208666D01*
X107931000Y-133208666D01*
X107846333Y-133251000D01*
X107804000Y-133335666D01*
X107804000Y-133505000D01*
X107846333Y-133589666D01*
X107931000Y-133632000D01*
X108015666Y-133632000D01*
X108100333Y-133208666D01*
X108396666Y-134013000D02*
X107804000Y-134013000D01*
X107973333Y-134013000D02*
X107888666Y-134055333D01*
X107846333Y-134097666D01*
X107804000Y-134182333D01*
X107804000Y-134267000D01*
X107804000Y-134563333D02*
X108693000Y-134563333D01*
X107846333Y-134563333D02*
X107804000Y-134648000D01*
X107804000Y-134817333D01*
X107846333Y-134902000D01*
X107888666Y-134944333D01*
X107973333Y-134986666D01*
X108227333Y-134986666D01*
X108312000Y-134944333D01*
X108354333Y-134902000D01*
X108396666Y-134817333D01*
X108396666Y-134648000D01*
X108354333Y-134563333D01*
X108396666Y-135494666D02*
X108354333Y-135410000D01*
X108269666Y-135367666D01*
X107507666Y-135367666D01*
X107804000Y-136214333D02*
X108396666Y-136214333D01*
X107804000Y-135833333D02*
X108269666Y-135833333D01*
X108354333Y-135875666D01*
X108396666Y-135960333D01*
X108396666Y-136087333D01*
X108354333Y-136172000D01*
X108312000Y-136214333D01*
X107804000Y-136637666D02*
X108396666Y-136637666D01*
X107888666Y-136637666D02*
X107846333Y-136680000D01*
X107804000Y-136764666D01*
X107804000Y-136891666D01*
X107846333Y-136976333D01*
X107931000Y-137018666D01*
X108396666Y-137018666D01*
X108396666Y-137442000D02*
X107507666Y-137442000D01*
X108058000Y-137526666D02*
X108396666Y-137780666D01*
X107804000Y-137780666D02*
X108142666Y-137442000D01*
X108312000Y-138161666D02*
X108354333Y-138204000D01*
X108396666Y-138161666D01*
X108354333Y-138119333D01*
X108312000Y-138161666D01*
X108396666Y-138161666D01*
X108354333Y-138966000D02*
X108396666Y-138881333D01*
X108396666Y-138712000D01*
X108354333Y-138627333D01*
X108312000Y-138585000D01*
X108227333Y-138542666D01*
X107973333Y-138542666D01*
X107888666Y-138585000D01*
X107846333Y-138627333D01*
X107804000Y-138712000D01*
X107804000Y-138881333D01*
X107846333Y-138966000D01*
X108396666Y-139474000D02*
X108354333Y-139389333D01*
X108312000Y-139347000D01*
X108227333Y-139304666D01*
X107973333Y-139304666D01*
X107888666Y-139347000D01*
X107846333Y-139389333D01*
X107804000Y-139474000D01*
X107804000Y-139601000D01*
X107846333Y-139685666D01*
X107888666Y-139728000D01*
X107973333Y-139770333D01*
X108227333Y-139770333D01*
X108312000Y-139728000D01*
X108354333Y-139685666D01*
X108396666Y-139601000D01*
X108396666Y-139474000D01*
X108396666Y-140151333D02*
X107804000Y-140151333D01*
X107888666Y-140151333D02*
X107846333Y-140193666D01*
X107804000Y-140278333D01*
X107804000Y-140405333D01*
X107846333Y-140490000D01*
X107931000Y-140532333D01*
X108396666Y-140532333D01*
X107931000Y-140532333D02*
X107846333Y-140574666D01*
X107804000Y-140659333D01*
X107804000Y-140786333D01*
X107846333Y-140871000D01*
X107931000Y-140913333D01*
X108396666Y-140913333D01*
D10*
X104164571Y-140212285D02*
X102664571Y-140212285D01*
X104164571Y-140926571D02*
X102664571Y-140926571D01*
X104164571Y-141783714D01*
X102664571Y-141783714D01*
X98935428Y-136195714D02*
X100435428Y-136195714D01*
X98935428Y-135481428D02*
X100435428Y-135481428D01*
X98935428Y-134624285D01*
X100435428Y-134624285D01*
D11*
X95296000Y-145739333D02*
X95296000Y-145400666D01*
X95592333Y-145612333D02*
X94830333Y-145612333D01*
X94745666Y-145570000D01*
X94703333Y-145485333D01*
X94703333Y-145400666D01*
X94703333Y-145104333D02*
X95296000Y-145104333D01*
X95592333Y-145104333D02*
X95550000Y-145146666D01*
X95507666Y-145104333D01*
X95550000Y-145062000D01*
X95592333Y-145104333D01*
X95507666Y-145104333D01*
X95296000Y-144681000D02*
X94703333Y-144681000D01*
X95211333Y-144681000D02*
X95253666Y-144638666D01*
X95296000Y-144554000D01*
X95296000Y-144427000D01*
X95253666Y-144342333D01*
X95169000Y-144300000D01*
X94703333Y-144300000D01*
X94703333Y-143876666D02*
X95592333Y-143876666D01*
X95042000Y-143792000D02*
X94703333Y-143538000D01*
X95296000Y-143538000D02*
X94957333Y-143876666D01*
X94745666Y-142818333D02*
X94703333Y-142903000D01*
X94703333Y-143072333D01*
X94745666Y-143157000D01*
X94830333Y-143199333D01*
X95169000Y-143199333D01*
X95253666Y-143157000D01*
X95296000Y-143072333D01*
X95296000Y-142903000D01*
X95253666Y-142818333D01*
X95169000Y-142776000D01*
X95084333Y-142776000D01*
X94999666Y-143199333D01*
X94703333Y-142395000D02*
X95296000Y-142395000D01*
X95126666Y-142395000D02*
X95211333Y-142352666D01*
X95253666Y-142310333D01*
X95296000Y-142225666D01*
X95296000Y-142141000D01*
X95296000Y-141844666D02*
X94407000Y-141844666D01*
X95253666Y-141844666D02*
X95296000Y-141760000D01*
X95296000Y-141590666D01*
X95253666Y-141506000D01*
X95211333Y-141463666D01*
X95126666Y-141421333D01*
X94872666Y-141421333D01*
X94788000Y-141463666D01*
X94745666Y-141506000D01*
X94703333Y-141590666D01*
X94703333Y-141760000D01*
X94745666Y-141844666D01*
X94703333Y-140913333D02*
X94745666Y-140998000D01*
X94830333Y-141040333D01*
X95592333Y-141040333D01*
X95296000Y-140193666D02*
X94703333Y-140193666D01*
X95296000Y-140574666D02*
X94830333Y-140574666D01*
X94745666Y-140532333D01*
X94703333Y-140447666D01*
X94703333Y-140320666D01*
X94745666Y-140236000D01*
X94788000Y-140193666D01*
X95296000Y-139770333D02*
X94703333Y-139770333D01*
X95211333Y-139770333D02*
X95253666Y-139728000D01*
X95296000Y-139643333D01*
X95296000Y-139516333D01*
X95253666Y-139431666D01*
X95169000Y-139389333D01*
X94703333Y-139389333D01*
X94703333Y-138966000D02*
X95592333Y-138966000D01*
X95042000Y-138881333D02*
X94703333Y-138627333D01*
X95296000Y-138627333D02*
X94957333Y-138966000D01*
X94788000Y-138246333D02*
X94745666Y-138204000D01*
X94703333Y-138246333D01*
X94745666Y-138288666D01*
X94788000Y-138246333D01*
X94703333Y-138246333D01*
X94745666Y-137442000D02*
X94703333Y-137526666D01*
X94703333Y-137696000D01*
X94745666Y-137780666D01*
X94788000Y-137823000D01*
X94872666Y-137865333D01*
X95126666Y-137865333D01*
X95211333Y-137823000D01*
X95253666Y-137780666D01*
X95296000Y-137696000D01*
X95296000Y-137526666D01*
X95253666Y-137442000D01*
X94703333Y-136934000D02*
X94745666Y-137018666D01*
X94788000Y-137061000D01*
X94872666Y-137103333D01*
X95126666Y-137103333D01*
X95211333Y-137061000D01*
X95253666Y-137018666D01*
X95296000Y-136934000D01*
X95296000Y-136807000D01*
X95253666Y-136722333D01*
X95211333Y-136680000D01*
X95126666Y-136637666D01*
X94872666Y-136637666D01*
X94788000Y-136680000D01*
X94745666Y-136722333D01*
X94703333Y-136807000D01*
X94703333Y-136934000D01*
X94703333Y-136256666D02*
X95296000Y-136256666D01*
X95211333Y-136256666D02*
X95253666Y-136214333D01*
X95296000Y-136129666D01*
X95296000Y-136002666D01*
X95253666Y-135918000D01*
X95169000Y-135875666D01*
X94703333Y-135875666D01*
X95169000Y-135875666D02*
X95253666Y-135833333D01*
X95296000Y-135748666D01*
X95296000Y-135621666D01*
X95253666Y-135537000D01*
X95169000Y-135494666D01*
X94703333Y-135494666D01*
X96036833Y-145337166D02*
X96925833Y-145337166D01*
X96079166Y-145337166D02*
X96036833Y-145421833D01*
X96036833Y-145591166D01*
X96079166Y-145675833D01*
X96121500Y-145718166D01*
X96206166Y-145760500D01*
X96460166Y-145760500D01*
X96544833Y-145718166D01*
X96587166Y-145675833D01*
X96629500Y-145591166D01*
X96629500Y-145421833D01*
X96587166Y-145337166D01*
X96036833Y-144913833D02*
X96925833Y-144913833D01*
X96587166Y-144913833D02*
X96629500Y-144829166D01*
X96629500Y-144659833D01*
X96587166Y-144575166D01*
X96544833Y-144532833D01*
X96460166Y-144490500D01*
X96206166Y-144490500D01*
X96121500Y-144532833D01*
X96079166Y-144575166D01*
X96036833Y-144659833D01*
X96036833Y-144829166D01*
X96079166Y-144913833D01*
X96375500Y-144109500D02*
X96375500Y-143432166D01*
X96079166Y-142670166D02*
X96036833Y-142754833D01*
X96036833Y-142924166D01*
X96079166Y-143008833D01*
X96163833Y-143051166D01*
X96502500Y-143051166D01*
X96587166Y-143008833D01*
X96629500Y-142924166D01*
X96629500Y-142754833D01*
X96587166Y-142670166D01*
X96502500Y-142627833D01*
X96417833Y-142627833D01*
X96333166Y-143051166D01*
X96036833Y-142119833D02*
X96079166Y-142204500D01*
X96163833Y-142246833D01*
X96925833Y-142246833D01*
X96079166Y-141442500D02*
X96036833Y-141527166D01*
X96036833Y-141696500D01*
X96079166Y-141781166D01*
X96163833Y-141823500D01*
X96502500Y-141823500D01*
X96587166Y-141781166D01*
X96629500Y-141696500D01*
X96629500Y-141527166D01*
X96587166Y-141442500D01*
X96502500Y-141400166D01*
X96417833Y-141400166D01*
X96333166Y-141823500D01*
X96079166Y-140638166D02*
X96036833Y-140722833D01*
X96036833Y-140892166D01*
X96079166Y-140976833D01*
X96121500Y-141019166D01*
X96206166Y-141061500D01*
X96460166Y-141061500D01*
X96544833Y-141019166D01*
X96587166Y-140976833D01*
X96629500Y-140892166D01*
X96629500Y-140722833D01*
X96587166Y-140638166D01*
X96629500Y-140384166D02*
X96629500Y-140045500D01*
X96925833Y-140257166D02*
X96163833Y-140257166D01*
X96079166Y-140214833D01*
X96036833Y-140130166D01*
X96036833Y-140045500D01*
X96036833Y-139749166D02*
X96629500Y-139749166D01*
X96460166Y-139749166D02*
X96544833Y-139706833D01*
X96587166Y-139664500D01*
X96629500Y-139579833D01*
X96629500Y-139495166D01*
X96036833Y-139071833D02*
X96079166Y-139156500D01*
X96121500Y-139198833D01*
X96206166Y-139241166D01*
X96460166Y-139241166D01*
X96544833Y-139198833D01*
X96587166Y-139156500D01*
X96629500Y-139071833D01*
X96629500Y-138944833D01*
X96587166Y-138860166D01*
X96544833Y-138817833D01*
X96460166Y-138775500D01*
X96206166Y-138775500D01*
X96121500Y-138817833D01*
X96079166Y-138860166D01*
X96036833Y-138944833D01*
X96036833Y-139071833D01*
X96629500Y-138394500D02*
X96036833Y-138394500D01*
X96544833Y-138394500D02*
X96587166Y-138352166D01*
X96629500Y-138267500D01*
X96629500Y-138140500D01*
X96587166Y-138055833D01*
X96502500Y-138013500D01*
X96036833Y-138013500D01*
X96036833Y-137590166D02*
X96629500Y-137590166D01*
X96925833Y-137590166D02*
X96883500Y-137632500D01*
X96841166Y-137590166D01*
X96883500Y-137547833D01*
X96925833Y-137590166D01*
X96841166Y-137590166D01*
X96079166Y-136785833D02*
X96036833Y-136870500D01*
X96036833Y-137039833D01*
X96079166Y-137124500D01*
X96121500Y-137166833D01*
X96206166Y-137209166D01*
X96460166Y-137209166D01*
X96544833Y-137166833D01*
X96587166Y-137124500D01*
X96629500Y-137039833D01*
X96629500Y-136870500D01*
X96587166Y-136785833D01*
X96079166Y-136447166D02*
X96036833Y-136362500D01*
X96036833Y-136193166D01*
X96079166Y-136108500D01*
X96163833Y-136066166D01*
X96206166Y-136066166D01*
X96290833Y-136108500D01*
X96333166Y-136193166D01*
X96333166Y-136320166D01*
X96375500Y-136404833D01*
X96460166Y-136447166D01*
X96502500Y-136447166D01*
X96587166Y-136404833D01*
X96629500Y-136320166D01*
X96629500Y-136193166D01*
X96587166Y-136108500D01*
X96121500Y-135685166D02*
X96079166Y-135642833D01*
X96036833Y-135685166D01*
X96079166Y-135727500D01*
X96121500Y-135685166D01*
X96036833Y-135685166D01*
X96079166Y-134880833D02*
X96036833Y-134965500D01*
X96036833Y-135134833D01*
X96079166Y-135219500D01*
X96121500Y-135261833D01*
X96206166Y-135304166D01*
X96460166Y-135304166D01*
X96544833Y-135261833D01*
X96587166Y-135219500D01*
X96629500Y-135134833D01*
X96629500Y-134965500D01*
X96587166Y-134880833D01*
X96036833Y-134118833D02*
X96502500Y-134118833D01*
X96587166Y-134161166D01*
X96629500Y-134245833D01*
X96629500Y-134415166D01*
X96587166Y-134499833D01*
X96079166Y-134118833D02*
X96036833Y-134203500D01*
X96036833Y-134415166D01*
X96079166Y-134499833D01*
X96163833Y-134542166D01*
X96248500Y-134542166D01*
X96333166Y-134499833D01*
X96375500Y-134415166D01*
X96375500Y-134203500D01*
X96417833Y-134118833D01*
M02*
