G04 #@! TF.GenerationSoftware,KiCad,Pcbnew,(5.1.0)-1*
G04 #@! TF.CreationDate,2019-05-31T01:19:27-04:00*
G04 #@! TF.ProjectId,10x-Input-10x-Output,3130782d-496e-4707-9574-2d3130782d4f,0.1*
G04 #@! TF.SameCoordinates,Original*
G04 #@! TF.FileFunction,Legend,Top*
G04 #@! TF.FilePolarity,Positive*
%FSLAX46Y46*%
G04 Gerber Fmt 4.6, Leading zero omitted, Abs format (unit mm)*
G04 Created by KiCad (PCBNEW (5.1.0)-1) date 2019-05-31 01:19:27*
%MOMM*%
%LPD*%
G04 APERTURE LIST*
%ADD10C,0.203200*%
%ADD11C,0.100000*%
%ADD12C,0.150000*%
G04 APERTURE END LIST*
D10*
X135947833Y-125428833D02*
X135947833Y-125005500D01*
X136836833Y-125005500D01*
X136286500Y-125725166D02*
X136286500Y-126402500D01*
X160305500Y-87371166D02*
X160263166Y-87455833D01*
X160263166Y-87582833D01*
X160305500Y-87709833D01*
X160390166Y-87794500D01*
X160474833Y-87836833D01*
X160644166Y-87879166D01*
X160771166Y-87879166D01*
X160940500Y-87836833D01*
X161025166Y-87794500D01*
X161109833Y-87709833D01*
X161152166Y-87582833D01*
X161152166Y-87498166D01*
X161109833Y-87371166D01*
X161067500Y-87328833D01*
X160771166Y-87328833D01*
X160771166Y-87498166D01*
X136794500Y-122236833D02*
X136836833Y-122152166D01*
X136836833Y-122025166D01*
X136794500Y-121898166D01*
X136709833Y-121813500D01*
X136625166Y-121771166D01*
X136455833Y-121728833D01*
X136328833Y-121728833D01*
X136159500Y-121771166D01*
X136074833Y-121813500D01*
X135990166Y-121898166D01*
X135947833Y-122025166D01*
X135947833Y-122109833D01*
X135990166Y-122236833D01*
X136032500Y-122279166D01*
X136328833Y-122279166D01*
X136328833Y-122109833D01*
X135947833Y-115228833D02*
X136371166Y-114932500D01*
X135947833Y-114720833D02*
X136836833Y-114720833D01*
X136836833Y-115059500D01*
X136794500Y-115144166D01*
X136752166Y-115186500D01*
X136667500Y-115228833D01*
X136540500Y-115228833D01*
X136455833Y-115186500D01*
X136413500Y-115144166D01*
X136371166Y-115059500D01*
X136371166Y-114720833D01*
X136286500Y-115609833D02*
X136286500Y-116287166D01*
X160305500Y-121771166D02*
X160263166Y-121855833D01*
X160263166Y-121982833D01*
X160305500Y-122109833D01*
X160390166Y-122194500D01*
X160474833Y-122236833D01*
X160644166Y-122279166D01*
X160771166Y-122279166D01*
X160940500Y-122236833D01*
X161025166Y-122194500D01*
X161109833Y-122109833D01*
X161152166Y-121982833D01*
X161152166Y-121898166D01*
X161109833Y-121771166D01*
X161067500Y-121728833D01*
X160771166Y-121728833D01*
X160771166Y-121898166D01*
X161152166Y-125279166D02*
X160728833Y-125575500D01*
X161152166Y-125787166D02*
X160263166Y-125787166D01*
X160263166Y-125448500D01*
X160305500Y-125363833D01*
X160347833Y-125321500D01*
X160432500Y-125279166D01*
X160559500Y-125279166D01*
X160644166Y-125321500D01*
X160686500Y-125363833D01*
X160728833Y-125448500D01*
X160728833Y-125787166D01*
X160813500Y-124898166D02*
X160813500Y-124220833D01*
X161152166Y-124559500D02*
X160474833Y-124559500D01*
X161152166Y-115279166D02*
X161152166Y-115702500D01*
X160263166Y-115702500D01*
X160813500Y-114982833D02*
X160813500Y-114305500D01*
X161152166Y-114644166D02*
X160474833Y-114644166D01*
X161152166Y-90879166D02*
X160728833Y-91175500D01*
X161152166Y-91387166D02*
X160263166Y-91387166D01*
X160263166Y-91048500D01*
X160305500Y-90963833D01*
X160347833Y-90921500D01*
X160432500Y-90879166D01*
X160559500Y-90879166D01*
X160644166Y-90921500D01*
X160686500Y-90963833D01*
X160728833Y-91048500D01*
X160728833Y-91387166D01*
X160813500Y-90498166D02*
X160813500Y-89820833D01*
X161152166Y-90159500D02*
X160474833Y-90159500D01*
X136794500Y-87836833D02*
X136836833Y-87752166D01*
X136836833Y-87625166D01*
X136794500Y-87498166D01*
X136709833Y-87413500D01*
X136625166Y-87371166D01*
X136455833Y-87328833D01*
X136328833Y-87328833D01*
X136159500Y-87371166D01*
X136074833Y-87413500D01*
X135990166Y-87498166D01*
X135947833Y-87625166D01*
X135947833Y-87709833D01*
X135990166Y-87836833D01*
X136032500Y-87879166D01*
X136328833Y-87879166D01*
X136328833Y-87709833D01*
X135947833Y-91028833D02*
X135947833Y-90605500D01*
X136836833Y-90605500D01*
X136286500Y-91325166D02*
X136286500Y-92002500D01*
X161152166Y-80879166D02*
X161152166Y-81302500D01*
X160263166Y-81302500D01*
X160813500Y-80582833D02*
X160813500Y-79905500D01*
X161152166Y-80244166D02*
X160474833Y-80244166D01*
X135947833Y-118728833D02*
X136371166Y-118432500D01*
X135947833Y-118220833D02*
X136836833Y-118220833D01*
X136836833Y-118559500D01*
X136794500Y-118644166D01*
X136752166Y-118686500D01*
X136667500Y-118728833D01*
X136540500Y-118728833D01*
X136455833Y-118686500D01*
X136413500Y-118644166D01*
X136371166Y-118559500D01*
X136371166Y-118220833D01*
X136286500Y-119109833D02*
X136286500Y-119787166D01*
X135947833Y-119448500D02*
X136625166Y-119448500D01*
X135947833Y-128728833D02*
X135947833Y-128305500D01*
X136836833Y-128305500D01*
X136286500Y-129025166D02*
X136286500Y-129702500D01*
X135947833Y-129363833D02*
X136625166Y-129363833D01*
X161152166Y-128779166D02*
X160728833Y-129075500D01*
X161152166Y-129287166D02*
X160263166Y-129287166D01*
X160263166Y-128948500D01*
X160305500Y-128863833D01*
X160347833Y-128821500D01*
X160432500Y-128779166D01*
X160559500Y-128779166D01*
X160644166Y-128821500D01*
X160686500Y-128863833D01*
X160728833Y-128948500D01*
X160728833Y-129287166D01*
X160813500Y-128398166D02*
X160813500Y-127720833D01*
X161152166Y-118579166D02*
X161152166Y-119002500D01*
X160263166Y-119002500D01*
X160813500Y-118282833D02*
X160813500Y-117605500D01*
X135947833Y-80828833D02*
X136371166Y-80532500D01*
X135947833Y-80320833D02*
X136836833Y-80320833D01*
X136836833Y-80659500D01*
X136794500Y-80744166D01*
X136752166Y-80786500D01*
X136667500Y-80828833D01*
X136540500Y-80828833D01*
X136455833Y-80786500D01*
X136413500Y-80744166D01*
X136371166Y-80659500D01*
X136371166Y-80320833D01*
X136286500Y-81209833D02*
X136286500Y-81887166D01*
X136794500Y-138436833D02*
X136836833Y-138352166D01*
X136836833Y-138225166D01*
X136794500Y-138098166D01*
X136709833Y-138013500D01*
X136625166Y-137971166D01*
X136455833Y-137928833D01*
X136328833Y-137928833D01*
X136159500Y-137971166D01*
X136074833Y-138013500D01*
X135990166Y-138098166D01*
X135947833Y-138225166D01*
X135947833Y-138309833D01*
X135990166Y-138436833D01*
X136032500Y-138479166D01*
X136328833Y-138479166D01*
X136328833Y-138309833D01*
X160305500Y-105571166D02*
X160263166Y-105655833D01*
X160263166Y-105782833D01*
X160305500Y-105909833D01*
X160390166Y-105994500D01*
X160474833Y-106036833D01*
X160644166Y-106079166D01*
X160771166Y-106079166D01*
X160940500Y-106036833D01*
X161025166Y-105994500D01*
X161109833Y-105909833D01*
X161152166Y-105782833D01*
X161152166Y-105698166D01*
X161109833Y-105571166D01*
X161067500Y-105528833D01*
X160771166Y-105528833D01*
X160771166Y-105698166D01*
X135947833Y-144928833D02*
X135947833Y-144505500D01*
X136836833Y-144505500D01*
X136286500Y-145225166D02*
X136286500Y-145902500D01*
X135947833Y-145563833D02*
X136625166Y-145563833D01*
X135947833Y-84328833D02*
X136371166Y-84032500D01*
X135947833Y-83820833D02*
X136836833Y-83820833D01*
X136836833Y-84159500D01*
X136794500Y-84244166D01*
X136752166Y-84286500D01*
X136667500Y-84328833D01*
X136540500Y-84328833D01*
X136455833Y-84286500D01*
X136413500Y-84244166D01*
X136371166Y-84159500D01*
X136371166Y-83820833D01*
X136286500Y-84709833D02*
X136286500Y-85387166D01*
X135947833Y-85048500D02*
X136625166Y-85048500D01*
X135947833Y-94328833D02*
X135947833Y-93905500D01*
X136836833Y-93905500D01*
X136286500Y-94625166D02*
X136286500Y-95302500D01*
X135947833Y-94963833D02*
X136625166Y-94963833D01*
X161152166Y-94379166D02*
X160728833Y-94675500D01*
X161152166Y-94887166D02*
X160263166Y-94887166D01*
X160263166Y-94548500D01*
X160305500Y-94463833D01*
X160347833Y-94421500D01*
X160432500Y-94379166D01*
X160559500Y-94379166D01*
X160644166Y-94421500D01*
X160686500Y-94463833D01*
X160728833Y-94548500D01*
X160728833Y-94887166D01*
X160813500Y-93998166D02*
X160813500Y-93320833D01*
X161152166Y-84179166D02*
X161152166Y-84602500D01*
X160263166Y-84602500D01*
X160813500Y-83882833D02*
X160813500Y-83205500D01*
X135947833Y-99028833D02*
X136371166Y-98732500D01*
X135947833Y-98520833D02*
X136836833Y-98520833D01*
X136836833Y-98859500D01*
X136794500Y-98944166D01*
X136752166Y-98986500D01*
X136667500Y-99028833D01*
X136540500Y-99028833D01*
X136455833Y-98986500D01*
X136413500Y-98944166D01*
X136371166Y-98859500D01*
X136371166Y-98520833D01*
X136286500Y-99409833D02*
X136286500Y-100087166D01*
X135947833Y-141628833D02*
X135947833Y-141205500D01*
X136836833Y-141205500D01*
X136286500Y-141925166D02*
X136286500Y-142602500D01*
X161152166Y-109079166D02*
X160728833Y-109375500D01*
X161152166Y-109587166D02*
X160263166Y-109587166D01*
X160263166Y-109248500D01*
X160305500Y-109163833D01*
X160347833Y-109121500D01*
X160432500Y-109079166D01*
X160559500Y-109079166D01*
X160644166Y-109121500D01*
X160686500Y-109163833D01*
X160728833Y-109248500D01*
X160728833Y-109587166D01*
X160813500Y-108698166D02*
X160813500Y-108020833D01*
X161152166Y-108359500D02*
X160474833Y-108359500D01*
X136794500Y-106036833D02*
X136836833Y-105952166D01*
X136836833Y-105825166D01*
X136794500Y-105698166D01*
X136709833Y-105613500D01*
X136625166Y-105571166D01*
X136455833Y-105528833D01*
X136328833Y-105528833D01*
X136159500Y-105571166D01*
X136074833Y-105613500D01*
X135990166Y-105698166D01*
X135947833Y-105825166D01*
X135947833Y-105909833D01*
X135990166Y-106036833D01*
X136032500Y-106079166D01*
X136328833Y-106079166D01*
X136328833Y-105909833D01*
X135947833Y-112528833D02*
X135947833Y-112105500D01*
X136836833Y-112105500D01*
X136286500Y-112825166D02*
X136286500Y-113502500D01*
X135947833Y-113163833D02*
X136625166Y-113163833D01*
X161152166Y-99079166D02*
X161152166Y-99502500D01*
X160263166Y-99502500D01*
X160813500Y-98782833D02*
X160813500Y-98105500D01*
X161152166Y-98444166D02*
X160474833Y-98444166D01*
X135947833Y-109228833D02*
X135947833Y-108805500D01*
X136836833Y-108805500D01*
X136286500Y-109525166D02*
X136286500Y-110202500D01*
X161152166Y-112579166D02*
X160728833Y-112875500D01*
X161152166Y-113087166D02*
X160263166Y-113087166D01*
X160263166Y-112748500D01*
X160305500Y-112663833D01*
X160347833Y-112621500D01*
X160432500Y-112579166D01*
X160559500Y-112579166D01*
X160644166Y-112621500D01*
X160686500Y-112663833D01*
X160728833Y-112748500D01*
X160728833Y-113087166D01*
X160813500Y-112198166D02*
X160813500Y-111520833D01*
X135947833Y-134928833D02*
X136371166Y-134632500D01*
X135947833Y-134420833D02*
X136836833Y-134420833D01*
X136836833Y-134759500D01*
X136794500Y-134844166D01*
X136752166Y-134886500D01*
X136667500Y-134928833D01*
X136540500Y-134928833D01*
X136455833Y-134886500D01*
X136413500Y-134844166D01*
X136371166Y-134759500D01*
X136371166Y-134420833D01*
X136286500Y-135309833D02*
X136286500Y-135987166D01*
X135947833Y-135648500D02*
X136625166Y-135648500D01*
X135947833Y-102528833D02*
X136371166Y-102232500D01*
X135947833Y-102020833D02*
X136836833Y-102020833D01*
X136836833Y-102359500D01*
X136794500Y-102444166D01*
X136752166Y-102486500D01*
X136667500Y-102528833D01*
X136540500Y-102528833D01*
X136455833Y-102486500D01*
X136413500Y-102444166D01*
X136371166Y-102359500D01*
X136371166Y-102020833D01*
X136286500Y-102909833D02*
X136286500Y-103587166D01*
X135947833Y-103248500D02*
X136625166Y-103248500D01*
X161152166Y-102379166D02*
X161152166Y-102802500D01*
X160263166Y-102802500D01*
X160813500Y-102082833D02*
X160813500Y-101405500D01*
X135947833Y-131428833D02*
X136371166Y-131132500D01*
X135947833Y-130920833D02*
X136836833Y-130920833D01*
X136836833Y-131259500D01*
X136794500Y-131344166D01*
X136752166Y-131386500D01*
X136667500Y-131428833D01*
X136540500Y-131428833D01*
X136455833Y-131386500D01*
X136413500Y-131344166D01*
X136371166Y-131259500D01*
X136371166Y-130920833D01*
X136286500Y-131809833D02*
X136286500Y-132487166D01*
X135947833Y-74828833D02*
X135947833Y-74405500D01*
X136836833Y-74405500D01*
X136286500Y-75125166D02*
X136286500Y-75802500D01*
X161152166Y-67979166D02*
X161152166Y-68402500D01*
X160263166Y-68402500D01*
X160813500Y-67682833D02*
X160813500Y-67005500D01*
X160305500Y-71171166D02*
X160263166Y-71255833D01*
X160263166Y-71382833D01*
X160305500Y-71509833D01*
X160390166Y-71594500D01*
X160474833Y-71636833D01*
X160644166Y-71679166D01*
X160771166Y-71679166D01*
X160940500Y-71636833D01*
X161025166Y-71594500D01*
X161109833Y-71509833D01*
X161152166Y-71382833D01*
X161152166Y-71298166D01*
X161109833Y-71171166D01*
X161067500Y-71128833D01*
X160771166Y-71128833D01*
X160771166Y-71298166D01*
X135947833Y-68128833D02*
X136371166Y-67832500D01*
X135947833Y-67620833D02*
X136836833Y-67620833D01*
X136836833Y-67959500D01*
X136794500Y-68044166D01*
X136752166Y-68086500D01*
X136667500Y-68128833D01*
X136540500Y-68128833D01*
X136455833Y-68086500D01*
X136413500Y-68044166D01*
X136371166Y-67959500D01*
X136371166Y-67620833D01*
X136286500Y-68509833D02*
X136286500Y-69187166D01*
X135947833Y-68848500D02*
X136625166Y-68848500D01*
X161152166Y-74679166D02*
X160728833Y-74975500D01*
X161152166Y-75187166D02*
X160263166Y-75187166D01*
X160263166Y-74848500D01*
X160305500Y-74763833D01*
X160347833Y-74721500D01*
X160432500Y-74679166D01*
X160559500Y-74679166D01*
X160644166Y-74721500D01*
X160686500Y-74763833D01*
X160728833Y-74848500D01*
X160728833Y-75187166D01*
X160813500Y-74298166D02*
X160813500Y-73620833D01*
X161152166Y-73959500D02*
X160474833Y-73959500D01*
X135947833Y-64628833D02*
X136371166Y-64332500D01*
X135947833Y-64120833D02*
X136836833Y-64120833D01*
X136836833Y-64459500D01*
X136794500Y-64544166D01*
X136752166Y-64586500D01*
X136667500Y-64628833D01*
X136540500Y-64628833D01*
X136455833Y-64586500D01*
X136413500Y-64544166D01*
X136371166Y-64459500D01*
X136371166Y-64120833D01*
X136286500Y-65009833D02*
X136286500Y-65687166D01*
X161152166Y-64679166D02*
X161152166Y-65102500D01*
X160263166Y-65102500D01*
X160813500Y-64382833D02*
X160813500Y-63705500D01*
X161152166Y-64044166D02*
X160474833Y-64044166D01*
X161152166Y-78179166D02*
X160728833Y-78475500D01*
X161152166Y-78687166D02*
X160263166Y-78687166D01*
X160263166Y-78348500D01*
X160305500Y-78263833D01*
X160347833Y-78221500D01*
X160432500Y-78179166D01*
X160559500Y-78179166D01*
X160644166Y-78221500D01*
X160686500Y-78263833D01*
X160728833Y-78348500D01*
X160728833Y-78687166D01*
X160813500Y-77798166D02*
X160813500Y-77120833D01*
X136794500Y-71636833D02*
X136836833Y-71552166D01*
X136836833Y-71425166D01*
X136794500Y-71298166D01*
X136709833Y-71213500D01*
X136625166Y-71171166D01*
X136455833Y-71128833D01*
X136328833Y-71128833D01*
X136159500Y-71171166D01*
X136074833Y-71213500D01*
X135990166Y-71298166D01*
X135947833Y-71425166D01*
X135947833Y-71509833D01*
X135990166Y-71636833D01*
X136032500Y-71679166D01*
X136328833Y-71679166D01*
X136328833Y-71509833D01*
X135947833Y-78128833D02*
X135947833Y-77705500D01*
X136836833Y-77705500D01*
X136286500Y-78425166D02*
X136286500Y-79102500D01*
X135947833Y-78763833D02*
X136625166Y-78763833D01*
X161152166Y-141479166D02*
X160728833Y-141775500D01*
X161152166Y-141987166D02*
X160263166Y-141987166D01*
X160263166Y-141648500D01*
X160305500Y-141563833D01*
X160347833Y-141521500D01*
X160432500Y-141479166D01*
X160559500Y-141479166D01*
X160644166Y-141521500D01*
X160686500Y-141563833D01*
X160728833Y-141648500D01*
X160728833Y-141987166D01*
X160813500Y-141098166D02*
X160813500Y-140420833D01*
X161152166Y-140759500D02*
X160474833Y-140759500D01*
X161152166Y-144979166D02*
X160728833Y-145275500D01*
X161152166Y-145487166D02*
X160263166Y-145487166D01*
X160263166Y-145148500D01*
X160305500Y-145063833D01*
X160347833Y-145021500D01*
X160432500Y-144979166D01*
X160559500Y-144979166D01*
X160644166Y-145021500D01*
X160686500Y-145063833D01*
X160728833Y-145148500D01*
X160728833Y-145487166D01*
X160813500Y-144598166D02*
X160813500Y-143920833D01*
X161152166Y-134779166D02*
X161152166Y-135202500D01*
X160263166Y-135202500D01*
X160813500Y-134482833D02*
X160813500Y-133805500D01*
X161152166Y-131479166D02*
X161152166Y-131902500D01*
X160263166Y-131902500D01*
X160813500Y-131182833D02*
X160813500Y-130505500D01*
X161152166Y-130844166D02*
X160474833Y-130844166D01*
X160305500Y-137971166D02*
X160263166Y-138055833D01*
X160263166Y-138182833D01*
X160305500Y-138309833D01*
X160390166Y-138394500D01*
X160474833Y-138436833D01*
X160644166Y-138479166D01*
X160771166Y-138479166D01*
X160940500Y-138436833D01*
X161025166Y-138394500D01*
X161109833Y-138309833D01*
X161152166Y-138182833D01*
X161152166Y-138098166D01*
X161109833Y-137971166D01*
X161067500Y-137928833D01*
X160771166Y-137928833D01*
X160771166Y-138098166D01*
X89794500Y-71636833D02*
X89836833Y-71552166D01*
X89836833Y-71425166D01*
X89794500Y-71298166D01*
X89709833Y-71213500D01*
X89625166Y-71171166D01*
X89455833Y-71128833D01*
X89328833Y-71128833D01*
X89159500Y-71171166D01*
X89074833Y-71213500D01*
X88990166Y-71298166D01*
X88947833Y-71425166D01*
X88947833Y-71509833D01*
X88990166Y-71636833D01*
X89032500Y-71679166D01*
X89328833Y-71679166D01*
X89328833Y-71509833D01*
X88947833Y-78128833D02*
X88947833Y-77705500D01*
X89836833Y-77705500D01*
X89286500Y-78425166D02*
X89286500Y-79102500D01*
X88947833Y-78763833D02*
X89625166Y-78763833D01*
X88947833Y-74828833D02*
X88947833Y-74405500D01*
X89836833Y-74405500D01*
X89286500Y-75125166D02*
X89286500Y-75802500D01*
X88947833Y-68128833D02*
X89371166Y-67832500D01*
X88947833Y-67620833D02*
X89836833Y-67620833D01*
X89836833Y-67959500D01*
X89794500Y-68044166D01*
X89752166Y-68086500D01*
X89667500Y-68128833D01*
X89540500Y-68128833D01*
X89455833Y-68086500D01*
X89413500Y-68044166D01*
X89371166Y-67959500D01*
X89371166Y-67620833D01*
X89286500Y-68509833D02*
X89286500Y-69187166D01*
X88947833Y-68848500D02*
X89625166Y-68848500D01*
X88947833Y-64628833D02*
X89371166Y-64332500D01*
X88947833Y-64120833D02*
X89836833Y-64120833D01*
X89836833Y-64459500D01*
X89794500Y-64544166D01*
X89752166Y-64586500D01*
X89667500Y-64628833D01*
X89540500Y-64628833D01*
X89455833Y-64586500D01*
X89413500Y-64544166D01*
X89371166Y-64459500D01*
X89371166Y-64120833D01*
X89286500Y-65009833D02*
X89286500Y-65687166D01*
X114152166Y-74679166D02*
X113728833Y-74975500D01*
X114152166Y-75187166D02*
X113263166Y-75187166D01*
X113263166Y-74848500D01*
X113305500Y-74763833D01*
X113347833Y-74721500D01*
X113432500Y-74679166D01*
X113559500Y-74679166D01*
X113644166Y-74721500D01*
X113686500Y-74763833D01*
X113728833Y-74848500D01*
X113728833Y-75187166D01*
X113813500Y-74298166D02*
X113813500Y-73620833D01*
X114152166Y-73959500D02*
X113474833Y-73959500D01*
X114152166Y-78179166D02*
X113728833Y-78475500D01*
X114152166Y-78687166D02*
X113263166Y-78687166D01*
X113263166Y-78348500D01*
X113305500Y-78263833D01*
X113347833Y-78221500D01*
X113432500Y-78179166D01*
X113559500Y-78179166D01*
X113644166Y-78221500D01*
X113686500Y-78263833D01*
X113728833Y-78348500D01*
X113728833Y-78687166D01*
X113813500Y-77798166D02*
X113813500Y-77120833D01*
X114152166Y-67979166D02*
X114152166Y-68402500D01*
X113263166Y-68402500D01*
X113813500Y-67682833D02*
X113813500Y-67005500D01*
X114152166Y-64679166D02*
X114152166Y-65102500D01*
X113263166Y-65102500D01*
X113813500Y-64382833D02*
X113813500Y-63705500D01*
X114152166Y-64044166D02*
X113474833Y-64044166D01*
X113305500Y-71171166D02*
X113263166Y-71255833D01*
X113263166Y-71382833D01*
X113305500Y-71509833D01*
X113390166Y-71594500D01*
X113474833Y-71636833D01*
X113644166Y-71679166D01*
X113771166Y-71679166D01*
X113940500Y-71636833D01*
X114025166Y-71594500D01*
X114109833Y-71509833D01*
X114152166Y-71382833D01*
X114152166Y-71298166D01*
X114109833Y-71171166D01*
X114067500Y-71128833D01*
X113771166Y-71128833D01*
X113771166Y-71298166D01*
X88947833Y-91028833D02*
X88947833Y-90605500D01*
X89836833Y-90605500D01*
X89286500Y-91325166D02*
X89286500Y-92002500D01*
X89794500Y-87836833D02*
X89836833Y-87752166D01*
X89836833Y-87625166D01*
X89794500Y-87498166D01*
X89709833Y-87413500D01*
X89625166Y-87371166D01*
X89455833Y-87328833D01*
X89328833Y-87328833D01*
X89159500Y-87371166D01*
X89074833Y-87413500D01*
X88990166Y-87498166D01*
X88947833Y-87625166D01*
X88947833Y-87709833D01*
X88990166Y-87836833D01*
X89032500Y-87879166D01*
X89328833Y-87879166D01*
X89328833Y-87709833D01*
X88947833Y-80828833D02*
X89371166Y-80532500D01*
X88947833Y-80320833D02*
X89836833Y-80320833D01*
X89836833Y-80659500D01*
X89794500Y-80744166D01*
X89752166Y-80786500D01*
X89667500Y-80828833D01*
X89540500Y-80828833D01*
X89455833Y-80786500D01*
X89413500Y-80744166D01*
X89371166Y-80659500D01*
X89371166Y-80320833D01*
X89286500Y-81209833D02*
X89286500Y-81887166D01*
X113305500Y-87371166D02*
X113263166Y-87455833D01*
X113263166Y-87582833D01*
X113305500Y-87709833D01*
X113390166Y-87794500D01*
X113474833Y-87836833D01*
X113644166Y-87879166D01*
X113771166Y-87879166D01*
X113940500Y-87836833D01*
X114025166Y-87794500D01*
X114109833Y-87709833D01*
X114152166Y-87582833D01*
X114152166Y-87498166D01*
X114109833Y-87371166D01*
X114067500Y-87328833D01*
X113771166Y-87328833D01*
X113771166Y-87498166D01*
X114152166Y-90879166D02*
X113728833Y-91175500D01*
X114152166Y-91387166D02*
X113263166Y-91387166D01*
X113263166Y-91048500D01*
X113305500Y-90963833D01*
X113347833Y-90921500D01*
X113432500Y-90879166D01*
X113559500Y-90879166D01*
X113644166Y-90921500D01*
X113686500Y-90963833D01*
X113728833Y-91048500D01*
X113728833Y-91387166D01*
X113813500Y-90498166D02*
X113813500Y-89820833D01*
X114152166Y-90159500D02*
X113474833Y-90159500D01*
X114152166Y-80879166D02*
X114152166Y-81302500D01*
X113263166Y-81302500D01*
X113813500Y-80582833D02*
X113813500Y-79905500D01*
X114152166Y-80244166D02*
X113474833Y-80244166D01*
X88947833Y-84328833D02*
X89371166Y-84032500D01*
X88947833Y-83820833D02*
X89836833Y-83820833D01*
X89836833Y-84159500D01*
X89794500Y-84244166D01*
X89752166Y-84286500D01*
X89667500Y-84328833D01*
X89540500Y-84328833D01*
X89455833Y-84286500D01*
X89413500Y-84244166D01*
X89371166Y-84159500D01*
X89371166Y-83820833D01*
X89286500Y-84709833D02*
X89286500Y-85387166D01*
X88947833Y-85048500D02*
X89625166Y-85048500D01*
X88947833Y-94328833D02*
X88947833Y-93905500D01*
X89836833Y-93905500D01*
X89286500Y-94625166D02*
X89286500Y-95302500D01*
X88947833Y-94963833D02*
X89625166Y-94963833D01*
X114152166Y-94379166D02*
X113728833Y-94675500D01*
X114152166Y-94887166D02*
X113263166Y-94887166D01*
X113263166Y-94548500D01*
X113305500Y-94463833D01*
X113347833Y-94421500D01*
X113432500Y-94379166D01*
X113559500Y-94379166D01*
X113644166Y-94421500D01*
X113686500Y-94463833D01*
X113728833Y-94548500D01*
X113728833Y-94887166D01*
X113813500Y-93998166D02*
X113813500Y-93320833D01*
X114152166Y-84179166D02*
X114152166Y-84602500D01*
X113263166Y-84602500D01*
X113813500Y-83882833D02*
X113813500Y-83205500D01*
X89794500Y-106036833D02*
X89836833Y-105952166D01*
X89836833Y-105825166D01*
X89794500Y-105698166D01*
X89709833Y-105613500D01*
X89625166Y-105571166D01*
X89455833Y-105528833D01*
X89328833Y-105528833D01*
X89159500Y-105571166D01*
X89074833Y-105613500D01*
X88990166Y-105698166D01*
X88947833Y-105825166D01*
X88947833Y-105909833D01*
X88990166Y-106036833D01*
X89032500Y-106079166D01*
X89328833Y-106079166D01*
X89328833Y-105909833D01*
X88947833Y-112528833D02*
X88947833Y-112105500D01*
X89836833Y-112105500D01*
X89286500Y-112825166D02*
X89286500Y-113502500D01*
X88947833Y-113163833D02*
X89625166Y-113163833D01*
X88947833Y-109228833D02*
X88947833Y-108805500D01*
X89836833Y-108805500D01*
X89286500Y-109525166D02*
X89286500Y-110202500D01*
X88947833Y-102528833D02*
X89371166Y-102232500D01*
X88947833Y-102020833D02*
X89836833Y-102020833D01*
X89836833Y-102359500D01*
X89794500Y-102444166D01*
X89752166Y-102486500D01*
X89667500Y-102528833D01*
X89540500Y-102528833D01*
X89455833Y-102486500D01*
X89413500Y-102444166D01*
X89371166Y-102359500D01*
X89371166Y-102020833D01*
X89286500Y-102909833D02*
X89286500Y-103587166D01*
X88947833Y-103248500D02*
X89625166Y-103248500D01*
X88947833Y-99028833D02*
X89371166Y-98732500D01*
X88947833Y-98520833D02*
X89836833Y-98520833D01*
X89836833Y-98859500D01*
X89794500Y-98944166D01*
X89752166Y-98986500D01*
X89667500Y-99028833D01*
X89540500Y-99028833D01*
X89455833Y-98986500D01*
X89413500Y-98944166D01*
X89371166Y-98859500D01*
X89371166Y-98520833D01*
X89286500Y-99409833D02*
X89286500Y-100087166D01*
X114152166Y-109079166D02*
X113728833Y-109375500D01*
X114152166Y-109587166D02*
X113263166Y-109587166D01*
X113263166Y-109248500D01*
X113305500Y-109163833D01*
X113347833Y-109121500D01*
X113432500Y-109079166D01*
X113559500Y-109079166D01*
X113644166Y-109121500D01*
X113686500Y-109163833D01*
X113728833Y-109248500D01*
X113728833Y-109587166D01*
X113813500Y-108698166D02*
X113813500Y-108020833D01*
X114152166Y-108359500D02*
X113474833Y-108359500D01*
X114152166Y-112579166D02*
X113728833Y-112875500D01*
X114152166Y-113087166D02*
X113263166Y-113087166D01*
X113263166Y-112748500D01*
X113305500Y-112663833D01*
X113347833Y-112621500D01*
X113432500Y-112579166D01*
X113559500Y-112579166D01*
X113644166Y-112621500D01*
X113686500Y-112663833D01*
X113728833Y-112748500D01*
X113728833Y-113087166D01*
X113813500Y-112198166D02*
X113813500Y-111520833D01*
X114152166Y-102379166D02*
X114152166Y-102802500D01*
X113263166Y-102802500D01*
X113813500Y-102082833D02*
X113813500Y-101405500D01*
X114152166Y-99079166D02*
X114152166Y-99502500D01*
X113263166Y-99502500D01*
X113813500Y-98782833D02*
X113813500Y-98105500D01*
X114152166Y-98444166D02*
X113474833Y-98444166D01*
X113305500Y-105571166D02*
X113263166Y-105655833D01*
X113263166Y-105782833D01*
X113305500Y-105909833D01*
X113390166Y-105994500D01*
X113474833Y-106036833D01*
X113644166Y-106079166D01*
X113771166Y-106079166D01*
X113940500Y-106036833D01*
X114025166Y-105994500D01*
X114109833Y-105909833D01*
X114152166Y-105782833D01*
X114152166Y-105698166D01*
X114109833Y-105571166D01*
X114067500Y-105528833D01*
X113771166Y-105528833D01*
X113771166Y-105698166D01*
X89794500Y-122236833D02*
X89836833Y-122152166D01*
X89836833Y-122025166D01*
X89794500Y-121898166D01*
X89709833Y-121813500D01*
X89625166Y-121771166D01*
X89455833Y-121728833D01*
X89328833Y-121728833D01*
X89159500Y-121771166D01*
X89074833Y-121813500D01*
X88990166Y-121898166D01*
X88947833Y-122025166D01*
X88947833Y-122109833D01*
X88990166Y-122236833D01*
X89032500Y-122279166D01*
X89328833Y-122279166D01*
X89328833Y-122109833D01*
X88947833Y-128728833D02*
X88947833Y-128305500D01*
X89836833Y-128305500D01*
X89286500Y-129025166D02*
X89286500Y-129702500D01*
X88947833Y-129363833D02*
X89625166Y-129363833D01*
X88947833Y-125428833D02*
X88947833Y-125005500D01*
X89836833Y-125005500D01*
X89286500Y-125725166D02*
X89286500Y-126402500D01*
X88947833Y-118728833D02*
X89371166Y-118432500D01*
X88947833Y-118220833D02*
X89836833Y-118220833D01*
X89836833Y-118559500D01*
X89794500Y-118644166D01*
X89752166Y-118686500D01*
X89667500Y-118728833D01*
X89540500Y-118728833D01*
X89455833Y-118686500D01*
X89413500Y-118644166D01*
X89371166Y-118559500D01*
X89371166Y-118220833D01*
X89286500Y-119109833D02*
X89286500Y-119787166D01*
X88947833Y-119448500D02*
X89625166Y-119448500D01*
X88947833Y-115228833D02*
X89371166Y-114932500D01*
X88947833Y-114720833D02*
X89836833Y-114720833D01*
X89836833Y-115059500D01*
X89794500Y-115144166D01*
X89752166Y-115186500D01*
X89667500Y-115228833D01*
X89540500Y-115228833D01*
X89455833Y-115186500D01*
X89413500Y-115144166D01*
X89371166Y-115059500D01*
X89371166Y-114720833D01*
X89286500Y-115609833D02*
X89286500Y-116287166D01*
X114152166Y-125279166D02*
X113728833Y-125575500D01*
X114152166Y-125787166D02*
X113263166Y-125787166D01*
X113263166Y-125448500D01*
X113305500Y-125363833D01*
X113347833Y-125321500D01*
X113432500Y-125279166D01*
X113559500Y-125279166D01*
X113644166Y-125321500D01*
X113686500Y-125363833D01*
X113728833Y-125448500D01*
X113728833Y-125787166D01*
X113813500Y-124898166D02*
X113813500Y-124220833D01*
X114152166Y-124559500D02*
X113474833Y-124559500D01*
X114152166Y-128779166D02*
X113728833Y-129075500D01*
X114152166Y-129287166D02*
X113263166Y-129287166D01*
X113263166Y-128948500D01*
X113305500Y-128863833D01*
X113347833Y-128821500D01*
X113432500Y-128779166D01*
X113559500Y-128779166D01*
X113644166Y-128821500D01*
X113686500Y-128863833D01*
X113728833Y-128948500D01*
X113728833Y-129287166D01*
X113813500Y-128398166D02*
X113813500Y-127720833D01*
X114152166Y-118579166D02*
X114152166Y-119002500D01*
X113263166Y-119002500D01*
X113813500Y-118282833D02*
X113813500Y-117605500D01*
X114152166Y-115279166D02*
X114152166Y-115702500D01*
X113263166Y-115702500D01*
X113813500Y-114982833D02*
X113813500Y-114305500D01*
X114152166Y-114644166D02*
X113474833Y-114644166D01*
X113305500Y-121771166D02*
X113263166Y-121855833D01*
X113263166Y-121982833D01*
X113305500Y-122109833D01*
X113390166Y-122194500D01*
X113474833Y-122236833D01*
X113644166Y-122279166D01*
X113771166Y-122279166D01*
X113940500Y-122236833D01*
X114025166Y-122194500D01*
X114109833Y-122109833D01*
X114152166Y-121982833D01*
X114152166Y-121898166D01*
X114109833Y-121771166D01*
X114067500Y-121728833D01*
X113771166Y-121728833D01*
X113771166Y-121898166D01*
X113305500Y-137971166D02*
X113263166Y-138055833D01*
X113263166Y-138182833D01*
X113305500Y-138309833D01*
X113390166Y-138394500D01*
X113474833Y-138436833D01*
X113644166Y-138479166D01*
X113771166Y-138479166D01*
X113940500Y-138436833D01*
X114025166Y-138394500D01*
X114109833Y-138309833D01*
X114152166Y-138182833D01*
X114152166Y-138098166D01*
X114109833Y-137971166D01*
X114067500Y-137928833D01*
X113771166Y-137928833D01*
X113771166Y-138098166D01*
X114152166Y-131479166D02*
X114152166Y-131902500D01*
X113263166Y-131902500D01*
X113813500Y-131182833D02*
X113813500Y-130505500D01*
X114152166Y-130844166D02*
X113474833Y-130844166D01*
X114152166Y-134779166D02*
X114152166Y-135202500D01*
X113263166Y-135202500D01*
X113813500Y-134482833D02*
X113813500Y-133805500D01*
X114152166Y-141479166D02*
X113728833Y-141775500D01*
X114152166Y-141987166D02*
X113263166Y-141987166D01*
X113263166Y-141648500D01*
X113305500Y-141563833D01*
X113347833Y-141521500D01*
X113432500Y-141479166D01*
X113559500Y-141479166D01*
X113644166Y-141521500D01*
X113686500Y-141563833D01*
X113728833Y-141648500D01*
X113728833Y-141987166D01*
X113813500Y-141098166D02*
X113813500Y-140420833D01*
X114152166Y-140759500D02*
X113474833Y-140759500D01*
X114152166Y-144979166D02*
X113728833Y-145275500D01*
X114152166Y-145487166D02*
X113263166Y-145487166D01*
X113263166Y-145148500D01*
X113305500Y-145063833D01*
X113347833Y-145021500D01*
X113432500Y-144979166D01*
X113559500Y-144979166D01*
X113644166Y-145021500D01*
X113686500Y-145063833D01*
X113728833Y-145148500D01*
X113728833Y-145487166D01*
X113813500Y-144598166D02*
X113813500Y-143920833D01*
X88947833Y-144928833D02*
X88947833Y-144505500D01*
X89836833Y-144505500D01*
X89286500Y-145225166D02*
X89286500Y-145902500D01*
X88947833Y-145563833D02*
X89625166Y-145563833D01*
X88947833Y-141628833D02*
X88947833Y-141205500D01*
X89836833Y-141205500D01*
X89286500Y-141925166D02*
X89286500Y-142602500D01*
X89794500Y-138436833D02*
X89836833Y-138352166D01*
X89836833Y-138225166D01*
X89794500Y-138098166D01*
X89709833Y-138013500D01*
X89625166Y-137971166D01*
X89455833Y-137928833D01*
X89328833Y-137928833D01*
X89159500Y-137971166D01*
X89074833Y-138013500D01*
X88990166Y-138098166D01*
X88947833Y-138225166D01*
X88947833Y-138309833D01*
X88990166Y-138436833D01*
X89032500Y-138479166D01*
X89328833Y-138479166D01*
X89328833Y-138309833D01*
X88947833Y-134928833D02*
X89371166Y-134632500D01*
X88947833Y-134420833D02*
X89836833Y-134420833D01*
X89836833Y-134759500D01*
X89794500Y-134844166D01*
X89752166Y-134886500D01*
X89667500Y-134928833D01*
X89540500Y-134928833D01*
X89455833Y-134886500D01*
X89413500Y-134844166D01*
X89371166Y-134759500D01*
X89371166Y-134420833D01*
X89286500Y-135309833D02*
X89286500Y-135987166D01*
X88947833Y-135648500D02*
X89625166Y-135648500D01*
X88947833Y-131428833D02*
X89371166Y-131132500D01*
X88947833Y-130920833D02*
X89836833Y-130920833D01*
X89836833Y-131259500D01*
X89794500Y-131344166D01*
X89752166Y-131386500D01*
X89667500Y-131428833D01*
X89540500Y-131428833D01*
X89455833Y-131386500D01*
X89413500Y-131344166D01*
X89371166Y-131259500D01*
X89371166Y-130920833D01*
X89286500Y-131809833D02*
X89286500Y-132487166D01*
D11*
X158120000Y-61304000D02*
G75*
G03X158120000Y-63304000I0J-1000000D01*
G01*
X154120000Y-63304000D02*
G75*
G03X154120000Y-61304000I0J1000000D01*
G01*
X139120000Y-63304000D02*
G75*
G03X139120000Y-61304000I0J1000000D01*
G01*
X143120000Y-61304000D02*
G75*
G03X143120000Y-63304000I0J-1000000D01*
G01*
X153980000Y-148304000D02*
G75*
G03X153980000Y-146304000I0J1000000D01*
G01*
X157980000Y-146304000D02*
G75*
G03X157980000Y-148304000I0J-1000000D01*
G01*
X142980000Y-146304000D02*
G75*
G03X142980000Y-148304000I0J-1000000D01*
G01*
X138980000Y-148304000D02*
G75*
G03X138980000Y-146304000I0J1000000D01*
G01*
X153980000Y-148304000D02*
G75*
G03X153980000Y-146304000I0J1000000D01*
G01*
X157980000Y-146304000D02*
G75*
G03X157980000Y-148304000I0J-1000000D01*
G01*
X139120000Y-63304000D02*
G75*
G03X139120000Y-61304000I0J1000000D01*
G01*
X143120000Y-61304000D02*
G75*
G03X143120000Y-63304000I0J-1000000D01*
G01*
X157980000Y-95704000D02*
G75*
G03X157980000Y-97704000I0J-1000000D01*
G01*
X153980000Y-97704000D02*
G75*
G03X153980000Y-95704000I0J1000000D01*
G01*
X138980000Y-97704000D02*
G75*
G03X138980000Y-95704000I0J1000000D01*
G01*
X142980000Y-95704000D02*
G75*
G03X142980000Y-97704000I0J-1000000D01*
G01*
X151450000Y-76304000D02*
X151650000Y-76304000D01*
X151450000Y-76604000D02*
X151450000Y-76304000D01*
X150550000Y-77504000D02*
X151450000Y-76604000D01*
X150150000Y-77504000D02*
X150550000Y-77504000D01*
X137250000Y-77504000D02*
X137250000Y-76004000D01*
X137850000Y-77504000D02*
X137250000Y-77504000D01*
X137250000Y-65304000D02*
X137250000Y-66704000D01*
X137850000Y-65304000D02*
X137250000Y-65304000D01*
X151450000Y-65304000D02*
X151450000Y-66504000D01*
X150850000Y-65304000D02*
X151450000Y-65304000D01*
X146250000Y-111904000D02*
X145650000Y-111904000D01*
X145650000Y-111904000D02*
X145650000Y-110704000D01*
X159250000Y-111904000D02*
X159850000Y-111904000D01*
X159850000Y-111904000D02*
X159850000Y-110504000D01*
X159250000Y-99704000D02*
X159850000Y-99704000D01*
X159850000Y-99704000D02*
X159850000Y-101204000D01*
X146950000Y-99704000D02*
X146550000Y-99704000D01*
X146550000Y-99704000D02*
X145650000Y-100604000D01*
X145650000Y-100604000D02*
X145650000Y-100904000D01*
X145650000Y-100904000D02*
X145450000Y-100904000D01*
X151450000Y-110704000D02*
X151650000Y-110704000D01*
X151450000Y-111004000D02*
X151450000Y-110704000D01*
X150550000Y-111904000D02*
X151450000Y-111004000D01*
X150150000Y-111904000D02*
X150550000Y-111904000D01*
X137250000Y-111904000D02*
X137250000Y-110404000D01*
X137850000Y-111904000D02*
X137250000Y-111904000D01*
X137250000Y-99704000D02*
X137250000Y-101104000D01*
X137850000Y-99704000D02*
X137250000Y-99704000D01*
X151450000Y-99704000D02*
X151450000Y-100904000D01*
X150850000Y-99704000D02*
X151450000Y-99704000D01*
X146250000Y-77504000D02*
X145650000Y-77504000D01*
X145650000Y-77504000D02*
X145650000Y-76304000D01*
X159250000Y-77504000D02*
X159850000Y-77504000D01*
X159850000Y-77504000D02*
X159850000Y-76104000D01*
X159250000Y-65304000D02*
X159850000Y-65304000D01*
X159850000Y-65304000D02*
X159850000Y-66804000D01*
X146950000Y-65304000D02*
X146550000Y-65304000D01*
X146550000Y-65304000D02*
X145650000Y-66204000D01*
X145650000Y-66204000D02*
X145650000Y-66504000D01*
X145650000Y-66504000D02*
X145450000Y-66504000D01*
X145650000Y-82704000D02*
X145450000Y-82704000D01*
X145650000Y-82404000D02*
X145650000Y-82704000D01*
X146550000Y-81504000D02*
X145650000Y-82404000D01*
X146950000Y-81504000D02*
X146550000Y-81504000D01*
X159850000Y-81504000D02*
X159850000Y-83004000D01*
X159250000Y-81504000D02*
X159850000Y-81504000D01*
X159850000Y-93704000D02*
X159850000Y-92304000D01*
X159250000Y-93704000D02*
X159850000Y-93704000D01*
X145650000Y-93704000D02*
X145650000Y-92504000D01*
X146250000Y-93704000D02*
X145650000Y-93704000D01*
X150850000Y-81504000D02*
X151450000Y-81504000D01*
X151450000Y-81504000D02*
X151450000Y-82704000D01*
X137850000Y-81504000D02*
X137250000Y-81504000D01*
X137250000Y-81504000D02*
X137250000Y-82904000D01*
X137850000Y-93704000D02*
X137250000Y-93704000D01*
X137250000Y-93704000D02*
X137250000Y-92204000D01*
X150150000Y-93704000D02*
X150550000Y-93704000D01*
X150550000Y-93704000D02*
X151450000Y-92804000D01*
X151450000Y-92804000D02*
X151450000Y-92504000D01*
X151450000Y-92504000D02*
X151650000Y-92504000D01*
X145650000Y-133304000D02*
X145450000Y-133304000D01*
X145650000Y-133004000D02*
X145650000Y-133304000D01*
X146550000Y-132104000D02*
X145650000Y-133004000D01*
X146950000Y-132104000D02*
X146550000Y-132104000D01*
X159850000Y-132104000D02*
X159850000Y-133604000D01*
X159250000Y-132104000D02*
X159850000Y-132104000D01*
X159850000Y-144304000D02*
X159850000Y-142904000D01*
X159250000Y-144304000D02*
X159850000Y-144304000D01*
X145650000Y-144304000D02*
X145650000Y-143104000D01*
X146250000Y-144304000D02*
X145650000Y-144304000D01*
X151450000Y-126904000D02*
X151650000Y-126904000D01*
X151450000Y-127204000D02*
X151450000Y-126904000D01*
X150550000Y-128104000D02*
X151450000Y-127204000D01*
X150150000Y-128104000D02*
X150550000Y-128104000D01*
X137250000Y-128104000D02*
X137250000Y-126604000D01*
X137850000Y-128104000D02*
X137250000Y-128104000D01*
X137250000Y-115904000D02*
X137250000Y-117304000D01*
X137850000Y-115904000D02*
X137250000Y-115904000D01*
X151450000Y-115904000D02*
X151450000Y-117104000D01*
X150850000Y-115904000D02*
X151450000Y-115904000D01*
X146250000Y-128104000D02*
X145650000Y-128104000D01*
X145650000Y-128104000D02*
X145650000Y-126904000D01*
X159250000Y-128104000D02*
X159850000Y-128104000D01*
X159850000Y-128104000D02*
X159850000Y-126704000D01*
X159250000Y-115904000D02*
X159850000Y-115904000D01*
X159850000Y-115904000D02*
X159850000Y-117404000D01*
X146950000Y-115904000D02*
X146550000Y-115904000D01*
X146550000Y-115904000D02*
X145650000Y-116804000D01*
X145650000Y-116804000D02*
X145650000Y-117104000D01*
X145650000Y-117104000D02*
X145450000Y-117104000D01*
X150850000Y-132104000D02*
X151450000Y-132104000D01*
X151450000Y-132104000D02*
X151450000Y-133304000D01*
X137850000Y-132104000D02*
X137250000Y-132104000D01*
X137250000Y-132104000D02*
X137250000Y-133504000D01*
X137850000Y-144304000D02*
X137250000Y-144304000D01*
X137250000Y-144304000D02*
X137250000Y-142804000D01*
X150150000Y-144304000D02*
X150550000Y-144304000D01*
X150550000Y-144304000D02*
X151450000Y-143404000D01*
X151450000Y-143404000D02*
X151450000Y-143104000D01*
X151450000Y-143104000D02*
X151650000Y-143104000D01*
X96120000Y-61304000D02*
G75*
G03X96120000Y-63304000I0J-1000000D01*
G01*
X92120000Y-63304000D02*
G75*
G03X92120000Y-61304000I0J1000000D01*
G01*
X107120000Y-63304000D02*
G75*
G03X107120000Y-61304000I0J1000000D01*
G01*
X111120000Y-61304000D02*
G75*
G03X111120000Y-63304000I0J-1000000D01*
G01*
X96120000Y-61304000D02*
G75*
G03X96120000Y-63304000I0J-1000000D01*
G01*
X92120000Y-63304000D02*
G75*
G03X92120000Y-61304000I0J1000000D01*
G01*
X110980000Y-146304000D02*
G75*
G03X110980000Y-148304000I0J-1000000D01*
G01*
X106980000Y-148304000D02*
G75*
G03X106980000Y-146304000I0J1000000D01*
G01*
X110980000Y-146304000D02*
G75*
G03X110980000Y-148304000I0J-1000000D01*
G01*
X106980000Y-148304000D02*
G75*
G03X106980000Y-146304000I0J1000000D01*
G01*
X91980000Y-148304000D02*
G75*
G03X91980000Y-146304000I0J1000000D01*
G01*
X95980000Y-146304000D02*
G75*
G03X95980000Y-148304000I0J-1000000D01*
G01*
X106980000Y-97704000D02*
G75*
G03X106980000Y-95704000I0J1000000D01*
G01*
X110980000Y-95704000D02*
G75*
G03X110980000Y-97704000I0J-1000000D01*
G01*
X95980000Y-95704000D02*
G75*
G03X95980000Y-97704000I0J-1000000D01*
G01*
X91980000Y-97704000D02*
G75*
G03X91980000Y-95704000I0J1000000D01*
G01*
X98650000Y-66504000D02*
X98450000Y-66504000D01*
X98650000Y-66204000D02*
X98650000Y-66504000D01*
X99550000Y-65304000D02*
X98650000Y-66204000D01*
X99950000Y-65304000D02*
X99550000Y-65304000D01*
X112850000Y-65304000D02*
X112850000Y-66804000D01*
X112250000Y-65304000D02*
X112850000Y-65304000D01*
X112850000Y-77504000D02*
X112850000Y-76104000D01*
X112250000Y-77504000D02*
X112850000Y-77504000D01*
X98650000Y-77504000D02*
X98650000Y-76304000D01*
X99250000Y-77504000D02*
X98650000Y-77504000D01*
X103850000Y-65304000D02*
X104450000Y-65304000D01*
X104450000Y-65304000D02*
X104450000Y-66504000D01*
X90850000Y-65304000D02*
X90250000Y-65304000D01*
X90250000Y-65304000D02*
X90250000Y-66704000D01*
X90850000Y-77504000D02*
X90250000Y-77504000D01*
X90250000Y-77504000D02*
X90250000Y-76004000D01*
X103150000Y-77504000D02*
X103550000Y-77504000D01*
X103550000Y-77504000D02*
X104450000Y-76604000D01*
X104450000Y-76604000D02*
X104450000Y-76304000D01*
X104450000Y-76304000D02*
X104650000Y-76304000D01*
X98650000Y-100904000D02*
X98450000Y-100904000D01*
X98650000Y-100604000D02*
X98650000Y-100904000D01*
X99550000Y-99704000D02*
X98650000Y-100604000D01*
X99950000Y-99704000D02*
X99550000Y-99704000D01*
X112850000Y-99704000D02*
X112850000Y-101204000D01*
X112250000Y-99704000D02*
X112850000Y-99704000D01*
X112850000Y-111904000D02*
X112850000Y-110504000D01*
X112250000Y-111904000D02*
X112850000Y-111904000D01*
X98650000Y-111904000D02*
X98650000Y-110704000D01*
X99250000Y-111904000D02*
X98650000Y-111904000D01*
X104450000Y-92504000D02*
X104650000Y-92504000D01*
X104450000Y-92804000D02*
X104450000Y-92504000D01*
X103550000Y-93704000D02*
X104450000Y-92804000D01*
X103150000Y-93704000D02*
X103550000Y-93704000D01*
X90250000Y-93704000D02*
X90250000Y-92204000D01*
X90850000Y-93704000D02*
X90250000Y-93704000D01*
X90250000Y-81504000D02*
X90250000Y-82904000D01*
X90850000Y-81504000D02*
X90250000Y-81504000D01*
X104450000Y-81504000D02*
X104450000Y-82704000D01*
X103850000Y-81504000D02*
X104450000Y-81504000D01*
X99250000Y-93704000D02*
X98650000Y-93704000D01*
X98650000Y-93704000D02*
X98650000Y-92504000D01*
X112250000Y-93704000D02*
X112850000Y-93704000D01*
X112850000Y-93704000D02*
X112850000Y-92304000D01*
X112250000Y-81504000D02*
X112850000Y-81504000D01*
X112850000Y-81504000D02*
X112850000Y-83004000D01*
X99950000Y-81504000D02*
X99550000Y-81504000D01*
X99550000Y-81504000D02*
X98650000Y-82404000D01*
X98650000Y-82404000D02*
X98650000Y-82704000D01*
X98650000Y-82704000D02*
X98450000Y-82704000D01*
X103850000Y-99704000D02*
X104450000Y-99704000D01*
X104450000Y-99704000D02*
X104450000Y-100904000D01*
X90850000Y-99704000D02*
X90250000Y-99704000D01*
X90250000Y-99704000D02*
X90250000Y-101104000D01*
X90850000Y-111904000D02*
X90250000Y-111904000D01*
X90250000Y-111904000D02*
X90250000Y-110404000D01*
X103150000Y-111904000D02*
X103550000Y-111904000D01*
X103550000Y-111904000D02*
X104450000Y-111004000D01*
X104450000Y-111004000D02*
X104450000Y-110704000D01*
X104450000Y-110704000D02*
X104650000Y-110704000D01*
X98650000Y-117104000D02*
X98450000Y-117104000D01*
X98650000Y-116804000D02*
X98650000Y-117104000D01*
X99550000Y-115904000D02*
X98650000Y-116804000D01*
X99950000Y-115904000D02*
X99550000Y-115904000D01*
X112850000Y-115904000D02*
X112850000Y-117404000D01*
X112250000Y-115904000D02*
X112850000Y-115904000D01*
X112850000Y-128104000D02*
X112850000Y-126704000D01*
X112250000Y-128104000D02*
X112850000Y-128104000D01*
X98650000Y-128104000D02*
X98650000Y-126904000D01*
X99250000Y-128104000D02*
X98650000Y-128104000D01*
X103850000Y-115904000D02*
X104450000Y-115904000D01*
X104450000Y-115904000D02*
X104450000Y-117104000D01*
X90850000Y-115904000D02*
X90250000Y-115904000D01*
X90250000Y-115904000D02*
X90250000Y-117304000D01*
X90850000Y-128104000D02*
X90250000Y-128104000D01*
X90250000Y-128104000D02*
X90250000Y-126604000D01*
X103150000Y-128104000D02*
X103550000Y-128104000D01*
X103550000Y-128104000D02*
X104450000Y-127204000D01*
X104450000Y-127204000D02*
X104450000Y-126904000D01*
X104450000Y-126904000D02*
X104650000Y-126904000D01*
X99250000Y-144304000D02*
X98650000Y-144304000D01*
X98650000Y-144304000D02*
X98650000Y-143104000D01*
X112250000Y-144304000D02*
X112850000Y-144304000D01*
X112850000Y-144304000D02*
X112850000Y-142904000D01*
X112250000Y-132104000D02*
X112850000Y-132104000D01*
X112850000Y-132104000D02*
X112850000Y-133604000D01*
X99950000Y-132104000D02*
X99550000Y-132104000D01*
X99550000Y-132104000D02*
X98650000Y-133004000D01*
X98650000Y-133004000D02*
X98650000Y-133304000D01*
X98650000Y-133304000D02*
X98450000Y-133304000D01*
X104450000Y-143104000D02*
X104650000Y-143104000D01*
X104450000Y-143404000D02*
X104450000Y-143104000D01*
X103550000Y-144304000D02*
X104450000Y-143404000D01*
X103150000Y-144304000D02*
X103550000Y-144304000D01*
X90250000Y-144304000D02*
X90250000Y-142804000D01*
X90850000Y-144304000D02*
X90250000Y-144304000D01*
X90250000Y-132104000D02*
X90250000Y-133504000D01*
X90850000Y-132104000D02*
X90250000Y-132104000D01*
X104450000Y-132104000D02*
X104450000Y-133304000D01*
X103850000Y-132104000D02*
X104450000Y-132104000D01*
D12*
X142232857Y-70253214D02*
X142185238Y-70205595D01*
X142137619Y-70062738D01*
X142137619Y-69967500D01*
X142185238Y-69824642D01*
X142280476Y-69729404D01*
X142375714Y-69681785D01*
X142566190Y-69634166D01*
X142709047Y-69634166D01*
X142899523Y-69681785D01*
X142994761Y-69729404D01*
X143090000Y-69824642D01*
X143137619Y-69967500D01*
X143137619Y-70062738D01*
X143090000Y-70205595D01*
X143042380Y-70253214D01*
X143137619Y-70872261D02*
X143137619Y-71062738D01*
X143090000Y-71157976D01*
X142994761Y-71253214D01*
X142804285Y-71300833D01*
X142470952Y-71300833D01*
X142280476Y-71253214D01*
X142185238Y-71157976D01*
X142137619Y-71062738D01*
X142137619Y-70872261D01*
X142185238Y-70777023D01*
X142280476Y-70681785D01*
X142470952Y-70634166D01*
X142804285Y-70634166D01*
X142994761Y-70681785D01*
X143090000Y-70777023D01*
X143137619Y-70872261D01*
X142137619Y-71729404D02*
X143137619Y-71729404D01*
X142137619Y-72300833D01*
X143137619Y-72300833D01*
X142137619Y-73300833D02*
X142137619Y-72729404D01*
X142137619Y-73015119D02*
X143137619Y-73015119D01*
X142994761Y-72919880D01*
X142899523Y-72824642D01*
X142851904Y-72729404D01*
X154152857Y-104526214D02*
X154105238Y-104478595D01*
X154057619Y-104335738D01*
X154057619Y-104240500D01*
X154105238Y-104097642D01*
X154200476Y-104002404D01*
X154295714Y-103954785D01*
X154486190Y-103907166D01*
X154629047Y-103907166D01*
X154819523Y-103954785D01*
X154914761Y-104002404D01*
X155010000Y-104097642D01*
X155057619Y-104240500D01*
X155057619Y-104335738D01*
X155010000Y-104478595D01*
X154962380Y-104526214D01*
X155057619Y-105145261D02*
X155057619Y-105335738D01*
X155010000Y-105430976D01*
X154914761Y-105526214D01*
X154724285Y-105573833D01*
X154390952Y-105573833D01*
X154200476Y-105526214D01*
X154105238Y-105430976D01*
X154057619Y-105335738D01*
X154057619Y-105145261D01*
X154105238Y-105050023D01*
X154200476Y-104954785D01*
X154390952Y-104907166D01*
X154724285Y-104907166D01*
X154914761Y-104954785D01*
X155010000Y-105050023D01*
X155057619Y-105145261D01*
X154057619Y-106002404D02*
X155057619Y-106002404D01*
X154057619Y-106573833D01*
X155057619Y-106573833D01*
X154057619Y-107573833D02*
X154057619Y-107002404D01*
X154057619Y-107288119D02*
X155057619Y-107288119D01*
X154914761Y-107192880D01*
X154819523Y-107097642D01*
X154771904Y-107002404D01*
X142232857Y-104653214D02*
X142185238Y-104605595D01*
X142137619Y-104462738D01*
X142137619Y-104367500D01*
X142185238Y-104224642D01*
X142280476Y-104129404D01*
X142375714Y-104081785D01*
X142566190Y-104034166D01*
X142709047Y-104034166D01*
X142899523Y-104081785D01*
X142994761Y-104129404D01*
X143090000Y-104224642D01*
X143137619Y-104367500D01*
X143137619Y-104462738D01*
X143090000Y-104605595D01*
X143042380Y-104653214D01*
X143137619Y-105272261D02*
X143137619Y-105462738D01*
X143090000Y-105557976D01*
X142994761Y-105653214D01*
X142804285Y-105700833D01*
X142470952Y-105700833D01*
X142280476Y-105653214D01*
X142185238Y-105557976D01*
X142137619Y-105462738D01*
X142137619Y-105272261D01*
X142185238Y-105177023D01*
X142280476Y-105081785D01*
X142470952Y-105034166D01*
X142804285Y-105034166D01*
X142994761Y-105081785D01*
X143090000Y-105177023D01*
X143137619Y-105272261D01*
X142137619Y-106129404D02*
X143137619Y-106129404D01*
X142137619Y-106700833D01*
X143137619Y-106700833D01*
X142137619Y-107700833D02*
X142137619Y-107129404D01*
X142137619Y-107415119D02*
X143137619Y-107415119D01*
X142994761Y-107319880D01*
X142899523Y-107224642D01*
X142851904Y-107129404D01*
X154152857Y-70126214D02*
X154105238Y-70078595D01*
X154057619Y-69935738D01*
X154057619Y-69840500D01*
X154105238Y-69697642D01*
X154200476Y-69602404D01*
X154295714Y-69554785D01*
X154486190Y-69507166D01*
X154629047Y-69507166D01*
X154819523Y-69554785D01*
X154914761Y-69602404D01*
X155010000Y-69697642D01*
X155057619Y-69840500D01*
X155057619Y-69935738D01*
X155010000Y-70078595D01*
X154962380Y-70126214D01*
X155057619Y-70745261D02*
X155057619Y-70935738D01*
X155010000Y-71030976D01*
X154914761Y-71126214D01*
X154724285Y-71173833D01*
X154390952Y-71173833D01*
X154200476Y-71126214D01*
X154105238Y-71030976D01*
X154057619Y-70935738D01*
X154057619Y-70745261D01*
X154105238Y-70650023D01*
X154200476Y-70554785D01*
X154390952Y-70507166D01*
X154724285Y-70507166D01*
X154914761Y-70554785D01*
X155010000Y-70650023D01*
X155057619Y-70745261D01*
X154057619Y-71602404D02*
X155057619Y-71602404D01*
X154057619Y-72173833D01*
X155057619Y-72173833D01*
X154057619Y-73173833D02*
X154057619Y-72602404D01*
X154057619Y-72888119D02*
X155057619Y-72888119D01*
X154914761Y-72792880D01*
X154819523Y-72697642D01*
X154771904Y-72602404D01*
X154152857Y-86326214D02*
X154105238Y-86278595D01*
X154057619Y-86135738D01*
X154057619Y-86040500D01*
X154105238Y-85897642D01*
X154200476Y-85802404D01*
X154295714Y-85754785D01*
X154486190Y-85707166D01*
X154629047Y-85707166D01*
X154819523Y-85754785D01*
X154914761Y-85802404D01*
X155010000Y-85897642D01*
X155057619Y-86040500D01*
X155057619Y-86135738D01*
X155010000Y-86278595D01*
X154962380Y-86326214D01*
X155057619Y-86945261D02*
X155057619Y-87135738D01*
X155010000Y-87230976D01*
X154914761Y-87326214D01*
X154724285Y-87373833D01*
X154390952Y-87373833D01*
X154200476Y-87326214D01*
X154105238Y-87230976D01*
X154057619Y-87135738D01*
X154057619Y-86945261D01*
X154105238Y-86850023D01*
X154200476Y-86754785D01*
X154390952Y-86707166D01*
X154724285Y-86707166D01*
X154914761Y-86754785D01*
X155010000Y-86850023D01*
X155057619Y-86945261D01*
X154057619Y-87802404D02*
X155057619Y-87802404D01*
X154057619Y-88373833D01*
X155057619Y-88373833D01*
X154057619Y-89373833D02*
X154057619Y-88802404D01*
X154057619Y-89088119D02*
X155057619Y-89088119D01*
X154914761Y-88992880D01*
X154819523Y-88897642D01*
X154771904Y-88802404D01*
X142232857Y-86453214D02*
X142185238Y-86405595D01*
X142137619Y-86262738D01*
X142137619Y-86167500D01*
X142185238Y-86024642D01*
X142280476Y-85929404D01*
X142375714Y-85881785D01*
X142566190Y-85834166D01*
X142709047Y-85834166D01*
X142899523Y-85881785D01*
X142994761Y-85929404D01*
X143090000Y-86024642D01*
X143137619Y-86167500D01*
X143137619Y-86262738D01*
X143090000Y-86405595D01*
X143042380Y-86453214D01*
X143137619Y-87072261D02*
X143137619Y-87262738D01*
X143090000Y-87357976D01*
X142994761Y-87453214D01*
X142804285Y-87500833D01*
X142470952Y-87500833D01*
X142280476Y-87453214D01*
X142185238Y-87357976D01*
X142137619Y-87262738D01*
X142137619Y-87072261D01*
X142185238Y-86977023D01*
X142280476Y-86881785D01*
X142470952Y-86834166D01*
X142804285Y-86834166D01*
X142994761Y-86881785D01*
X143090000Y-86977023D01*
X143137619Y-87072261D01*
X142137619Y-87929404D02*
X143137619Y-87929404D01*
X142137619Y-88500833D01*
X143137619Y-88500833D01*
X142137619Y-89500833D02*
X142137619Y-88929404D01*
X142137619Y-89215119D02*
X143137619Y-89215119D01*
X142994761Y-89119880D01*
X142899523Y-89024642D01*
X142851904Y-88929404D01*
X154152857Y-136926214D02*
X154105238Y-136878595D01*
X154057619Y-136735738D01*
X154057619Y-136640500D01*
X154105238Y-136497642D01*
X154200476Y-136402404D01*
X154295714Y-136354785D01*
X154486190Y-136307166D01*
X154629047Y-136307166D01*
X154819523Y-136354785D01*
X154914761Y-136402404D01*
X155010000Y-136497642D01*
X155057619Y-136640500D01*
X155057619Y-136735738D01*
X155010000Y-136878595D01*
X154962380Y-136926214D01*
X155057619Y-137545261D02*
X155057619Y-137735738D01*
X155010000Y-137830976D01*
X154914761Y-137926214D01*
X154724285Y-137973833D01*
X154390952Y-137973833D01*
X154200476Y-137926214D01*
X154105238Y-137830976D01*
X154057619Y-137735738D01*
X154057619Y-137545261D01*
X154105238Y-137450023D01*
X154200476Y-137354785D01*
X154390952Y-137307166D01*
X154724285Y-137307166D01*
X154914761Y-137354785D01*
X155010000Y-137450023D01*
X155057619Y-137545261D01*
X154057619Y-138402404D02*
X155057619Y-138402404D01*
X154057619Y-138973833D01*
X155057619Y-138973833D01*
X154057619Y-139973833D02*
X154057619Y-139402404D01*
X154057619Y-139688119D02*
X155057619Y-139688119D01*
X154914761Y-139592880D01*
X154819523Y-139497642D01*
X154771904Y-139402404D01*
X142232857Y-120853214D02*
X142185238Y-120805595D01*
X142137619Y-120662738D01*
X142137619Y-120567500D01*
X142185238Y-120424642D01*
X142280476Y-120329404D01*
X142375714Y-120281785D01*
X142566190Y-120234166D01*
X142709047Y-120234166D01*
X142899523Y-120281785D01*
X142994761Y-120329404D01*
X143090000Y-120424642D01*
X143137619Y-120567500D01*
X143137619Y-120662738D01*
X143090000Y-120805595D01*
X143042380Y-120853214D01*
X143137619Y-121472261D02*
X143137619Y-121662738D01*
X143090000Y-121757976D01*
X142994761Y-121853214D01*
X142804285Y-121900833D01*
X142470952Y-121900833D01*
X142280476Y-121853214D01*
X142185238Y-121757976D01*
X142137619Y-121662738D01*
X142137619Y-121472261D01*
X142185238Y-121377023D01*
X142280476Y-121281785D01*
X142470952Y-121234166D01*
X142804285Y-121234166D01*
X142994761Y-121281785D01*
X143090000Y-121377023D01*
X143137619Y-121472261D01*
X142137619Y-122329404D02*
X143137619Y-122329404D01*
X142137619Y-122900833D01*
X143137619Y-122900833D01*
X142137619Y-123900833D02*
X142137619Y-123329404D01*
X142137619Y-123615119D02*
X143137619Y-123615119D01*
X142994761Y-123519880D01*
X142899523Y-123424642D01*
X142851904Y-123329404D01*
X154152857Y-120726214D02*
X154105238Y-120678595D01*
X154057619Y-120535738D01*
X154057619Y-120440500D01*
X154105238Y-120297642D01*
X154200476Y-120202404D01*
X154295714Y-120154785D01*
X154486190Y-120107166D01*
X154629047Y-120107166D01*
X154819523Y-120154785D01*
X154914761Y-120202404D01*
X155010000Y-120297642D01*
X155057619Y-120440500D01*
X155057619Y-120535738D01*
X155010000Y-120678595D01*
X154962380Y-120726214D01*
X155057619Y-121345261D02*
X155057619Y-121535738D01*
X155010000Y-121630976D01*
X154914761Y-121726214D01*
X154724285Y-121773833D01*
X154390952Y-121773833D01*
X154200476Y-121726214D01*
X154105238Y-121630976D01*
X154057619Y-121535738D01*
X154057619Y-121345261D01*
X154105238Y-121250023D01*
X154200476Y-121154785D01*
X154390952Y-121107166D01*
X154724285Y-121107166D01*
X154914761Y-121154785D01*
X155010000Y-121250023D01*
X155057619Y-121345261D01*
X154057619Y-122202404D02*
X155057619Y-122202404D01*
X154057619Y-122773833D01*
X155057619Y-122773833D01*
X154057619Y-123773833D02*
X154057619Y-123202404D01*
X154057619Y-123488119D02*
X155057619Y-123488119D01*
X154914761Y-123392880D01*
X154819523Y-123297642D01*
X154771904Y-123202404D01*
X142232857Y-137053214D02*
X142185238Y-137005595D01*
X142137619Y-136862738D01*
X142137619Y-136767500D01*
X142185238Y-136624642D01*
X142280476Y-136529404D01*
X142375714Y-136481785D01*
X142566190Y-136434166D01*
X142709047Y-136434166D01*
X142899523Y-136481785D01*
X142994761Y-136529404D01*
X143090000Y-136624642D01*
X143137619Y-136767500D01*
X143137619Y-136862738D01*
X143090000Y-137005595D01*
X143042380Y-137053214D01*
X143137619Y-137672261D02*
X143137619Y-137862738D01*
X143090000Y-137957976D01*
X142994761Y-138053214D01*
X142804285Y-138100833D01*
X142470952Y-138100833D01*
X142280476Y-138053214D01*
X142185238Y-137957976D01*
X142137619Y-137862738D01*
X142137619Y-137672261D01*
X142185238Y-137577023D01*
X142280476Y-137481785D01*
X142470952Y-137434166D01*
X142804285Y-137434166D01*
X142994761Y-137481785D01*
X143090000Y-137577023D01*
X143137619Y-137672261D01*
X142137619Y-138529404D02*
X143137619Y-138529404D01*
X142137619Y-139100833D01*
X143137619Y-139100833D01*
X142137619Y-140100833D02*
X142137619Y-139529404D01*
X142137619Y-139815119D02*
X143137619Y-139815119D01*
X142994761Y-139719880D01*
X142899523Y-139624642D01*
X142851904Y-139529404D01*
X107152857Y-70126214D02*
X107105238Y-70078595D01*
X107057619Y-69935738D01*
X107057619Y-69840500D01*
X107105238Y-69697642D01*
X107200476Y-69602404D01*
X107295714Y-69554785D01*
X107486190Y-69507166D01*
X107629047Y-69507166D01*
X107819523Y-69554785D01*
X107914761Y-69602404D01*
X108010000Y-69697642D01*
X108057619Y-69840500D01*
X108057619Y-69935738D01*
X108010000Y-70078595D01*
X107962380Y-70126214D01*
X108057619Y-70745261D02*
X108057619Y-70935738D01*
X108010000Y-71030976D01*
X107914761Y-71126214D01*
X107724285Y-71173833D01*
X107390952Y-71173833D01*
X107200476Y-71126214D01*
X107105238Y-71030976D01*
X107057619Y-70935738D01*
X107057619Y-70745261D01*
X107105238Y-70650023D01*
X107200476Y-70554785D01*
X107390952Y-70507166D01*
X107724285Y-70507166D01*
X107914761Y-70554785D01*
X108010000Y-70650023D01*
X108057619Y-70745261D01*
X107057619Y-71602404D02*
X108057619Y-71602404D01*
X107057619Y-72173833D01*
X108057619Y-72173833D01*
X107057619Y-73173833D02*
X107057619Y-72602404D01*
X107057619Y-72888119D02*
X108057619Y-72888119D01*
X107914761Y-72792880D01*
X107819523Y-72697642D01*
X107771904Y-72602404D01*
X95232857Y-70253214D02*
X95185238Y-70205595D01*
X95137619Y-70062738D01*
X95137619Y-69967500D01*
X95185238Y-69824642D01*
X95280476Y-69729404D01*
X95375714Y-69681785D01*
X95566190Y-69634166D01*
X95709047Y-69634166D01*
X95899523Y-69681785D01*
X95994761Y-69729404D01*
X96090000Y-69824642D01*
X96137619Y-69967500D01*
X96137619Y-70062738D01*
X96090000Y-70205595D01*
X96042380Y-70253214D01*
X96137619Y-70872261D02*
X96137619Y-71062738D01*
X96090000Y-71157976D01*
X95994761Y-71253214D01*
X95804285Y-71300833D01*
X95470952Y-71300833D01*
X95280476Y-71253214D01*
X95185238Y-71157976D01*
X95137619Y-71062738D01*
X95137619Y-70872261D01*
X95185238Y-70777023D01*
X95280476Y-70681785D01*
X95470952Y-70634166D01*
X95804285Y-70634166D01*
X95994761Y-70681785D01*
X96090000Y-70777023D01*
X96137619Y-70872261D01*
X95137619Y-71729404D02*
X96137619Y-71729404D01*
X95137619Y-72300833D01*
X96137619Y-72300833D01*
X95137619Y-73300833D02*
X95137619Y-72729404D01*
X95137619Y-73015119D02*
X96137619Y-73015119D01*
X95994761Y-72919880D01*
X95899523Y-72824642D01*
X95851904Y-72729404D01*
X107152857Y-104526214D02*
X107105238Y-104478595D01*
X107057619Y-104335738D01*
X107057619Y-104240500D01*
X107105238Y-104097642D01*
X107200476Y-104002404D01*
X107295714Y-103954785D01*
X107486190Y-103907166D01*
X107629047Y-103907166D01*
X107819523Y-103954785D01*
X107914761Y-104002404D01*
X108010000Y-104097642D01*
X108057619Y-104240500D01*
X108057619Y-104335738D01*
X108010000Y-104478595D01*
X107962380Y-104526214D01*
X108057619Y-105145261D02*
X108057619Y-105335738D01*
X108010000Y-105430976D01*
X107914761Y-105526214D01*
X107724285Y-105573833D01*
X107390952Y-105573833D01*
X107200476Y-105526214D01*
X107105238Y-105430976D01*
X107057619Y-105335738D01*
X107057619Y-105145261D01*
X107105238Y-105050023D01*
X107200476Y-104954785D01*
X107390952Y-104907166D01*
X107724285Y-104907166D01*
X107914761Y-104954785D01*
X108010000Y-105050023D01*
X108057619Y-105145261D01*
X107057619Y-106002404D02*
X108057619Y-106002404D01*
X107057619Y-106573833D01*
X108057619Y-106573833D01*
X107057619Y-107573833D02*
X107057619Y-107002404D01*
X107057619Y-107288119D02*
X108057619Y-107288119D01*
X107914761Y-107192880D01*
X107819523Y-107097642D01*
X107771904Y-107002404D01*
X95232857Y-86453214D02*
X95185238Y-86405595D01*
X95137619Y-86262738D01*
X95137619Y-86167500D01*
X95185238Y-86024642D01*
X95280476Y-85929404D01*
X95375714Y-85881785D01*
X95566190Y-85834166D01*
X95709047Y-85834166D01*
X95899523Y-85881785D01*
X95994761Y-85929404D01*
X96090000Y-86024642D01*
X96137619Y-86167500D01*
X96137619Y-86262738D01*
X96090000Y-86405595D01*
X96042380Y-86453214D01*
X96137619Y-87072261D02*
X96137619Y-87262738D01*
X96090000Y-87357976D01*
X95994761Y-87453214D01*
X95804285Y-87500833D01*
X95470952Y-87500833D01*
X95280476Y-87453214D01*
X95185238Y-87357976D01*
X95137619Y-87262738D01*
X95137619Y-87072261D01*
X95185238Y-86977023D01*
X95280476Y-86881785D01*
X95470952Y-86834166D01*
X95804285Y-86834166D01*
X95994761Y-86881785D01*
X96090000Y-86977023D01*
X96137619Y-87072261D01*
X95137619Y-87929404D02*
X96137619Y-87929404D01*
X95137619Y-88500833D01*
X96137619Y-88500833D01*
X95137619Y-89500833D02*
X95137619Y-88929404D01*
X95137619Y-89215119D02*
X96137619Y-89215119D01*
X95994761Y-89119880D01*
X95899523Y-89024642D01*
X95851904Y-88929404D01*
X107152857Y-86326214D02*
X107105238Y-86278595D01*
X107057619Y-86135738D01*
X107057619Y-86040500D01*
X107105238Y-85897642D01*
X107200476Y-85802404D01*
X107295714Y-85754785D01*
X107486190Y-85707166D01*
X107629047Y-85707166D01*
X107819523Y-85754785D01*
X107914761Y-85802404D01*
X108010000Y-85897642D01*
X108057619Y-86040500D01*
X108057619Y-86135738D01*
X108010000Y-86278595D01*
X107962380Y-86326214D01*
X108057619Y-86945261D02*
X108057619Y-87135738D01*
X108010000Y-87230976D01*
X107914761Y-87326214D01*
X107724285Y-87373833D01*
X107390952Y-87373833D01*
X107200476Y-87326214D01*
X107105238Y-87230976D01*
X107057619Y-87135738D01*
X107057619Y-86945261D01*
X107105238Y-86850023D01*
X107200476Y-86754785D01*
X107390952Y-86707166D01*
X107724285Y-86707166D01*
X107914761Y-86754785D01*
X108010000Y-86850023D01*
X108057619Y-86945261D01*
X107057619Y-87802404D02*
X108057619Y-87802404D01*
X107057619Y-88373833D01*
X108057619Y-88373833D01*
X107057619Y-89373833D02*
X107057619Y-88802404D01*
X107057619Y-89088119D02*
X108057619Y-89088119D01*
X107914761Y-88992880D01*
X107819523Y-88897642D01*
X107771904Y-88802404D01*
X95232857Y-104653214D02*
X95185238Y-104605595D01*
X95137619Y-104462738D01*
X95137619Y-104367500D01*
X95185238Y-104224642D01*
X95280476Y-104129404D01*
X95375714Y-104081785D01*
X95566190Y-104034166D01*
X95709047Y-104034166D01*
X95899523Y-104081785D01*
X95994761Y-104129404D01*
X96090000Y-104224642D01*
X96137619Y-104367500D01*
X96137619Y-104462738D01*
X96090000Y-104605595D01*
X96042380Y-104653214D01*
X96137619Y-105272261D02*
X96137619Y-105462738D01*
X96090000Y-105557976D01*
X95994761Y-105653214D01*
X95804285Y-105700833D01*
X95470952Y-105700833D01*
X95280476Y-105653214D01*
X95185238Y-105557976D01*
X95137619Y-105462738D01*
X95137619Y-105272261D01*
X95185238Y-105177023D01*
X95280476Y-105081785D01*
X95470952Y-105034166D01*
X95804285Y-105034166D01*
X95994761Y-105081785D01*
X96090000Y-105177023D01*
X96137619Y-105272261D01*
X95137619Y-106129404D02*
X96137619Y-106129404D01*
X95137619Y-106700833D01*
X96137619Y-106700833D01*
X95137619Y-107700833D02*
X95137619Y-107129404D01*
X95137619Y-107415119D02*
X96137619Y-107415119D01*
X95994761Y-107319880D01*
X95899523Y-107224642D01*
X95851904Y-107129404D01*
X107152857Y-120726214D02*
X107105238Y-120678595D01*
X107057619Y-120535738D01*
X107057619Y-120440500D01*
X107105238Y-120297642D01*
X107200476Y-120202404D01*
X107295714Y-120154785D01*
X107486190Y-120107166D01*
X107629047Y-120107166D01*
X107819523Y-120154785D01*
X107914761Y-120202404D01*
X108010000Y-120297642D01*
X108057619Y-120440500D01*
X108057619Y-120535738D01*
X108010000Y-120678595D01*
X107962380Y-120726214D01*
X108057619Y-121345261D02*
X108057619Y-121535738D01*
X108010000Y-121630976D01*
X107914761Y-121726214D01*
X107724285Y-121773833D01*
X107390952Y-121773833D01*
X107200476Y-121726214D01*
X107105238Y-121630976D01*
X107057619Y-121535738D01*
X107057619Y-121345261D01*
X107105238Y-121250023D01*
X107200476Y-121154785D01*
X107390952Y-121107166D01*
X107724285Y-121107166D01*
X107914761Y-121154785D01*
X108010000Y-121250023D01*
X108057619Y-121345261D01*
X107057619Y-122202404D02*
X108057619Y-122202404D01*
X107057619Y-122773833D01*
X108057619Y-122773833D01*
X107057619Y-123773833D02*
X107057619Y-123202404D01*
X107057619Y-123488119D02*
X108057619Y-123488119D01*
X107914761Y-123392880D01*
X107819523Y-123297642D01*
X107771904Y-123202404D01*
X95232857Y-120853214D02*
X95185238Y-120805595D01*
X95137619Y-120662738D01*
X95137619Y-120567500D01*
X95185238Y-120424642D01*
X95280476Y-120329404D01*
X95375714Y-120281785D01*
X95566190Y-120234166D01*
X95709047Y-120234166D01*
X95899523Y-120281785D01*
X95994761Y-120329404D01*
X96090000Y-120424642D01*
X96137619Y-120567500D01*
X96137619Y-120662738D01*
X96090000Y-120805595D01*
X96042380Y-120853214D01*
X96137619Y-121472261D02*
X96137619Y-121662738D01*
X96090000Y-121757976D01*
X95994761Y-121853214D01*
X95804285Y-121900833D01*
X95470952Y-121900833D01*
X95280476Y-121853214D01*
X95185238Y-121757976D01*
X95137619Y-121662738D01*
X95137619Y-121472261D01*
X95185238Y-121377023D01*
X95280476Y-121281785D01*
X95470952Y-121234166D01*
X95804285Y-121234166D01*
X95994761Y-121281785D01*
X96090000Y-121377023D01*
X96137619Y-121472261D01*
X95137619Y-122329404D02*
X96137619Y-122329404D01*
X95137619Y-122900833D01*
X96137619Y-122900833D01*
X95137619Y-123900833D02*
X95137619Y-123329404D01*
X95137619Y-123615119D02*
X96137619Y-123615119D01*
X95994761Y-123519880D01*
X95899523Y-123424642D01*
X95851904Y-123329404D01*
X107152857Y-136926214D02*
X107105238Y-136878595D01*
X107057619Y-136735738D01*
X107057619Y-136640500D01*
X107105238Y-136497642D01*
X107200476Y-136402404D01*
X107295714Y-136354785D01*
X107486190Y-136307166D01*
X107629047Y-136307166D01*
X107819523Y-136354785D01*
X107914761Y-136402404D01*
X108010000Y-136497642D01*
X108057619Y-136640500D01*
X108057619Y-136735738D01*
X108010000Y-136878595D01*
X107962380Y-136926214D01*
X108057619Y-137545261D02*
X108057619Y-137735738D01*
X108010000Y-137830976D01*
X107914761Y-137926214D01*
X107724285Y-137973833D01*
X107390952Y-137973833D01*
X107200476Y-137926214D01*
X107105238Y-137830976D01*
X107057619Y-137735738D01*
X107057619Y-137545261D01*
X107105238Y-137450023D01*
X107200476Y-137354785D01*
X107390952Y-137307166D01*
X107724285Y-137307166D01*
X107914761Y-137354785D01*
X108010000Y-137450023D01*
X108057619Y-137545261D01*
X107057619Y-138402404D02*
X108057619Y-138402404D01*
X107057619Y-138973833D01*
X108057619Y-138973833D01*
X107057619Y-139973833D02*
X107057619Y-139402404D01*
X107057619Y-139688119D02*
X108057619Y-139688119D01*
X107914761Y-139592880D01*
X107819523Y-139497642D01*
X107771904Y-139402404D01*
X95232857Y-137053214D02*
X95185238Y-137005595D01*
X95137619Y-136862738D01*
X95137619Y-136767500D01*
X95185238Y-136624642D01*
X95280476Y-136529404D01*
X95375714Y-136481785D01*
X95566190Y-136434166D01*
X95709047Y-136434166D01*
X95899523Y-136481785D01*
X95994761Y-136529404D01*
X96090000Y-136624642D01*
X96137619Y-136767500D01*
X96137619Y-136862738D01*
X96090000Y-137005595D01*
X96042380Y-137053214D01*
X96137619Y-137672261D02*
X96137619Y-137862738D01*
X96090000Y-137957976D01*
X95994761Y-138053214D01*
X95804285Y-138100833D01*
X95470952Y-138100833D01*
X95280476Y-138053214D01*
X95185238Y-137957976D01*
X95137619Y-137862738D01*
X95137619Y-137672261D01*
X95185238Y-137577023D01*
X95280476Y-137481785D01*
X95470952Y-137434166D01*
X95804285Y-137434166D01*
X95994761Y-137481785D01*
X96090000Y-137577023D01*
X96137619Y-137672261D01*
X95137619Y-138529404D02*
X96137619Y-138529404D01*
X95137619Y-139100833D01*
X96137619Y-139100833D01*
X95137619Y-140100833D02*
X95137619Y-139529404D01*
X95137619Y-139815119D02*
X96137619Y-139815119D01*
X95994761Y-139719880D01*
X95899523Y-139624642D01*
X95851904Y-139529404D01*
M02*
