M48
; DRILL file {KiCad (5.1.0)-1} date 5/31/2019 1:31:42 AM
; FORMAT={-:-/ absolute / inch / decimal}
; #@! TF.CreationDate,2019-05-31T01:31:42-04:00
; #@! TF.GenerationSoftware,Kicad,Pcbnew,(5.1.0)-1
FMAT,2
INCH
T1C0.0120
T2C0.0315
T3C0.0472
%
G90
G05
T1
X5.2244Y-4.7756
X5.3622Y-4.7756
X5.5Y-4.7756
X5.6378Y-4.7756
X5.7756Y-4.7756
T3
X5.3031Y-4.3031
X5.3031Y-4.4016
X5.5Y-4.5984
X5.6969Y-4.3031
X5.6969Y-4.4016
T2
G00X5.3031Y-4.5846
M15
G01X5.3031Y-4.6122
M16
G05
G00X5.4016Y-4.5846
M15
G01X5.4016Y-4.6122
M16
G05
G00X5.5138Y-4.4016
M15
G01X5.4862Y-4.4016
M16
G05
G00X5.5984Y-4.5846
M15
G01X5.5984Y-4.6122
M16
G05
G00X5.6969Y-4.5846
M15
G01X5.6969Y-4.6122
M16
G05
T0
M30
